<svg width="33" height="13" viewBox="0 0 33 13" fill="none" xmlns="http://www.w3.org/2000/svg">
<path d="M7.758 10.434V12H0.414L3.186 8.49C4.506 6.858 5.28 5.838 5.508 5.43C5.748 5.01 5.868 4.668 5.868 4.404C5.88 4.332 5.886 4.26 5.886 4.188C5.886 3.708 5.724 3.282 5.4 2.91C5.088 2.538 4.674 2.352 4.158 2.352C3.642 2.352 3.234 2.562 2.934 2.982C2.646 3.402 2.502 3.912 2.502 4.512H0.558C0.558 3.432 0.876 2.544 1.512 1.848C2.16 1.14 3.036 0.786 4.14 0.786C5.136 0.786 5.976 1.122 6.66 1.794C7.344 2.466 7.686 3.306 7.686 4.314C7.686 5.262 6.96 6.582 5.508 8.274L3.654 10.434H7.758ZM16.4672 6.546C16.4672 8.13 16.1192 9.486 15.4232 10.614C14.7272 11.73 13.7672 12.288 12.5432 12.288C11.3312 12.288 10.3772 11.724 9.68119 10.596C8.98519 9.468 8.63719 8.118 8.63719 6.546C8.63719 4.914 8.98519 3.546 9.68119 2.442C10.3892 1.338 11.3492 0.786 12.5612 0.786C13.7732 0.786 14.7272 1.35 15.4232 2.478C16.1192 3.594 16.4672 4.95 16.4672 6.546ZM10.4372 6.528C10.4372 7.632 10.6292 8.61 11.0132 9.462C11.3972 10.302 11.9192 10.722 12.5792 10.722C13.2392 10.722 13.7492 10.326 14.1092 9.534C14.4812 8.742 14.6672 7.74 14.6672 6.528C14.6672 5.412 14.4752 4.44 14.0912 3.612C13.7072 2.772 13.1912 2.352 12.5432 2.352C11.9072 2.352 11.3972 2.79 11.0132 3.666C10.6292 4.53 10.4372 5.484 10.4372 6.528ZM18.8404 2.64V1.074H22.2604V12H20.4064V2.64H18.8404ZM28.8456 2.64L28.4136 4.602L29.2596 4.566C30.3036 4.566 31.1496 4.938 31.7976 5.682C32.4576 6.414 32.7876 7.308 32.7876 8.364C32.7876 9.54 32.4216 10.488 31.6896 11.208C30.9576 11.928 29.9976 12.288 28.8096 12.288C27.4896 12.288 26.4096 11.808 25.5696 10.848L26.1096 9.264C26.8056 10.236 27.6576 10.722 28.6656 10.722C29.2896 10.722 29.8176 10.506 30.2496 10.074C30.6936 9.63 30.9156 9.036 30.9156 8.292C30.9156 7.536 30.6876 6.948 30.2316 6.528C29.7756 6.108 29.1996 5.898 28.5036 5.898C27.8076 5.898 27.2376 6.138 26.7936 6.618H26.4516L27.5856 1.074H32.3376V2.64H28.8456Z" fill="black"/>
</svg>
