<svg width="22" height="9" viewBox="0 0 22 9" fill="none" xmlns="http://www.w3.org/2000/svg">
<path d="M5.172 6.956V8H0.276L2.124 5.66C3.004 4.572 3.52 3.892 3.672 3.62C3.832 3.34 3.912 3.112 3.912 2.936C3.92 2.888 3.924 2.84 3.924 2.792C3.924 2.472 3.816 2.188 3.6 1.94C3.392 1.692 3.116 1.568 2.772 1.568C2.428 1.568 2.156 1.708 1.956 1.988C1.764 2.268 1.668 2.608 1.668 3.008H0.372C0.372 2.288 0.584 1.696 1.008 1.232C1.44 0.76 2.024 0.524 2.76 0.524C3.424 0.524 3.984 0.748 4.44 1.196C4.896 1.644 5.124 2.204 5.124 2.876C5.124 3.508 4.64 4.388 3.672 5.516L2.436 6.956H5.172ZM10.9781 4.364C10.9781 5.42 10.7461 6.324 10.2821 7.076C9.81813 7.82 9.17813 8.192 8.36213 8.192C7.55413 8.192 6.91813 7.816 6.45413 7.064C5.99013 6.312 5.75813 5.412 5.75813 4.364C5.75813 3.276 5.99013 2.364 6.45413 1.628C6.92613 0.892 7.56613 0.524 8.37413 0.524C9.18213 0.524 9.81813 0.9 10.2821 1.652C10.7461 2.396 10.9781 3.3 10.9781 4.364ZM6.95813 4.352C6.95813 5.088 7.08613 5.74 7.34212 6.308C7.59813 6.868 7.94613 7.148 8.38613 7.148C8.82613 7.148 9.16613 6.884 9.40613 6.356C9.65413 5.828 9.77813 5.16 9.77813 4.352C9.77813 3.608 9.65013 2.96 9.39413 2.408C9.13813 1.848 8.79413 1.568 8.36213 1.568C7.93813 1.568 7.59813 1.86 7.34212 2.444C7.08613 3.02 6.95813 3.656 6.95813 4.352ZM12.5603 1.76V0.715999H14.8403V8H13.6043V1.76H12.5603ZM17.3944 2.6C17.3944 1.984 17.5984 1.484 18.0064 1.1C18.4144 0.716 18.9224 0.524 19.5304 0.524C20.1384 0.524 20.6464 0.716 21.0544 1.1C21.4624 1.484 21.6664 1.984 21.6664 2.6C21.6664 3.352 21.3464 3.888 20.7064 4.208C21.4904 4.496 21.8824 5.112 21.8824 6.056C21.8824 6.696 21.6504 7.212 21.1864 7.604C20.7304 7.996 20.1744 8.192 19.5184 8.192C18.8624 8.192 18.3064 7.996 17.8504 7.604C17.3944 7.204 17.1664 6.688 17.1664 6.056C17.1664 5.128 17.5584 4.512 18.3424 4.208C17.7104 3.88 17.3944 3.344 17.3944 2.6ZM18.4024 5.9C18.4024 6.308 18.5104 6.628 18.7264 6.86C18.9424 7.092 19.2184 7.208 19.5544 7.208C19.8904 7.208 20.1544 7.088 20.3464 6.848C20.5464 6.6 20.6464 6.284 20.6464 5.9C20.6464 5.564 20.5424 5.28 20.3344 5.048C20.1264 4.816 19.8584 4.7 19.5304 4.7C19.2344 4.7 18.9704 4.82 18.7384 5.06C18.5144 5.292 18.4024 5.572 18.4024 5.9ZM18.4984 2.6C18.4984 2.928 18.5984 3.196 18.7984 3.404C18.9984 3.612 19.2424 3.716 19.5304 3.716C19.8264 3.716 20.0704 3.62 20.2624 3.428C20.4624 3.228 20.5624 2.952 20.5624 2.6C20.5624 2.248 20.4664 1.96 20.2744 1.736C20.0904 1.504 19.8464 1.388 19.5424 1.388C19.2384 1.388 18.9864 1.496 18.7864 1.712C18.5944 1.92 18.4984 2.216 18.4984 2.6Z" fill="black"/>
</svg>
