<svg width="33" height="13" viewBox="0 0 33 13" fill="none" xmlns="http://www.w3.org/2000/svg">
<path d="M7.758 10.434V12H0.414L3.186 8.49C4.506 6.858 5.28 5.838 5.508 5.43C5.748 5.01 5.868 4.668 5.868 4.404C5.88 4.332 5.886 4.26 5.886 4.188C5.886 3.708 5.724 3.282 5.4 2.91C5.088 2.538 4.674 2.352 4.158 2.352C3.642 2.352 3.234 2.562 2.934 2.982C2.646 3.402 2.502 3.912 2.502 4.512H0.558C0.558 3.432 0.876 2.544 1.512 1.848C2.16 1.14 3.036 0.786 4.14 0.786C5.136 0.786 5.976 1.122 6.66 1.794C7.344 2.466 7.686 3.306 7.686 4.314C7.686 5.262 6.96 6.582 5.508 8.274L3.654 10.434H7.758ZM16.4672 6.546C16.4672 8.13 16.1192 9.486 15.4232 10.614C14.7272 11.73 13.7672 12.288 12.5432 12.288C11.3312 12.288 10.3772 11.724 9.68119 10.596C8.98519 9.468 8.63719 8.118 8.63719 6.546C8.63719 4.914 8.98519 3.546 9.68119 2.442C10.3892 1.338 11.3492 0.786 12.5612 0.786C13.7732 0.786 14.7272 1.35 15.4232 2.478C16.1192 3.594 16.4672 4.95 16.4672 6.546ZM10.4372 6.528C10.4372 7.632 10.6292 8.61 11.0132 9.462C11.3972 10.302 11.9192 10.722 12.5792 10.722C13.2392 10.722 13.7492 10.326 14.1092 9.534C14.4812 8.742 14.6672 7.74 14.6672 6.528C14.6672 5.412 14.4752 4.44 14.0912 3.612C13.7072 2.772 13.1912 2.352 12.5432 2.352C11.9072 2.352 11.3972 2.79 11.0132 3.666C10.6292 4.53 10.4372 5.484 10.4372 6.528ZM18.8404 2.64V1.074H22.2604V12H20.4064V2.64H18.8404ZM26.0916 3.9C26.0916 2.976 26.3976 2.226 27.0096 1.65C27.6216 1.074 28.3836 0.786 29.2956 0.786C30.2076 0.786 30.9696 1.074 31.5816 1.65C32.1936 2.226 32.4996 2.976 32.4996 3.9C32.4996 5.028 32.0196 5.832 31.0596 6.312C32.2356 6.744 32.8236 7.668 32.8236 9.084C32.8236 10.044 32.4756 10.818 31.7796 11.406C31.0956 11.994 30.2616 12.288 29.2776 12.288C28.2936 12.288 27.4596 11.994 26.7756 11.406C26.0916 10.806 25.7496 10.032 25.7496 9.084C25.7496 7.692 26.3376 6.768 27.5136 6.312C26.5656 5.82 26.0916 5.016 26.0916 3.9ZM27.6036 8.85C27.6036 9.462 27.7656 9.942 28.0896 10.29C28.4136 10.638 28.8276 10.812 29.3316 10.812C29.8356 10.812 30.2316 10.632 30.5196 10.272C30.8196 9.9 30.9696 9.426 30.9696 8.85C30.9696 8.346 30.8136 7.92 30.5016 7.572C30.1896 7.224 29.7876 7.05 29.2956 7.05C28.8516 7.05 28.4556 7.23 28.1076 7.59C27.7716 7.938 27.6036 8.358 27.6036 8.85ZM27.7476 3.9C27.7476 4.392 27.8976 4.794 28.1976 5.106C28.4976 5.418 28.8636 5.574 29.2956 5.574C29.7396 5.574 30.1056 5.43 30.3936 5.142C30.6936 4.842 30.8436 4.428 30.8436 3.9C30.8436 3.372 30.6996 2.94 30.4116 2.604C30.1356 2.256 29.7696 2.082 29.3136 2.082C28.8576 2.082 28.4796 2.244 28.1796 2.568C27.8916 2.88 27.7476 3.324 27.7476 3.9Z" fill="black"/>
</svg>
