<svg width="23" height="9" viewBox="0 0 23 9" fill="none" xmlns="http://www.w3.org/2000/svg">
<path d="M5.172 6.956V8H0.276L2.124 5.66C3.004 4.572 3.52 3.892 3.672 3.62C3.832 3.34 3.912 3.112 3.912 2.936C3.92 2.888 3.924 2.84 3.924 2.792C3.924 2.472 3.816 2.188 3.6 1.94C3.392 1.692 3.116 1.568 2.772 1.568C2.428 1.568 2.156 1.708 1.956 1.988C1.764 2.268 1.668 2.608 1.668 3.008H0.372C0.372 2.288 0.584 1.696 1.008 1.232C1.44 0.76 2.024 0.524 2.76 0.524C3.424 0.524 3.984 0.748 4.44 1.196C4.896 1.644 5.124 2.204 5.124 2.876C5.124 3.508 4.64 4.388 3.672 5.516L2.436 6.956H5.172ZM10.9781 4.364C10.9781 5.42 10.7461 6.324 10.2821 7.076C9.81813 7.82 9.17813 8.192 8.36213 8.192C7.55413 8.192 6.91813 7.816 6.45413 7.064C5.99013 6.312 5.75813 5.412 5.75813 4.364C5.75813 3.276 5.99013 2.364 6.45413 1.628C6.92613 0.892 7.56613 0.524 8.37413 0.524C9.18213 0.524 9.81813 0.9 10.2821 1.652C10.7461 2.396 10.9781 3.3 10.9781 4.364ZM6.95813 4.352C6.95813 5.088 7.08613 5.74 7.34212 6.308C7.59813 6.868 7.94613 7.148 8.38613 7.148C8.82613 7.148 9.16613 6.884 9.40613 6.356C9.65413 5.828 9.77813 5.16 9.77813 4.352C9.77813 3.608 9.65013 2.96 9.39413 2.408C9.13813 1.848 8.79413 1.568 8.36213 1.568C7.93813 1.568 7.59813 1.86 7.34212 2.444C7.08613 3.02 6.95813 3.656 6.95813 4.352ZM12.5603 1.76V0.715999H14.8403V8H13.6043V1.76H12.5603ZM18.3784 7.64L19.9264 5.408C19.6624 5.48 19.4024 5.516 19.1464 5.516C18.4984 5.516 17.9744 5.28 17.5744 4.808C17.1824 4.336 16.9864 3.768 16.9864 3.104C16.9864 2.344 17.2264 1.724 17.7064 1.244C18.1864 0.764 18.8024 0.524 19.5544 0.524C20.2824 0.524 20.8904 0.756 21.3784 1.22C21.8664 1.684 22.1104 2.284 22.1104 3.02C22.1104 3.756 21.8144 4.564 21.2224 5.444L19.2904 8.312L18.3784 7.64ZM18.2224 3.068C18.2224 3.484 18.3424 3.844 18.5824 4.148C18.8304 4.452 19.1584 4.604 19.5664 4.604C19.9744 4.604 20.2984 4.452 20.5384 4.148C20.7864 3.836 20.9104 3.468 20.9104 3.044C20.9104 2.62 20.7904 2.256 20.5504 1.952C20.3104 1.648 19.9824 1.496 19.5664 1.496C19.1584 1.496 18.8304 1.652 18.5824 1.964C18.3424 2.276 18.2224 2.644 18.2224 3.068Z" fill="black"/>
</svg>
