<svg width="34" height="13" viewBox="0 0 34 13" fill="none" xmlns="http://www.w3.org/2000/svg">
<path d="M7.758 10.434V12H0.414L3.186 8.49C4.506 6.858 5.28 5.838 5.508 5.43C5.748 5.01 5.868 4.668 5.868 4.404C5.88 4.332 5.886 4.26 5.886 4.188C5.886 3.708 5.724 3.282 5.4 2.91C5.088 2.538 4.674 2.352 4.158 2.352C3.642 2.352 3.234 2.562 2.934 2.982C2.646 3.402 2.502 3.912 2.502 4.512H0.558C0.558 3.432 0.876 2.544 1.512 1.848C2.16 1.14 3.036 0.786 4.14 0.786C5.136 0.786 5.976 1.122 6.66 1.794C7.344 2.466 7.686 3.306 7.686 4.314C7.686 5.262 6.96 6.582 5.508 8.274L3.654 10.434H7.758ZM16.4672 6.546C16.4672 8.13 16.1192 9.486 15.4232 10.614C14.7272 11.73 13.7672 12.288 12.5432 12.288C11.3312 12.288 10.3772 11.724 9.68119 10.596C8.98519 9.468 8.63719 8.118 8.63719 6.546C8.63719 4.914 8.98519 3.546 9.68119 2.442C10.3892 1.338 11.3492 0.786 12.5612 0.786C13.7732 0.786 14.7272 1.35 15.4232 2.478C16.1192 3.594 16.4672 4.95 16.4672 6.546ZM10.4372 6.528C10.4372 7.632 10.6292 8.61 11.0132 9.462C11.3972 10.302 11.9192 10.722 12.5792 10.722C13.2392 10.722 13.7492 10.326 14.1092 9.534C14.4812 8.742 14.6672 7.74 14.6672 6.528C14.6672 5.412 14.4752 4.44 14.0912 3.612C13.7072 2.772 13.1912 2.352 12.5432 2.352C11.9072 2.352 11.3972 2.79 11.0132 3.666C10.6292 4.53 10.4372 5.484 10.4372 6.528ZM18.8404 2.64V1.074H22.2604V12H20.4064V2.64H18.8404ZM27.5676 11.46L29.8896 8.112C29.4936 8.22 29.1036 8.274 28.7196 8.274C27.7476 8.274 26.9616 7.92 26.3616 7.212C25.7736 6.504 25.4796 5.652 25.4796 4.656C25.4796 3.516 25.8396 2.586 26.5596 1.866C27.2796 1.146 28.2036 0.786 29.3316 0.786C30.4236 0.786 31.3356 1.134 32.0676 1.83C32.7996 2.526 33.1656 3.426 33.1656 4.53C33.1656 5.634 32.7216 6.846 31.8336 8.166L28.9356 12.468L27.5676 11.46ZM27.3336 4.602C27.3336 5.226 27.5136 5.766 27.8736 6.222C28.2456 6.678 28.7376 6.906 29.3496 6.906C29.9616 6.906 30.4476 6.678 30.8076 6.222C31.1796 5.754 31.3656 5.202 31.3656 4.566C31.3656 3.93 31.1856 3.384 30.8256 2.928C30.4656 2.472 29.9736 2.244 29.3496 2.244C28.7376 2.244 28.2456 2.478 27.8736 2.946C27.5136 3.414 27.3336 3.966 27.3336 4.602Z" fill="black"/>
</svg>
