<svg width="34" height="13" viewBox="0 0 34 13" fill="none" xmlns="http://www.w3.org/2000/svg">
<path d="M7.758 10.434V12H0.414L3.186 8.49C4.506 6.858 5.28 5.838 5.508 5.43C5.748 5.01 5.868 4.668 5.868 4.404C5.88 4.332 5.886 4.26 5.886 4.188C5.886 3.708 5.724 3.282 5.4 2.91C5.088 2.538 4.674 2.352 4.158 2.352C3.642 2.352 3.234 2.562 2.934 2.982C2.646 3.402 2.502 3.912 2.502 4.512H0.558C0.558 3.432 0.876 2.544 1.512 1.848C2.16 1.14 3.036 0.786 4.14 0.786C5.136 0.786 5.976 1.122 6.66 1.794C7.344 2.466 7.686 3.306 7.686 4.314C7.686 5.262 6.96 6.582 5.508 8.274L3.654 10.434H7.758ZM16.4672 6.546C16.4672 8.13 16.1192 9.486 15.4232 10.614C14.7272 11.73 13.7672 12.288 12.5432 12.288C11.3312 12.288 10.3772 11.724 9.68119 10.596C8.98519 9.468 8.63719 8.118 8.63719 6.546C8.63719 4.914 8.98519 3.546 9.68119 2.442C10.3892 1.338 11.3492 0.786 12.5612 0.786C13.7732 0.786 14.7272 1.35 15.4232 2.478C16.1192 3.594 16.4672 4.95 16.4672 6.546ZM10.4372 6.528C10.4372 7.632 10.6292 8.61 11.0132 9.462C11.3972 10.302 11.9192 10.722 12.5792 10.722C13.2392 10.722 13.7492 10.326 14.1092 9.534C14.4812 8.742 14.6672 7.74 14.6672 6.528C14.6672 5.412 14.4752 4.44 14.0912 3.612C13.7072 2.772 13.1912 2.352 12.5432 2.352C11.9072 2.352 11.3972 2.79 11.0132 3.666C10.6292 4.53 10.4372 5.484 10.4372 6.528ZM24.4924 10.434V12H17.1484L19.9204 8.49C21.2404 6.858 22.0144 5.838 22.2424 5.43C22.4824 5.01 22.6024 4.668 22.6024 4.404C22.6144 4.332 22.6204 4.26 22.6204 4.188C22.6204 3.708 22.4584 3.282 22.1344 2.91C21.8224 2.538 21.4084 2.352 20.8924 2.352C20.3764 2.352 19.9684 2.562 19.6684 2.982C19.3804 3.402 19.2364 3.912 19.2364 4.512H17.2924C17.2924 3.432 17.6104 2.544 18.2464 1.848C18.8944 1.14 19.7704 0.786 20.8744 0.786C21.8704 0.786 22.7104 1.122 23.3944 1.794C24.0784 2.466 24.4204 3.306 24.4204 4.314C24.4204 5.262 23.6944 6.582 22.2424 8.274L20.3884 10.434H24.4924ZM33.2016 6.546C33.2016 8.13 32.8536 9.486 32.1576 10.614C31.4616 11.73 30.5016 12.288 29.2776 12.288C28.0656 12.288 27.1116 11.724 26.4156 10.596C25.7196 9.468 25.3716 8.118 25.3716 6.546C25.3716 4.914 25.7196 3.546 26.4156 2.442C27.1236 1.338 28.0836 0.786 29.2956 0.786C30.5076 0.786 31.4616 1.35 32.1576 2.478C32.8536 3.594 33.2016 4.95 33.2016 6.546ZM27.1716 6.528C27.1716 7.632 27.3636 8.61 27.7476 9.462C28.1316 10.302 28.6536 10.722 29.3136 10.722C29.9736 10.722 30.4836 10.326 30.8436 9.534C31.2156 8.742 31.4016 7.74 31.4016 6.528C31.4016 5.412 31.2096 4.44 30.8256 3.612C30.4416 2.772 29.9256 2.352 29.2776 2.352C28.6416 2.352 28.1316 2.79 27.7476 3.666C27.3636 4.53 27.1716 5.484 27.1716 6.528Z" fill="black"/>
</svg>
