<svg width="48" height="30" viewBox="0 0 48 30" fill="none" xmlns="http://www.w3.org/2000/svg">
<path d="M1.692 8.872C1.884 6.928 2.568 5.392 3.744 4.264C4.92 3.136 6.456 2.572 8.352 2.572C10.272 2.572 11.808 3.124 12.96 4.228C14.112 5.332 14.688 6.832 14.688 8.728C14.688 10.84 13.992 12.364 12.6 13.3C14.472 14.116 15.408 15.892 15.408 18.628C15.408 20.74 14.724 22.432 13.356 23.704C12.012 24.952 10.272 25.576 8.136 25.576C6.144 25.576 4.44 24.916 3.024 23.596C1.608 22.276 0.9 20.644 0.9 18.7H4.608C4.608 19.756 4.956 20.644 5.652 21.364C6.348 22.084 7.224 22.444 8.28 22.444C9.36 22.444 10.212 22.048 10.836 21.256C11.484 20.464 11.808 19.504 11.808 18.376C11.808 17.44 11.46 16.576 10.764 15.784C10.092 14.968 9.324 14.56 8.46 14.56C8.364 14.56 8.268 14.572 8.172 14.596L7.38 14.668V12.184H7.848C8.76 12.184 9.54 11.872 10.188 11.248C10.86 10.6 11.196 9.808 11.196 8.872C11.196 6.64 10.188 5.524 8.172 5.524C6.18 5.524 5.184 6.64 5.184 8.872H1.692ZM31.4584 1.528L20.8024 29.752L17.6704 28.6L28.2904 0.339998L31.4584 1.528ZM34.0358 8.872C34.2278 6.928 34.9118 5.392 36.0878 4.264C37.2638 3.136 38.7998 2.572 40.6958 2.572C42.6158 2.572 44.1518 3.124 45.3038 4.228C46.4558 5.332 47.0318 6.832 47.0318 8.728C47.0318 10.84 46.3358 12.364 44.9438 13.3C46.8158 14.116 47.7518 15.892 47.7518 18.628C47.7518 20.74 47.0678 22.432 45.6998 23.704C44.3558 24.952 42.6158 25.576 40.4798 25.576C38.4878 25.576 36.7838 24.916 35.3678 23.596C33.9518 22.276 33.2438 20.644 33.2438 18.7H36.9518C36.9518 19.756 37.2998 20.644 37.9958 21.364C38.6918 22.084 39.5678 22.444 40.6238 22.444C41.7038 22.444 42.5558 22.048 43.1798 21.256C43.8278 20.464 44.1518 19.504 44.1518 18.376C44.1518 17.44 43.8038 16.576 43.1078 15.784C42.4358 14.968 41.6678 14.56 40.8038 14.56C40.7078 14.56 40.6118 14.572 40.5158 14.596L39.7238 14.668V12.184H40.1918C41.1038 12.184 41.8838 11.872 42.5318 11.248C43.2038 10.6 43.5398 9.808 43.5398 8.872C43.5398 6.64 42.5318 5.524 40.5158 5.524C38.5238 5.524 37.5278 6.64 37.5278 8.872H34.0358Z" fill="black"/>
</svg>
