<svg width="44" height="30" viewBox="0 0 44 30" fill="none" xmlns="http://www.w3.org/2000/svg">
<path d="M0.212 6.28V3.148H7.052V25H3.344V6.28H0.212ZM27.4584 1.528L16.8024 29.752L13.6704 28.6L24.2904 0.339998L27.4584 1.528ZM30.0358 8.872C30.2278 6.928 30.9118 5.392 32.0878 4.264C33.2638 3.136 34.7998 2.572 36.6958 2.572C38.6158 2.572 40.1518 3.124 41.3038 4.228C42.4558 5.332 43.0318 6.832 43.0318 8.728C43.0318 10.84 42.3358 12.364 40.9438 13.3C42.8158 14.116 43.7518 15.892 43.7518 18.628C43.7518 20.74 43.0678 22.432 41.6998 23.704C40.3558 24.952 38.6158 25.576 36.4798 25.576C34.4878 25.576 32.7838 24.916 31.3678 23.596C29.9518 22.276 29.2438 20.644 29.2438 18.7H32.9518C32.9518 19.756 33.2998 20.644 33.9958 21.364C34.6918 22.084 35.5678 22.444 36.6238 22.444C37.7038 22.444 38.5558 22.048 39.1798 21.256C39.8278 20.464 40.1518 19.504 40.1518 18.376C40.1518 17.44 39.8038 16.576 39.1078 15.784C38.4358 14.968 37.6678 14.56 36.8038 14.56C36.7078 14.56 36.6118 14.572 36.5158 14.596L35.7238 14.668V12.184H36.1918C37.1038 12.184 37.8838 11.872 38.5318 11.248C39.2038 10.6 39.5398 9.808 39.5398 8.872C39.5398 6.64 38.5318 5.524 36.5158 5.524C34.5238 5.524 33.5278 6.64 33.5278 8.872H30.0358Z" fill="black"/>
</svg>
