<svg width="327" height="13" viewBox="0 0 327 13" fill="none" xmlns="http://www.w3.org/2000/svg">
<path d="M3.184 8.096L2.428 10H0.902L4.206 1.278H5.494L8.714 10H7.174L6.46 8.096H3.184ZM4.766 3.364L3.534 6.962H6.068L4.766 3.364ZM16.8187 5.618C16.52 5.338 16.2074 5.198 15.8807 5.198C15.386 5.198 15.1387 5.422 15.1387 5.87C15.1387 6.122 15.3627 6.32733 15.8107 6.486C16.632 6.78467 17.1407 7.06 17.3367 7.312C17.5327 7.55467 17.6307 7.858 17.6307 8.222C17.6307 8.81933 17.4207 9.29533 17.0007 9.65C16.59 10.0047 16.0814 10.182 15.4747 10.182C14.6907 10.182 14.042 9.874 13.5287 9.258L14.1307 8.488C14.5974 8.95467 15.0267 9.188 15.4187 9.188C15.988 9.188 16.2727 8.91267 16.2727 8.362C16.2727 8.082 16.1234 7.87667 15.8247 7.746C15.526 7.606 15.2974 7.50333 15.1387 7.438C14.28 7.06467 13.8507 6.612 13.8507 6.08C13.8507 5.548 14.0094 5.11867 14.3267 4.792C14.6534 4.456 15.078 4.288 15.6007 4.288C16.3474 4.288 16.94 4.47933 17.3787 4.862L16.8187 5.618ZM23.9178 7.228C23.9178 8.096 23.6518 8.80533 23.1198 9.356C22.5878 9.90667 21.8878 10.182 21.0198 10.182C20.1611 10.182 19.4611 9.90667 18.9198 9.356C18.3784 8.80533 18.1078 8.10067 18.1078 7.242C18.1078 6.374 18.3738 5.66467 18.9058 5.114C19.4378 4.56333 20.1378 4.288 21.0058 4.288C21.8738 4.288 22.5738 4.56333 23.1058 5.114C23.6471 5.65533 23.9178 6.36 23.9178 7.228ZM19.4798 7.256C19.4798 7.76933 19.6244 8.18933 19.9138 8.516C20.2031 8.84267 20.5764 9.006 21.0338 9.006C21.4911 9.006 21.8551 8.83333 22.1258 8.488C22.4058 8.13333 22.5458 7.718 22.5458 7.242C22.5458 6.75667 22.4058 6.34133 22.1258 5.996C21.8458 5.64133 21.4771 5.464 21.0198 5.464C20.5718 5.464 20.2031 5.632 19.9138 5.968C19.6244 6.304 19.4798 6.73333 19.4798 7.256ZM28.4315 5.912C28.0861 5.56667 27.6988 5.394 27.2695 5.394C26.7655 5.394 26.3688 5.576 26.0795 5.94C25.7901 6.304 25.6455 6.752 25.6455 7.284C25.6455 7.80667 25.8088 8.236 26.1355 8.572C26.4621 8.908 26.8588 9.076 27.3255 9.076C27.7268 9.076 28.0955 8.89867 28.4315 8.544V9.846C28.0395 10.07 27.5868 10.182 27.0735 10.182C26.2708 10.182 25.6035 9.89733 25.0715 9.328C24.5395 8.75867 24.2735 8.06333 24.2735 7.242C24.2735 6.42067 24.5441 5.72533 25.0855 5.156C25.6361 4.57733 26.3221 4.288 27.1435 4.288C27.6288 4.288 28.0581 4.40467 28.4315 4.638V5.912ZM31.0756 2.146C31.0756 2.36067 30.9963 2.54733 30.8376 2.706C30.6789 2.86467 30.4923 2.944 30.2776 2.944C30.0629 2.944 29.8763 2.86467 29.7176 2.706C29.5589 2.54733 29.4796 2.36067 29.4796 2.146C29.4796 1.93133 29.5589 1.74467 29.7176 1.586C29.8763 1.42733 30.0629 1.348 30.2776 1.348C30.4923 1.348 30.6789 1.42733 30.8376 1.586C30.9963 1.74467 31.0756 1.93133 31.0756 2.146ZM30.9636 10H29.6056V4.47H30.9636V10ZM37.503 10H36.173V9.496C35.781 9.95333 35.1977 10.182 34.423 10.182C33.6484 10.182 33.0277 9.88333 32.561 9.286C32.1037 8.68867 31.875 7.98867 31.875 7.186C31.875 6.38333 32.1084 5.702 32.575 5.142C33.051 4.57267 33.6577 4.288 34.395 4.288C35.179 4.288 35.7717 4.52133 36.173 4.988V4.47H37.503V10ZM36.327 7.228C36.327 6.71467 36.1824 6.29467 35.893 5.968C35.6037 5.632 35.2304 5.464 34.773 5.464C34.325 5.464 33.9564 5.62733 33.667 5.954C33.387 6.27133 33.247 6.696 33.247 7.228C33.247 7.76 33.3917 8.18933 33.681 8.516C33.9704 8.84267 34.3437 9.006 34.801 9.006C35.2584 9.006 35.627 8.84733 35.907 8.53C36.187 8.21267 36.327 7.77867 36.327 7.228ZM40.1081 10H38.7501V0.438H40.1081V10ZM51.2433 10H49.9133V9.496C49.5213 9.95333 48.9379 10.182 48.1633 10.182C47.3886 10.182 46.7679 9.88333 46.3013 9.286C45.8439 8.68867 45.6153 7.98867 45.6153 7.186C45.6153 6.38333 45.8486 5.702 46.3153 5.142C46.7913 4.57267 47.3979 4.288 48.1353 4.288C48.9193 4.288 49.5119 4.52133 49.9133 4.988V4.47H51.2433V10ZM50.0673 7.228C50.0673 6.71467 49.9226 6.29467 49.6333 5.968C49.3439 5.632 48.9706 5.464 48.5133 5.464C48.0653 5.464 47.6966 5.62733 47.4073 5.954C47.1273 6.27133 46.9873 6.696 46.9873 7.228C46.9873 7.76 47.1319 8.18933 47.4213 8.516C47.7106 8.84267 48.0839 9.006 48.5413 9.006C48.9986 9.006 49.3673 8.84733 49.6473 8.53C49.9273 8.21267 50.0673 7.77867 50.0673 7.228ZM53.7364 4.974C54.1284 4.51667 54.7117 4.288 55.4864 4.288C56.2144 4.288 56.8164 4.57733 57.2924 5.156C57.7777 5.73467 58.0204 6.416 58.0204 7.2C58.0204 8.04933 57.7824 8.75867 57.3064 9.328C56.8304 9.89733 56.2144 10.182 55.4584 10.182C54.6464 10.182 54.0817 9.94867 53.7644 9.482L53.7364 12.338H52.3784V4.47H53.7364V4.974ZM56.6344 7.228C56.6344 6.752 56.499 6.34133 56.2284 5.996C55.9577 5.64133 55.5844 5.464 55.1084 5.464C54.6697 5.464 54.3057 5.64133 54.0164 5.996C53.727 6.35067 53.5824 6.76133 53.5824 7.228C53.5824 7.68533 53.7364 8.096 54.0444 8.46C54.3524 8.824 54.707 9.006 55.1084 9.006C55.5844 9.006 55.9577 8.838 56.2284 8.502C56.499 8.166 56.6344 7.74133 56.6344 7.228ZM60.1075 4.974C60.4995 4.51667 61.0828 4.288 61.8575 4.288C62.5855 4.288 63.1875 4.57733 63.6635 5.156C64.1488 5.73467 64.3915 6.416 64.3915 7.2C64.3915 8.04933 64.1535 8.75867 63.6775 9.328C63.2015 9.89733 62.5855 10.182 61.8295 10.182C61.0175 10.182 60.4528 9.94867 60.1355 9.482L60.1075 12.338H58.7495V4.47H60.1075V4.974ZM63.0055 7.228C63.0055 6.752 62.8701 6.34133 62.5995 5.996C62.3288 5.64133 61.9555 5.464 61.4795 5.464C61.0408 5.464 60.6768 5.64133 60.3875 5.996C60.0981 6.35067 59.9535 6.76133 59.9535 7.228C59.9535 7.68533 60.1075 8.096 60.4155 8.46C60.7235 8.824 61.0781 9.006 61.4795 9.006C61.9555 9.006 62.3288 8.838 62.5995 8.502C62.8701 8.166 63.0055 7.74133 63.0055 7.228ZM71.8963 8.082L73.3663 4.288H73.8563L75.3963 8.068L76.7683 4.47H78.2663L75.6903 10.112H75.0043L73.7303 6.57L72.2743 10.112H71.5743L69.0403 4.47H70.5383L71.8963 8.082ZM79.9727 0.438V4.932C80.3274 4.50267 80.892 4.288 81.6667 4.288C82.2454 4.288 82.7074 4.512 83.0527 4.96C83.398 5.408 83.5707 5.96333 83.5707 6.626V10H82.2267V7.074C82.2267 5.90733 81.8674 5.324 81.1487 5.324C80.3647 5.324 79.9727 5.968 79.9727 7.256V10H78.6147V0.438H79.9727ZM86.3647 2.146C86.3647 2.36067 86.2853 2.54733 86.1267 2.706C85.968 2.86467 85.7813 2.944 85.5667 2.944C85.352 2.944 85.1653 2.86467 85.0067 2.706C84.848 2.54733 84.7687 2.36067 84.7687 2.146C84.7687 1.93133 84.848 1.74467 85.0067 1.586C85.1653 1.42733 85.352 1.348 85.5667 1.348C85.7813 1.348 85.968 1.42733 86.1267 1.586C86.2853 1.74467 86.3647 1.93133 86.3647 2.146ZM86.2527 10H84.8947V4.47H86.2527V10ZM91.3221 5.912C90.9768 5.56667 90.5894 5.394 90.1601 5.394C89.6561 5.394 89.2594 5.576 88.9701 5.94C88.6808 6.304 88.5361 6.752 88.5361 7.284C88.5361 7.80667 88.6994 8.236 89.0261 8.572C89.3528 8.908 89.7494 9.076 90.2161 9.076C90.6174 9.076 90.9861 8.89867 91.3221 8.544V9.846C90.9301 10.07 90.4774 10.182 89.9641 10.182C89.1614 10.182 88.4941 9.89733 87.9621 9.328C87.4301 8.75867 87.1641 8.06333 87.1641 7.242C87.1641 6.42067 87.4348 5.72533 87.9761 5.156C88.5268 4.57733 89.2128 4.288 90.0341 4.288C90.5194 4.288 90.9488 4.40467 91.3221 4.638V5.912ZM93.6582 0.438V4.932C94.0129 4.50267 94.5776 4.288 95.3522 4.288C95.9309 4.288 96.3929 4.512 96.7382 4.96C97.0836 5.408 97.2562 5.96333 97.2562 6.626V10H95.9122V7.074C95.9122 5.90733 95.5529 5.324 94.8342 5.324C94.0502 5.324 93.6582 5.968 93.6582 7.256V10H92.3002V0.438H93.6582ZM104.418 4.974C104.81 4.51667 105.393 4.288 106.168 4.288C106.896 4.288 107.498 4.57733 107.974 5.156C108.459 5.73467 108.702 6.416 108.702 7.2C108.702 8.04933 108.464 8.75867 107.988 9.328C107.512 9.89733 106.896 10.182 106.14 10.182C105.328 10.182 104.763 9.94867 104.446 9.482L104.418 12.338H103.06V4.47H104.418V4.974ZM107.316 7.228C107.316 6.752 107.181 6.34133 106.91 5.996C106.639 5.64133 106.266 5.464 105.79 5.464C105.351 5.464 104.987 5.64133 104.698 5.996C104.409 6.35067 104.264 6.76133 104.264 7.228C104.264 7.68533 104.418 8.096 104.726 8.46C105.034 8.824 105.389 9.006 105.79 9.006C106.266 9.006 106.639 8.838 106.91 8.502C107.181 8.166 107.316 7.74133 107.316 7.228ZM110.789 5.044C111.134 4.54 111.676 4.288 112.413 4.288C112.646 4.288 112.861 4.33467 113.057 4.428L112.889 5.66C112.684 5.52933 112.46 5.464 112.217 5.464C111.265 5.464 110.789 6.14533 110.789 7.508V10H109.431V4.47H110.789V5.044ZM118.992 7.228C118.992 8.096 118.726 8.80533 118.194 9.356C117.662 9.90667 116.962 10.182 116.094 10.182C115.235 10.182 114.535 9.90667 113.994 9.356C113.453 8.80533 113.182 8.10067 113.182 7.242C113.182 6.374 113.448 5.66467 113.98 5.114C114.512 4.56333 115.212 4.288 116.08 4.288C116.948 4.288 117.648 4.56333 118.18 5.114C118.721 5.65533 118.992 6.36 118.992 7.228ZM114.554 7.256C114.554 7.76933 114.699 8.18933 114.988 8.516C115.277 8.84267 115.651 9.006 116.108 9.006C116.565 9.006 116.929 8.83333 117.2 8.488C117.48 8.13333 117.62 7.718 117.62 7.242C117.62 6.75667 117.48 6.34133 117.2 5.996C116.92 5.64133 116.551 5.464 116.094 5.464C115.646 5.464 115.277 5.632 114.988 5.968C114.699 6.304 114.554 6.73333 114.554 7.256ZM122.008 7.97L123.366 4.47H124.878L122.33 10.112H121.518L118.984 4.47H120.482L122.008 7.97ZM126.902 2.146C126.902 2.36067 126.822 2.54733 126.664 2.706C126.505 2.86467 126.318 2.944 126.104 2.944C125.889 2.944 125.702 2.86467 125.544 2.706C125.385 2.54733 125.306 2.36067 125.306 2.146C125.306 1.93133 125.385 1.74467 125.544 1.586C125.702 1.42733 125.889 1.348 126.104 1.348C126.318 1.348 126.505 1.42733 126.664 1.586C126.822 1.74467 126.902 1.93133 126.902 2.146ZM126.79 10H125.432V4.47H126.79V10ZM131.985 9.482C131.621 9.94867 131.047 10.182 130.263 10.182C129.479 10.182 128.854 9.88333 128.387 9.286C127.93 8.68867 127.701 7.98867 127.701 7.186C127.701 6.38333 127.935 5.702 128.401 5.142C128.877 4.57267 129.484 4.288 130.221 4.288C131.005 4.288 131.584 4.51667 131.957 4.974L131.985 0.438H133.343V10H131.985V9.482ZM132.139 7.228C132.139 6.74267 131.99 6.32733 131.691 5.982C131.393 5.63667 131.033 5.464 130.613 5.464C130.193 5.464 129.829 5.63667 129.521 5.982C129.223 6.318 129.073 6.738 129.073 7.242C129.073 7.73667 129.218 8.15667 129.507 8.502C129.806 8.838 130.179 9.006 130.627 9.006C131.075 9.006 131.439 8.84267 131.719 8.516C131.999 8.18 132.139 7.75067 132.139 7.228ZM135.514 7.368C135.514 7.9 135.631 8.33867 135.864 8.684C136.098 9.02933 136.42 9.202 136.83 9.202C137.474 9.202 137.885 8.88467 138.062 8.25L139.35 8.46C138.93 9.608 138.09 10.182 136.83 10.182C135.99 10.182 135.318 9.916 134.814 9.384C134.32 8.84267 134.072 8.14267 134.072 7.284C134.072 6.37867 134.31 5.65533 134.786 5.114C135.272 4.56333 135.925 4.288 136.746 4.288C137.577 4.288 138.221 4.54933 138.678 5.072C139.145 5.58533 139.378 6.29 139.378 7.186V7.368H135.514ZM138.118 6.612C138.118 6.22933 137.997 5.89333 137.754 5.604C137.521 5.31467 137.213 5.17 136.83 5.17C136.457 5.17 136.149 5.324 135.906 5.632C135.673 5.93067 135.556 6.25733 135.556 6.612H138.118ZM143.065 5.618C142.766 5.338 142.453 5.198 142.127 5.198C141.632 5.198 141.385 5.422 141.385 5.87C141.385 6.122 141.609 6.32733 142.057 6.486C142.878 6.78467 143.387 7.06 143.583 7.312C143.779 7.55467 143.877 7.858 143.877 8.222C143.877 8.81933 143.667 9.29533 143.247 9.65C142.836 10.0047 142.327 10.182 141.721 10.182C140.937 10.182 140.288 9.874 139.775 9.258L140.377 8.488C140.843 8.95467 141.273 9.188 141.665 9.188C142.234 9.188 142.519 8.91267 142.519 8.362C142.519 8.082 142.369 7.87667 142.071 7.746C141.772 7.606 141.543 7.50333 141.385 7.438C140.526 7.06467 140.097 6.612 140.097 6.08C140.097 5.548 140.255 5.11867 140.573 4.792C140.899 4.456 141.324 4.288 141.847 4.288C142.593 4.288 143.186 4.47933 143.625 4.862L143.065 5.618ZM154.644 10H153.314V9.496C152.922 9.95333 152.338 10.182 151.564 10.182C150.789 10.182 150.168 9.88333 149.702 9.286C149.244 8.68867 149.016 7.98867 149.016 7.186C149.016 6.38333 149.249 5.702 149.716 5.142C150.192 4.57267 150.798 4.288 151.536 4.288C152.32 4.288 152.912 4.52133 153.314 4.988V4.47H154.644V10ZM153.468 7.228C153.468 6.71467 153.323 6.29467 153.034 5.968C152.744 5.632 152.371 5.464 151.914 5.464C151.466 5.464 151.097 5.62733 150.808 5.954C150.528 6.27133 150.388 6.696 150.388 7.228C150.388 7.76 150.532 8.18933 150.822 8.516C151.111 8.84267 151.484 9.006 151.942 9.006C152.399 9.006 152.768 8.84733 153.048 8.53C153.328 8.21267 153.468 7.77867 153.468 7.228ZM161.813 4.974C162.195 4.51667 162.76 4.288 163.507 4.288C164.776 4.288 165.411 5.06733 165.411 6.626V10H164.067V7.074C164.067 5.90733 163.707 5.324 162.989 5.324C162.205 5.324 161.813 5.94933 161.813 7.2V10H160.455V4.47H161.813V4.974ZM167.589 7.368C167.589 7.9 167.705 8.33867 167.939 8.684C168.172 9.02933 168.494 9.202 168.905 9.202C169.549 9.202 169.959 8.88467 170.137 8.25L171.425 8.46C171.005 9.608 170.165 10.182 168.905 10.182C168.065 10.182 167.393 9.916 166.889 9.384C166.394 8.84267 166.147 8.14267 166.147 7.284C166.147 6.37867 166.385 5.65533 166.861 5.114C167.346 4.56333 167.999 4.288 168.821 4.288C169.651 4.288 170.295 4.54933 170.753 5.072C171.219 5.58533 171.453 6.29 171.453 7.186V7.368H167.589ZM170.193 6.612C170.193 6.22933 170.071 5.89333 169.829 5.604C169.595 5.31467 169.287 5.17 168.905 5.17C168.531 5.17 168.223 5.324 167.981 5.632C167.747 5.93067 167.631 6.25733 167.631 6.612H170.193ZM174.285 8.082L175.755 4.288H176.245L177.785 8.068L179.157 4.47H180.655L178.079 10.112H177.393L176.119 6.57L174.663 10.112H173.963L171.429 4.47H172.927L174.285 8.082ZM187.779 8.082L189.249 4.288H189.739L191.279 8.068L192.651 4.47H194.149L191.573 10.112H190.887L189.613 6.57L188.157 10.112H187.457L184.923 4.47H186.421L187.779 8.082ZM199.734 10H198.404V9.496C198.012 9.95333 197.428 10.182 196.654 10.182C195.879 10.182 195.258 9.88333 194.792 9.286C194.334 8.68867 194.106 7.98867 194.106 7.186C194.106 6.38333 194.339 5.702 194.806 5.142C195.282 4.57267 195.888 4.288 196.626 4.288C197.41 4.288 198.002 4.52133 198.404 4.988V4.47H199.734V10ZM198.558 7.228C198.558 6.71467 198.413 6.29467 198.124 5.968C197.834 5.632 197.461 5.464 197.004 5.464C196.556 5.464 196.187 5.62733 195.898 5.954C195.618 6.27133 195.478 6.696 195.478 7.228C195.478 7.76 195.622 8.18933 195.912 8.516C196.201 8.84267 196.574 9.006 197.032 9.006C197.489 9.006 197.858 8.84733 198.138 8.53C198.418 8.21267 198.558 7.77867 198.558 7.228ZM200.225 4.47H201.793L203.235 7.788L204.747 4.47H206.287L202.367 12.31H200.855L202.563 9.146L200.225 4.47ZM213.076 10H211.718V5.688H211.06V4.582H211.718V2.594H213.076V4.582H214.154V5.688H213.076V10ZM219.931 7.228C219.931 8.096 219.665 8.80533 219.133 9.356C218.601 9.90667 217.901 10.182 217.033 10.182C216.175 10.182 215.475 9.90667 214.933 9.356C214.392 8.80533 214.121 8.10067 214.121 7.242C214.121 6.374 214.387 5.66467 214.919 5.114C215.451 4.56333 216.151 4.288 217.019 4.288C217.887 4.288 218.587 4.56333 219.119 5.114C219.661 5.65533 219.931 6.36 219.931 7.228ZM215.493 7.256C215.493 7.76933 215.638 8.18933 215.927 8.516C216.217 8.84267 216.59 9.006 217.047 9.006C217.505 9.006 217.869 8.83333 218.139 8.488C218.419 8.13333 218.559 7.718 218.559 7.242C218.559 6.75667 218.419 6.34133 218.139 5.996C217.859 5.64133 217.491 5.464 217.033 5.464C216.585 5.464 216.217 5.632 215.927 5.968C215.638 6.304 215.493 6.73333 215.493 7.256ZM227.021 2.146C227.021 2.36067 226.942 2.54733 226.783 2.706C226.624 2.86467 226.438 2.944 226.223 2.944C226.008 2.944 225.822 2.86467 225.663 2.706C225.504 2.54733 225.425 2.36067 225.425 2.146C225.425 1.93133 225.504 1.74467 225.663 1.586C225.822 1.42733 226.008 1.348 226.223 1.348C226.438 1.348 226.624 1.42733 226.783 1.586C226.942 1.74467 227.021 1.93133 227.021 2.146ZM226.909 10H225.551V4.47H226.909V10ZM229.57 4.974C229.953 4.51667 230.518 4.288 231.264 4.288C232.534 4.288 233.168 5.06733 233.168 6.626V10H231.824V7.074C231.824 5.90733 231.465 5.324 230.746 5.324C229.962 5.324 229.57 5.94933 229.57 7.2V10H228.212V4.47H229.57V4.974ZM235.962 10H234.604V5.688H233.946V4.582H234.604V2.594H235.962V4.582H237.04V5.688H235.962V10ZM238.436 7.368C238.436 7.9 238.553 8.33867 238.786 8.684C239.02 9.02933 239.342 9.202 239.752 9.202C240.396 9.202 240.807 8.88467 240.984 8.25L242.272 8.46C241.852 9.608 241.012 10.182 239.752 10.182C238.912 10.182 238.24 9.916 237.736 9.384C237.242 8.84267 236.994 8.14267 236.994 7.284C236.994 6.37867 237.232 5.65533 237.708 5.114C238.194 4.56333 238.847 4.288 239.668 4.288C240.499 4.288 241.143 4.54933 241.6 5.072C242.067 5.58533 242.3 6.29 242.3 7.186V7.368H238.436ZM241.04 6.612C241.04 6.22933 240.919 5.89333 240.676 5.604C240.443 5.31467 240.135 5.17 239.752 5.17C239.379 5.17 239.071 5.324 238.828 5.632C238.595 5.93067 238.478 6.25733 238.478 6.612H241.04ZM244.391 5.044C244.736 4.54 245.277 4.288 246.015 4.288C246.248 4.288 246.463 4.33467 246.659 4.428L246.491 5.66C246.285 5.52933 246.061 5.464 245.819 5.464C244.867 5.464 244.391 6.14533 244.391 7.508V10H243.033V4.47H244.391V5.044ZM252.398 10H251.068V9.496C250.676 9.95333 250.092 10.182 249.318 10.182C248.543 10.182 247.922 9.88333 247.456 9.286C246.998 8.68867 246.77 7.98867 246.77 7.186C246.77 6.38333 247.003 5.702 247.47 5.142C247.946 4.57267 248.552 4.288 249.29 4.288C250.074 4.288 250.666 4.52133 251.068 4.988V4.47H252.398V10ZM251.222 7.228C251.222 6.71467 251.077 6.29467 250.788 5.968C250.498 5.632 250.125 5.464 249.668 5.464C249.22 5.464 248.851 5.62733 248.562 5.954C248.282 6.27133 248.142 6.696 248.142 7.228C248.142 7.76 248.286 8.18933 248.576 8.516C248.865 8.84267 249.238 9.006 249.696 9.006C250.153 9.006 250.522 8.84733 250.802 8.53C251.082 8.21267 251.222 7.77867 251.222 7.228ZM257.299 5.912C256.953 5.56667 256.566 5.394 256.137 5.394C255.633 5.394 255.236 5.576 254.947 5.94C254.657 6.304 254.513 6.752 254.513 7.284C254.513 7.80667 254.676 8.236 255.003 8.572C255.329 8.908 255.726 9.076 256.193 9.076C256.594 9.076 256.963 8.89867 257.299 8.544V9.846C256.907 10.07 256.454 10.182 255.941 10.182C255.138 10.182 254.471 9.89733 253.939 9.328C253.407 8.75867 253.141 8.06333 253.141 7.242C253.141 6.42067 253.411 5.72533 253.953 5.156C254.503 4.57733 255.189 4.288 256.011 4.288C256.496 4.288 256.925 4.40467 257.299 4.638V5.912ZM259.943 10H258.585V5.688H257.927V4.582H258.585V2.594H259.943V4.582H261.021V5.688H259.943V10ZM268.142 8.082L269.612 4.288H270.102L271.642 8.068L273.014 4.47H274.512L271.936 10.112H271.25L269.976 6.57L268.52 10.112H267.82L265.286 4.47H266.784L268.142 8.082ZM276.527 2.146C276.527 2.36067 276.447 2.54733 276.289 2.706C276.13 2.86467 275.943 2.944 275.729 2.944C275.514 2.944 275.327 2.86467 275.169 2.706C275.01 2.54733 274.931 2.36067 274.931 2.146C274.931 1.93133 275.01 1.74467 275.169 1.586C275.327 1.42733 275.514 1.348 275.729 1.348C275.943 1.348 276.13 1.42733 276.289 1.586C276.447 1.74467 276.527 1.93133 276.527 2.146ZM276.415 10H275.057V4.47H276.415V10ZM279.384 10H278.026V5.688H277.368V4.582H278.026V2.594H279.384V4.582H280.462V5.688H279.384V10ZM282.166 0.438V4.932C282.521 4.50267 283.085 4.288 283.86 4.288C284.439 4.288 284.901 4.512 285.246 4.96C285.591 5.408 285.764 5.96333 285.764 6.626V10H284.42V7.074C284.42 5.90733 284.061 5.324 283.342 5.324C282.558 5.324 282.166 5.968 282.166 7.256V10H280.808V0.438H282.166ZM293.094 10H291.736V5.688H291.092V4.582H291.736V2.846C291.736 1.15667 292.394 0.312 293.71 0.312C293.98 0.312 294.232 0.372666 294.466 0.494V1.67C294.223 1.54867 294.008 1.488 293.822 1.488C293.57 1.488 293.383 1.58133 293.262 1.768C293.15 1.94533 293.094 2.37933 293.094 3.07V4.582H294.466V5.688H293.094V10ZM296.344 5.044C296.689 4.54 297.23 4.288 297.968 4.288C298.201 4.288 298.416 4.33467 298.612 4.428L298.444 5.66C298.238 5.52933 298.014 5.464 297.772 5.464C296.82 5.464 296.344 6.14533 296.344 7.508V10H294.986V4.47H296.344V5.044ZM300.781 2.146C300.781 2.36067 300.701 2.54733 300.543 2.706C300.384 2.86467 300.197 2.944 299.983 2.944C299.768 2.944 299.581 2.86467 299.423 2.706C299.264 2.54733 299.185 2.36067 299.185 2.146C299.185 1.93133 299.264 1.74467 299.423 1.586C299.581 1.42733 299.768 1.348 299.983 1.348C300.197 1.348 300.384 1.42733 300.543 1.586C300.701 1.74467 300.781 1.93133 300.781 2.146ZM300.669 10H299.311V4.47H300.669V10ZM303.022 7.368C303.022 7.9 303.139 8.33867 303.372 8.684C303.605 9.02933 303.927 9.202 304.338 9.202C304.982 9.202 305.393 8.88467 305.57 8.25L306.858 8.46C306.438 9.608 305.598 10.182 304.338 10.182C303.498 10.182 302.826 9.916 302.322 9.384C301.827 8.84267 301.58 8.14267 301.58 7.284C301.58 6.37867 301.818 5.65533 302.294 5.114C302.779 4.56333 303.433 4.288 304.254 4.288C305.085 4.288 305.729 4.54933 306.186 5.072C306.653 5.58533 306.886 6.29 306.886 7.186V7.368H303.022ZM305.626 6.612C305.626 6.22933 305.505 5.89333 305.262 5.604C305.029 5.31467 304.721 5.17 304.338 5.17C303.965 5.17 303.657 5.324 303.414 5.632C303.181 5.93067 303.064 6.25733 303.064 6.612H305.626ZM308.977 4.974C309.359 4.51667 309.924 4.288 310.671 4.288C311.94 4.288 312.575 5.06733 312.575 6.626V10H311.231V7.074C311.231 5.90733 310.871 5.324 310.153 5.324C309.369 5.324 308.977 5.94933 308.977 7.2V10H307.619V4.47H308.977V4.974ZM317.595 9.482C317.231 9.94867 316.657 10.182 315.873 10.182C315.089 10.182 314.463 9.88333 313.997 9.286C313.539 8.68867 313.311 7.98867 313.311 7.186C313.311 6.38333 313.544 5.702 314.011 5.142C314.487 4.57267 315.093 4.288 315.831 4.288C316.615 4.288 317.193 4.51667 317.567 4.974L317.595 0.438H318.953V10H317.595V9.482ZM317.749 7.228C317.749 6.74267 317.599 6.32733 317.301 5.982C317.002 5.63667 316.643 5.464 316.223 5.464C315.803 5.464 315.439 5.63667 315.131 5.982C314.832 6.318 314.683 6.738 314.683 7.242C314.683 7.73667 314.827 8.15667 315.117 8.502C315.415 8.838 315.789 9.006 316.237 9.006C316.685 9.006 317.049 8.84267 317.329 8.516C317.609 8.18 317.749 7.75067 317.749 7.228ZM323.028 5.618C322.729 5.338 322.416 5.198 322.09 5.198C321.595 5.198 321.348 5.422 321.348 5.87C321.348 6.122 321.572 6.32733 322.02 6.486C322.841 6.78467 323.35 7.06 323.546 7.312C323.742 7.55467 323.84 7.858 323.84 8.222C323.84 8.81933 323.63 9.29533 323.21 9.65C322.799 10.0047 322.29 10.182 321.684 10.182C320.9 10.182 320.251 9.874 319.738 9.258L320.34 8.488C320.806 8.95467 321.236 9.188 321.628 9.188C322.197 9.188 322.482 8.91267 322.482 8.362C322.482 8.082 322.332 7.87667 322.034 7.746C321.735 7.606 321.506 7.50333 321.348 7.438C320.489 7.06467 320.06 6.612 320.06 6.08C320.06 5.548 320.218 5.11867 320.536 4.792C320.862 4.456 321.287 4.288 321.81 4.288C322.556 4.288 323.149 4.47933 323.588 4.862L323.028 5.618ZM326.767 9.202C326.767 9.482 326.669 9.72467 326.473 9.93C326.286 10.126 326.053 10.224 325.773 10.224C325.493 10.224 325.255 10.126 325.059 9.93C324.863 9.734 324.765 9.50067 324.765 9.23C324.765 8.95 324.863 8.712 325.059 8.516C325.255 8.32 325.488 8.222 325.759 8.222C326.039 8.222 326.277 8.31533 326.473 8.502C326.669 8.68867 326.767 8.922 326.767 9.202Z" fill="black"/>
</svg>
