<svg width="417" height="25" viewBox="0 0 417 25" fill="none" xmlns="http://www.w3.org/2000/svg">
<path d="M3.184 8.096L2.428 10H0.902L4.206 1.278H5.494L8.714 10H7.174L6.46 8.096H3.184ZM4.766 3.364L3.534 6.962H6.068L4.766 3.364ZM16.8187 5.618C16.52 5.338 16.2074 5.198 15.8807 5.198C15.386 5.198 15.1387 5.422 15.1387 5.87C15.1387 6.122 15.3627 6.32733 15.8107 6.486C16.632 6.78467 17.1407 7.06 17.3367 7.312C17.5327 7.55467 17.6307 7.858 17.6307 8.222C17.6307 8.81933 17.4207 9.29533 17.0007 9.65C16.59 10.0047 16.0814 10.182 15.4747 10.182C14.6907 10.182 14.042 9.874 13.5287 9.258L14.1307 8.488C14.5974 8.95467 15.0267 9.188 15.4187 9.188C15.988 9.188 16.2727 8.91267 16.2727 8.362C16.2727 8.082 16.1234 7.87667 15.8247 7.746C15.526 7.606 15.2974 7.50333 15.1387 7.438C14.28 7.06467 13.8507 6.612 13.8507 6.08C13.8507 5.548 14.0094 5.11867 14.3267 4.792C14.6534 4.456 15.078 4.288 15.6007 4.288C16.3474 4.288 16.94 4.47933 17.3787 4.862L16.8187 5.618ZM23.9178 7.228C23.9178 8.096 23.6518 8.80533 23.1198 9.356C22.5878 9.90667 21.8878 10.182 21.0198 10.182C20.1611 10.182 19.4611 9.90667 18.9198 9.356C18.3784 8.80533 18.1078 8.10067 18.1078 7.242C18.1078 6.374 18.3738 5.66467 18.9058 5.114C19.4378 4.56333 20.1378 4.288 21.0058 4.288C21.8738 4.288 22.5738 4.56333 23.1058 5.114C23.6471 5.65533 23.9178 6.36 23.9178 7.228ZM19.4798 7.256C19.4798 7.76933 19.6244 8.18933 19.9138 8.516C20.2031 8.84267 20.5764 9.006 21.0338 9.006C21.4911 9.006 21.8551 8.83333 22.1258 8.488C22.4058 8.13333 22.5458 7.718 22.5458 7.242C22.5458 6.75667 22.4058 6.34133 22.1258 5.996C21.8458 5.64133 21.4771 5.464 21.0198 5.464C20.5718 5.464 20.2031 5.632 19.9138 5.968C19.6244 6.304 19.4798 6.73333 19.4798 7.256ZM28.4315 5.912C28.0861 5.56667 27.6988 5.394 27.2695 5.394C26.7655 5.394 26.3688 5.576 26.0795 5.94C25.7901 6.304 25.6455 6.752 25.6455 7.284C25.6455 7.80667 25.8088 8.236 26.1355 8.572C26.4621 8.908 26.8588 9.076 27.3255 9.076C27.7268 9.076 28.0955 8.89867 28.4315 8.544V9.846C28.0395 10.07 27.5868 10.182 27.0735 10.182C26.2708 10.182 25.6035 9.89733 25.0715 9.328C24.5395 8.75867 24.2735 8.06333 24.2735 7.242C24.2735 6.42067 24.5441 5.72533 25.0855 5.156C25.6361 4.57733 26.3221 4.288 27.1435 4.288C27.6288 4.288 28.0581 4.40467 28.4315 4.638V5.912ZM31.0756 2.146C31.0756 2.36067 30.9963 2.54733 30.8376 2.706C30.6789 2.86467 30.4923 2.944 30.2776 2.944C30.0629 2.944 29.8763 2.86467 29.7176 2.706C29.5589 2.54733 29.4796 2.36067 29.4796 2.146C29.4796 1.93133 29.5589 1.74467 29.7176 1.586C29.8763 1.42733 30.0629 1.348 30.2776 1.348C30.4923 1.348 30.6789 1.42733 30.8376 1.586C30.9963 1.74467 31.0756 1.93133 31.0756 2.146ZM30.9636 10H29.6056V4.47H30.9636V10ZM37.503 10H36.173V9.496C35.781 9.95333 35.1977 10.182 34.423 10.182C33.6484 10.182 33.0277 9.88333 32.561 9.286C32.1037 8.68867 31.875 7.98867 31.875 7.186C31.875 6.38333 32.1084 5.702 32.575 5.142C33.051 4.57267 33.6577 4.288 34.395 4.288C35.179 4.288 35.7717 4.52133 36.173 4.988V4.47H37.503V10ZM36.327 7.228C36.327 6.71467 36.1824 6.29467 35.893 5.968C35.6037 5.632 35.2304 5.464 34.773 5.464C34.325 5.464 33.9564 5.62733 33.667 5.954C33.387 6.27133 33.247 6.696 33.247 7.228C33.247 7.76 33.3917 8.18933 33.681 8.516C33.9704 8.84267 34.3437 9.006 34.801 9.006C35.2584 9.006 35.627 8.84733 35.907 8.53C36.187 8.21267 36.327 7.77867 36.327 7.228ZM40.1081 10H38.7501V0.438H40.1081V10ZM47.3653 4.974C47.7573 4.51667 48.3406 4.288 49.1153 4.288C49.8433 4.288 50.4453 4.57733 50.9213 5.156C51.4066 5.73467 51.6493 6.416 51.6493 7.2C51.6493 8.04933 51.4113 8.75867 50.9353 9.328C50.4593 9.89733 49.8433 10.182 49.0873 10.182C48.2753 10.182 47.7106 9.94867 47.3933 9.482L47.3653 12.338H46.0073V4.47H47.3653V4.974ZM50.2633 7.228C50.2633 6.752 50.1279 6.34133 49.8573 5.996C49.5866 5.64133 49.2133 5.464 48.7373 5.464C48.2986 5.464 47.9346 5.64133 47.6453 5.996C47.3559 6.35067 47.2113 6.76133 47.2113 7.228C47.2113 7.68533 47.3653 8.096 47.6733 8.46C47.9813 8.824 48.3359 9.006 48.7373 9.006C49.2133 9.006 49.5866 8.838 49.8573 8.502C50.1279 8.166 50.2633 7.74133 50.2633 7.228ZM53.8484 10H52.4904V0.438H53.8484V10ZM60.3077 10H58.9777V9.496C58.5857 9.95333 58.0024 10.182 57.2277 10.182C56.4531 10.182 55.8324 9.88333 55.3657 9.286C54.9084 8.68867 54.6797 7.98867 54.6797 7.186C54.6797 6.38333 54.9131 5.702 55.3797 5.142C55.8557 4.57267 56.4624 4.288 57.1997 4.288C57.9837 4.288 58.5764 4.52133 58.9777 4.988V4.47H60.3077V10ZM59.1317 7.228C59.1317 6.71467 58.9871 6.29467 58.6977 5.968C58.4084 5.632 58.0351 5.464 57.5777 5.464C57.1297 5.464 56.7611 5.62733 56.4717 5.954C56.1917 6.27133 56.0517 6.696 56.0517 7.228C56.0517 7.76 56.1964 8.18933 56.4857 8.516C56.7751 8.84267 57.1484 9.006 57.6057 9.006C58.0631 9.006 58.4317 8.84733 58.7117 8.53C58.9917 8.21267 59.1317 7.77867 59.1317 7.228ZM63.1088 10H61.7508V5.688H61.0928V4.582H61.7508V2.594H63.1088V4.582H64.1868V5.688H63.1088V10ZM66.0587 10H64.7007V5.688H64.0567V4.582H64.7007V2.846C64.7007 1.15667 65.3587 0.312 66.6747 0.312C66.9453 0.312 67.1973 0.372666 67.4307 0.494V1.67C67.188 1.54867 66.9733 1.488 66.7867 1.488C66.5347 1.488 66.348 1.58133 66.2267 1.768C66.1147 1.94533 66.0587 2.37933 66.0587 3.07V4.582H67.4307V5.688H66.0587V10ZM73.3826 7.228C73.3826 8.096 73.1166 8.80533 72.5846 9.356C72.0526 9.90667 71.3526 10.182 70.4846 10.182C69.626 10.182 68.926 9.90667 68.3846 9.356C67.8433 8.80533 67.5726 8.10067 67.5726 7.242C67.5726 6.374 67.8386 5.66467 68.3706 5.114C68.9026 4.56333 69.6026 4.288 70.4706 4.288C71.3386 4.288 72.0386 4.56333 72.5706 5.114C73.112 5.65533 73.3826 6.36 73.3826 7.228ZM68.9446 7.256C68.9446 7.76933 69.0893 8.18933 69.3786 8.516C69.668 8.84267 70.0413 9.006 70.4986 9.006C70.956 9.006 71.32 8.83333 71.5906 8.488C71.8706 8.13333 72.0106 7.718 72.0106 7.242C72.0106 6.75667 71.8706 6.34133 71.5906 5.996C71.3106 5.64133 70.942 5.464 70.4846 5.464C70.0366 5.464 69.668 5.632 69.3786 5.968C69.0893 6.304 68.9446 6.73333 68.9446 7.256ZM75.4883 5.044C75.8336 4.54 76.375 4.288 77.1123 4.288C77.3456 4.288 77.5603 4.33467 77.7563 4.428L77.5883 5.66C77.383 5.52933 77.159 5.464 76.9163 5.464C75.9643 5.464 75.4883 6.14533 75.4883 7.508V10H74.1303V4.47H75.4883V5.044ZM79.6172 4.96C79.9626 4.512 80.4946 4.288 81.2132 4.288C81.8386 4.288 82.3332 4.57733 82.6972 5.156C83.0519 4.57733 83.6259 4.288 84.4192 4.288C85.5859 4.288 86.1692 5.044 86.1692 6.556V10H84.8252V7.088C84.8252 5.912 84.5032 5.324 83.8592 5.324C83.2152 5.324 82.8932 5.97733 82.8932 7.284V10H81.5352V7.2C81.5352 5.94933 81.2506 5.324 80.6812 5.324C79.9719 5.324 79.6172 5.97733 79.6172 7.284V10H78.2592V4.47H79.6172V4.96ZM93.6518 10H92.2938V5.688H91.6358V4.582H92.2938V2.594H93.6518V4.582H94.7298V5.688H93.6518V10ZM100.508 7.228C100.508 8.096 100.242 8.80533 99.7096 9.356C99.1776 9.90667 98.4776 10.182 97.6096 10.182C96.751 10.182 96.051 9.90667 95.5096 9.356C94.9683 8.80533 94.6976 8.10067 94.6976 7.242C94.6976 6.374 94.9636 5.66467 95.4956 5.114C96.0276 4.56333 96.7276 4.288 97.5956 4.288C98.4636 4.288 99.1636 4.56333 99.6956 5.114C100.237 5.65533 100.508 6.36 100.508 7.228ZM96.0696 7.256C96.0696 7.76933 96.2143 8.18933 96.5036 8.516C96.793 8.84267 97.1663 9.006 97.6236 9.006C98.081 9.006 98.445 8.83333 98.7156 8.488C98.9956 8.13333 99.1356 7.718 99.1356 7.242C99.1356 6.75667 98.9956 6.34133 98.7156 5.996C98.4356 5.64133 98.067 5.464 97.6096 5.464C97.1616 5.464 96.793 5.632 96.5036 5.968C96.2143 6.304 96.0696 6.73333 96.0696 7.256ZM107.289 0.438V4.932C107.644 4.50267 108.208 4.288 108.983 4.288C109.562 4.288 110.024 4.512 110.369 4.96C110.714 5.408 110.887 5.96333 110.887 6.626V10H109.543V7.074C109.543 5.90733 109.184 5.324 108.465 5.324C107.681 5.324 107.289 5.968 107.289 7.256V10H105.931V0.438H107.289ZM113.065 7.368C113.065 7.9 113.182 8.33867 113.415 8.684C113.648 9.02933 113.97 9.202 114.381 9.202C115.025 9.202 115.436 8.88467 115.613 8.25L116.901 8.46C116.481 9.608 115.641 10.182 114.381 10.182C113.541 10.182 112.869 9.916 112.365 9.384C111.87 8.84267 111.623 8.14267 111.623 7.284C111.623 6.37867 111.861 5.65533 112.337 5.114C112.822 4.56333 113.476 4.288 114.297 4.288C115.128 4.288 115.772 4.54933 116.229 5.072C116.696 5.58533 116.929 6.29 116.929 7.186V7.368H113.065ZM115.669 6.612C115.669 6.22933 115.548 5.89333 115.305 5.604C115.072 5.31467 114.764 5.17 114.381 5.17C114.008 5.17 113.7 5.324 113.457 5.632C113.224 5.93067 113.107 6.25733 113.107 6.612H115.669ZM119.132 10H117.774V0.438H119.132V10ZM121.713 4.974C122.105 4.51667 122.688 4.288 123.463 4.288C124.191 4.288 124.793 4.57733 125.269 5.156C125.754 5.73467 125.997 6.416 125.997 7.2C125.997 8.04933 125.759 8.75867 125.283 9.328C124.807 9.89733 124.191 10.182 123.435 10.182C122.623 10.182 122.058 9.94867 121.741 9.482L121.713 12.338H120.355V4.47H121.713V4.974ZM124.611 7.228C124.611 6.752 124.476 6.34133 124.205 5.996C123.934 5.64133 123.561 5.464 123.085 5.464C122.646 5.464 122.282 5.64133 121.993 5.996C121.704 6.35067 121.559 6.76133 121.559 7.228C121.559 7.68533 121.713 8.096 122.021 8.46C122.329 8.824 122.684 9.006 123.085 9.006C123.561 9.006 123.934 8.838 124.205 8.502C124.476 8.166 124.611 7.74133 124.611 7.228ZM131.402 0.438H132.76V4.974C133.152 4.51667 133.735 4.288 134.51 4.288C135.238 4.288 135.84 4.57733 136.316 5.156C136.801 5.73467 137.044 6.416 137.044 7.2C137.044 8.04933 136.806 8.75867 136.33 9.328C135.854 9.89733 135.238 10.182 134.482 10.182C133.67 10.182 133.105 9.94867 132.788 9.482L132.76 10H131.402V0.438ZM135.658 7.228C135.658 6.76133 135.513 6.35067 135.224 5.996C134.934 5.64133 134.566 5.464 134.118 5.464C133.67 5.464 133.306 5.64133 133.026 5.996C132.746 6.34133 132.606 6.75667 132.606 7.242C132.606 7.718 132.75 8.13333 133.04 8.488C133.338 8.83333 133.702 9.006 134.132 9.006C134.598 9.006 134.967 8.838 135.238 8.502C135.518 8.15667 135.658 7.732 135.658 7.228ZM139.103 4.47V7.466C139.103 8.53933 139.476 9.076 140.223 9.076C140.97 9.076 141.343 8.53933 141.343 7.466V4.47H142.701V7.718C142.701 9.36067 141.875 10.182 140.223 10.182C138.571 10.182 137.745 9.36067 137.745 7.718V4.47H139.103ZM145.468 2.146C145.468 2.36067 145.389 2.54733 145.23 2.706C145.072 2.86467 144.885 2.944 144.67 2.944C144.456 2.944 144.269 2.86467 144.11 2.706C143.952 2.54733 143.872 2.36067 143.872 2.146C143.872 1.93133 143.952 1.74467 144.11 1.586C144.269 1.42733 144.456 1.348 144.67 1.348C144.885 1.348 145.072 1.42733 145.23 1.586C145.389 1.74467 145.468 1.93133 145.468 2.146ZM145.356 10H143.998V4.47H145.356V10ZM148.13 10H146.772V0.438H148.13V10ZM153.245 9.482C152.881 9.94867 152.307 10.182 151.523 10.182C150.739 10.182 150.114 9.88333 149.647 9.286C149.19 8.68867 148.961 7.98867 148.961 7.186C148.961 6.38333 149.194 5.702 149.661 5.142C150.137 4.57267 150.744 4.288 151.481 4.288C152.265 4.288 152.844 4.51667 153.217 4.974L153.245 0.438H154.603V10H153.245V9.482ZM153.399 7.228C153.399 6.74267 153.25 6.32733 152.951 5.982C152.652 5.63667 152.293 5.464 151.873 5.464C151.453 5.464 151.089 5.63667 150.781 5.982C150.482 6.318 150.333 6.738 150.333 7.242C150.333 7.73667 150.478 8.15667 150.767 8.502C151.066 8.838 151.439 9.006 151.887 9.006C152.335 9.006 152.699 8.84267 152.979 8.516C153.259 8.18 153.399 7.75067 153.399 7.228ZM165.636 10H164.306V9.496C163.914 9.95333 163.331 10.182 162.556 10.182C161.781 10.182 161.161 9.88333 160.694 9.286C160.237 8.68867 160.008 7.98867 160.008 7.186C160.008 6.38333 160.241 5.702 160.708 5.142C161.184 4.57267 161.791 4.288 162.528 4.288C163.312 4.288 163.905 4.52133 164.306 4.988V4.47H165.636V10ZM164.46 7.228C164.46 6.71467 164.315 6.29467 164.026 5.968C163.737 5.632 163.363 5.464 162.906 5.464C162.458 5.464 162.089 5.62733 161.8 5.954C161.52 6.27133 161.38 6.696 161.38 7.228C161.38 7.76 161.525 8.18933 161.814 8.516C162.103 8.84267 162.477 9.006 162.934 9.006C163.391 9.006 163.76 8.84733 164.04 8.53C164.32 8.21267 164.46 7.77867 164.46 7.228ZM171.447 0.438H172.805V4.974C173.197 4.51667 173.78 4.288 174.555 4.288C175.283 4.288 175.885 4.57733 176.361 5.156C176.846 5.73467 177.089 6.416 177.089 7.2C177.089 8.04933 176.851 8.75867 176.375 9.328C175.899 9.89733 175.283 10.182 174.527 10.182C173.715 10.182 173.15 9.94867 172.833 9.482L172.805 10H171.447V0.438ZM175.703 7.228C175.703 6.76133 175.558 6.35067 175.269 5.996C174.979 5.64133 174.611 5.464 174.163 5.464C173.715 5.464 173.351 5.64133 173.071 5.996C172.791 6.34133 172.651 6.75667 172.651 7.242C172.651 7.718 172.795 8.13333 173.085 8.488C173.383 8.83333 173.747 9.006 174.177 9.006C174.643 9.006 175.012 8.838 175.283 8.502C175.563 8.15667 175.703 7.732 175.703 7.228ZM178.868 7.368C178.868 7.9 178.984 8.33867 179.218 8.684C179.451 9.02933 179.773 9.202 180.184 9.202C180.828 9.202 181.238 8.88467 181.416 8.25L182.704 8.46C182.284 9.608 181.444 10.182 180.184 10.182C179.344 10.182 178.672 9.916 178.168 9.384C177.673 8.84267 177.426 8.14267 177.426 7.284C177.426 6.37867 177.664 5.65533 178.14 5.114C178.625 4.56333 179.278 4.288 180.1 4.288C180.93 4.288 181.574 4.54933 182.032 5.072C182.498 5.58533 182.732 6.29 182.732 7.186V7.368H178.868ZM181.472 6.612C181.472 6.22933 181.35 5.89333 181.108 5.604C180.874 5.31467 180.566 5.17 180.184 5.17C179.81 5.17 179.502 5.324 179.26 5.632C179.026 5.93067 178.91 6.25733 178.91 6.612H181.472ZM185.13 10H183.772V5.688H183.114V4.582H183.772V2.594H185.13V4.582H186.208V5.688H185.13V10ZM188.22 10H186.862V5.688H186.204V4.582H186.862V2.594H188.22V4.582H189.298V5.688H188.22V10ZM190.694 7.368C190.694 7.9 190.811 8.33867 191.044 8.684C191.277 9.02933 191.599 9.202 192.01 9.202C192.654 9.202 193.065 8.88467 193.242 8.25L194.53 8.46C194.11 9.608 193.27 10.182 192.01 10.182C191.17 10.182 190.498 9.916 189.994 9.384C189.499 8.84267 189.252 8.14267 189.252 7.284C189.252 6.37867 189.49 5.65533 189.966 5.114C190.451 4.56333 191.105 4.288 191.926 4.288C192.757 4.288 193.401 4.54933 193.858 5.072C194.325 5.58533 194.558 6.29 194.558 7.186V7.368H190.694ZM193.298 6.612C193.298 6.22933 193.177 5.89333 192.934 5.604C192.701 5.31467 192.393 5.17 192.01 5.17C191.637 5.17 191.329 5.324 191.086 5.632C190.853 5.93067 190.736 6.25733 190.736 6.612H193.298ZM196.648 5.044C196.994 4.54 197.535 4.288 198.272 4.288C198.506 4.288 198.72 4.33467 198.916 4.428L198.748 5.66C198.543 5.52933 198.319 5.464 198.076 5.464C197.124 5.464 196.648 6.14533 196.648 7.508V10H195.29V4.47H196.648V5.044ZM207.861 5.912C207.516 5.56667 207.128 5.394 206.699 5.394C206.195 5.394 205.798 5.576 205.509 5.94C205.22 6.304 205.075 6.752 205.075 7.284C205.075 7.80667 205.238 8.236 205.565 8.572C205.892 8.908 206.288 9.076 206.755 9.076C207.156 9.076 207.525 8.89867 207.861 8.544V9.846C207.469 10.07 207.016 10.182 206.503 10.182C205.7 10.182 205.033 9.89733 204.501 9.328C203.969 8.75867 203.703 8.06333 203.703 7.242C203.703 6.42067 203.974 5.72533 204.515 5.156C205.066 4.57733 205.752 4.288 206.573 4.288C207.058 4.288 207.488 4.40467 207.861 4.638V5.912ZM214.271 7.228C214.271 8.096 214.005 8.80533 213.473 9.356C212.941 9.90667 212.241 10.182 211.373 10.182C210.515 10.182 209.815 9.90667 209.273 9.356C208.732 8.80533 208.461 8.10067 208.461 7.242C208.461 6.374 208.727 5.66467 209.259 5.114C209.791 4.56333 210.491 4.288 211.359 4.288C212.227 4.288 212.927 4.56333 213.459 5.114C214.001 5.65533 214.271 6.36 214.271 7.228ZM209.833 7.256C209.833 7.76933 209.978 8.18933 210.267 8.516C210.557 8.84267 210.93 9.006 211.387 9.006C211.845 9.006 212.209 8.83333 212.479 8.488C212.759 8.13333 212.899 7.718 212.899 7.242C212.899 6.75667 212.759 6.34133 212.479 5.996C212.199 5.64133 211.831 5.464 211.373 5.464C210.925 5.464 210.557 5.632 210.267 5.968C209.978 6.304 209.833 6.73333 209.833 7.256ZM216.377 4.96C216.722 4.512 217.254 4.288 217.973 4.288C218.598 4.288 219.093 4.57733 219.457 5.156C219.812 4.57733 220.386 4.288 221.179 4.288C222.346 4.288 222.929 5.044 222.929 6.556V10H221.585V7.088C221.585 5.912 221.263 5.324 220.619 5.324C219.975 5.324 219.653 5.97733 219.653 7.284V10H218.295V7.2C218.295 5.94933 218.01 5.324 217.441 5.324C216.732 5.324 216.377 5.97733 216.377 7.284V10H215.019V4.47H216.377V4.96ZM225.428 4.96C225.773 4.512 226.305 4.288 227.024 4.288C227.649 4.288 228.144 4.57733 228.508 5.156C228.862 4.57733 229.436 4.288 230.23 4.288C231.396 4.288 231.98 5.044 231.98 6.556V10H230.636V7.088C230.636 5.912 230.314 5.324 229.67 5.324C229.026 5.324 228.704 5.97733 228.704 7.284V10H227.346V7.2C227.346 5.94933 227.061 5.324 226.492 5.324C225.782 5.324 225.428 5.97733 225.428 7.284V10H224.07V4.47H225.428V4.96ZM234.451 4.47V7.466C234.451 8.53933 234.824 9.076 235.571 9.076C236.317 9.076 236.691 8.53933 236.691 7.466V4.47H238.049V7.718C238.049 9.36067 237.223 10.182 235.571 10.182C233.919 10.182 233.093 9.36067 233.093 7.718V4.47H234.451ZM240.508 4.974C240.891 4.51667 241.455 4.288 242.202 4.288C243.471 4.288 244.106 5.06733 244.106 6.626V10H242.762V7.074C242.762 5.90733 242.403 5.324 241.684 5.324C240.9 5.324 240.508 5.94933 240.508 7.2V10H239.15V4.47H240.508V4.974ZM246.9 2.146C246.9 2.36067 246.82 2.54733 246.662 2.706C246.503 2.86467 246.316 2.944 246.102 2.944C245.887 2.944 245.7 2.86467 245.542 2.706C245.383 2.54733 245.304 2.36067 245.304 2.146C245.304 1.93133 245.383 1.74467 245.542 1.586C245.7 1.42733 245.887 1.348 246.102 1.348C246.316 1.348 246.503 1.42733 246.662 1.586C246.82 1.74467 246.9 1.93133 246.9 2.146ZM246.788 10H245.43V4.47H246.788V10ZM249.757 10H248.399V5.688H247.741V4.582H248.399V2.594H249.757V4.582H250.835V5.688H249.757V10ZM250.537 4.47H252.105L253.547 7.788L255.059 4.47H256.599L252.679 12.31H251.167L252.875 9.146L250.537 4.47ZM261.722 0.438H263.08V4.974C263.472 4.51667 264.055 4.288 264.83 4.288C265.558 4.288 266.16 4.57733 266.636 5.156C267.121 5.73467 267.364 6.416 267.364 7.2C267.364 8.04933 267.126 8.75867 266.65 9.328C266.174 9.89733 265.558 10.182 264.802 10.182C263.99 10.182 263.425 9.94867 263.108 9.482L263.08 10H261.722V0.438ZM265.978 7.228C265.978 6.76133 265.833 6.35067 265.544 5.996C265.255 5.64133 264.886 5.464 264.438 5.464C263.99 5.464 263.626 5.64133 263.346 5.996C263.066 6.34133 262.926 6.75667 262.926 7.242C262.926 7.718 263.071 8.13333 263.36 8.488C263.659 8.83333 264.023 9.006 264.452 9.006C264.919 9.006 265.287 8.838 265.558 8.502C265.838 8.15667 265.978 7.732 265.978 7.228ZM267.449 4.47H269.017L270.459 7.788L271.971 4.47H273.511L269.591 12.31H268.079L269.787 9.146L267.449 4.47ZM279.684 7.368C279.684 7.9 279.801 8.33867 280.034 8.684C280.268 9.02933 280.59 9.202 281 9.202C281.644 9.202 282.055 8.88467 282.232 8.25L283.52 8.46C283.1 9.608 282.26 10.182 281 10.182C280.16 10.182 279.488 9.916 278.984 9.384C278.49 8.84267 278.242 8.14267 278.242 7.284C278.242 6.37867 278.48 5.65533 278.956 5.114C279.442 4.56333 280.095 4.288 280.916 4.288C281.747 4.288 282.391 4.54933 282.848 5.072C283.315 5.58533 283.548 6.29 283.548 7.186V7.368H279.684ZM282.288 6.612C282.288 6.22933 282.167 5.89333 281.924 5.604C281.691 5.31467 281.383 5.17 281 5.17C280.627 5.17 280.319 5.324 280.076 5.632C279.843 5.93067 279.726 6.25733 279.726 6.612H282.288ZM285.639 4.974C286.021 4.51667 286.586 4.288 287.333 4.288C288.602 4.288 289.237 5.06733 289.237 6.626V10H287.893V7.074C287.893 5.90733 287.533 5.324 286.815 5.324C286.031 5.324 285.639 5.94933 285.639 7.2V10H284.281V4.47H285.639V4.974ZM294.131 5.912C293.785 5.56667 293.398 5.394 292.969 5.394C292.465 5.394 292.068 5.576 291.779 5.94C291.489 6.304 291.345 6.752 291.345 7.284C291.345 7.80667 291.508 8.236 291.835 8.572C292.161 8.908 292.558 9.076 293.025 9.076C293.426 9.076 293.795 8.89867 294.131 8.544V9.846C293.739 10.07 293.286 10.182 292.773 10.182C291.97 10.182 291.303 9.89733 290.771 9.328C290.239 8.75867 289.973 8.06333 289.973 7.242C289.973 6.42067 290.243 5.72533 290.785 5.156C291.335 4.57733 292.021 4.288 292.843 4.288C293.328 4.288 293.757 4.40467 294.131 4.638V5.912ZM300.541 7.228C300.541 8.096 300.275 8.80533 299.743 9.356C299.211 9.90667 298.511 10.182 297.643 10.182C296.784 10.182 296.084 9.90667 295.543 9.356C295.001 8.80533 294.731 8.10067 294.731 7.242C294.731 6.374 294.997 5.66467 295.529 5.114C296.061 4.56333 296.761 4.288 297.629 4.288C298.497 4.288 299.197 4.56333 299.729 5.114C300.27 5.65533 300.541 6.36 300.541 7.228ZM296.103 7.256C296.103 7.76933 296.247 8.18933 296.537 8.516C296.826 8.84267 297.199 9.006 297.657 9.006C298.114 9.006 298.478 8.83333 298.749 8.488C299.029 8.13333 299.169 7.718 299.169 7.242C299.169 6.75667 299.029 6.34133 298.749 5.996C298.469 5.64133 298.1 5.464 297.643 5.464C297.195 5.464 296.826 5.632 296.537 5.968C296.247 6.304 296.103 6.73333 296.103 7.256ZM302.619 4.47V7.466C302.619 8.53933 302.992 9.076 303.739 9.076C304.485 9.076 304.859 8.53933 304.859 7.466V4.47H306.217V7.718C306.217 9.36067 305.391 10.182 303.739 10.182C302.087 10.182 301.261 9.36067 301.261 7.718V4.47H302.619ZM308.676 5.044C309.021 4.54 309.562 4.288 310.3 4.288C310.533 4.288 310.748 4.33467 310.944 4.428L310.776 5.66C310.57 5.52933 310.346 5.464 310.104 5.464C309.152 5.464 308.676 6.14533 308.676 7.508V10H307.318V4.47H308.676V5.044ZM316.683 10H315.353V9.496C314.961 9.95333 314.377 10.182 313.603 10.182C312.828 10.182 312.207 9.88333 311.741 9.286C311.283 8.68867 311.055 7.98867 311.055 7.186C311.055 6.38333 311.288 5.702 311.755 5.142C312.231 4.57267 312.837 4.288 313.575 4.288C314.359 4.288 314.951 4.52133 315.353 4.988V4.47H316.683V10ZM315.507 7.228C315.507 6.71467 315.362 6.29467 315.073 5.968C314.783 5.632 314.41 5.464 313.953 5.464C313.505 5.464 313.136 5.62733 312.847 5.954C312.567 6.27133 312.427 6.696 312.427 7.228C312.427 7.76 312.571 8.18933 312.861 8.516C313.15 8.84267 313.523 9.006 313.981 9.006C314.438 9.006 314.807 8.84733 315.087 8.53C315.367 8.21267 315.507 7.77867 315.507 7.228ZM323.082 9.524C323.082 11.4187 322.2 12.366 320.436 12.366C319.652 12.366 318.989 12.1513 318.448 11.722C317.906 11.302 317.636 10.7513 317.636 10.07H319.078C319.078 10.3407 319.213 10.6067 319.484 10.868C319.754 11.1293 320.058 11.26 320.394 11.26C321.28 11.26 321.724 10.728 321.724 9.664V9.314C321.341 9.79933 320.758 10.042 319.974 10.042C319.199 10.042 318.588 9.77133 318.14 9.23C317.701 8.68867 317.482 8.026 317.482 7.242C317.482 6.39267 317.72 5.68333 318.196 5.114C318.672 4.54467 319.288 4.26 320.044 4.26C320.809 4.26 321.369 4.498 321.724 4.974V4.442H323.082V9.524ZM321.92 7.116C321.92 6.612 321.78 6.206 321.5 5.898C321.22 5.59 320.851 5.436 320.394 5.436C319.936 5.436 319.563 5.604 319.274 5.94C318.994 6.276 318.854 6.70067 318.854 7.214C318.854 8.31533 319.367 8.866 320.394 8.866C320.86 8.866 321.229 8.70267 321.5 8.376C321.78 8.04 321.92 7.62 321.92 7.116ZM325.814 2.146C325.814 2.36067 325.735 2.54733 325.576 2.706C325.417 2.86467 325.231 2.944 325.016 2.944C324.801 2.944 324.615 2.86467 324.456 2.706C324.297 2.54733 324.218 2.36067 324.218 2.146C324.218 1.93133 324.297 1.74467 324.456 1.586C324.615 1.42733 324.801 1.348 325.016 1.348C325.231 1.348 325.417 1.42733 325.576 1.586C325.735 1.74467 325.814 1.93133 325.814 2.146ZM325.702 10H324.344V4.47H325.702V10ZM328.363 4.974C328.746 4.51667 329.311 4.288 330.057 4.288C331.327 4.288 331.961 5.06733 331.961 6.626V10H330.617V7.074C330.617 5.90733 330.258 5.324 329.539 5.324C328.755 5.324 328.363 5.94933 328.363 7.2V10H327.005V4.47H328.363V4.974ZM338.353 9.524C338.353 11.4187 337.471 12.366 335.707 12.366C334.923 12.366 334.261 12.1513 333.719 11.722C333.178 11.302 332.907 10.7513 332.907 10.07H334.349C334.349 10.3407 334.485 10.6067 334.755 10.868C335.026 11.1293 335.329 11.26 335.665 11.26C336.552 11.26 336.995 10.728 336.995 9.664V9.314C336.613 9.79933 336.029 10.042 335.245 10.042C334.471 10.042 333.859 9.77133 333.411 9.23C332.973 8.68867 332.753 8.026 332.753 7.242C332.753 6.39267 332.991 5.68333 333.467 5.114C333.943 4.54467 334.559 4.26 335.315 4.26C336.081 4.26 336.641 4.498 336.995 4.974V4.442H338.353V9.524ZM337.191 7.116C337.191 6.612 337.051 6.206 336.771 5.898C336.491 5.59 336.123 5.436 335.665 5.436C335.208 5.436 334.835 5.604 334.545 5.94C334.265 6.276 334.125 6.70067 334.125 7.214C334.125 8.31533 334.639 8.866 335.665 8.866C336.132 8.866 336.501 8.70267 336.771 8.376C337.051 8.04 337.191 7.62 337.191 7.116ZM347.861 5.912C347.516 5.56667 347.128 5.394 346.699 5.394C346.195 5.394 345.798 5.576 345.509 5.94C345.22 6.304 345.075 6.752 345.075 7.284C345.075 7.80667 345.238 8.236 345.565 8.572C345.892 8.908 346.288 9.076 346.755 9.076C347.156 9.076 347.525 8.89867 347.861 8.544V9.846C347.469 10.07 347.016 10.182 346.503 10.182C345.7 10.182 345.033 9.89733 344.501 9.328C343.969 8.75867 343.703 8.06333 343.703 7.242C343.703 6.42067 343.974 5.72533 344.515 5.156C345.066 4.57733 345.752 4.288 346.573 4.288C347.058 4.288 347.488 4.40467 347.861 4.638V5.912ZM354.271 7.228C354.271 8.096 354.005 8.80533 353.473 9.356C352.941 9.90667 352.241 10.182 351.373 10.182C350.515 10.182 349.815 9.90667 349.273 9.356C348.732 8.80533 348.461 8.10067 348.461 7.242C348.461 6.374 348.727 5.66467 349.259 5.114C349.791 4.56333 350.491 4.288 351.359 4.288C352.227 4.288 352.927 4.56333 353.459 5.114C354.001 5.65533 354.271 6.36 354.271 7.228ZM349.833 7.256C349.833 7.76933 349.978 8.18933 350.267 8.516C350.557 8.84267 350.93 9.006 351.387 9.006C351.845 9.006 352.209 8.83333 352.479 8.488C352.759 8.13333 352.899 7.718 352.899 7.242C352.899 6.75667 352.759 6.34133 352.479 5.996C352.199 5.64133 351.831 5.464 351.373 5.464C350.925 5.464 350.557 5.632 350.267 5.968C349.978 6.304 349.833 6.73333 349.833 7.256ZM356.377 4.96C356.722 4.512 357.254 4.288 357.973 4.288C358.598 4.288 359.093 4.57733 359.457 5.156C359.812 4.57733 360.386 4.288 361.179 4.288C362.346 4.288 362.929 5.044 362.929 6.556V10H361.585V7.088C361.585 5.912 361.263 5.324 360.619 5.324C359.975 5.324 359.653 5.97733 359.653 7.284V10H358.295V7.2C358.295 5.94933 358.01 5.324 357.441 5.324C356.732 5.324 356.377 5.97733 356.377 7.284V10H355.019V4.47H356.377V4.96ZM365.428 4.96C365.773 4.512 366.305 4.288 367.024 4.288C367.649 4.288 368.144 4.57733 368.508 5.156C368.862 4.57733 369.436 4.288 370.23 4.288C371.396 4.288 371.98 5.044 371.98 6.556V10H370.636V7.088C370.636 5.912 370.314 5.324 369.67 5.324C369.026 5.324 368.704 5.97733 368.704 7.284V10H367.346V7.2C367.346 5.94933 367.061 5.324 366.492 5.324C365.782 5.324 365.428 5.97733 365.428 7.284V10H364.07V4.47H365.428V4.96ZM374.451 4.47V7.466C374.451 8.53933 374.824 9.076 375.571 9.076C376.317 9.076 376.691 8.53933 376.691 7.466V4.47H378.049V7.718C378.049 9.36067 377.223 10.182 375.571 10.182C373.919 10.182 373.093 9.36067 373.093 7.718V4.47H374.451ZM380.508 4.974C380.891 4.51667 381.455 4.288 382.202 4.288C383.471 4.288 384.106 5.06733 384.106 6.626V10H382.762V7.074C382.762 5.90733 382.403 5.324 381.684 5.324C380.9 5.324 380.508 5.94933 380.508 7.2V10H379.15V4.47H380.508V4.974ZM386.9 2.146C386.9 2.36067 386.82 2.54733 386.662 2.706C386.503 2.86467 386.316 2.944 386.102 2.944C385.887 2.944 385.7 2.86467 385.542 2.706C385.383 2.54733 385.304 2.36067 385.304 2.146C385.304 1.93133 385.383 1.74467 385.542 1.586C385.7 1.42733 385.887 1.348 386.102 1.348C386.316 1.348 386.503 1.42733 386.662 1.586C386.82 1.74467 386.9 1.93133 386.9 2.146ZM386.788 10H385.43V4.47H386.788V10ZM391.857 5.912C391.512 5.56667 391.125 5.394 390.695 5.394C390.191 5.394 389.795 5.576 389.505 5.94C389.216 6.304 389.071 6.752 389.071 7.284C389.071 7.80667 389.235 8.236 389.561 8.572C389.888 8.908 390.285 9.076 390.751 9.076C391.153 9.076 391.521 8.89867 391.857 8.544V9.846C391.465 10.07 391.013 10.182 390.499 10.182C389.697 10.182 389.029 9.89733 388.497 9.328C387.965 8.75867 387.699 8.06333 387.699 7.242C387.699 6.42067 387.97 5.72533 388.511 5.156C389.062 4.57733 389.748 4.288 390.569 4.288C391.055 4.288 391.484 4.40467 391.857 4.638V5.912ZM398.071 10H396.741V9.496C396.349 9.95333 395.766 10.182 394.991 10.182C394.217 10.182 393.596 9.88333 393.129 9.286C392.672 8.68867 392.443 7.98867 392.443 7.186C392.443 6.38333 392.677 5.702 393.143 5.142C393.619 4.57267 394.226 4.288 394.963 4.288C395.747 4.288 396.34 4.52133 396.741 4.988V4.47H398.071V10ZM396.895 7.228C396.895 6.71467 396.751 6.29467 396.461 5.968C396.172 5.632 395.799 5.464 395.341 5.464C394.893 5.464 394.525 5.62733 394.235 5.954C393.955 6.27133 393.815 6.696 393.815 7.228C393.815 7.76 393.96 8.18933 394.249 8.516C394.539 8.84267 394.912 9.006 395.369 9.006C395.827 9.006 396.195 8.84733 396.475 8.53C396.755 8.21267 396.895 7.77867 396.895 7.228ZM400.872 10H399.514V5.688H398.856V4.582H399.514V2.594H400.872V4.582H401.95V5.688H400.872V10ZM403.962 2.146C403.962 2.36067 403.883 2.54733 403.724 2.706C403.566 2.86467 403.379 2.944 403.164 2.944C402.95 2.944 402.763 2.86467 402.604 2.706C402.446 2.54733 402.366 2.36067 402.366 2.146C402.366 1.93133 402.446 1.74467 402.604 1.586C402.763 1.42733 402.95 1.348 403.164 1.348C403.379 1.348 403.566 1.42733 403.724 1.586C403.883 1.74467 403.962 1.93133 403.962 2.146ZM403.85 10H402.492V4.47H403.85V10ZM410.586 7.228C410.586 8.096 410.32 8.80533 409.788 9.356C409.256 9.90667 408.556 10.182 407.688 10.182C406.829 10.182 406.129 9.90667 405.588 9.356C405.046 8.80533 404.776 8.10067 404.776 7.242C404.776 6.374 405.042 5.66467 405.574 5.114C406.106 4.56333 406.806 4.288 407.674 4.288C408.542 4.288 409.242 4.56333 409.774 5.114C410.315 5.65533 410.586 6.36 410.586 7.228ZM406.148 7.256C406.148 7.76933 406.292 8.18933 406.582 8.516C406.871 8.84267 407.244 9.006 407.702 9.006C408.159 9.006 408.523 8.83333 408.794 8.488C409.074 8.13333 409.214 7.718 409.214 7.242C409.214 6.75667 409.074 6.34133 408.794 5.996C408.514 5.64133 408.145 5.464 407.688 5.464C407.24 5.464 406.871 5.632 406.582 5.968C406.292 6.304 406.148 6.73333 406.148 7.256ZM412.691 4.974C413.074 4.51667 413.639 4.288 414.385 4.288C415.655 4.288 416.289 5.06733 416.289 6.626V10H414.945V7.074C414.945 5.90733 414.586 5.324 413.867 5.324C413.083 5.324 412.691 5.94933 412.691 7.2V10H411.333V4.47H412.691V4.974ZM1.56 14.438H2.918V18.974C3.31 18.5167 3.89333 18.288 4.668 18.288C5.396 18.288 5.998 18.5773 6.474 19.156C6.95933 19.7347 7.202 20.416 7.202 21.2C7.202 22.0493 6.964 22.7587 6.488 23.328C6.012 23.8973 5.396 24.182 4.64 24.182C3.828 24.182 3.26333 23.9487 2.946 23.482L2.918 24H1.56V14.438ZM5.816 21.228C5.816 20.7613 5.67133 20.3507 5.382 19.996C5.09267 19.6413 4.724 19.464 4.276 19.464C3.828 19.464 3.464 19.6413 3.184 19.996C2.904 20.3413 2.764 20.7567 2.764 21.242C2.764 21.718 2.90867 22.1333 3.198 22.488C3.49667 22.8333 3.86067 23.006 4.29 23.006C4.75667 23.006 5.12533 22.838 5.396 22.502C5.676 22.1567 5.816 21.732 5.816 21.228ZM8.98109 21.368C8.98109 21.9 9.09776 22.3387 9.33109 22.684C9.56443 23.0293 9.88643 23.202 10.2971 23.202C10.9411 23.202 11.3518 22.8847 11.5291 22.25L12.8171 22.46C12.3971 23.608 11.5571 24.182 10.2971 24.182C9.45709 24.182 8.78509 23.916 8.28109 23.384C7.78643 22.8427 7.53909 22.1427 7.53909 21.284C7.53909 20.3787 7.77709 19.6553 8.25309 19.114C8.73843 18.5633 9.39176 18.288 10.2131 18.288C11.0438 18.288 11.6878 18.5493 12.1451 19.072C12.6118 19.5853 12.8451 20.29 12.8451 21.186V21.368H8.98109ZM11.5851 20.612C11.5851 20.2293 11.4638 19.8933 11.2211 19.604C10.9878 19.3147 10.6798 19.17 10.2971 19.17C9.92376 19.17 9.61576 19.324 9.37309 19.632C9.13976 19.9307 9.02309 20.2573 9.02309 20.612H11.5851ZM15.2436 24H13.8856V19.688H13.2276V18.582H13.8856V16.594H15.2436V18.582H16.3216V19.688H15.2436V24ZM18.7674 22.082L20.2374 18.288H20.7274L22.2674 22.068L23.6394 18.47H25.1374L22.5614 24.112H21.8754L20.6014 20.57L19.1454 24.112H18.4454L15.9114 18.47H17.4094L18.7674 22.082ZM26.5358 21.368C26.5358 21.9 26.6524 22.3387 26.8858 22.684C27.1191 23.0293 27.4411 23.202 27.8518 23.202C28.4958 23.202 28.9064 22.8847 29.0838 22.25L30.3718 22.46C29.9518 23.608 29.1118 24.182 27.8518 24.182C27.0118 24.182 26.3398 23.916 25.8358 23.384C25.3411 22.8427 25.0938 22.1427 25.0938 21.284C25.0938 20.3787 25.3318 19.6553 25.8078 19.114C26.2931 18.5633 26.9464 18.288 27.7678 18.288C28.5984 18.288 29.2424 18.5493 29.6998 19.072C30.1664 19.5853 30.3998 20.29 30.3998 21.186V21.368H26.5358ZM29.1398 20.612C29.1398 20.2293 29.0184 19.8933 28.7758 19.604C28.5424 19.3147 28.2344 19.17 27.8518 19.17C27.4784 19.17 27.1704 19.324 26.9278 19.632C26.6944 19.9307 26.5778 20.2573 26.5778 20.612H29.1398ZM32.1823 21.368C32.1823 21.9 32.2989 22.3387 32.5323 22.684C32.7656 23.0293 33.0876 23.202 33.4983 23.202C34.1423 23.202 34.5529 22.8847 34.7303 22.25L36.0183 22.46C35.5983 23.608 34.7583 24.182 33.4983 24.182C32.6583 24.182 31.9863 23.916 31.4823 23.384C30.9876 22.8427 30.7403 22.1427 30.7403 21.284C30.7403 20.3787 30.9783 19.6553 31.4543 19.114C31.9396 18.5633 32.5929 18.288 33.4143 18.288C34.2449 18.288 34.8889 18.5493 35.3463 19.072C35.8129 19.5853 36.0463 20.29 36.0463 21.186V21.368H32.1823ZM34.7863 20.612C34.7863 20.2293 34.6649 19.8933 34.4223 19.604C34.1889 19.3147 33.8809 19.17 33.4983 19.17C33.1249 19.17 32.8169 19.324 32.5743 19.632C32.3409 19.9307 32.2243 20.2573 32.2243 20.612H34.7863ZM38.1368 18.974C38.5194 18.5167 39.0841 18.288 39.8308 18.288C41.1001 18.288 41.7348 19.0673 41.7348 20.626V24H40.3908V21.074C40.3908 19.9073 40.0314 19.324 39.3128 19.324C38.5288 19.324 38.1368 19.9493 38.1368 21.2V24H36.7788V18.47H38.1368V18.974ZM48.8965 19.044C49.2418 18.54 49.7832 18.288 50.5205 18.288C50.7538 18.288 50.9685 18.3347 51.1645 18.428L50.9965 19.66C50.7912 19.5293 50.5672 19.464 50.3245 19.464C49.3725 19.464 48.8965 20.1453 48.8965 21.508V24H47.5385V18.47H48.8965V19.044ZM52.7174 21.368C52.7174 21.9 52.8341 22.3387 53.0674 22.684C53.3008 23.0293 53.6228 23.202 54.0334 23.202C54.6774 23.202 55.0881 22.8847 55.2654 22.25L56.5534 22.46C56.1334 23.608 55.2934 24.182 54.0334 24.182C53.1934 24.182 52.5214 23.916 52.0174 23.384C51.5228 22.8427 51.2754 22.1427 51.2754 21.284C51.2754 20.3787 51.5134 19.6553 51.9894 19.114C52.4748 18.5633 53.1281 18.288 53.9494 18.288C54.7801 18.288 55.4241 18.5493 55.8814 19.072C56.3481 19.5853 56.5814 20.29 56.5814 21.186V21.368H52.7174ZM55.3214 20.612C55.3214 20.2293 55.2001 19.8933 54.9574 19.604C54.7241 19.3147 54.4161 19.17 54.0334 19.17C53.6601 19.17 53.3521 19.324 53.1094 19.632C52.8761 19.9307 52.7594 20.2573 52.7594 20.612H55.3214ZM60.2679 19.618C59.9692 19.338 59.6566 19.198 59.3299 19.198C58.8352 19.198 58.5879 19.422 58.5879 19.87C58.5879 20.122 58.8119 20.3273 59.2599 20.486C60.0812 20.7847 60.5899 21.06 60.7859 21.312C60.9819 21.5547 61.0799 21.858 61.0799 22.222C61.0799 22.8193 60.8699 23.2953 60.4499 23.65C60.0392 24.0047 59.5306 24.182 58.9239 24.182C58.1399 24.182 57.4912 23.874 56.9779 23.258L57.5799 22.488C58.0466 22.9547 58.4759 23.188 58.8679 23.188C59.4372 23.188 59.7219 22.9127 59.7219 22.362C59.7219 22.082 59.5726 21.8767 59.2739 21.746C58.9752 21.606 58.7466 21.5033 58.5879 21.438C57.7292 21.0647 57.2999 20.612 57.2999 20.08C57.2999 19.548 57.4586 19.1187 57.7759 18.792C58.1026 18.456 58.5272 18.288 59.0499 18.288C59.7966 18.288 60.3892 18.4793 60.8279 18.862L60.2679 19.618ZM63.601 16.146C63.601 16.3607 63.5217 16.5473 63.363 16.706C63.2043 16.8647 63.0177 16.944 62.803 16.944C62.5883 16.944 62.4017 16.8647 62.243 16.706C62.0843 16.5473 62.005 16.3607 62.005 16.146C62.005 15.9313 62.0843 15.7447 62.243 15.586C62.4017 15.4273 62.5883 15.348 62.803 15.348C63.0177 15.348 63.2043 15.4273 63.363 15.586C63.5217 15.7447 63.601 15.9313 63.601 16.146ZM63.489 24H62.131V18.47H63.489V24ZM68.6844 23.482C68.3204 23.9487 67.7464 24.182 66.9624 24.182C66.1784 24.182 65.5531 23.8833 65.0864 23.286C64.6291 22.6887 64.4004 21.9887 64.4004 21.186C64.4004 20.3833 64.6338 19.702 65.1004 19.142C65.5764 18.5727 66.1831 18.288 66.9204 18.288C67.7044 18.288 68.2831 18.5167 68.6564 18.974L68.6844 14.438H70.0424V24H68.6844V23.482ZM68.8384 21.228C68.8384 20.7427 68.6891 20.3273 68.3904 19.982C68.0918 19.6367 67.7324 19.464 67.3124 19.464C66.8924 19.464 66.5284 19.6367 66.2204 19.982C65.9218 20.318 65.7724 20.738 65.7724 21.242C65.7724 21.7367 65.9171 22.1567 66.2064 22.502C66.5051 22.838 66.8784 23.006 67.3264 23.006C67.7744 23.006 68.1384 22.8427 68.4184 22.516C68.6984 22.18 68.8384 21.7507 68.8384 21.228ZM72.2135 21.368C72.2135 21.9 72.3302 22.3387 72.5635 22.684C72.7968 23.0293 73.1188 23.202 73.5295 23.202C74.1735 23.202 74.5842 22.8847 74.7615 22.25L76.0495 22.46C75.6295 23.608 74.7895 24.182 73.5295 24.182C72.6895 24.182 72.0175 23.916 71.5135 23.384C71.0188 22.8427 70.7715 22.1427 70.7715 21.284C70.7715 20.3787 71.0095 19.6553 71.4855 19.114C71.9708 18.5633 72.6242 18.288 73.4455 18.288C74.2762 18.288 74.9202 18.5493 75.3775 19.072C75.8442 19.5853 76.0775 20.29 76.0775 21.186V21.368H72.2135ZM74.8175 20.612C74.8175 20.2293 74.6962 19.8933 74.4535 19.604C74.2202 19.3147 73.9122 19.17 73.5295 19.17C73.1562 19.17 72.8482 19.324 72.6055 19.632C72.3722 19.9307 72.2555 20.2573 72.2555 20.612H74.8175ZM78.168 18.974C78.5507 18.5167 79.1153 18.288 79.862 18.288C81.1313 18.288 81.766 19.0673 81.766 20.626V24H80.422V21.074C80.422 19.9073 80.0627 19.324 79.344 19.324C78.56 19.324 78.168 19.9493 78.168 21.2V24H76.81V18.47H78.168V18.974ZM84.56 24H83.202V19.688H82.544V18.582H83.202V16.594H84.56V18.582H85.638V19.688H84.56V24ZM88.9378 19.618C88.6392 19.338 88.3265 19.198 87.9998 19.198C87.5052 19.198 87.2578 19.422 87.2578 19.87C87.2578 20.122 87.4818 20.3273 87.9298 20.486C88.7512 20.7847 89.2598 21.06 89.4558 21.312C89.6518 21.5547 89.7498 21.858 89.7498 22.222C89.7498 22.8193 89.5398 23.2953 89.1198 23.65C88.7092 24.0047 88.2005 24.182 87.5938 24.182C86.8098 24.182 86.1612 23.874 85.6478 23.258L86.2498 22.488C86.7165 22.9547 87.1458 23.188 87.5378 23.188C88.1072 23.188 88.3918 22.9127 88.3918 22.362C88.3918 22.082 88.2425 21.8767 87.9438 21.746C87.6452 21.606 87.4165 21.5033 87.2578 21.438C86.3992 21.0647 85.9698 20.612 85.9698 20.08C85.9698 19.548 86.1285 19.1187 86.4458 18.792C86.7725 18.456 87.1972 18.288 87.7198 18.288C88.4665 18.288 89.0592 18.4793 89.4978 18.862L88.9378 19.618ZM92.6769 23.202C92.6769 23.482 92.5789 23.7247 92.3829 23.93C92.1963 24.126 91.9629 24.224 91.6829 24.224C91.4029 24.224 91.1649 24.126 90.9689 23.93C90.7729 23.734 90.6749 23.5007 90.6749 23.23C90.6749 22.95 90.7729 22.712 90.9689 22.516C91.1649 22.32 91.3983 22.222 91.6689 22.222C91.9489 22.222 92.1869 22.3153 92.3829 22.502C92.5789 22.6887 92.6769 22.922 92.6769 23.202Z" fill="black"/>
</svg>
