<svg width="39" height="14" viewBox="0 0 39 14" fill="none" xmlns="http://www.w3.org/2000/svg">
<path d="M3.808 10.552L2.836 13H0.874L5.122 1.786H6.778L10.918 13H8.938L8.02 10.552H3.808ZM5.842 4.468L4.258 9.094H7.516L5.842 4.468ZM11.5286 0.705999H13.2746V6.538C13.7786 5.95 14.5286 5.656 15.5246 5.656C16.4606 5.656 17.2346 6.028 17.8466 6.772C18.4706 7.516 18.7826 8.392 18.7826 9.4C18.7826 10.492 18.4766 11.404 17.8646 12.136C17.2526 12.868 16.4606 13.234 15.4886 13.234C14.4446 13.234 13.7186 12.934 13.3106 12.334L13.2746 13H11.5286V0.705999ZM17.0006 9.436C17.0006 8.836 16.8146 8.308 16.4426 7.852C16.0706 7.396 15.5966 7.168 15.0206 7.168C14.4446 7.168 13.9766 7.396 13.6166 7.852C13.2566 8.296 13.0766 8.83 13.0766 9.454C13.0766 10.066 13.2626 10.6 13.6346 11.056C14.0186 11.5 14.4866 11.722 15.0386 11.722C15.6386 11.722 16.1126 11.506 16.4606 11.074C16.8206 10.63 17.0006 10.084 17.0006 9.436ZM26.704 9.436C26.704 10.552 26.362 11.464 25.678 12.172C24.994 12.88 24.094 13.234 22.978 13.234C21.874 13.234 20.974 12.88 20.278 12.172C19.582 11.464 19.234 10.558 19.234 9.454C19.234 8.338 19.576 7.426 20.26 6.718C20.944 6.01 21.844 5.656 22.96 5.656C24.076 5.656 24.976 6.01 25.66 6.718C26.356 7.414 26.704 8.32 26.704 9.436ZM20.998 9.472C20.998 10.132 21.184 10.672 21.556 11.092C21.928 11.512 22.408 11.722 22.996 11.722C23.584 11.722 24.052 11.5 24.4 11.056C24.76 10.6 24.94 10.066 24.94 9.454C24.94 8.83 24.76 8.296 24.4 7.852C24.04 7.396 23.566 7.168 22.978 7.168C22.402 7.168 21.928 7.384 21.556 7.816C21.184 8.248 20.998 8.8 20.998 9.472ZM29.3753 5.89V9.742C29.3753 11.122 29.8553 11.812 30.8153 11.812C31.7753 11.812 32.2553 11.122 32.2553 9.742V5.89H34.0013V10.066C34.0013 12.178 32.9393 13.234 30.8153 13.234C28.6913 13.234 27.6293 12.178 27.6293 10.066V5.89H29.3753ZM37.5593 13H35.8133V7.456H34.9673V6.034H35.8133V3.478H37.5593V6.034H38.9453V7.456H37.5593V13Z" fill="black"/>
</svg>
