<svg width="60" height="8" viewBox="0 0 60 8" fill="none" xmlns="http://www.w3.org/2000/svg">
<path d="M2.716 5.504L2.122 7H0.923L3.519 0.147H4.531L7.061 7H5.851L5.29 5.504H2.716ZM3.959 1.786L2.991 4.613H4.982L3.959 1.786ZM11.9001 7H10.5031L8.61114 4.03L8.60014 7H7.46714V0.322999H9.23814C10.7268 0.322999 11.4711 0.994 11.4711 2.336C11.4711 2.842 11.3391 3.26367 11.0751 3.601C10.8185 3.93833 10.4665 4.13267 10.0191 4.184L11.9001 7ZM8.60014 3.568H8.94114C9.87247 3.568 10.3381 3.16833 10.3381 2.369C10.3381 1.599 9.87614 1.214 8.95214 1.214H8.60014V3.568ZM14.4435 7H13.4205V1.28H11.9355V0.322999H15.9285V1.28H14.4435V7ZM23.7635 6.219C23.0888 6.80567 22.4508 7.099 21.8495 7.099C21.2921 7.099 20.8411 6.923 20.4965 6.571C20.1591 6.21167 19.9905 5.76433 19.9905 5.229C19.9905 4.49567 20.2801 3.94567 20.8595 3.579L21.4095 3.227C21.0061 2.64033 20.8045 2.16367 20.8045 1.797C20.8045 1.335 20.9548 0.957333 21.2555 0.664C21.5635 0.363333 21.9558 0.213 22.4325 0.213C22.9165 0.213 23.3088 0.363333 23.6095 0.664C23.9175 0.957333 24.0715 1.34233 24.0715 1.819C24.0715 2.36167 23.6938 2.88233 22.9385 3.381L23.9175 4.679L24.6875 3.788L25.4135 4.481L24.5885 5.449L25.8095 7H24.3905L23.7635 6.219ZM22.3885 2.721L22.6305 2.545C22.9531 2.325 23.1145 2.05 23.1145 1.72C23.1145 1.22867 22.9055 0.982999 22.4875 0.982999C22.0695 0.982999 21.8605 1.22133 21.8605 1.698C21.8605 1.86667 21.9155 2.03167 22.0255 2.193L22.3885 2.721ZM21.9705 3.942C21.4058 4.36733 21.1235 4.75967 21.1235 5.119C21.1235 5.77167 21.4168 6.098 22.0035 6.098C22.2895 6.098 22.6561 5.88167 23.1035 5.449L21.9705 3.942ZM29.972 0.322999H31.842C32.7954 0.322999 33.569 0.638333 34.163 1.269C34.7644 1.89967 35.065 2.69533 35.065 3.656C35.065 4.61667 34.7607 5.416 34.152 6.054C33.5507 6.68467 32.777 7 31.831 7H29.972V0.322999ZM31.105 5.977H31.49C33.0887 5.977 33.888 5.207 33.888 3.667C33.888 2.11967 33.0887 1.346 31.49 1.346H31.105V5.977ZM36.8199 1.28V3.018H39.0639V3.975H36.8199V6.043H39.1409V7H35.6869V0.322999H39.1409V1.28H36.8199ZM43.2392 1.676C42.9532 1.27267 42.5902 1.071 42.1502 1.071C41.8716 1.071 41.6369 1.15533 41.4462 1.324C41.2556 1.49267 41.1602 1.72 41.1602 2.006C41.1602 2.28467 41.5049 2.61833 42.1942 3.007C42.8909 3.39567 43.2429 3.59 43.2502 3.59C43.7416 3.95667 43.9872 4.38933 43.9872 4.888C43.9872 5.57 43.7892 6.12367 43.3932 6.549C43.0046 6.967 42.4692 7.176 41.7872 7.176C40.9219 7.176 40.2399 6.74333 39.7412 5.878L40.4562 5.174C40.5516 5.43067 40.7276 5.66533 40.9842 5.878C41.2409 6.09067 41.5049 6.197 41.7762 6.197C42.0989 6.197 42.3519 6.087 42.5352 5.867C42.7259 5.647 42.8212 5.37933 42.8212 5.064C42.8212 4.83667 42.7516 4.63867 42.6122 4.47C42.4729 4.294 41.9999 4.03 41.1932 3.678C40.3939 3.31867 39.9942 2.809 39.9942 2.149C39.9942 1.58433 40.1776 1.11133 40.5442 0.729999C40.9182 0.341333 41.3839 0.147 41.9412 0.147C42.7112 0.147 43.3199 0.396333 43.7672 0.895L43.2392 1.676ZM45.8776 7H44.7446V0.322999H45.8776V7ZM52.8087 3.447V3.612C52.8087 4.67533 52.5374 5.537 51.9947 6.197C51.452 6.84967 50.7077 7.176 49.7617 7.176C48.845 7.176 48.086 6.83867 47.4847 6.164C46.8834 5.48933 46.5827 4.66433 46.5827 3.689C46.5827 2.677 46.887 1.83367 47.4957 1.159C48.1117 0.484333 48.8964 0.147 49.8497 0.147C51.0817 0.147 51.9617 0.678666 52.4897 1.742L51.4777 2.281C51.1404 1.511 50.5867 1.126 49.8167 1.126C49.2227 1.126 48.7314 1.38267 48.3427 1.896C47.954 2.402 47.7597 3.00333 47.7597 3.7C47.7597 4.39667 47.9504 4.987 48.3317 5.471C48.713 5.955 49.208 6.197 49.8167 6.197C50.3374 6.197 50.7517 6.01367 51.0597 5.647C51.3677 5.28033 51.5217 4.844 51.5217 4.338H49.9267V3.447H52.8087ZM53.4437 0.147H54.3017L58.0747 5.174L58.0967 0.322999H59.2187V7.132H58.3717L54.5877 2.116L54.5767 7H53.4437V0.147Z" fill="black"/>
</svg>
