<svg width="49" height="8" viewBox="0 0 49 8" fill="none" xmlns="http://www.w3.org/2000/svg">
<path d="M4.939 1.918C4.55033 1.44867 4.06267 1.214 3.476 1.214C2.86733 1.214 2.35767 1.467 1.947 1.973C1.53633 2.47167 1.331 3.04367 1.331 3.689C1.331 4.31233 1.53267 4.87333 1.936 5.372C2.34667 5.86333 2.85633 6.109 3.465 6.109C4.04433 6.109 4.53567 5.87433 4.939 5.405V6.78C4.39633 7.044 3.894 7.176 3.432 7.176C2.508 7.176 1.73067 6.835 1.1 6.153C0.469333 5.471 0.154 4.657 0.154 3.711C0.154 2.72833 0.469333 1.88867 1.1 1.192C1.73067 0.495333 2.51533 0.147 3.454 0.147C3.94533 0.147 4.44033 0.275333 4.939 0.532V1.918ZM5.48213 3.678C5.48213 2.70267 5.79379 1.87033 6.41713 1.181C7.04779 0.491666 7.83979 0.147 8.79313 0.147C9.74646 0.147 10.5348 0.491666 11.1581 1.181C11.7815 1.87033 12.0931 2.699 12.0931 3.667C12.0931 4.635 11.7815 5.46367 11.1581 6.153C10.5421 6.835 9.75379 7.176 8.79313 7.176C7.83246 7.176 7.04046 6.835 6.41713 6.153C5.79379 5.471 5.48213 4.646 5.48213 3.678ZM6.65913 3.601C6.65913 4.25367 6.86446 4.82933 7.27513 5.328C7.68579 5.81933 8.19179 6.065 8.79313 6.065C9.43846 6.065 9.95546 5.83033 10.3441 5.361C10.7328 4.88433 10.9271 4.29767 10.9271 3.601C10.9271 2.941 10.7328 2.38733 10.3441 1.94C9.95546 1.48533 9.43479 1.258 8.78213 1.258C8.13679 1.258 7.61979 1.48533 7.23113 1.94C6.84979 2.39467 6.65913 2.94833 6.65913 3.601ZM13.8628 6.043H15.8758V7H12.7298V0.322999H13.8628V6.043ZM17.4292 6.043H19.4422V7H16.2962V0.322999H17.4292V6.043ZM20.9956 1.28V3.018H23.2396V3.975H20.9956V6.043H23.3166V7H19.8626V0.322999H23.3166V1.28H20.9956ZM28.647 1.918C28.2583 1.44867 27.7707 1.214 27.184 1.214C26.5753 1.214 26.0657 1.467 25.655 1.973C25.2443 2.47167 25.039 3.04367 25.039 3.689C25.039 4.31233 25.2407 4.87333 25.644 5.372C26.0547 5.86333 26.5643 6.109 27.173 6.109C27.7523 6.109 28.2437 5.87433 28.647 5.405V6.78C28.1043 7.044 27.602 7.176 27.14 7.176C26.216 7.176 25.4387 6.835 24.808 6.153C24.1773 5.471 23.862 4.657 23.862 3.711C23.862 2.72833 24.1773 1.88867 24.808 1.192C25.4387 0.495333 26.2233 0.147 27.162 0.147C27.6533 0.147 28.1483 0.275333 28.647 0.532V1.918ZM31.5441 7H30.5211V1.28H29.0361V0.322999H33.0291V1.28H31.5441V7ZM34.7262 7H33.5932V0.322999H34.7262V7ZM35.4313 3.678C35.4313 2.70267 35.743 1.87033 36.3663 1.181C36.997 0.491666 37.789 0.147 38.7423 0.147C39.6957 0.147 40.484 0.491666 41.1073 1.181C41.7307 1.87033 42.0423 2.699 42.0423 3.667C42.0423 4.635 41.7307 5.46367 41.1073 6.153C40.4913 6.835 39.703 7.176 38.7423 7.176C37.7817 7.176 36.9897 6.835 36.3663 6.153C35.743 5.471 35.4313 4.646 35.4313 3.678ZM36.6083 3.601C36.6083 4.25367 36.8137 4.82933 37.2243 5.328C37.635 5.81933 38.141 6.065 38.7423 6.065C39.3877 6.065 39.9047 5.83033 40.2933 5.361C40.682 4.88433 40.8763 4.29767 40.8763 3.601C40.8763 2.941 40.682 2.38733 40.2933 1.94C39.9047 1.48533 39.384 1.258 38.7313 1.258C38.086 1.258 37.569 1.48533 37.1803 1.94C36.799 2.39467 36.6083 2.94833 36.6083 3.601ZM42.6791 0.147H43.5371L47.3101 5.174L47.3321 0.322999H48.4541V7.132H47.6071L43.8231 2.116L43.8121 7H42.6791V0.147Z" fill="black"/>
</svg>
