<svg width="47" height="13" viewBox="0 0 47 13" fill="none" xmlns="http://www.w3.org/2000/svg">
<path d="M8.082 3.684C7.446 2.916 6.648 2.532 5.688 2.532C4.692 2.532 3.858 2.946 3.186 3.774C2.514 4.59 2.178 5.526 2.178 6.582C2.178 7.602 2.508 8.52 3.168 9.336C3.84 10.14 4.674 10.542 5.67 10.542C6.618 10.542 7.422 10.158 8.082 9.39V11.64C7.194 12.072 6.372 12.288 5.616 12.288C4.104 12.288 2.832 11.73 1.8 10.614C0.768 9.498 0.252 8.166 0.252 6.618C0.252 5.01 0.768 3.636 1.8 2.496C2.832 1.356 4.116 0.786 5.652 0.786C6.456 0.786 7.266 0.996 8.082 1.416V3.684ZM16.4228 8.436C16.4228 9.552 16.0808 10.464 15.3968 11.172C14.7128 11.88 13.8128 12.234 12.6968 12.234C11.5928 12.234 10.6928 11.88 9.99675 11.172C9.30075 10.464 8.95275 9.558 8.95275 8.454C8.95275 7.338 9.29475 6.426 9.97875 5.718C10.6628 5.01 11.5628 4.656 12.6788 4.656C13.7948 4.656 14.6948 5.01 15.3788 5.718C16.0748 6.414 16.4228 7.32 16.4228 8.436ZM10.7168 8.472C10.7168 9.132 10.9028 9.672 11.2748 10.092C11.6468 10.512 12.1268 10.722 12.7148 10.722C13.3028 10.722 13.7708 10.5 14.1188 10.056C14.4788 9.6 14.6588 9.066 14.6588 8.454C14.6588 7.83 14.4788 7.296 14.1188 6.852C13.7588 6.396 13.2848 6.168 12.6968 6.168C12.1208 6.168 11.6468 6.384 11.2748 6.816C10.9028 7.248 10.7168 7.8 10.7168 8.472ZM19.1301 5.538C19.6221 4.95 20.3481 4.656 21.3081 4.656C22.9401 4.656 23.7561 5.658 23.7561 7.662V12H22.0281V8.238C22.0281 6.738 21.5661 5.988 20.6421 5.988C19.6341 5.988 19.1301 6.792 19.1301 8.4V12H17.3841V4.89H19.1301V5.538ZM27.3483 12H25.6023V6.456H24.7563V5.034H25.6023V2.478H27.3483V5.034H28.7343V6.456H27.3483V12ZM35.911 12H34.201V11.352C33.697 11.94 32.947 12.234 31.951 12.234C30.955 12.234 30.157 11.85 29.557 11.082C28.969 10.314 28.675 9.414 28.675 8.382C28.675 7.35 28.975 6.474 29.575 5.754C30.187 5.022 30.967 4.656 31.915 4.656C32.923 4.656 33.685 4.956 34.201 5.556V4.89H35.911V12ZM34.399 8.436C34.399 7.776 34.213 7.236 33.841 6.816C33.469 6.384 32.989 6.168 32.401 6.168C31.825 6.168 31.351 6.378 30.979 6.798C30.619 7.206 30.439 7.752 30.439 8.436C30.439 9.12 30.625 9.672 30.997 10.092C31.369 10.512 31.849 10.722 32.437 10.722C33.025 10.722 33.499 10.518 33.859 10.11C34.219 9.702 34.399 9.144 34.399 8.436ZM42.2124 6.744C41.7684 6.3 41.2704 6.078 40.7184 6.078C40.0704 6.078 39.5604 6.312 39.1884 6.78C38.8164 7.248 38.6304 7.824 38.6304 8.508C38.6304 9.18 38.8404 9.732 39.2604 10.164C39.6804 10.596 40.1904 10.812 40.7904 10.812C41.3064 10.812 41.7804 10.584 42.2124 10.128V11.802C41.7084 12.09 41.1264 12.234 40.4664 12.234C39.4344 12.234 38.5764 11.868 37.8924 11.136C37.2084 10.404 36.8664 9.51 36.8664 8.454C36.8664 7.398 37.2144 6.504 37.9104 5.772C38.6184 5.028 39.5004 4.656 40.5564 4.656C41.1804 4.656 41.7324 4.806 42.2124 5.106V6.744ZM45.612 12H43.866V6.456H43.02V5.034H43.866V2.478H45.612V5.034H46.998V6.456H45.612V12Z" fill="black"/>
</svg>
