<svg width="70" height="9" viewBox="0 0 70 9" fill="none" xmlns="http://www.w3.org/2000/svg">
<path d="M1.752 1.76V3.656H3.996V4.7H1.752V8H0.516V0.715999H4.14V1.76H1.752ZM6.34856 6.368L5.70056 8H4.39256L7.22456 0.524H8.32856L11.0886 8H9.76856L9.15656 6.368H6.34856ZM7.70456 2.312L6.64856 5.396H8.82056L7.70456 2.312ZM16.4036 2.456C15.9796 1.944 15.4476 1.688 14.8076 1.688C14.1436 1.688 13.5876 1.964 13.1396 2.516C12.6916 3.06 12.4676 3.684 12.4676 4.388C12.4676 5.068 12.6876 5.68 13.1276 6.224C13.5756 6.76 14.1316 7.028 14.7956 7.028C15.4276 7.028 15.9636 6.772 16.4036 6.26V7.76C15.8116 8.048 15.2636 8.192 14.7596 8.192C13.7516 8.192 12.9036 7.82 12.2156 7.076C11.5276 6.332 11.1836 5.444 11.1836 4.412C11.1836 3.34 11.5276 2.424 12.2156 1.664C12.9036 0.904 13.7596 0.524 14.7836 0.524C15.3196 0.524 15.8596 0.664 16.4036 0.944V2.456ZM18.5801 1.76V3.656H21.0281V4.7H18.5801V6.956H21.1121V8H17.3441V0.715999H21.1121V1.76H18.5801ZM21.9231 0.715999H23.4111L24.6711 3.14L25.8231 0.715999H27.3111L25.3071 4.136L27.5391 8H26.0751L24.5151 5.216L23.0271 8H21.5631L23.8791 4.124L21.9231 0.715999ZM32.0863 0.715999H34.1263C35.1663 0.715999 36.0103 1.06 36.6583 1.748C37.3143 2.436 37.6423 3.304 37.6423 4.352C37.6423 5.4 37.3103 6.272 36.6463 6.968C35.9903 7.656 35.1463 8 34.1143 8H32.0863V0.715999ZM33.3223 6.884H33.7423C35.4863 6.884 36.3583 6.044 36.3583 4.364C36.3583 2.676 35.4863 1.832 33.7423 1.832H33.3223V6.884ZM39.6767 6.368L39.0287 8H37.7207L40.5527 0.524H41.6567L44.4167 8H43.0967L42.4847 6.368H39.6767ZM41.0327 2.312L39.9767 5.396H42.1487L41.0327 2.312ZM47.0798 8H45.9638V1.76H44.3438V0.715999H48.6998V1.76H47.0798V8ZM50.5751 6.368L49.9271 8H48.6191L51.4511 0.524H52.5551L55.3151 8H53.9951L53.3831 6.368H50.5751ZM51.9311 2.312L50.8751 5.396H53.0471L51.9311 2.312ZM59.2862 2.192C58.9742 1.752 58.5782 1.532 58.0982 1.532C57.7942 1.532 57.5382 1.624 57.3302 1.808C57.1222 1.992 57.0182 2.24 57.0182 2.552C57.0182 2.856 57.3942 3.22 58.1462 3.644C58.9062 4.068 59.2902 4.28 59.2982 4.28C59.8342 4.68 60.1022 5.152 60.1022 5.696C60.1022 6.44 59.8862 7.044 59.4542 7.508C59.0302 7.964 58.4462 8.192 57.7022 8.192C56.7582 8.192 56.0142 7.72 55.4702 6.776L56.2502 6.008C56.3542 6.288 56.5462 6.544 56.8262 6.776C57.1062 7.008 57.3942 7.124 57.6902 7.124C58.0422 7.124 58.3182 7.004 58.5182 6.764C58.7262 6.524 58.8302 6.232 58.8302 5.888C58.8302 5.64 58.7542 5.424 58.6022 5.24C58.4502 5.048 57.9342 4.76 57.0542 4.376C56.1822 3.984 55.7462 3.428 55.7462 2.708C55.7462 2.092 55.9462 1.576 56.3462 1.16C56.7542 0.736 57.2622 0.524 57.8702 0.524C58.7102 0.524 59.3742 0.796 59.8622 1.34L59.2862 2.192ZM62.0684 1.76V3.656H64.5164V4.7H62.0684V6.956H64.6004V8H60.8324V0.715999H64.6004V1.76H62.0684ZM67.7633 8H66.6473V1.76H65.0273V0.715999H69.3833V1.76H67.7633V8Z" fill="black"/>
</svg>
