<svg width="114" height="13" viewBox="0 0 114 13" fill="none" xmlns="http://www.w3.org/2000/svg">
<path d="M10.44 6.186V6.456C10.44 8.196 9.996 9.606 9.108 10.686C8.22 11.754 7.002 12.288 5.454 12.288C3.954 12.288 2.712 11.736 1.728 10.632C0.744 9.528 0.252 8.178 0.252 6.582C0.252 4.926 0.75 3.546 1.746 2.442C2.754 1.338 4.038 0.786 5.598 0.786C7.614 0.786 9.054 1.656 9.918 3.396L8.262 4.278C7.71 3.018 6.804 2.388 5.544 2.388C4.572 2.388 3.768 2.808 3.132 3.648C2.496 4.476 2.178 5.46 2.178 6.6C2.178 7.74 2.49 8.706 3.114 9.498C3.738 10.29 4.548 10.686 5.544 10.686C6.396 10.686 7.074 10.386 7.578 9.786C8.082 9.186 8.334 8.472 8.334 7.644H5.724V6.186H10.44ZM18.7331 12H16.4471L13.3511 7.14L13.3331 12H11.4791V1.074H14.3771C16.8131 1.074 18.0311 2.172 18.0311 4.368C18.0311 5.196 17.8151 5.886 17.3831 6.438C16.9631 6.99 16.3871 7.308 15.6551 7.392L18.7331 12ZM13.3331 6.384H13.8911C15.4151 6.384 16.1771 5.73 16.1771 4.422C16.1771 3.162 15.4211 2.532 13.9091 2.532H13.3331V6.384ZM21.599 9.552L20.627 12H18.665L22.913 0.786H24.569L28.709 12H26.729L25.811 9.552H21.599ZM23.633 3.468L22.049 8.094H25.307L23.633 3.468ZM31.2276 12H29.3736V1.074H32.2716C34.8036 1.074 36.0696 2.202 36.0696 4.458C36.0696 6.762 34.9056 7.914 32.5776 7.914H31.2276V12ZM31.2276 6.438H32.1456C33.5016 6.438 34.1796 5.778 34.1796 4.458C34.1796 3.186 33.4836 2.55 32.0916 2.55H31.2276V6.438ZM43.3921 5.52V1.074H45.2281V12H43.3921V6.978H38.8741V12H37.0201V1.074H38.8741V5.52H43.3921ZM48.7915 12H46.9375V1.074H48.7915V12ZM57.7754 3.684C57.1394 2.916 56.3414 2.532 55.3814 2.532C54.3854 2.532 53.5514 2.946 52.8794 3.774C52.2074 4.59 51.8714 5.526 51.8714 6.582C51.8714 7.602 52.2014 8.52 52.8614 9.336C53.5334 10.14 54.3674 10.542 55.3634 10.542C56.3114 10.542 57.1154 10.158 57.7754 9.39V11.64C56.8874 12.072 56.0654 12.288 55.3094 12.288C53.7974 12.288 52.5254 11.73 51.4934 10.614C50.4614 9.498 49.9454 8.166 49.9454 6.618C49.9454 5.01 50.4614 3.636 51.4934 2.496C52.5254 1.356 53.8094 0.786 55.3454 0.786C56.1494 0.786 56.9594 0.996 57.7754 1.416V3.684ZM65.1978 1.074H68.2578C69.8178 1.074 71.0838 1.59 72.0558 2.622C73.0398 3.654 73.5318 4.956 73.5318 6.528C73.5318 8.1 73.0338 9.408 72.0378 10.452C71.0538 11.484 69.7878 12 68.2398 12H65.1978V1.074ZM67.0518 10.326H67.6818C70.2978 10.326 71.6058 9.066 71.6058 6.546C71.6058 4.014 70.2978 2.748 67.6818 2.748H67.0518V10.326ZM76.4034 2.64V5.484H80.0754V7.05H76.4034V10.434H80.2014V12H74.5494V1.074H80.2014V2.64H76.4034ZM86.9078 3.288C86.4398 2.628 85.8458 2.298 85.1258 2.298C84.6698 2.298 84.2858 2.436 83.9738 2.712C83.6618 2.988 83.5058 3.36 83.5058 3.828C83.5058 4.284 84.0698 4.83 85.1978 5.466C86.3378 6.102 86.9138 6.42 86.9258 6.42C87.7298 7.02 88.1318 7.728 88.1318 8.544C88.1318 9.66 87.8078 10.566 87.1598 11.262C86.5238 11.946 85.6478 12.288 84.5318 12.288C83.1158 12.288 81.9998 11.58 81.1838 10.164L82.3538 9.012C82.5098 9.432 82.7978 9.816 83.2178 10.164C83.6378 10.512 84.0698 10.686 84.5138 10.686C85.0418 10.686 85.4558 10.506 85.7558 10.146C86.0678 9.786 86.2238 9.348 86.2238 8.832C86.2238 8.46 86.1098 8.136 85.8818 7.86C85.6538 7.572 84.8798 7.14 83.5598 6.564C82.2518 5.976 81.5978 5.142 81.5978 4.062C81.5978 3.138 81.8978 2.364 82.4978 1.74C83.1098 1.104 83.8718 0.786 84.7838 0.786C86.0438 0.786 87.0398 1.194 87.7718 2.01L86.9078 3.288ZM91.2251 12H89.3711V1.074H91.2251V12ZM102.567 6.186V6.456C102.567 8.196 102.123 9.606 101.235 10.686C100.347 11.754 99.129 12.288 97.581 12.288C96.081 12.288 94.839 11.736 93.855 10.632C92.871 9.528 92.379 8.178 92.379 6.582C92.379 4.926 92.877 3.546 93.873 2.442C94.881 1.338 96.165 0.786 97.725 0.786C99.741 0.786 101.181 1.656 102.045 3.396L100.389 4.278C99.837 3.018 98.931 2.388 97.671 2.388C96.699 2.388 95.895 2.808 95.259 3.648C94.623 4.476 94.305 5.46 94.305 6.6C94.305 7.74 94.617 8.706 95.241 9.498C95.865 10.29 96.675 10.686 97.671 10.686C98.523 10.686 99.201 10.386 99.705 9.786C100.209 9.186 100.461 8.472 100.461 7.644H97.851V6.186H102.567ZM103.606 0.786H105.01L111.184 9.012L111.22 1.074H113.056V12.216H111.67L105.478 4.008L105.46 12H103.606V0.786Z" fill="black"/>
</svg>
