<svg width="131" height="18" viewBox="0 0 131 18" fill="none" xmlns="http://www.w3.org/2000/svg">
<path d="M2.628 13.434H5.922V15H0.774V4.074H2.628V13.434ZM8.60794 15H6.75394V4.074H8.60794V15ZM12.1378 5.64V8.484H15.5038V10.05H12.1378V15H10.2838V4.074H15.7198V5.64H12.1378ZM18.8526 5.64V8.484H22.5246V10.05H18.8526V13.434H22.6506V15H16.9986V4.074H22.6506V5.64H18.8526ZM29.5547 9.564C29.5547 7.968 30.0647 6.606 31.0847 5.478C32.1167 4.35 33.4127 3.786 34.9727 3.786C36.5327 3.786 37.8227 4.35 38.8427 5.478C39.8627 6.606 40.3727 7.962 40.3727 9.546C40.3727 11.13 39.8627 12.486 38.8427 13.614C37.8347 14.73 36.5447 15.288 34.9727 15.288C33.4007 15.288 32.1047 14.73 31.0847 13.614C30.0647 12.498 29.5547 11.148 29.5547 9.564ZM31.4807 9.438C31.4807 10.506 31.8167 11.448 32.4887 12.264C33.1607 13.068 33.9887 13.47 34.9727 13.47C36.0287 13.47 36.8747 13.086 37.5107 12.318C38.1467 11.538 38.4647 10.578 38.4647 9.438C38.4647 8.358 38.1467 7.452 37.5107 6.72C36.8747 5.976 36.0227 5.604 34.9547 5.604C33.8987 5.604 33.0527 5.976 32.4167 6.72C31.7927 7.464 31.4807 8.37 31.4807 9.438ZM43.2686 5.64V8.484H46.6346V10.05H43.2686V15H41.4146V4.074H46.8506V5.64H43.2686ZM54.1412 4.074H56.8052C58.9892 4.074 60.0812 5.064 60.0812 7.044C60.0812 8.016 59.7632 8.724 59.1272 9.168C59.7032 9.264 60.1532 9.57 60.4772 10.086C60.8132 10.602 60.9812 11.208 60.9812 11.904C60.9812 12.924 60.6572 13.698 60.0092 14.226C59.3732 14.742 58.5332 15 57.4892 15H54.1412V4.074ZM55.9952 13.524H57.0212C58.4372 13.524 59.1452 12.924 59.1452 11.724C59.1452 10.644 58.4012 10.104 56.9132 10.104H55.9952V13.524ZM55.9952 8.772H56.8232C57.8552 8.772 58.3712 8.244 58.3712 7.188C58.3712 6.06 57.8612 5.496 56.8412 5.496H55.9952V8.772ZM62.1028 4.074H63.9568V10.194C63.9568 12.546 64.6948 13.722 66.1708 13.722C67.6468 13.722 68.3848 12.546 68.3848 10.194V4.074H70.2208V10.608C70.2208 13.728 68.8648 15.288 66.1528 15.288C63.4528 15.288 62.1028 13.728 62.1028 10.608V4.074ZM75.0493 15H73.3753V5.64H70.9453V4.074H77.4793V5.64H75.0493V15ZM81.5884 15H79.9144V5.64H77.4844V4.074H84.0184V5.64H81.5884V15ZM86.6514 5.64V8.484H90.3234V10.05H86.6514V13.434H90.4494V15H84.7974V4.074H90.4494V5.64H86.6514ZM99.1178 15H96.8318L93.7358 10.14L93.7178 15H91.8638V4.074H94.7618C97.1978 4.074 98.4158 5.172 98.4158 7.368C98.4158 8.196 98.1998 8.886 97.7678 9.438C97.3478 9.99 96.7718 10.308 96.0398 10.392L99.1178 15ZM93.7178 9.384H94.2758C95.7998 9.384 96.5618 8.73 96.5618 7.422C96.5618 6.162 95.8058 5.532 94.2938 5.532H93.7178V9.384ZM101.804 5.64V8.484H105.17V10.05H101.804V15H99.9498V4.074H105.386V5.64H101.804ZM108.519 13.434H111.813V15H106.665V4.074H108.519V13.434ZM114.499 15H112.645V4.074H114.499V15ZM118.028 5.64V8.484H121.7V10.05H118.028V13.434H121.826V15H116.174V4.074H121.826V5.64H118.028ZM128.533 6.288C128.065 5.628 127.471 5.298 126.751 5.298C126.295 5.298 125.911 5.436 125.599 5.712C125.287 5.988 125.131 6.36 125.131 6.828C125.131 7.284 125.695 7.83 126.823 8.466C127.963 9.102 128.539 9.42 128.551 9.42C129.355 10.02 129.757 10.728 129.757 11.544C129.757 12.66 129.433 13.566 128.785 14.262C128.149 14.946 127.273 15.288 126.157 15.288C124.741 15.288 123.625 14.58 122.809 13.164L123.979 12.012C124.135 12.432 124.423 12.816 124.843 13.164C125.263 13.512 125.695 13.686 126.139 13.686C126.667 13.686 127.081 13.506 127.381 13.146C127.693 12.786 127.849 12.348 127.849 11.832C127.849 11.46 127.735 11.136 127.507 10.86C127.279 10.572 126.505 10.14 125.185 9.564C123.877 8.976 123.223 8.142 123.223 7.062C123.223 6.138 123.523 5.364 124.123 4.74C124.735 4.104 125.497 3.786 126.409 3.786C127.669 3.786 128.665 4.194 129.397 5.01L128.533 6.288Z" fill="black"/>
</svg>
