<svg width="323" height="124" viewBox="0 0 323 124" fill="none" xmlns="http://www.w3.org/2000/svg">
<path d="M4.744 16.736L3.448 20H0.832L6.496 5.048H8.704L14.224 20H11.584L10.36 16.736H4.744ZM7.456 8.624L5.344 14.792H9.688L7.456 8.624ZM15.1101 5.432H18.6621C21.5741 5.432 23.0301 6.752 23.0301 9.392C23.0301 10.688 22.6061 11.632 21.7581 12.224C22.5261 12.352 23.1261 12.76 23.5581 13.448C24.0061 14.136 24.2301 14.944 24.2301 15.872C24.2301 17.232 23.7981 18.264 22.9341 18.968C22.0861 19.656 20.9661 20 19.5741 20H15.1101V5.432ZM17.5821 18.032H18.9501C20.8381 18.032 21.7821 17.232 21.7821 15.632C21.7821 14.192 20.7901 13.472 18.8061 13.472H17.5821V18.032ZM17.5821 11.696H18.6861C20.0621 11.696 20.7501 10.992 20.7501 9.584C20.7501 8.08 20.0701 7.328 18.7101 7.328H17.5821V11.696ZM25.1016 12.752C25.1016 10.624 25.7816 8.808 27.1416 7.304C28.5176 5.8 30.2456 5.048 32.3256 5.048C34.4056 5.048 36.1256 5.8 37.4856 7.304C38.8456 8.808 39.5256 10.616 39.5256 12.728C39.5256 14.84 38.8456 16.648 37.4856 18.152C36.1416 19.64 34.4216 20.384 32.3256 20.384C30.2296 20.384 28.5016 19.64 27.1416 18.152C25.7816 16.664 25.1016 14.864 25.1016 12.752ZM27.6696 12.584C27.6696 14.008 28.1176 15.264 29.0136 16.352C29.9096 17.424 31.0136 17.96 32.3256 17.96C33.7336 17.96 34.8616 17.448 35.7096 16.424C36.5576 15.384 36.9816 14.104 36.9816 12.584C36.9816 11.144 36.5576 9.936 35.7096 8.96C34.8616 7.968 33.7256 7.472 32.3016 7.472C30.8936 7.472 29.7656 7.968 28.9176 8.96C28.0856 9.952 27.6696 11.16 27.6696 12.584ZM40.8428 5.432H43.3148V13.592C43.3148 16.728 44.2988 18.296 46.2668 18.296C48.2348 18.296 49.2188 16.728 49.2188 13.592V5.432H51.6668V14.144C51.6668 18.304 49.8588 20.384 46.2428 20.384C42.6428 20.384 40.8428 18.304 40.8428 14.144V5.432ZM58.1048 20H55.8728V7.52H52.6328V5.432H61.3448V7.52H58.1048V20ZM81.3912 10.184L77.7432 20.192H77.1432L73.7112 10.136L72.0552 20H69.5832L72.0312 5.048H73.8552L77.6472 15.056L81.2712 5.048H83.1192L85.3032 20H82.8312L81.3912 10.184ZM89.0196 7.52V11.312H93.9156V13.4H89.0196V17.912H94.0836V20H86.5476V5.432H94.0836V7.52H89.0196Z" fill="black"/>
<path d="M3.184 64.096L2.428 66H0.902L4.206 57.278H5.494L8.714 66H7.174L6.46 64.096H3.184ZM4.766 59.364L3.534 62.962H6.068L4.766 59.364ZM15.2227 60.96C15.568 60.512 16.1 60.288 16.8187 60.288C17.444 60.288 17.9387 60.5773 18.3027 61.156C18.6574 60.5773 19.2314 60.288 20.0247 60.288C21.1914 60.288 21.7747 61.044 21.7747 62.556V66H20.4307V63.088C20.4307 61.912 20.1087 61.324 19.4647 61.324C18.8207 61.324 18.4987 61.9773 18.4987 63.284V66H17.1407V63.2C17.1407 61.9493 16.856 61.324 16.2867 61.324C15.5774 61.324 15.2227 61.9773 15.2227 63.284V66H13.8647V60.47H15.2227V60.96ZM28.1515 66H26.8215V65.496C26.4295 65.9533 25.8461 66.182 25.0715 66.182C24.2968 66.182 23.6761 65.8833 23.2095 65.286C22.7521 64.6887 22.5235 63.9887 22.5235 63.186C22.5235 62.3833 22.7568 61.702 23.2235 61.142C23.6995 60.5727 24.3061 60.288 25.0435 60.288C25.8275 60.288 26.4201 60.5213 26.8215 60.988V60.47H28.1515V66ZM26.9755 63.228C26.9755 62.7147 26.8308 62.2947 26.5415 61.968C26.2521 61.632 25.8788 61.464 25.4215 61.464C24.9735 61.464 24.6048 61.6273 24.3155 61.954C24.0355 62.2713 23.8955 62.696 23.8955 63.228C23.8955 63.76 24.0401 64.1893 24.3295 64.516C24.6188 64.8427 24.9921 65.006 25.4495 65.006C25.9068 65.006 26.2755 64.8473 26.5555 64.53C26.8355 64.2127 26.9755 63.7787 26.9755 63.228ZM32.2406 61.618C31.9419 61.338 31.6292 61.198 31.3026 61.198C30.8079 61.198 30.5606 61.422 30.5606 61.87C30.5606 62.122 30.7846 62.3273 31.2326 62.486C32.0539 62.7847 32.5626 63.06 32.7586 63.312C32.9546 63.5547 33.0526 63.858 33.0526 64.222C33.0526 64.8193 32.8426 65.2953 32.4226 65.65C32.0119 66.0047 31.5032 66.182 30.8966 66.182C30.1126 66.182 29.4639 65.874 28.9506 65.258L29.5526 64.488C30.0192 64.9547 30.4486 65.188 30.8406 65.188C31.4099 65.188 31.6946 64.9127 31.6946 64.362C31.6946 64.082 31.5452 63.8767 31.2466 63.746C30.9479 63.606 30.7192 63.5033 30.5606 63.438C29.7019 63.0647 29.2726 62.612 29.2726 62.08C29.2726 61.548 29.4312 61.1187 29.7486 60.792C30.0752 60.456 30.4999 60.288 31.0226 60.288C31.7692 60.288 32.3619 60.4793 32.8006 60.862L32.2406 61.618ZM35.5737 66H34.2157V61.688H33.5577V60.582H34.2157V58.594H35.5737V60.582H36.6517V61.688H35.5737V66ZM38.0475 63.368C38.0475 63.9 38.1642 64.3387 38.3975 64.684C38.6308 65.0293 38.9528 65.202 39.3635 65.202C40.0075 65.202 40.4182 64.8847 40.5955 64.25L41.8835 64.46C41.4635 65.608 40.6235 66.182 39.3635 66.182C38.5235 66.182 37.8515 65.916 37.3475 65.384C36.8528 64.8427 36.6055 64.1427 36.6055 63.284C36.6055 62.3787 36.8435 61.6553 37.3195 61.114C37.8048 60.5633 38.4582 60.288 39.2795 60.288C40.1102 60.288 40.7542 60.5493 41.2115 61.072C41.6782 61.5853 41.9115 62.29 41.9115 63.186V63.368H38.0475ZM40.6515 62.612C40.6515 62.2293 40.5302 61.8933 40.2875 61.604C40.0542 61.3147 39.7462 61.17 39.3635 61.17C38.9902 61.17 38.6822 61.324 38.4395 61.632C38.2062 61.9307 38.0895 62.2573 38.0895 62.612H40.6515ZM44.002 61.044C44.3473 60.54 44.8887 60.288 45.626 60.288C45.8593 60.288 46.074 60.3347 46.27 60.428L46.102 61.66C45.8967 61.5293 45.6727 61.464 45.43 61.464C44.478 61.464 44.002 62.1453 44.002 63.508V66H42.644V60.47H44.002V61.044ZM54.4027 61.618C54.104 61.338 53.7913 61.198 53.4647 61.198C52.97 61.198 52.7227 61.422 52.7227 61.87C52.7227 62.122 52.9467 62.3273 53.3947 62.486C54.216 62.7847 54.7247 63.06 54.9207 63.312C55.1167 63.5547 55.2147 63.858 55.2147 64.222C55.2147 64.8193 55.0047 65.2953 54.5847 65.65C54.174 66.0047 53.6653 66.182 53.0587 66.182C52.2747 66.182 51.626 65.874 51.1127 65.258L51.7147 64.488C52.1813 64.9547 52.6107 65.188 53.0027 65.188C53.572 65.188 53.8567 64.9127 53.8567 64.362C53.8567 64.082 53.7073 63.8767 53.4087 63.746C53.11 63.606 52.8813 63.5033 52.7227 63.438C51.864 63.0647 51.4347 62.612 51.4347 62.08C51.4347 61.548 51.5933 61.1187 51.9107 60.792C52.2373 60.456 52.662 60.288 53.1847 60.288C53.9313 60.288 54.524 60.4793 54.9627 60.862L54.4027 61.618ZM57.7358 66H56.3778V61.688H55.7198V60.582H56.3778V58.594H57.7358V60.582H58.8138V61.688H57.7358V66ZM60.4896 60.47V63.466C60.4896 64.5393 60.8629 65.076 61.6096 65.076C62.3563 65.076 62.7296 64.5393 62.7296 63.466V60.47H64.0876V63.718C64.0876 65.3607 63.2616 66.182 61.6096 66.182C59.9576 66.182 59.1316 65.3607 59.1316 63.718V60.47H60.4896ZM69.0809 65.482C68.7169 65.9487 68.1429 66.182 67.3589 66.182C66.5749 66.182 65.9496 65.8833 65.4829 65.286C65.0256 64.6887 64.7969 63.9887 64.7969 63.186C64.7969 62.3833 65.0302 61.702 65.4969 61.142C65.9729 60.5727 66.5796 60.288 67.3169 60.288C68.1009 60.288 68.6796 60.5167 69.0529 60.974L69.0809 56.438H70.4389V66H69.0809V65.482ZM69.2349 63.228C69.2349 62.7427 69.0856 62.3273 68.7869 61.982C68.4882 61.6367 68.1289 61.464 67.7089 61.464C67.2889 61.464 66.9249 61.6367 66.6169 61.982C66.3182 62.318 66.1689 62.738 66.1689 63.242C66.1689 63.7367 66.3136 64.1567 66.6029 64.502C66.9016 64.838 67.2749 65.006 67.7229 65.006C68.1709 65.006 68.5349 64.8427 68.8149 64.516C69.0949 64.18 69.2349 63.7507 69.2349 63.228ZM72.61 63.368C72.61 63.9 72.7267 64.3387 72.96 64.684C73.1933 65.0293 73.5153 65.202 73.926 65.202C74.57 65.202 74.9807 64.8847 75.158 64.25L76.446 64.46C76.026 65.608 75.186 66.182 73.926 66.182C73.086 66.182 72.414 65.916 71.91 65.384C71.4153 64.8427 71.168 64.1427 71.168 63.284C71.168 62.3787 71.406 61.6553 71.882 61.114C72.3673 60.5633 73.0207 60.288 73.842 60.288C74.6727 60.288 75.3167 60.5493 75.774 61.072C76.2407 61.5853 76.474 62.29 76.474 63.186V63.368H72.61ZM75.214 62.612C75.214 62.2293 75.0927 61.8933 74.85 61.604C74.6167 61.3147 74.3087 61.17 73.926 61.17C73.5527 61.17 73.2447 61.324 73.002 61.632C72.7687 61.9307 72.652 62.2573 72.652 62.612H75.214ZM78.5645 60.974C78.9472 60.5167 79.5118 60.288 80.2585 60.288C81.5278 60.288 82.1625 61.0673 82.1625 62.626V66H80.8185V63.074C80.8185 61.9073 80.4592 61.324 79.7405 61.324C78.9565 61.324 78.5645 61.9493 78.5645 63.2V66H77.2065V60.47H78.5645V60.974ZM84.9565 66H83.5985V61.688H82.9405V60.582H83.5985V58.594H84.9565V60.582H86.0345V61.688H84.9565V66ZM96.2921 66H94.9621V65.496C94.5701 65.9533 93.9868 66.182 93.2121 66.182C92.4374 66.182 91.8168 65.8833 91.3501 65.286C90.8928 64.6887 90.6641 63.9887 90.6641 63.186C90.6641 62.3833 90.8974 61.702 91.3641 61.142C91.8401 60.5727 92.4468 60.288 93.1841 60.288C93.9681 60.288 94.5608 60.5213 94.9621 60.988V60.47H96.2921V66ZM95.1161 63.228C95.1161 62.7147 94.9714 62.2947 94.6821 61.968C94.3928 61.632 94.0194 61.464 93.5621 61.464C93.1141 61.464 92.7454 61.6273 92.4561 61.954C92.1761 62.2713 92.0361 62.696 92.0361 63.228C92.0361 63.76 92.1808 64.1893 92.4701 64.516C92.7594 64.8427 93.1328 65.006 93.5901 65.006C94.0474 65.006 94.4161 64.8473 94.6961 64.53C94.9761 64.2127 95.1161 63.7787 95.1161 63.228ZM99.0932 66H97.7352V61.688H97.0772V60.582H97.7352V58.594H99.0932V60.582H100.171V61.688H99.0932V66ZM106.859 66H105.501V61.688H104.843V60.582H105.501V58.594H106.859V60.582H107.937V61.688H106.859V66ZM109.641 56.438V60.932C109.995 60.5027 110.56 60.288 111.335 60.288C111.913 60.288 112.375 60.512 112.721 60.96C113.066 61.408 113.239 61.9633 113.239 62.626V66H111.895V63.074C111.895 61.9073 111.535 61.324 110.817 61.324C110.033 61.324 109.641 61.968 109.641 63.256V66H108.283V56.438H109.641ZM115.417 63.368C115.417 63.9 115.533 64.3387 115.767 64.684C116 65.0293 116.322 65.202 116.733 65.202C117.377 65.202 117.787 64.8847 117.965 64.25L119.253 64.46C118.833 65.608 117.993 66.182 116.733 66.182C115.893 66.182 115.221 65.916 114.717 65.384C114.222 64.8427 113.975 64.1427 113.975 63.284C113.975 62.3787 114.213 61.6553 114.689 61.114C115.174 60.5633 115.827 60.288 116.649 60.288C117.479 60.288 118.123 60.5493 118.581 61.072C119.047 61.5853 119.281 62.29 119.281 63.186V63.368H115.417ZM118.021 62.612C118.021 62.2293 117.899 61.8933 117.657 61.604C117.423 61.3147 117.115 61.17 116.733 61.17C116.359 61.17 116.051 61.324 115.809 61.632C115.575 61.9307 115.459 62.2573 115.459 62.612H118.021ZM124.689 57.502H126.131V62.262C126.131 64.0913 126.705 65.006 127.853 65.006C129.001 65.006 129.575 64.0913 129.575 62.262V57.502H131.003V62.584C131.003 65.0107 129.948 66.224 127.839 66.224C125.739 66.224 124.689 65.0107 124.689 62.584V57.502ZM133.484 60.974C133.867 60.5167 134.432 60.288 135.178 60.288C136.448 60.288 137.082 61.0673 137.082 62.626V66H135.738V63.074C135.738 61.9073 135.379 61.324 134.66 61.324C133.876 61.324 133.484 61.9493 133.484 63.2V66H132.126V60.47H133.484V60.974ZM139.876 58.146C139.876 58.3607 139.797 58.5473 139.638 58.706C139.48 58.8647 139.293 58.944 139.078 58.944C138.864 58.944 138.677 58.8647 138.518 58.706C138.36 58.5473 138.28 58.3607 138.28 58.146C138.28 57.9313 138.36 57.7447 138.518 57.586C138.677 57.4273 138.864 57.348 139.078 57.348C139.293 57.348 139.48 57.4273 139.638 57.586C139.797 57.7447 139.876 57.9313 139.876 58.146ZM139.764 66H138.406V60.47H139.764V66ZM143.336 63.97L144.694 60.47H146.206L143.658 66.112H142.846L140.312 60.47H141.81L143.336 63.97ZM147.614 63.368C147.614 63.9 147.731 64.3387 147.964 64.684C148.197 65.0293 148.519 65.202 148.93 65.202C149.574 65.202 149.985 64.8847 150.162 64.25L151.45 64.46C151.03 65.608 150.19 66.182 148.93 66.182C148.09 66.182 147.418 65.916 146.914 65.384C146.419 64.8427 146.172 64.1427 146.172 63.284C146.172 62.3787 146.41 61.6553 146.886 61.114C147.371 60.5633 148.025 60.288 148.846 60.288C149.677 60.288 150.321 60.5493 150.778 61.072C151.245 61.5853 151.478 62.29 151.478 63.186V63.368H147.614ZM150.218 62.612C150.218 62.2293 150.097 61.8933 149.854 61.604C149.621 61.3147 149.313 61.17 148.93 61.17C148.557 61.17 148.249 61.324 148.006 61.632C147.773 61.9307 147.656 62.2573 147.656 62.612H150.218ZM153.568 61.044C153.914 60.54 154.455 60.288 155.192 60.288C155.426 60.288 155.64 60.3347 155.836 60.428L155.668 61.66C155.463 61.5293 155.239 61.464 154.996 61.464C154.044 61.464 153.568 62.1453 153.568 63.508V66H152.21V60.47H153.568V61.044ZM159.293 61.618C158.995 61.338 158.682 61.198 158.355 61.198C157.861 61.198 157.613 61.422 157.613 61.87C157.613 62.122 157.837 62.3273 158.285 62.486C159.107 62.7847 159.615 63.06 159.811 63.312C160.007 63.5547 160.105 63.858 160.105 64.222C160.105 64.8193 159.895 65.2953 159.475 65.65C159.065 66.0047 158.556 66.182 157.949 66.182C157.165 66.182 156.517 65.874 156.003 65.258L156.605 64.488C157.072 64.9547 157.501 65.188 157.893 65.188C158.463 65.188 158.747 64.9127 158.747 64.362C158.747 64.082 158.598 63.8767 158.299 63.746C158.001 63.606 157.772 63.5033 157.613 63.438C156.755 63.0647 156.325 62.612 156.325 62.08C156.325 61.548 156.484 61.1187 156.801 60.792C157.128 60.456 157.553 60.288 158.075 60.288C158.822 60.288 159.415 60.4793 159.853 60.862L159.293 61.618ZM162.626 58.146C162.626 58.3607 162.547 58.5473 162.388 58.706C162.23 58.8647 162.043 58.944 161.828 58.944C161.614 58.944 161.427 58.8647 161.268 58.706C161.11 58.5473 161.03 58.3607 161.03 58.146C161.03 57.9313 161.11 57.7447 161.268 57.586C161.427 57.4273 161.614 57.348 161.828 57.348C162.043 57.348 162.23 57.4273 162.388 57.586C162.547 57.7447 162.626 57.9313 162.626 58.146ZM162.514 66H161.156V60.47H162.514V66ZM165.484 66H164.126V61.688H163.468V60.582H164.126V58.594H165.484V60.582H166.562V61.688H165.484V66ZM166.264 60.47H167.832L169.274 63.788L170.786 60.47H172.326L168.406 68.31H166.894L168.602 65.146L166.264 60.47ZM182.881 63.228C182.881 64.096 182.615 64.8053 182.083 65.356C181.551 65.9067 180.851 66.182 179.983 66.182C179.124 66.182 178.424 65.9067 177.883 65.356C177.341 64.8053 177.071 64.1007 177.071 63.242C177.071 62.374 177.337 61.6647 177.869 61.114C178.401 60.5633 179.101 60.288 179.969 60.288C180.837 60.288 181.537 60.5633 182.069 61.114C182.61 61.6553 182.881 62.36 182.881 63.228ZM178.443 63.256C178.443 63.7693 178.587 64.1893 178.877 64.516C179.166 64.8427 179.539 65.006 179.997 65.006C180.454 65.006 180.818 64.8333 181.089 64.488C181.369 64.1333 181.509 63.718 181.509 63.242C181.509 62.7567 181.369 62.3413 181.089 61.996C180.809 61.6413 180.44 61.464 179.983 61.464C179.535 61.464 179.166 61.632 178.877 61.968C178.587 62.304 178.443 62.7333 178.443 63.256ZM185.154 66H183.796V61.688H183.152V60.582H183.796V58.846C183.796 57.1567 184.454 56.312 185.77 56.312C186.041 56.312 186.293 56.3727 186.526 56.494V57.67C186.284 57.5487 186.069 57.488 185.882 57.488C185.63 57.488 185.444 57.5813 185.322 57.768C185.21 57.9453 185.154 58.3793 185.154 59.07V60.582H186.526V61.688H185.154V66ZM198.176 60.274L196.048 66.112H195.698L193.696 60.246L192.73 66H191.288L192.716 57.278H193.78L195.992 63.116L198.106 57.278H199.184L200.458 66H199.016L198.176 60.274ZM202.808 58.146C202.808 58.3607 202.729 58.5473 202.57 58.706C202.411 58.8647 202.225 58.944 202.01 58.944C201.795 58.944 201.609 58.8647 201.45 58.706C201.291 58.5473 201.212 58.3607 201.212 58.146C201.212 57.9313 201.291 57.7447 201.45 57.586C201.609 57.4273 201.795 57.348 202.01 57.348C202.225 57.348 202.411 57.4273 202.57 57.586C202.729 57.7447 202.808 57.9313 202.808 58.146ZM202.696 66H201.338V60.47H202.696V66ZM207.765 61.912C207.42 61.5667 207.033 61.394 206.603 61.394C206.099 61.394 205.703 61.576 205.413 61.94C205.124 62.304 204.979 62.752 204.979 63.284C204.979 63.8067 205.143 64.236 205.469 64.572C205.796 64.908 206.193 65.076 206.659 65.076C207.061 65.076 207.429 64.8987 207.765 64.544V65.846C207.373 66.07 206.921 66.182 206.407 66.182C205.605 66.182 204.937 65.8973 204.405 65.328C203.873 64.7587 203.607 64.0633 203.607 63.242C203.607 62.4207 203.878 61.7253 204.419 61.156C204.97 60.5773 205.656 60.288 206.477 60.288C206.963 60.288 207.392 60.4047 207.765 60.638V61.912ZM210.102 56.438V60.932C210.456 60.5027 211.021 60.288 211.796 60.288C212.374 60.288 212.836 60.512 213.182 60.96C213.527 61.408 213.7 61.9633 213.7 62.626V66H212.356V63.074C212.356 61.9073 211.996 61.324 211.278 61.324C210.494 61.324 210.102 61.968 210.102 63.256V66H208.744V56.438H210.102ZM216.494 58.146C216.494 58.3607 216.414 58.5473 216.256 58.706C216.097 58.8647 215.91 58.944 215.696 58.944C215.481 58.944 215.294 58.8647 215.136 58.706C214.977 58.5473 214.898 58.3607 214.898 58.146C214.898 57.9313 214.977 57.7447 215.136 57.586C215.294 57.4273 215.481 57.348 215.696 57.348C215.91 57.348 216.097 57.4273 216.256 57.586C216.414 57.7447 216.494 57.9313 216.494 58.146ZM216.382 66H215.024V60.47H216.382V66ZM222.949 65.524C222.949 67.4187 222.067 68.366 220.303 68.366C219.519 68.366 218.856 68.1513 218.315 67.722C217.774 67.302 217.503 66.7513 217.503 66.07H218.945C218.945 66.3407 219.08 66.6067 219.351 66.868C219.622 67.1293 219.925 67.26 220.261 67.26C221.148 67.26 221.591 66.728 221.591 65.664V65.314C221.208 65.7993 220.625 66.042 219.841 66.042C219.066 66.042 218.455 65.7713 218.007 65.23C217.568 64.6887 217.349 64.026 217.349 63.242C217.349 62.3927 217.587 61.6833 218.063 61.114C218.539 60.5447 219.155 60.26 219.911 60.26C220.676 60.26 221.236 60.498 221.591 60.974V60.442H222.949V65.524ZM221.787 63.116C221.787 62.612 221.647 62.206 221.367 61.898C221.087 61.59 220.718 61.436 220.261 61.436C219.804 61.436 219.43 61.604 219.141 61.94C218.861 62.276 218.721 62.7007 218.721 63.214C218.721 64.3153 219.234 64.866 220.261 64.866C220.728 64.866 221.096 64.7027 221.367 64.376C221.647 64.04 221.787 63.62 221.787 63.116ZM229.251 66H227.921V65.496C227.529 65.9533 226.946 66.182 226.171 66.182C225.396 66.182 224.776 65.8833 224.309 65.286C223.852 64.6887 223.623 63.9887 223.623 63.186C223.623 62.3833 223.856 61.702 224.323 61.142C224.799 60.5727 225.406 60.288 226.143 60.288C226.927 60.288 227.52 60.5213 227.921 60.988V60.47H229.251V66ZM228.075 63.228C228.075 62.7147 227.93 62.2947 227.641 61.968C227.352 61.632 226.978 61.464 226.521 61.464C226.073 61.464 225.704 61.6273 225.415 61.954C225.135 62.2713 224.995 62.696 224.995 63.228C224.995 63.76 225.14 64.1893 225.429 64.516C225.718 64.8427 226.092 65.006 226.549 65.006C227.006 65.006 227.375 64.8473 227.655 64.53C227.935 64.2127 228.075 63.7787 228.075 63.228ZM231.744 60.974C232.127 60.5167 232.692 60.288 233.438 60.288C234.708 60.288 235.342 61.0673 235.342 62.626V66H233.998V63.074C233.998 61.9073 233.639 61.324 232.92 61.324C232.136 61.324 231.744 61.9493 231.744 63.2V66H230.386V60.47H231.744V60.974ZM243.246 64.082L244.716 60.288H245.206L246.746 64.068L248.118 60.47H249.616L247.04 66.112H246.354L245.08 62.57L243.624 66.112H242.924L240.39 60.47H241.888L243.246 64.082ZM251.63 58.146C251.63 58.3607 251.551 58.5473 251.392 58.706C251.234 58.8647 251.047 58.944 250.832 58.944C250.618 58.944 250.431 58.8647 250.272 58.706C250.114 58.5473 250.034 58.3607 250.034 58.146C250.034 57.9313 250.114 57.7447 250.272 57.586C250.431 57.4273 250.618 57.348 250.832 57.348C251.047 57.348 251.234 57.4273 251.392 57.586C251.551 57.7447 251.63 57.9313 251.63 58.146ZM251.518 66H250.16V60.47H251.518V66ZM254.488 66H253.13V61.688H252.472V60.582H253.13V58.594H254.488V60.582H255.566V61.688H254.488V66ZM257.27 56.438V60.932C257.624 60.5027 258.189 60.288 258.964 60.288C259.542 60.288 260.004 60.512 260.35 60.96C260.695 61.408 260.868 61.9633 260.868 62.626V66H259.524V63.074C259.524 61.9073 259.164 61.324 258.446 61.324C257.662 61.324 257.27 61.968 257.27 63.256V66H255.912V56.438H257.27ZM271.907 66H270.577V65.496C270.185 65.9533 269.602 66.182 268.827 66.182C268.053 66.182 267.432 65.8833 266.965 65.286C266.508 64.6887 266.279 63.9887 266.279 63.186C266.279 62.3833 266.513 61.702 266.979 61.142C267.455 60.5727 268.062 60.288 268.799 60.288C269.583 60.288 270.176 60.5213 270.577 60.988V60.47H271.907V66ZM270.731 63.228C270.731 62.7147 270.587 62.2947 270.297 61.968C270.008 61.632 269.635 61.464 269.177 61.464C268.729 61.464 268.361 61.6273 268.071 61.954C267.791 62.2713 267.651 62.696 267.651 63.228C267.651 63.76 267.796 64.1893 268.085 64.516C268.375 64.8427 268.748 65.006 269.205 65.006C269.663 65.006 270.031 64.8473 270.311 64.53C270.591 64.2127 270.731 63.7787 270.731 63.228ZM274.4 60.974C274.783 60.5167 275.348 60.288 276.094 60.288C277.364 60.288 277.998 61.0673 277.998 62.626V66H276.654V63.074C276.654 61.9073 276.295 61.324 275.576 61.324C274.792 61.324 274.4 61.9493 274.4 63.2V66H273.042V60.47H274.4V60.974ZM6.796 80H5.466V79.496C5.074 79.9533 4.49067 80.182 3.716 80.182C2.94133 80.182 2.32067 79.8833 1.854 79.286C1.39667 78.6887 1.168 77.9887 1.168 77.186C1.168 76.3833 1.40133 75.702 1.868 75.142C2.344 74.5727 2.95067 74.288 3.688 74.288C4.472 74.288 5.06467 74.5213 5.466 74.988V74.47H6.796V80ZM5.62 77.228C5.62 76.7147 5.47533 76.2947 5.186 75.968C4.89667 75.632 4.52333 75.464 4.066 75.464C3.618 75.464 3.24933 75.6273 2.96 75.954C2.68 76.2713 2.54 76.696 2.54 77.228C2.54 77.76 2.68467 78.1893 2.974 78.516C3.26333 78.8427 3.63667 79.006 4.094 79.006C4.55133 79.006 4.92 78.8473 5.2 78.53C5.48 78.2127 5.62 77.7787 5.62 77.228ZM11.6971 75.912C11.3518 75.5667 10.9644 75.394 10.5351 75.394C10.0311 75.394 9.63443 75.576 9.34509 75.94C9.05576 76.304 8.91109 76.752 8.91109 77.284C8.91109 77.8067 9.07443 78.236 9.40109 78.572C9.72776 78.908 10.1244 79.076 10.5911 79.076C10.9924 79.076 11.3611 78.8987 11.6971 78.544V79.846C11.3051 80.07 10.8524 80.182 10.3391 80.182C9.53643 80.182 8.86909 79.8973 8.33709 79.328C7.80509 78.7587 7.53909 78.0633 7.53909 77.242C7.53909 76.4207 7.80976 75.7253 8.35109 75.156C8.90176 74.5773 9.58776 74.288 10.4091 74.288C10.8944 74.288 11.3238 74.4047 11.6971 74.638V75.912ZM17.9112 80H16.5812V79.496C16.1892 79.9533 15.6059 80.182 14.8312 80.182C14.0566 80.182 13.4359 79.8833 12.9692 79.286C12.5119 78.6887 12.2832 77.9887 12.2832 77.186C12.2832 76.3833 12.5166 75.702 12.9832 75.142C13.4592 74.5727 14.0659 74.288 14.8032 74.288C15.5872 74.288 16.1799 74.5213 16.5812 74.988V74.47H17.9112V80ZM16.7352 77.228C16.7352 76.7147 16.5906 76.2947 16.3012 75.968C16.0119 75.632 15.6386 75.464 15.1812 75.464C14.7332 75.464 14.3646 75.6273 14.0752 75.954C13.7952 76.2713 13.6552 76.696 13.6552 77.228C13.6552 77.76 13.7999 78.1893 14.0892 78.516C14.3786 78.8427 14.7519 79.006 15.2092 79.006C15.6666 79.006 16.0352 78.8473 16.3152 78.53C16.5952 78.2127 16.7352 77.7787 16.7352 77.228ZM22.9383 79.482C22.5743 79.9487 22.0003 80.182 21.2163 80.182C20.4323 80.182 19.807 79.8833 19.3403 79.286C18.883 78.6887 18.6543 77.9887 18.6543 77.186C18.6543 76.3833 18.8877 75.702 19.3543 75.142C19.8303 74.5727 20.437 74.288 21.1743 74.288C21.9583 74.288 22.537 74.5167 22.9103 74.974L22.9383 70.438H24.2963V80H22.9383V79.482ZM23.0923 77.228C23.0923 76.7427 22.943 76.3273 22.6443 75.982C22.3457 75.6367 21.9863 75.464 21.5663 75.464C21.1463 75.464 20.7823 75.6367 20.4743 75.982C20.1757 76.318 20.0263 76.738 20.0263 77.242C20.0263 77.7367 20.171 78.1567 20.4603 78.502C20.759 78.838 21.1323 79.006 21.5803 79.006C22.0283 79.006 22.3923 78.8427 22.6723 78.516C22.9523 78.18 23.0923 77.7507 23.0923 77.228ZM26.4674 77.368C26.4674 77.9 26.5841 78.3387 26.8174 78.684C27.0508 79.0293 27.3728 79.202 27.7834 79.202C28.4274 79.202 28.8381 78.8847 29.0154 78.25L30.3034 78.46C29.8834 79.608 29.0434 80.182 27.7834 80.182C26.9434 80.182 26.2714 79.916 25.7674 79.384C25.2728 78.8427 25.0254 78.1427 25.0254 77.284C25.0254 76.3787 25.2634 75.6553 25.7394 75.114C26.2248 74.5633 26.8781 74.288 27.6994 74.288C28.5301 74.288 29.1741 74.5493 29.6314 75.072C30.0981 75.5853 30.3314 76.29 30.3314 77.186V77.368H26.4674ZM29.0714 76.612C29.0714 76.2293 28.9501 75.8933 28.7074 75.604C28.4741 75.3147 28.1661 75.17 27.7834 75.17C27.4101 75.17 27.1021 75.324 26.8594 75.632C26.6261 75.9307 26.5094 76.2573 26.5094 76.612H29.0714ZM32.4219 74.96C32.7672 74.512 33.2992 74.288 34.0179 74.288C34.6432 74.288 35.1379 74.5773 35.5019 75.156C35.8566 74.5773 36.4306 74.288 37.2239 74.288C38.3906 74.288 38.9739 75.044 38.9739 76.556V80H37.6299V77.088C37.6299 75.912 37.3079 75.324 36.6639 75.324C36.0199 75.324 35.6979 75.9773 35.6979 77.284V80H34.3399V77.2C34.3399 75.9493 34.0552 75.324 33.4859 75.324C32.7766 75.324 32.4219 75.9773 32.4219 77.284V80H31.0639V74.47H32.4219V74.96ZM41.7807 72.146C41.7807 72.3607 41.7014 72.5473 41.5427 72.706C41.384 72.8647 41.1974 72.944 40.9827 72.944C40.768 72.944 40.5814 72.8647 40.4227 72.706C40.264 72.5473 40.1847 72.3607 40.1847 72.146C40.1847 71.9313 40.264 71.7447 40.4227 71.586C40.5814 71.4273 40.768 71.348 40.9827 71.348C41.1974 71.348 41.384 71.4273 41.5427 71.586C41.7014 71.7447 41.7807 71.9313 41.7807 72.146ZM41.6687 80H40.3107V74.47H41.6687V80ZM46.7381 75.912C46.3928 75.5667 46.0054 75.394 45.5761 75.394C45.0721 75.394 44.6754 75.576 44.3861 75.94C44.0968 76.304 43.9521 76.752 43.9521 77.284C43.9521 77.8067 44.1154 78.236 44.4421 78.572C44.7688 78.908 45.1654 79.076 45.6321 79.076C46.0334 79.076 46.4021 78.8987 46.7381 78.544V79.846C46.3461 80.07 45.8934 80.182 45.3801 80.182C44.5774 80.182 43.9101 79.8973 43.3781 79.328C42.8461 78.7587 42.5801 78.0633 42.5801 77.242C42.5801 76.4207 42.8508 75.7253 43.3921 75.156C43.9428 74.5773 44.6288 74.288 45.4501 74.288C45.9354 74.288 46.3648 74.4047 46.7381 74.638V75.912ZM52.392 70.438H53.75V74.974C54.142 74.5167 54.7254 74.288 55.5 74.288C56.228 74.288 56.83 74.5773 57.306 75.156C57.7914 75.7347 58.034 76.416 58.034 77.2C58.034 78.0493 57.796 78.7587 57.32 79.328C56.844 79.8973 56.228 80.182 55.472 80.182C54.66 80.182 54.0954 79.9487 53.778 79.482L53.75 80H52.392V70.438ZM56.648 77.228C56.648 76.7613 56.5034 76.3507 56.214 75.996C55.9247 75.6413 55.556 75.464 55.108 75.464C54.66 75.464 54.296 75.6413 54.016 75.996C53.736 76.3413 53.596 76.7567 53.596 77.242C53.596 77.718 53.7407 78.1333 54.03 78.488C54.3287 78.8333 54.6927 79.006 55.122 79.006C55.5887 79.006 55.9574 78.838 56.228 78.502C56.508 78.1567 56.648 77.732 56.648 77.228ZM63.9991 80H62.6691V79.496C62.2771 79.9533 61.6938 80.182 60.9191 80.182C60.1445 80.182 59.5238 79.8833 59.0571 79.286C58.5998 78.6887 58.3711 77.9887 58.3711 77.186C58.3711 76.3833 58.6045 75.702 59.0711 75.142C59.5471 74.5727 60.1538 74.288 60.8911 74.288C61.6751 74.288 62.2678 74.5213 62.6691 74.988V74.47H63.9991V80ZM62.8231 77.228C62.8231 76.7147 62.6785 76.2947 62.3891 75.968C62.0998 75.632 61.7265 75.464 61.2691 75.464C60.8211 75.464 60.4525 75.6273 60.1631 75.954C59.8831 76.2713 59.7431 76.696 59.7431 77.228C59.7431 77.76 59.8878 78.1893 60.1771 78.516C60.4665 78.8427 60.8398 79.006 61.2971 79.006C61.7545 79.006 62.1231 78.8473 62.4031 78.53C62.6831 78.2127 62.8231 77.7787 62.8231 77.228ZM68.9002 75.912C68.5549 75.5667 68.1676 75.394 67.7382 75.394C67.2342 75.394 66.8376 75.576 66.5482 75.94C66.2589 76.304 66.1142 76.752 66.1142 77.284C66.1142 77.8067 66.2776 78.236 66.6042 78.572C66.9309 78.908 67.3276 79.076 67.7942 79.076C68.1956 79.076 68.5642 78.8987 68.9002 78.544V79.846C68.5082 80.07 68.0556 80.182 67.5422 80.182C66.7396 80.182 66.0722 79.8973 65.5402 79.328C65.0082 78.7587 64.7422 78.0633 64.7422 77.242C64.7422 76.4207 65.0129 75.7253 65.5542 75.156C66.1049 74.5773 66.7909 74.288 67.6122 74.288C68.0976 74.288 68.5269 74.4047 68.9002 74.638V75.912ZM71.3204 76.794L73.2524 74.47H75.0724L72.7484 76.906L75.2544 80H73.4064L71.3484 77.312L71.3204 80H69.9624V70.438H71.3204V76.794ZM81.0623 79.524C81.0623 81.4187 80.1803 82.366 78.4163 82.366C77.6323 82.366 76.9696 82.1513 76.4283 81.722C75.8869 81.302 75.6163 80.7513 75.6163 80.07H77.0583C77.0583 80.3407 77.1936 80.6067 77.4643 80.868C77.7349 81.1293 78.0383 81.26 78.3743 81.26C79.2609 81.26 79.7043 80.728 79.7043 79.664V79.314C79.3216 79.7993 78.7383 80.042 77.9543 80.042C77.1796 80.042 76.5683 79.7713 76.1203 79.23C75.6816 78.6887 75.4623 78.026 75.4623 77.242C75.4623 76.3927 75.7003 75.6833 76.1763 75.114C76.6523 74.5447 77.2683 74.26 78.0243 74.26C78.7896 74.26 79.3496 74.498 79.7043 74.974V74.442H81.0623V79.524ZM79.9003 77.116C79.9003 76.612 79.7603 76.206 79.4803 75.898C79.2003 75.59 78.8316 75.436 78.3743 75.436C77.9169 75.436 77.5436 75.604 77.2543 75.94C76.9743 76.276 76.8343 76.7007 76.8343 77.214C76.8343 78.3153 77.3476 78.866 78.3743 78.866C78.8409 78.866 79.2096 78.7027 79.4803 78.376C79.7603 78.04 79.9003 77.62 79.9003 77.116ZM83.4864 75.044C83.8317 74.54 84.373 74.288 85.1104 74.288C85.3437 74.288 85.5584 74.3347 85.7544 74.428L85.5864 75.66C85.381 75.5293 85.157 75.464 84.9144 75.464C83.9624 75.464 83.4864 76.1453 83.4864 77.508V80H82.1284V74.47H83.4864V75.044ZM91.6893 77.228C91.6893 78.096 91.4233 78.8053 90.8913 79.356C90.3593 79.9067 89.6593 80.182 88.7913 80.182C87.9326 80.182 87.2326 79.9067 86.6913 79.356C86.1499 78.8053 85.8793 78.1007 85.8793 77.242C85.8793 76.374 86.1453 75.6647 86.6773 75.114C87.2093 74.5633 87.9093 74.288 88.7773 74.288C89.6453 74.288 90.3453 74.5633 90.8773 75.114C91.4186 75.6553 91.6893 76.36 91.6893 77.228ZM87.2513 77.256C87.2513 77.7693 87.3959 78.1893 87.6853 78.516C87.9746 78.8427 88.3479 79.006 88.8053 79.006C89.2626 79.006 89.6266 78.8333 89.8973 78.488C90.1773 78.1333 90.3173 77.718 90.3173 77.242C90.3173 76.7567 90.1773 76.3413 89.8973 75.996C89.6173 75.6413 89.2486 75.464 88.7913 75.464C88.3433 75.464 87.9746 75.632 87.6853 75.968C87.3959 76.304 87.2513 76.7333 87.2513 77.256ZM93.767 74.47V77.466C93.767 78.5393 94.1403 79.076 94.887 79.076C95.6336 79.076 96.007 78.5393 96.007 77.466V74.47H97.365V77.718C97.365 79.3607 96.539 80.182 94.887 80.182C93.235 80.182 92.409 79.3607 92.409 77.718V74.47H93.767ZM99.8243 74.974C100.207 74.5167 100.772 74.288 101.518 74.288C102.788 74.288 103.422 75.0673 103.422 76.626V80H102.078V77.074C102.078 75.9073 101.719 75.324 101 75.324C100.216 75.324 99.8243 75.9493 99.8243 77.2V80H98.4663V74.47H99.8243V74.974ZM108.442 79.482C108.078 79.9487 107.504 80.182 106.72 80.182C105.936 80.182 105.311 79.8833 104.844 79.286C104.387 78.6887 104.158 77.9887 104.158 77.186C104.158 76.3833 104.392 75.702 104.858 75.142C105.334 74.5727 105.941 74.288 106.678 74.288C107.462 74.288 108.041 74.5167 108.414 74.974L108.442 70.438H109.8V80H108.442V79.482ZM108.596 77.228C108.596 76.7427 108.447 76.3273 108.148 75.982C107.85 75.6367 107.49 75.464 107.07 75.464C106.65 75.464 106.286 75.6367 105.978 75.982C105.68 76.318 105.53 76.738 105.53 77.242C105.53 77.7367 105.675 78.1567 105.964 78.502C106.263 78.838 106.636 79.006 107.084 79.006C107.532 79.006 107.896 78.8427 108.176 78.516C108.456 78.18 108.596 77.7507 108.596 77.228ZM117.263 72.146C117.263 72.3607 117.184 72.5473 117.025 72.706C116.866 72.8647 116.68 72.944 116.465 72.944C116.25 72.944 116.064 72.8647 115.905 72.706C115.746 72.5473 115.667 72.3607 115.667 72.146C115.667 71.9313 115.746 71.7447 115.905 71.586C116.064 71.4273 116.25 71.348 116.465 71.348C116.68 71.348 116.866 71.4273 117.025 71.586C117.184 71.7447 117.263 71.9313 117.263 72.146ZM117.151 80H115.793V74.47H117.151V80ZM119.813 74.974C120.195 74.5167 120.76 74.288 121.507 74.288C122.776 74.288 123.411 75.0673 123.411 76.626V80H122.067V77.074C122.067 75.9073 121.707 75.324 120.989 75.324C120.205 75.324 119.813 75.9493 119.813 77.2V80H118.455V74.47H119.813V74.974ZM129.214 70.438H130.572V74.974C130.964 74.5167 131.548 74.288 132.322 74.288C133.05 74.288 133.652 74.5773 134.128 75.156C134.614 75.7347 134.856 76.416 134.856 77.2C134.856 78.0493 134.618 78.7587 134.142 79.328C133.666 79.8973 133.05 80.182 132.294 80.182C131.482 80.182 130.918 79.9487 130.6 79.482L130.572 80H129.214V70.438ZM133.47 77.228C133.47 76.7613 133.326 76.3507 133.036 75.996C132.747 75.6413 132.378 75.464 131.93 75.464C131.482 75.464 131.118 75.6413 130.838 75.996C130.558 76.3413 130.418 76.7567 130.418 77.242C130.418 77.718 130.563 78.1333 130.852 78.488C131.151 78.8333 131.515 79.006 131.944 79.006C132.411 79.006 132.78 78.838 133.05 78.502C133.33 78.1567 133.47 77.732 133.47 77.228ZM141.017 77.228C141.017 78.096 140.751 78.8053 140.219 79.356C139.687 79.9067 138.987 80.182 138.119 80.182C137.261 80.182 136.561 79.9067 136.019 79.356C135.478 78.8053 135.207 78.1007 135.207 77.242C135.207 76.374 135.473 75.6647 136.005 75.114C136.537 74.5633 137.237 74.288 138.105 74.288C138.973 74.288 139.673 74.5633 140.205 75.114C140.747 75.6553 141.017 76.36 141.017 77.228ZM136.579 77.256C136.579 77.7693 136.724 78.1893 137.013 78.516C137.303 78.8427 137.676 79.006 138.133 79.006C138.591 79.006 138.955 78.8333 139.225 78.488C139.505 78.1333 139.645 77.718 139.645 77.242C139.645 76.7567 139.505 76.3413 139.225 75.996C138.945 75.6413 138.577 75.464 138.119 75.464C137.671 75.464 137.303 75.632 137.013 75.968C136.724 76.304 136.579 76.7333 136.579 77.256ZM143.431 80H142.073V75.688H141.415V74.582H142.073V72.594H143.431V74.582H144.509V75.688H143.431V80ZM146.213 70.438V74.932C146.568 74.5027 147.132 74.288 147.907 74.288C148.486 74.288 148.948 74.512 149.293 74.96C149.638 75.408 149.811 75.9633 149.811 76.626V80H148.467V77.074C148.467 75.9073 148.108 75.324 147.389 75.324C146.605 75.324 146.213 75.968 146.213 77.256V80H144.855V70.438H146.213ZM155.657 71.502H158.037C159.25 71.502 160.235 71.9033 160.991 72.706C161.756 73.5087 162.139 74.5213 162.139 75.744C162.139 76.9667 161.751 77.984 160.977 78.796C160.211 79.5987 159.227 80 158.023 80H155.657V71.502ZM157.099 78.698H157.589C159.623 78.698 160.641 77.718 160.641 75.758C160.641 73.7887 159.623 72.804 157.589 72.804H157.099V78.698ZM168.124 80H166.794V79.496C166.402 79.9533 165.819 80.182 165.044 80.182C164.269 80.182 163.649 79.8833 163.182 79.286C162.725 78.6887 162.496 77.9887 162.496 77.186C162.496 76.3833 162.729 75.702 163.196 75.142C163.672 74.5727 164.279 74.288 165.016 74.288C165.8 74.288 166.393 74.5213 166.794 74.988V74.47H168.124V80ZM166.948 77.228C166.948 76.7147 166.803 76.2947 166.514 75.968C166.225 75.632 165.851 75.464 165.394 75.464C164.946 75.464 164.577 75.6273 164.288 75.954C164.008 76.2713 163.868 76.696 163.868 77.228C163.868 77.76 164.013 78.1893 164.302 78.516C164.591 78.8427 164.965 79.006 165.422 79.006C165.879 79.006 166.248 78.8473 166.528 78.53C166.808 78.2127 166.948 77.7787 166.948 77.228ZM170.925 80H169.567V75.688H168.909V74.582H169.567V72.594H170.925V74.582H172.003V75.688H170.925V80ZM177.585 80H176.255V79.496C175.863 79.9533 175.28 80.182 174.505 80.182C173.73 80.182 173.11 79.8833 172.643 79.286C172.186 78.6887 171.957 77.9887 171.957 77.186C171.957 76.3833 172.19 75.702 172.657 75.142C173.133 74.5727 173.74 74.288 174.477 74.288C175.261 74.288 175.854 74.5213 176.255 74.988V74.47H177.585V80ZM176.409 77.228C176.409 76.7147 176.264 76.2947 175.975 75.968C175.686 75.632 175.312 75.464 174.855 75.464C174.407 75.464 174.038 75.6273 173.749 75.954C173.469 76.2713 173.329 76.696 173.329 77.228C173.329 77.76 173.474 78.1893 173.763 78.516C174.052 78.8427 174.426 79.006 174.883 79.006C175.34 79.006 175.709 78.8473 175.989 78.53C176.269 78.2127 176.409 77.7787 176.409 77.228ZM187.554 73.224C187.19 72.7107 186.728 72.454 186.168 72.454C185.813 72.454 185.515 72.5613 185.272 72.776C185.029 72.9907 184.908 73.28 184.908 73.644C184.908 73.9987 185.347 74.4233 186.224 74.918C187.111 75.4127 187.559 75.66 187.568 75.66C188.193 76.1267 188.506 76.6773 188.506 77.312C188.506 78.18 188.254 78.8847 187.75 79.426C187.255 79.958 186.574 80.224 185.706 80.224C184.605 80.224 183.737 79.6733 183.102 78.572L184.012 77.676C184.133 78.0027 184.357 78.3013 184.684 78.572C185.011 78.8427 185.347 78.978 185.692 78.978C186.103 78.978 186.425 78.838 186.658 78.558C186.901 78.278 187.022 77.9373 187.022 77.536C187.022 77.2467 186.933 76.9947 186.756 76.78C186.579 76.556 185.977 76.22 184.95 75.772C183.933 75.3147 183.424 74.666 183.424 73.826C183.424 73.1073 183.657 72.5053 184.124 72.02C184.6 71.5253 185.193 71.278 185.902 71.278C186.882 71.278 187.657 71.5953 188.226 72.23L187.554 73.224ZM193.082 75.912C192.737 75.5667 192.349 75.394 191.92 75.394C191.416 75.394 191.019 75.576 190.73 75.94C190.441 76.304 190.296 76.752 190.296 77.284C190.296 77.8067 190.459 78.236 190.786 78.572C191.113 78.908 191.509 79.076 191.976 79.076C192.377 79.076 192.746 78.8987 193.082 78.544V79.846C192.69 80.07 192.237 80.182 191.724 80.182C190.921 80.182 190.254 79.8973 189.722 79.328C189.19 78.7587 188.924 78.0633 188.924 77.242C188.924 76.4207 189.195 75.7253 189.736 75.156C190.287 74.5773 190.973 74.288 191.794 74.288C192.279 74.288 192.709 74.4047 193.082 74.638V75.912ZM195.726 72.146C195.726 72.3607 195.647 72.5473 195.488 72.706C195.329 72.8647 195.143 72.944 194.928 72.944C194.713 72.944 194.527 72.8647 194.368 72.706C194.209 72.5473 194.13 72.3607 194.13 72.146C194.13 71.9313 194.209 71.7447 194.368 71.586C194.527 71.4273 194.713 71.348 194.928 71.348C195.143 71.348 195.329 71.4273 195.488 71.586C195.647 71.7447 195.726 71.9313 195.726 72.146ZM195.614 80H194.256V74.47H195.614V80ZM197.967 77.368C197.967 77.9 198.084 78.3387 198.317 78.684C198.551 79.0293 198.873 79.202 199.283 79.202C199.927 79.202 200.338 78.8847 200.515 78.25L201.803 78.46C201.383 79.608 200.543 80.182 199.283 80.182C198.443 80.182 197.771 79.916 197.267 79.384C196.773 78.8427 196.525 78.1427 196.525 77.284C196.525 76.3787 196.763 75.6553 197.239 75.114C197.725 74.5633 198.378 74.288 199.199 74.288C200.03 74.288 200.674 74.5493 201.131 75.072C201.598 75.5853 201.831 76.29 201.831 77.186V77.368H197.967ZM200.571 76.612C200.571 76.2293 200.45 75.8933 200.207 75.604C199.974 75.3147 199.666 75.17 199.283 75.17C198.91 75.17 198.602 75.324 198.359 75.632C198.126 75.9307 198.009 76.2573 198.009 76.612H200.571ZM203.922 74.974C204.305 74.5167 204.869 74.288 205.616 74.288C206.885 74.288 207.52 75.0673 207.52 76.626V80H206.176V77.074C206.176 75.9073 205.817 75.324 205.098 75.324C204.314 75.324 203.922 75.9493 203.922 77.2V80H202.564V74.47H203.922V74.974ZM212.414 75.912C212.069 75.5667 211.681 75.394 211.252 75.394C210.748 75.394 210.351 75.576 210.062 75.94C209.773 76.304 209.628 76.752 209.628 77.284C209.628 77.8067 209.791 78.236 210.118 78.572C210.445 78.908 210.841 79.076 211.308 79.076C211.709 79.076 212.078 78.8987 212.414 78.544V79.846C212.022 80.07 211.569 80.182 211.056 80.182C210.253 80.182 209.586 79.8973 209.054 79.328C208.522 78.7587 208.256 78.0633 208.256 77.242C208.256 76.4207 208.527 75.7253 209.068 75.156C209.619 74.5773 210.305 74.288 211.126 74.288C211.611 74.288 212.041 74.4047 212.414 74.638V75.912ZM214.442 77.368C214.442 77.9 214.559 78.3387 214.792 78.684C215.025 79.0293 215.347 79.202 215.758 79.202C216.402 79.202 216.813 78.8847 216.99 78.25L218.278 78.46C217.858 79.608 217.018 80.182 215.758 80.182C214.918 80.182 214.246 79.916 213.742 79.384C213.247 78.8427 213 78.1427 213 77.284C213 76.3787 213.238 75.6553 213.714 75.114C214.199 74.5633 214.853 74.288 215.674 74.288C216.505 74.288 217.149 74.5493 217.606 75.072C218.073 75.5853 218.306 76.29 218.306 77.186V77.368H214.442ZM217.046 76.612C217.046 76.2293 216.925 75.8933 216.682 75.604C216.449 75.3147 216.141 75.17 215.758 75.17C215.385 75.17 215.077 75.324 214.834 75.632C214.601 75.9307 214.484 76.2573 214.484 76.612H217.046ZM228.95 80H227.62V79.496C227.228 79.9533 226.645 80.182 225.87 80.182C225.096 80.182 224.475 79.8833 224.008 79.286C223.551 78.6887 223.322 77.9887 223.322 77.186C223.322 76.3833 223.556 75.702 224.022 75.142C224.498 74.5727 225.105 74.288 225.842 74.288C226.626 74.288 227.219 74.5213 227.62 74.988V74.47H228.95V80ZM227.774 77.228C227.774 76.7147 227.63 76.2947 227.34 75.968C227.051 75.632 226.678 75.464 226.22 75.464C225.772 75.464 225.404 75.6273 225.114 75.954C224.834 76.2713 224.694 76.696 224.694 77.228C224.694 77.76 224.839 78.1893 225.128 78.516C225.418 78.8427 225.791 79.006 226.248 79.006C226.706 79.006 227.074 78.8473 227.354 78.53C227.634 78.2127 227.774 77.7787 227.774 77.228ZM231.443 74.974C231.826 74.5167 232.391 74.288 233.137 74.288C234.407 74.288 235.041 75.0673 235.041 76.626V80H233.697V77.074C233.697 75.9073 233.338 75.324 232.619 75.324C231.835 75.324 231.443 75.9493 231.443 77.2V80H230.085V74.47H231.443V74.974ZM240.061 79.482C239.697 79.9487 239.123 80.182 238.339 80.182C237.555 80.182 236.93 79.8833 236.463 79.286C236.006 78.6887 235.777 77.9887 235.777 77.186C235.777 76.3833 236.011 75.702 236.477 75.142C236.953 74.5727 237.56 74.288 238.297 74.288C239.081 74.288 239.66 74.5167 240.033 74.974L240.061 70.438H241.419V80H240.061V79.482ZM240.215 77.228C240.215 76.7427 240.066 76.3273 239.767 75.982C239.469 75.6367 239.109 75.464 238.689 75.464C238.269 75.464 237.905 75.6367 237.597 75.982C237.299 76.318 237.149 76.738 237.149 77.242C237.149 77.7367 237.294 78.1567 237.583 78.502C237.882 78.838 238.255 79.006 238.703 79.006C239.151 79.006 239.515 78.8427 239.795 78.516C240.075 78.18 240.215 77.7507 240.215 77.228ZM248.812 80H247.37V71.502H248.812V80ZM251.432 74.974C251.814 74.5167 252.379 74.288 253.126 74.288C254.395 74.288 255.03 75.0673 255.03 76.626V80H253.686V77.074C253.686 75.9073 253.326 75.324 252.608 75.324C251.824 75.324 251.432 75.9493 251.432 77.2V80H250.074V74.47H251.432V74.974ZM257.824 80H256.466V75.688H255.808V74.582H256.466V72.594H257.824V74.582H258.902V75.688H257.824V80ZM260.298 77.368C260.298 77.9 260.414 78.3387 260.648 78.684C260.881 79.0293 261.203 79.202 261.614 79.202C262.258 79.202 262.668 78.8847 262.846 78.25L264.134 78.46C263.714 79.608 262.874 80.182 261.614 80.182C260.774 80.182 260.102 79.916 259.598 79.384C259.103 78.8427 258.856 78.1427 258.856 77.284C258.856 76.3787 259.094 75.6553 259.57 75.114C260.055 74.5633 260.708 74.288 261.53 74.288C262.36 74.288 263.004 74.5493 263.462 75.072C263.928 75.5853 264.162 76.29 264.162 77.186V77.368H260.298ZM262.902 76.612C262.902 76.2293 262.78 75.8933 262.538 75.604C262.304 75.3147 261.996 75.17 261.614 75.17C261.24 75.17 260.932 75.324 260.69 75.632C260.456 75.9307 260.34 76.2573 260.34 76.612H262.902ZM266.252 75.044C266.597 74.54 267.139 74.288 267.876 74.288C268.109 74.288 268.324 74.3347 268.52 74.428L268.352 75.66C268.147 75.5293 267.923 75.464 267.68 75.464C266.728 75.464 266.252 76.1453 266.252 77.508V80H264.894V74.47H266.252V75.044ZM274.259 80H272.929V79.496C272.537 79.9533 271.954 80.182 271.179 80.182C270.404 80.182 269.784 79.8833 269.317 79.286C268.86 78.6887 268.631 77.9887 268.631 77.186C268.631 76.3833 268.864 75.702 269.331 75.142C269.807 74.5727 270.414 74.288 271.151 74.288C271.935 74.288 272.528 74.5213 272.929 74.988V74.47H274.259V80ZM273.083 77.228C273.083 76.7147 272.938 76.2947 272.649 75.968C272.36 75.632 271.986 75.464 271.529 75.464C271.081 75.464 270.712 75.6273 270.423 75.954C270.143 76.2713 270.003 76.696 270.003 77.228C270.003 77.76 270.148 78.1893 270.437 78.516C270.726 78.8427 271.1 79.006 271.557 79.006C272.014 79.006 272.383 78.8473 272.663 78.53C272.943 78.2127 273.083 77.7787 273.083 77.228ZM279.16 75.912C278.815 75.5667 278.427 75.394 277.998 75.394C277.494 75.394 277.097 75.576 276.808 75.94C276.519 76.304 276.374 76.752 276.374 77.284C276.374 77.8067 276.537 78.236 276.864 78.572C277.191 78.908 277.587 79.076 278.054 79.076C278.455 79.076 278.824 78.8987 279.16 78.544V79.846C278.768 80.07 278.315 80.182 277.802 80.182C276.999 80.182 276.332 79.8973 275.8 79.328C275.268 78.7587 275.002 78.0633 275.002 77.242C275.002 76.4207 275.273 75.7253 275.814 75.156C276.365 74.5773 277.051 74.288 277.872 74.288C278.357 74.288 278.787 74.4047 279.16 74.638V75.912ZM281.804 80H280.446V75.688H279.788V74.582H280.446V72.594H281.804V74.582H282.882V75.688H281.804V80ZM284.894 72.146C284.894 72.3607 284.815 72.5473 284.656 72.706C284.497 72.8647 284.311 72.944 284.096 72.944C283.881 72.944 283.695 72.8647 283.536 72.706C283.377 72.5473 283.298 72.3607 283.298 72.146C283.298 71.9313 283.377 71.7447 283.536 71.586C283.695 71.4273 283.881 71.348 284.096 71.348C284.311 71.348 284.497 71.4273 284.656 71.586C284.815 71.7447 284.894 71.9313 284.894 72.146ZM284.782 80H283.424V74.47H284.782V80ZM288.353 77.97L289.711 74.47H291.223L288.675 80.112H287.863L285.329 74.47H286.827L288.353 77.97ZM292.631 77.368C292.631 77.9 292.748 78.3387 292.981 78.684C293.215 79.0293 293.537 79.202 293.947 79.202C294.591 79.202 295.002 78.8847 295.179 78.25L296.467 78.46C296.047 79.608 295.207 80.182 293.947 80.182C293.107 80.182 292.435 79.916 291.931 79.384C291.437 78.8427 291.189 78.1427 291.189 77.284C291.189 76.3787 291.427 75.6553 291.903 75.114C292.389 74.5633 293.042 74.288 293.863 74.288C294.694 74.288 295.338 74.5493 295.795 75.072C296.262 75.5853 296.495 76.29 296.495 77.186V77.368H292.631ZM295.235 76.612C295.235 76.2293 295.114 75.8933 294.871 75.604C294.638 75.3147 294.33 75.17 293.947 75.17C293.574 75.17 293.266 75.324 293.023 75.632C292.79 75.9307 292.673 76.2573 292.673 76.612H295.235ZM8.014 88.274L5.886 94.112H5.536L3.534 88.246L2.568 94H1.126L2.554 85.278H3.618L5.83 91.116L7.944 85.278H9.022L10.296 94H8.854L8.014 88.274ZM12.0299 91.368C12.0299 91.9 12.1466 92.3387 12.3799 92.684C12.6133 93.0293 12.9353 93.202 13.3459 93.202C13.9899 93.202 14.4006 92.8847 14.5779 92.25L15.8659 92.46C15.4459 93.608 14.6059 94.182 13.3459 94.182C12.5059 94.182 11.8339 93.916 11.3299 93.384C10.8353 92.8427 10.5879 92.1427 10.5879 91.284C10.5879 90.3787 10.8259 89.6553 11.3019 89.114C11.7873 88.5633 12.4406 88.288 13.2619 88.288C14.0926 88.288 14.7366 88.5493 15.1939 89.072C15.6606 89.5853 15.8939 90.29 15.8939 91.186V91.368H12.0299ZM14.6339 90.612C14.6339 90.2293 14.5126 89.8933 14.2699 89.604C14.0366 89.3147 13.7286 89.17 13.3459 89.17C12.9726 89.17 12.6646 89.324 12.4219 89.632C12.1886 89.9307 12.0719 90.2573 12.0719 90.612H14.6339ZM20.5184 93.482C20.1544 93.9487 19.5804 94.182 18.7964 94.182C18.0124 94.182 17.3871 93.8833 16.9204 93.286C16.4631 92.6887 16.2344 91.9887 16.2344 91.186C16.2344 90.3833 16.4677 89.702 16.9344 89.142C17.4104 88.5727 18.0171 88.288 18.7544 88.288C19.5384 88.288 20.1171 88.5167 20.4904 88.974L20.5184 84.438H21.8764V94H20.5184V93.482ZM20.6724 91.228C20.6724 90.7427 20.5231 90.3273 20.2244 89.982C19.9257 89.6367 19.5664 89.464 19.1464 89.464C18.7264 89.464 18.3624 89.6367 18.0544 89.982C17.7557 90.318 17.6064 90.738 17.6064 91.242C17.6064 91.7367 17.7511 92.1567 18.0404 92.502C18.3391 92.838 18.7124 93.006 19.1604 93.006C19.6084 93.006 19.9724 92.8427 20.2524 92.516C20.5324 92.18 20.6724 91.7507 20.6724 91.228ZM24.6635 86.146C24.6635 86.3607 24.5842 86.5473 24.4255 86.706C24.2668 86.8647 24.0802 86.944 23.8655 86.944C23.6508 86.944 23.4642 86.8647 23.3055 86.706C23.1468 86.5473 23.0675 86.3607 23.0675 86.146C23.0675 85.9313 23.1468 85.7447 23.3055 85.586C23.4642 85.4273 23.6508 85.348 23.8655 85.348C24.0802 85.348 24.2668 85.4273 24.4255 85.586C24.5842 85.7447 24.6635 85.9313 24.6635 86.146ZM24.5515 94H23.1935V88.47H24.5515V94ZM31.0909 94H29.7609V93.496C29.3689 93.9533 28.7856 94.182 28.0109 94.182C27.2363 94.182 26.6156 93.8833 26.1489 93.286C25.6916 92.6887 25.4629 91.9887 25.4629 91.186C25.4629 90.3833 25.6963 89.702 26.1629 89.142C26.6389 88.5727 27.2456 88.288 27.9829 88.288C28.7669 88.288 29.3596 88.5213 29.7609 88.988V88.47H31.0909V94ZM29.9149 91.228C29.9149 90.7147 29.7703 90.2947 29.4809 89.968C29.1916 89.632 28.8183 89.464 28.3609 89.464C27.9129 89.464 27.5443 89.6273 27.2549 89.954C26.9749 90.2713 26.8349 90.696 26.8349 91.228C26.8349 91.76 26.9796 92.1893 27.2689 92.516C27.5583 92.8427 27.9316 93.006 28.3889 93.006C28.8463 93.006 29.2149 92.8473 29.4949 92.53C29.7749 92.2127 29.9149 91.7787 29.9149 91.228ZM38.5258 92.096L37.7698 94H36.2438L39.5478 85.278H40.8358L44.0558 94H42.5158L41.8018 92.096H38.5258ZM40.1078 87.364L38.8758 90.962H41.4098L40.1078 87.364ZM45.8887 89.044C46.234 88.54 46.7754 88.288 47.5127 88.288C47.746 88.288 47.9607 88.3347 48.1567 88.428L47.9887 89.66C47.7834 89.5293 47.5594 89.464 47.3167 89.464C46.3647 89.464 45.8887 90.1453 45.8887 91.508V94H44.5307V88.47H45.8887V89.044ZM50.3256 94H48.9676V89.688H48.3096V88.582H48.9676V86.594H50.3256V88.582H51.4036V89.688H50.3256V94ZM54.7035 89.618C54.4048 89.338 54.0921 89.198 53.7655 89.198C53.2708 89.198 53.0235 89.422 53.0235 89.87C53.0235 90.122 53.2475 90.3273 53.6955 90.486C54.5168 90.7847 55.0255 91.06 55.2215 91.312C55.4175 91.5547 55.5155 91.858 55.5155 92.222C55.5155 92.8193 55.3055 93.2953 54.8855 93.65C54.4748 94.0047 53.9661 94.182 53.3595 94.182C52.5755 94.182 51.9268 93.874 51.4135 93.258L52.0155 92.488C52.4821 92.9547 52.9115 93.188 53.3035 93.188C53.8728 93.188 54.1575 92.9127 54.1575 92.362C54.1575 92.082 54.0081 91.8767 53.7095 91.746C53.4108 91.606 53.1821 91.5033 53.0235 91.438C52.1648 91.0647 51.7355 90.612 51.7355 90.08C51.7355 89.548 51.8941 89.1187 52.2115 88.792C52.5381 88.456 52.9628 88.288 53.4855 88.288C54.2321 88.288 54.8248 88.4793 55.2635 88.862L54.7035 89.618ZM58.4425 93.202C58.4425 93.482 58.3445 93.7247 58.1485 93.93C57.9619 94.126 57.7285 94.224 57.4485 94.224C57.1685 94.224 56.9305 94.126 56.7345 93.93C56.5385 93.734 56.4405 93.5007 56.4405 93.23C56.4405 92.95 56.5385 92.712 56.7345 92.516C56.9305 92.32 57.1639 92.222 57.4345 92.222C57.7145 92.222 57.9525 92.3153 58.1485 92.502C58.3445 92.6887 58.4425 92.922 58.4425 93.202ZM68.4719 87.224C68.1079 86.7107 67.6459 86.454 67.0859 86.454C66.7312 86.454 66.4326 86.5613 66.1899 86.776C65.9472 86.9907 65.8259 87.28 65.8259 87.644C65.8259 87.9987 66.2646 88.4233 67.1419 88.918C68.0286 89.4127 68.4766 89.66 68.4859 89.66C69.1112 90.1267 69.4239 90.6773 69.4239 91.312C69.4239 92.18 69.1719 92.8847 68.6679 93.426C68.1732 93.958 67.4919 94.224 66.6239 94.224C65.5226 94.224 64.6546 93.6733 64.0199 92.572L64.9299 91.676C65.0512 92.0027 65.2752 92.3013 65.6019 92.572C65.9286 92.8427 66.2646 92.978 66.6099 92.978C67.0206 92.978 67.3426 92.838 67.5759 92.558C67.8186 92.278 67.9399 91.9373 67.9399 91.536C67.9399 91.2467 67.8512 90.9947 67.6739 90.78C67.4966 90.556 66.8946 90.22 65.8679 89.772C64.8506 89.3147 64.3419 88.666 64.3419 87.826C64.3419 87.1073 64.5752 86.5053 65.0419 86.02C65.5179 85.5253 66.1106 85.278 66.8199 85.278C67.7999 85.278 68.5746 85.5953 69.1439 86.23L68.4719 87.224ZM71.2838 91.368C71.2838 91.9 71.4005 92.3387 71.6338 92.684C71.8672 93.0293 72.1892 93.202 72.5998 93.202C73.2438 93.202 73.6545 92.8847 73.8318 92.25L75.1198 92.46C74.6998 93.608 73.8598 94.182 72.5998 94.182C71.7598 94.182 71.0878 93.916 70.5838 93.384C70.0892 92.8427 69.8418 92.1427 69.8418 91.284C69.8418 90.3787 70.0798 89.6553 70.5558 89.114C71.0412 88.5633 71.6945 88.288 72.5158 88.288C73.3465 88.288 73.9905 88.5493 74.4478 89.072C74.9145 89.5853 75.1478 90.29 75.1478 91.186V91.368H71.2838ZM73.8878 90.612C73.8878 90.2293 73.7665 89.8933 73.5238 89.604C73.2905 89.3147 72.9825 89.17 72.5998 89.17C72.2265 89.17 71.9185 89.324 71.6758 89.632C71.4425 89.9307 71.3258 90.2573 71.3258 90.612H73.8878ZM76.9303 91.368C76.9303 91.9 77.047 92.3387 77.2803 92.684C77.5136 93.0293 77.8356 93.202 78.2463 93.202C78.8903 93.202 79.301 92.8847 79.4783 92.25L80.7663 92.46C80.3463 93.608 79.5063 94.182 78.2463 94.182C77.4063 94.182 76.7343 93.916 76.2303 93.384C75.7356 92.8427 75.4883 92.1427 75.4883 91.284C75.4883 90.3787 75.7263 89.6553 76.2023 89.114C76.6876 88.5633 77.341 88.288 78.1623 88.288C78.993 88.288 79.637 88.5493 80.0943 89.072C80.561 89.5853 80.7943 90.29 80.7943 91.186V91.368H76.9303ZM79.5343 90.612C79.5343 90.2293 79.413 89.8933 79.1703 89.604C78.937 89.3147 78.629 89.17 78.2463 89.17C77.873 89.17 77.565 89.324 77.3223 89.632C77.089 89.9307 76.9723 90.2573 76.9723 90.612H79.5343ZM82.9688 90.794L84.9008 88.47H86.7208L84.3968 90.906L86.9028 94H85.0548L82.9968 91.312L82.9688 94H81.6108V84.438H82.9688V90.794ZM89.1127 86.146C89.1127 86.3607 89.0334 86.5473 88.8747 86.706C88.7161 86.8647 88.5294 86.944 88.3147 86.944C88.1001 86.944 87.9134 86.8647 87.7547 86.706C87.5961 86.5473 87.5167 86.3607 87.5167 86.146C87.5167 85.9313 87.5961 85.7447 87.7547 85.586C87.9134 85.4273 88.1001 85.348 88.3147 85.348C88.5294 85.348 88.7161 85.4273 88.8747 85.586C89.0334 85.7447 89.1127 85.9313 89.1127 86.146ZM89.0007 94H87.6427V88.47H89.0007V94ZM91.6621 88.974C92.0448 88.5167 92.6095 88.288 93.3561 88.288C94.6255 88.288 95.2601 89.0673 95.2601 90.626V94H93.9161V91.074C93.9161 89.9073 93.5568 89.324 92.8381 89.324C92.0541 89.324 91.6621 89.9493 91.6621 91.2V94H90.3041V88.47H91.6621V88.974ZM101.652 93.524C101.652 95.4187 100.77 96.366 99.0061 96.366C98.2221 96.366 97.5595 96.1513 97.0181 95.722C96.4768 95.302 96.2061 94.7513 96.2061 94.07H97.6481C97.6481 94.3407 97.7835 94.6067 98.0541 94.868C98.3248 95.1293 98.6281 95.26 98.9641 95.26C99.8508 95.26 100.294 94.728 100.294 93.664V93.314C99.9115 93.7993 99.3281 94.042 98.5441 94.042C97.7695 94.042 97.1581 93.7713 96.7101 93.23C96.2715 92.6887 96.0521 92.026 96.0521 91.242C96.0521 90.3927 96.2901 89.6833 96.7661 89.114C97.2421 88.5447 97.8581 88.26 98.6141 88.26C99.3795 88.26 99.9395 88.498 100.294 88.974V88.442H101.652V93.524ZM100.49 91.116C100.49 90.612 100.35 90.206 100.07 89.898C99.7901 89.59 99.4215 89.436 98.9641 89.436C98.5068 89.436 98.1335 89.604 97.8441 89.94C97.5641 90.276 97.4241 90.7007 97.4241 91.214C97.4241 92.3153 97.9375 92.866 98.9641 92.866C99.4308 92.866 99.7995 92.7027 100.07 92.376C100.35 92.04 100.49 91.62 100.49 91.116ZM112.63 94H111.3V93.496C110.908 93.9533 110.325 94.182 109.55 94.182C108.775 94.182 108.155 93.8833 107.688 93.286C107.231 92.6887 107.002 91.9887 107.002 91.186C107.002 90.3833 107.235 89.702 107.702 89.142C108.178 88.5727 108.785 88.288 109.522 88.288C110.306 88.288 110.899 88.5213 111.3 88.988V88.47H112.63V94ZM111.454 91.228C111.454 90.7147 111.309 90.2947 111.02 89.968C110.731 89.632 110.357 89.464 109.9 89.464C109.452 89.464 109.083 89.6273 108.794 89.954C108.514 90.2713 108.374 90.696 108.374 91.228C108.374 91.76 108.519 92.1893 108.808 92.516C109.097 92.8427 109.471 93.006 109.928 93.006C110.385 93.006 110.754 92.8473 111.034 92.53C111.314 92.2127 111.454 91.7787 111.454 91.228ZM119.799 88.974C120.191 88.5167 120.774 88.288 121.549 88.288C122.277 88.288 122.879 88.5773 123.355 89.156C123.84 89.7347 124.083 90.416 124.083 91.2C124.083 92.0493 123.845 92.7587 123.369 93.328C122.893 93.8973 122.277 94.182 121.521 94.182C120.709 94.182 120.144 93.9487 119.827 93.482L119.799 96.338H118.441V88.47H119.799V88.974ZM122.697 91.228C122.697 90.752 122.562 90.3413 122.291 89.996C122.02 89.6413 121.647 89.464 121.171 89.464C120.732 89.464 120.368 89.6413 120.079 89.996C119.79 90.3507 119.645 90.7613 119.645 91.228C119.645 91.6853 119.799 92.096 120.107 92.46C120.415 92.824 120.77 93.006 121.171 93.006C121.647 93.006 122.02 92.838 122.291 92.502C122.562 92.166 122.697 91.7413 122.697 91.228ZM130.048 94H128.718V93.496C128.326 93.9533 127.743 94.182 126.968 94.182C126.193 94.182 125.573 93.8833 125.106 93.286C124.649 92.6887 124.42 91.9887 124.42 91.186C124.42 90.3833 124.653 89.702 125.12 89.142C125.596 88.5727 126.203 88.288 126.94 88.288C127.724 88.288 128.317 88.5213 128.718 88.988V88.47H130.048V94ZM128.872 91.228C128.872 90.7147 128.727 90.2947 128.438 89.968C128.149 89.632 127.775 89.464 127.318 89.464C126.87 89.464 126.501 89.6273 126.212 89.954C125.932 90.2713 125.792 90.696 125.792 91.228C125.792 91.76 125.937 92.1893 126.226 92.516C126.515 92.8427 126.889 93.006 127.346 93.006C127.803 93.006 128.172 92.8473 128.452 92.53C128.732 92.2127 128.872 91.7787 128.872 91.228ZM132.849 94H131.491V89.688H130.833V88.582H131.491V86.594H132.849V88.582H133.927V89.688H132.849V94ZM135.631 84.438V88.932C135.986 88.5027 136.55 88.288 137.325 88.288C137.904 88.288 138.366 88.512 138.711 88.96C139.056 89.408 139.229 89.9633 139.229 90.626V94H137.885V91.074C137.885 89.9073 137.526 89.324 136.807 89.324C136.023 89.324 135.631 89.968 135.631 91.256V94H134.273V84.438H135.631ZM148.799 89.912C148.453 89.5667 148.066 89.394 147.637 89.394C147.133 89.394 146.736 89.576 146.447 89.94C146.157 90.304 146.013 90.752 146.013 91.284C146.013 91.8067 146.176 92.236 146.503 92.572C146.829 92.908 147.226 93.076 147.693 93.076C148.094 93.076 148.463 92.8987 148.799 92.544V93.846C148.407 94.07 147.954 94.182 147.441 94.182C146.638 94.182 145.971 93.8973 145.439 93.328C144.907 92.7587 144.641 92.0633 144.641 91.242C144.641 90.4207 144.911 89.7253 145.453 89.156C146.003 88.5773 146.689 88.288 147.511 88.288C147.996 88.288 148.425 88.4047 148.799 88.638V89.912ZM155.209 91.228C155.209 92.096 154.943 92.8053 154.411 93.356C153.879 93.9067 153.179 94.182 152.311 94.182C151.452 94.182 150.752 93.9067 150.211 93.356C149.669 92.8053 149.399 92.1007 149.399 91.242C149.399 90.374 149.665 89.6647 150.197 89.114C150.729 88.5633 151.429 88.288 152.297 88.288C153.165 88.288 153.865 88.5633 154.397 89.114C154.938 89.6553 155.209 90.36 155.209 91.228ZM150.771 91.256C150.771 91.7693 150.915 92.1893 151.205 92.516C151.494 92.8427 151.867 93.006 152.325 93.006C152.782 93.006 153.146 92.8333 153.417 92.488C153.697 92.1333 153.837 91.718 153.837 91.242C153.837 90.7567 153.697 90.3413 153.417 89.996C153.137 89.6413 152.768 89.464 152.311 89.464C151.863 89.464 151.494 89.632 151.205 89.968C150.915 90.304 150.771 90.7333 150.771 91.256ZM157.314 88.96C157.66 88.512 158.192 88.288 158.91 88.288C159.536 88.288 160.03 88.5773 160.394 89.156C160.749 88.5773 161.323 88.288 162.116 88.288C163.283 88.288 163.866 89.044 163.866 90.556V94H162.522V91.088C162.522 89.912 162.2 89.324 161.556 89.324C160.912 89.324 160.59 89.9773 160.59 91.284V94H159.232V91.2C159.232 89.9493 158.948 89.324 158.378 89.324C157.669 89.324 157.314 89.9773 157.314 91.284V94H155.956V88.47H157.314V88.96ZM165.007 84.438H166.365V88.974C166.757 88.5167 167.341 88.288 168.115 88.288C168.843 88.288 169.445 88.5773 169.921 89.156C170.407 89.7347 170.649 90.416 170.649 91.2C170.649 92.0493 170.411 92.7587 169.935 93.328C169.459 93.8973 168.843 94.182 168.087 94.182C167.275 94.182 166.711 93.9487 166.393 93.482L166.365 94H165.007V84.438ZM169.263 91.228C169.263 90.7613 169.119 90.3507 168.829 89.996C168.54 89.6413 168.171 89.464 167.723 89.464C167.275 89.464 166.911 89.6413 166.631 89.996C166.351 90.3413 166.211 90.7567 166.211 91.242C166.211 91.718 166.356 92.1333 166.645 92.488C166.944 92.8333 167.308 93.006 167.737 93.006C168.204 93.006 168.573 92.838 168.843 92.502C169.123 92.1567 169.263 91.732 169.263 91.228ZM173.044 86.146C173.044 86.3607 172.965 86.5473 172.806 86.706C172.648 86.8647 172.461 86.944 172.246 86.944C172.032 86.944 171.845 86.8647 171.686 86.706C171.528 86.5473 171.448 86.3607 171.448 86.146C171.448 85.9313 171.528 85.7447 171.686 85.586C171.845 85.4273 172.032 85.348 172.246 85.348C172.461 85.348 172.648 85.4273 172.806 85.586C172.965 85.7447 173.044 85.9313 173.044 86.146ZM172.932 94H171.574V88.47H172.932V94ZM175.594 88.974C175.976 88.5167 176.541 88.288 177.288 88.288C178.557 88.288 179.192 89.0673 179.192 90.626V94H177.848V91.074C177.848 89.9073 177.488 89.324 176.77 89.324C175.986 89.324 175.594 89.9493 175.594 91.2V94H174.236V88.47H175.594V88.974ZM181.37 91.368C181.37 91.9 181.486 92.3387 181.72 92.684C181.953 93.0293 182.275 93.202 182.686 93.202C183.33 93.202 183.74 92.8847 183.918 92.25L185.206 92.46C184.786 93.608 183.946 94.182 182.686 94.182C181.846 94.182 181.174 93.916 180.67 93.384C180.175 92.8427 179.928 92.1427 179.928 91.284C179.928 90.3787 180.166 89.6553 180.642 89.114C181.127 88.5633 181.78 88.288 182.602 88.288C183.432 88.288 184.076 88.5493 184.534 89.072C185 89.5853 185.234 90.29 185.234 91.186V91.368H181.37ZM183.974 90.612C183.974 90.2293 183.852 89.8933 183.61 89.604C183.376 89.3147 183.068 89.17 182.686 89.17C182.312 89.17 182.004 89.324 181.762 89.632C181.528 89.9307 181.412 90.2573 181.412 90.612H183.974ZM188.92 89.618C188.622 89.338 188.309 89.198 187.982 89.198C187.488 89.198 187.24 89.422 187.24 89.87C187.24 90.122 187.464 90.3273 187.912 90.486C188.734 90.7847 189.242 91.06 189.438 91.312C189.634 91.5547 189.732 91.858 189.732 92.222C189.732 92.8193 189.522 93.2953 189.102 93.65C188.692 94.0047 188.183 94.182 187.576 94.182C186.792 94.182 186.144 93.874 185.63 93.258L186.232 92.488C186.699 92.9547 187.128 93.188 187.52 93.188C188.09 93.188 188.374 92.9127 188.374 92.362C188.374 92.082 188.225 91.8767 187.926 91.746C187.628 91.606 187.399 91.5033 187.24 91.438C186.382 91.0647 185.952 90.612 185.952 90.08C185.952 89.548 186.111 89.1187 186.428 88.792C186.755 88.456 187.18 88.288 187.702 88.288C188.449 88.288 189.042 88.4793 189.48 88.862L188.92 89.618ZM200.499 94H199.169V93.496C198.777 93.9533 198.194 94.182 197.419 94.182C196.644 94.182 196.024 93.8833 195.557 93.286C195.1 92.6887 194.871 91.9887 194.871 91.186C194.871 90.3833 195.104 89.702 195.571 89.142C196.047 88.5727 196.654 88.288 197.391 88.288C198.175 88.288 198.768 88.5213 199.169 88.988V88.47H200.499V94ZM199.323 91.228C199.323 90.7147 199.178 90.2947 198.889 89.968C198.6 89.632 198.226 89.464 197.769 89.464C197.321 89.464 196.952 89.6273 196.663 89.954C196.383 90.2713 196.243 90.696 196.243 91.228C196.243 91.76 196.388 92.1893 196.677 92.516C196.966 92.8427 197.34 93.006 197.797 93.006C198.254 93.006 198.623 92.8473 198.903 92.53C199.183 92.2127 199.323 91.7787 199.323 91.228ZM202.992 89.044C203.338 88.54 203.879 88.288 204.616 88.288C204.85 88.288 205.064 88.3347 205.26 88.428L205.092 89.66C204.887 89.5293 204.663 89.464 204.42 89.464C203.468 89.464 202.992 90.1453 202.992 91.508V94H201.634V88.47H202.992V89.044ZM207.429 94H206.071V89.688H205.413V88.582H206.071V86.594H207.429V88.582H208.507V89.688H207.429V94ZM218.765 94H217.435V93.496C217.043 93.9533 216.459 94.182 215.685 94.182C214.91 94.182 214.289 93.8833 213.823 93.286C213.365 92.6887 213.137 91.9887 213.137 91.186C213.137 90.3833 213.37 89.702 213.837 89.142C214.313 88.5727 214.919 88.288 215.657 88.288C216.441 88.288 217.033 88.5213 217.435 88.988V88.47H218.765V94ZM217.589 91.228C217.589 90.7147 217.444 90.2947 217.155 89.968C216.865 89.632 216.492 89.464 216.035 89.464C215.587 89.464 215.218 89.6273 214.929 89.954C214.649 90.2713 214.509 90.696 214.509 91.228C214.509 91.76 214.653 92.1893 214.943 92.516C215.232 92.8427 215.605 93.006 216.063 93.006C216.52 93.006 216.889 92.8473 217.169 92.53C217.449 92.2127 217.589 91.7787 217.589 91.228ZM221.258 88.974C221.641 88.5167 222.205 88.288 222.952 88.288C224.221 88.288 224.856 89.0673 224.856 90.626V94H223.512V91.074C223.512 89.9073 223.153 89.324 222.434 89.324C221.65 89.324 221.258 89.9493 221.258 91.2V94H219.9V88.47H221.258V88.974ZM229.876 93.482C229.512 93.9487 228.938 94.182 228.154 94.182C227.37 94.182 226.744 93.8833 226.278 93.286C225.82 92.6887 225.592 91.9887 225.592 91.186C225.592 90.3833 225.825 89.702 226.292 89.142C226.768 88.5727 227.374 88.288 228.112 88.288C228.896 88.288 229.474 88.5167 229.848 88.974L229.876 84.438H231.234V94H229.876V93.482ZM230.03 91.228C230.03 90.7427 229.88 90.3273 229.582 89.982C229.283 89.6367 228.924 89.464 228.504 89.464C228.084 89.464 227.72 89.6367 227.412 89.982C227.113 90.318 226.964 90.738 226.964 91.242C226.964 91.7367 227.108 92.1567 227.398 92.502C227.696 92.838 228.07 93.006 228.518 93.006C228.966 93.006 229.33 92.8427 229.61 92.516C229.89 92.18 230.03 91.7507 230.03 91.228ZM238.697 94H237.339V89.688H236.681V88.582H237.339V86.594H238.697V88.582H239.775V89.688H238.697V94ZM241.171 91.368C241.171 91.9 241.287 92.3387 241.521 92.684C241.754 93.0293 242.076 93.202 242.487 93.202C243.131 93.202 243.541 92.8847 243.719 92.25L245.007 92.46C244.587 93.608 243.747 94.182 242.487 94.182C241.647 94.182 240.975 93.916 240.471 93.384C239.976 92.8427 239.729 92.1427 239.729 91.284C239.729 90.3787 239.967 89.6553 240.443 89.114C240.928 88.5633 241.581 88.288 242.403 88.288C243.233 88.288 243.877 88.5493 244.335 89.072C244.801 89.5853 245.035 90.29 245.035 91.186V91.368H241.171ZM243.775 90.612C243.775 90.2293 243.653 89.8933 243.411 89.604C243.177 89.3147 242.869 89.17 242.487 89.17C242.113 89.17 241.805 89.324 241.563 89.632C241.329 89.9307 241.213 90.2573 241.213 90.612H243.775ZM249.533 89.912C249.188 89.5667 248.8 89.394 248.371 89.394C247.867 89.394 247.47 89.576 247.181 89.94C246.892 90.304 246.747 90.752 246.747 91.284C246.747 91.8067 246.91 92.236 247.237 92.572C247.564 92.908 247.96 93.076 248.427 93.076C248.828 93.076 249.197 92.8987 249.533 92.544V93.846C249.141 94.07 248.688 94.182 248.175 94.182C247.372 94.182 246.705 93.8973 246.173 93.328C245.641 92.7587 245.375 92.0633 245.375 91.242C245.375 90.4207 245.646 89.7253 246.187 89.156C246.738 88.5773 247.424 88.288 248.245 88.288C248.73 88.288 249.16 88.4047 249.533 88.638V89.912ZM251.869 84.438V88.932C252.224 88.5027 252.789 88.288 253.563 88.288C254.142 88.288 254.604 88.512 254.949 88.96C255.295 89.408 255.467 89.9633 255.467 90.626V94H254.123V91.074C254.123 89.9073 253.764 89.324 253.045 89.324C252.261 89.324 251.869 89.968 251.869 91.256V94H250.511V84.438H251.869ZM258.667 93.202C258.667 93.482 258.569 93.7247 258.373 93.93C258.186 94.126 257.953 94.224 257.673 94.224C257.393 94.224 257.155 94.126 256.959 93.93C256.763 93.734 256.665 93.5007 256.665 93.23C256.665 92.95 256.763 92.712 256.959 92.516C257.155 92.32 257.388 92.222 257.659 92.222C257.939 92.222 258.177 92.3153 258.373 92.502C258.569 92.6887 258.667 92.922 258.667 93.202ZM3.044 122H1.602V113.502H3.856C5.82533 113.502 6.81 114.379 6.81 116.134C6.81 117.926 5.90467 118.822 4.094 118.822H3.044V122ZM3.044 117.674H3.758C4.81267 117.674 5.34 117.161 5.34 116.134C5.34 115.145 4.79867 114.65 3.716 114.65H3.044V117.674ZM8.97727 122H7.61927V112.438H8.97727V122ZM11.2506 119.368C11.2506 119.9 11.3673 120.339 11.6006 120.684C11.834 121.029 12.156 121.202 12.5666 121.202C13.2106 121.202 13.6213 120.885 13.7986 120.25L15.0866 120.46C14.6666 121.608 13.8266 122.182 12.5666 122.182C11.7266 122.182 11.0546 121.916 10.5506 121.384C10.056 120.843 9.80863 120.143 9.80863 119.284C9.80863 118.379 10.0466 117.655 10.5226 117.114C11.008 116.563 11.6613 116.288 12.4826 116.288C13.3133 116.288 13.9573 116.549 14.4146 117.072C14.8813 117.585 15.1146 118.29 15.1146 119.186V119.368H11.2506ZM13.8546 118.612C13.8546 118.229 13.7333 117.893 13.4906 117.604C13.2573 117.315 12.9493 117.17 12.5666 117.17C12.1933 117.17 11.8853 117.324 11.6426 117.632C11.4093 117.931 11.2926 118.257 11.2926 118.612H13.8546ZM21.0831 122H19.7531V121.496C19.3611 121.953 18.7778 122.182 18.0031 122.182C17.2284 122.182 16.6078 121.883 16.1411 121.286C15.6838 120.689 15.4551 119.989 15.4551 119.186C15.4551 118.383 15.6884 117.702 16.1551 117.142C16.6311 116.573 17.2378 116.288 17.9751 116.288C18.7591 116.288 19.3518 116.521 19.7531 116.988V116.47H21.0831V122ZM19.9071 119.228C19.9071 118.715 19.7624 118.295 19.4731 117.968C19.1838 117.632 18.8104 117.464 18.3531 117.464C17.9051 117.464 17.5364 117.627 17.2471 117.954C16.9671 118.271 16.8271 118.696 16.8271 119.228C16.8271 119.76 16.9718 120.189 17.2611 120.516C17.5504 120.843 17.9238 121.006 18.3811 121.006C18.8384 121.006 19.2071 120.847 19.4871 120.53C19.7671 120.213 19.9071 119.779 19.9071 119.228ZM25.1722 117.618C24.8735 117.338 24.5609 117.198 24.2342 117.198C23.7395 117.198 23.4922 117.422 23.4922 117.87C23.4922 118.122 23.7162 118.327 24.1642 118.486C24.9855 118.785 25.4942 119.06 25.6902 119.312C25.8862 119.555 25.9842 119.858 25.9842 120.222C25.9842 120.819 25.7742 121.295 25.3542 121.65C24.9435 122.005 24.4349 122.182 23.8282 122.182C23.0442 122.182 22.3955 121.874 21.8822 121.258L22.4842 120.488C22.9509 120.955 23.3802 121.188 23.7722 121.188C24.3415 121.188 24.6262 120.913 24.6262 120.362C24.6262 120.082 24.4769 119.877 24.1782 119.746C23.8795 119.606 23.6509 119.503 23.4922 119.438C22.6335 119.065 22.2042 118.612 22.2042 118.08C22.2042 117.548 22.3629 117.119 22.6802 116.792C23.0069 116.456 23.4315 116.288 23.9542 116.288C24.7009 116.288 25.2935 116.479 25.7322 116.862L25.1722 117.618ZM27.8893 119.368C27.8893 119.9 28.006 120.339 28.2393 120.684C28.4726 121.029 28.7946 121.202 29.2053 121.202C29.8493 121.202 30.26 120.885 30.4373 120.25L31.7253 120.46C31.3053 121.608 30.4653 122.182 29.2053 122.182C28.3653 122.182 27.6933 121.916 27.1893 121.384C26.6946 120.843 26.4473 120.143 26.4473 119.284C26.4473 118.379 26.6853 117.655 27.1613 117.114C27.6466 116.563 28.3 116.288 29.1213 116.288C29.952 116.288 30.596 116.549 31.0533 117.072C31.52 117.585 31.7533 118.29 31.7533 119.186V119.368H27.8893ZM30.4933 118.612C30.4933 118.229 30.372 117.893 30.1293 117.604C29.896 117.315 29.588 117.17 29.2053 117.17C28.832 117.17 28.524 117.324 28.2813 117.632C28.048 117.931 27.9313 118.257 27.9313 118.612H30.4933ZM38.5196 117.044C38.8649 116.54 39.4062 116.288 40.1436 116.288C40.3769 116.288 40.5916 116.335 40.7876 116.428L40.6196 117.66C40.4142 117.529 40.1902 117.464 39.9476 117.464C38.9956 117.464 38.5196 118.145 38.5196 119.508V122H37.1616V116.47H38.5196V117.044ZM42.3405 119.368C42.3405 119.9 42.4571 120.339 42.6905 120.684C42.9238 121.029 43.2458 121.202 43.6565 121.202C44.3005 121.202 44.7111 120.885 44.8885 120.25L46.1765 120.46C45.7565 121.608 44.9165 122.182 43.6565 122.182C42.8165 122.182 42.1445 121.916 41.6405 121.384C41.1458 120.843 40.8985 120.143 40.8985 119.284C40.8985 118.379 41.1365 117.655 41.6125 117.114C42.0978 116.563 42.7511 116.288 43.5725 116.288C44.4031 116.288 45.0471 116.549 45.5045 117.072C45.9711 117.585 46.2045 118.29 46.2045 119.186V119.368H42.3405ZM44.9445 118.612C44.9445 118.229 44.8231 117.893 44.5805 117.604C44.3471 117.315 44.0391 117.17 43.6565 117.17C43.2831 117.17 42.9751 117.324 42.7325 117.632C42.4991 117.931 42.3825 118.257 42.3825 118.612H44.9445ZM52.173 122H50.843V121.496C50.451 121.953 49.8676 122.182 49.093 122.182C48.3183 122.182 47.6976 121.883 47.231 121.286C46.7736 120.689 46.545 119.989 46.545 119.186C46.545 118.383 46.7783 117.702 47.245 117.142C47.721 116.573 48.3276 116.288 49.065 116.288C49.849 116.288 50.4416 116.521 50.843 116.988V116.47H52.173V122ZM50.997 119.228C50.997 118.715 50.8523 118.295 50.563 117.968C50.2736 117.632 49.9003 117.464 49.443 117.464C48.995 117.464 48.6263 117.627 48.337 117.954C48.057 118.271 47.917 118.696 47.917 119.228C47.917 119.76 48.0616 120.189 48.351 120.516C48.6403 120.843 49.0136 121.006 49.471 121.006C49.9283 121.006 50.297 120.847 50.577 120.53C50.857 120.213 50.997 119.779 50.997 119.228ZM57.074 117.912C56.7287 117.567 56.3414 117.394 55.912 117.394C55.408 117.394 55.0114 117.576 54.722 117.94C54.4327 118.304 54.288 118.752 54.288 119.284C54.288 119.807 54.4514 120.236 54.778 120.572C55.1047 120.908 55.5014 121.076 55.968 121.076C56.3694 121.076 56.738 120.899 57.074 120.544V121.846C56.682 122.07 56.2294 122.182 55.716 122.182C54.9134 122.182 54.246 121.897 53.714 121.328C53.182 120.759 52.916 120.063 52.916 119.242C52.916 118.421 53.1867 117.725 53.728 117.156C54.2787 116.577 54.9647 116.288 55.786 116.288C56.2714 116.288 56.7007 116.405 57.074 116.638V117.912ZM59.4102 112.438V116.932C59.7649 116.503 60.3295 116.288 61.1042 116.288C61.6829 116.288 62.1449 116.512 62.4902 116.96C62.8355 117.408 63.0082 117.963 63.0082 118.626V122H61.6642V119.074C61.6642 117.907 61.3049 117.324 60.5862 117.324C59.8022 117.324 59.4102 117.968 59.4102 119.256V122H58.0522V112.438H59.4102ZM70.17 116.96C70.5153 116.512 71.0473 116.288 71.766 116.288C72.3913 116.288 72.886 116.577 73.25 117.156C73.6046 116.577 74.1786 116.288 74.972 116.288C76.1386 116.288 76.722 117.044 76.722 118.556V122H75.378V119.088C75.378 117.912 75.056 117.324 74.412 117.324C73.768 117.324 73.446 117.977 73.446 119.284V122H72.088V119.2C72.088 117.949 71.8033 117.324 71.234 117.324C70.5246 117.324 70.17 117.977 70.17 119.284V122H68.812V116.47H70.17V116.96ZM78.9127 119.368C78.9127 119.9 79.0294 120.339 79.2627 120.684C79.4961 121.029 79.8181 121.202 80.2287 121.202C80.8727 121.202 81.2834 120.885 81.4607 120.25L82.7487 120.46C82.3287 121.608 81.4887 122.182 80.2287 122.182C79.3887 122.182 78.7167 121.916 78.2127 121.384C77.7181 120.843 77.4707 120.143 77.4707 119.284C77.4707 118.379 77.7087 117.655 78.1847 117.114C78.6701 116.563 79.3234 116.288 80.1447 116.288C80.9754 116.288 81.6194 116.549 82.0767 117.072C82.5434 117.585 82.7767 118.29 82.7767 119.186V119.368H78.9127ZM81.5167 118.612C81.5167 118.229 81.3954 117.893 81.1527 117.604C80.9194 117.315 80.6114 117.17 80.2287 117.17C79.8554 117.17 79.5474 117.324 79.3047 117.632C79.0714 117.931 78.9547 118.257 78.9547 118.612H81.5167ZM93.421 122H92.091V121.496C91.699 121.953 91.1157 122.182 90.341 122.182C89.5663 122.182 88.9457 121.883 88.479 121.286C88.0217 120.689 87.793 119.989 87.793 119.186C87.793 118.383 88.0263 117.702 88.493 117.142C88.969 116.573 89.5757 116.288 90.313 116.288C91.097 116.288 91.6897 116.521 92.091 116.988V116.47H93.421V122ZM92.245 119.228C92.245 118.715 92.1003 118.295 91.811 117.968C91.5217 117.632 91.1483 117.464 90.691 117.464C90.243 117.464 89.8743 117.627 89.585 117.954C89.305 118.271 89.165 118.696 89.165 119.228C89.165 119.76 89.3097 120.189 89.599 120.516C89.8883 120.843 90.2617 121.006 90.719 121.006C91.1763 121.006 91.545 120.847 91.825 120.53C92.105 120.213 92.245 119.779 92.245 119.228ZM96.2221 122H94.8641V117.688H94.2061V116.582H94.8641V114.594H96.2221V116.582H97.3001V117.688H96.2221V122ZM103.764 118.794L105.696 116.47H107.516L105.192 118.906L107.698 122H105.85L103.792 119.312L103.764 122H102.406V112.438H103.764V118.794ZM109.292 119.368C109.292 119.9 109.408 120.339 109.642 120.684C109.875 121.029 110.197 121.202 110.608 121.202C111.252 121.202 111.662 120.885 111.84 120.25L113.128 120.46C112.708 121.608 111.868 122.182 110.608 122.182C109.768 122.182 109.096 121.916 108.592 121.384C108.097 120.843 107.85 120.143 107.85 119.284C107.85 118.379 108.088 117.655 108.564 117.114C109.049 116.563 109.702 116.288 110.524 116.288C111.354 116.288 111.998 116.549 112.456 117.072C112.922 117.585 113.156 118.29 113.156 119.186V119.368H109.292ZM111.896 118.612C111.896 118.229 111.774 117.893 111.532 117.604C111.298 117.315 110.99 117.17 110.608 117.17C110.234 117.17 109.926 117.324 109.684 117.632C109.45 117.931 109.334 118.257 109.334 118.612H111.896ZM115.414 122H114.056V117.688H113.412V116.582H114.056V114.846C114.056 113.157 114.714 112.312 116.03 112.312C116.301 112.312 116.553 112.373 116.786 112.494V113.67C116.543 113.549 116.329 113.488 116.142 113.488C115.89 113.488 115.703 113.581 115.582 113.768C115.47 113.945 115.414 114.379 115.414 115.07V116.582H116.786V117.688H115.414V122ZM122.542 122H121.212V121.496C120.82 121.953 120.237 122.182 119.462 122.182C118.687 122.182 118.067 121.883 117.6 121.286C117.143 120.689 116.914 119.989 116.914 119.186C116.914 118.383 117.147 117.702 117.614 117.142C118.09 116.573 118.697 116.288 119.434 116.288C120.218 116.288 120.811 116.521 121.212 116.988V116.47H122.542V122ZM121.366 119.228C121.366 118.715 121.221 118.295 120.932 117.968C120.643 117.632 120.269 117.464 119.812 117.464C119.364 117.464 118.995 117.627 118.706 117.954C118.426 118.271 118.286 118.696 118.286 119.228C118.286 119.76 118.431 120.189 118.72 120.516C119.009 120.843 119.383 121.006 119.84 121.006C120.297 121.006 120.666 120.847 120.946 120.53C121.226 120.213 121.366 119.779 121.366 119.228ZM125.035 116.974C125.418 116.517 125.983 116.288 126.729 116.288C127.999 116.288 128.633 117.067 128.633 118.626V122H127.289V119.074C127.289 117.907 126.93 117.324 126.211 117.324C125.427 117.324 125.035 117.949 125.035 119.2V122H123.677V116.47H125.035V116.974ZM129.579 116.47H131.259L132.407 118.024L133.387 116.47H135.109L133.177 118.976L135.473 122H133.765L132.253 119.928L130.853 122H129.117L131.469 118.99L129.579 116.47ZM137.285 116.47V119.466C137.285 120.539 137.658 121.076 138.405 121.076C139.151 121.076 139.525 120.539 139.525 119.466V116.47H140.883V119.718C140.883 121.361 140.057 122.182 138.405 122.182C136.753 122.182 135.927 121.361 135.927 119.718V116.47H137.285ZM148.228 115.574H149.306L148.746 118.5L148.718 118.724C148.68 118.929 148.662 119.055 148.662 119.102C148.662 119.307 148.746 119.41 148.914 119.41C149.203 119.41 149.488 119.195 149.768 118.766C150.057 118.337 150.202 117.837 150.202 117.268C150.202 115.345 149.161 114.384 147.08 114.384C146.109 114.384 145.283 114.692 144.602 115.308C143.93 115.924 143.594 116.75 143.594 117.786C143.594 118.813 143.958 119.634 144.686 120.25C145.414 120.857 146.296 121.16 147.332 121.16C148.218 121.16 148.867 121.001 149.278 120.684L150.216 121.454C149.264 121.967 148.251 122.224 147.178 122.224C145.918 122.224 144.821 121.79 143.888 120.922C142.954 120.054 142.488 118.999 142.488 117.758C142.488 116.517 142.95 115.462 143.874 114.594C144.807 113.717 145.894 113.278 147.136 113.278C148.386 113.278 149.39 113.642 150.146 114.37C150.911 115.098 151.294 115.947 151.294 116.918C151.294 117.879 150.995 118.682 150.398 119.326C149.8 119.97 149.198 120.292 148.592 120.292C148.19 120.292 147.99 120.012 147.99 119.452C147.504 119.919 146.991 120.152 146.45 120.152C145.955 120.152 145.54 119.961 145.204 119.578C144.868 119.195 144.7 118.729 144.7 118.178C144.7 117.497 144.914 116.899 145.344 116.386C145.773 115.873 146.277 115.616 146.856 115.616C147.444 115.616 147.85 115.84 148.074 116.288L148.228 115.574ZM146.926 116.722C146.646 116.722 146.389 116.862 146.156 117.142C145.922 117.422 145.806 117.739 145.806 118.094C145.806 118.897 146.058 119.298 146.562 119.298C146.926 119.298 147.224 119.116 147.458 118.752C147.691 118.388 147.808 118.043 147.808 117.716V117.618C147.808 117.357 147.719 117.142 147.542 116.974C147.364 116.806 147.159 116.722 146.926 116.722ZM154.306 116.47V119.466C154.306 120.539 154.679 121.076 155.426 121.076C156.173 121.076 156.546 120.539 156.546 119.466V116.47H157.904V119.718C157.904 121.361 157.078 122.182 155.426 122.182C153.774 122.182 152.948 121.361 152.948 119.718V116.47H154.306ZM160.363 116.96C160.709 116.512 161.241 116.288 161.959 116.288C162.585 116.288 163.079 116.577 163.443 117.156C163.798 116.577 164.372 116.288 165.165 116.288C166.332 116.288 166.915 117.044 166.915 118.556V122H165.571V119.088C165.571 117.912 165.249 117.324 164.605 117.324C163.961 117.324 163.639 117.977 163.639 119.284V122H162.281V119.2C162.281 117.949 161.997 117.324 161.427 117.324C160.718 117.324 160.363 117.977 160.363 119.284V122H159.005V116.47H160.363V116.96ZM169.722 114.146C169.722 114.361 169.643 114.547 169.484 114.706C169.325 114.865 169.139 114.944 168.924 114.944C168.709 114.944 168.523 114.865 168.364 114.706C168.205 114.547 168.126 114.361 168.126 114.146C168.126 113.931 168.205 113.745 168.364 113.586C168.523 113.427 168.709 113.348 168.924 113.348C169.139 113.348 169.325 113.427 169.484 113.586C169.643 113.745 169.722 113.931 169.722 114.146ZM169.61 122H168.252V116.47H169.61V122ZM174.68 117.912C174.334 117.567 173.947 117.394 173.518 117.394C173.014 117.394 172.617 117.576 172.328 117.94C172.038 118.304 171.894 118.752 171.894 119.284C171.894 119.807 172.057 120.236 172.384 120.572C172.71 120.908 173.107 121.076 173.574 121.076C173.975 121.076 174.344 120.899 174.68 120.544V121.846C174.288 122.07 173.835 122.182 173.322 122.182C172.519 122.182 171.852 121.897 171.32 121.328C170.788 120.759 170.522 120.063 170.522 119.242C170.522 118.421 170.792 117.725 171.334 117.156C171.884 116.577 172.57 116.288 173.392 116.288C173.877 116.288 174.306 116.405 174.68 116.638V117.912ZM177.016 112.438V116.932C177.37 116.503 177.935 116.288 178.71 116.288C179.288 116.288 179.75 116.512 180.096 116.96C180.441 117.408 180.614 117.963 180.614 118.626V122H179.27V119.074C179.27 117.907 178.91 117.324 178.192 117.324C177.408 117.324 177.016 117.968 177.016 119.256V122H175.658V112.438H177.016ZM183.814 121.202C183.814 121.482 183.716 121.725 183.52 121.93C183.333 122.126 183.1 122.224 182.82 122.224C182.54 122.224 182.302 122.126 182.106 121.93C181.91 121.734 181.812 121.501 181.812 121.23C181.812 120.95 181.91 120.712 182.106 120.516C182.302 120.32 182.535 120.222 182.806 120.222C183.086 120.222 183.324 120.315 183.52 120.502C183.716 120.689 183.814 120.922 183.814 121.202ZM186.059 119.368C186.059 119.9 186.176 120.339 186.409 120.684C186.643 121.029 186.965 121.202 187.375 121.202C188.019 121.202 188.43 120.885 188.607 120.25L189.895 120.46C189.475 121.608 188.635 122.182 187.375 122.182C186.535 122.182 185.863 121.916 185.359 121.384C184.865 120.843 184.617 120.143 184.617 119.284C184.617 118.379 184.855 117.655 185.331 117.114C185.817 116.563 186.47 116.288 187.291 116.288C188.122 116.288 188.766 116.549 189.223 117.072C189.69 117.585 189.923 118.29 189.923 119.186V119.368H186.059ZM188.663 118.612C188.663 118.229 188.542 117.893 188.299 117.604C188.066 117.315 187.758 117.17 187.375 117.17C187.002 117.17 186.694 117.324 186.451 117.632C186.218 117.931 186.101 118.257 186.101 118.612H188.663ZM194.548 121.482C194.184 121.949 193.61 122.182 192.826 122.182C192.042 122.182 191.416 121.883 190.95 121.286C190.492 120.689 190.264 119.989 190.264 119.186C190.264 118.383 190.497 117.702 190.964 117.142C191.44 116.573 192.046 116.288 192.784 116.288C193.568 116.288 194.146 116.517 194.52 116.974L194.548 112.438H195.906V122H194.548V121.482ZM194.702 119.228C194.702 118.743 194.552 118.327 194.254 117.982C193.955 117.637 193.596 117.464 193.176 117.464C192.756 117.464 192.392 117.637 192.084 117.982C191.785 118.318 191.636 118.738 191.636 119.242C191.636 119.737 191.78 120.157 192.07 120.502C192.368 120.838 192.742 121.006 193.19 121.006C193.638 121.006 194.002 120.843 194.282 120.516C194.562 120.18 194.702 119.751 194.702 119.228ZM198.357 116.47V119.466C198.357 120.539 198.73 121.076 199.477 121.076C200.223 121.076 200.597 120.539 200.597 119.466V116.47H201.955V119.718C201.955 121.361 201.129 122.182 199.477 122.182C197.825 122.182 196.999 121.361 196.999 119.718V116.47H198.357Z" fill="black"/>
</svg>
