<svg width="189" height="17" viewBox="0 0 189 17" fill="none" xmlns="http://www.w3.org/2000/svg">
<rect x="0.499939" y="0.499023" width="188" height="16" fill="black"/>
<path d="M13.7439 13.499H11.9659L9.55794 9.71902L9.54394 13.499H8.10194V5.00102H10.3559C12.2506 5.00102 13.1979 5.85502 13.1979 7.56302C13.1979 8.20702 13.0299 8.74369 12.6939 9.17302C12.3673 9.60236 11.9193 9.84969 11.3499 9.91502L13.7439 13.499ZM9.54394 9.13102H9.97794C11.1633 9.13102 11.7559 8.62236 11.7559 7.60502C11.7559 6.62502 11.1679 6.13502 9.99194 6.13502H9.54394V9.13102ZM13.985 9.27102C13.985 8.02969 14.3817 6.97036 15.175 6.09302C15.9777 5.21569 16.9857 4.77702 18.199 4.77702C19.4123 4.77702 20.4157 5.21569 21.209 6.09302C22.0023 6.97036 22.399 8.02502 22.399 9.25702C22.399 10.489 22.0023 11.5437 21.209 12.421C20.425 13.289 19.4217 13.723 18.199 13.723C16.9763 13.723 15.9683 13.289 15.175 12.421C14.3817 11.553 13.985 10.503 13.985 9.27102ZM15.483 9.17302C15.483 10.0037 15.7443 10.7364 16.267 11.371C16.7897 11.9964 17.4337 12.309 18.199 12.309C19.0203 12.309 19.6783 12.0104 20.173 11.413C20.6677 10.8064 20.915 10.0597 20.915 9.17302C20.915 8.33302 20.6677 7.62836 20.173 7.05902C19.6783 6.48036 19.0157 6.19102 18.185 6.19102C17.3637 6.19102 16.7057 6.48036 16.211 7.05902C15.7257 7.63769 15.483 8.34236 15.483 9.17302ZM24.6514 12.281H27.2134V13.499L23.2094 13.499V5.00102H24.6514V12.281ZM29.1904 6.21902V8.43102L32.0464 8.43102V9.64902H29.1904V12.281H32.1444V13.499H27.7484V5.00102H32.1444V6.21902L29.1904 6.21902ZM35.2745 12.701C35.2745 12.981 35.1765 13.2237 34.9805 13.429C34.7939 13.625 34.5605 13.723 34.2805 13.723C34.0005 13.723 33.7625 13.625 33.5665 13.429C33.3705 13.233 33.2725 12.9997 33.2725 12.729C33.2725 12.449 33.3705 12.211 33.5665 12.015C33.7625 11.819 33.9959 11.721 34.2665 11.721C34.5465 11.721 34.7845 11.8144 34.9805 12.001C35.1765 12.1877 35.2745 12.421 35.2745 12.701ZM35.2745 8.64102C35.2745 8.92102 35.1765 9.16369 34.9805 9.36902C34.7939 9.56502 34.5605 9.66302 34.2805 9.66302C34.0005 9.66302 33.7625 9.56502 33.5665 9.36902C33.3705 9.17302 33.2725 8.93969 33.2725 8.66902C33.2725 8.38902 33.3705 8.15102 33.5665 7.95502C33.7625 7.75902 33.9959 7.66102 34.2665 7.66102C34.5465 7.66102 34.7845 7.75436 34.9805 7.94102C35.1765 8.12769 35.2745 8.36102 35.2745 8.64102ZM41.1879 5.00102H43.5679C44.7812 5.00102 45.7659 5.40236 46.5219 6.20502C47.2872 7.00769 47.6699 8.02036 47.6699 9.24302C47.6699 10.4657 47.2825 11.483 46.5079 12.295C45.7425 13.0977 44.7579 13.499 43.5539 13.499H41.1879V5.00102ZM42.6299 12.197H43.1199C45.1545 12.197 46.1719 11.217 46.1719 9.25702C46.1719 7.28769 45.1545 6.30302 43.1199 6.30302H42.6299V12.197ZM49.9033 6.21902V8.43102H52.7593V9.64902H49.9033V12.281H52.8573V13.499H48.4613V5.00102L52.8573 5.00102V6.21902H49.9033ZM58.0734 6.72302C57.7094 6.20969 57.2474 5.95302 56.6874 5.95302C56.3327 5.95302 56.0341 6.06036 55.7914 6.27502C55.5487 6.48969 55.4274 6.77902 55.4274 7.14302C55.4274 7.49769 55.8661 7.92236 56.7434 8.41702C57.6301 8.91169 58.0781 9.15902 58.0874 9.15902C58.7127 9.62569 59.0254 10.1764 59.0254 10.811C59.0254 11.679 58.7734 12.3837 58.2694 12.925C57.7747 13.457 57.0934 13.723 56.2254 13.723C55.1241 13.723 54.2561 13.1724 53.6214 12.071L54.5314 11.175C54.6527 11.5017 54.8767 11.8004 55.2034 12.071C55.5301 12.3417 55.8661 12.477 56.2114 12.477C56.6221 12.477 56.9441 12.337 57.1774 12.057C57.4201 11.777 57.5414 11.4364 57.5414 11.035C57.5414 10.7457 57.4527 10.4937 57.2754 10.279C57.0981 10.055 56.4961 9.71902 55.4694 9.27102C54.4521 8.81369 53.9434 8.16502 53.9434 7.32502C53.9434 6.60636 54.1767 6.00436 54.6434 5.51902C55.1194 5.02436 55.7121 4.77702 56.4214 4.77702C57.4014 4.77702 58.1761 5.09436 58.7454 5.72902L58.0734 6.72302ZM61.4313 13.499H59.9893V5.00102H61.4313V13.499ZM70.2528 8.97702V9.18702C70.2528 10.5404 69.9074 11.637 69.2168 12.477C68.5261 13.3077 67.5788 13.723 66.3748 13.723C65.2081 13.723 64.2421 13.2937 63.4768 12.435C62.7114 11.5764 62.3288 10.5264 62.3288 9.28502C62.3288 7.99702 62.7161 6.92369 63.4908 6.06502C64.2748 5.20636 65.2734 4.77702 66.4868 4.77702C68.0548 4.77702 69.1748 5.45369 69.8468 6.80702L68.5588 7.49302C68.1294 6.51302 67.4248 6.02302 66.4448 6.02302C65.6888 6.02302 65.0634 6.34969 64.5688 7.00302C64.0741 7.64702 63.8268 8.41236 63.8268 9.29902C63.8268 10.1857 64.0694 10.937 64.5548 11.553C65.0401 12.169 65.6701 12.477 66.4448 12.477C67.1074 12.477 67.6348 12.2437 68.0268 11.777C68.4188 11.3104 68.6148 10.755 68.6148 10.111H66.5848V8.97702H70.2528ZM71.0609 4.77702H72.1529L76.9549 11.175L76.9829 5.00102H78.4109V13.667H77.3329L72.5169 7.28302L72.5029 13.499H71.0609V4.77702ZM81.0615 6.21902V8.43102H83.9175V9.64902H81.0615V12.281H84.0155V13.499H79.6195V5.00102L84.0155 5.00102V6.21902H81.0615ZM90.7576 13.499H88.9796L86.5716 9.71902L86.5576 13.499H85.1156V5.00102H87.3696C89.2643 5.00102 90.2116 5.85502 90.2116 7.56302C90.2116 8.20702 90.0436 8.74369 89.7076 9.17302C89.3809 9.60236 88.9329 9.84969 88.3636 9.91502L90.7576 13.499ZM86.5576 9.13102H86.9916C88.1769 9.13102 88.7696 8.62236 88.7696 7.60502C88.7696 6.62502 88.1816 6.13502 87.0056 6.13502H86.5576V9.13102ZM99.1745 13.499H97.8445V3.93702H99.1745V13.499ZM108.255 13.499H106.813V5.00102H109.067C111.036 5.00102 112.021 5.87836 112.021 7.63302C112.021 9.42502 111.116 10.321 109.305 10.321H108.255V13.499ZM108.255 9.17302H108.969C110.024 9.17302 110.551 8.65969 110.551 7.63302C110.551 6.64369 110.01 6.14902 108.927 6.14902H108.255V9.17302ZM118.402 13.499H116.624L114.216 9.71902L114.202 13.499H112.76V5.00102H115.014C116.909 5.00102 117.856 5.85502 117.856 7.56302C117.856 8.20702 117.688 8.74369 117.352 9.17302C117.025 9.60236 116.577 9.84969 116.008 9.91502L118.402 13.499ZM114.202 9.13102H114.636C115.821 9.13102 116.414 8.62236 116.414 7.60502C116.414 6.62502 115.826 6.13502 114.65 6.13502H114.202V9.13102ZM118.643 9.27102C118.643 8.02969 119.04 6.97036 119.833 6.09302C120.636 5.21569 121.644 4.77702 122.857 4.77702C124.071 4.77702 125.074 5.21569 125.867 6.09302C126.661 6.97036 127.057 8.02502 127.057 9.25702C127.057 10.489 126.661 11.5437 125.867 12.421C125.083 13.289 124.08 13.723 122.857 13.723C121.635 13.723 120.627 13.289 119.833 12.421C119.04 11.553 118.643 10.503 118.643 9.27102ZM120.141 9.17302C120.141 10.0037 120.403 10.7364 120.925 11.371C121.448 11.9964 122.092 12.309 122.857 12.309C123.679 12.309 124.337 12.0104 124.831 11.413C125.326 10.8064 125.573 10.0597 125.573 9.17302C125.573 8.33302 125.326 7.62836 124.831 7.05902C124.337 6.48036 123.674 6.19102 122.843 6.19102C122.022 6.19102 121.364 6.48036 120.869 7.05902C120.384 7.63769 120.141 8.34236 120.141 9.17302ZM135.386 8.97702V9.18702C135.386 10.5404 135.04 11.637 134.35 12.477C133.659 13.3077 132.712 13.723 131.508 13.723C130.341 13.723 129.375 13.2937 128.61 12.435C127.844 11.5764 127.462 10.5264 127.462 9.28502C127.462 7.99702 127.849 6.92369 128.624 6.06502C129.408 5.20636 130.406 4.77702 131.62 4.77702C133.188 4.77702 134.308 5.45369 134.98 6.80702L133.692 7.49302C133.262 6.51302 132.558 6.02302 131.578 6.02302C130.822 6.02302 130.196 6.34969 129.702 7.00302C129.207 7.64702 128.96 8.41236 128.96 9.29902C128.96 10.1857 129.202 10.937 129.688 11.553C130.173 12.169 130.803 12.477 131.578 12.477C132.24 12.477 132.768 12.2437 133.16 11.777C133.552 11.3104 133.748 10.755 133.748 10.111H131.718V8.97702H135.386ZM141.836 13.499H140.058L137.65 9.71902L137.636 13.499H136.194V5.00102H138.448C140.342 5.00102 141.29 5.85502 141.29 7.56302C141.29 8.20702 141.122 8.74369 140.786 9.17302C140.459 9.60236 140.011 9.84969 139.442 9.91502L141.836 13.499ZM137.636 9.13102H138.07C139.255 9.13102 139.848 8.62236 139.848 7.60502C139.848 6.62502 139.26 6.13502 138.084 6.13502H137.636V9.13102ZM144.065 11.595L143.309 13.499H141.783L145.087 4.77702H146.375L149.595 13.499H148.055L147.341 11.595H144.065ZM145.647 6.86302L144.415 10.461H146.949L145.647 6.86302ZM156.524 7.77302L154.396 13.611H154.046L152.044 7.74502L151.078 13.499H149.636L151.064 4.77702H152.128L154.34 10.615L156.454 4.77702H157.532L158.806 13.499H157.364L156.524 7.77302ZM165.944 7.77302L163.816 13.611H163.466L161.464 7.74502L160.498 13.499H159.056L160.484 4.77702H161.548L163.76 10.615L165.874 4.77702H166.952L168.226 13.499H166.784L165.944 7.77302ZM170.394 6.21902V8.43102H173.25V9.64902H170.394V12.281H173.348V13.499H168.952V5.00102H173.348V6.21902H170.394ZM180.09 13.499H178.312L175.904 9.71902L175.89 13.499H174.448V5.00102H176.702C178.596 5.00102 179.544 5.85502 179.544 7.56302C179.544 8.20702 179.376 8.74369 179.04 9.17302C178.713 9.60236 178.265 9.84969 177.696 9.91502L180.09 13.499ZM175.89 9.13102H176.324C177.509 9.13102 178.102 8.62236 178.102 7.60502C178.102 6.62502 177.514 6.13502 176.338 6.13502H175.89V9.13102Z" fill="white"/>
</svg>
