<svg width="264" height="180" viewBox="0 0 264 180" fill="none" xmlns="http://www.w3.org/2000/svg">
<rect width="264" height="180" transform="matrix(1 0 0 -1 0 180)" fill="black"/>
<path d="M55.776 127.912C54.928 126.888 53.864 126.376 52.584 126.376C51.256 126.376 50.144 126.928 49.248 128.032C48.352 129.12 47.904 130.368 47.904 131.776C47.904 133.136 48.344 134.36 49.224 135.448C50.12 136.52 51.232 137.056 52.56 137.056C53.824 137.056 54.896 136.544 55.776 135.52V138.52C54.592 139.096 53.496 139.384 52.488 139.384C50.472 139.384 48.776 138.64 47.4 137.152C46.024 135.664 45.336 133.888 45.336 131.824C45.336 129.68 46.024 127.848 47.4 126.328C48.776 124.808 50.488 124.048 52.536 124.048C53.608 124.048 54.688 124.328 55.776 124.888V127.912ZM56.961 131.752C56.961 129.624 57.641 127.808 59.001 126.304C60.377 124.8 62.105 124.048 64.185 124.048C66.265 124.048 67.985 124.8 69.345 126.304C70.705 127.808 71.385 129.616 71.385 131.728C71.385 133.84 70.705 135.648 69.345 137.152C68.001 138.64 66.281 139.384 64.185 139.384C62.089 139.384 60.361 138.64 59.001 137.152C57.641 135.664 56.961 133.864 56.961 131.752ZM59.529 131.584C59.529 133.008 59.977 134.264 60.873 135.352C61.769 136.424 62.873 136.96 64.185 136.96C65.593 136.96 66.721 136.448 67.569 135.424C68.417 134.384 68.841 133.104 68.841 131.584C68.841 130.144 68.417 128.936 67.569 127.96C66.721 126.968 65.585 126.472 64.161 126.472C62.753 126.472 61.625 126.968 60.777 127.96C59.945 128.952 59.529 130.16 59.529 131.584ZM75.2462 136.912H79.6382V139H72.7742V124.432H75.2462V136.912ZM79.8594 131.752C79.8594 129.624 80.5394 127.808 81.8994 126.304C83.2754 124.8 85.0034 124.048 87.0834 124.048C89.1634 124.048 90.8834 124.8 92.2434 126.304C93.6034 127.808 94.2834 129.616 94.2834 131.728C94.2834 133.84 93.6034 135.648 92.2434 137.152C90.8994 138.64 89.1794 139.384 87.0834 139.384C84.9874 139.384 83.2594 138.64 81.8994 137.152C80.5394 135.664 79.8594 133.864 79.8594 131.752ZM82.4274 131.584C82.4274 133.008 82.8754 134.264 83.7714 135.352C84.6674 136.424 85.7714 136.96 87.0834 136.96C88.4914 136.96 89.6194 136.448 90.4674 135.424C91.3154 134.384 91.7394 133.104 91.7394 131.584C91.7394 130.144 91.3154 128.936 90.4674 127.96C89.6194 126.968 88.4834 126.472 87.0594 126.472C85.6514 126.472 84.5234 126.968 83.6754 127.96C82.8434 128.952 82.4274 130.16 82.4274 131.584ZM105.345 139H102.297L98.1686 132.52L98.1446 139H95.6726V124.432H99.5366C102.785 124.432 104.409 125.896 104.409 128.824C104.409 129.928 104.121 130.848 103.545 131.584C102.985 132.32 102.217 132.744 101.241 132.856L105.345 139ZM98.1446 131.512H98.8886C100.921 131.512 101.937 130.64 101.937 128.896C101.937 127.216 100.929 126.376 98.9126 126.376H98.1446V131.512ZM122.51 137.296C121.038 138.576 119.646 139.216 118.334 139.216C117.118 139.216 116.134 138.832 115.382 138.064C114.646 137.28 114.278 136.304 114.278 135.136C114.278 133.536 114.91 132.336 116.174 131.536L117.374 130.768C116.494 129.488 116.054 128.448 116.054 127.648C116.054 126.64 116.382 125.816 117.038 125.176C117.71 124.52 118.566 124.192 119.605 124.192C120.662 124.192 121.518 124.52 122.174 125.176C122.846 125.816 123.182 126.656 123.182 127.696C123.182 128.88 122.358 130.016 120.71 131.104L122.846 133.936L124.526 131.992L126.109 133.504L124.31 135.616L126.974 139H123.878L122.51 137.296ZM119.51 129.664L120.038 129.28C120.742 128.8 121.094 128.2 121.094 127.48C121.094 126.408 120.638 125.872 119.726 125.872C118.814 125.872 118.358 126.392 118.358 127.432C118.358 127.8 118.478 128.16 118.718 128.512L119.51 129.664ZM118.598 132.328C117.366 133.256 116.75 134.112 116.75 134.896C116.75 136.32 117.39 137.032 118.67 137.032C119.294 137.032 120.094 136.56 121.07 135.616L118.598 132.328ZM138.527 126.52V130.312H143.423V132.4H138.527V136.912H143.591V139H136.055V124.432H143.591V126.52H138.527ZM156.469 129.184L152.821 139.192H152.221L148.789 129.136L147.133 139H144.661L147.109 124.048H148.933L152.725 134.056L156.349 124.048H158.197L160.381 139H157.909L156.469 129.184ZM160.93 131.752C160.93 129.624 161.61 127.808 162.97 126.304C164.346 124.8 166.074 124.048 168.154 124.048C170.234 124.048 171.954 124.8 173.314 126.304C174.674 127.808 175.354 129.616 175.354 131.728C175.354 133.84 174.674 135.648 173.314 137.152C171.97 138.64 170.25 139.384 168.154 139.384C166.058 139.384 164.33 138.64 162.97 137.152C161.61 135.664 160.93 133.864 160.93 131.752ZM163.498 131.584C163.498 133.008 163.946 134.264 164.842 135.352C165.738 136.424 166.842 136.96 168.154 136.96C169.562 136.96 170.69 136.448 171.538 135.424C172.386 134.384 172.81 133.104 172.81 131.584C172.81 130.144 172.386 128.936 171.538 127.96C170.69 126.968 169.554 126.472 168.13 126.472C166.722 126.472 165.594 126.968 164.746 127.96C163.914 128.952 163.498 130.16 163.498 131.584ZM181.183 139H178.951V126.52H175.711V124.432L184.423 124.432V126.52H181.183V139ZM188.126 139H185.654V124.432H188.126V139ZM189.664 131.752C189.664 129.624 190.344 127.808 191.704 126.304C193.08 124.8 194.808 124.048 196.888 124.048C198.968 124.048 200.688 124.8 202.048 126.304C203.408 127.808 204.088 129.616 204.088 131.728C204.088 133.84 203.408 135.648 202.048 137.152C200.704 138.64 198.984 139.384 196.888 139.384C194.792 139.384 193.064 138.64 191.704 137.152C190.344 135.664 189.664 133.864 189.664 131.752ZM192.232 131.584C192.232 133.008 192.68 134.264 193.576 135.352C194.472 136.424 195.576 136.96 196.888 136.96C198.296 136.96 199.424 136.448 200.272 135.424C201.12 134.384 201.544 133.104 201.544 131.584C201.544 130.144 201.12 128.936 200.272 127.96C199.424 126.968 198.288 126.472 196.864 126.472C195.456 126.472 194.328 126.968 193.48 127.96C192.648 128.952 192.232 130.16 192.232 131.584ZM205.477 124.048H207.349L215.581 135.016L215.629 124.432H218.077V139.288H216.229L207.973 128.344L207.949 139H205.477V124.048Z" fill="white"/>
<circle cx="133" cy="61" r="23" fill="url(#paint0_linear)"/>
<defs>
<linearGradient id="paint0_linear" x1="133" y1="73" x2="133" y2="25" gradientUnits="userSpaceOnUse">
<stop stop-color="white"/>
<stop offset="1" stop-color="white" stop-opacity="0"/>
</linearGradient>
</defs>
</svg>
