<svg width="128" height="18" viewBox="0 0 128 18" fill="none" xmlns="http://www.w3.org/2000/svg">
<path d="M7.146 8.52V4.074H8.982V15H7.146V9.978H2.628V15H0.774V4.074H2.628V8.52H7.146ZM12.5814 12.552L11.6094 15H9.64744L13.8954 3.786H15.5514L19.6914 15H17.7114L16.7934 12.552H12.5814ZM14.6154 6.468L13.0314 11.094H16.2894L14.6154 6.468ZM20.356 3.786H21.76L27.934 12.012L27.97 4.074H29.806V15.216H28.42L22.228 7.008L22.21 15H20.356V3.786ZM31.3599 4.074H34.4199C35.9799 4.074 37.2459 4.59 38.2179 5.622C39.2019 6.654 39.6939 7.956 39.6939 9.528C39.6939 11.1 39.1959 12.408 38.1999 13.452C37.2159 14.484 35.9499 15 34.4019 15H31.3599V4.074ZM33.2139 13.326H33.8439C36.4599 13.326 37.7679 12.066 37.7679 9.546C37.7679 7.014 36.4599 5.748 33.8439 5.748H33.2139V13.326ZM50.1612 12.156L52.5192 3.93H53.4912L55.9572 12.156L58.3692 4.074H60.3132L56.6052 15.216H55.2012L52.8792 7.71L50.6472 15.216H49.2252L45.7512 4.074H47.6952L50.1612 12.156ZM62.8716 15H61.0176V4.074H62.8716V15ZM67.8774 15H66.2034V5.64H63.7734V4.074H70.3074V5.64H67.8774V15ZM77.4585 8.52V4.074H79.2945V15H77.4585V9.978H72.9405V15H71.0865V4.074H72.9405V8.52H77.4585ZM93.2437 8.52V4.074H95.0797V15H93.2437V9.978H88.7257V15H86.8717V4.074H88.7257V8.52H93.2437ZM98.4991 5.64V8.484H102.171V10.05H98.4991V13.434H102.297V15H96.6451V4.074H102.297V5.64H98.4991ZM105.746 12.552L104.774 15H102.811L107.06 3.786H108.716L112.855 15H110.876L109.958 12.552H105.746ZM107.78 6.468L106.196 11.094H109.454L107.78 6.468ZM120.774 15H118.488L115.392 10.14L115.374 15H113.52V4.074H116.418C118.854 4.074 120.072 5.172 120.072 7.368C120.072 8.196 119.856 8.886 119.424 9.438C119.004 9.99 118.428 10.308 117.696 10.392L120.774 15ZM115.374 9.384H115.932C117.456 9.384 118.218 8.73 118.218 7.422C118.218 6.162 117.462 5.532 115.95 5.532H115.374V9.384ZM124.936 15H123.262V5.64H120.832V4.074H127.366V5.64H124.936V15Z" fill="black"/>
</svg>
