<svg width="264" height="180" viewBox="0 0 264 180" fill="none" xmlns="http://www.w3.org/2000/svg">
<rect width="264" height="180" transform="matrix(1 0 0 -1 0 180)" fill="black"/>
<path d="M56.528 123.36V117.432H58.976V132H56.528V125.304H50.504V132H48.032V117.432H50.504V123.36H56.528ZM63.7753 128.736L62.4793 132H59.8632L65.5273 117.048H67.7353L73.2552 132H70.6153L69.3913 128.736H63.7753ZM66.4873 120.624L64.3753 126.792H68.7193L66.4873 120.624ZM74.1414 117.048H76.0134L84.2454 128.016L84.2934 117.432H86.7414V132.288H84.8934L76.6374 121.344L76.6134 132H74.1414V117.048ZM88.8133 117.432H92.8933C94.9733 117.432 96.6613 118.12 97.9573 119.496C99.2693 120.872 99.9253 122.608 99.9253 124.704C99.9253 126.8 99.2613 128.544 97.9333 129.936C96.6213 131.312 94.9333 132 92.8693 132H88.8133V117.432ZM91.2853 129.768H92.1253C95.6133 129.768 97.3573 128.088 97.3573 124.728C97.3573 121.352 95.6133 119.664 92.1253 119.664H91.2853V129.768ZM113.882 128.208L117.026 117.24H118.322L121.61 128.208L124.826 117.432H127.418L122.474 132.288H120.602L117.506 122.28L114.53 132.288H112.634L108.002 117.432H110.594L113.882 128.208ZM130.829 132H128.357V117.432H130.829V132ZM137.503 132H135.271V119.52H132.031V117.432H140.743V119.52H137.503V132ZM150.278 123.36V117.432H152.726V132H150.278V125.304H144.254V132H141.782V117.432H144.254V123.36H150.278ZM171.325 123.36V117.432H173.773V132H171.325V125.304H165.301V132H162.829V117.432H165.301V123.36H171.325ZM178.332 119.52V123.312H183.228V125.4H178.332V129.912H183.396V132H175.86V117.432L183.396 117.432V119.52L178.332 119.52ZM187.994 128.736L186.698 132H184.082L189.746 117.048H191.954L197.474 132H194.834L193.61 128.736H187.994ZM190.706 120.624L188.594 126.792L192.938 126.792L190.706 120.624ZM208.032 132H204.984L200.856 125.52L200.832 132H198.36V117.432H202.224C205.472 117.432 207.096 118.896 207.096 121.824C207.096 122.928 206.808 123.848 206.232 124.584C205.672 125.32 204.904 125.744 203.928 125.856L208.032 132ZM200.832 124.512H201.576C203.608 124.512 204.624 123.64 204.624 121.896C204.624 120.216 203.616 119.376 201.6 119.376H200.832V124.512ZM213.581 132H211.349V119.52H208.109V117.432H216.821V119.52H213.581V132Z" fill="white"/>
<path d="M121.32 44.8662C118.854 47.3546 118.857 51.3586 121.32 53.8493L132.232 64.8868C135.874 61.2119 139.515 57.537 143.157 53.8621C145.623 51.3738 145.623 47.3673 143.157 44.879C140.691 42.3907 136.721 42.3906 134.255 44.879L132.245 46.9078L130.222 44.8662C127.756 42.3779 123.786 42.3779 121.32 44.8662Z" fill="white"/>
<path d="M112.234 73.0856C114.198 74.9782 117.36 74.9764 119.326 73.0856L128.04 64.7096C125.139 61.9144 122.237 59.1191 119.336 56.3239C117.371 54.4312 114.208 54.4312 112.244 56.3239C110.279 58.2166 110.279 61.264 112.244 63.1567L113.846 64.6999L112.234 66.2528C110.269 68.1455 110.269 71.1929 112.234 73.0856Z" fill="white"/>
<path d="M143.158 84.5425C145.624 82.0541 145.621 78.0501 143.158 75.5594L132.246 64.5219C128.604 68.1968 124.963 71.8717 121.321 75.5466C118.855 78.0349 118.855 82.0414 121.321 84.5297C123.787 87.018 127.757 87.018 130.223 84.5297L132.233 82.5009L134.256 84.5425C136.722 87.0308 140.692 87.0308 143.158 84.5425Z" fill="white"/>
<path d="M152.766 56.3231C150.802 54.4305 147.64 54.4323 145.674 56.3231L136.96 64.6991C139.861 67.4943 142.763 70.2896 145.664 73.0848C147.629 74.9775 150.792 74.9775 152.756 73.0848C154.721 71.1921 154.721 68.1447 152.756 66.252L151.154 64.7088L152.766 63.1559C154.731 61.2632 154.731 58.2158 152.766 56.3231Z" fill="white"/>
</svg>
