<svg width="156" height="16" viewBox="0 0 156 16" fill="none" xmlns="http://www.w3.org/2000/svg">
<rect width="156" height="16" fill="black"/>
<path d="M12.244 13H10.466L8.058 9.22L8.044 13H6.602L6.602 4.502H8.856C10.7507 4.502 11.698 5.356 11.698 7.064C11.698 7.708 11.53 8.24467 11.194 8.674C10.8673 9.10333 10.4193 9.35067 9.85 9.416L12.244 13ZM8.044 8.632H8.478C9.66333 8.632 10.256 8.12333 10.256 7.106C10.256 6.126 9.668 5.636 8.492 5.636H8.044V8.632ZM12.4851 8.772C12.4851 7.53067 12.8817 6.47133 13.6751 5.594C14.4777 4.71667 15.4857 4.278 16.6991 4.278C17.9124 4.278 18.9157 4.71667 19.7091 5.594C20.5024 6.47133 20.8991 7.526 20.8991 8.758C20.8991 9.99 20.5024 11.0447 19.7091 11.922C18.9251 12.79 17.9217 13.224 16.6991 13.224C15.4764 13.224 14.4684 12.79 13.6751 11.922C12.8817 11.054 12.4851 10.004 12.4851 8.772ZM13.9831 8.674C13.9831 9.50467 14.2444 10.2373 14.7671 10.872C15.2897 11.4973 15.9337 11.81 16.6991 11.81C17.5204 11.81 18.1784 11.5113 18.6731 10.914C19.1677 10.3073 19.4151 9.56067 19.4151 8.674C19.4151 7.834 19.1677 7.12933 18.6731 6.56C18.1784 5.98133 17.5157 5.692 16.6851 5.692C15.8637 5.692 15.2057 5.98133 14.7111 6.56C14.2257 7.13867 13.9831 7.84333 13.9831 8.674ZM23.1514 11.782H25.7134V13L21.7094 13V4.502H23.1514V11.782ZM27.6905 5.72V7.932L30.5465 7.932V9.15H27.6905V11.782H30.6445V13H26.2485V4.502H30.6445V5.72L27.6905 5.72ZM33.7746 12.202C33.7746 12.482 33.6766 12.7247 33.4806 12.93C33.2939 13.126 33.0606 13.224 32.7806 13.224C32.5006 13.224 32.2626 13.126 32.0666 12.93C31.8706 12.734 31.7726 12.5007 31.7726 12.23C31.7726 11.95 31.8706 11.712 32.0666 11.516C32.2626 11.32 32.4959 11.222 32.7666 11.222C33.0466 11.222 33.2846 11.3153 33.4806 11.502C33.6766 11.6887 33.7746 11.922 33.7746 12.202ZM33.7746 8.142C33.7746 8.422 33.6766 8.66467 33.4806 8.87C33.2939 9.066 33.0606 9.164 32.7806 9.164C32.5006 9.164 32.2626 9.066 32.0666 8.87C31.8706 8.674 31.7726 8.44067 31.7726 8.17C31.7726 7.89 31.8706 7.652 32.0666 7.456C32.2626 7.26 32.4959 7.162 32.7666 7.162C33.0466 7.162 33.2846 7.25533 33.4806 7.442C33.6766 7.62867 33.7746 7.862 33.7746 8.142ZM39.6459 4.502H41.0879V9.262C41.0879 11.0913 41.6619 12.006 42.8099 12.006C43.9579 12.006 44.5319 11.0913 44.5319 9.262V4.502H45.9599V9.584C45.9599 12.0107 44.9053 13.224 42.7959 13.224C40.6959 13.224 39.6459 12.0107 39.6459 9.584V4.502ZM48.6794 13H47.2374V4.502H48.6794V13ZM55.1069 3.872L50.9629 14.848L49.7449 14.4L53.8749 3.41L55.1069 3.872ZM56.0112 4.502H57.4532V9.262C57.4532 11.0913 58.0272 12.006 59.1752 12.006C60.3232 12.006 60.8972 11.0913 60.8972 9.262V4.502H62.3252V9.584C62.3252 12.0107 61.2705 13.224 59.1612 13.224C57.0612 13.224 56.0112 12.0107 56.0112 9.584V4.502ZM63.3367 4.502H65.0727L66.5427 7.33L67.8867 4.502H69.6227L67.2847 8.492L69.8887 13H68.1807L66.3607 9.752L64.6247 13H62.9167L65.6187 8.478L63.3367 4.502ZM76.6358 13H75.1938V4.502H77.4478C79.4171 4.502 80.4018 5.37933 80.4018 7.134C80.4018 8.926 79.4965 9.822 77.6858 9.822H76.6358V13ZM76.6358 8.674H77.3498C78.4045 8.674 78.9318 8.16067 78.9318 7.134C78.9318 6.14467 78.3905 5.65 77.3078 5.65H76.6358V8.674ZM86.7831 13L85.0051 13L82.5971 9.22L82.5831 13H81.1411V4.502L83.3951 4.502C85.2897 4.502 86.2371 5.356 86.2371 7.064C86.2371 7.708 86.0691 8.24467 85.7331 8.674C85.4064 9.10333 84.9584 9.35067 84.3891 9.416L86.7831 13ZM82.5831 8.632H83.0171C84.2024 8.632 84.7951 8.12333 84.7951 7.106C84.7951 6.126 84.2071 5.636 83.0311 5.636H82.5831V8.632ZM87.0241 8.772C87.0241 7.53067 87.4208 6.47133 88.2141 5.594C89.0168 4.71667 90.0248 4.278 91.2381 4.278C92.4515 4.278 93.4548 4.71667 94.2481 5.594C95.0415 6.47133 95.4381 7.526 95.4381 8.758C95.4381 9.99 95.0415 11.0447 94.2481 11.922C93.4641 12.79 92.4608 13.224 91.2381 13.224C90.0155 13.224 89.0075 12.79 88.2141 11.922C87.4208 11.054 87.0241 10.004 87.0241 8.772ZM88.5221 8.674C88.5221 9.50467 88.7835 10.2373 89.3061 10.872C89.8288 11.4973 90.4728 11.81 91.2381 11.81C92.0595 11.81 92.7175 11.5113 93.2121 10.914C93.7068 10.3073 93.9541 9.56067 93.9541 8.674C93.9541 7.834 93.7068 7.12933 93.2121 6.56C92.7175 5.98133 92.0548 5.692 91.2241 5.692C90.4028 5.692 89.7448 5.98133 89.2501 6.56C88.7648 7.13867 88.5221 7.84333 88.5221 8.674ZM103.766 8.478V8.688C103.766 10.0413 103.421 11.138 102.73 11.978C102.04 12.8087 101.092 13.224 99.8885 13.224C98.7218 13.224 97.7558 12.7947 96.9905 11.936C96.2252 11.0773 95.8425 10.0273 95.8425 8.786C95.8425 7.498 96.2298 6.42467 97.0045 5.566C97.7885 4.70733 98.7872 4.278 100 4.278C101.568 4.278 102.688 4.95467 103.36 6.308L102.072 6.994C101.643 6.014 100.938 5.524 99.9585 5.524C99.2025 5.524 98.5772 5.85067 98.0825 6.504C97.5878 7.148 97.3405 7.91333 97.3405 8.8C97.3405 9.68667 97.5832 10.438 98.0685 11.054C98.5538 11.67 99.1838 11.978 99.9585 11.978C100.621 11.978 101.148 11.7447 101.54 11.278C101.932 10.8113 102.128 10.256 102.128 9.612H100.098V8.478H103.766ZM110.217 13H108.439L106.031 9.22L106.017 13H104.575V4.502H106.829C108.723 4.502 109.671 5.356 109.671 7.064C109.671 7.708 109.503 8.24467 109.167 8.674C108.84 9.10333 108.392 9.35067 107.823 9.416L110.217 13ZM106.017 8.632H106.451C107.636 8.632 108.229 8.12333 108.229 7.106C108.229 6.126 107.641 5.636 106.465 5.636H106.017V8.632ZM112.446 11.096L111.69 13H110.164L113.468 4.278L114.756 4.278L117.976 13H116.436L115.722 11.096H112.446ZM114.028 6.364L112.796 9.962H115.33L114.028 6.364ZM124.905 7.274L122.777 13.112H122.427L120.425 7.246L119.459 13H118.017L119.445 4.278H120.509L122.721 10.116L124.835 4.278H125.913L127.187 13H125.745L124.905 7.274ZM134.325 7.274L132.197 13.112H131.847L129.845 7.246L128.879 13H127.437L128.865 4.278H129.929L132.141 10.116L134.255 4.278H135.333L136.607 13H135.165L134.325 7.274ZM138.774 5.72V7.932H141.63V9.15H138.774V11.782H141.728V13H137.332V4.502H141.728V5.72H138.774ZM148.471 13H146.693L144.285 9.22L144.271 13H142.829V4.502H145.083C146.977 4.502 147.925 5.356 147.925 7.064C147.925 7.708 147.757 8.24467 147.421 8.674C147.094 9.10333 146.646 9.35067 146.077 9.416L148.471 13ZM144.271 8.632H144.705C145.89 8.632 146.483 8.12333 146.483 7.106C146.483 6.126 145.895 5.636 144.719 5.636H144.271V8.632Z" fill="white"/>
</svg>
