<svg width="312" height="316" viewBox="0 0 312 316" fill="none" xmlns="http://www.w3.org/2000/svg">
<rect width="312" height="316" transform="matrix(1 0 0 -1 0 316)" fill="black"/>
<path d="M42.656 139.912V142H32.288L38.912 129.52H33.08V127.432H42.824L36.176 139.912H42.656ZM46.8054 142H44.3334V127.432H46.8054V142ZM65.5514 133.36V127.432H67.9994V142H65.5514V135.304H59.5274V142H57.0554V127.432H59.5274V133.36H65.5514ZM70.0147 127.432H72.4867V135.592C72.4867 138.728 73.4707 140.296 75.4387 140.296C77.4067 140.296 78.3907 138.728 78.3907 135.592V127.432H80.8387V136.144C80.8387 140.304 79.0307 142.384 75.4147 142.384C71.8147 142.384 70.0147 140.304 70.0147 136.144V127.432ZM85.5487 138.736L84.2527 142H81.6367L87.3007 127.048H89.5087L95.0287 142H92.3887L91.1647 138.736H85.5487ZM88.2607 130.624L86.1487 136.792H90.4927L88.2607 130.624Z" fill="white"/>
<rect x="31" y="29.0696" width="10" height="20" fill="white"/>
<rect x="31" y="53" width="10" height="23" fill="white"/>
<rect x="44.9912" y="29.0347" width="10" height="13" fill="white"/>
<rect x="45.0332" y="46.0347" width="10" height="13" fill="white"/>
<rect x="45.0762" y="63.0347" width="10" height="13" fill="white"/>
<rect x="59.0049" y="29" width="10" height="24" fill="white"/>
<rect x="59" y="57" width="10" height="9" fill="white"/>
<rect x="59" y="70" width="10" height="6" fill="white"/>
<path d="M41.082 182.684C40.446 181.916 39.648 181.532 38.688 181.532C37.692 181.532 36.858 181.946 36.186 182.774C35.514 183.59 35.178 184.526 35.178 185.582C35.178 186.602 35.508 187.52 36.168 188.336C36.84 189.14 37.674 189.542 38.67 189.542C39.618 189.542 40.422 189.158 41.082 188.39V190.64C40.194 191.072 39.372 191.288 38.616 191.288C37.104 191.288 35.832 190.73 34.8 189.614C33.768 188.498 33.252 187.166 33.252 185.618C33.252 184.01 33.768 182.636 34.8 181.496C35.832 180.356 37.116 179.786 38.652 179.786C39.456 179.786 40.266 179.996 41.082 180.416V182.684ZM44.1848 184.628C44.6288 183.98 45.3248 183.656 46.2728 183.656C46.5728 183.656 46.8488 183.716 47.1008 183.836L46.8848 185.42C46.6208 185.252 46.3328 185.168 46.0208 185.168C44.7968 185.168 44.1848 186.044 44.1848 187.796V191H42.4388V183.89H44.1848V184.628ZM49.0973 187.616C49.0973 188.3 49.2473 188.864 49.5473 189.308C49.8473 189.752 50.2613 189.974 50.7893 189.974C51.6173 189.974 52.1453 189.566 52.3733 188.75L54.0293 189.02C53.4893 190.496 52.4093 191.234 50.7893 191.234C49.7093 191.234 48.8453 190.892 48.1973 190.208C47.5613 189.512 47.2433 188.612 47.2433 187.508C47.2433 186.344 47.5493 185.414 48.1613 184.718C48.7853 184.01 49.6253 183.656 50.6813 183.656C51.7493 183.656 52.5773 183.992 53.1653 184.664C53.7653 185.324 54.0653 186.23 54.0653 187.382V187.616H49.0973ZM52.4453 186.644C52.4453 186.152 52.2893 185.72 51.9773 185.348C51.6773 184.976 51.2813 184.79 50.7893 184.79C50.3093 184.79 49.9133 184.988 49.6013 185.384C49.3013 185.768 49.1513 186.188 49.1513 186.644H52.4453ZM61.7391 191H60.0291V190.352C59.5251 190.94 58.7751 191.234 57.7791 191.234C56.7831 191.234 55.9851 190.85 55.3851 190.082C54.7971 189.314 54.5031 188.414 54.5031 187.382C54.5031 186.35 54.8031 185.474 55.4031 184.754C56.0151 184.022 56.7951 183.656 57.7431 183.656C58.7511 183.656 59.5131 183.956 60.0291 184.556V183.89H61.7391V191ZM60.2271 187.436C60.2271 186.776 60.0411 186.236 59.6691 185.816C59.2971 185.384 58.8171 185.168 58.2291 185.168C57.6531 185.168 57.1791 185.378 56.8071 185.798C56.4471 186.206 56.2671 186.752 56.2671 187.436C56.2671 188.12 56.4531 188.672 56.8251 189.092C57.1971 189.512 57.6771 189.722 58.2651 189.722C58.8531 189.722 59.3271 189.518 59.6871 189.11C60.0471 188.702 60.2271 188.144 60.2271 187.436ZM65.3405 191H63.5945V185.456H62.7485V184.034H63.5945V181.478H65.3405V184.034H66.7265V185.456H65.3405V191ZM69.3132 180.902C69.3132 181.178 69.2112 181.418 69.0072 181.622C68.8032 181.826 68.5632 181.928 68.2872 181.928C68.0112 181.928 67.7712 181.826 67.5672 181.622C67.3632 181.418 67.2612 181.178 67.2612 180.902C67.2612 180.626 67.3632 180.386 67.5672 180.182C67.7712 179.978 68.0112 179.876 68.2872 179.876C68.5632 179.876 68.8032 179.978 69.0072 180.182C69.2112 180.386 69.3132 180.626 69.3132 180.902ZM69.1692 191H67.4232V183.89H69.1692V191ZM72.591 184.538C73.083 183.95 73.809 183.656 74.769 183.656C76.401 183.656 77.217 184.658 77.217 186.662V191H75.489V187.238C75.489 185.738 75.027 184.988 74.103 184.988C73.095 184.988 72.591 185.792 72.591 187.4V191H70.845V183.89H72.591V184.538ZM85.4353 190.388C85.4353 192.824 84.3013 194.042 82.0333 194.042C81.0253 194.042 80.1733 193.766 79.4773 193.214C78.7813 192.674 78.4333 191.966 78.4333 191.09H80.2873C80.2873 191.438 80.4613 191.78 80.8093 192.116C81.1573 192.452 81.5473 192.62 81.9793 192.62C83.1193 192.62 83.6893 191.936 83.6893 190.568V190.118C83.1973 190.742 82.4473 191.054 81.4393 191.054C80.4433 191.054 79.6573 190.706 79.0813 190.01C78.5173 189.314 78.2353 188.462 78.2353 187.454C78.2353 186.362 78.5413 185.45 79.1533 184.718C79.7653 183.986 80.5573 183.62 81.5293 183.62C82.5133 183.62 83.2333 183.926 83.6893 184.538V183.854H85.4353V190.388ZM83.9413 187.292C83.9413 186.644 83.7613 186.122 83.4013 185.726C83.0413 185.33 82.5673 185.132 81.9793 185.132C81.3913 185.132 80.9113 185.348 80.5393 185.78C80.1793 186.212 79.9993 186.758 79.9993 187.418C79.9993 188.834 80.6593 189.542 81.9793 189.542C82.5793 189.542 83.0533 189.332 83.4013 188.912C83.7613 188.48 83.9413 187.94 83.9413 187.292ZM94.7797 191H93.0337V185.456H92.2057V184.034H93.0337V181.802C93.0337 179.63 93.8797 178.544 95.5717 178.544C95.9197 178.544 96.2437 178.622 96.5437 178.778V180.29C96.2317 180.134 95.9557 180.056 95.7157 180.056C95.3917 180.056 95.1517 180.176 94.9957 180.416C94.8517 180.644 94.7797 181.202 94.7797 182.09V184.034H96.5437V185.456H94.7797V191ZM103.944 191H102.234V190.352C101.73 190.94 100.98 191.234 99.9842 191.234C98.9882 191.234 98.1902 190.85 97.5902 190.082C97.0022 189.314 96.7082 188.414 96.7082 187.382C96.7082 186.35 97.0082 185.474 97.6082 184.754C98.2202 184.022 99.0002 183.656 99.9482 183.656C100.956 183.656 101.718 183.956 102.234 184.556V183.89H103.944V191ZM102.432 187.436C102.432 186.776 102.246 186.236 101.874 185.816C101.502 185.384 101.022 185.168 100.434 185.168C99.8582 185.168 99.3842 185.378 99.0122 185.798C98.6522 186.206 98.4722 186.752 98.4722 187.436C98.4722 188.12 98.6582 188.672 99.0302 189.092C99.4022 189.512 99.8822 189.722 100.47 189.722C101.058 189.722 101.532 189.518 101.892 189.11C102.252 188.702 102.432 188.144 102.432 187.436ZM107.258 186.878L109.742 183.89H112.082L109.094 187.022L112.316 191H109.94L107.294 187.544L107.258 191H105.512V178.706H107.258V186.878ZM114.365 187.616C114.365 188.3 114.515 188.864 114.815 189.308C115.115 189.752 115.529 189.974 116.057 189.974C116.885 189.974 117.413 189.566 117.641 188.75L119.297 189.02C118.757 190.496 117.677 191.234 116.057 191.234C114.977 191.234 114.113 190.892 113.465 190.208C112.829 189.512 112.511 188.612 112.511 187.508C112.511 186.344 112.817 185.414 113.429 184.718C114.053 184.01 114.893 183.656 115.949 183.656C117.017 183.656 117.845 183.992 118.433 184.664C119.033 185.324 119.333 186.23 119.333 187.382V187.616H114.365ZM117.713 186.644C117.713 186.152 117.557 185.72 117.245 185.348C116.945 184.976 116.549 184.79 116.057 184.79C115.577 184.79 115.181 184.988 114.869 185.384C114.569 185.768 114.419 186.188 114.419 186.644H117.713ZM133.648 182.684C133.012 181.916 132.214 181.532 131.254 181.532C130.258 181.532 129.424 181.946 128.752 182.774C128.08 183.59 127.744 184.526 127.744 185.582C127.744 186.602 128.074 187.52 128.734 188.336C129.406 189.14 130.24 189.542 131.236 189.542C132.184 189.542 132.988 189.158 133.648 188.39V190.64C132.76 191.072 131.938 191.288 131.182 191.288C129.67 191.288 128.398 190.73 127.366 189.614C126.334 188.498 125.818 187.166 125.818 185.618C125.818 184.01 126.334 182.636 127.366 181.496C128.398 180.356 129.682 179.786 131.218 179.786C132.022 179.786 132.832 179.996 133.648 180.416V182.684ZM136.751 178.706V184.484C137.207 183.932 137.933 183.656 138.929 183.656C139.673 183.656 140.267 183.944 140.711 184.52C141.155 185.096 141.377 185.81 141.377 186.662V191H139.649V187.238C139.649 185.738 139.187 184.988 138.263 184.988C137.255 184.988 136.751 185.816 136.751 187.472V191H135.005V178.706H136.751ZM144.969 180.902C144.969 181.178 144.867 181.418 144.663 181.622C144.459 181.826 144.219 181.928 143.943 181.928C143.667 181.928 143.427 181.826 143.223 181.622C143.019 181.418 142.917 181.178 142.917 180.902C142.917 180.626 143.019 180.386 143.223 180.182C143.427 179.978 143.667 179.876 143.943 179.876C144.219 179.876 144.459 179.978 144.663 180.182C144.867 180.386 144.969 180.626 144.969 180.902ZM144.825 191H143.079V183.89H144.825V191ZM148.247 184.538C148.739 183.95 149.465 183.656 150.425 183.656C152.057 183.656 152.873 184.658 152.873 186.662V191H151.145V187.238C151.145 185.738 150.683 184.988 149.759 184.988C148.751 184.988 148.247 185.792 148.247 187.4V191H146.501V183.89H148.247V184.538ZM155.674 187.616C155.674 188.3 155.824 188.864 156.124 189.308C156.424 189.752 156.838 189.974 157.366 189.974C158.194 189.974 158.722 189.566 158.95 188.75L160.606 189.02C160.066 190.496 158.986 191.234 157.366 191.234C156.286 191.234 155.422 190.892 154.774 190.208C154.138 189.512 153.82 188.612 153.82 187.508C153.82 186.344 154.126 185.414 154.738 184.718C155.362 184.01 156.202 183.656 157.258 183.656C158.326 183.656 159.154 183.992 159.742 184.664C160.342 185.324 160.642 186.23 160.642 187.382V187.616H155.674ZM159.022 186.644C159.022 186.152 158.866 185.72 158.554 185.348C158.254 184.976 157.858 184.79 157.366 184.79C156.886 184.79 156.49 184.988 156.178 185.384C155.878 185.768 155.728 186.188 155.728 186.644H159.022ZM165.381 185.366C164.997 185.006 164.595 184.826 164.175 184.826C163.539 184.826 163.221 185.114 163.221 185.69C163.221 186.014 163.509 186.278 164.085 186.482C165.141 186.866 165.795 187.22 166.047 187.544C166.299 187.856 166.425 188.246 166.425 188.714C166.425 189.482 166.155 190.094 165.615 190.55C165.087 191.006 164.433 191.234 163.653 191.234C162.645 191.234 161.811 190.838 161.151 190.046L161.925 189.056C162.525 189.656 163.077 189.956 163.581 189.956C164.313 189.956 164.679 189.602 164.679 188.894C164.679 188.534 164.487 188.27 164.103 188.102C163.719 187.922 163.425 187.79 163.221 187.706C162.117 187.226 161.565 186.644 161.565 185.96C161.565 185.276 161.769 184.724 162.177 184.304C162.597 183.872 163.143 183.656 163.815 183.656C164.775 183.656 165.537 183.902 166.101 184.394L165.381 185.366ZM168.875 187.616C168.875 188.3 169.025 188.864 169.325 189.308C169.625 189.752 170.039 189.974 170.567 189.974C171.395 189.974 171.923 189.566 172.151 188.75L173.807 189.02C173.267 190.496 172.187 191.234 170.567 191.234C169.487 191.234 168.623 190.892 167.975 190.208C167.339 189.512 167.021 188.612 167.021 187.508C167.021 186.344 167.327 185.414 167.939 184.718C168.563 184.01 169.403 183.656 170.459 183.656C171.527 183.656 172.355 183.992 172.943 184.664C173.543 185.324 173.843 186.23 173.843 187.382V187.616H168.875ZM172.223 186.644C172.223 186.152 172.067 185.72 171.755 185.348C171.455 184.976 171.059 184.79 170.567 184.79C170.087 184.79 169.691 184.988 169.379 185.384C169.079 185.768 168.929 186.188 168.929 186.644H172.223ZM185.638 185.744C185.194 185.3 184.696 185.078 184.144 185.078C183.496 185.078 182.986 185.312 182.614 185.78C182.242 186.248 182.056 186.824 182.056 187.508C182.056 188.18 182.266 188.732 182.686 189.164C183.106 189.596 183.616 189.812 184.216 189.812C184.732 189.812 185.206 189.584 185.638 189.128V190.802C185.134 191.09 184.552 191.234 183.892 191.234C182.86 191.234 182.002 190.868 181.318 190.136C180.634 189.404 180.292 188.51 180.292 187.454C180.292 186.398 180.64 185.504 181.336 184.772C182.044 184.028 182.926 183.656 183.982 183.656C184.606 183.656 185.158 183.806 185.638 184.106V185.744ZM188.642 178.706V184.484C189.098 183.932 189.824 183.656 190.82 183.656C191.564 183.656 192.158 183.944 192.602 184.52C193.046 185.096 193.268 185.81 193.268 186.662V191H191.54V187.238C191.54 185.738 191.078 184.988 190.154 184.988C189.146 184.988 188.642 185.816 188.642 187.472V191H186.896V178.706H188.642ZM201.45 191H199.74V190.352C199.236 190.94 198.486 191.234 197.49 191.234C196.494 191.234 195.696 190.85 195.096 190.082C194.508 189.314 194.214 188.414 194.214 187.382C194.214 186.35 194.514 185.474 195.114 184.754C195.726 184.022 196.506 183.656 197.454 183.656C198.462 183.656 199.224 183.956 199.74 184.556V183.89H201.45V191ZM199.938 187.436C199.938 186.776 199.752 186.236 199.38 185.816C199.008 185.384 198.528 185.168 197.94 185.168C197.364 185.168 196.89 185.378 196.518 185.798C196.158 186.206 195.978 186.752 195.978 187.436C195.978 188.12 196.164 188.672 196.536 189.092C196.908 189.512 197.388 189.722 197.976 189.722C198.564 189.722 199.038 189.518 199.398 189.11C199.758 188.702 199.938 188.144 199.938 187.436ZM204.655 184.628C205.099 183.98 205.795 183.656 206.743 183.656C207.043 183.656 207.319 183.716 207.571 183.836L207.355 185.42C207.091 185.252 206.803 185.168 206.491 185.168C205.267 185.168 204.655 186.044 204.655 187.796V191H202.909V183.89H204.655V184.628ZM214.95 191H213.24V190.352C212.736 190.94 211.986 191.234 210.99 191.234C209.994 191.234 209.196 190.85 208.596 190.082C208.008 189.314 207.714 188.414 207.714 187.382C207.714 186.35 208.014 185.474 208.614 184.754C209.226 184.022 210.006 183.656 210.954 183.656C211.962 183.656 212.724 183.956 213.24 184.556V183.89H214.95V191ZM213.438 187.436C213.438 186.776 213.252 186.236 212.88 185.816C212.508 185.384 212.028 185.168 211.44 185.168C210.864 185.168 210.39 185.378 210.018 185.798C209.658 186.206 209.478 186.752 209.478 187.436C209.478 188.12 209.664 188.672 210.036 189.092C210.408 189.512 210.888 189.722 211.476 189.722C212.064 189.722 212.538 189.518 212.898 189.11C213.258 188.702 213.438 188.144 213.438 187.436ZM221.251 185.744C220.807 185.3 220.309 185.078 219.757 185.078C219.109 185.078 218.599 185.312 218.227 185.78C217.855 186.248 217.669 186.824 217.669 187.508C217.669 188.18 217.879 188.732 218.299 189.164C218.719 189.596 219.229 189.812 219.829 189.812C220.345 189.812 220.819 189.584 221.251 189.128V190.802C220.747 191.09 220.165 191.234 219.505 191.234C218.473 191.234 217.615 190.868 216.931 190.136C216.247 189.404 215.905 188.51 215.905 187.454C215.905 186.398 216.253 185.504 216.949 184.772C217.657 184.028 218.539 183.656 219.595 183.656C220.219 183.656 220.771 183.806 221.251 184.106V185.744ZM224.651 191H222.905V185.456H222.059V184.034H222.905V181.478H224.651V184.034H226.037V185.456H224.651V191ZM227.832 187.616C227.832 188.3 227.982 188.864 228.282 189.308C228.582 189.752 228.996 189.974 229.524 189.974C230.352 189.974 230.88 189.566 231.108 188.75L232.764 189.02C232.224 190.496 231.144 191.234 229.524 191.234C228.444 191.234 227.58 190.892 226.932 190.208C226.296 189.512 225.978 188.612 225.978 187.508C225.978 186.344 226.284 185.414 226.896 184.718C227.52 184.01 228.36 183.656 229.416 183.656C230.484 183.656 231.312 183.992 231.9 184.664C232.5 185.324 232.8 186.23 232.8 187.382V187.616H227.832ZM231.18 186.644C231.18 186.152 231.024 185.72 230.712 185.348C230.412 184.976 230.016 184.79 229.524 184.79C229.044 184.79 228.648 184.988 228.336 185.384C228.036 185.768 227.886 186.188 227.886 186.644H231.18ZM235.487 184.628C235.931 183.98 236.627 183.656 237.575 183.656C237.875 183.656 238.151 183.716 238.403 183.836L238.187 185.42C237.923 185.252 237.635 185.168 237.323 185.168C236.099 185.168 235.487 186.044 235.487 187.796V191H233.741V183.89H235.487V184.628ZM242.848 185.366C242.464 185.006 242.062 184.826 241.642 184.826C241.006 184.826 240.688 185.114 240.688 185.69C240.688 186.014 240.976 186.278 241.552 186.482C242.608 186.866 243.262 187.22 243.514 187.544C243.766 187.856 243.892 188.246 243.892 188.714C243.892 189.482 243.622 190.094 243.082 190.55C242.554 191.006 241.9 191.234 241.12 191.234C240.112 191.234 239.278 190.838 238.618 190.046L239.392 189.056C239.992 189.656 240.544 189.956 241.048 189.956C241.78 189.956 242.146 189.602 242.146 188.894C242.146 188.534 241.954 188.27 241.57 188.102C241.186 187.922 240.892 187.79 240.688 187.706C239.584 187.226 239.032 186.644 239.032 185.96C239.032 185.276 239.236 184.724 239.644 184.304C240.064 183.872 240.61 183.656 241.282 183.656C242.242 183.656 243.004 183.902 243.568 184.394L242.848 185.366ZM35.43 201.89V205.742C35.43 207.122 35.91 207.812 36.87 207.812C37.83 207.812 38.31 207.122 38.31 205.742V201.89H40.056V206.066C40.056 208.178 38.994 209.234 36.87 209.234C34.746 209.234 33.684 208.178 33.684 206.066V201.89H35.43ZM45.27 203.366C44.886 203.006 44.484 202.826 44.064 202.826C43.428 202.826 43.11 203.114 43.11 203.69C43.11 204.014 43.398 204.278 43.974 204.482C45.03 204.866 45.684 205.22 45.936 205.544C46.188 205.856 46.314 206.246 46.314 206.714C46.314 207.482 46.044 208.094 45.504 208.55C44.976 209.006 44.322 209.234 43.542 209.234C42.534 209.234 41.7 208.838 41.04 208.046L41.814 207.056C42.414 207.656 42.966 207.956 43.47 207.956C44.202 207.956 44.568 207.602 44.568 206.894C44.568 206.534 44.376 206.27 43.992 206.102C43.608 205.922 43.314 205.79 43.11 205.706C42.006 205.226 41.454 204.644 41.454 203.96C41.454 203.276 41.658 202.724 42.066 202.304C42.486 201.872 43.032 201.656 43.704 201.656C44.664 201.656 45.426 201.902 45.99 202.394L45.27 203.366ZM49.5554 198.902C49.5554 199.178 49.4534 199.418 49.2494 199.622C49.0454 199.826 48.8054 199.928 48.5294 199.928C48.2534 199.928 48.0134 199.826 47.8094 199.622C47.6054 199.418 47.5034 199.178 47.5034 198.902C47.5034 198.626 47.6054 198.386 47.8094 198.182C48.0134 197.978 48.2534 197.876 48.5294 197.876C48.8054 197.876 49.0454 197.978 49.2494 198.182C49.4534 198.386 49.5554 198.626 49.5554 198.902ZM49.4114 209H47.6654V201.89H49.4114V209ZM52.8332 202.538C53.3252 201.95 54.0512 201.656 55.0112 201.656C56.6432 201.656 57.4592 202.658 57.4592 204.662V209H55.7312V205.238C55.7312 203.738 55.2692 202.988 54.3452 202.988C53.3372 202.988 52.8332 203.792 52.8332 205.4V209H51.0872V201.89H52.8332V202.538ZM65.6775 208.388C65.6775 210.824 64.5435 212.042 62.2755 212.042C61.2675 212.042 60.4155 211.766 59.7195 211.214C59.0235 210.674 58.6755 209.966 58.6755 209.09H60.5295C60.5295 209.438 60.7035 209.78 61.0515 210.116C61.3995 210.452 61.7895 210.62 62.2215 210.62C63.3615 210.62 63.9315 209.936 63.9315 208.568V208.118C63.4395 208.742 62.6895 209.054 61.6815 209.054C60.6855 209.054 59.8995 208.706 59.3235 208.01C58.7595 207.314 58.4775 206.462 58.4775 205.454C58.4775 204.362 58.7835 203.45 59.3955 202.718C60.0075 201.986 60.7995 201.62 61.7715 201.62C62.7555 201.62 63.4755 201.926 63.9315 202.538V201.854H65.6775V208.388ZM64.1835 205.292C64.1835 204.644 64.0035 204.122 63.6435 203.726C63.2835 203.33 62.8095 203.132 62.2215 203.132C61.6335 203.132 61.1535 203.348 60.7815 203.78C60.4215 204.212 60.2415 204.758 60.2415 205.418C60.2415 206.834 60.9015 207.542 62.2215 207.542C62.8215 207.542 63.2955 207.332 63.6435 206.912C64.0035 206.48 64.1835 205.94 64.1835 205.292ZM78.4058 200.288C77.9378 199.628 77.3438 199.298 76.6238 199.298C76.1678 199.298 75.7838 199.436 75.4718 199.712C75.1598 199.988 75.0038 200.36 75.0038 200.828C75.0038 201.284 75.5678 201.83 76.6958 202.466C77.8358 203.102 78.4118 203.42 78.4238 203.42C79.2278 204.02 79.6298 204.728 79.6298 205.544C79.6298 206.66 79.3058 207.566 78.6578 208.262C78.0218 208.946 77.1458 209.288 76.0298 209.288C74.6138 209.288 73.4978 208.58 72.6818 207.164L73.8518 206.012C74.0078 206.432 74.2958 206.816 74.7158 207.164C75.1358 207.512 75.5678 207.686 76.0118 207.686C76.5398 207.686 76.9538 207.506 77.2538 207.146C77.5658 206.786 77.7218 206.348 77.7218 205.832C77.7218 205.46 77.6078 205.136 77.3798 204.86C77.1518 204.572 76.3778 204.14 75.0578 203.564C73.7498 202.976 73.0958 202.142 73.0958 201.062C73.0958 200.138 73.3958 199.364 73.9958 198.74C74.6078 198.104 75.3698 197.786 76.2818 197.786C77.5418 197.786 78.5378 198.194 79.2698 199.01L78.4058 200.288ZM82.5252 204.878L85.0092 201.89H87.3492L84.3612 205.022L87.5832 209H85.2072L82.5612 205.544L82.5252 209H80.7792V196.706H82.5252V204.878ZM89.6325 205.616C89.6325 206.3 89.7825 206.864 90.0825 207.308C90.3825 207.752 90.7965 207.974 91.3245 207.974C92.1525 207.974 92.6805 207.566 92.9085 206.75L94.5645 207.02C94.0245 208.496 92.9445 209.234 91.3245 209.234C90.2445 209.234 89.3805 208.892 88.7325 208.208C88.0965 207.512 87.7785 206.612 87.7785 205.508C87.7785 204.344 88.0845 203.414 88.6965 202.718C89.3205 202.01 90.1605 201.656 91.2165 201.656C92.2845 201.656 93.1125 201.992 93.7005 202.664C94.3005 203.324 94.6005 204.23 94.6005 205.382V205.616H89.6325ZM92.9805 204.644C92.9805 204.152 92.8245 203.72 92.5125 203.348C92.2125 202.976 91.8165 202.79 91.3245 202.79C90.8445 202.79 90.4485 202.988 90.1365 203.384C89.8365 203.768 89.6865 204.188 89.6865 204.644H92.9805ZM97.6843 209H95.9383V203.456H95.0923V202.034H95.9383V199.478H97.6843V202.034H99.0703V203.456H97.6843V209ZM104.357 203.744C103.913 203.3 103.415 203.078 102.863 203.078C102.215 203.078 101.705 203.312 101.333 203.78C100.961 204.248 100.775 204.824 100.775 205.508C100.775 206.18 100.985 206.732 101.405 207.164C101.825 207.596 102.335 207.812 102.935 207.812C103.451 207.812 103.925 207.584 104.357 207.128V208.802C103.853 209.09 103.271 209.234 102.611 209.234C101.579 209.234 100.721 208.868 100.037 208.136C99.3529 207.404 99.0109 206.51 99.0109 205.454C99.0109 204.398 99.3589 203.504 100.055 202.772C100.763 202.028 101.645 201.656 102.701 201.656C103.325 201.656 103.877 201.806 104.357 202.106V203.744ZM107.361 196.706V202.484C107.817 201.932 108.543 201.656 109.539 201.656C110.283 201.656 110.877 201.944 111.321 202.52C111.765 203.096 111.987 203.81 111.987 204.662V209H110.259V205.238C110.259 203.738 109.797 202.988 108.873 202.988C107.865 202.988 107.361 203.816 107.361 205.472V209H105.615V196.706H107.361ZM120.745 209H118.459L115.363 204.14L115.345 209H113.491V198.074H116.389C118.825 198.074 120.043 199.172 120.043 201.368C120.043 202.196 119.827 202.886 119.395 203.438C118.975 203.99 118.399 204.308 117.667 204.392L120.745 209ZM115.345 203.384H115.903C117.427 203.384 118.189 202.73 118.189 201.422C118.189 200.162 117.433 199.532 115.921 199.532H115.345V203.384ZM121.577 197.786H122.981L129.155 206.012L129.191 198.074H131.027V209.216H129.641L123.449 201.008L123.431 209H121.577V197.786ZM132.581 197.786H133.985L140.159 206.012L140.195 198.074H142.031V209.216H140.645L134.453 201.008L134.435 209H132.581V197.786ZM146.195 207.974C146.195 208.334 146.069 208.646 145.817 208.91C145.577 209.162 145.277 209.288 144.917 209.288C144.557 209.288 144.251 209.162 143.999 208.91C143.747 208.658 143.621 208.358 143.621 208.01C143.621 207.65 143.747 207.344 143.999 207.092C144.251 206.84 144.551 206.714 144.899 206.714C145.259 206.714 145.565 206.834 145.817 207.074C146.069 207.314 146.195 207.614 146.195 207.974Z" fill="white"/>
</svg>
