<svg width="264" height="180" viewBox="0 0 264 180" fill="none" xmlns="http://www.w3.org/2000/svg">
<rect width="264" height="180" transform="matrix(1 0 0 -1 0 180)" fill="black"/>
<path d="M127.685 98H125.213V83.432H129.077C132.453 83.432 134.141 84.936 134.141 87.944C134.141 91.016 132.589 92.552 129.485 92.552H127.685V98ZM127.685 90.584H128.909C130.717 90.584 131.621 89.704 131.621 87.944C131.621 86.248 130.693 85.4 128.837 85.4H127.685V90.584ZM145.08 98H142.032L137.904 91.52L137.88 98H135.408V83.432H139.272C142.52 83.432 144.144 84.896 144.144 87.824C144.144 88.928 143.856 89.848 143.28 90.584C142.72 91.32 141.952 91.744 140.976 91.856L145.08 98ZM137.88 90.512H138.624C140.656 90.512 141.672 89.64 141.672 87.896C141.672 86.216 140.664 85.376 138.648 85.376H137.88V90.512ZM148.853 98H146.381V83.432H148.853V98ZM151.088 83.048H152.96L161.192 94.016L161.24 83.432H163.688V98.288H161.84L153.584 87.344L153.56 98H151.088V83.048ZM175.504 86.912C174.656 85.888 173.592 85.376 172.312 85.376C170.984 85.376 169.872 85.928 168.976 87.032C168.08 88.12 167.632 89.368 167.632 90.776C167.632 92.136 168.072 93.36 168.952 94.448C169.848 95.52 170.96 96.056 172.288 96.056C173.552 96.056 174.624 95.544 175.504 94.52V97.52C174.32 98.096 173.224 98.384 172.216 98.384C170.2 98.384 168.504 97.64 167.128 96.152C165.752 94.664 165.064 92.888 165.064 90.824C165.064 88.68 165.752 86.848 167.128 85.328C168.504 83.808 170.216 83.048 172.264 83.048C173.336 83.048 174.416 83.328 175.504 83.888V86.912ZM180.049 98H177.577V83.432H180.049V98ZM184.755 98H182.283V83.432H186.147C189.523 83.432 191.211 84.936 191.211 87.944C191.211 91.016 189.659 92.552 186.555 92.552H184.755V98ZM184.755 90.584H185.979C187.787 90.584 188.691 89.704 188.691 87.944C188.691 86.248 187.763 85.4 185.907 85.4H184.755V90.584ZM195.19 94.736L193.894 98H191.278L196.942 83.048H199.15L204.67 98H202.03L200.806 94.736H195.19ZM197.902 86.624L195.79 92.792H200.134L197.902 86.624ZM208.028 95.912H212.42V98H205.556V83.432H208.028V95.912Z" fill="white"/>
<path fill-rule="evenodd" clip-rule="evenodd" d="M51 70C50.4477 70 50 70.4477 50 71V85.5342H72.0068V70H51ZM55.7464 74.3151C55.1942 74.3151 54.7464 74.7628 54.7464 75.3151V80.2192C54.7464 80.7715 55.1942 81.2192 55.7464 81.2192H66.2601C66.8124 81.2192 67.2601 80.7715 67.2601 80.2192V75.3151C67.2601 74.7628 66.8124 74.3151 66.2601 74.3151H55.7464Z" fill="white"/>
<path d="M50 85.1643H56.9164L50 102.141V85.1643Z" fill="white"/>
<path fill-rule="evenodd" clip-rule="evenodd" d="M72.0068 85.7931H50V101.771H72.0068V85.7931ZM55.7464 90.2315C55.1942 90.2315 54.7464 90.6792 54.7464 91.2315V96.3328C54.7464 96.8851 55.1942 97.3328 55.7464 97.3328H66.2601C66.8124 97.3328 67.2601 96.8851 67.2601 96.3328V91.2315C67.2601 90.6792 66.8124 90.2315 66.2601 90.2315H55.7464Z" fill="white"/>
<path d="M50 101H57L51.7526 106.997C51.1445 107.692 50 107.262 50 106.339V101Z" fill="white"/>
<path fill-rule="evenodd" clip-rule="evenodd" d="M93.0068 70H72V85.5342H94.0068V71C94.0068 70.4477 93.5591 70 93.0068 70ZM77.7464 74.3151C77.1942 74.3151 76.7464 74.7628 76.7464 75.3151V80.2192C76.7464 80.7715 77.1942 81.2192 77.7464 81.2192H88.2601C88.8124 81.2192 89.2601 80.7715 89.2601 80.2192V75.3151C89.2601 74.7628 88.8124 74.3151 88.2601 74.3151H77.7464Z" fill="white"/>
<path d="M72 85.1643H78.9164L72 102.141V85.1643Z" fill="white"/>
<path fill-rule="evenodd" clip-rule="evenodd" d="M94.0068 85.7931H72V101.771H93.0068C93.5591 101.771 94.0068 101.323 94.0068 100.771V85.7931ZM77.7464 90.2315C77.1942 90.2315 76.7464 90.6792 76.7464 91.2315V96.3328C76.7464 96.8851 77.1942 97.3328 77.7464 97.3328H88.2601C88.8124 97.3328 89.2601 96.8851 89.2601 96.3328V91.2315C89.2601 90.6792 88.8124 90.2315 88.2601 90.2315H77.7464Z" fill="white"/>
<path d="M72 101H79L73.7526 106.997C73.1445 107.692 72 107.262 72 106.339V101Z" fill="white"/>
</svg>
