<svg width="312" height="316" viewBox="0 0 312 316" fill="none" xmlns="http://www.w3.org/2000/svg">
<rect width="312" height="316" transform="matrix(1 0 0 -1 0 316)" fill="black"/>
<path d="M37.528 134.36V128.432H39.976V143H37.528V136.304H31.504V143H29.032V128.432H31.504V134.36H37.528ZM44.7753 139.736L43.4793 143H40.8632L46.5273 128.048H48.7353L54.2552 143H51.6153L50.3913 139.736H44.7753ZM47.4873 131.624L45.3753 137.792H49.7193L47.4873 131.624ZM55.1414 128.048H57.0134L65.2454 139.016L65.2934 128.432H67.7414V143.288H65.8934L57.6374 132.344L57.6134 143H55.1414V128.048ZM69.8133 128.432H73.8933C75.9733 128.432 77.6613 129.12 78.9573 130.496C80.2693 131.872 80.9253 133.608 80.9253 135.704C80.9253 137.8 80.2613 139.544 78.9333 140.936C77.6213 142.312 75.9333 143 73.8693 143H69.8133V128.432ZM72.2853 140.768H73.1253C76.6133 140.768 78.3573 139.088 78.3573 135.728C78.3573 132.352 76.6133 130.664 73.1253 130.664H72.2853V140.768ZM94.8816 139.208L98.0256 128.24H99.3216L102.61 139.208L105.826 128.432H108.418L103.474 143.288H101.602L98.5056 133.28L95.5296 143.288H93.6336L89.0016 128.432H91.5936L94.8816 139.208ZM111.829 143H109.357V128.432H111.829V143ZM118.503 143H116.271V130.52H113.031V128.432H121.743V130.52H118.503V143ZM131.278 134.36V128.432H133.726V143H131.278V136.304H125.254V143H122.782V128.432H125.254V134.36H131.278ZM152.325 134.36V128.432H154.773V143H152.325V136.304H146.301V143H143.829V128.432H146.301V134.36H152.325ZM159.332 130.52V134.312H164.228V136.4H159.332V140.912H164.396V143H156.86V128.432H164.396V130.52H159.332ZM168.994 139.736L167.698 143H165.082L170.746 128.048H172.954L178.474 143H175.834L174.61 139.736H168.994ZM171.706 131.624L169.594 137.792H173.938L171.706 131.624ZM189.032 143H185.984L181.856 136.52L181.832 143H179.36V128.432H183.224C186.472 128.432 188.096 129.896 188.096 132.824C188.096 133.928 187.808 134.848 187.232 135.584C186.672 136.32 185.904 136.744 184.928 136.856L189.032 143ZM181.832 135.512H182.576C184.608 135.512 185.624 134.64 185.624 132.896C185.624 131.216 184.616 130.376 182.6 130.376H181.832V135.512ZM194.581 143H192.349V130.52H189.109V128.432H197.821V130.52H194.581V143Z" fill="white"/>
<path d="M38.32 35.8662C35.8544 38.3546 35.8568 42.3586 38.32 44.8493L49.2322 55.8868C52.8738 52.2119 56.5154 48.537 60.1569 44.8621C62.6227 42.3738 62.6227 38.3673 60.1569 35.879C57.6912 33.3907 53.7211 33.3906 51.2553 35.879L49.2448 37.9078L47.2217 35.8662C44.7559 33.3779 40.7858 33.3779 38.32 35.8662Z" fill="white"/>
<path d="M29.2334 64.0856C31.198 65.9782 34.3593 65.9764 36.3257 64.0856L45.04 55.7096C42.1386 52.9144 39.2372 50.1191 36.3358 47.3239C34.3712 45.4312 31.2081 45.4312 29.2435 47.3239C27.2789 49.2166 27.2789 52.264 29.2435 54.1567L30.8453 55.6999L29.2334 57.2528C27.2689 59.1455 27.2689 62.1929 29.2334 64.0856Z" fill="white"/>
<path d="M60.158 75.5425C62.6237 73.0541 62.6213 69.0501 60.158 66.5594L49.2459 55.5219C45.6043 59.1968 41.9626 62.8717 38.3211 66.5466C35.8553 69.0349 35.8553 73.0414 38.3211 75.5297C40.7868 78.018 44.7569 78.018 47.2227 75.5297L49.2332 73.5009L51.2563 75.5425C53.7221 78.0308 57.6922 78.0308 60.158 75.5425Z" fill="white"/>
<path d="M69.7666 47.3231C67.802 45.4305 64.6407 45.4323 62.6743 47.3231L53.96 55.6991C56.8614 58.4943 59.7628 61.2896 62.6642 64.0848C64.6288 65.9775 67.7919 65.9775 69.7565 64.0848C71.7211 62.1921 71.7211 59.1447 69.7565 57.252L68.1547 55.7088L69.7666 54.1559C71.7311 52.2632 71.7311 49.2158 69.7666 47.3231Z" fill="white"/>
<path d="M26.808 188.552L25.836 191H23.874L28.122 179.786H29.778L33.918 191H31.938L31.02 188.552H26.808ZM28.842 182.468L27.258 187.094H30.516L28.842 182.468ZM42.6823 180.902C42.6823 181.178 42.5803 181.418 42.3763 181.622C42.1723 181.826 41.9323 181.928 41.6563 181.928C41.3803 181.928 41.1403 181.826 40.9363 181.622C40.7323 181.418 40.6303 181.178 40.6303 180.902C40.6303 180.626 40.7323 180.386 40.9363 180.182C41.1403 179.978 41.3803 179.876 41.6563 179.876C41.9323 179.876 42.1723 179.978 42.3763 180.182C42.5803 180.386 42.6823 180.626 42.6823 180.902ZM42.5383 191H40.7923V183.89H42.5383V191ZM45.9601 184.538C46.4521 183.95 47.1781 183.656 48.1381 183.656C49.7701 183.656 50.5861 184.658 50.5861 186.662V191H48.8581V187.238C48.8581 185.738 48.3961 184.988 47.4721 184.988C46.4641 184.988 45.9601 185.792 45.9601 187.4V191H44.2141V183.89H45.9601V184.538ZM54.1784 191H52.4324V185.456H51.5864V184.034H52.4324V181.478H54.1784V184.034H55.5644V185.456H54.1784V191ZM57.3591 187.616C57.3591 188.3 57.5091 188.864 57.8091 189.308C58.1091 189.752 58.5231 189.974 59.0511 189.974C59.8791 189.974 60.4071 189.566 60.6351 188.75L62.2911 189.02C61.7511 190.496 60.6711 191.234 59.0511 191.234C57.9711 191.234 57.1071 190.892 56.4591 190.208C55.8231 189.512 55.5051 188.612 55.5051 187.508C55.5051 186.344 55.8111 185.414 56.4231 184.718C57.0471 184.01 57.8871 183.656 58.9431 183.656C60.0111 183.656 60.8391 183.992 61.4271 184.664C62.0271 185.324 62.3271 186.23 62.3271 187.382V187.616H57.3591ZM60.7071 186.644C60.7071 186.152 60.5511 185.72 60.2391 185.348C59.9391 184.976 59.5431 184.79 59.0511 184.79C58.5711 184.79 58.1751 184.988 57.8631 185.384C57.5631 185.768 57.4131 186.188 57.4131 186.644H60.7071ZM65.0148 184.628C65.4588 183.98 66.1548 183.656 67.1028 183.656C67.4028 183.656 67.6788 183.716 67.9308 183.836L67.7148 185.42C67.4508 185.252 67.1628 185.168 66.8508 185.168C65.6268 185.168 65.0148 186.044 65.0148 187.796V191H63.2688V183.89H65.0148V184.628ZM75.3094 191H73.5994V190.352C73.0954 190.94 72.3454 191.234 71.3494 191.234C70.3534 191.234 69.5554 190.85 68.9554 190.082C68.3674 189.314 68.0734 188.414 68.0734 187.382C68.0734 186.35 68.3734 185.474 68.9734 184.754C69.5854 184.022 70.3654 183.656 71.3134 183.656C72.3214 183.656 73.0834 183.956 73.5994 184.556V183.89H75.3094V191ZM73.7974 187.436C73.7974 186.776 73.6114 186.236 73.2394 185.816C72.8674 185.384 72.3874 185.168 71.7994 185.168C71.2234 185.168 70.7494 185.378 70.3774 185.798C70.0174 186.206 69.8374 186.752 69.8374 187.436C69.8374 188.12 70.0234 188.672 70.3954 189.092C70.7674 189.512 71.2474 189.722 71.8354 189.722C72.4234 189.722 72.8974 189.518 73.2574 189.11C73.6174 188.702 73.7974 188.144 73.7974 187.436ZM81.6108 185.744C81.1668 185.3 80.6688 185.078 80.1168 185.078C79.4688 185.078 78.9588 185.312 78.5868 185.78C78.2148 186.248 78.0288 186.824 78.0288 187.508C78.0288 188.18 78.2388 188.732 78.6588 189.164C79.0788 189.596 79.5888 189.812 80.1888 189.812C80.7048 189.812 81.1788 189.584 81.6108 189.128V190.802C81.1068 191.09 80.5248 191.234 79.8648 191.234C78.8328 191.234 77.9748 190.868 77.2908 190.136C76.6068 189.404 76.2648 188.51 76.2648 187.454C76.2648 186.398 76.6128 185.504 77.3088 184.772C78.0168 184.028 78.8988 183.656 79.9548 183.656C80.5788 183.656 81.1308 183.806 81.6108 184.106V185.744ZM85.0104 191H83.2644V185.456H82.4184V184.034H83.2644V181.478H85.0104V184.034H86.3964V185.456H85.0104V191ZM88.9831 180.902C88.9831 181.178 88.8811 181.418 88.6771 181.622C88.4731 181.826 88.2331 181.928 87.9571 181.928C87.6811 181.928 87.4411 181.826 87.2371 181.622C87.0331 181.418 86.9311 181.178 86.9311 180.902C86.9311 180.626 87.0331 180.386 87.2371 180.182C87.4411 179.978 87.6811 179.876 87.9571 179.876C88.2331 179.876 88.4731 179.978 88.6771 180.182C88.8811 180.386 88.9831 180.626 88.9831 180.902ZM88.8391 191H87.0931V183.89H88.8391V191ZM93.4309 188.39L95.1769 183.89H97.1209L93.8449 191.144H92.8009L89.5429 183.89H91.4689L93.4309 188.39ZM98.9313 187.616C98.9313 188.3 99.0813 188.864 99.3813 189.308C99.6813 189.752 100.095 189.974 100.623 189.974C101.451 189.974 101.979 189.566 102.207 188.75L103.863 189.02C103.323 190.496 102.243 191.234 100.623 191.234C99.5433 191.234 98.6793 190.892 98.0313 190.208C97.3953 189.512 97.0773 188.612 97.0773 187.508C97.0773 186.344 97.3833 185.414 97.9953 184.718C98.6193 184.01 99.4593 183.656 100.515 183.656C101.583 183.656 102.411 183.992 102.999 184.664C103.599 185.324 103.899 186.23 103.899 187.382V187.616H98.9313ZM102.279 186.644C102.279 186.152 102.123 185.72 101.811 185.348C101.511 184.976 101.115 184.79 100.623 184.79C100.143 184.79 99.7473 184.988 99.4353 185.384C99.1353 185.768 98.9853 186.188 98.9853 186.644H102.279ZM112.599 184.538C113.103 183.95 113.853 183.656 114.849 183.656C115.785 183.656 116.559 184.028 117.171 184.772C117.795 185.516 118.107 186.392 118.107 187.4C118.107 188.492 117.801 189.404 117.189 190.136C116.577 190.868 115.785 191.234 114.813 191.234C113.769 191.234 113.043 190.934 112.635 190.334L112.599 194.006H110.853V183.89H112.599V184.538ZM116.325 187.436C116.325 186.824 116.151 186.296 115.803 185.852C115.455 185.396 114.975 185.168 114.363 185.168C113.799 185.168 113.331 185.396 112.959 185.852C112.587 186.308 112.401 186.836 112.401 187.436C112.401 188.024 112.599 188.552 112.995 189.02C113.391 189.488 113.847 189.722 114.363 189.722C114.975 189.722 115.455 189.506 115.803 189.074C116.151 188.642 116.325 188.096 116.325 187.436ZM120.79 184.628C121.234 183.98 121.93 183.656 122.878 183.656C123.178 183.656 123.454 183.716 123.706 183.836L123.49 185.42C123.226 185.252 122.938 185.168 122.626 185.168C121.402 185.168 120.79 186.044 120.79 187.796V191H119.044V183.89H120.79V184.628ZM131.337 187.436C131.337 188.552 130.995 189.464 130.311 190.172C129.627 190.88 128.727 191.234 127.611 191.234C126.507 191.234 125.607 190.88 124.911 190.172C124.215 189.464 123.867 188.558 123.867 187.454C123.867 186.338 124.209 185.426 124.893 184.718C125.577 184.01 126.477 183.656 127.593 183.656C128.709 183.656 129.609 184.01 130.293 184.718C130.989 185.414 131.337 186.32 131.337 187.436ZM125.631 187.472C125.631 188.132 125.817 188.672 126.189 189.092C126.561 189.512 127.041 189.722 127.629 189.722C128.217 189.722 128.685 189.5 129.033 189.056C129.393 188.6 129.573 188.066 129.573 187.454C129.573 186.83 129.393 186.296 129.033 185.852C128.673 185.396 128.199 185.168 127.611 185.168C127.035 185.168 126.561 185.384 126.189 185.816C125.817 186.248 125.631 186.8 125.631 187.472ZM134.296 194.798H132.55V183.89H134.296V194.798ZM134.44 180.902C134.44 181.178 134.338 181.418 134.134 181.622C133.93 181.826 133.69 181.928 133.414 181.928C133.138 181.928 132.898 181.826 132.694 181.622C132.49 181.418 132.388 181.178 132.388 180.902C132.388 180.626 132.49 180.386 132.694 180.182C132.898 179.978 133.138 179.876 133.414 179.876C133.69 179.876 133.93 179.978 134.134 180.182C134.338 180.386 134.44 180.626 134.44 180.902ZM137.322 187.616C137.322 188.3 137.472 188.864 137.772 189.308C138.072 189.752 138.486 189.974 139.014 189.974C139.842 189.974 140.37 189.566 140.598 188.75L142.254 189.02C141.714 190.496 140.634 191.234 139.014 191.234C137.934 191.234 137.07 190.892 136.422 190.208C135.786 189.512 135.468 188.612 135.468 187.508C135.468 186.344 135.774 185.414 136.386 184.718C137.01 184.01 137.85 183.656 138.906 183.656C139.974 183.656 140.802 183.992 141.39 184.664C141.99 185.324 142.29 186.23 142.29 187.382V187.616H137.322ZM140.67 186.644C140.67 186.152 140.514 185.72 140.202 185.348C139.902 184.976 139.506 184.79 139.014 184.79C138.534 184.79 138.138 184.988 137.826 185.384C137.526 185.768 137.376 186.188 137.376 186.644H140.67ZM148.074 185.744C147.63 185.3 147.132 185.078 146.58 185.078C145.932 185.078 145.422 185.312 145.05 185.78C144.678 186.248 144.492 186.824 144.492 187.508C144.492 188.18 144.702 188.732 145.122 189.164C145.542 189.596 146.052 189.812 146.652 189.812C147.168 189.812 147.642 189.584 148.074 189.128V190.802C147.57 191.09 146.988 191.234 146.328 191.234C145.296 191.234 144.438 190.868 143.754 190.136C143.07 189.404 142.728 188.51 142.728 187.454C142.728 186.398 143.076 185.504 143.772 184.772C144.48 184.028 145.362 183.656 146.418 183.656C147.042 183.656 147.594 183.806 148.074 184.106V185.744ZM151.473 191H149.727V185.456H148.881V184.034H149.727V181.478H151.473V184.034H152.859V185.456H151.473V191ZM161.026 183.89V187.742C161.026 189.122 161.506 189.812 162.466 189.812C163.426 189.812 163.906 189.122 163.906 187.742V183.89H165.652V188.066C165.652 190.178 164.59 191.234 162.466 191.234C160.342 191.234 159.28 190.178 159.28 188.066V183.89H161.026ZM170.866 185.366C170.482 185.006 170.08 184.826 169.66 184.826C169.024 184.826 168.706 185.114 168.706 185.69C168.706 186.014 168.994 186.278 169.57 186.482C170.626 186.866 171.28 187.22 171.532 187.544C171.784 187.856 171.91 188.246 171.91 188.714C171.91 189.482 171.64 190.094 171.1 190.55C170.572 191.006 169.918 191.234 169.138 191.234C168.13 191.234 167.296 190.838 166.636 190.046L167.41 189.056C168.01 189.656 168.562 189.956 169.066 189.956C169.798 189.956 170.164 189.602 170.164 188.894C170.164 188.534 169.972 188.27 169.588 188.102C169.204 187.922 168.91 187.79 168.706 187.706C167.602 187.226 167.05 186.644 167.05 185.96C167.05 185.276 167.254 184.724 167.662 184.304C168.082 183.872 168.628 183.656 169.3 183.656C170.26 183.656 171.022 183.902 171.586 184.394L170.866 185.366ZM175.151 180.902C175.151 181.178 175.049 181.418 174.845 181.622C174.641 181.826 174.401 181.928 174.125 181.928C173.849 181.928 173.609 181.826 173.405 181.622C173.201 181.418 173.099 181.178 173.099 180.902C173.099 180.626 173.201 180.386 173.405 180.182C173.609 179.978 173.849 179.876 174.125 179.876C174.401 179.876 174.641 179.978 174.845 180.182C175.049 180.386 175.151 180.626 175.151 180.902ZM175.007 191H173.261V183.89H175.007V191ZM178.429 184.538C178.921 183.95 179.647 183.656 180.607 183.656C182.239 183.656 183.055 184.658 183.055 186.662V191H181.327V187.238C181.327 185.738 180.865 184.988 179.941 184.988C178.933 184.988 178.429 185.792 178.429 187.4V191H176.683V183.89H178.429V184.538ZM191.273 190.388C191.273 192.824 190.139 194.042 187.871 194.042C186.863 194.042 186.011 193.766 185.315 193.214C184.619 192.674 184.271 191.966 184.271 191.09H186.125C186.125 191.438 186.299 191.78 186.647 192.116C186.995 192.452 187.385 192.62 187.817 192.62C188.957 192.62 189.527 191.936 189.527 190.568V190.118C189.035 190.742 188.285 191.054 187.277 191.054C186.281 191.054 185.495 190.706 184.919 190.01C184.355 189.314 184.073 188.462 184.073 187.454C184.073 186.362 184.379 185.45 184.991 184.718C185.603 183.986 186.395 183.62 187.367 183.62C188.351 183.62 189.071 183.926 189.527 184.538V183.854H191.273V190.388ZM189.779 187.292C189.779 186.644 189.599 186.122 189.239 185.726C188.879 185.33 188.405 185.132 187.817 185.132C187.229 185.132 186.749 185.348 186.377 185.78C186.017 186.212 185.837 186.758 185.837 187.418C185.837 188.834 186.497 189.542 187.817 189.542C188.417 189.542 188.891 189.332 189.239 188.912C189.599 188.48 189.779 187.94 189.779 187.292ZM200.402 178.706V184.484C200.858 183.932 201.584 183.656 202.58 183.656C203.324 183.656 203.918 183.944 204.362 184.52C204.806 185.096 205.028 185.81 205.028 186.662V191H203.3V187.238C203.3 185.738 202.838 184.988 201.914 184.988C200.906 184.988 200.402 185.816 200.402 187.472V191H198.656V178.706H200.402ZM213.21 191H211.5V190.352C210.996 190.94 210.246 191.234 209.25 191.234C208.254 191.234 207.456 190.85 206.856 190.082C206.268 189.314 205.974 188.414 205.974 187.382C205.974 186.35 206.274 185.474 206.874 184.754C207.486 184.022 208.266 183.656 209.214 183.656C210.222 183.656 210.984 183.956 211.5 184.556V183.89H213.21V191ZM211.698 187.436C211.698 186.776 211.512 186.236 211.14 185.816C210.768 185.384 210.288 185.168 209.7 185.168C209.124 185.168 208.65 185.378 208.278 185.798C207.918 186.206 207.738 186.752 207.738 187.436C207.738 188.12 207.924 188.672 208.296 189.092C208.668 189.512 209.148 189.722 209.736 189.722C210.324 189.722 210.798 189.518 211.158 189.11C211.518 188.702 211.698 188.144 211.698 187.436ZM216.415 184.538C216.907 183.95 217.633 183.656 218.593 183.656C220.225 183.656 221.041 184.658 221.041 186.662V191H219.313V187.238C219.313 185.738 218.851 184.988 217.927 184.988C216.919 184.988 216.415 185.792 216.415 187.4V191H214.669V183.89H216.415V184.538ZM227.495 190.334C227.027 190.934 226.289 191.234 225.281 191.234C224.273 191.234 223.469 190.85 222.869 190.082C222.281 189.314 221.987 188.414 221.987 187.382C221.987 186.35 222.287 185.474 222.887 184.754C223.499 184.022 224.279 183.656 225.227 183.656C226.235 183.656 226.979 183.95 227.459 184.538L227.495 178.706H229.241V191H227.495V190.334ZM227.693 187.436C227.693 186.812 227.501 186.278 227.117 185.834C226.733 185.39 226.271 185.168 225.731 185.168C225.191 185.168 224.723 185.39 224.327 185.834C223.943 186.266 223.751 186.806 223.751 187.454C223.751 188.09 223.937 188.63 224.309 189.074C224.693 189.506 225.173 189.722 225.749 189.722C226.325 189.722 226.793 189.512 227.153 189.092C227.513 188.66 227.693 188.108 227.693 187.436ZM26.466 202.52C26.91 201.944 27.594 201.656 28.518 201.656C29.322 201.656 29.958 202.028 30.426 202.772C30.882 202.028 31.62 201.656 32.64 201.656C34.14 201.656 34.89 202.628 34.89 204.572V209H33.162V205.256C33.162 203.744 32.748 202.988 31.92 202.988C31.092 202.988 30.678 203.828 30.678 205.508V209H28.932V205.4C28.932 203.792 28.566 202.988 27.834 202.988C26.922 202.988 26.466 203.828 26.466 205.508V209H24.72V201.89H26.466V202.52ZM43.3407 205.436C43.3407 206.552 42.9987 207.464 42.3147 208.172C41.6307 208.88 40.7307 209.234 39.6147 209.234C38.5107 209.234 37.6107 208.88 36.9147 208.172C36.2187 207.464 35.8707 206.558 35.8707 205.454C35.8707 204.338 36.2127 203.426 36.8967 202.718C37.5807 202.01 38.4807 201.656 39.5967 201.656C40.7127 201.656 41.6127 202.01 42.2967 202.718C42.9927 203.414 43.3407 204.32 43.3407 205.436ZM37.6347 205.472C37.6347 206.132 37.8207 206.672 38.1927 207.092C38.5647 207.512 39.0447 207.722 39.6327 207.722C40.2207 207.722 40.6887 207.5 41.0367 207.056C41.3967 206.6 41.5767 206.066 41.5767 205.454C41.5767 204.83 41.3967 204.296 41.0367 203.852C40.6767 203.396 40.2027 203.168 39.6147 203.168C39.0387 203.168 38.5647 203.384 38.1927 203.816C37.8207 204.248 37.6347 204.8 37.6347 205.472ZM47.218 206.39L48.964 201.89H50.908L47.632 209.144H46.588L43.33 201.89H45.256L47.218 206.39ZM52.7184 205.616C52.7184 206.3 52.8684 206.864 53.1684 207.308C53.4684 207.752 53.8824 207.974 54.4104 207.974C55.2384 207.974 55.7664 207.566 55.9944 206.75L57.6504 207.02C57.1104 208.496 56.0304 209.234 54.4104 209.234C53.3304 209.234 52.4664 208.892 51.8184 208.208C51.1824 207.512 50.8644 206.612 50.8644 205.508C50.8644 204.344 51.1704 203.414 51.7824 202.718C52.4064 202.01 53.2464 201.656 54.3024 201.656C55.3704 201.656 56.1984 201.992 56.7864 202.664C57.3864 203.324 57.6864 204.23 57.6864 205.382V205.616H52.7184ZM56.0664 204.644C56.0664 204.152 55.9104 203.72 55.5984 203.348C55.2984 202.976 54.9024 202.79 54.4104 202.79C53.9304 202.79 53.5344 202.988 53.2224 203.384C52.9224 203.768 52.7724 204.188 52.7724 204.644H56.0664ZM60.3742 202.52C60.8182 201.944 61.5022 201.656 62.4262 201.656C63.2302 201.656 63.8662 202.028 64.3342 202.772C64.7902 202.028 65.5282 201.656 66.5482 201.656C68.0482 201.656 68.7982 202.628 68.7982 204.572V209H67.0702V205.256C67.0702 203.744 66.6562 202.988 65.8282 202.988C65.0002 202.988 64.5862 203.828 64.5862 205.508V209H62.8402V205.4C62.8402 203.792 62.4742 202.988 61.7422 202.988C60.8302 202.988 60.3742 203.828 60.3742 205.508V209H58.6282V201.89H60.3742V202.52ZM71.6149 205.616C71.6149 206.3 71.7649 206.864 72.0649 207.308C72.3649 207.752 72.7789 207.974 73.3069 207.974C74.1349 207.974 74.6629 207.566 74.8909 206.75L76.5469 207.02C76.0069 208.496 74.9269 209.234 73.3069 209.234C72.2269 209.234 71.3629 208.892 70.7149 208.208C70.0789 207.512 69.7609 206.612 69.7609 205.508C69.7609 204.344 70.0669 203.414 70.6789 202.718C71.3029 202.01 72.1429 201.656 73.1989 201.656C74.2669 201.656 75.0949 201.992 75.6829 202.664C76.2829 203.324 76.5829 204.23 76.5829 205.382V205.616H71.6149ZM74.9629 204.644C74.9629 204.152 74.8069 203.72 74.4949 203.348C74.1949 202.976 73.7989 202.79 73.3069 202.79C72.8269 202.79 72.4309 202.988 72.1189 203.384C71.8189 203.768 71.6689 204.188 71.6689 204.644H74.9629ZM79.2707 202.538C79.7627 201.95 80.4887 201.656 81.4487 201.656C83.0807 201.656 83.8967 202.658 83.8967 204.662V209H82.1687V205.238C82.1687 203.738 81.7067 202.988 80.7827 202.988C79.7747 202.988 79.2707 203.792 79.2707 205.4V209H77.5247V201.89H79.2707V202.538ZM87.489 209H85.743V203.456H84.897V202.034H85.743V199.478H87.489V202.034H88.875V203.456H87.489V209ZM102.063 209H100.353V208.352C99.8493 208.94 99.0993 209.234 98.1033 209.234C97.1073 209.234 96.3093 208.85 95.7093 208.082C95.1213 207.314 94.8273 206.414 94.8273 205.382C94.8273 204.35 95.1273 203.474 95.7273 202.754C96.3393 202.022 97.1193 201.656 98.0673 201.656C99.0753 201.656 99.8373 201.956 100.353 202.556V201.89H102.063V209ZM100.551 205.436C100.551 204.776 100.365 204.236 99.9933 203.816C99.6213 203.384 99.1413 203.168 98.5533 203.168C97.9773 203.168 97.5033 203.378 97.1313 203.798C96.7713 204.206 96.5913 204.752 96.5913 205.436C96.5913 206.12 96.7773 206.672 97.1493 207.092C97.5213 207.512 98.0013 207.722 98.5893 207.722C99.1773 207.722 99.6513 207.518 100.011 207.11C100.371 206.702 100.551 206.144 100.551 205.436ZM105.269 202.538C105.761 201.95 106.487 201.656 107.447 201.656C109.079 201.656 109.895 202.658 109.895 204.662V209H108.167V205.238C108.167 203.738 107.705 202.988 106.781 202.988C105.773 202.988 105.269 203.792 105.269 205.4V209H103.523V201.89H105.269V202.538ZM116.349 208.334C115.881 208.934 115.143 209.234 114.135 209.234C113.127 209.234 112.323 208.85 111.723 208.082C111.135 207.314 110.841 206.414 110.841 205.382C110.841 204.35 111.141 203.474 111.741 202.754C112.353 202.022 113.133 201.656 114.081 201.656C115.089 201.656 115.833 201.95 116.313 202.538L116.349 196.706H118.095V209H116.349V208.334ZM116.547 205.436C116.547 204.812 116.355 204.278 115.971 203.834C115.587 203.39 115.125 203.168 114.585 203.168C114.045 203.168 113.577 203.39 113.181 203.834C112.797 204.266 112.605 204.806 112.605 205.454C112.605 206.09 112.791 206.63 113.163 207.074C113.547 207.506 114.027 207.722 114.603 207.722C115.179 207.722 115.647 207.512 116.007 207.092C116.367 206.66 116.547 206.108 116.547 205.436ZM132.316 208.388C132.316 210.824 131.182 212.042 128.914 212.042C127.906 212.042 127.054 211.766 126.358 211.214C125.662 210.674 125.314 209.966 125.314 209.09H127.168C127.168 209.438 127.342 209.78 127.69 210.116C128.038 210.452 128.428 210.62 128.86 210.62C130 210.62 130.57 209.936 130.57 208.568V208.118C130.078 208.742 129.328 209.054 128.32 209.054C127.324 209.054 126.538 208.706 125.962 208.01C125.398 207.314 125.116 206.462 125.116 205.454C125.116 204.362 125.422 203.45 126.034 202.718C126.646 201.986 127.438 201.62 128.41 201.62C129.394 201.62 130.114 201.926 130.57 202.538V201.854H132.316V208.388ZM130.822 205.292C130.822 204.644 130.642 204.122 130.282 203.726C129.922 203.33 129.448 203.132 128.86 203.132C128.272 203.132 127.792 203.348 127.42 203.78C127.06 204.212 126.88 204.758 126.88 205.418C126.88 206.834 127.54 207.542 128.86 207.542C129.46 207.542 129.934 207.332 130.282 206.912C130.642 206.48 130.822 205.94 130.822 205.292ZM135.037 205.616C135.037 206.3 135.187 206.864 135.487 207.308C135.787 207.752 136.201 207.974 136.729 207.974C137.557 207.974 138.085 207.566 138.313 206.75L139.969 207.02C139.429 208.496 138.349 209.234 136.729 209.234C135.649 209.234 134.785 208.892 134.137 208.208C133.501 207.512 133.183 206.612 133.183 205.508C133.183 204.344 133.489 203.414 134.101 202.718C134.725 202.01 135.565 201.656 136.621 201.656C137.689 201.656 138.517 201.992 139.105 202.664C139.705 203.324 140.005 204.23 140.005 205.382V205.616H135.037ZM138.385 204.644C138.385 204.152 138.229 203.72 137.917 203.348C137.617 202.976 137.221 202.79 136.729 202.79C136.249 202.79 135.853 202.988 135.541 203.384C135.241 203.768 135.091 204.188 135.091 204.644H138.385ZM144.745 203.366C144.361 203.006 143.959 202.826 143.539 202.826C142.903 202.826 142.585 203.114 142.585 203.69C142.585 204.014 142.873 204.278 143.449 204.482C144.505 204.866 145.159 205.22 145.411 205.544C145.663 205.856 145.789 206.246 145.789 206.714C145.789 207.482 145.519 208.094 144.979 208.55C144.451 209.006 143.797 209.234 143.017 209.234C142.009 209.234 141.175 208.838 140.515 208.046L141.289 207.056C141.889 207.656 142.441 207.956 142.945 207.956C143.677 207.956 144.043 207.602 144.043 206.894C144.043 206.534 143.851 206.27 143.467 206.102C143.083 205.922 142.789 205.79 142.585 205.706C141.481 205.226 140.929 204.644 140.929 203.96C140.929 203.276 141.133 202.724 141.541 202.304C141.961 201.872 142.507 201.656 143.179 201.656C144.139 201.656 144.901 201.902 145.465 202.394L144.745 203.366ZM149.03 209H147.284V203.456H146.438V202.034H147.284V199.478H149.03V202.034H150.416V203.456H149.03V209ZM152.571 201.89V205.742C152.571 207.122 153.051 207.812 154.011 207.812C154.971 207.812 155.451 207.122 155.451 205.742V201.89H157.197V206.066C157.197 208.178 156.135 209.234 154.011 209.234C151.887 209.234 150.825 208.178 150.825 206.066V201.89H152.571ZM160.359 202.628C160.803 201.98 161.499 201.656 162.447 201.656C162.747 201.656 163.023 201.716 163.275 201.836L163.059 203.42C162.795 203.252 162.507 203.168 162.195 203.168C160.971 203.168 160.359 204.044 160.359 205.796V209H158.613V201.89H160.359V202.628ZM165.271 205.616C165.271 206.3 165.421 206.864 165.721 207.308C166.021 207.752 166.435 207.974 166.963 207.974C167.791 207.974 168.319 207.566 168.547 206.75L170.203 207.02C169.663 208.496 168.583 209.234 166.963 209.234C165.883 209.234 165.019 208.892 164.371 208.208C163.735 207.512 163.417 206.612 163.417 205.508C163.417 204.344 163.723 203.414 164.335 202.718C164.959 202.01 165.799 201.656 166.855 201.656C167.923 201.656 168.751 201.992 169.339 202.664C169.939 203.324 170.239 204.23 170.239 205.382V205.616H165.271ZM168.619 204.644C168.619 204.152 168.463 203.72 168.151 203.348C167.851 202.976 167.455 202.79 166.963 202.79C166.483 202.79 166.087 202.988 165.775 203.384C165.475 203.768 165.325 204.188 165.325 204.644H168.619ZM173.845 207.974C173.845 208.334 173.719 208.646 173.467 208.91C173.227 209.162 172.927 209.288 172.567 209.288C172.207 209.288 171.901 209.162 171.649 208.91C171.397 208.658 171.271 208.358 171.271 208.01C171.271 207.65 171.397 207.344 171.649 207.092C171.901 206.84 172.201 206.714 172.549 206.714C172.909 206.714 173.215 206.834 173.467 207.074C173.719 207.314 173.845 207.614 173.845 207.974Z" fill="white"/>
</svg>
