<svg width="264" height="180" viewBox="0 0 264 180" fill="none" xmlns="http://www.w3.org/2000/svg">
<rect width="264" height="180" transform="matrix(1 0 0 -1 0 180)" fill="black"/>
<path d="M48.504 139.912H52.896V142H46.032V127.432H48.504V139.912ZM56.4773 142H54.0053V127.432H56.4773V142ZM61.1837 129.52V133.312H65.6717V135.4H61.1837V142H58.7117V127.432H65.9597V129.52H61.1837ZM70.1368 129.52V133.312H75.0328V135.4H70.1368V139.912H75.2008V142H67.6648V127.432H75.2008V129.52H70.1368ZM84.4063 134.752C84.4063 132.624 85.0863 130.808 86.4463 129.304C87.8223 127.8 89.5503 127.048 91.6303 127.048C93.7103 127.048 95.4303 127.8 96.7903 129.304C98.1503 130.808 98.8303 132.616 98.8303 134.728C98.8303 136.84 98.1503 138.648 96.7903 140.152C95.4463 141.64 93.7263 142.384 91.6303 142.384C89.5343 142.384 87.8063 141.64 86.4463 140.152C85.0863 138.664 84.4063 136.864 84.4063 134.752ZM86.9743 134.584C86.9743 136.008 87.4223 137.264 88.3183 138.352C89.2143 139.424 90.3183 139.96 91.6303 139.96C93.0383 139.96 94.1663 139.448 95.0143 138.424C95.8623 137.384 96.2863 136.104 96.2863 134.584C96.2863 133.144 95.8623 131.936 95.0143 130.96C94.1663 129.968 93.0303 129.472 91.6063 129.472C90.1983 129.472 89.0703 129.968 88.2223 130.96C87.3903 131.952 86.9743 133.16 86.9743 134.584ZM102.692 129.52V133.312H107.18V135.4H102.692V142H100.22V127.432H107.468V129.52H102.692ZM117.188 127.432H120.74C123.652 127.432 125.108 128.752 125.108 131.392C125.108 132.688 124.684 133.632 123.836 134.224C124.604 134.352 125.204 134.76 125.636 135.448C126.084 136.136 126.308 136.944 126.308 137.872C126.308 139.232 125.876 140.264 125.012 140.968C124.164 141.656 123.044 142 121.652 142H117.188V127.432ZM119.66 140.032H121.028C122.916 140.032 123.86 139.232 123.86 137.632C123.86 136.192 122.868 135.472 120.884 135.472H119.66V140.032ZM119.66 133.696H120.764C122.14 133.696 122.828 132.992 122.828 131.584C122.828 130.08 122.148 129.328 120.788 129.328H119.66V133.696ZM127.804 127.432H130.276V135.592C130.276 138.728 131.26 140.296 133.228 140.296C135.196 140.296 136.18 138.728 136.18 135.592V127.432H138.628V136.144C138.628 140.304 136.82 142.384 133.204 142.384C129.604 142.384 127.804 140.304 127.804 136.144V127.432ZM145.066 142H142.834V129.52H139.594V127.432H148.306V129.52H145.066V142ZM153.785 142H151.553V129.52H148.312V127.432H157.025V129.52H153.785V142ZM160.535 129.52V133.312H165.431V135.4H160.535V139.912H165.599V142H158.063V127.432H165.599V129.52H160.535ZM177.157 142H174.109L169.981 135.52L169.957 142H167.485V127.432H171.349C174.597 127.432 176.221 128.896 176.221 131.824C176.221 132.928 175.933 133.848 175.357 134.584C174.797 135.32 174.029 135.744 173.053 135.856L177.157 142ZM169.957 134.512H170.701C172.733 134.512 173.749 133.64 173.749 131.896C173.749 130.216 172.741 129.376 170.725 129.376H169.957V134.512ZM180.738 129.52V133.312H185.226V135.4H180.738V142H178.266V127.432L185.514 127.432V129.52H180.738ZM189.692 139.912H194.084V142H187.22V127.432H189.692V139.912ZM197.665 142H195.193V127.432H197.665V142ZM202.371 129.52V133.312H207.267V135.4H202.371V139.912H207.435V142H199.899V127.432H207.435V129.52H202.371ZM216.377 130.384C215.753 129.504 214.961 129.064 214.001 129.064C213.393 129.064 212.881 129.248 212.465 129.616C212.049 129.984 211.841 130.48 211.841 131.104C211.841 131.712 212.593 132.44 214.097 133.288C215.617 134.136 216.385 134.56 216.401 134.56C217.473 135.36 218.009 136.304 218.009 137.392C218.009 138.88 217.577 140.088 216.713 141.016C215.865 141.928 214.697 142.384 213.209 142.384C211.321 142.384 209.833 141.44 208.745 139.552L210.305 138.016C210.513 138.576 210.897 139.088 211.457 139.552C212.017 140.016 212.593 140.248 213.185 140.248C213.889 140.248 214.441 140.008 214.841 139.528C215.257 139.048 215.465 138.464 215.465 137.776C215.465 137.28 215.313 136.848 215.009 136.48C214.705 136.096 213.673 135.52 211.913 134.752C210.169 133.968 209.297 132.856 209.297 131.416C209.297 130.184 209.697 129.152 210.497 128.32C211.313 127.472 212.329 127.048 213.545 127.048C215.225 127.048 216.553 127.592 217.529 128.68L216.377 130.384Z" fill="white"/>
<ellipse cx="130.152" cy="40.711" rx="5.11665" ry="2.98472" transform="rotate(-135.656 130.152 40.711)" fill="white"/>
<ellipse cx="135.12" cy="41.9226" rx="3.35043" ry="1.95442" transform="rotate(-51.2037 135.12 41.9226)" fill="white"/>
<ellipse rx="1.34408" ry="0.215271" transform="matrix(0.94607 0.323963 0.323963 -0.94607 127.715 43.5824)" fill="white"/>
<ellipse rx="5.11665" ry="2.98472" transform="matrix(-0.715152 0.698969 0.698969 0.715152 130.152 48.7566)" fill="white"/>
<ellipse rx="3.35043" ry="1.95442" transform="matrix(0.626553 0.779379 0.779379 -0.626553 135.12 47.5449)" fill="white"/>
<ellipse cx="127.715" cy="45.8852" rx="1.34408" ry="0.215271" transform="rotate(-18.9027 127.715 45.8852)" fill="white"/>
<ellipse cx="104.711" cy="69.9965" rx="5.11665" ry="2.98472" transform="rotate(134.344 104.711 69.9965)" fill="white"/>
<ellipse cx="105.923" cy="65.0294" rx="3.35043" ry="1.95442" transform="rotate(-141.204 105.923 65.0294)" fill="white"/>
<ellipse rx="1.34408" ry="0.215271" transform="matrix(0.323963 -0.94607 -0.94607 -0.323963 107.582 72.4333)" fill="white"/>
<ellipse rx="5.11665" ry="2.98472" transform="matrix(0.698969 0.715152 0.715152 -0.698969 112.757 69.9965)" fill="white"/>
<ellipse rx="3.35043" ry="1.95442" transform="matrix(0.779379 -0.626553 -0.626553 -0.779379 111.545 65.0292)" fill="white"/>
<ellipse cx="109.885" cy="72.4336" rx="1.34408" ry="0.215271" transform="rotate(-108.903 109.885 72.4336)" fill="white"/>
<ellipse cx="159.289" cy="67.1524" rx="5.11665" ry="2.98472" transform="rotate(-45.6557 159.289 67.1524)" fill="white"/>
<ellipse cx="158.077" cy="72.1195" rx="3.35043" ry="1.95442" transform="rotate(38.7963 158.077 72.1195)" fill="white"/>
<ellipse rx="1.34408" ry="0.215271" transform="matrix(-0.323963 0.94607 0.94607 0.323963 156.418 64.7156)" fill="white"/>
<ellipse rx="5.11665" ry="2.98472" transform="matrix(-0.698969 -0.715152 -0.715152 0.698969 151.243 67.1521)" fill="white"/>
<ellipse rx="3.35043" ry="1.95442" transform="matrix(-0.779379 0.626553 0.626553 0.779379 152.455 72.1195)" fill="white"/>
<ellipse cx="154.115" cy="64.7151" rx="1.34408" ry="0.215271" transform="rotate(71.0973 154.115 64.7151)" fill="white"/>
<ellipse cx="133.751" cy="95.289" rx="5.11665" ry="2.98472" transform="rotate(44.3443 133.751 95.289)" fill="white"/>
<ellipse cx="128.784" cy="94.0774" rx="3.35043" ry="1.95442" transform="rotate(128.796 128.784 94.0774)" fill="white"/>
<ellipse rx="1.34408" ry="0.215271" transform="matrix(-0.94607 -0.323963 -0.323963 0.94607 136.188 92.4176)" fill="white"/>
<ellipse rx="5.11665" ry="2.98472" transform="matrix(0.715152 -0.698969 -0.698969 -0.715152 133.751 87.2432)" fill="white"/>
<ellipse rx="3.35043" ry="1.95442" transform="matrix(-0.626553 -0.779379 -0.779379 0.626553 128.784 88.4548)" fill="white"/>
<ellipse cx="136.188" cy="90.1146" rx="1.34408" ry="0.215271" transform="rotate(161.097 136.188 90.1146)" fill="white"/>
<ellipse cx="111.486" cy="52.4169" rx="2.32273" ry="1.35493" transform="rotate(179.344 111.486 52.4169)" fill="white"/>
<ellipse cx="113.469" cy="51.2112" rx="1.52095" ry="0.88722" transform="rotate(-96.2037 113.469 51.2112)" fill="white"/>
<ellipse rx="0.610154" ry="0.0977234" transform="matrix(0.898049 -0.439896 -0.439896 -0.898049 111.625 54.1206)" fill="white"/>
<ellipse rx="2.32274" ry="1.35493" transform="matrix(-0.0114432 0.999934 0.999934 0.0114435 114.069 54.9992)" fill="white"/>
<ellipse rx="1.52095" ry="0.88722" transform="matrix(0.994144 0.108064 0.108064 -0.994144 115.274 53.0155)" fill="white"/>
<ellipse cx="112.364" cy="54.8595" rx="0.610154" ry="0.0977234" transform="rotate(-63.9027 112.364 54.8595)" fill="white"/>
<ellipse cx="113.908" cy="86.6877" rx="2.32274" ry="1.35493" transform="rotate(89.3443 113.908 86.6877)" fill="white"/>
<ellipse cx="112.703" cy="84.7042" rx="1.52095" ry="0.88722" transform="rotate(173.796 112.703 84.7042)" fill="white"/>
<ellipse rx="0.610154" ry="0.0977234" transform="matrix(-0.439896 -0.898049 -0.898049 0.439896 115.612 86.5483)" fill="white"/>
<ellipse rx="2.32274" ry="1.35493" transform="matrix(0.999935 0.0114432 0.0114435 -0.999935 116.49 84.1044)" fill="white"/>
<ellipse rx="1.52095" ry="0.88722" transform="matrix(0.108064 -0.994144 -0.994144 -0.108064 114.506 82.8989)" fill="white"/>
<ellipse cx="116.351" cy="85.8084" rx="0.610155" ry="0.0977234" transform="rotate(-153.903 116.351 85.8084)" fill="white"/>
<ellipse cx="150.442" cy="85.7741" rx="2.32274" ry="1.35493" transform="rotate(-0.655669 150.442 85.7741)" fill="white"/>
<ellipse cx="148.459" cy="86.9797" rx="1.52095" ry="0.88722" transform="rotate(83.7963 148.459 86.9797)" fill="white"/>
<ellipse rx="0.610154" ry="0.0977234" transform="matrix(-0.898049 0.439896 0.439896 0.898049 150.303 84.0703)" fill="white"/>
<ellipse rx="2.32274" ry="1.35493" transform="matrix(0.0114432 -0.999935 -0.999935 -0.0114435 147.859 83.1917)" fill="white"/>
<ellipse rx="1.52095" ry="0.88722" transform="matrix(-0.994144 -0.108064 -0.108064 0.994144 146.653 85.1754)" fill="white"/>
<ellipse cx="149.563" cy="83.3314" rx="0.610154" ry="0.0977235" transform="rotate(116.097 149.563 83.3314)" fill="white"/>
<ellipse cx="150.283" cy="50.7491" rx="2.32274" ry="1.35493" transform="rotate(-90.6557 150.283 50.7491)" fill="white"/>
<ellipse cx="151.489" cy="52.7326" rx="1.52095" ry="0.88722" transform="rotate(-6.20373 151.489 52.7326)" fill="white"/>
<ellipse rx="0.610154" ry="0.0977234" transform="matrix(0.439896 0.898049 0.898049 -0.439896 148.579 50.8885)" fill="white"/>
<ellipse rx="2.32274" ry="1.35493" transform="matrix(-0.999935 -0.0114432 -0.0114435 0.999935 147.701 53.3319)" fill="white"/>
<ellipse rx="1.52095" ry="0.88722" transform="matrix(-0.108064 0.994144 0.994144 0.108064 149.685 54.5374)" fill="white"/>
<ellipse cx="147.841" cy="51.6279" rx="0.610155" ry="0.0977234" transform="rotate(26.0973 147.841 51.6279)" fill="white"/>
<ellipse cx="142.813" cy="45.865" rx="1.23998" ry="0.723319" transform="rotate(-113.156 142.813 45.865)" fill="white"/>
<ellipse cx="143.813" cy="46.5968" rx="0.811948" ry="0.473636" transform="rotate(-28.7037 143.813 46.5968)" fill="white"/>
<ellipse rx="0.325727" ry="0.0521689" transform="matrix(0.75008 0.661348 0.661348 -0.75008 142.001 46.282)" fill="white"/>
<ellipse rx="1.23998" ry="0.723319" transform="matrix(-0.928198 0.372086 0.372086 0.928198 142.067 47.6665)" fill="white"/>
<ellipse rx="0.811948" ry="0.473636" transform="matrix(0.280604 0.959824 0.959824 -0.280604 143.291 47.8557)" fill="white"/>
<ellipse cx="141.788" cy="46.7974" rx="0.325727" ry="0.052169" transform="rotate(3.59728 141.788 46.7974)" fill="white"/>
<ellipse cx="120.187" cy="46.129" rx="1.23998" ry="0.723319" transform="rotate(-158.156 120.187 46.129)" fill="white"/>
<ellipse cx="121.411" cy="45.9398" rx="0.811948" ry="0.473636" transform="rotate(-73.7037 121.411 45.9398)" fill="white"/>
<ellipse rx="0.325727" ry="0.0521689" transform="matrix(0.99803 -0.0627429 -0.0627429 -0.99803 119.908 46.9981)" fill="white"/>
<ellipse rx="1.23998" ry="0.723319" transform="matrix(-0.393231 0.91944 0.91944 0.393231 120.933 47.9304)" fill="white"/>
<ellipse rx="0.811948" ry="0.473636" transform="matrix(0.877115 0.480281 0.480281 -0.877115 121.933 47.1982)" fill="white"/>
<ellipse cx="120.121" cy="47.5134" rx="0.325727" ry="0.052169" transform="rotate(-41.4027 120.121 47.5134)" fill="white"/>
<ellipse cx="108.866" cy="59.3323" rx="1.23998" ry="0.723319" transform="rotate(156.844 108.866 59.3323)" fill="white"/>
<ellipse cx="109.597" cy="58.3328" rx="0.811948" ry="0.473636" transform="rotate(-118.704 109.597 58.3328)" fill="white"/>
<ellipse rx="0.325727" ry="0.0521689" transform="matrix(0.661348 -0.75008 -0.75008 -0.661348 109.282 60.1445)" fill="white"/>
<ellipse rx="1.23998" ry="0.723319" transform="matrix(0.372086 0.928198 0.928198 -0.372086 110.667 60.0788)" fill="white"/>
<ellipse rx="0.811948" ry="0.473636" transform="matrix(0.959824 -0.280604 -0.280604 -0.959824 110.856 58.8542)" fill="white"/>
<ellipse cx="109.798" cy="60.3581" rx="0.325727" ry="0.052169" transform="rotate(-86.4028 109.798 60.3581)" fill="white"/>
<ellipse cx="109.129" cy="78.1865" rx="1.23998" ry="0.723319" transform="rotate(111.844 109.129 78.1865)" fill="white"/>
<ellipse cx="108.94" cy="76.9618" rx="0.811948" ry="0.473636" transform="rotate(-163.704 108.94 76.9618)" fill="white"/>
<ellipse rx="0.325727" ry="0.0521689" transform="matrix(-0.0627429 -0.99803 -0.99803 0.0627429 109.998 78.4655)" fill="white"/>
<ellipse rx="1.23998" ry="0.723319" transform="matrix(0.91944 0.393231 0.393231 -0.91944 110.93 77.4395)" fill="white"/>
<ellipse rx="0.811948" ry="0.473636" transform="matrix(0.480281 -0.877115 -0.877115 -0.480281 110.198 76.4397)" fill="white"/>
<ellipse cx="110.513" cy="78.2514" rx="0.325727" ry="0.052169" transform="rotate(-131.403 110.513 78.2514)" fill="white"/>
<ellipse cx="121.915" cy="90.5991" rx="1.23998" ry="0.723319" transform="rotate(66.8443 121.915 90.5991)" fill="white"/>
<ellipse cx="120.915" cy="89.8671" rx="0.811948" ry="0.473636" transform="rotate(151.296 120.915 89.8671)" fill="white"/>
<ellipse rx="0.325727" ry="0.0521689" transform="matrix(-0.75008 -0.661348 -0.661348 0.75008 122.727 90.1821)" fill="white"/>
<ellipse rx="1.23998" ry="0.723319" transform="matrix(0.928198 -0.372086 -0.372086 -0.928198 122.661 88.7977)" fill="white"/>
<ellipse rx="0.811948" ry="0.473636" transform="matrix(-0.280604 -0.959824 -0.959824 0.280604 121.437 88.6085)" fill="white"/>
<ellipse cx="122.94" cy="89.6668" rx="0.325727" ry="0.052169" transform="rotate(-176.403 122.94 89.6668)" fill="white"/>
<ellipse cx="141.941" cy="90.6721" rx="1.23998" ry="0.723319" transform="rotate(21.8443 141.941 90.6721)" fill="white"/>
<ellipse cx="140.716" cy="90.8613" rx="0.811948" ry="0.473636" transform="rotate(106.296 140.716 90.8613)" fill="white"/>
<ellipse rx="0.325727" ry="0.0521689" transform="matrix(-0.99803 0.0627429 0.0627429 0.99803 142.22 89.803)" fill="white"/>
<ellipse rx="1.23998" ry="0.723319" transform="matrix(0.393231 -0.91944 -0.91944 -0.393231 141.195 88.8704)" fill="white"/>
<ellipse rx="0.811948" ry="0.473636" transform="matrix(-0.877115 -0.480281 -0.480281 0.877115 140.195 89.6026)" fill="white"/>
<ellipse cx="142.007" cy="89.2874" rx="0.325727" ry="0.052169" transform="rotate(138.597 142.007 89.2874)" fill="white"/>
<ellipse cx="153.936" cy="79.0588" rx="1.23998" ry="0.723319" transform="rotate(-23.1557 153.936 79.0588)" fill="white"/>
<ellipse cx="153.204" cy="80.0583" rx="0.811948" ry="0.473636" transform="rotate(61.2963 153.204 80.0583)" fill="white"/>
<ellipse rx="0.325727" ry="0.0521689" transform="matrix(-0.661348 0.75008 0.75008 0.661348 153.519 78.2466)" fill="white"/>
<ellipse rx="1.23998" ry="0.723319" transform="matrix(-0.372086 -0.928198 -0.928198 0.372086 152.134 78.3123)" fill="white"/>
<ellipse rx="0.811948" ry="0.473636" transform="matrix(-0.959824 0.280604 0.280604 0.959824 151.945 79.5369)" fill="white"/>
<ellipse cx="153.004" cy="78.033" rx="0.325727" ry="0.052169" transform="rotate(93.5972 153.004 78.033)" fill="white"/>
<ellipse cx="154.426" cy="57.9412" rx="1.23998" ry="0.723319" transform="rotate(-68.1557 154.426 57.9412)" fill="white"/>
<ellipse cx="154.616" cy="59.1658" rx="0.811948" ry="0.473636" transform="rotate(16.2963 154.616 59.1658)" fill="white"/>
<ellipse rx="0.325727" ry="0.0521689" transform="matrix(0.0627429 0.99803 0.99803 -0.0627429 153.557 57.6621)" fill="white"/>
<ellipse rx="1.23998" ry="0.723319" transform="matrix(-0.91944 -0.393231 -0.393231 0.91944 152.625 58.6884)" fill="white"/>
<ellipse rx="0.811948" ry="0.473636" transform="matrix(-0.480281 0.877115 0.877115 0.480281 153.358 59.6882)" fill="white"/>
<ellipse cx="153.042" cy="57.8765" rx="0.325727" ry="0.052169" transform="rotate(48.5973 153.042 57.8765)" fill="white"/>
<circle cx="131.952" cy="68.1971" r="23.6434" stroke="white"/>
</svg>
