<svg width="86" height="18" viewBox="0 0 86 18" fill="none" xmlns="http://www.w3.org/2000/svg">
<path d="M23.628 5.64V8.484H26.994V10.05H23.628V15H21.774V4.074H27.21V5.64H23.628ZM30.3428 5.64V8.484H34.0148V10.05H30.3428V13.434H34.1408V15H28.4888V4.074H34.1408V5.64H30.3428ZM37.5893 12.552L36.6173 15H34.6552L38.9033 3.786H40.5593L44.6992 15H42.7193L41.8013 12.552H37.5893ZM39.6233 6.468L38.0393 11.094H41.2973L39.6233 6.468ZM48.6938 15H47.0198V5.64H44.5898V4.074H51.1238V5.64H48.6938V15ZM51.8489 4.074H53.7029V10.194C53.7029 12.546 54.4409 13.722 55.9169 13.722C57.3929 13.722 58.1309 12.546 58.1309 10.194V4.074H59.9669V10.608C59.9669 13.728 58.6109 15.288 55.8989 15.288C53.1989 15.288 51.8489 13.728 51.8489 10.608V4.074ZM68.7194 15H66.4334L63.3374 10.14L63.3194 15H61.4654V4.074H64.3634C66.7994 4.074 68.0174 5.172 68.0174 7.368C68.0174 8.196 67.8014 8.886 67.3694 9.438C66.9494 9.99 66.3734 10.308 65.6414 10.392L68.7194 15ZM63.3194 9.384H63.8774C65.4014 9.384 66.1634 8.73 66.1634 7.422C66.1634 6.162 65.4074 5.532 63.8954 5.532H63.3194V9.384ZM71.4053 5.64V8.484H75.0773V10.05H71.4053V13.434H75.2033V15H69.5513V4.074H75.2033V5.64H71.4053ZM76.6178 4.074H79.6778C81.2378 4.074 82.5038 4.59 83.4758 5.622C84.4598 6.654 84.9518 7.956 84.9518 9.528C84.9518 11.1 84.4538 12.408 83.4578 13.452C82.4738 14.484 81.2078 15 79.6598 15H76.6178V4.074ZM78.4718 13.326H79.1018C81.7178 13.326 83.0258 12.066 83.0258 9.546C83.0258 7.014 81.7178 5.748 79.1018 5.748H78.4718V13.326Z" fill="black"/>
<path fill-rule="evenodd" clip-rule="evenodd" d="M5.625 4H0V9.625H3.375V13H9V7.375H5.625V4ZM5.625 7.375H3.375V9.625H5.625V7.375Z" fill="black"/>
</svg>
