<svg width="256" height="316" viewBox="0 0 256 316" fill="none" xmlns="http://www.w3.org/2000/svg">
<rect width="256" height="316" transform="matrix(1 0 0 -1 0 316)" fill="black"/>
<path d="M35.024 105.184L31.376 115.192H30.776L27.344 105.136L25.688 115H23.216L25.664 100.048H27.488L31.28 110.056L34.904 100.048H36.752L38.936 115H36.464L35.024 105.184ZM42.6524 102.52V106.312H47.5484V108.4H42.6524V112.912H47.7164V115H40.1804V100.432H47.7164V102.52H42.6524ZM49.6023 100.048H51.4743L59.7063 111.016L59.7543 100.432H62.2023V115.288H60.3543L52.0983 104.344L52.0743 115H49.6023V100.048ZM68.7142 115H66.4822V102.52H63.2422V100.432H71.9542V102.52H68.7142V115ZM72.2969 107.752C72.2969 105.624 72.9769 103.808 74.3369 102.304C75.7129 100.8 77.4409 100.048 79.5209 100.048C81.6009 100.048 83.3209 100.8 84.6809 102.304C86.0409 103.808 86.7209 105.616 86.7209 107.728C86.7209 109.84 86.0409 111.648 84.6809 113.152C83.3369 114.64 81.6169 115.384 79.5209 115.384C77.4249 115.384 75.6969 114.64 74.3369 113.152C72.9769 111.664 72.2969 109.864 72.2969 107.752ZM74.8649 107.584C74.8649 109.008 75.3129 110.264 76.2089 111.352C77.1049 112.424 78.2089 112.96 79.5209 112.96C80.9289 112.96 82.0569 112.448 82.9049 111.424C83.7529 110.384 84.1769 109.104 84.1769 107.584C84.1769 106.144 83.7529 104.936 82.9049 103.96C82.0569 102.968 80.9209 102.472 79.4969 102.472C78.0889 102.472 76.9609 102.968 76.1129 103.96C75.2809 104.952 74.8649 106.16 74.8649 107.584ZM97.7821 115H94.7341L90.6061 108.52L90.5821 115H88.1101V100.432H91.9741C95.2221 100.432 96.8461 101.896 96.8461 104.824C96.8461 105.928 96.5581 106.848 95.9821 107.584C95.4221 108.32 94.6541 108.744 93.6781 108.856L97.7821 115ZM90.5821 107.512H91.3261C93.3581 107.512 94.3741 106.64 94.3741 104.896C94.3741 103.216 93.3661 102.376 91.3501 102.376H90.5821V107.512ZM98.8914 100.048H100.763L108.995 111.016L109.043 100.432H111.491V115.288H109.643L101.387 104.344L101.363 115H98.8914V100.048ZM116.035 102.52V106.312H120.931V108.4H116.035V112.912H121.099V115H113.563V100.432H121.099V102.52H116.035ZM127.425 115H125.193V102.52H121.953V100.432H130.665V102.52H127.425V115Z" fill="white"/>
<path fill-rule="evenodd" clip-rule="evenodd" d="M46.1803 29.878L25.8096 32.2195L25.6759 31.0564L46.0466 28.7149L46.1803 29.878Z" fill="white"/>
<path fill-rule="evenodd" clip-rule="evenodd" d="M35.4095 52.8242L26.2778 57.0388L25.7872 55.9758L34.9189 51.7612L35.4095 52.8242Z" fill="white"/>
<path fill-rule="evenodd" clip-rule="evenodd" d="M63.0388 52.122L67.7217 32.6879L68.8599 32.9622L64.1769 52.3963L63.0388 52.122Z" fill="white"/>
<path fill-rule="evenodd" clip-rule="evenodd" d="M35.4096 52.122L63.0388 52.122V53.2927L35.4096 53.2927V52.122Z" fill="white"/>
<path fill-rule="evenodd" clip-rule="evenodd" d="M34.7077 52.122L48.5223 28.7073L49.5306 29.3022L35.716 52.7169L34.7077 52.122Z" fill="white"/>
<path fill-rule="evenodd" clip-rule="evenodd" d="M34.7073 52.1218L25.5756 32.2194L26.6396 31.7312L35.7713 51.6336L34.7073 52.1218Z" fill="white"/>
<path fill-rule="evenodd" clip-rule="evenodd" d="M63.0394 52.122L48.5223 29.4098L49.5088 28.7793L64.0258 51.4915L63.0394 52.122Z" fill="white"/>
<path fill-rule="evenodd" clip-rule="evenodd" d="M63.7416 52.1219L68.6587 56.8048L67.8513 57.6526L62.9342 52.9697L63.7416 52.1219Z" fill="white"/>
<path fill-rule="evenodd" clip-rule="evenodd" d="M63.039 52.8243L46.6487 69.4486L45.8151 68.6267L62.2053 52.0023L63.039 52.8243Z" fill="white"/>
<path fill-rule="evenodd" clip-rule="evenodd" d="M35.4098 52.1218L46.1805 68.9803L45.194 69.6106L34.4232 52.7521L35.4098 52.1218Z" fill="white"/>
<path fill-rule="evenodd" clip-rule="evenodd" d="M67.7222 33.1561L48.7564 29.4098L48.9833 28.2612L67.9491 32.0076L67.7222 33.1561Z" fill="white"/>
<path fill-rule="evenodd" clip-rule="evenodd" d="M46.6488 20.5122L26.7464 32.2195L26.1528 31.2104L46.0553 19.5031L46.6488 20.5122Z" fill="white"/>
<path fill-rule="evenodd" clip-rule="evenodd" d="M46.6486 19.8099L49.2242 28.7074L48.0996 29.033L45.524 20.1354L46.6486 19.8099Z" fill="white"/>
<path fill-rule="evenodd" clip-rule="evenodd" d="M46.6485 20.7465L31.429 36.2002L30.5948 35.3787L45.8143 19.925L46.6485 20.7465Z" fill="white"/>
<path fill-rule="evenodd" clip-rule="evenodd" d="M26.2777 31.517L26.746 56.8047L25.5754 56.8264L25.1071 31.5386L26.2777 31.517Z" fill="white"/>
<path fill-rule="evenodd" clip-rule="evenodd" d="M31.429 36.2001L26.7461 57.0392L25.6039 56.7825L30.2868 35.9435L31.429 36.2001Z" fill="white"/>
<path fill-rule="evenodd" clip-rule="evenodd" d="M26.7462 57.0389L46.6487 68.5121L46.064 69.5264L26.1615 58.0532L26.7462 57.0389Z" fill="white"/>
<path fill-rule="evenodd" clip-rule="evenodd" d="M57.6537 36.6683H30.9611V35.4976H57.6537V36.6683Z" fill="white"/>
<path fill-rule="evenodd" clip-rule="evenodd" d="M68.19 33.3903L57.8876 36.6684L57.5326 35.5527L67.835 32.2747L68.19 33.3903Z" fill="white"/>
<path fill-rule="evenodd" clip-rule="evenodd" d="M67.7218 33.3902L46.6487 20.5121L47.2592 19.5132L68.3323 32.3912L67.7218 33.3902Z" fill="white"/>
<path fill-rule="evenodd" clip-rule="evenodd" d="M57.8878 36.6682L44.7756 59.6145L43.7592 59.0337L56.8713 36.0874L57.8878 36.6682Z" fill="white"/>
<path fill-rule="evenodd" clip-rule="evenodd" d="M43.839 59.3806L30.4926 36.4343L31.5046 35.8457L44.851 58.792L43.839 59.3806Z" fill="white"/>
<path fill-rule="evenodd" clip-rule="evenodd" d="M30.9612 36.6682L26.2783 32.6877L27.0365 31.7957L31.7194 35.7761L30.9612 36.6682Z" fill="white"/>
<path fill-rule="evenodd" clip-rule="evenodd" d="M44.3076 60.083L26.2783 57.7415L26.4291 56.5806L44.4583 58.922L44.3076 60.083Z" fill="white"/>
<path fill-rule="evenodd" clip-rule="evenodd" d="M68.1923 57.764L44.3072 60.083L44.1941 58.9177L68.0792 56.5988L68.1923 57.764Z" fill="white"/>
<path fill-rule="evenodd" clip-rule="evenodd" d="M68.6585 32.6876L68.6585 57.0388L67.4878 57.0388L67.4878 32.6876L68.6585 32.6876Z" fill="white"/>
<path fill-rule="evenodd" clip-rule="evenodd" d="M68.6583 57.7415L47.1169 69.4488L46.5579 68.4202L68.0993 56.7129L68.6583 57.7415Z" fill="white"/>
<path fill-rule="evenodd" clip-rule="evenodd" d="M45.9463 68.9805L43.839 59.6147L44.9812 59.3577L47.0885 68.7235L45.9463 68.9805Z" fill="white"/>
<path d="M33.771 36.1999C33.771 37.7517 32.513 39.0096 30.9612 39.0096C29.4095 39.0096 28.1515 37.7517 28.1515 36.1999C28.1515 34.6481 29.4095 33.3901 30.9612 33.3901C32.513 33.3901 33.771 34.6481 33.771 36.1999Z" fill="white"/>
<path d="M51.3314 28.7072C51.3314 30.259 50.0735 31.517 48.5217 31.517C46.9699 31.517 45.7119 30.259 45.7119 28.7072C45.7119 27.1554 46.9699 25.8975 48.5217 25.8975C50.0735 25.8975 51.3314 27.1554 51.3314 28.7072Z" fill="white"/>
<path d="M38.2195 52.122C38.2195 53.6738 36.9615 54.9318 35.4097 54.9318C33.8579 54.9318 32.6 53.6738 32.6 52.122C32.6 50.5702 33.8579 49.3123 35.4097 49.3123C36.9615 49.3123 38.2195 50.5702 38.2195 52.122Z" fill="white"/>
<path d="M65.8488 52.122C65.8488 53.6738 64.5908 54.9318 63.039 54.9318C61.4872 54.9318 60.2292 53.6738 60.2292 52.122C60.2292 50.5702 61.4872 49.3123 63.039 49.3123C64.5908 49.3123 65.8488 50.5702 65.8488 52.122Z" fill="white"/>
<path fill-rule="evenodd" clip-rule="evenodd" d="M57.8878 35.9658L68.6585 57.039L67.6161 57.5718L56.8454 36.4986L57.8878 35.9658Z" fill="white"/>
<path d="M28.6195 31.517C28.6195 33.0688 27.3615 34.3268 25.8098 34.3268C24.258 34.3268 23 33.0688 23 31.517C23 29.9652 24.258 28.7073 25.8098 28.7073C27.3615 28.7073 28.6195 29.9652 28.6195 31.517Z" fill="white"/>
<path d="M29.0878 56.8049C29.0878 58.3567 27.8298 59.6146 26.278 59.6146C24.7262 59.6146 23.4683 58.3567 23.4683 56.8049C23.4683 55.2531 24.7262 53.9951 26.278 53.9951C27.8298 53.9951 29.0878 55.2531 29.0878 56.8049Z" fill="white"/>
<path d="M47.1171 59.6144C47.1171 61.1662 45.8591 62.4242 44.3073 62.4242C42.7555 62.4242 41.4976 61.1662 41.4976 59.6144C41.4976 58.0627 42.7555 56.8047 44.3073 56.8047C45.8591 56.8047 47.1171 58.0627 47.1171 59.6144Z" fill="white"/>
<path d="M49.4584 68.9804C49.4584 70.5322 48.2004 71.7902 46.6486 71.7902C45.0968 71.7902 43.8389 70.5322 43.8389 68.9804C43.8389 67.4286 45.0968 66.1707 46.6486 66.1707C48.2004 66.1707 49.4584 67.4286 49.4584 68.9804Z" fill="white"/>
<path d="M71.0001 57.039C71.0001 58.5908 69.7422 59.8488 68.1904 59.8488C66.6386 59.8488 65.3806 58.5908 65.3806 57.039C65.3806 55.4872 66.6386 54.2292 68.1904 54.2292C69.7422 54.2292 71.0001 55.4872 71.0001 57.039Z" fill="white"/>
<path d="M71.0001 32.6879C71.0001 34.2397 69.7422 35.4977 68.1904 35.4977C66.6386 35.4977 65.3806 34.2397 65.3806 32.6879C65.3806 31.1361 66.6386 29.8782 68.1904 29.8782C69.7422 29.8782 71.0001 31.1361 71.0001 32.6879Z" fill="white"/>
<path d="M60.229 36.434C60.229 37.9858 58.971 39.2438 57.4193 39.2438C55.8675 39.2438 54.6095 37.9858 54.6095 36.434C54.6095 34.8822 55.8675 33.6243 57.4193 33.6243C58.971 33.6243 60.229 34.8822 60.229 36.434Z" fill="white"/>
<path fill-rule="evenodd" clip-rule="evenodd" d="M57.4192 36.6684L46.1802 20.5123L47.1412 19.8438L58.3802 35.9998L57.4192 36.6684Z" fill="white"/>
<path d="M48.9901 19.8098C48.9901 21.3615 47.7321 22.6195 46.1804 22.6195C44.6286 22.6195 43.3706 21.3615 43.3706 19.8098C43.3706 18.258 44.6286 17 46.1804 17C47.7321 17 48.9901 18.258 48.9901 19.8098Z" fill="white"/>
<path d="M25.808 164.552L24.836 167H22.874L27.122 155.786H28.778L32.918 167H30.938L30.02 164.552H25.808ZM27.842 158.468L26.258 163.094H29.516L27.842 158.468ZM39.5403 154.706H41.2863V160.538C41.7903 159.95 42.5403 159.656 43.5363 159.656C44.4723 159.656 45.2463 160.028 45.8583 160.772C46.4823 161.516 46.7943 162.392 46.7943 163.4C46.7943 164.492 46.4883 165.404 45.8763 166.136C45.2643 166.868 44.4723 167.234 43.5003 167.234C42.4563 167.234 41.7303 166.934 41.3223 166.334L41.2863 167H39.5403V154.706ZM45.0123 163.436C45.0123 162.836 44.8263 162.308 44.4543 161.852C44.0823 161.396 43.6083 161.168 43.0323 161.168C42.4563 161.168 41.9883 161.396 41.6283 161.852C41.2683 162.296 41.0883 162.83 41.0883 163.454C41.0883 164.066 41.2743 164.6 41.6463 165.056C42.0303 165.5 42.4983 165.722 43.0503 165.722C43.6503 165.722 44.1243 165.506 44.4723 165.074C44.8323 164.63 45.0123 164.084 45.0123 163.436ZM49.0817 163.616C49.0817 164.3 49.2317 164.864 49.5317 165.308C49.8317 165.752 50.2457 165.974 50.7737 165.974C51.6017 165.974 52.1297 165.566 52.3577 164.75L54.0137 165.02C53.4737 166.496 52.3937 167.234 50.7737 167.234C49.6937 167.234 48.8297 166.892 48.1817 166.208C47.5457 165.512 47.2277 164.612 47.2277 163.508C47.2277 162.344 47.5337 161.414 48.1457 160.718C48.7697 160.01 49.6097 159.656 50.6657 159.656C51.7337 159.656 52.5617 159.992 53.1497 160.664C53.7497 161.324 54.0497 162.23 54.0497 163.382V163.616H49.0817ZM52.4297 162.644C52.4297 162.152 52.2737 161.72 51.9617 161.348C51.6617 160.976 51.2657 160.79 50.7737 160.79C50.2937 160.79 49.8977 160.988 49.5857 161.384C49.2857 161.768 49.1357 162.188 49.1357 162.644H52.4297ZM57.1335 167H55.3875V161.456H54.5415V160.034H55.3875V157.478H57.1335V160.034H58.5195V161.456H57.1335V167ZM61.1061 167H59.3601V161.456H58.5141V160.034H59.3601V157.478H61.1061V160.034H62.4921V161.456H61.1061V167ZM64.2868 163.616C64.2868 164.3 64.4368 164.864 64.7368 165.308C65.0368 165.752 65.4508 165.974 65.9788 165.974C66.8068 165.974 67.3348 165.566 67.5628 164.75L69.2188 165.02C68.6788 166.496 67.5988 167.234 65.9788 167.234C64.8988 167.234 64.0348 166.892 63.3868 166.208C62.7508 165.512 62.4328 164.612 62.4328 163.508C62.4328 162.344 62.7388 161.414 63.3508 160.718C63.9748 160.01 64.8148 159.656 65.8708 159.656C66.9388 159.656 67.7668 159.992 68.3548 160.664C68.9548 161.324 69.2548 162.23 69.2548 163.382V163.616H64.2868ZM67.6348 162.644C67.6348 162.152 67.4788 161.72 67.1668 161.348C66.8668 160.976 66.4708 160.79 65.9788 160.79C65.4988 160.79 65.1028 160.988 64.7908 161.384C64.4908 161.768 64.3408 162.188 64.3408 162.644H67.6348ZM71.9426 160.628C72.3866 159.98 73.0826 159.656 74.0306 159.656C74.3306 159.656 74.6066 159.716 74.8586 159.836L74.6426 161.42C74.3786 161.252 74.0906 161.168 73.7786 161.168C72.5546 161.168 71.9426 162.044 71.9426 163.796V167H70.1966V159.89H71.9426V160.628ZM83.2629 160.538C83.7669 159.95 84.5169 159.656 85.5129 159.656C86.4489 159.656 87.2229 160.028 87.8349 160.772C88.4589 161.516 88.7709 162.392 88.7709 163.4C88.7709 164.492 88.4649 165.404 87.8529 166.136C87.2409 166.868 86.4489 167.234 85.4769 167.234C84.4329 167.234 83.7069 166.934 83.2989 166.334L83.2629 170.006H81.5169V159.89H83.2629V160.538ZM86.9889 163.436C86.9889 162.824 86.8149 162.296 86.4669 161.852C86.1189 161.396 85.6389 161.168 85.0269 161.168C84.4629 161.168 83.9949 161.396 83.6229 161.852C83.2509 162.308 83.0649 162.836 83.0649 163.436C83.0649 164.024 83.2629 164.552 83.6589 165.02C84.0549 165.488 84.5109 165.722 85.0269 165.722C85.6389 165.722 86.1189 165.506 86.4669 165.074C86.8149 164.642 86.9889 164.096 86.9889 163.436ZM91.5983 167H89.8523V154.706H91.5983V167ZM99.9032 167H98.1932V166.352C97.6892 166.94 96.9392 167.234 95.9432 167.234C94.9472 167.234 94.1492 166.85 93.5492 166.082C92.9612 165.314 92.6672 164.414 92.6672 163.382C92.6672 162.35 92.9672 161.474 93.5672 160.754C94.1792 160.022 94.9592 159.656 95.9072 159.656C96.9152 159.656 97.6772 159.956 98.1932 160.556V159.89H99.9032V167ZM98.3912 163.436C98.3912 162.776 98.2052 162.236 97.8332 161.816C97.4612 161.384 96.9812 161.168 96.3932 161.168C95.8172 161.168 95.3432 161.378 94.9712 161.798C94.6112 162.206 94.4312 162.752 94.4312 163.436C94.4312 164.12 94.6172 164.672 94.9892 165.092C95.3612 165.512 95.8412 165.722 96.4292 165.722C97.0172 165.722 97.4912 165.518 97.8512 165.11C98.2112 164.702 98.3912 164.144 98.3912 163.436ZM103.505 167H101.759V161.456H100.913V160.034H101.759V157.478H103.505V160.034H104.891V161.456H103.505V167ZM107.297 167H105.551V161.456H104.723V160.034H105.551V157.802C105.551 155.63 106.397 154.544 108.089 154.544C108.437 154.544 108.761 154.622 109.061 154.778V156.29C108.749 156.134 108.473 156.056 108.233 156.056C107.909 156.056 107.669 156.176 107.513 156.416C107.369 156.644 107.297 157.202 107.297 158.09V160.034H109.061V161.456H107.297V167ZM116.714 163.436C116.714 164.552 116.372 165.464 115.688 166.172C115.004 166.88 114.104 167.234 112.988 167.234C111.884 167.234 110.984 166.88 110.288 166.172C109.592 165.464 109.244 164.558 109.244 163.454C109.244 162.338 109.586 161.426 110.27 160.718C110.954 160.01 111.854 159.656 112.97 159.656C114.086 159.656 114.986 160.01 115.67 160.718C116.366 161.414 116.714 162.32 116.714 163.436ZM111.008 163.472C111.008 164.132 111.194 164.672 111.566 165.092C111.938 165.512 112.418 165.722 113.006 165.722C113.594 165.722 114.062 165.5 114.41 165.056C114.77 164.6 114.95 164.066 114.95 163.454C114.95 162.83 114.77 162.296 114.41 161.852C114.05 161.396 113.576 161.168 112.988 161.168C112.412 161.168 111.938 161.384 111.566 161.816C111.194 162.248 111.008 162.8 111.008 163.472ZM119.421 160.628C119.865 159.98 120.561 159.656 121.509 159.656C121.809 159.656 122.085 159.716 122.337 159.836L122.121 161.42C121.857 161.252 121.569 161.168 121.257 161.168C120.033 161.168 119.421 162.044 119.421 163.796V167H117.675V159.89H119.421V160.628ZM124.73 160.52C125.174 159.944 125.858 159.656 126.782 159.656C127.586 159.656 128.222 160.028 128.69 160.772C129.146 160.028 129.884 159.656 130.904 159.656C132.404 159.656 133.154 160.628 133.154 162.572V167H131.426V163.256C131.426 161.744 131.012 160.988 130.184 160.988C129.356 160.988 128.942 161.828 128.942 163.508V167H127.196V163.4C127.196 161.792 126.83 160.988 126.098 160.988C125.186 160.988 124.73 161.828 124.73 163.508V167H122.984V159.89H124.73V160.52ZM142.774 167H141.028V161.456H140.182V160.034H141.028V157.478H142.774V160.034H144.16V161.456H142.774V167ZM151.589 163.436C151.589 164.552 151.247 165.464 150.563 166.172C149.879 166.88 148.979 167.234 147.863 167.234C146.759 167.234 145.859 166.88 145.163 166.172C144.467 165.464 144.119 164.558 144.119 163.454C144.119 162.338 144.461 161.426 145.145 160.718C145.829 160.01 146.729 159.656 147.845 159.656C148.961 159.656 149.861 160.01 150.545 160.718C151.241 161.414 151.589 162.32 151.589 163.436ZM145.883 163.472C145.883 164.132 146.069 164.672 146.441 165.092C146.813 165.512 147.293 165.722 147.881 165.722C148.469 165.722 148.937 165.5 149.285 165.056C149.645 164.6 149.825 164.066 149.825 163.454C149.825 162.83 149.645 162.296 149.285 161.852C148.925 161.396 148.451 161.168 147.863 161.168C147.287 161.168 146.813 161.384 146.441 161.816C146.069 162.248 145.883 162.8 145.883 163.472ZM160.308 154.706V160.484C160.764 159.932 161.49 159.656 162.486 159.656C163.23 159.656 163.824 159.944 164.268 160.52C164.712 161.096 164.934 161.81 164.934 162.662V167H163.206V163.238C163.206 161.738 162.744 160.988 161.82 160.988C160.812 160.988 160.308 161.816 160.308 163.472V167H158.562V154.706H160.308ZM167.734 163.616C167.734 164.3 167.884 164.864 168.184 165.308C168.484 165.752 168.898 165.974 169.426 165.974C170.254 165.974 170.782 165.566 171.01 164.75L172.666 165.02C172.126 166.496 171.046 167.234 169.426 167.234C168.346 167.234 167.482 166.892 166.834 166.208C166.198 165.512 165.88 164.612 165.88 163.508C165.88 162.344 166.186 161.414 166.798 160.718C167.422 160.01 168.262 159.656 169.318 159.656C170.386 159.656 171.214 159.992 171.802 160.664C172.402 161.324 172.702 162.23 172.702 163.382V163.616H167.734ZM171.082 162.644C171.082 162.152 170.926 161.72 170.614 161.348C170.314 160.976 169.918 160.79 169.426 160.79C168.946 160.79 168.55 160.988 168.238 161.384C167.938 161.768 167.788 162.188 167.788 162.644H171.082ZM175.534 167H173.788V154.706H175.534V167ZM178.853 160.538C179.357 159.95 180.107 159.656 181.103 159.656C182.039 159.656 182.813 160.028 183.425 160.772C184.049 161.516 184.361 162.392 184.361 163.4C184.361 164.492 184.055 165.404 183.443 166.136C182.831 166.868 182.039 167.234 181.067 167.234C180.023 167.234 179.297 166.934 178.889 166.334L178.853 170.006H177.107V159.89H178.853V160.538ZM182.579 163.436C182.579 162.824 182.405 162.296 182.057 161.852C181.709 161.396 181.229 161.168 180.617 161.168C180.053 161.168 179.585 161.396 179.213 161.852C178.841 162.308 178.655 162.836 178.655 163.436C178.655 164.024 178.853 164.552 179.249 165.02C179.645 165.488 180.101 165.722 180.617 165.722C181.229 165.722 181.709 165.506 182.057 165.074C182.405 164.642 182.579 164.096 182.579 163.436ZM25.466 178.52C25.91 177.944 26.594 177.656 27.518 177.656C28.322 177.656 28.958 178.028 29.426 178.772C29.882 178.028 30.62 177.656 31.64 177.656C33.14 177.656 33.89 178.628 33.89 180.572V185H32.162V181.256C32.162 179.744 31.748 178.988 30.92 178.988C30.092 178.988 29.678 179.828 29.678 181.508V185H27.932V181.4C27.932 179.792 27.566 178.988 26.834 178.988C25.922 178.988 25.466 179.828 25.466 181.508V185H23.72V177.89H25.466V178.52ZM36.7067 181.616C36.7067 182.3 36.8567 182.864 37.1567 183.308C37.4567 183.752 37.8707 183.974 38.3987 183.974C39.2267 183.974 39.7547 183.566 39.9827 182.75L41.6387 183.02C41.0987 184.496 40.0187 185.234 38.3987 185.234C37.3187 185.234 36.4547 184.892 35.8067 184.208C35.1707 183.512 34.8527 182.612 34.8527 181.508C34.8527 180.344 35.1587 179.414 35.7707 178.718C36.3947 178.01 37.2347 177.656 38.2907 177.656C39.3587 177.656 40.1867 177.992 40.7747 178.664C41.3747 179.324 41.6747 180.23 41.6747 181.382V181.616H36.7067ZM40.0547 180.644C40.0547 180.152 39.8987 179.72 39.5867 179.348C39.2867 178.976 38.8907 178.79 38.3987 178.79C37.9187 178.79 37.5227 178.988 37.2107 179.384C36.9107 179.768 36.7607 180.188 36.7607 180.644H40.0547ZM47.6205 184.334C47.1525 184.934 46.4145 185.234 45.4065 185.234C44.3985 185.234 43.5945 184.85 42.9945 184.082C42.4065 183.314 42.1125 182.414 42.1125 181.382C42.1125 180.35 42.4125 179.474 43.0125 178.754C43.6245 178.022 44.4045 177.656 45.3525 177.656C46.3605 177.656 47.1045 177.95 47.5845 178.538L47.6205 172.706H49.3665V185H47.6205V184.334ZM47.8185 181.436C47.8185 180.812 47.6265 180.278 47.2425 179.834C46.8585 179.39 46.3965 179.168 45.8565 179.168C45.3165 179.168 44.8485 179.39 44.4525 179.834C44.0685 180.266 43.8765 180.806 43.8765 181.454C43.8765 182.09 44.0625 182.63 44.4345 183.074C44.8185 183.506 45.2985 183.722 45.8745 183.722C46.4505 183.722 46.9185 183.512 47.2785 183.092C47.6385 182.66 47.8185 182.108 47.8185 181.436ZM52.9499 174.902C52.9499 175.178 52.8479 175.418 52.6439 175.622C52.4399 175.826 52.1999 175.928 51.9239 175.928C51.6479 175.928 51.4079 175.826 51.2039 175.622C50.9999 175.418 50.8979 175.178 50.8979 174.902C50.8979 174.626 50.9999 174.386 51.2039 174.182C51.4079 173.978 51.6479 173.876 51.9239 173.876C52.1999 173.876 52.4399 173.978 52.6439 174.182C52.8479 174.386 52.9499 174.626 52.9499 174.902ZM52.8059 185H51.0599V177.89H52.8059V185ZM59.3237 179.744C58.8797 179.3 58.3817 179.078 57.8297 179.078C57.1817 179.078 56.6717 179.312 56.2997 179.78C55.9277 180.248 55.7417 180.824 55.7417 181.508C55.7417 182.18 55.9517 182.732 56.3717 183.164C56.7917 183.596 57.3017 183.812 57.9017 183.812C58.4177 183.812 58.8917 183.584 59.3237 183.128V184.802C58.8197 185.09 58.2377 185.234 57.5777 185.234C56.5457 185.234 55.6877 184.868 55.0037 184.136C54.3197 183.404 53.9777 182.51 53.9777 181.454C53.9777 180.398 54.3257 179.504 55.0217 178.772C55.7297 178.028 56.6117 177.656 57.6677 177.656C58.2917 177.656 58.8437 177.806 59.3237 178.106V179.744ZM67.3133 185H65.6033V184.352C65.0993 184.94 64.3493 185.234 63.3533 185.234C62.3573 185.234 61.5593 184.85 60.9593 184.082C60.3713 183.314 60.0773 182.414 60.0773 181.382C60.0773 180.35 60.3773 179.474 60.9773 178.754C61.5893 178.022 62.3693 177.656 63.3173 177.656C64.3253 177.656 65.0873 177.956 65.6033 178.556V177.89H67.3133V185ZM65.8013 181.436C65.8013 180.776 65.6153 180.236 65.2433 179.816C64.8713 179.384 64.3913 179.168 63.8033 179.168C63.2273 179.168 62.7533 179.378 62.3813 179.798C62.0213 180.206 61.8413 180.752 61.8413 181.436C61.8413 182.12 62.0273 182.672 62.3993 183.092C62.7713 183.512 63.2513 183.722 63.8393 183.722C64.4273 183.722 64.9013 183.518 65.2613 183.11C65.6213 182.702 65.8013 182.144 65.8013 181.436ZM70.6627 185H68.9167V172.706H70.6627V185ZM82.0453 179.366C81.6613 179.006 81.2593 178.826 80.8393 178.826C80.2033 178.826 79.8853 179.114 79.8853 179.69C79.8853 180.014 80.1733 180.278 80.7493 180.482C81.8053 180.866 82.4593 181.22 82.7113 181.544C82.9633 181.856 83.0893 182.246 83.0893 182.714C83.0893 183.482 82.8193 184.094 82.2793 184.55C81.7513 185.006 81.0973 185.234 80.3173 185.234C79.3093 185.234 78.4753 184.838 77.8153 184.046L78.5893 183.056C79.1893 183.656 79.7413 183.956 80.2453 183.956C80.9773 183.956 81.3433 183.602 81.3433 182.894C81.3433 182.534 81.1513 182.27 80.7673 182.102C80.3833 181.922 80.0893 181.79 79.8853 181.706C78.7813 181.226 78.2293 180.644 78.2293 179.96C78.2293 179.276 78.4333 178.724 78.8413 178.304C79.2613 177.872 79.8073 177.656 80.4793 177.656C81.4393 177.656 82.2013 177.902 82.7653 178.394L82.0453 179.366ZM86.3308 185H84.5848V179.456H83.7388V178.034H84.5848V175.478H86.3308V178.034H87.7168V179.456H86.3308V185ZM89.8714 177.89V181.742C89.8714 183.122 90.3514 183.812 91.3114 183.812C92.2714 183.812 92.7514 183.122 92.7514 181.742V177.89H94.4974V182.066C94.4974 184.178 93.4354 185.234 91.3114 185.234C89.1874 185.234 88.1254 184.178 88.1254 182.066V177.89H89.8714ZM100.917 184.334C100.449 184.934 99.7114 185.234 98.7034 185.234C97.6954 185.234 96.8914 184.85 96.2914 184.082C95.7034 183.314 95.4094 182.414 95.4094 181.382C95.4094 180.35 95.7094 179.474 96.3094 178.754C96.9214 178.022 97.7014 177.656 98.6494 177.656C99.6574 177.656 100.401 177.95 100.881 178.538L100.917 172.706H102.663V185H100.917V184.334ZM101.115 181.436C101.115 180.812 100.923 180.278 100.539 179.834C100.155 179.39 99.6934 179.168 99.1534 179.168C98.6134 179.168 98.1454 179.39 97.7494 179.834C97.3654 180.266 97.1734 180.806 97.1734 181.454C97.1734 182.09 97.3594 182.63 97.7314 183.074C98.1154 183.506 98.5954 183.722 99.1714 183.722C99.7474 183.722 100.215 183.512 100.575 183.092C100.935 182.66 101.115 182.108 101.115 181.436ZM105.455 181.616C105.455 182.3 105.605 182.864 105.905 183.308C106.205 183.752 106.619 183.974 107.147 183.974C107.975 183.974 108.503 183.566 108.731 182.75L110.387 183.02C109.847 184.496 108.767 185.234 107.147 185.234C106.067 185.234 105.203 184.892 104.555 184.208C103.919 183.512 103.601 182.612 103.601 181.508C103.601 180.344 103.907 179.414 104.519 178.718C105.143 178.01 105.983 177.656 107.039 177.656C108.107 177.656 108.935 177.992 109.523 178.664C110.123 179.324 110.423 180.23 110.423 181.382V181.616H105.455ZM108.803 180.644C108.803 180.152 108.647 179.72 108.335 179.348C108.035 178.976 107.639 178.79 107.147 178.79C106.667 178.79 106.271 178.988 105.959 179.384C105.659 179.768 105.509 180.188 105.509 180.644H108.803ZM113.111 178.538C113.603 177.95 114.329 177.656 115.289 177.656C116.921 177.656 117.737 178.658 117.737 180.662V185H116.009V181.238C116.009 179.738 115.547 178.988 114.623 178.988C113.615 178.988 113.111 179.792 113.111 181.4V185H111.365V177.89H113.111V178.538ZM121.329 185H119.583V179.456H118.737V178.034H119.583V175.478H121.329V178.034H122.715V179.456H121.329V185ZM126.957 179.366C126.573 179.006 126.171 178.826 125.751 178.826C125.115 178.826 124.797 179.114 124.797 179.69C124.797 180.014 125.085 180.278 125.661 180.482C126.717 180.866 127.371 181.22 127.623 181.544C127.875 181.856 128.001 182.246 128.001 182.714C128.001 183.482 127.731 184.094 127.191 184.55C126.663 185.006 126.009 185.234 125.229 185.234C124.221 185.234 123.387 184.838 122.727 184.046L123.501 183.056C124.101 183.656 124.653 183.956 125.157 183.956C125.889 183.956 126.255 183.602 126.255 182.894C126.255 182.534 126.063 182.27 125.679 182.102C125.295 181.922 125.001 181.79 124.797 181.706C123.693 181.226 123.141 180.644 123.141 179.96C123.141 179.276 123.345 178.724 123.753 178.304C124.173 177.872 124.719 177.656 125.391 177.656C126.351 177.656 127.113 177.902 127.677 178.394L126.957 179.366ZM137.075 185H135.329V179.456H134.501V178.034H135.329V175.802C135.329 173.63 136.175 172.544 137.867 172.544C138.215 172.544 138.539 172.622 138.839 172.778V174.29C138.527 174.134 138.251 174.056 138.011 174.056C137.687 174.056 137.447 174.176 137.291 174.416C137.147 174.644 137.075 175.202 137.075 176.09V178.034H138.839V179.456H137.075V185ZM141.649 174.902C141.649 175.178 141.547 175.418 141.343 175.622C141.139 175.826 140.899 175.928 140.623 175.928C140.347 175.928 140.107 175.826 139.903 175.622C139.699 175.418 139.597 175.178 139.597 174.902C139.597 174.626 139.699 174.386 139.903 174.182C140.107 173.978 140.347 173.876 140.623 173.876C140.899 173.876 141.139 173.978 141.343 174.182C141.547 174.386 141.649 174.626 141.649 174.902ZM141.505 185H139.759V177.89H141.505V185ZM144.927 178.538C145.419 177.95 146.145 177.656 147.105 177.656C148.737 177.656 149.553 178.658 149.553 180.662V185H147.825V181.238C147.825 179.738 147.363 178.988 146.439 178.988C145.431 178.988 144.927 179.792 144.927 181.4V185H143.181V177.89H144.927V178.538ZM156.007 184.334C155.539 184.934 154.801 185.234 153.793 185.234C152.785 185.234 151.981 184.85 151.381 184.082C150.793 183.314 150.499 182.414 150.499 181.382C150.499 180.35 150.799 179.474 151.399 178.754C152.011 178.022 152.791 177.656 153.739 177.656C154.747 177.656 155.491 177.95 155.971 178.538L156.007 172.706H157.753V185H156.007V184.334ZM156.205 181.436C156.205 180.812 156.013 180.278 155.629 179.834C155.245 179.39 154.783 179.168 154.243 179.168C153.703 179.168 153.235 179.39 152.839 179.834C152.455 180.266 152.263 180.806 152.263 181.454C152.263 182.09 152.449 182.63 152.821 183.074C153.205 183.506 153.685 183.722 154.261 183.722C154.837 183.722 155.305 183.512 155.665 183.092C156.025 182.66 156.205 182.108 156.205 181.436ZM167.348 185H165.602V179.456H164.756V178.034H165.602V175.478H167.348V178.034H168.734V179.456H167.348V185ZM170.925 172.706V178.484C171.381 177.932 172.107 177.656 173.103 177.656C173.847 177.656 174.441 177.944 174.885 178.52C175.329 179.096 175.551 179.81 175.551 180.662V185H173.823V181.238C173.823 179.738 173.361 178.988 172.437 178.988C171.429 178.988 170.925 179.816 170.925 181.472V185H169.179V172.706H170.925ZM178.351 181.616C178.351 182.3 178.501 182.864 178.801 183.308C179.101 183.752 179.515 183.974 180.043 183.974C180.871 183.974 181.399 183.566 181.627 182.75L183.283 183.02C182.743 184.496 181.663 185.234 180.043 185.234C178.963 185.234 178.099 184.892 177.451 184.208C176.815 183.512 176.497 182.612 176.497 181.508C176.497 180.344 176.803 179.414 177.415 178.718C178.039 178.01 178.879 177.656 179.935 177.656C181.003 177.656 181.831 177.992 182.419 178.664C183.019 179.324 183.319 180.23 183.319 181.382V181.616H178.351ZM181.699 180.644C181.699 180.152 181.543 179.72 181.231 179.348C180.931 178.976 180.535 178.79 180.043 178.79C179.563 178.79 179.167 178.988 178.855 179.384C178.555 179.768 178.405 180.188 178.405 180.644H181.699ZM186.403 174.902C186.403 175.178 186.301 175.418 186.097 175.622C185.893 175.826 185.653 175.928 185.377 175.928C185.101 175.928 184.861 175.826 184.657 175.622C184.453 175.418 184.351 175.178 184.351 174.902C184.351 174.626 184.453 174.386 184.657 174.182C184.861 173.978 185.101 173.876 185.377 173.876C185.653 173.876 185.893 173.978 186.097 174.182C186.301 174.386 186.403 174.626 186.403 174.902ZM186.259 185H184.513V177.89H186.259V185ZM189.681 178.628C190.125 177.98 190.821 177.656 191.769 177.656C192.069 177.656 192.345 177.716 192.597 177.836L192.381 179.42C192.117 179.252 191.829 179.168 191.517 179.168C190.293 179.168 189.681 180.044 189.681 181.796V185H187.935V177.89H189.681V178.628ZM25.466 196.52C25.91 195.944 26.594 195.656 27.518 195.656C28.322 195.656 28.958 196.028 29.426 196.772C29.882 196.028 30.62 195.656 31.64 195.656C33.14 195.656 33.89 196.628 33.89 198.572V203H32.162V199.256C32.162 197.744 31.748 196.988 30.92 196.988C30.092 196.988 29.678 197.828 29.678 199.508V203H27.932V199.4C27.932 197.792 27.566 196.988 26.834 196.988C25.922 196.988 25.466 197.828 25.466 199.508V203H23.72V195.89H25.466V196.52ZM36.7067 199.616C36.7067 200.3 36.8567 200.864 37.1567 201.308C37.4567 201.752 37.8707 201.974 38.3987 201.974C39.2267 201.974 39.7547 201.566 39.9827 200.75L41.6387 201.02C41.0987 202.496 40.0187 203.234 38.3987 203.234C37.3187 203.234 36.4547 202.892 35.8067 202.208C35.1707 201.512 34.8527 200.612 34.8527 199.508C34.8527 198.344 35.1587 197.414 35.7707 196.718C36.3947 196.01 37.2347 195.656 38.2907 195.656C39.3587 195.656 40.1867 195.992 40.7747 196.664C41.3747 197.324 41.6747 198.23 41.6747 199.382V199.616H36.7067ZM40.0547 198.644C40.0547 198.152 39.8987 197.72 39.5867 197.348C39.2867 196.976 38.8907 196.79 38.3987 196.79C37.9187 196.79 37.5227 196.988 37.2107 197.384C36.9107 197.768 36.7607 198.188 36.7607 198.644H40.0547ZM44.3625 196.538C44.8545 195.95 45.5805 195.656 46.5405 195.656C48.1725 195.656 48.9885 196.658 48.9885 198.662V203H47.2605V199.238C47.2605 197.738 46.7985 196.988 45.8745 196.988C44.8665 196.988 44.3625 197.792 44.3625 199.4V203H42.6165V195.89H44.3625V196.538ZM52.5808 203H50.8348V197.456H49.9888V196.034H50.8348V193.478H52.5808V196.034H53.9668V197.456H52.5808V203ZM61.3954 199.436C61.3954 200.552 61.0534 201.464 60.3694 202.172C59.6854 202.88 58.7854 203.234 57.6694 203.234C56.5654 203.234 55.6654 202.88 54.9694 202.172C54.2734 201.464 53.9254 200.558 53.9254 199.454C53.9254 198.338 54.2674 197.426 54.9514 196.718C55.6354 196.01 56.5354 195.656 57.6514 195.656C58.7674 195.656 59.6674 196.01 60.3514 196.718C61.0474 197.414 61.3954 198.32 61.3954 199.436ZM55.6894 199.472C55.6894 200.132 55.8754 200.672 56.2474 201.092C56.6194 201.512 57.0994 201.722 57.6874 201.722C58.2754 201.722 58.7434 201.5 59.0914 201.056C59.4514 200.6 59.6314 200.066 59.6314 199.454C59.6314 198.83 59.4514 198.296 59.0914 197.852C58.7314 197.396 58.2574 197.168 57.6694 197.168C57.0934 197.168 56.6194 197.384 56.2474 197.816C55.8754 198.248 55.6894 198.8 55.6894 199.472ZM64.1027 196.628C64.5467 195.98 65.2427 195.656 66.1907 195.656C66.4907 195.656 66.7667 195.716 67.0187 195.836L66.8027 197.42C66.5387 197.252 66.2507 197.168 65.9387 197.168C64.7147 197.168 64.1027 198.044 64.1027 199.796V203H62.3567V195.89H64.1027V196.628ZM71.4633 197.366C71.0793 197.006 70.6773 196.826 70.2573 196.826C69.6213 196.826 69.3033 197.114 69.3033 197.69C69.3033 198.014 69.5913 198.278 70.1673 198.482C71.2233 198.866 71.8773 199.22 72.1293 199.544C72.3813 199.856 72.5073 200.246 72.5073 200.714C72.5073 201.482 72.2373 202.094 71.6973 202.55C71.1693 203.006 70.5153 203.234 69.7353 203.234C68.7273 203.234 67.8933 202.838 67.2333 202.046L68.0073 201.056C68.6073 201.656 69.1593 201.956 69.6633 201.956C70.3953 201.956 70.7613 201.602 70.7613 200.894C70.7613 200.534 70.5693 200.27 70.1853 200.102C69.8013 199.922 69.5073 199.79 69.3033 199.706C68.1993 199.226 67.6473 198.644 67.6473 197.96C67.6473 197.276 67.8513 196.724 68.2593 196.304C68.6793 195.872 69.2253 195.656 69.8973 195.656C70.8573 195.656 71.6193 195.902 72.1833 196.394L71.4633 197.366ZM76.2707 201.974C76.2707 202.334 76.1447 202.646 75.8927 202.91C75.6527 203.162 75.3527 203.288 74.9927 203.288C74.6327 203.288 74.3267 203.162 74.0747 202.91C73.8227 202.658 73.6967 202.358 73.6967 202.01C73.6967 201.65 73.8227 201.344 74.0747 201.092C74.3267 200.84 74.6267 200.714 74.9747 200.714C75.3347 200.714 75.6407 200.834 75.8927 201.074C76.1447 201.314 76.2707 201.614 76.2707 201.974Z" fill="white"/>
</svg>
