<svg width="134" height="16" viewBox="0 0 134 16" fill="none" xmlns="http://www.w3.org/2000/svg">
<rect width="134" height="16" fill="black"/>
<path d="M13.244 13H11.466L9.058 9.22L9.044 13H7.602L7.602 4.502H9.856C11.7507 4.502 12.698 5.356 12.698 7.064C12.698 7.708 12.53 8.24467 12.194 8.674C11.8673 9.10333 11.4193 9.35067 10.85 9.416L13.244 13ZM9.044 8.632H9.478C10.6633 8.632 11.256 8.12333 11.256 7.106C11.256 6.126 10.668 5.636 9.492 5.636H9.044V8.632ZM13.4851 8.772C13.4851 7.53067 13.8817 6.47133 14.6751 5.594C15.4777 4.71667 16.4857 4.278 17.6991 4.278C18.9124 4.278 19.9157 4.71667 20.7091 5.594C21.5024 6.47133 21.8991 7.526 21.8991 8.758C21.8991 9.99 21.5024 11.0447 20.7091 11.922C19.9251 12.79 18.9217 13.224 17.6991 13.224C16.4764 13.224 15.4684 12.79 14.6751 11.922C13.8817 11.054 13.4851 10.004 13.4851 8.772ZM14.9831 8.674C14.9831 9.50467 15.2444 10.2373 15.7671 10.872C16.2897 11.4973 16.9337 11.81 17.6991 11.81C18.5204 11.81 19.1784 11.5113 19.6731 10.914C20.1677 10.3073 20.4151 9.56067 20.4151 8.674C20.4151 7.834 20.1677 7.12933 19.6731 6.56C19.1784 5.98133 18.5157 5.692 17.6851 5.692C16.8637 5.692 16.2057 5.98133 15.7111 6.56C15.2257 7.13867 14.9831 7.84333 14.9831 8.674ZM24.1514 11.782H26.7134V13L22.7094 13V4.502H24.1514V11.782ZM28.6905 5.72V7.932L31.5465 7.932V9.15H28.6905V11.782H31.6445V13H27.2485V4.502H31.6445V5.72L28.6905 5.72ZM34.7746 12.202C34.7746 12.482 34.6766 12.7247 34.4806 12.93C34.2939 13.126 34.0606 13.224 33.7806 13.224C33.5006 13.224 33.2626 13.126 33.0666 12.93C32.8706 12.734 32.7726 12.5007 32.7726 12.23C32.7726 11.95 32.8706 11.712 33.0666 11.516C33.2626 11.32 33.4959 11.222 33.7666 11.222C34.0466 11.222 34.2846 11.3153 34.4806 11.502C34.6766 11.6887 34.7746 11.922 34.7746 12.202ZM34.7746 8.142C34.7746 8.422 34.6766 8.66467 34.4806 8.87C34.2939 9.066 34.0606 9.164 33.7806 9.164C33.5006 9.164 33.2626 9.066 33.0666 8.87C32.8706 8.674 32.7726 8.44067 32.7726 8.17C32.7726 7.89 32.8706 7.652 33.0666 7.456C33.2626 7.26 33.4959 7.162 33.7666 7.162C34.0466 7.162 34.2846 7.25533 34.4806 7.442C34.6766 7.62867 34.7746 7.862 34.7746 8.142ZM40.6459 4.502H42.0879V9.262C42.0879 11.0913 42.6619 12.006 43.8099 12.006C44.9579 12.006 45.5319 11.0913 45.5319 9.262V4.502H46.9599V9.584C46.9599 12.0107 45.9053 13.224 43.7959 13.224C41.6959 13.224 40.6459 12.0107 40.6459 9.584V4.502ZM49.6794 13H48.2374V4.502H49.6794V13ZM56.1069 3.872L51.9629 14.848L50.7449 14.4L54.8749 3.41L56.1069 3.872ZM57.0112 4.502H58.4532V9.262C58.4532 11.0913 59.0272 12.006 60.1752 12.006C61.3232 12.006 61.8972 11.0913 61.8972 9.262V4.502H63.3252V9.584C63.3252 12.0107 62.2705 13.224 60.1612 13.224C58.0612 13.224 57.0112 12.0107 57.0112 9.584V4.502ZM64.3367 4.502H66.0727L67.5427 7.33L68.8867 4.502H70.6227L68.2847 8.492L70.8887 13H69.1807L67.3607 9.752L65.6247 13H63.9167L66.6187 8.478L64.3367 4.502ZM76.1938 4.502H78.5738C79.7871 4.502 80.7718 4.90333 81.5278 5.706C82.2931 6.50867 82.6758 7.52133 82.6758 8.744C82.6758 9.96667 82.2885 10.984 81.5138 11.796C80.7485 12.5987 79.7638 13 78.5598 13H76.1938V4.502ZM77.6358 11.698H78.1258C80.1605 11.698 81.1778 10.718 81.1778 8.758C81.1778 6.78867 80.1605 5.804 78.1258 5.804H77.6358V11.698ZM84.9092 5.72V7.932H87.7652V9.15L84.9092 9.15V11.782L87.8632 11.782V13L83.4672 13V4.502H87.8632V5.72H84.9092ZM93.0793 6.224C92.7153 5.71067 92.2533 5.454 91.6933 5.454C91.3387 5.454 91.04 5.56133 90.7973 5.776C90.5547 5.99067 90.4333 6.28 90.4333 6.644C90.4333 6.99867 90.872 7.42333 91.7493 7.918C92.636 8.41267 93.084 8.66 93.0933 8.66C93.7187 9.12667 94.0313 9.67733 94.0313 10.312C94.0313 11.18 93.7793 11.8847 93.2753 12.426C92.7807 12.958 92.0993 13.224 91.2313 13.224C90.13 13.224 89.262 12.6733 88.6273 11.572L89.5373 10.676C89.6587 11.0027 89.8827 11.3013 90.2093 11.572C90.536 11.8427 90.872 11.978 91.2173 11.978C91.628 11.978 91.95 11.838 92.1833 11.558C92.426 11.278 92.5473 10.9373 92.5473 10.536C92.5473 10.2467 92.4587 9.99467 92.2813 9.78C92.104 9.556 91.502 9.22 90.4753 8.772C89.458 8.31467 88.9493 7.666 88.9493 6.826C88.9493 6.10733 89.1827 5.50533 89.6493 5.02C90.1253 4.52533 90.718 4.278 91.4273 4.278C92.4073 4.278 93.182 4.59533 93.7513 5.23L93.0793 6.224ZM96.4373 13H94.9953V4.502H96.4373V13ZM105.259 8.478V8.688C105.259 10.0413 104.913 11.138 104.223 11.978C103.532 12.8087 102.585 13.224 101.381 13.224C100.214 13.224 99.248 12.7947 98.4827 11.936C97.7173 11.0773 97.3347 10.0273 97.3347 8.786C97.3347 7.498 97.722 6.42467 98.4967 5.566C99.2807 4.70733 100.279 4.278 101.493 4.278C103.061 4.278 104.181 4.95467 104.853 6.308L103.565 6.994C103.135 6.014 102.431 5.524 101.451 5.524C100.695 5.524 100.069 5.85067 99.5747 6.504C99.08 7.148 98.8327 7.91333 98.8327 8.8C98.8327 9.68667 99.0753 10.438 99.5607 11.054C100.046 11.67 100.676 11.978 101.451 11.978C102.113 11.978 102.641 11.7447 103.033 11.278C103.425 10.8113 103.621 10.256 103.621 9.612H101.591V8.478H105.259ZM106.067 4.278H107.159L111.961 10.676L111.989 4.502H113.417V13.168H112.339L107.523 6.784L107.509 13H106.067V4.278ZM116.067 5.72V7.932H118.923V9.15H116.067V11.782L119.021 11.782V13L114.625 13V4.502L119.021 4.502V5.72H116.067ZM125.764 13H123.986L121.578 9.22L121.564 13H120.122V4.502H122.376C124.27 4.502 125.218 5.356 125.218 7.064C125.218 7.708 125.05 8.24467 124.714 8.674C124.387 9.10333 123.939 9.35067 123.37 9.416L125.764 13ZM121.564 8.632H121.998C123.183 8.632 123.776 8.12333 123.776 7.106C123.776 6.126 123.188 5.636 122.012 5.636H121.564V8.632Z" fill="white"/>
</svg>
