<svg width="267" height="16" viewBox="0 0 267 16" fill="none" xmlns="http://www.w3.org/2000/svg">
<rect width="267" height="16" fill="black"/>
<path d="M12.244 13H10.466L8.058 9.22L8.044 13H6.602L6.602 4.502H8.856C10.7507 4.502 11.698 5.356 11.698 7.064C11.698 7.708 11.53 8.24467 11.194 8.674C10.8673 9.10333 10.4193 9.35067 9.85 9.416L12.244 13ZM8.044 8.632H8.478C9.66333 8.632 10.256 8.12333 10.256 7.106C10.256 6.126 9.668 5.636 8.492 5.636H8.044V8.632ZM12.4851 8.772C12.4851 7.53067 12.8817 6.47133 13.6751 5.594C14.4777 4.71667 15.4857 4.278 16.6991 4.278C17.9124 4.278 18.9157 4.71667 19.7091 5.594C20.5024 6.47133 20.8991 7.526 20.8991 8.758C20.8991 9.99 20.5024 11.0447 19.7091 11.922C18.9251 12.79 17.9217 13.224 16.6991 13.224C15.4764 13.224 14.4684 12.79 13.6751 11.922C12.8817 11.054 12.4851 10.004 12.4851 8.772ZM13.9831 8.674C13.9831 9.50467 14.2444 10.2373 14.7671 10.872C15.2897 11.4973 15.9337 11.81 16.6991 11.81C17.5204 11.81 18.1784 11.5113 18.6731 10.914C19.1677 10.3073 19.4151 9.56067 19.4151 8.674C19.4151 7.834 19.1677 7.12933 18.6731 6.56C18.1784 5.98133 17.5157 5.692 16.6851 5.692C15.8637 5.692 15.2057 5.98133 14.7111 6.56C14.2257 7.13867 13.9831 7.84333 13.9831 8.674ZM23.1514 11.782H25.7134V13L21.7094 13V4.502H23.1514V11.782ZM27.6905 5.72V7.932L30.5465 7.932V9.15H27.6905V11.782H30.6445V13H26.2485V4.502H30.6445V5.72L27.6905 5.72ZM33.7746 12.202C33.7746 12.482 33.6766 12.7247 33.4806 12.93C33.2939 13.126 33.0606 13.224 32.7806 13.224C32.5006 13.224 32.2626 13.126 32.0666 12.93C31.8706 12.734 31.7726 12.5007 31.7726 12.23C31.7726 11.95 31.8706 11.712 32.0666 11.516C32.2626 11.32 32.4959 11.222 32.7666 11.222C33.0466 11.222 33.2846 11.3153 33.4806 11.502C33.6766 11.6887 33.7746 11.922 33.7746 12.202ZM33.7746 8.142C33.7746 8.422 33.6766 8.66467 33.4806 8.87C33.2939 9.066 33.0606 9.164 32.7806 9.164C32.5006 9.164 32.2626 9.066 32.0666 8.87C31.8706 8.674 31.7726 8.44067 31.7726 8.17C31.7726 7.89 31.8706 7.652 32.0666 7.456C32.2626 7.26 32.4959 7.162 32.7666 7.162C33.0466 7.162 33.2846 7.25533 33.4806 7.442C33.6766 7.62867 33.7746 7.862 33.7746 8.142ZM45.3299 13H43.5519L41.1439 9.22L41.1299 13H39.6879V4.502H41.9419C43.8366 4.502 44.7839 5.356 44.7839 7.064C44.7839 7.708 44.6159 8.24467 44.2799 8.674C43.9533 9.10333 43.5053 9.35067 42.9359 9.416L45.3299 13ZM41.1299 8.632H41.5639C42.7493 8.632 43.3419 8.12333 43.3419 7.106C43.3419 6.126 42.7539 5.636 41.5779 5.636H41.1299V8.632ZM47.419 5.72V7.932H50.275V9.15H47.419V11.782H50.373V13H45.977V4.502L50.373 4.502V5.72H47.419ZM55.5891 6.224C55.2251 5.71067 54.7631 5.454 54.2031 5.454C53.8484 5.454 53.5498 5.56133 53.3071 5.776C53.0644 5.99067 52.9431 6.28 52.9431 6.644C52.9431 6.99867 53.3818 7.42333 54.2591 7.918C55.1458 8.41267 55.5938 8.66 55.6031 8.66C56.2284 9.12667 56.5411 9.67733 56.5411 10.312C56.5411 11.18 56.2891 11.8847 55.7851 12.426C55.2904 12.958 54.6091 13.224 53.7411 13.224C52.6398 13.224 51.7718 12.6733 51.1371 11.572L52.0471 10.676C52.1684 11.0027 52.3924 11.3013 52.7191 11.572C53.0458 11.8427 53.3818 11.978 53.7271 11.978C54.1378 11.978 54.4598 11.838 54.6931 11.558C54.9358 11.278 55.0571 10.9373 55.0571 10.536C55.0571 10.2467 54.9684 9.99467 54.7911 9.78C54.6138 9.556 54.0118 9.22 52.9851 8.772C51.9678 8.31467 51.4591 7.666 51.4591 6.826C51.4591 6.10733 51.6924 5.50533 52.1591 5.02C52.6351 4.52533 53.2278 4.278 53.9371 4.278C54.9171 4.278 55.6918 4.59533 56.2611 5.23L55.5891 6.224ZM58.835 5.72V7.932H61.691V9.15H58.835V11.782H61.789V13H57.393V4.502L61.789 4.502V5.72H58.835ZM64.4711 11.096L63.7151 13H62.1891L65.4931 4.278H66.7811L70.0011 13H68.4611L67.7471 11.096H64.4711ZM66.0531 6.364L64.8211 9.962H67.3551L66.0531 6.364ZM76.16 13H74.382L71.974 9.22L71.96 13H70.518V4.502H72.772C74.6667 4.502 75.614 5.356 75.614 7.064C75.614 7.708 75.446 8.24467 75.11 8.674C74.7833 9.10333 74.3353 9.35067 73.766 9.416L76.16 13ZM71.96 8.632H72.394C73.5793 8.632 74.172 8.12333 74.172 7.106C74.172 6.126 73.584 5.636 72.408 5.636H71.96V8.632ZM82.4911 6.532C81.9964 5.93467 81.3757 5.636 80.6291 5.636C79.8544 5.636 79.2057 5.958 78.6831 6.602C78.1604 7.23667 77.8991 7.96467 77.8991 8.786C77.8991 9.57933 78.1557 10.2933 78.6691 10.928C79.1917 11.5533 79.8404 11.866 80.6151 11.866C81.3524 11.866 81.9777 11.5673 82.4911 10.97V12.72C81.8004 13.056 81.1611 13.224 80.5731 13.224C79.3971 13.224 78.4077 12.79 77.6051 11.922C76.8024 11.054 76.4011 10.018 76.4011 8.814C76.4011 7.56333 76.8024 6.49467 77.6051 5.608C78.4077 4.72133 79.4064 4.278 80.6011 4.278C81.2264 4.278 81.8564 4.44133 82.4911 4.768V6.532ZM88.5443 7.96V4.502H89.9723V13H88.5443V9.094L85.0303 9.094V13H83.5883V4.502H85.0303V7.96H88.5443ZM92.6319 5.72V7.932L95.4879 7.932V9.15H92.6319V11.782H95.5859V13H91.1899V4.502H95.5859V5.72L92.6319 5.72ZM102.328 13H100.55L98.142 9.22L98.128 13H96.686V4.502H98.94C100.835 4.502 101.782 5.356 101.782 7.064C101.782 7.708 101.614 8.24467 101.278 8.674C100.951 9.10333 100.503 9.35067 99.934 9.416L102.328 13ZM98.128 8.632H98.562C99.7473 8.632 100.34 8.12333 100.34 7.106C100.34 6.126 99.752 5.636 98.576 5.636H98.128V8.632ZM110.745 13H109.415V3.438H110.745V13ZM119.825 13H118.383V4.502H120.637C122.607 4.502 123.591 5.37933 123.591 7.134C123.591 8.926 122.686 9.822 120.875 9.822H119.825V13ZM119.825 8.674H120.539C121.594 8.674 122.121 8.16067 122.121 7.134C122.121 6.14467 121.58 5.65 120.497 5.65H119.825V8.674ZM129.973 13H128.195L125.787 9.22L125.773 13H124.331V4.502H126.585C128.479 4.502 129.427 5.356 129.427 7.064C129.427 7.708 129.259 8.24467 128.923 8.674C128.596 9.10333 128.148 9.35067 127.579 9.416L129.973 13ZM125.773 8.632H126.207C127.392 8.632 127.985 8.12333 127.985 7.106C127.985 6.126 127.397 5.636 126.221 5.636L125.773 5.636V8.632ZM130.214 8.772C130.214 7.53067 130.61 6.47133 131.404 5.594C132.206 4.71667 133.214 4.278 134.428 4.278C135.641 4.278 136.644 4.71667 137.438 5.594C138.231 6.47133 138.628 7.526 138.628 8.758C138.628 9.99 138.231 11.0447 137.438 11.922C136.654 12.79 135.65 13.224 134.428 13.224C133.205 13.224 132.197 12.79 131.404 11.922C130.61 11.054 130.214 10.004 130.214 8.772ZM131.712 8.674C131.712 9.50467 131.973 10.2373 132.496 10.872C133.018 11.4973 133.662 11.81 134.428 11.81C135.249 11.81 135.907 11.5113 136.402 10.914C136.896 10.3073 137.144 9.56067 137.144 8.674C137.144 7.834 136.896 7.12933 136.402 6.56C135.907 5.98133 135.244 5.692 134.414 5.692C133.592 5.692 132.934 5.98133 132.44 6.56C131.954 7.13867 131.712 7.84333 131.712 8.674ZM146.956 8.478V8.688C146.956 10.0413 146.611 11.138 145.92 11.978C145.229 12.8087 144.282 13.224 143.078 13.224C141.911 13.224 140.945 12.7947 140.18 11.936C139.415 11.0773 139.032 10.0273 139.032 8.786C139.032 7.498 139.419 6.42467 140.194 5.566C140.978 4.70733 141.977 4.278 143.19 4.278C144.758 4.278 145.878 4.95467 146.55 6.308L145.262 6.994C144.833 6.014 144.128 5.524 143.148 5.524C142.392 5.524 141.767 5.85067 141.272 6.504C140.777 7.148 140.53 7.91333 140.53 8.8C140.53 9.68667 140.773 10.438 141.258 11.054C141.743 11.67 142.373 11.978 143.148 11.978C143.811 11.978 144.338 11.7447 144.73 11.278C145.122 10.8113 145.318 10.256 145.318 9.612H143.288V8.478H146.956ZM153.406 13H151.628L149.22 9.22L149.206 13H147.764V4.502H150.018C151.913 4.502 152.86 5.356 152.86 7.064C152.86 7.708 152.692 8.24467 152.356 8.674C152.029 9.10333 151.581 9.35067 151.012 9.416L153.406 13ZM149.206 8.632H149.64C150.825 8.632 151.418 8.12333 151.418 7.106C151.418 6.126 150.83 5.636 149.654 5.636H149.206V8.632ZM155.635 11.096L154.879 13H153.353L156.657 4.278H157.945L161.165 13H159.625L158.911 11.096H155.635ZM157.217 6.364L155.985 9.962H158.519L157.217 6.364ZM168.094 7.274L165.966 13.112H165.616L163.614 7.246L162.648 13H161.206L162.634 4.278H163.698L165.91 10.116L168.024 4.278H169.102L170.376 13H168.934L168.094 7.274ZM177.514 7.274L175.386 13.112H175.036L173.034 7.246L172.068 13H170.626L172.054 4.278H173.118L175.33 10.116L177.444 4.278L178.522 4.278L179.796 13H178.354L177.514 7.274ZM181.964 5.72V7.932H184.82V9.15L181.964 9.15V11.782L184.918 11.782V13L180.522 13V4.502H184.918V5.72H181.964ZM191.66 13H189.882L187.474 9.22L187.46 13H186.018V4.502H188.272C190.167 4.502 191.114 5.356 191.114 7.064C191.114 7.708 190.946 8.24467 190.61 8.674C190.283 9.10333 189.835 9.35067 189.266 9.416L191.66 13ZM187.46 8.632H187.894C189.079 8.632 189.672 8.12333 189.672 7.106C189.672 6.126 189.084 5.636 187.908 5.636H187.46V8.632ZM200.077 13H198.747V3.438H200.077V13ZM207.715 4.502L210.095 4.502C211.309 4.502 212.293 4.90333 213.049 5.706C213.815 6.50867 214.197 7.52133 214.197 8.744C214.197 9.96667 213.81 10.984 213.035 11.796C212.27 12.5987 211.285 13 210.081 13H207.715V4.502ZM209.157 11.698H209.647C211.682 11.698 212.699 10.718 212.699 8.758C212.699 6.78867 211.682 5.804 209.647 5.804H209.157V11.698ZM216.431 5.72V7.932H219.287V9.15H216.431V11.782H219.385V13H214.989V4.502L219.385 4.502V5.72H216.431ZM224.601 6.224C224.237 5.71067 223.775 5.454 223.215 5.454C222.86 5.454 222.561 5.56133 222.319 5.776C222.076 5.99067 221.955 6.28 221.955 6.644C221.955 6.99867 222.393 7.42333 223.271 7.918C224.157 8.41267 224.605 8.66 224.615 8.66C225.24 9.12667 225.553 9.67733 225.553 10.312C225.553 11.18 225.301 11.8847 224.797 12.426C224.302 12.958 223.621 13.224 222.753 13.224C221.651 13.224 220.783 12.6733 220.149 11.572L221.059 10.676C221.18 11.0027 221.404 11.3013 221.731 11.572C222.057 11.8427 222.393 11.978 222.739 11.978C223.149 11.978 223.471 11.838 223.705 11.558C223.947 11.278 224.069 10.9373 224.069 10.536C224.069 10.2467 223.98 9.99467 223.803 9.78C223.625 9.556 223.023 9.22 221.997 8.772C220.979 8.31467 220.471 7.666 220.471 6.826C220.471 6.10733 220.704 5.50533 221.171 5.02C221.647 4.52533 222.239 4.278 222.949 4.278C223.929 4.278 224.703 4.59533 225.273 5.23L224.601 6.224ZM227.959 13H226.517V4.502H227.959V13ZM236.78 8.478V8.688C236.78 10.0413 236.435 11.138 235.744 11.978C235.053 12.8087 234.106 13.224 232.902 13.224C231.735 13.224 230.769 12.7947 230.004 11.936C229.239 11.0773 228.856 10.0273 228.856 8.786C228.856 7.498 229.243 6.42467 230.018 5.566C230.802 4.70733 231.801 4.278 233.014 4.278C234.582 4.278 235.702 4.95467 236.374 6.308L235.086 6.994C234.657 6.014 233.952 5.524 232.972 5.524C232.216 5.524 231.591 5.85067 231.096 6.504C230.601 7.148 230.354 7.91333 230.354 8.8C230.354 9.68667 230.597 10.438 231.082 11.054C231.567 11.67 232.197 11.978 232.972 11.978C233.635 11.978 234.162 11.7447 234.554 11.278C234.946 10.8113 235.142 10.256 235.142 9.612H233.112V8.478H236.78ZM237.588 4.278H238.68L243.482 10.676L243.51 4.502H244.938V13.168H243.86L239.044 6.784L239.03 13H237.588V4.278ZM247.589 5.72V7.932H250.445V9.15H247.589V11.782H250.543V13H246.147V4.502L250.543 4.502V5.72H247.589ZM257.285 13H255.507L253.099 9.22L253.085 13H251.643V4.502H253.897C255.792 4.502 256.739 5.356 256.739 7.064C256.739 7.708 256.571 8.24467 256.235 8.674C255.908 9.10333 255.46 9.35067 254.891 9.416L257.285 13ZM253.085 8.632H253.519C254.704 8.632 255.297 8.12333 255.297 7.106C255.297 6.126 254.709 5.636 253.533 5.636H253.085V8.632Z" fill="white"/>
</svg>
