<svg width="189" height="16" viewBox="0 0 189 16" fill="none" xmlns="http://www.w3.org/2000/svg">
<path d="M2.696 15H0.224V0.431999H2.696V15ZM4.93044 0.0479994H6.80244L15.0344 11.016L15.0824 0.431999H17.5304V15.288H15.6824L7.42644 4.344L7.40244 15H4.93044V0.0479994ZM24.0423 15H21.8103V2.52H18.5703V0.431999H27.2823V2.52H24.0423V15ZM30.7931 2.52V6.312H35.6891V8.4H30.7931V12.912H35.8571V15H28.3211V0.431999H35.8571V2.52H30.7931ZM47.4149 15H44.3669L40.2389 8.52L40.2149 15H37.7429V0.431999H41.6069C44.8549 0.431999 46.4789 1.896 46.4789 4.824C46.4789 5.928 46.1909 6.848 45.6149 7.584C45.0549 8.32 44.2869 8.744 43.3109 8.856L47.4149 15ZM40.2149 7.512H40.9589C42.9909 7.512 44.0069 6.64 44.0069 4.896C44.0069 3.216 42.9989 2.376 40.9829 2.376H40.2149V7.512ZM51.2362 11.736L49.9402 15H47.3242L52.9882 0.0479994H55.1962L60.7162 15H58.0762L56.8522 11.736H51.2362ZM53.9482 3.624L51.8362 9.792H56.1802L53.9482 3.624ZM71.3463 3.912C70.4983 2.888 69.4343 2.376 68.1543 2.376C66.8263 2.376 65.7143 2.928 64.8183 4.032C63.9223 5.12 63.4743 6.368 63.4743 7.776C63.4743 9.136 63.9143 10.36 64.7943 11.448C65.6903 12.52 66.8023 13.056 68.1303 13.056C69.3943 13.056 70.4663 12.544 71.3463 11.52V14.52C70.1623 15.096 69.0663 15.384 68.0583 15.384C66.0423 15.384 64.3463 14.64 62.9703 13.152C61.5943 11.664 60.9063 9.888 60.9063 7.824C60.9063 5.68 61.5943 3.848 62.9703 2.328C64.3463 0.808 66.0583 0.0479994 68.1063 0.0479994C69.1783 0.0479994 70.2583 0.328 71.3463 0.888V3.912ZM77.6673 15H75.4353V2.52H72.1953V0.431999H80.9073V2.52H77.6673V15ZM84.6101 15H82.1381V0.431999H84.6101V15ZM92.1005 11.328L95.7005 0.431999H98.4365L92.7725 15.384H91.1165L85.5485 0.431999H88.2125L92.1005 11.328ZM101.645 2.52V6.312H106.541V8.4H101.645V12.912H106.709V15H99.1726V0.431999H106.709V2.52H101.645ZM119.082 15H116.61V0.431999H120.474C123.85 0.431999 125.538 1.936 125.538 4.944C125.538 8.016 123.986 9.552 120.882 9.552H119.082V15ZM119.082 7.584H120.306C122.114 7.584 123.018 6.704 123.018 4.944C123.018 3.248 122.09 2.4 120.234 2.4H119.082V7.584ZM136.477 15H133.429L129.301 8.52L129.277 15H126.805V0.431999H130.669C133.917 0.431999 135.541 1.896 135.541 4.824C135.541 5.928 135.253 6.848 134.677 7.584C134.117 8.32 133.349 8.744 132.373 8.856L136.477 15ZM129.277 7.512H130.021C132.053 7.512 133.069 6.64 133.069 4.896C133.069 3.216 132.061 2.376 130.045 2.376H129.277V7.512ZM136.891 7.752C136.891 5.624 137.571 3.808 138.931 2.304C140.307 0.799999 142.035 0.0479994 144.115 0.0479994C146.195 0.0479994 147.915 0.799999 149.275 2.304C150.635 3.808 151.315 5.616 151.315 7.728C151.315 9.84 150.635 11.648 149.275 13.152C147.931 14.64 146.211 15.384 144.115 15.384C142.019 15.384 140.291 14.64 138.931 13.152C137.571 11.664 136.891 9.864 136.891 7.752ZM139.459 7.584C139.459 9.008 139.907 10.264 140.803 11.352C141.699 12.424 142.803 12.96 144.115 12.96C145.523 12.96 146.651 12.448 147.499 11.424C148.347 10.384 148.771 9.104 148.771 7.584C148.771 6.144 148.347 4.936 147.499 3.96C146.651 2.968 145.515 2.472 144.091 2.472C142.683 2.472 141.555 2.968 140.707 3.96C139.875 4.952 139.459 6.16 139.459 7.584ZM158.032 10.056C158.032 13.608 156.72 15.384 154.096 15.384C153.072 15.384 152.12 14.928 151.24 14.016L152.896 12.144C153.296 12.8 153.728 13.128 154.192 13.128C154.656 13.128 155 12.904 155.224 12.456C155.464 12.008 155.584 11.048 155.584 9.576V0.431999H158.032V10.056ZM162.699 2.52V6.312H167.595V8.4H162.699V12.912H167.763V15H160.227V0.431999H167.763V2.52H162.699ZM179.393 3.912C178.545 2.888 177.481 2.376 176.201 2.376C174.873 2.376 173.761 2.928 172.865 4.032C171.969 5.12 171.521 6.368 171.521 7.776C171.521 9.136 171.961 10.36 172.841 11.448C173.737 12.52 174.849 13.056 176.177 13.056C177.441 13.056 178.513 12.544 179.393 11.52V14.52C178.209 15.096 177.113 15.384 176.105 15.384C174.089 15.384 172.393 14.64 171.017 13.152C169.641 11.664 168.953 9.888 168.953 7.824C168.953 5.68 169.641 3.848 171.017 2.328C172.393 0.808 174.105 0.0479994 176.153 0.0479994C177.225 0.0479994 178.305 0.328 179.393 0.888V3.912ZM185.714 15H183.482V2.52H180.242V0.431999H188.954V2.52H185.714V15Z" fill="black"/>
</svg>
