<svg width="155" height="35" viewBox="0 0 155 35" fill="none" xmlns="http://www.w3.org/2000/svg">
<path d="M15.616 4.864H21.856L10.768 18.304L22.48 34H15.904L5.392 19.552L5.344 34H0.4V4.864H5.344V18.496L15.616 4.864ZM27.4731 24.976C27.4731 26.8 27.8731 28.304 28.6731 29.488C29.4731 30.672 30.5771 31.264 31.9851 31.264C34.1931 31.264 35.6011 30.176 36.2091 28L40.6251 28.72C39.1851 32.656 36.3051 34.624 31.9851 34.624C29.1051 34.624 26.8011 33.712 25.0731 31.888C23.3771 30.032 22.5291 27.632 22.5291 24.688C22.5291 21.584 23.3451 19.104 24.9771 17.248C26.6411 15.36 28.8811 14.416 31.6971 14.416C34.5451 14.416 36.7531 15.312 38.3211 17.104C39.9211 18.864 40.7211 21.28 40.7211 24.352V24.976H27.4731ZM36.4011 22.384C36.4011 21.072 35.9851 19.92 35.1531 18.928C34.3531 17.936 33.2971 17.44 31.9851 17.44C30.7051 17.44 29.6491 17.968 28.8171 19.024C28.0171 20.048 27.6171 21.168 27.6171 22.384H36.4011ZM48.4645 34H43.8085V19.216H41.6005V15.424H43.8085V9.472C43.8085 3.68 46.0645 0.783998 50.5765 0.783998C51.5045 0.783998 52.3685 0.991999 53.1685 1.408V5.44C52.3365 5.024 51.6005 4.816 50.9605 4.816C50.0965 4.816 49.4565 5.136 49.0405 5.776C48.6565 6.384 48.4645 7.872 48.4645 10.24V15.424H53.1685V19.216H48.4645V34ZM72.9033 34H68.3433V32.272C66.9993 33.84 64.9993 34.624 62.3433 34.624C59.6873 34.624 57.5593 33.6 55.9593 31.552C54.3913 29.504 53.6073 27.104 53.6073 24.352C53.6073 21.6 54.4073 19.264 56.0073 17.344C57.6393 15.392 59.7193 14.416 62.2473 14.416C64.9353 14.416 66.9673 15.216 68.3433 16.816V15.04H72.9033V34ZM68.8713 24.496C68.8713 22.736 68.3753 21.296 67.3833 20.176C66.3913 19.024 65.1113 18.448 63.5433 18.448C62.0073 18.448 60.7433 19.008 59.7513 20.128C58.7913 21.216 58.3113 22.672 58.3113 24.496C58.3113 26.32 58.8073 27.792 59.7993 28.912C60.7913 30.032 62.0713 30.592 63.6393 30.592C65.2073 30.592 66.4713 30.048 67.4313 28.96C68.3913 27.872 68.8713 26.384 68.8713 24.496ZM81.451 16.768C82.763 15.2 84.699 14.416 87.259 14.416C91.611 14.416 93.787 17.088 93.787 22.432V34H89.179V23.968C89.179 19.968 87.947 17.968 85.483 17.968C82.795 17.968 81.451 20.112 81.451 24.4V34H76.795V15.04H81.451V16.768ZM113.302 4.864H119.254L124.294 14.56L128.902 4.864H134.854L126.838 18.544L135.766 34H129.91L123.67 22.864L117.718 34H111.862L121.126 18.496L113.302 4.864ZM142.339 15.04V25.312C142.339 28.992 143.619 30.832 146.179 30.832C148.739 30.832 150.019 28.992 150.019 25.312V15.04H154.675V26.176C154.675 31.808 151.843 34.624 146.179 34.624C140.515 34.624 137.683 31.808 137.683 26.176V15.04H142.339Z" fill="black"/>
</svg>
