<svg width="83" height="8" viewBox="0 0 83 8" fill="none" xmlns="http://www.w3.org/2000/svg">
<path d="M5.511 2.501L3.839 7.088H3.564L1.991 2.479L1.232 7H0.099L1.221 0.147H2.057L3.795 4.734L5.456 0.147H6.303L7.304 7H6.171L5.511 2.501ZM9.11737 5.504L8.52337 7H7.32437L9.92037 0.147H10.9324L13.4624 7H12.2524L11.6914 5.504H9.11737ZM10.3604 1.786L9.39237 4.613H11.3834L10.3604 1.786ZM18.3345 1.918C17.9458 1.44867 17.4582 1.214 16.8715 1.214C16.2628 1.214 15.7532 1.467 15.3425 1.973C14.9318 2.47167 14.7265 3.04367 14.7265 3.689C14.7265 4.31233 14.9282 4.87333 15.3315 5.372C15.7422 5.86333 16.2518 6.109 16.8605 6.109C17.4398 6.109 17.9312 5.87433 18.3345 5.405V6.78C17.7918 7.044 17.2895 7.176 16.8275 7.176C15.9035 7.176 15.1262 6.835 14.4955 6.153C13.8648 5.471 13.5495 4.657 13.5495 3.711C13.5495 2.72833 13.8648 1.88867 14.4955 1.192C15.1262 0.495333 15.9108 0.147 16.8495 0.147C17.3408 0.147 17.8358 0.275333 18.3345 0.532V1.918ZM23.0906 3.04V0.322999H24.2126V7H23.0906V3.931H20.3296V7H19.1966V0.322999H20.3296V3.04H23.0906ZM26.3903 7H25.2573V0.322999H26.3903V7ZM27.4144 0.147H28.2724L32.0454 5.174L32.0674 0.322999H33.1894V7.132H32.3424L28.5584 2.116L28.5474 7H27.4144V0.147ZM35.272 1.28V3.018H37.516V3.975H35.272V6.043H37.593V7H34.139V0.322999H37.593V1.28H35.272ZM43.2642 6.043H45.2772V7H42.1312V0.322999H43.2642V6.043ZM46.8306 1.28V3.018H49.0746V3.975H46.8306V6.043H49.1516V7H45.6976V0.322999H49.1516V1.28H46.8306ZM51.259 5.504L50.665 7H49.466L52.062 0.147H53.074L55.604 7H54.394L53.833 5.504H51.259ZM52.502 1.786L51.534 4.613H53.525L52.502 1.786ZM60.4431 7H59.0461L57.1541 4.03L57.1431 7H56.0101V0.322999H57.7811C59.2698 0.322999 60.0141 0.994 60.0141 2.336C60.0141 2.842 59.8821 3.26367 59.6181 3.601C59.3614 3.93833 59.0094 4.13267 58.5621 4.184L60.4431 7ZM57.1431 3.568H57.4841C58.4154 3.568 58.8811 3.16833 58.8811 2.369C58.8811 1.599 58.4191 1.214 57.4951 1.214H57.1431V3.568ZM60.9515 0.147H61.8095L65.5825 5.174L65.6045 0.322999H66.7265V7.132H65.8795L62.0955 2.116L62.0845 7H60.9515V0.147ZM68.8971 7H67.7641V0.322999H68.8971V7ZM69.9212 0.147H70.7792L74.5522 5.174L74.5742 0.322999H75.6962V7.132H74.8492L71.0652 2.116L71.0542 7H69.9212V0.147ZM82.5529 3.447V3.612C82.5529 4.67533 82.2815 5.537 81.7389 6.197C81.1962 6.84967 80.4519 7.176 79.5059 7.176C78.5892 7.176 77.8302 6.83867 77.2289 6.164C76.6275 5.48933 76.3269 4.66433 76.3269 3.689C76.3269 2.677 76.6312 1.83367 77.2399 1.159C77.8559 0.484333 78.6405 0.147 79.5939 0.147C80.8259 0.147 81.7059 0.678666 82.2339 1.742L81.2219 2.281C80.8845 1.511 80.3309 1.126 79.5609 1.126C78.9669 1.126 78.4755 1.38267 78.0869 1.896C77.6982 2.402 77.5039 3.00333 77.5039 3.7C77.5039 4.39667 77.6945 4.987 78.0759 5.471C78.4572 5.955 78.9522 6.197 79.5609 6.197C80.0815 6.197 80.4959 6.01367 80.8039 5.647C81.1119 5.28033 81.2659 4.844 81.2659 4.338H79.6709V3.447H82.5529Z" fill="black"/>
</svg>
