<svg width="54" height="9" viewBox="0 0 54 9" fill="none" xmlns="http://www.w3.org/2000/svg">
<path d="M6.012 3.092L4.188 8.096H3.888L2.172 3.068L1.344 8H0.108L1.332 0.524H2.244L4.14 5.528L5.952 0.524H6.876L7.968 8H6.732L6.012 3.092ZM9.82622 1.76V3.656H12.2742V4.7H9.82622V6.956H12.3582V8H8.59022V0.715999H12.3582V1.76H9.82622ZM13.3012 0.524H14.2372L18.3532 6.008L18.3772 0.715999H19.6012V8.144H18.6772L14.5492 2.672L14.5372 8H13.3012V0.524ZM22.8571 8H21.7411V1.76H20.1211V0.715999H24.4771V1.76H22.8571V8ZM24.6485 4.376C24.6485 3.312 24.9885 2.404 25.6685 1.652C26.3565 0.9 27.2205 0.524 28.2605 0.524C29.3005 0.524 30.1605 0.9 30.8405 1.652C31.5205 2.404 31.8605 3.308 31.8605 4.364C31.8605 5.42 31.5205 6.324 30.8405 7.076C30.1685 7.82 29.3085 8.192 28.2605 8.192C27.2125 8.192 26.3485 7.82 25.6685 7.076C24.9885 6.332 24.6485 5.432 24.6485 4.376ZM25.9325 4.292C25.9325 5.004 26.1565 5.632 26.6045 6.176C27.0525 6.712 27.6045 6.98 28.2605 6.98C28.9645 6.98 29.5285 6.724 29.9525 6.212C30.3765 5.692 30.5885 5.052 30.5885 4.292C30.5885 3.572 30.3765 2.968 29.9525 2.48C29.5285 1.984 28.9605 1.736 28.2485 1.736C27.5445 1.736 26.9805 1.984 26.5565 2.48C26.1405 2.976 25.9325 3.58 25.9325 4.292ZM37.3911 8H35.8671L33.8031 4.76L33.7911 8H32.5551V0.715999H34.4871C36.1111 0.715999 36.9231 1.448 36.9231 2.912C36.9231 3.464 36.7791 3.924 36.4911 4.292C36.2111 4.66 35.8271 4.872 35.3391 4.928L37.3911 8ZM33.7911 4.256H34.1631C35.1791 4.256 35.6871 3.82 35.6871 2.948C35.6871 2.108 35.1831 1.688 34.1751 1.688H33.7911V4.256ZM37.9457 0.524H38.8817L42.9977 6.008L43.0217 0.715999H44.2457V8.144H43.3217L39.1937 2.672L39.1817 8H37.9457V0.524ZM46.5176 1.76V3.656H48.9656V4.7H46.5176V6.956H49.0496V8H45.2816V0.715999H49.0496V1.76H46.5176ZM52.2126 8H51.0966V1.76H49.4766V0.715999H53.8326V1.76H52.2126V8Z" fill="black"/>
</svg>
