<svg width="64" height="10" viewBox="0 0 64 10" fill="none" xmlns="http://www.w3.org/2000/svg">
<path d="M6.012 4.092L4.188 9.096H3.888L2.172 4.068L1.344 9H0.108L1.332 1.524H2.244L4.14 6.528L5.952 1.524H6.876L7.968 9H6.732L6.012 4.092ZM9.92222 9H8.68622V1.716H9.92222V9ZM14.9274 1.716H16.4874L13.7154 5.076L16.6434 9H14.9994L12.3714 5.388L12.3594 9H11.1234V1.716H12.3594V5.124L14.9274 1.716ZM18.3597 9H17.1237V1.716H18.3597V9ZM22.8969 1.116C22.8969 1.788 22.4969 2.4 21.6969 2.952L21.2769 2.448C21.3569 2.4 21.4209 2.364 21.4689 2.34C21.8049 2.148 22.0329 1.924 22.1529 1.668C22.1609 1.644 22.1729 1.616 22.1889 1.584H21.4929V0.107999H22.8969V1.116ZM35.0049 3.192C34.6929 2.752 34.2969 2.532 33.8169 2.532C33.5129 2.532 33.2569 2.624 33.0489 2.808C32.8409 2.992 32.7369 3.24 32.7369 3.552C32.7369 3.856 33.1129 4.22 33.8649 4.644C34.6249 5.068 35.0089 5.28 35.0169 5.28C35.5529 5.68 35.8209 6.152 35.8209 6.696C35.8209 7.44 35.6049 8.044 35.1729 8.508C34.7489 8.964 34.1649 9.192 33.4209 9.192C32.4769 9.192 31.7329 8.72 31.1889 7.776L31.9689 7.008C32.0729 7.288 32.2649 7.544 32.5449 7.776C32.8249 8.008 33.1129 8.124 33.4089 8.124C33.7609 8.124 34.0369 8.004 34.2369 7.764C34.4449 7.524 34.5489 7.232 34.5489 6.888C34.5489 6.64 34.4729 6.424 34.3209 6.24C34.1689 6.048 33.6529 5.76 32.7729 5.376C31.9009 4.984 31.4649 4.428 31.4649 3.708C31.4649 3.092 31.6649 2.576 32.0649 2.16C32.4729 1.736 32.9809 1.524 33.5889 1.524C34.4289 1.524 35.0929 1.796 35.5809 2.34L35.0049 3.192ZM40.559 1.716H42.335C43.791 1.716 44.519 2.376 44.519 3.696C44.519 4.344 44.307 4.816 43.883 5.112C44.267 5.176 44.567 5.38 44.783 5.724C45.007 6.068 45.119 6.472 45.119 6.936C45.119 7.616 44.903 8.132 44.471 8.484C44.047 8.828 43.487 9 42.791 9H40.559V1.716ZM41.795 8.016H42.479C43.423 8.016 43.895 7.616 43.895 6.816C43.895 6.096 43.399 5.736 42.407 5.736H41.795V8.016ZM41.795 4.848H42.347C43.035 4.848 43.379 4.496 43.379 3.792C43.379 3.04 43.039 2.664 42.359 2.664H41.795V4.848ZM47.1387 7.956H49.3347V9H45.9027V1.716H47.1387V7.956ZM49.4453 5.376C49.4453 4.312 49.7853 3.404 50.4653 2.652C51.1533 1.9 52.0173 1.524 53.0573 1.524C54.0973 1.524 54.9573 1.9 55.6373 2.652C56.3173 3.404 56.6573 4.308 56.6573 5.364C56.6573 6.42 56.3173 7.324 55.6373 8.076C54.9653 8.82 54.1053 9.192 53.0573 9.192C52.0093 9.192 51.1453 8.82 50.4653 8.076C49.7853 7.332 49.4453 6.432 49.4453 5.376ZM50.7293 5.292C50.7293 6.004 50.9533 6.632 51.4013 7.176C51.8493 7.712 52.4013 7.98 53.0573 7.98C53.7613 7.98 54.3253 7.724 54.7493 7.212C55.1733 6.692 55.3853 6.052 55.3853 5.292C55.3853 4.572 55.1733 3.968 54.7493 3.48C54.3253 2.984 53.7573 2.736 53.0453 2.736C52.3413 2.736 51.7773 2.984 51.3533 3.48C50.9373 3.976 50.7293 4.58 50.7293 5.292ZM63.7959 5.124V5.304C63.7959 6.464 63.4999 7.404 62.9079 8.124C62.3159 8.836 61.5039 9.192 60.4719 9.192C59.4719 9.192 58.6439 8.824 57.9879 8.088C57.3319 7.352 57.0039 6.452 57.0039 5.388C57.0039 4.284 57.3359 3.364 57.9999 2.628C58.6719 1.892 59.5279 1.524 60.5679 1.524C61.9119 1.524 62.8719 2.104 63.4479 3.264L62.3439 3.852C61.9759 3.012 61.3719 2.592 60.5319 2.592C59.8839 2.592 59.3479 2.872 58.9239 3.432C58.4999 3.984 58.2879 4.64 58.2879 5.4C58.2879 6.16 58.4959 6.804 58.9119 7.332C59.3279 7.86 59.8679 8.124 60.5319 8.124C61.0999 8.124 61.5519 7.924 61.8879 7.524C62.2239 7.124 62.3919 6.648 62.3919 6.096H60.6519V5.124H63.7959Z" fill="black"/>
</svg>
