<svg width="103" height="13" viewBox="0 0 103 13" fill="none" xmlns="http://www.w3.org/2000/svg">
<path d="M9.018 4.638L6.282 12.144H5.832L3.258 4.602L2.016 12H0.162L1.998 0.786H3.366L6.21 8.292L8.928 0.786H10.314L11.952 12H10.098L9.018 4.638ZM12.3633 6.564C12.3633 4.968 12.8733 3.606 13.8933 2.478C14.9253 1.35 16.2213 0.786 17.7813 0.786C19.3413 0.786 20.6313 1.35 21.6513 2.478C22.6713 3.606 23.1813 4.962 23.1813 6.546C23.1813 8.13 22.6713 9.486 21.6513 10.614C20.6433 11.73 19.3533 12.288 17.7813 12.288C16.2093 12.288 14.9133 11.73 13.8933 10.614C12.8733 9.498 12.3633 8.148 12.3633 6.564ZM14.2893 6.438C14.2893 7.506 14.6253 8.448 15.2973 9.264C15.9693 10.068 16.7973 10.47 17.7813 10.47C18.8373 10.47 19.6833 10.086 20.3193 9.318C20.9553 8.538 21.2733 7.578 21.2733 6.438C21.2733 5.358 20.9553 4.452 20.3193 3.72C19.6833 2.976 18.8313 2.604 17.7633 2.604C16.7073 2.604 15.8613 2.976 15.2253 3.72C14.6013 4.464 14.2893 5.37 14.2893 6.438ZM24.2232 1.074H26.8872C29.0712 1.074 30.1632 2.064 30.1632 4.044C30.1632 5.016 29.8452 5.724 29.2092 6.168C29.7852 6.264 30.2352 6.57 30.5592 7.086C30.8952 7.602 31.0632 8.208 31.0632 8.904C31.0632 9.924 30.7392 10.698 30.0912 11.226C29.4552 11.742 28.6152 12 27.5712 12H24.2232V1.074ZM26.0772 10.524H27.1032C28.5192 10.524 29.2272 9.924 29.2272 8.724C29.2272 7.644 28.4832 7.104 26.9952 7.104H26.0772V10.524ZM26.0772 5.772H26.9052C27.9372 5.772 28.4532 5.244 28.4532 4.188C28.4532 3.06 27.9432 2.496 26.9232 2.496H26.0772V5.772ZM34.2368 12H32.3828V1.074H34.2368V12ZM37.7667 10.434H41.0607V12H35.9127V1.074H37.7667V10.434ZM43.6026 2.64V5.484H47.2746V7.05H43.6026V10.434H47.4006V12H41.7486V1.074H47.4006V2.64H43.6026ZM56.8607 9.552L55.8887 12H53.9267L58.1747 0.786H59.8307L63.9707 12H61.9907L61.0727 9.552H56.8607ZM58.8947 3.468L57.3107 8.094H60.5687L58.8947 3.468ZM71.8893 12H69.6033L66.5073 7.14L66.4893 12H64.6353V1.074H67.5333C69.9693 1.074 71.1873 2.172 71.1873 4.368C71.1873 5.196 70.9713 5.886 70.5393 6.438C70.1193 6.99 69.5433 7.308 68.8113 7.392L71.8893 12ZM66.4893 6.384H67.0473C68.5713 6.384 69.3333 5.73 69.3333 4.422C69.3333 3.162 68.5773 2.532 67.0653 2.532H66.4893V6.384ZM80.767 9.552L79.795 12H77.833L82.081 0.786H83.737L87.877 12H85.897L84.979 9.552H80.767ZM82.801 3.468L81.217 8.094H84.475L82.801 3.468ZM90.3956 12H88.5416V1.074H91.4396C93.9716 1.074 95.2376 2.202 95.2376 4.458C95.2376 6.762 94.0736 7.914 91.7456 7.914H90.3956V12ZM90.3956 6.438H91.3136C92.6696 6.438 93.3476 5.778 93.3476 4.458C93.3476 3.186 92.6516 2.55 91.2596 2.55H90.3956V6.438ZM98.0421 12H96.1881V1.074H99.0861C101.618 1.074 102.884 2.202 102.884 4.458C102.884 6.762 101.72 7.914 99.3921 7.914H98.0421V12ZM98.0421 6.438H98.9601C100.316 6.438 100.994 5.778 100.994 4.458C100.994 3.186 100.298 2.55 98.9061 2.55H98.0421V6.438Z" fill="black"/>
</svg>
