<svg width="111" height="13" viewBox="0 0 111 13" fill="none" xmlns="http://www.w3.org/2000/svg">
<path d="M9.018 4.638L6.282 12.144H5.832L3.258 4.602L2.016 12H0.162L1.998 0.786H3.366L6.21 8.292L8.928 0.786H10.314L11.952 12H10.098L9.018 4.638ZM12.3633 6.564C12.3633 4.968 12.8733 3.606 13.8933 2.478C14.9253 1.35 16.2213 0.786 17.7813 0.786C19.3413 0.786 20.6313 1.35 21.6513 2.478C22.6713 3.606 23.1813 4.962 23.1813 6.546C23.1813 8.13 22.6713 9.486 21.6513 10.614C20.6433 11.73 19.3533 12.288 17.7813 12.288C16.2093 12.288 14.9133 11.73 13.8933 10.614C12.8733 9.498 12.3633 8.148 12.3633 6.564ZM14.2893 6.438C14.2893 7.506 14.6253 8.448 15.2973 9.264C15.9693 10.068 16.7973 10.47 17.7813 10.47C18.8373 10.47 19.6833 10.086 20.3193 9.318C20.9553 8.538 21.2733 7.578 21.2733 6.438C21.2733 5.358 20.9553 4.452 20.3193 3.72C19.6833 2.976 18.8313 2.604 17.7633 2.604C16.7073 2.604 15.8613 2.976 15.2253 3.72C14.6013 4.464 14.2893 5.37 14.2893 6.438ZM27.5532 12H25.8792V2.64H23.4492V1.074H29.9832V2.64H27.5532V12ZM32.7603 12H30.9063V1.074H32.7603V12ZM33.9141 6.564C33.9141 4.968 34.4241 3.606 35.4441 2.478C36.4761 1.35 37.7721 0.786 39.3321 0.786C40.8921 0.786 42.1821 1.35 43.2021 2.478C44.2221 3.606 44.7321 4.962 44.7321 6.546C44.7321 8.13 44.2221 9.486 43.2021 10.614C42.1941 11.73 40.9041 12.288 39.3321 12.288C37.7601 12.288 36.4641 11.73 35.4441 10.614C34.4241 9.498 33.9141 8.148 33.9141 6.564ZM35.8401 6.438C35.8401 7.506 36.1761 8.448 36.8481 9.264C37.5201 10.068 38.3481 10.47 39.3321 10.47C40.3881 10.47 41.2341 10.086 41.8701 9.318C42.5061 8.538 42.8241 7.578 42.8241 6.438C42.8241 5.358 42.5061 4.452 41.8701 3.72C41.2341 2.976 40.3821 2.604 39.3141 2.604C38.2581 2.604 37.4121 2.976 36.7761 3.72C36.1521 4.464 35.8401 5.37 35.8401 6.438ZM45.774 0.786H47.178L53.352 9.012L53.388 1.074H55.224V12.216H53.838L47.646 4.008L47.628 12H45.774V0.786ZM62.7896 1.074H65.8496C67.4096 1.074 68.6756 1.59 69.6476 2.622C70.6316 3.654 71.1236 4.956 71.1236 6.528C71.1236 8.1 70.6256 9.408 69.6296 10.452C68.6456 11.484 67.3796 12 65.8316 12H62.7896V1.074ZM64.6436 10.326H65.2736C67.8896 10.326 69.1976 9.066 69.1976 6.546C69.1976 4.014 67.8896 2.748 65.2736 2.748H64.6436V10.326ZM73.9952 2.64V5.484H77.6672V7.05H73.9952V10.434H77.7932V12H72.1412V1.074H77.7932V2.64H73.9952ZM84.4996 3.288C84.0316 2.628 83.4376 2.298 82.7176 2.298C82.2616 2.298 81.8776 2.436 81.5656 2.712C81.2536 2.988 81.0976 3.36 81.0976 3.828C81.0976 4.284 81.6616 4.83 82.7896 5.466C83.9296 6.102 84.5056 6.42 84.5176 6.42C85.3216 7.02 85.7236 7.728 85.7236 8.544C85.7236 9.66 85.3996 10.566 84.7516 11.262C84.1156 11.946 83.2396 12.288 82.1236 12.288C80.7076 12.288 79.5916 11.58 78.7756 10.164L79.9456 9.012C80.1016 9.432 80.3896 9.816 80.8096 10.164C81.2296 10.512 81.6616 10.686 82.1056 10.686C82.6336 10.686 83.0476 10.506 83.3476 10.146C83.6596 9.786 83.8156 9.348 83.8156 8.832C83.8156 8.46 83.7016 8.136 83.4736 7.86C83.2456 7.572 82.4716 7.14 81.1516 6.564C79.8436 5.976 79.1896 5.142 79.1896 4.062C79.1896 3.138 79.4896 2.364 80.0896 1.74C80.7016 1.104 81.4636 0.786 82.3756 0.786C83.6356 0.786 84.6316 1.194 85.3636 2.01L84.4996 3.288ZM88.8169 12H86.9629V1.074H88.8169V12ZM100.159 6.186V6.456C100.159 8.196 99.7148 9.606 98.8268 10.686C97.9388 11.754 96.7208 12.288 95.1728 12.288C93.6728 12.288 92.4308 11.736 91.4468 10.632C90.4628 9.528 89.9708 8.178 89.9708 6.582C89.9708 4.926 90.4688 3.546 91.4648 2.442C92.4728 1.338 93.7568 0.786 95.3168 0.786C97.3328 0.786 98.7728 1.656 99.6367 3.396L97.9808 4.278C97.4288 3.018 96.5228 2.388 95.2628 2.388C94.2908 2.388 93.4868 2.808 92.8508 3.648C92.2148 4.476 91.8968 5.46 91.8968 6.6C91.8968 7.74 92.2088 8.706 92.8328 9.498C93.4568 10.29 94.2668 10.686 95.2628 10.686C96.1148 10.686 96.7928 10.386 97.2968 9.786C97.8008 9.186 98.0528 8.472 98.0528 7.644H95.4428V6.186H100.159ZM101.198 0.786H102.602L108.776 9.012L108.812 1.074H110.648V12.216H109.262L103.07 4.008L103.052 12H101.198V0.786Z" fill="black"/>
</svg>
