<svg width="35" height="9" viewBox="0 0 35 9" fill="none" xmlns="http://www.w3.org/2000/svg">
<path d="M0.516 0.524H1.452L5.568 6.008L5.592 0.715999H6.816V8.144H5.892L1.764 2.672L1.752 8H0.516V0.524ZM9.08794 1.76V3.656H11.5359V4.7H9.08794V6.956H11.6199V8H7.85194V0.715999H11.6199V1.76H9.08794ZM14.7829 8H13.6669V1.76H12.0469V0.715999H16.4029V1.76H14.7829V8ZM16.9223 0.715999H18.6983C20.1543 0.715999 20.8823 1.376 20.8823 2.696C20.8823 3.344 20.6703 3.816 20.2463 4.112C20.6303 4.176 20.9303 4.38 21.1463 4.724C21.3703 5.068 21.4823 5.472 21.4823 5.936C21.4823 6.616 21.2663 7.132 20.8343 7.484C20.4103 7.828 19.8503 8 19.1543 8H16.9223V0.715999ZM18.1583 7.016H18.8423C19.7863 7.016 20.2583 6.616 20.2583 5.816C20.2583 5.096 19.7623 4.736 18.7703 4.736H18.1583V7.016ZM18.1583 3.848H18.7103C19.3983 3.848 19.7423 3.496 19.7423 2.792C19.7423 2.04 19.4023 1.664 18.7223 1.664H18.1583V3.848ZM21.918 4.376C21.918 3.312 22.258 2.404 22.938 1.652C23.626 0.9 24.49 0.524 25.53 0.524C26.57 0.524 27.43 0.9 28.11 1.652C28.79 2.404 29.13 3.308 29.13 4.364C29.13 5.42 28.79 6.324 28.11 7.076C27.438 7.82 26.578 8.192 25.53 8.192C24.482 8.192 23.618 7.82 22.938 7.076C22.258 6.332 21.918 5.432 21.918 4.376ZM23.202 4.292C23.202 5.004 23.426 5.632 23.874 6.176C24.322 6.712 24.874 6.98 25.53 6.98C26.234 6.98 26.798 6.724 27.222 6.212C27.646 5.692 27.858 5.052 27.858 4.292C27.858 3.572 27.646 2.968 27.222 2.48C26.798 1.984 26.23 1.736 25.518 1.736C24.814 1.736 24.25 1.984 23.826 2.48C23.41 2.976 23.202 3.58 23.202 4.292ZM34.6606 8H33.1366L31.0726 4.76L31.0606 8H29.8246V0.715999H31.7566C33.3806 0.715999 34.1926 1.448 34.1926 2.912C34.1926 3.464 34.0486 3.924 33.7606 4.292C33.4806 4.66 33.0966 4.872 32.6086 4.928L34.6606 8ZM31.0606 4.256H31.4326C32.4486 4.256 32.9566 3.82 32.9566 2.948C32.9566 2.108 32.4526 1.688 31.4446 1.688H31.0606V4.256Z" fill="black"/>
</svg>
