<svg width="45" height="9" viewBox="0 0 45 9" fill="none" xmlns="http://www.w3.org/2000/svg">
<path d="M1.752 8H0.516V0.715999H2.448C4.136 0.715999 4.98 1.468 4.98 2.972C4.98 4.508 4.204 5.276 2.652 5.276H1.752V8ZM1.752 4.292H2.364C3.268 4.292 3.72 3.852 3.72 2.972C3.72 2.124 3.256 1.7 2.328 1.7H1.752V4.292ZM10.4497 8H8.92566L6.86166 4.76L6.84966 8H5.61366V0.715999H7.54566C9.16966 0.715999 9.98166 1.448 9.98166 2.912C9.98166 3.464 9.83766 3.924 9.54966 4.292C9.26966 4.66 8.88566 4.872 8.39766 4.928L10.4497 8ZM6.84966 4.256H7.22166C8.23766 4.256 8.74566 3.82 8.74566 2.948C8.74566 2.108 8.24166 1.688 7.23366 1.688H6.84966V4.256ZM12.3363 8H11.1003V0.715999H12.3363V8ZM13.4535 0.524H14.3895L18.5055 6.008L18.5295 0.715999H19.7535V8.144H18.8295L14.7015 2.672L14.6895 8H13.4535V0.524ZM25.6614 2.456C25.2374 1.944 24.7054 1.688 24.0654 1.688C23.4014 1.688 22.8454 1.964 22.3974 2.516C21.9494 3.06 21.7254 3.684 21.7254 4.388C21.7254 5.068 21.9454 5.68 22.3854 6.224C22.8334 6.76 23.3894 7.028 24.0534 7.028C24.6854 7.028 25.2214 6.772 25.6614 6.26V7.76C25.0694 8.048 24.5214 8.192 24.0174 8.192C23.0094 8.192 22.1614 7.82 21.4734 7.076C20.7854 6.332 20.4414 5.444 20.4414 4.412C20.4414 3.34 20.7854 2.424 21.4734 1.664C22.1614 0.904 23.0174 0.524 24.0414 0.524C24.5774 0.524 25.1174 0.664 25.6614 0.944V2.456ZM27.9339 8H26.6979V0.715999H27.9339V8ZM30.2872 8H29.0512V0.715999H30.9832C32.6712 0.715999 33.5152 1.468 33.5152 2.972C33.5152 4.508 32.7392 5.276 31.1872 5.276H30.2872V8ZM30.2872 4.292H30.8992C31.8032 4.292 32.2552 3.852 32.2552 2.972C32.2552 2.124 31.7912 1.7 30.8632 1.7H30.2872V4.292ZM35.5048 6.368L34.8568 8H33.5488L36.3808 0.524H37.4848L40.2448 8H38.9248L38.3128 6.368H35.5048ZM36.8608 2.312L35.8048 5.396H37.9768L36.8608 2.312ZM41.9239 6.956H44.1199V8H40.6879V0.715999H41.9239V6.956Z" fill="black"/>
</svg>
