<svg width="83" height="16" viewBox="0 0 83 16" fill="none" xmlns="http://www.w3.org/2000/svg">
<path d="M2.504 15H0.032V0.431999H3.896C7.272 0.431999 8.96 1.936 8.96 4.944C8.96 8.016 7.408 9.552 4.304 9.552H2.504V15ZM2.504 7.584H3.728C5.536 7.584 6.44 6.704 6.44 4.944C6.44 3.248 5.512 2.4 3.656 2.4H2.504V7.584ZM19.8993 15H16.8513L12.7233 8.52L12.6993 15H10.2273V0.431999H14.0913C17.3393 0.431999 18.9633 1.896 18.9633 4.824C18.9633 5.928 18.6753 6.848 18.0993 7.584C17.5393 8.32 16.7713 8.744 15.7953 8.856L19.8993 15ZM12.6993 7.512H13.4433C15.4753 7.512 16.4913 6.64 16.4913 4.896C16.4913 3.216 15.4833 2.376 13.4673 2.376H12.6993V7.512ZM20.3126 7.752C20.3126 5.624 20.9926 3.808 22.3526 2.304C23.7286 0.799999 25.4566 0.0479994 27.5366 0.0479994C29.6166 0.0479994 31.3366 0.799999 32.6966 2.304C34.0566 3.808 34.7366 5.616 34.7366 7.728C34.7366 9.84 34.0566 11.648 32.6966 13.152C31.3526 14.64 29.6326 15.384 27.5366 15.384C25.4406 15.384 23.7126 14.64 22.3526 13.152C20.9926 11.664 20.3126 9.864 20.3126 7.752ZM22.8806 7.584C22.8806 9.008 23.3286 10.264 24.2246 11.352C25.1206 12.424 26.2246 12.96 27.5366 12.96C28.9446 12.96 30.0726 12.448 30.9206 11.424C31.7686 10.384 32.1926 9.104 32.1926 7.584C32.1926 6.144 31.7686 4.936 30.9206 3.96C30.0726 2.968 28.9366 2.472 27.5126 2.472C26.1046 2.472 24.9766 2.968 24.1286 3.96C23.2966 4.952 22.8806 6.16 22.8806 7.584ZM41.4538 10.056C41.4538 13.608 40.1418 15.384 37.5178 15.384C36.4938 15.384 35.5417 14.928 34.6617 14.016L36.3178 12.144C36.7178 12.8 37.1498 13.128 37.6138 13.128C38.0778 13.128 38.4218 12.904 38.6458 12.456C38.8858 12.008 39.0058 11.048 39.0058 9.576V0.431999H41.4538V10.056ZM46.1212 2.52V6.312H51.0172V8.4H46.1212V12.912H51.1852V15H43.6492V0.431999H51.1852V2.52H46.1212ZM62.8151 3.912C61.9671 2.888 60.9031 2.376 59.6231 2.376C58.2951 2.376 57.1831 2.928 56.2871 4.032C55.3911 5.12 54.9431 6.368 54.9431 7.776C54.9431 9.136 55.3831 10.36 56.2631 11.448C57.1591 12.52 58.2711 13.056 59.5991 13.056C60.8631 13.056 61.9351 12.544 62.8151 11.52V14.52C61.6311 15.096 60.5351 15.384 59.5271 15.384C57.5111 15.384 55.8151 14.64 54.4391 13.152C53.0631 11.664 52.3751 9.888 52.3751 7.824C52.3751 5.68 53.0631 3.848 54.4391 2.328C55.8151 0.808 57.5271 0.0479994 59.5751 0.0479994C60.6471 0.0479994 61.7271 0.328 62.8151 0.888V3.912ZM69.1361 15H66.9041V2.52H63.6641V0.431999H72.3761V2.52H69.1361V15ZM80.4708 3.384C79.8468 2.504 79.0548 2.064 78.0948 2.064C77.4868 2.064 76.9748 2.248 76.5588 2.616C76.1428 2.984 75.9348 3.48 75.9348 4.104C75.9348 4.712 76.6868 5.44 78.1908 6.288C79.7108 7.136 80.4788 7.56 80.4948 7.56C81.5668 8.36 82.1028 9.304 82.1028 10.392C82.1028 11.88 81.6708 13.088 80.8068 14.016C79.9588 14.928 78.7908 15.384 77.3028 15.384C75.4148 15.384 73.9268 14.44 72.8388 12.552L74.3988 11.016C74.6068 11.576 74.9908 12.088 75.5508 12.552C76.1108 13.016 76.6868 13.248 77.2788 13.248C77.9828 13.248 78.5348 13.008 78.9348 12.528C79.3508 12.048 79.5588 11.464 79.5588 10.776C79.5588 10.28 79.4068 9.848 79.1028 9.48C78.7988 9.096 77.7668 8.52 76.0068 7.752C74.2628 6.968 73.3908 5.856 73.3908 4.416C73.3908 3.184 73.7908 2.152 74.5908 1.32C75.4068 0.471999 76.4228 0.0479994 77.6388 0.0479994C79.3188 0.0479994 80.6468 0.592 81.6228 1.68L80.4708 3.384Z" fill="black"/>
</svg>
