<svg width="48" height="16" viewBox="0 0 48 16" fill="none" xmlns="http://www.w3.org/2000/svg">
<path d="M2.628 12H0.774V1.074H3.672C6.204 1.074 7.47 2.202 7.47 4.458C7.47 6.762 6.306 7.914 3.978 7.914H2.628V12ZM2.628 6.438H3.546C4.902 6.438 5.58 5.778 5.58 4.458C5.58 3.186 4.884 2.55 3.492 2.55H2.628V6.438ZM10.1125 5.628C10.5565 4.98 11.2525 4.656 12.2005 4.656C12.5005 4.656 12.7765 4.716 13.0285 4.836L12.8125 6.42C12.5485 6.252 12.2605 6.168 11.9485 6.168C10.7245 6.168 10.1125 7.044 10.1125 8.796V12H8.36648V4.89H10.1125V5.628ZM20.6591 8.436C20.6591 9.552 20.3171 10.464 19.6331 11.172C18.9491 11.88 18.0491 12.234 16.9331 12.234C15.8291 12.234 14.9291 11.88 14.2331 11.172C13.5371 10.464 13.1891 9.558 13.1891 8.454C13.1891 7.338 13.5311 6.426 14.2151 5.718C14.8991 5.01 15.7991 4.656 16.9151 4.656C18.0311 4.656 18.9311 5.01 19.6151 5.718C20.3111 6.414 20.6591 7.32 20.6591 8.436ZM14.9531 8.472C14.9531 9.132 15.1391 9.672 15.5111 10.092C15.8831 10.512 16.3631 10.722 16.9511 10.722C17.5391 10.722 18.0071 10.5 18.3551 10.056C18.7151 9.6 18.8951 9.066 18.8951 8.454C18.8951 7.83 18.7151 7.296 18.3551 6.852C17.9951 6.396 17.5211 6.168 16.9331 6.168C16.3571 6.168 15.8831 6.384 15.5111 6.816C15.1391 7.248 14.9531 7.8 14.9531 8.472ZM23.6184 15.798H21.8724V4.89H23.6184V15.798ZM23.7624 1.902C23.7624 2.178 23.6604 2.418 23.4564 2.622C23.2524 2.826 23.0124 2.928 22.7364 2.928C22.4604 2.928 22.2204 2.826 22.0164 2.622C21.8124 2.418 21.7104 2.178 21.7104 1.902C21.7104 1.626 21.8124 1.386 22.0164 1.182C22.2204 0.978 22.4604 0.875999 22.7364 0.875999C23.0124 0.875999 23.2524 0.978 23.4564 1.182C23.6604 1.386 23.7624 1.626 23.7624 1.902ZM26.6442 8.616C26.6442 9.3 26.7942 9.864 27.0942 10.308C27.3942 10.752 27.8082 10.974 28.3362 10.974C29.1642 10.974 29.6922 10.566 29.9202 9.75L31.5762 10.02C31.0362 11.496 29.9562 12.234 28.3362 12.234C27.2562 12.234 26.3922 11.892 25.7442 11.208C25.1082 10.512 24.7902 9.612 24.7902 8.508C24.7902 7.344 25.0962 6.414 25.7082 5.718C26.3322 5.01 27.1722 4.656 28.2282 4.656C29.2962 4.656 30.1242 4.992 30.7122 5.664C31.3122 6.324 31.6122 7.23 31.6122 8.382V8.616H26.6442ZM29.9922 7.644C29.9922 7.152 29.8362 6.72 29.5242 6.348C29.2242 5.976 28.8282 5.79 28.3362 5.79C27.8562 5.79 27.4602 5.988 27.1482 6.384C26.8482 6.768 26.6982 7.188 26.6982 7.644H29.9922ZM37.396 6.744C36.952 6.3 36.454 6.078 35.902 6.078C35.254 6.078 34.744 6.312 34.372 6.78C34 7.248 33.814 7.824 33.814 8.508C33.814 9.18 34.024 9.732 34.444 10.164C34.864 10.596 35.374 10.812 35.974 10.812C36.49 10.812 36.964 10.584 37.396 10.128V11.802C36.892 12.09 36.31 12.234 35.65 12.234C34.618 12.234 33.76 11.868 33.076 11.136C32.392 10.404 32.05 9.51 32.05 8.454C32.05 7.398 32.398 6.504 33.094 5.772C33.802 5.028 34.684 4.656 35.74 4.656C36.364 4.656 36.916 4.806 37.396 5.106V6.744ZM40.7956 12H39.0496V6.456H38.2036V5.034H39.0496V2.478H40.7956V5.034H42.1816V6.456H40.7956V12ZM46.4243 6.366C46.0403 6.006 45.6383 5.826 45.2183 5.826C44.5823 5.826 44.2643 6.114 44.2643 6.69C44.2643 7.014 44.5523 7.278 45.1283 7.482C46.1843 7.866 46.8383 8.22 47.0903 8.544C47.3423 8.856 47.4683 9.246 47.4683 9.714C47.4683 10.482 47.1983 11.094 46.6582 11.55C46.1303 12.006 45.4763 12.234 44.6963 12.234C43.6883 12.234 42.8543 11.838 42.1943 11.046L42.9683 10.056C43.5683 10.656 44.1203 10.956 44.6243 10.956C45.3563 10.956 45.7223 10.602 45.7223 9.894C45.7223 9.534 45.5303 9.27 45.1463 9.102C44.7623 8.922 44.4683 8.79 44.2643 8.706C43.1603 8.226 42.6083 7.644 42.6083 6.96C42.6083 6.276 42.8123 5.724 43.2203 5.304C43.6403 4.872 44.1863 4.656 44.8583 4.656C45.8183 4.656 46.5803 4.902 47.1443 5.394L46.4243 6.366Z" fill="black"/>
</svg>
