<svg width="91" height="10" viewBox="0 0 91 10" fill="none" xmlns="http://www.w3.org/2000/svg">
<path d="M4.044 3.192C3.732 2.752 3.336 2.532 2.856 2.532C2.552 2.532 2.296 2.624 2.088 2.808C1.88 2.992 1.776 3.24 1.776 3.552C1.776 3.856 2.152 4.22 2.904 4.644C3.664 5.068 4.048 5.28 4.056 5.28C4.592 5.68 4.86 6.152 4.86 6.696C4.86 7.44 4.644 8.044 4.212 8.508C3.788 8.964 3.204 9.192 2.46 9.192C1.516 9.192 0.772 8.72 0.228 7.776L1.008 7.008C1.112 7.288 1.304 7.544 1.584 7.776C1.864 8.008 2.152 8.124 2.448 8.124C2.8 8.124 3.076 8.004 3.276 7.764C3.484 7.524 3.588 7.232 3.588 6.888C3.588 6.64 3.512 6.424 3.36 6.24C3.208 6.048 2.692 5.76 1.812 5.376C0.94 4.984 0.504 4.428 0.504 3.708C0.504 3.092 0.704 2.576 1.104 2.16C1.512 1.736 2.02 1.524 2.628 1.524C3.468 1.524 4.132 1.796 4.62 2.34L4.044 3.192ZM6.94622 7.368L6.29822 9H4.99022L7.82222 1.524H8.92622L11.6862 9H10.3662L9.75422 7.368H6.94622ZM8.30222 3.312L7.24622 6.396H9.41822L8.30222 3.312ZM17.6253 4.092L15.8013 9.096H15.5013L13.7853 4.068L12.9573 9H11.7213L12.9453 1.524H13.8573L15.7533 6.528L17.5653 1.524H18.4893L19.5813 9H18.3453L17.6253 4.092ZM21.5595 7.368L20.9115 9H19.6035L22.4355 1.524H23.5395L26.2995 9H24.9795L24.3675 7.368H21.5595ZM22.9155 3.312L21.8595 6.396H24.0315L22.9155 3.312ZM26.7426 1.524H27.6786L31.7946 7.008L31.8186 1.716H33.0426V9.144H32.1186L27.9906 3.672L27.9786 9H26.7426V1.524ZM36.2985 9H35.1825V2.76H33.5625V1.716H37.9185V2.76H36.2985V9ZM42.6859 4.68V1.716H43.9099V9H42.6859V5.652H39.6739V9H38.4379V1.716H39.6739V4.68H42.6859ZM46.3095 7.368L45.6615 9H44.3535L47.1855 1.524H48.2895L51.0495 9H49.7295L49.1175 7.368H46.3095ZM47.6655 3.312L46.6095 6.396H48.7815L47.6655 3.312ZM54.9126 1.116C54.9126 1.788 54.5126 2.4 53.7126 2.952L53.2926 2.448C53.3726 2.4 53.4366 2.364 53.4846 2.34C53.8206 2.148 54.0486 1.924 54.1686 1.668C54.1766 1.644 54.1886 1.616 54.2046 1.584H53.5086V0.107999H54.9126V1.116ZM67.0206 3.192C66.7086 2.752 66.3126 2.532 65.8326 2.532C65.5286 2.532 65.2726 2.624 65.0646 2.808C64.8566 2.992 64.7526 3.24 64.7526 3.552C64.7526 3.856 65.1286 4.22 65.8806 4.644C66.6406 5.068 67.0246 5.28 67.0326 5.28C67.5686 5.68 67.8366 6.152 67.8366 6.696C67.8366 7.44 67.6206 8.044 67.1886 8.508C66.7646 8.964 66.1806 9.192 65.4366 9.192C64.4926 9.192 63.7486 8.72 63.2046 7.776L63.9846 7.008C64.0886 7.288 64.2806 7.544 64.5606 7.776C64.8406 8.008 65.1286 8.124 65.4246 8.124C65.7766 8.124 66.0526 8.004 66.2526 7.764C66.4606 7.524 66.5646 7.232 66.5646 6.888C66.5646 6.64 66.4886 6.424 66.3366 6.24C66.1846 6.048 65.6686 5.76 64.7886 5.376C63.9166 4.984 63.4806 4.428 63.4806 3.708C63.4806 3.092 63.6806 2.576 64.0806 2.16C64.4886 1.736 64.9966 1.524 65.6046 1.524C66.4446 1.524 67.1086 1.796 67.5966 2.34L67.0206 3.192ZM72.5746 1.716H74.6146C75.6546 1.716 76.4986 2.06 77.1466 2.748C77.8026 3.436 78.1306 4.304 78.1306 5.352C78.1306 6.4 77.7986 7.272 77.1346 7.968C76.4786 8.656 75.6346 9 74.6026 9H72.5746V1.716ZM73.8106 7.884H74.2306C75.9746 7.884 76.8466 7.044 76.8466 5.364C76.8466 3.676 75.9746 2.832 74.2306 2.832H73.8106V7.884ZM80.165 7.368L79.517 9H78.209L81.041 1.524H82.145L84.905 9H83.585L82.973 7.368H80.165ZM81.521 3.312L80.465 6.396H82.637L81.521 3.312ZM84.736 1.716H86.2L87.604 4.44L89.128 1.716H90.592L88.264 5.688V9H87.028V5.688L84.736 1.716Z" fill="black"/>
</svg>
