<svg width="69" height="9" viewBox="0 0 69 9" fill="none" xmlns="http://www.w3.org/2000/svg">
<path d="M4.044 2.192C3.732 1.752 3.336 1.532 2.856 1.532C2.552 1.532 2.296 1.624 2.088 1.808C1.88 1.992 1.776 2.24 1.776 2.552C1.776 2.856 2.152 3.22 2.904 3.644C3.664 4.068 4.048 4.28 4.056 4.28C4.592 4.68 4.86 5.152 4.86 5.696C4.86 6.44 4.644 7.044 4.212 7.508C3.788 7.964 3.204 8.192 2.46 8.192C1.516 8.192 0.772 7.72 0.228 6.776L1.008 6.008C1.112 6.288 1.304 6.544 1.584 6.776C1.864 7.008 2.152 7.124 2.448 7.124C2.8 7.124 3.076 7.004 3.276 6.764C3.484 6.524 3.588 6.232 3.588 5.888C3.588 5.64 3.512 5.424 3.36 5.24C3.208 5.048 2.692 4.76 1.812 4.376C0.94 3.984 0.504 3.428 0.504 2.708C0.504 2.092 0.704 1.576 1.104 1.16C1.512 0.736 2.02 0.524 2.628 0.524C3.468 0.524 4.132 0.796 4.62 1.34L4.044 2.192ZM9.83822 3.68V0.715999H11.0622V8H9.83822V4.652H6.82622V8H5.59022V0.715999H6.82622V3.68H9.83822ZM13.3418 1.76V3.656H15.7898V4.7H13.3418V6.956H15.8738V8H12.1058V0.715999H15.8738V1.76H13.3418ZM18.0528 6.956H20.2488V8H16.8168V0.715999H18.0528V6.956ZM21.9434 6.956H24.1394V8H20.7074V0.715999H21.9434V6.956ZM31.2698 5.528C31.2698 7.304 30.6138 8.192 29.3018 8.192C28.7898 8.192 28.3138 7.964 27.8738 7.508L28.7018 6.572C28.9018 6.9 29.1178 7.064 29.3498 7.064C29.5818 7.064 29.7538 6.952 29.8658 6.728C29.9858 6.504 30.0458 6.024 30.0458 5.288V0.715999H31.2698V5.528ZM32.0196 4.376C32.0196 3.312 32.3596 2.404 33.0396 1.652C33.7276 0.9 34.5916 0.524 35.6316 0.524C36.6716 0.524 37.5316 0.9 38.2116 1.652C38.8916 2.404 39.2316 3.308 39.2316 4.364C39.2316 5.42 38.8916 6.324 38.2116 7.076C37.5396 7.82 36.6796 8.192 35.6316 8.192C34.5836 8.192 33.7196 7.82 33.0396 7.076C32.3596 6.332 32.0196 5.432 32.0196 4.376ZM33.3036 4.292C33.3036 5.004 33.5276 5.632 33.9756 6.176C34.4236 6.712 34.9756 6.98 35.6316 6.98C36.3356 6.98 36.8996 6.724 37.3236 6.212C37.7476 5.692 37.9596 5.052 37.9596 4.292C37.9596 3.572 37.7476 2.968 37.3236 2.48C36.8996 1.984 36.3316 1.736 35.6196 1.736C34.9156 1.736 34.3516 1.984 33.9276 2.48C33.5116 2.976 33.3036 3.58 33.3036 4.292ZM39.8902 0.715999H41.1262V4.796C41.1262 6.364 41.6182 7.148 42.6022 7.148C43.5862 7.148 44.0782 6.364 44.0782 4.796V0.715999H45.3022V5.072C45.3022 7.152 44.3982 8.192 42.5902 8.192C40.7902 8.192 39.8902 7.152 39.8902 5.072V0.715999ZM51.1372 8H49.6132L47.5492 4.76L47.5372 8H46.3012V0.715999H48.2332C49.8572 0.715999 50.6692 1.448 50.6692 2.912C50.6692 3.464 50.5252 3.924 50.2372 4.292C49.9572 4.66 49.5732 4.872 49.0852 4.928L51.1372 8ZM47.5372 4.256H47.9092C48.9252 4.256 49.4332 3.82 49.4332 2.948C49.4332 2.108 48.9292 1.688 47.9212 1.688H47.5372V4.256ZM51.6918 0.524H52.6278L56.7438 6.008L56.7678 0.715999H57.9918V8.144H57.0678L52.9398 2.672L52.9278 8H51.6918V0.524ZM60.2637 1.76V3.656H62.7117V4.7H60.2637V6.956H62.7957V8H59.0277V0.715999H62.7957V1.76H60.2637ZM63.1267 0.715999H64.5907L65.9947 3.44L67.5187 0.715999H68.9827L66.6547 4.688V8H65.4187V4.688L63.1267 0.715999Z" fill="black"/>
</svg>
