<svg width="42" height="16" viewBox="0 0 42 16" fill="none" xmlns="http://www.w3.org/2000/svg">
<path d="M5.472 15H3.24V2.52H0V0.431999H8.712V2.52H5.472V15ZM12.2228 2.52V6.312H17.1188V8.4H12.2228V12.912H17.2868V15H9.75075V0.431999H17.2868V2.52H12.2228ZM28.9166 3.912C28.0686 2.888 27.0046 2.376 25.7246 2.376C24.3966 2.376 23.2846 2.928 22.3886 4.032C21.4926 5.12 21.0446 6.368 21.0446 7.776C21.0446 9.136 21.4846 10.36 22.3646 11.448C23.2606 12.52 24.3726 13.056 25.7006 13.056C26.9646 13.056 28.0366 12.544 28.9166 11.52V14.52C27.7326 15.096 26.6366 15.384 25.6286 15.384C23.6126 15.384 21.9166 14.64 20.5406 13.152C19.1646 11.664 18.4766 9.888 18.4766 7.824C18.4766 5.68 19.1646 3.848 20.5406 2.328C21.9166 0.808 23.6286 0.0479994 25.6766 0.0479994C26.7486 0.0479994 27.8286 0.328 28.9166 0.888V3.912ZM39.2936 6.36V0.431999H41.7416V15H39.2936V8.304H33.2696V15H30.7976V0.431999H33.2696V6.36H39.2936Z" fill="black"/>
</svg>
