<svg width="20" height="8" viewBox="0 0 20 8" fill="none" xmlns="http://www.w3.org/2000/svg">
<path d="M2.508 7H1.485V1.28H0V0.322999H3.993V1.28H2.508V7ZM5.60209 1.28V3.018H7.84609V3.975H5.60209V6.043H7.92309V7H4.46909V0.322999H7.92309V1.28H5.60209ZM13.2535 1.918C12.8648 1.44867 12.3771 1.214 11.7905 1.214C11.1818 1.214 10.6721 1.467 10.2615 1.973C9.85079 2.47167 9.64545 3.04367 9.64545 3.689C9.64545 4.31233 9.84712 4.87333 10.2505 5.372C10.6611 5.86333 11.1708 6.109 11.7795 6.109C12.3588 6.109 12.8501 5.87433 13.2535 5.405V6.78C12.7108 7.044 12.2085 7.176 11.7465 7.176C10.8225 7.176 10.0451 6.835 9.41445 6.153C8.78379 5.471 8.46845 4.657 8.46845 3.711C8.46845 2.72833 8.78379 1.88867 9.41445 1.192C10.0451 0.495333 10.8298 0.147 11.7685 0.147C12.2598 0.147 12.7548 0.275333 13.2535 0.532V1.918ZM18.0096 3.04V0.322999H19.1316V7H18.0096V3.931H15.2486V7H14.1156V0.322999H15.2486V3.04H18.0096Z" fill="black"/>
</svg>
