<svg width="24" height="10" viewBox="0 0 24 10" fill="none" xmlns="http://www.w3.org/2000/svg">
<path d="M0.44 1.323H1.573V5.063C1.573 6.50033 2.024 7.219 2.926 7.219C3.828 7.219 4.279 6.50033 4.279 5.063V1.323H5.401V5.316C5.401 7.22267 4.57233 8.176 2.915 8.176C1.265 8.176 0.44 7.22267 0.44 5.316V1.323ZM6.19575 1.323H7.55975L8.71475 3.545L9.77075 1.323H11.1348L9.29775 4.458L11.3438 8H10.0018L8.57175 5.448L7.20775 8H5.86575L7.98875 4.447L6.19575 1.323ZM15.8642 0.828L12.6082 9.452L11.6512 9.1L14.8962 0.464999L15.8642 0.828ZM16.5748 1.323H17.7078V5.063C17.7078 6.50033 18.1588 7.219 19.0608 7.219C19.9628 7.219 20.4138 6.50033 20.4138 5.063V1.323H21.5358V5.316C21.5358 7.22267 20.7071 8.176 19.0498 8.176C17.3998 8.176 16.5748 7.22267 16.5748 5.316V1.323ZM23.6725 8H22.5395V1.323H23.6725V8Z" fill="black"/>
</svg>
