<svg width="74" height="13" viewBox="0 0 74 13" fill="none" xmlns="http://www.w3.org/2000/svg">
<path d="M0.72 1.074H2.574V7.194C2.574 9.546 3.312 10.722 4.788 10.722C6.264 10.722 7.002 9.546 7.002 7.194V1.074H8.838V7.608C8.838 10.728 7.482 12.288 4.77 12.288C2.07 12.288 0.72 10.728 0.72 7.608V1.074ZM10.1385 1.074H12.3705L14.2605 4.71L15.9885 1.074H18.2205L15.2145 6.204L18.5625 12H16.3665L14.0265 7.824L11.7945 12H9.5985L13.0725 6.186L10.1385 1.074ZM25.3834 1.074H28.4434C30.0034 1.074 31.2694 1.59 32.2414 2.622C33.2254 3.654 33.7174 4.956 33.7174 6.528C33.7174 8.1 33.2194 9.408 32.2234 10.452C31.2394 11.484 29.9734 12 28.4254 12H25.3834V1.074ZM27.2374 10.326H27.8674C30.4834 10.326 31.7914 9.066 31.7914 6.546C31.7914 4.014 30.4834 2.748 27.8674 2.748H27.2374V10.326ZM36.5889 2.64V5.484H40.2609V7.05H36.5889V10.434H40.3869V12H34.7349V1.074H40.3869V2.64H36.5889ZM47.0933 3.288C46.6253 2.628 46.0313 2.298 45.3113 2.298C44.8553 2.298 44.4713 2.436 44.1593 2.712C43.8473 2.988 43.6913 3.36 43.6913 3.828C43.6913 4.284 44.2553 4.83 45.3833 5.466C46.5233 6.102 47.0993 6.42 47.1113 6.42C47.9153 7.02 48.3173 7.728 48.3173 8.544C48.3173 9.66 47.9933 10.566 47.3453 11.262C46.7093 11.946 45.8333 12.288 44.7173 12.288C43.3013 12.288 42.1853 11.58 41.3693 10.164L42.5393 9.012C42.6953 9.432 42.9833 9.816 43.4033 10.164C43.8233 10.512 44.2553 10.686 44.6993 10.686C45.2273 10.686 45.6413 10.506 45.9413 10.146C46.2533 9.786 46.4093 9.348 46.4093 8.832C46.4093 8.46 46.2953 8.136 46.0673 7.86C45.8393 7.572 45.0653 7.14 43.7453 6.564C42.4373 5.976 41.7833 5.142 41.7833 4.062C41.7833 3.138 42.0833 2.364 42.6833 1.74C43.2953 1.104 44.0573 0.786 44.9693 0.786C46.2293 0.786 47.2253 1.194 47.9573 2.01L47.0933 3.288ZM51.4107 12H49.5567V1.074H51.4107V12ZM62.7525 6.186V6.456C62.7525 8.196 62.3085 9.606 61.4205 10.686C60.5325 11.754 59.3145 12.288 57.7665 12.288C56.2665 12.288 55.0245 11.736 54.0405 10.632C53.0565 9.528 52.5645 8.178 52.5645 6.582C52.5645 4.926 53.0625 3.546 54.0585 2.442C55.0665 1.338 56.3505 0.786 57.9105 0.786C59.9265 0.786 61.3665 1.656 62.2305 3.396L60.5745 4.278C60.0225 3.018 59.1165 2.388 57.8565 2.388C56.8845 2.388 56.0805 2.808 55.4445 3.648C54.8085 4.476 54.4905 5.46 54.4905 6.6C54.4905 7.74 54.8025 8.706 55.4265 9.498C56.0505 10.29 56.8605 10.686 57.8565 10.686C58.7085 10.686 59.3865 10.386 59.8905 9.786C60.3945 9.186 60.6465 8.472 60.6465 7.644H58.0365V6.186H62.7525ZM63.7916 0.786H65.1956L71.3696 9.012L71.4056 1.074H73.2416V12.216H71.8556L65.6636 4.008L65.6456 12H63.7916V0.786Z" fill="black"/>
</svg>
