<svg width="53" height="21" viewBox="0 0 53 21" fill="none" xmlns="http://www.w3.org/2000/svg">
<path d="M0.96 2.432H3.432V10.592C3.432 13.728 4.416 15.296 6.384 15.296C8.352 15.296 9.336 13.728 9.336 10.592V2.432H11.784V11.144C11.784 15.304 9.976 17.384 6.36 17.384C2.76 17.384 0.96 15.304 0.96 11.144V2.432ZM16.446 17H13.974V2.432H16.446V17ZM27.4644 1.352L20.3604 20.168L18.2724 19.4L25.3524 0.559999L27.4644 1.352ZM29.0147 2.432H31.4867V10.592C31.4867 13.728 32.4707 15.296 34.4387 15.296C36.4067 15.296 37.3907 13.728 37.3907 10.592V2.432H39.8387V11.144C39.8387 15.304 38.0307 17.384 34.4147 17.384C30.8147 17.384 29.0147 15.304 29.0147 11.144V2.432ZM41.5727 2.432H44.5487L47.0687 7.28L49.3727 2.432H52.3487L48.3407 9.272L52.8047 17H49.8767L46.7567 11.432L43.7807 17H40.8527L45.4847 9.248L41.5727 2.432Z" fill="black"/>
</svg>
