<svg width="108" height="10" viewBox="0 0 108 10" fill="none" xmlns="http://www.w3.org/2000/svg">
<path d="M4.276 6.788L6.11 0.39H6.866L8.784 6.788L10.66 0.501999H12.172L9.288 9.168H8.196L6.39 3.33L4.654 9.168H3.548L0.846 0.501999H2.358L4.276 6.788ZM12.2019 4.772C12.2019 3.53067 12.5985 2.47133 13.3919 1.594C14.1945 0.716666 15.2025 0.278 16.4159 0.278C17.6292 0.278 18.6325 0.716666 19.4259 1.594C20.2192 2.47133 20.6159 3.526 20.6159 4.758C20.6159 5.99 20.2192 7.04467 19.4259 7.922C18.6419 8.79 17.6385 9.224 16.4159 9.224C15.1932 9.224 14.1852 8.79 13.3919 7.922C12.5985 7.054 12.2019 6.004 12.2019 4.772ZM13.6999 4.674C13.6999 5.50467 13.9612 6.23733 14.4839 6.872C15.0065 7.49733 15.6505 7.81 16.4159 7.81C17.2372 7.81 17.8952 7.51133 18.3899 6.914C18.8845 6.30733 19.1319 5.56067 19.1319 4.674C19.1319 3.834 18.8845 3.12933 18.3899 2.56C17.8952 1.98133 17.2325 1.692 16.4019 1.692C15.5805 1.692 14.9225 1.98133 14.4279 2.56C13.9425 3.13867 13.6999 3.84333 13.6999 4.674ZM27.0682 9H25.2902L22.8822 5.22L22.8682 9H21.4262V0.501999H23.6802C25.5749 0.501999 26.5222 1.356 26.5222 3.064C26.5222 3.708 26.3542 4.24467 26.0182 4.674C25.6916 5.10333 25.2436 5.35067 24.6742 5.416L27.0682 9ZM22.8682 4.632H23.3022C24.4876 4.632 25.0802 4.12333 25.0802 3.106C25.0802 2.126 24.4922 1.636 23.3162 1.636H22.8682V4.632ZM32.2513 0.501999H34.0713L30.8373 4.422L34.2533 9H32.3353L29.2693 4.786L29.2553 9H27.8133V0.501999H29.2553V4.478L32.2513 0.501999ZM40.9314 9H39.4894V0.501999H40.9314V9ZM42.2348 0.278H43.3268L48.1288 6.676L48.1568 0.501999H49.5848V9.168H48.5068L43.6908 2.784L43.6768 9H42.2348V0.278ZM56.9112 9H55.4692V0.501999H57.7232C59.6925 0.501999 60.6772 1.37933 60.6772 3.134C60.6772 4.926 59.7719 5.822 57.9612 5.822H56.9112V9ZM56.9112 4.674H57.6252C58.6799 4.674 59.2072 4.16067 59.2072 3.134C59.2072 2.14467 58.6659 1.65 57.5832 1.65H56.9112V4.674ZM67.0585 9H65.2805L62.8725 5.22L62.8585 9H61.4165V0.501999H63.6705C65.5651 0.501999 66.5125 1.356 66.5125 3.064C66.5125 3.708 66.3445 4.24467 66.0085 4.674C65.6818 5.10333 65.2338 5.35067 64.6645 5.416L67.0585 9ZM62.8585 4.632H63.2925C64.4778 4.632 65.0705 4.12333 65.0705 3.106C65.0705 2.126 64.4825 1.636 63.3065 1.636H62.8585V4.632ZM67.2995 4.772C67.2995 3.53067 67.6962 2.47133 68.4895 1.594C69.2922 0.716666 70.3002 0.278 71.5135 0.278C72.7268 0.278 73.7302 0.716666 74.5235 1.594C75.3168 2.47133 75.7135 3.526 75.7135 4.758C75.7135 5.99 75.3168 7.04467 74.5235 7.922C73.7395 8.79 72.7362 9.224 71.5135 9.224C70.2908 9.224 69.2828 8.79 68.4895 7.922C67.6962 7.054 67.2995 6.004 67.2995 4.772ZM68.7975 4.674C68.7975 5.50467 69.0588 6.23733 69.5815 6.872C70.1042 7.49733 70.7482 7.81 71.5135 7.81C72.3348 7.81 72.9928 7.51133 73.4875 6.914C73.9822 6.30733 74.2295 5.56067 74.2295 4.674C74.2295 3.834 73.9822 3.12933 73.4875 2.56C72.9928 1.98133 72.3302 1.692 71.4995 1.692C70.6782 1.692 70.0202 1.98133 69.5255 2.56C69.0402 3.13867 68.7975 3.84333 68.7975 4.674ZM84.0419 4.478V4.688C84.0419 6.04133 83.6965 7.138 83.0059 7.978C82.3152 8.80867 81.3679 9.224 80.1639 9.224C78.9972 9.224 78.0312 8.79467 77.2659 7.936C76.5005 7.07733 76.1179 6.02733 76.1179 4.786C76.1179 3.498 76.5052 2.42467 77.2799 1.566C78.0639 0.707333 79.0625 0.278 80.2759 0.278C81.8439 0.278 82.9639 0.954666 83.6359 2.308L82.3479 2.994C81.9185 2.014 81.2139 1.524 80.2339 1.524C79.4779 1.524 78.8525 1.85067 78.3579 2.504C77.8632 3.148 77.6159 3.91333 77.6159 4.8C77.6159 5.68667 77.8585 6.438 78.3439 7.054C78.8292 7.67 79.4592 7.978 80.2339 7.978C80.8965 7.978 81.4239 7.74467 81.8159 7.278C82.2079 6.81133 82.4039 6.256 82.4039 5.612H80.3739V4.478H84.0419ZM90.492 9H88.714L86.306 5.22L86.292 9H84.85V0.501999H87.104C88.9987 0.501999 89.946 1.356 89.946 3.064C89.946 3.708 89.778 4.24467 89.442 4.674C89.1154 5.10333 88.6674 5.35067 88.098 5.416L90.492 9ZM86.292 4.632H86.726C87.9114 4.632 88.504 4.12333 88.504 3.106C88.504 2.126 87.916 1.636 86.74 1.636H86.292V4.632ZM92.5811 1.72V3.932H95.4371V5.15H92.5811V7.782H95.5351V9H91.1391V0.501999H95.5351V1.72H92.5811ZM100.751 2.224C100.387 1.71067 99.9252 1.454 99.3652 1.454C99.0105 1.454 98.7119 1.56133 98.4692 1.776C98.2265 1.99067 98.1052 2.28 98.1052 2.644C98.1052 2.99867 98.5439 3.42333 99.4212 3.918C100.308 4.41267 100.756 4.66 100.765 4.66C101.391 5.12667 101.703 5.67733 101.703 6.312C101.703 7.18 101.451 7.88467 100.947 8.426C100.453 8.958 99.7712 9.224 98.9032 9.224C97.8019 9.224 96.9339 8.67333 96.2992 7.572L97.2092 6.676C97.3305 7.00267 97.5545 7.30133 97.8812 7.572C98.2079 7.84267 98.5439 7.978 98.8892 7.978C99.2999 7.978 99.6219 7.838 99.8552 7.558C100.098 7.278 100.219 6.93733 100.219 6.536C100.219 6.24667 100.131 5.99467 99.9532 5.78C99.7759 5.556 99.1739 5.22 98.1472 4.772C97.1299 4.31467 96.6212 3.666 96.6212 2.826C96.6212 2.10733 96.8545 1.50533 97.3212 1.02C97.7972 0.525333 98.3899 0.278 99.0992 0.278C100.079 0.278 100.854 0.595333 101.423 1.23L100.751 2.224ZM106.671 2.224C106.307 1.71067 105.845 1.454 105.285 1.454C104.93 1.454 104.632 1.56133 104.389 1.776C104.146 1.99067 104.025 2.28 104.025 2.644C104.025 2.99867 104.464 3.42333 105.341 3.918C106.228 4.41267 106.676 4.66 106.685 4.66C107.31 5.12667 107.623 5.67733 107.623 6.312C107.623 7.18 107.371 7.88467 106.867 8.426C106.372 8.958 105.691 9.224 104.823 9.224C103.722 9.224 102.854 8.67333 102.219 7.572L103.129 6.676C103.25 7.00267 103.474 7.30133 103.801 7.572C104.128 7.84267 104.464 7.978 104.809 7.978C105.22 7.978 105.542 7.838 105.775 7.558C106.018 7.278 106.139 6.93733 106.139 6.536C106.139 6.24667 106.05 5.99467 105.873 5.78C105.696 5.556 105.094 5.22 104.067 4.772C103.05 4.31467 102.541 3.666 102.541 2.826C102.541 2.10733 102.774 1.50533 103.241 1.02C103.717 0.525333 104.31 0.278 105.019 0.278C105.999 0.278 106.774 0.595333 107.343 1.23L106.671 2.224Z" fill="black"/>
</svg>
