<svg width="32" height="9" viewBox="0 0 32 9" fill="none" xmlns="http://www.w3.org/2000/svg">
<path d="M5.328 6.956V8H0.144L3.456 1.76H0.54V0.715999H5.412L2.088 6.956H5.328ZM7.40269 8H6.16669V0.715999H7.40269V8ZM16.7757 3.68V0.715999H17.9997V8H16.7757V4.652H13.7637V8H12.5277V0.715999H13.7637V3.68H16.7757ZM19.0073 0.715999H20.2433V4.796C20.2433 6.364 20.7353 7.148 21.7193 7.148C22.7033 7.148 23.1953 6.364 23.1953 4.796V0.715999H24.4193V5.072C24.4193 7.152 23.5153 8.192 21.7073 8.192C19.9073 8.192 19.0073 7.152 19.0073 5.072V0.715999ZM26.7743 6.368L26.1263 8H24.8183L27.6503 0.524H28.7543L31.5143 8H30.1943L29.5823 6.368H26.7743ZM28.1303 2.312L27.0743 5.396H29.2463L28.1303 2.312Z" fill="black"/>
</svg>
