<svg width="23" height="9" viewBox="0 0 23 9" fill="none" xmlns="http://www.w3.org/2000/svg">
<path d="M5.172 6.956V8H0.276L2.124 5.66C3.004 4.572 3.52 3.892 3.672 3.62C3.832 3.34 3.912 3.112 3.912 2.936C3.92 2.888 3.924 2.84 3.924 2.792C3.924 2.472 3.816 2.188 3.6 1.94C3.392 1.692 3.116 1.568 2.772 1.568C2.428 1.568 2.156 1.708 1.956 1.988C1.764 2.268 1.668 2.608 1.668 3.008H0.372C0.372 2.288 0.584 1.696 1.008 1.232C1.44 0.76 2.024 0.524 2.76 0.524C3.424 0.524 3.984 0.748 4.44 1.196C4.896 1.644 5.124 2.204 5.124 2.876C5.124 3.508 4.64 4.388 3.672 5.516L2.436 6.956H5.172ZM10.9781 4.364C10.9781 5.42 10.7461 6.324 10.2821 7.076C9.81813 7.82 9.17813 8.192 8.36213 8.192C7.55413 8.192 6.91813 7.816 6.45413 7.064C5.99013 6.312 5.75813 5.412 5.75813 4.364C5.75813 3.276 5.99013 2.364 6.45413 1.628C6.92613 0.892 7.56613 0.524 8.37413 0.524C9.18213 0.524 9.81813 0.9 10.2821 1.652C10.7461 2.396 10.9781 3.3 10.9781 4.364ZM6.95813 4.352C6.95813 5.088 7.08613 5.74 7.34212 6.308C7.59813 6.868 7.94613 7.148 8.38613 7.148C8.82613 7.148 9.16613 6.884 9.40613 6.356C9.65413 5.828 9.77813 5.16 9.77813 4.352C9.77813 3.608 9.65013 2.96 9.39413 2.408C9.13813 1.848 8.79413 1.568 8.36213 1.568C7.93813 1.568 7.59813 1.86 7.34212 2.444C7.08613 3.02 6.95813 3.656 6.95813 4.352ZM12.5603 1.76V0.715999H14.8403V8H13.6043V1.76H12.5603ZM20.6344 1.052L19.0504 3.344L19.0744 3.368C19.2984 3.264 19.5704 3.212 19.8904 3.212C20.5224 3.212 21.0424 3.452 21.4504 3.932C21.8584 4.412 22.0624 4.976 22.0624 5.624C22.0624 6.376 21.8224 6.992 21.3424 7.472C20.8624 7.952 20.2424 8.192 19.4824 8.192C18.7544 8.192 18.1464 7.964 17.6584 7.508C17.1784 7.044 16.9384 6.444 16.9384 5.708C16.9384 4.972 17.2344 4.164 17.8264 3.284L19.7584 0.416L20.6344 1.052ZM20.8144 5.684C20.8144 5.236 20.6944 4.864 20.4544 4.568C20.2144 4.272 19.8904 4.124 19.4824 4.124C19.0824 4.124 18.7544 4.276 18.4984 4.58C18.2504 4.876 18.1264 5.248 18.1264 5.696C18.1264 6.136 18.2504 6.504 18.4984 6.8C18.7544 7.088 19.0824 7.232 19.4824 7.232C19.8824 7.232 20.2024 7.088 20.4424 6.8C20.6904 6.504 20.8144 6.132 20.8144 5.684Z" fill="black"/>
</svg>
