<svg width="10" height="26" viewBox="0 0 10 26" fill="none" xmlns="http://www.w3.org/2000/svg">
<path d="M7.782 19.966H9V25.678L6.27 23.522C5.00067 22.4953 4.20733 21.8933 3.89 21.716C3.56333 21.5293 3.29733 21.436 3.092 21.436C3.036 21.4267 2.98 21.422 2.924 21.422C2.55067 21.422 2.21933 21.548 1.93 21.8C1.64067 22.0427 1.496 22.3647 1.496 22.766C1.496 23.1673 1.65933 23.4847 1.986 23.718C2.31267 23.942 2.70933 24.054 3.176 24.054V25.566C2.336 25.566 1.64533 25.3187 1.104 24.824C0.553333 24.32 0.278 23.6387 0.278 22.78C0.278 22.0053 0.539333 21.352 1.062 20.82C1.58467 20.288 2.238 20.022 3.022 20.022C3.75933 20.022 4.786 20.5867 6.102 21.716L7.782 23.158V19.966ZM4.758 13.1922C5.99 13.1922 7.04467 13.4629 7.922 14.0042C8.79 14.5455 9.224 15.2922 9.224 16.2442C9.224 17.1869 8.78533 17.9289 7.908 18.4702C7.03067 19.0115 5.98067 19.2822 4.758 19.2822C3.48867 19.2822 2.42467 19.0115 1.566 18.4702C0.707333 17.9195 0.278 17.1729 0.278 16.2302C0.278 15.2875 0.716666 14.5455 1.594 14.0042C2.462 13.4629 3.51667 13.1922 4.758 13.1922ZM4.744 17.8822C5.60267 17.8822 6.36333 17.7329 7.026 17.4342C7.67933 17.1355 8.006 16.7295 8.006 16.2162C8.006 15.7029 7.698 15.3062 7.082 15.0262C6.466 14.7369 5.68667 14.5922 4.744 14.5922C3.876 14.5922 3.12 14.7415 2.476 15.0402C1.82267 15.3389 1.496 15.7402 1.496 16.2442C1.496 16.7389 1.83667 17.1355 2.518 17.4342C3.19 17.7329 3.932 17.8822 4.744 17.8822ZM1.72 11.3464H0.501999V8.68637H9V10.1284H1.72V11.3464ZM8.58 4.55856L5.976 2.75256C6.06 3.06056 6.102 3.3639 6.102 3.66256C6.102 4.41856 5.82667 5.0299 5.276 5.49656C4.72533 5.9539 4.06267 6.18256 3.288 6.18256C2.40133 6.18256 1.678 5.90256 1.118 5.34256C0.558 4.78256 0.278 4.0639 0.278 3.18656C0.278 2.33723 0.548666 1.6279 1.09 1.05856C1.63133 0.489229 2.33133 0.204562 3.19 0.204562C4.04867 0.204562 4.99133 0.549896 6.018 1.24056L9.364 3.49456L8.58 4.55856ZM3.246 4.74056C3.73133 4.74056 4.15133 4.60056 4.506 4.32056C4.86067 4.03123 5.038 3.64856 5.038 3.17256C5.038 2.69656 4.86067 2.31856 4.506 2.03856C4.142 1.74923 3.71267 1.60456 3.218 1.60456C2.72333 1.60456 2.29867 1.74456 1.944 2.02456C1.58933 2.30456 1.412 2.68723 1.412 3.17256C1.412 3.64856 1.594 4.03123 1.958 4.32056C2.322 4.60056 2.75133 4.74056 3.246 4.74056Z" fill="black"/>
</svg>
