<svg width="23" height="9" viewBox="0 0 23 9" fill="none" xmlns="http://www.w3.org/2000/svg">
<path d="M5.172 6.956V8H0.276L2.124 5.66C3.004 4.572 3.52 3.892 3.672 3.62C3.832 3.34 3.912 3.112 3.912 2.936C3.92 2.888 3.924 2.84 3.924 2.792C3.924 2.472 3.816 2.188 3.6 1.94C3.392 1.692 3.116 1.568 2.772 1.568C2.428 1.568 2.156 1.708 1.956 1.988C1.764 2.268 1.668 2.608 1.668 3.008H0.372C0.372 2.288 0.584 1.696 1.008 1.232C1.44 0.76 2.024 0.524 2.76 0.524C3.424 0.524 3.984 0.748 4.44 1.196C4.896 1.644 5.124 2.204 5.124 2.876C5.124 3.508 4.64 4.388 3.672 5.516L2.436 6.956H5.172ZM10.9781 4.364C10.9781 5.42 10.7461 6.324 10.2821 7.076C9.81813 7.82 9.17813 8.192 8.36213 8.192C7.55413 8.192 6.91813 7.816 6.45413 7.064C5.99013 6.312 5.75813 5.412 5.75813 4.364C5.75813 3.276 5.99013 2.364 6.45413 1.628C6.92613 0.892 7.56613 0.524 8.37413 0.524C9.18213 0.524 9.81813 0.9 10.2821 1.652C10.7461 2.396 10.9781 3.3 10.9781 4.364ZM6.95813 4.352C6.95813 5.088 7.08613 5.74 7.34212 6.308C7.59813 6.868 7.94613 7.148 8.38613 7.148C8.82613 7.148 9.16613 6.884 9.40613 6.356C9.65413 5.828 9.77813 5.16 9.77813 4.352C9.77813 3.608 9.65013 2.96 9.39413 2.408C9.13813 1.848 8.79413 1.568 8.36213 1.568C7.93813 1.568 7.59813 1.86 7.34212 2.444C7.08613 3.02 6.95813 3.656 6.95813 4.352ZM16.3283 6.956V8H11.4323L13.2803 5.66C14.1603 4.572 14.6763 3.892 14.8283 3.62C14.9883 3.34 15.0683 3.112 15.0683 2.936C15.0763 2.888 15.0803 2.84 15.0803 2.792C15.0803 2.472 14.9723 2.188 14.7563 1.94C14.5483 1.692 14.2723 1.568 13.9283 1.568C13.5843 1.568 13.3123 1.708 13.1123 1.988C12.9203 2.268 12.8243 2.608 12.8243 3.008H11.5283C11.5283 2.288 11.7403 1.696 12.1643 1.232C12.5963 0.76 13.1803 0.524 13.9163 0.524C14.5803 0.524 15.1403 0.748 15.5963 1.196C16.0523 1.644 16.2803 2.204 16.2803 2.876C16.2803 3.508 15.7963 4.388 14.8283 5.516L13.5923 6.956H16.3283ZM22.1344 4.364C22.1344 5.42 21.9024 6.324 21.4384 7.076C20.9744 7.82 20.3344 8.192 19.5184 8.192C18.7104 8.192 18.0744 7.816 17.6104 7.064C17.1464 6.312 16.9144 5.412 16.9144 4.364C16.9144 3.276 17.1464 2.364 17.6104 1.628C18.0824 0.892 18.7224 0.524 19.5304 0.524C20.3384 0.524 20.9744 0.9 21.4384 1.652C21.9024 2.396 22.1344 3.3 22.1344 4.364ZM18.1144 4.352C18.1144 5.088 18.2424 5.74 18.4984 6.308C18.7544 6.868 19.1024 7.148 19.5424 7.148C19.9824 7.148 20.3224 6.884 20.5624 6.356C20.8104 5.828 20.9344 5.16 20.9344 4.352C20.9344 3.608 20.8064 2.96 20.5504 2.408C20.2944 1.848 19.9504 1.568 19.5184 1.568C19.0944 1.568 18.7544 1.86 18.4984 2.444C18.2424 3.02 18.1144 3.656 18.1144 4.352Z" fill="black"/>
</svg>
