<svg width="48" height="30" viewBox="0 0 48 30" fill="none" xmlns="http://www.w3.org/2000/svg">
<path d="M15.516 21.868V25H0.828L6.372 17.98C9.012 14.716 10.56 12.676 11.016 11.86C11.496 11.02 11.736 10.336 11.736 9.808C11.76 9.664 11.772 9.52 11.772 9.376C11.772 8.416 11.448 7.564 10.8 6.82C10.176 6.076 9.348 5.704 8.316 5.704C7.284 5.704 6.468 6.124 5.868 6.964C5.292 7.804 5.004 8.824 5.004 10.024H1.116C1.116 7.864 1.752 6.088 3.024 4.696C4.32 3.28 6.072 2.572 8.28 2.572C10.272 2.572 11.952 3.244 13.32 4.588C14.688 5.932 15.372 7.612 15.372 9.628C15.372 11.524 13.92 14.164 11.016 17.548L7.308 21.868H15.516ZM31.4584 1.528L20.8024 29.752L17.6704 28.6L28.2904 0.339998L31.4584 1.528ZM34.0358 8.872C34.2278 6.928 34.9118 5.392 36.0878 4.264C37.2638 3.136 38.7998 2.572 40.6958 2.572C42.6158 2.572 44.1518 3.124 45.3038 4.228C46.4558 5.332 47.0318 6.832 47.0318 8.728C47.0318 10.84 46.3358 12.364 44.9438 13.3C46.8158 14.116 47.7518 15.892 47.7518 18.628C47.7518 20.74 47.0678 22.432 45.6998 23.704C44.3558 24.952 42.6158 25.576 40.4798 25.576C38.4878 25.576 36.7838 24.916 35.3678 23.596C33.9518 22.276 33.2438 20.644 33.2438 18.7H36.9518C36.9518 19.756 37.2998 20.644 37.9958 21.364C38.6918 22.084 39.5678 22.444 40.6238 22.444C41.7038 22.444 42.5558 22.048 43.1798 21.256C43.8278 20.464 44.1518 19.504 44.1518 18.376C44.1518 17.44 43.8038 16.576 43.1078 15.784C42.4358 14.968 41.6678 14.56 40.8038 14.56C40.7078 14.56 40.6118 14.572 40.5158 14.596L39.7238 14.668V12.184H40.1918C41.1038 12.184 41.8838 11.872 42.5318 11.248C43.2038 10.6 43.5398 9.808 43.5398 8.872C43.5398 6.64 42.5318 5.524 40.5158 5.524C38.5238 5.524 37.5278 6.64 37.5278 8.872H34.0358Z" fill="black"/>
</svg>
