<svg width="266" height="25" viewBox="0 0 266 25" fill="none" xmlns="http://www.w3.org/2000/svg">
<path d="M2.74455 8.096L1.98855 10H0.462547L3.76655 1.278H5.05455L8.27455 10H6.73455L6.02055 8.096H2.74455ZM4.32655 3.364L3.09455 6.962H5.62855L4.32655 3.364ZM14.9512 10H13.5932V5.688H12.9492V4.582H13.5932V2.846C13.5932 1.15667 14.2512 0.312 15.5672 0.312C15.8379 0.312 16.0899 0.372666 16.3232 0.494V1.67C16.0806 1.54867 15.8659 1.488 15.6792 1.488C15.4272 1.488 15.2406 1.58133 15.1192 1.768C15.0072 1.94533 14.9512 2.37933 14.9512 3.07V4.582H16.3232V5.688H14.9512V10ZM22.0792 10H20.7492V9.496C20.3572 9.95333 19.7739 10.182 18.9992 10.182C18.2245 10.182 17.6039 9.88333 17.1372 9.286C16.6799 8.68867 16.4512 7.98867 16.4512 7.186C16.4512 6.38333 16.6845 5.702 17.1512 5.142C17.6272 4.57267 18.2339 4.288 18.9712 4.288C19.7552 4.288 20.3479 4.52133 20.7492 4.988V4.47H22.0792V10ZM20.9032 7.228C20.9032 6.71467 20.7585 6.29467 20.4692 5.968C20.1799 5.632 19.8065 5.464 19.3492 5.464C18.9012 5.464 18.5325 5.62733 18.2432 5.954C17.9632 6.27133 17.8232 6.696 17.8232 7.228C17.8232 7.76 17.9679 8.18933 18.2572 8.516C18.5465 8.84267 18.9199 9.006 19.3772 9.006C19.8345 9.006 20.2032 8.84733 20.4832 8.53C20.7632 8.21267 20.9032 7.77867 20.9032 7.228ZM26.9803 5.912C26.635 5.56667 26.2476 5.394 25.8183 5.394C25.3143 5.394 24.9176 5.576 24.6283 5.94C24.339 6.304 24.1943 6.752 24.1943 7.284C24.1943 7.80667 24.3576 8.236 24.6843 8.572C25.011 8.908 25.4076 9.076 25.8743 9.076C26.2756 9.076 26.6443 8.89867 26.9803 8.544V9.846C26.5883 10.07 26.1356 10.182 25.6223 10.182C24.8196 10.182 24.1523 9.89733 23.6203 9.328C23.0883 8.75867 22.8223 8.06333 22.8223 7.242C22.8223 6.42067 23.093 5.72533 23.6343 5.156C24.185 4.57733 24.871 4.288 25.6923 4.288C26.1776 4.288 26.607 4.40467 26.9803 4.638V5.912ZM29.6244 2.146C29.6244 2.36067 29.5451 2.54733 29.3864 2.706C29.2278 2.86467 29.0411 2.944 28.8264 2.944C28.6118 2.944 28.4251 2.86467 28.2664 2.706C28.1078 2.54733 28.0284 2.36067 28.0284 2.146C28.0284 1.93133 28.1078 1.74467 28.2664 1.586C28.4251 1.42733 28.6118 1.348 28.8264 1.348C29.0411 1.348 29.2278 1.42733 29.3864 1.586C29.5451 1.74467 29.6244 1.93133 29.6244 2.146ZM29.5124 10H28.1544V4.47H29.5124V10ZM36.0519 10H34.7219V9.496C34.3299 9.95333 33.7465 10.182 32.9719 10.182C32.1972 10.182 31.5765 9.88333 31.1099 9.286C30.6525 8.68867 30.4239 7.98867 30.4239 7.186C30.4239 6.38333 30.6572 5.702 31.1239 5.142C31.5999 4.57267 32.2065 4.288 32.9439 4.288C33.7279 4.288 34.3205 4.52133 34.7219 4.988V4.47H36.0519V10ZM34.8759 7.228C34.8759 6.71467 34.7312 6.29467 34.4419 5.968C34.1525 5.632 33.7792 5.464 33.3219 5.464C32.8739 5.464 32.5052 5.62733 32.2159 5.954C31.9359 6.27133 31.7959 6.696 31.7959 7.228C31.7959 7.76 31.9405 8.18933 32.2299 8.516C32.5192 8.84267 32.8925 9.006 33.3499 9.006C33.8072 9.006 34.1759 8.84733 34.4559 8.53C34.7359 8.21267 34.8759 7.77867 34.8759 7.228ZM38.657 10H37.299V0.438H38.657V10ZM47.5101 5.618C47.2114 5.338 46.8988 5.198 46.5721 5.198C46.0774 5.198 45.8301 5.422 45.8301 5.87C45.8301 6.122 46.0541 6.32733 46.5021 6.486C47.3234 6.78467 47.8321 7.06 48.0281 7.312C48.2241 7.55467 48.3221 7.858 48.3221 8.222C48.3221 8.81933 48.1121 9.29533 47.6921 9.65C47.2814 10.0047 46.7728 10.182 46.1661 10.182C45.3821 10.182 44.7334 9.874 44.2201 9.258L44.8221 8.488C45.2888 8.95467 45.7181 9.188 46.1101 9.188C46.6794 9.188 46.9641 8.91267 46.9641 8.362C46.9641 8.082 46.8148 7.87667 46.5161 7.746C46.2174 7.606 45.9888 7.50333 45.8301 7.438C44.9714 7.06467 44.5421 6.612 44.5421 6.08C44.5421 5.548 44.7008 5.11867 45.0181 4.792C45.3448 4.456 45.7694 4.288 46.2921 4.288C47.0388 4.288 47.6314 4.47933 48.0701 4.862L47.5101 5.618ZM50.6192 6.794L52.5512 4.47H54.3712L52.0472 6.906L54.5532 10H52.7052L50.6472 7.312L50.6192 10H49.2612V0.438H50.6192V6.794ZM56.1471 7.368C56.1471 7.9 56.2638 8.33867 56.4971 8.684C56.7304 9.02933 57.0524 9.202 57.4631 9.202C58.1071 9.202 58.5178 8.88467 58.6951 8.25L59.9831 8.46C59.5631 9.608 58.7231 10.182 57.4631 10.182C56.6231 10.182 55.9511 9.916 55.4471 9.384C54.9524 8.84267 54.7051 8.14267 54.7051 7.284C54.7051 6.37867 54.9431 5.65533 55.4191 5.114C55.9044 4.56333 56.5578 4.288 57.3791 4.288C58.2098 4.288 58.8538 4.54933 59.3111 5.072C59.7778 5.58533 60.0111 6.29 60.0111 7.186V7.368H56.1471ZM58.7511 6.612C58.7511 6.22933 58.6298 5.89333 58.3871 5.604C58.1538 5.31467 57.8458 5.17 57.4631 5.17C57.0898 5.17 56.7818 5.324 56.5391 5.632C56.3058 5.93067 56.1891 6.25733 56.1891 6.612H58.7511ZM62.4096 10H61.0516V5.688H60.3936V4.582H61.0516V2.594H62.4096V4.582H63.4876V5.688H62.4096V10ZM67.5994 5.912C67.2541 5.56667 66.8668 5.394 66.4374 5.394C65.9334 5.394 65.5368 5.576 65.2474 5.94C64.9581 6.304 64.8134 6.752 64.8134 7.284C64.8134 7.80667 64.9768 8.236 65.3034 8.572C65.6301 8.908 66.0268 9.076 66.4934 9.076C66.8948 9.076 67.2634 8.89867 67.5994 8.544V9.846C67.2074 10.07 66.7548 10.182 66.2414 10.182C65.4388 10.182 64.7714 9.89733 64.2394 9.328C63.7074 8.75867 63.4414 8.06333 63.4414 7.242C63.4414 6.42067 63.7121 5.72533 64.2534 5.156C64.8041 4.57733 65.4901 4.288 66.3114 4.288C66.7968 4.288 67.2261 4.40467 67.5994 4.638V5.912ZM69.9356 0.438V4.932C70.2902 4.50267 70.8549 4.288 71.6296 4.288C72.2082 4.288 72.6702 4.512 73.0156 4.96C73.3609 5.408 73.5336 5.96333 73.5336 6.626V10H72.1896V7.074C72.1896 5.90733 71.8302 5.324 71.1116 5.324C70.3276 5.324 69.9356 5.968 69.9356 7.256V10H68.5776V0.438H69.9356ZM83.2293 9.482C82.8653 9.94867 82.2913 10.182 81.5073 10.182C80.7233 10.182 80.098 9.88333 79.6313 9.286C79.174 8.68867 78.9453 7.98867 78.9453 7.186C78.9453 6.38333 79.1787 5.702 79.6453 5.142C80.1213 4.57267 80.728 4.288 81.4653 4.288C82.2493 4.288 82.828 4.51667 83.2013 4.974L83.2293 0.438H84.5873V10H83.2293V9.482ZM83.3833 7.228C83.3833 6.74267 83.234 6.32733 82.9353 5.982C82.6367 5.63667 82.2773 5.464 81.8573 5.464C81.4373 5.464 81.0733 5.63667 80.7653 5.982C80.4667 6.318 80.3173 6.738 80.3173 7.242C80.3173 7.73667 80.462 8.15667 80.7513 8.502C81.05 8.838 81.4233 9.006 81.8713 9.006C82.3193 9.006 82.6833 8.84267 82.9633 8.516C83.2433 8.18 83.3833 7.75067 83.3833 7.228ZM90.9444 10H89.6144V9.496C89.2224 9.95333 88.6391 10.182 87.8644 10.182C87.0898 10.182 86.4691 9.88333 86.0024 9.286C85.5451 8.68867 85.3164 7.98867 85.3164 7.186C85.3164 6.38333 85.5498 5.702 86.0164 5.142C86.4924 4.57267 87.0991 4.288 87.8364 4.288C88.6204 4.288 89.2131 4.52133 89.6144 4.988V4.47H90.9444V10ZM89.7684 7.228C89.7684 6.71467 89.6238 6.29467 89.3344 5.968C89.0451 5.632 88.6718 5.464 88.2144 5.464C87.7664 5.464 87.3978 5.62733 87.1084 5.954C86.8284 6.27133 86.6884 6.696 86.6884 7.228C86.6884 7.76 86.8331 8.18933 87.1224 8.516C87.4118 8.84267 87.7851 9.006 88.2424 9.006C88.6998 9.006 89.0684 8.84733 89.3484 8.53C89.6284 8.21267 89.7684 7.77867 89.7684 7.228ZM93.7455 10H92.3875V5.688H91.7295V4.582H92.3875V2.594H93.7455V4.582H94.8235V5.688H93.7455V10ZM100.405 10H99.0754V9.496C98.6834 9.95333 98.1 10.182 97.3254 10.182C96.5507 10.182 95.93 9.88333 95.4634 9.286C95.006 8.68867 94.7774 7.98867 94.7774 7.186C94.7774 6.38333 95.0107 5.702 95.4774 5.142C95.9534 4.57267 96.56 4.288 97.2974 4.288C98.0814 4.288 98.674 4.52133 99.0754 4.988V4.47H100.405V10ZM99.2294 7.228C99.2294 6.71467 99.0847 6.29467 98.7954 5.968C98.506 5.632 98.1327 5.464 97.6754 5.464C97.2274 5.464 96.8587 5.62733 96.5694 5.954C96.2894 6.27133 96.1494 6.696 96.1494 7.228C96.1494 7.76 96.294 8.18933 96.5834 8.516C96.8727 8.84267 97.246 9.006 97.7034 9.006C98.1607 9.006 98.5294 8.84733 98.8094 8.53C99.0894 8.21267 99.2294 7.77867 99.2294 7.228ZM104.494 5.618C104.196 5.338 103.883 5.198 103.556 5.198C103.062 5.198 102.814 5.422 102.814 5.87C102.814 6.122 103.038 6.32733 103.486 6.486C104.308 6.78467 104.816 7.06 105.012 7.312C105.208 7.55467 105.306 7.858 105.306 8.222C105.306 8.81933 105.096 9.29533 104.676 9.65C104.266 10.0047 103.757 10.182 103.15 10.182C102.366 10.182 101.718 9.874 101.204 9.258L101.806 8.488C102.273 8.95467 102.702 9.188 103.094 9.188C103.664 9.188 103.948 8.91267 103.948 8.362C103.948 8.082 103.799 7.87667 103.5 7.746C103.202 7.606 102.973 7.50333 102.814 7.438C101.956 7.06467 101.526 6.612 101.526 6.08C101.526 5.548 101.685 5.11867 102.002 4.792C102.329 4.456 102.754 4.288 103.276 4.288C104.023 4.288 104.616 4.47933 105.054 4.862L104.494 5.618ZM107.212 7.368C107.212 7.9 107.328 8.33867 107.562 8.684C107.795 9.02933 108.117 9.202 108.528 9.202C109.172 9.202 109.582 8.88467 109.76 8.25L111.048 8.46C110.628 9.608 109.788 10.182 108.528 10.182C107.688 10.182 107.016 9.916 106.512 9.384C106.017 8.84267 105.77 8.14267 105.77 7.284C105.77 6.37867 106.008 5.65533 106.484 5.114C106.969 4.56333 107.622 4.288 108.444 4.288C109.274 4.288 109.918 4.54933 110.376 5.072C110.842 5.58533 111.076 6.29 111.076 7.186V7.368H107.212ZM109.816 6.612C109.816 6.22933 109.694 5.89333 109.452 5.604C109.218 5.31467 108.91 5.17 108.528 5.17C108.154 5.17 107.846 5.324 107.604 5.632C107.37 5.93067 107.254 6.25733 107.254 6.612H109.816ZM113.474 10H112.116V5.688H111.458V4.582H112.116V2.594H113.474V4.582H114.552V5.688H113.474V10ZM123.34 5.912C122.994 5.56667 122.607 5.394 122.178 5.394C121.674 5.394 121.277 5.576 120.988 5.94C120.698 6.304 120.554 6.752 120.554 7.284C120.554 7.80667 120.717 8.236 121.044 8.572C121.37 8.908 121.767 9.076 122.234 9.076C122.635 9.076 123.004 8.89867 123.34 8.544V9.846C122.948 10.07 122.495 10.182 121.982 10.182C121.179 10.182 120.512 9.89733 119.98 9.328C119.448 8.75867 119.182 8.06333 119.182 7.242C119.182 6.42067 119.452 5.72533 119.994 5.156C120.544 4.57733 121.23 4.288 122.052 4.288C122.537 4.288 122.966 4.40467 123.34 4.638V5.912ZM125.676 5.044C126.021 4.54 126.562 4.288 127.3 4.288C127.533 4.288 127.748 4.33467 127.944 4.428L127.776 5.66C127.57 5.52933 127.346 5.464 127.104 5.464C126.152 5.464 125.676 6.14533 125.676 7.508V10H124.318V4.47H125.676V5.044ZM129.497 7.368C129.497 7.9 129.613 8.33867 129.847 8.684C130.08 9.02933 130.402 9.202 130.813 9.202C131.457 9.202 131.867 8.88467 132.045 8.25L133.333 8.46C132.913 9.608 132.073 10.182 130.813 10.182C129.973 10.182 129.301 9.916 128.797 9.384C128.302 8.84267 128.055 8.14267 128.055 7.284C128.055 6.37867 128.293 5.65533 128.769 5.114C129.254 4.56333 129.907 4.288 130.729 4.288C131.559 4.288 132.203 4.54933 132.661 5.072C133.127 5.58533 133.361 6.29 133.361 7.186V7.368H129.497ZM132.101 6.612C132.101 6.22933 131.979 5.89333 131.737 5.604C131.503 5.31467 131.195 5.17 130.813 5.17C130.439 5.17 130.131 5.324 129.889 5.632C129.655 5.93067 129.539 6.25733 129.539 6.612H132.101ZM139.329 10H137.999V9.496C137.607 9.95333 137.024 10.182 136.249 10.182C135.475 10.182 134.854 9.88333 134.387 9.286C133.93 8.68867 133.701 7.98867 133.701 7.186C133.701 6.38333 133.935 5.702 134.401 5.142C134.877 4.57267 135.484 4.288 136.221 4.288C137.005 4.288 137.598 4.52133 137.999 4.988V4.47H139.329V10ZM138.153 7.228C138.153 6.71467 138.009 6.29467 137.719 5.968C137.43 5.632 137.057 5.464 136.599 5.464C136.151 5.464 135.783 5.62733 135.493 5.954C135.213 6.27133 135.073 6.696 135.073 7.228C135.073 7.76 135.218 8.18933 135.507 8.516C135.797 8.84267 136.17 9.006 136.627 9.006C137.085 9.006 137.453 8.84733 137.733 8.53C138.013 8.21267 138.153 7.77867 138.153 7.228ZM142.13 10H140.772V5.688H140.114V4.582H140.772V2.594H142.13V4.582H143.208V5.688H142.13V10ZM144.604 7.368C144.604 7.9 144.721 8.33867 144.954 8.684C145.187 9.02933 145.509 9.202 145.92 9.202C146.564 9.202 146.975 8.88467 147.152 8.25L148.44 8.46C148.02 9.608 147.18 10.182 145.92 10.182C145.08 10.182 144.408 9.916 143.904 9.384C143.409 8.84267 143.162 8.14267 143.162 7.284C143.162 6.37867 143.4 5.65533 143.876 5.114C144.361 4.56333 145.015 4.288 145.836 4.288C146.667 4.288 147.311 4.54933 147.768 5.072C148.235 5.58533 148.468 6.29 148.468 7.186V7.368H144.604ZM147.208 6.612C147.208 6.22933 147.087 5.89333 146.844 5.604C146.611 5.31467 146.303 5.17 145.92 5.17C145.547 5.17 145.239 5.324 144.996 5.632C144.763 5.93067 144.646 6.25733 144.646 6.612H147.208ZM153.093 9.482C152.729 9.94867 152.155 10.182 151.371 10.182C150.587 10.182 149.961 9.88333 149.495 9.286C149.037 8.68867 148.809 7.98867 148.809 7.186C148.809 6.38333 149.042 5.702 149.509 5.142C149.985 4.57267 150.591 4.288 151.329 4.288C152.113 4.288 152.691 4.51667 153.065 4.974L153.093 0.438H154.451V10H153.093V9.482ZM153.247 7.228C153.247 6.74267 153.097 6.32733 152.799 5.982C152.5 5.63667 152.141 5.464 151.721 5.464C151.301 5.464 150.937 5.63667 150.629 5.982C150.33 6.318 150.181 6.738 150.181 7.242C150.181 7.73667 150.325 8.15667 150.615 8.502C150.913 8.838 151.287 9.006 151.735 9.006C152.183 9.006 152.547 8.84267 152.827 8.516C153.107 8.18 153.247 7.75067 153.247 7.228ZM161.774 10H160.416V5.688H159.772V4.582H160.416V2.846C160.416 1.15667 161.074 0.312 162.39 0.312C162.66 0.312 162.912 0.372666 163.146 0.494V1.67C162.903 1.54867 162.688 1.488 162.502 1.488C162.25 1.488 162.063 1.58133 161.942 1.768C161.83 1.94533 161.774 2.37933 161.774 3.07V4.582H163.146V5.688H161.774V10ZM169.097 7.228C169.097 8.096 168.831 8.80533 168.299 9.356C167.767 9.90667 167.067 10.182 166.199 10.182C165.341 10.182 164.641 9.90667 164.099 9.356C163.558 8.80533 163.287 8.10067 163.287 7.242C163.287 6.374 163.553 5.66467 164.085 5.114C164.617 4.56333 165.317 4.288 166.185 4.288C167.053 4.288 167.753 4.56333 168.285 5.114C168.827 5.65533 169.097 6.36 169.097 7.228ZM164.659 7.256C164.659 7.76933 164.804 8.18933 165.093 8.516C165.383 8.84267 165.756 9.006 166.213 9.006C166.671 9.006 167.035 8.83333 167.305 8.488C167.585 8.13333 167.725 7.718 167.725 7.242C167.725 6.75667 167.585 6.34133 167.305 5.996C167.025 5.64133 166.657 5.464 166.199 5.464C165.751 5.464 165.383 5.632 165.093 5.968C164.804 6.304 164.659 6.73333 164.659 7.256ZM171.203 5.044C171.548 4.54 172.09 4.288 172.827 4.288C173.06 4.288 173.275 4.33467 173.471 4.428L173.303 5.66C173.098 5.52933 172.874 5.464 172.631 5.464C171.679 5.464 171.203 6.14533 171.203 7.508V10H169.845V4.47H171.203V5.044ZM182.808 3.224C182.444 2.71067 181.982 2.454 181.422 2.454C181.067 2.454 180.769 2.56133 180.526 2.776C180.283 2.99067 180.162 3.28 180.162 3.644C180.162 3.99867 180.601 4.42333 181.478 4.918C182.365 5.41267 182.813 5.66 182.822 5.66C183.447 6.12667 183.76 6.67733 183.76 7.312C183.76 8.18 183.508 8.88467 183.004 9.426C182.509 9.958 181.828 10.224 180.96 10.224C179.859 10.224 178.991 9.67333 178.356 8.572L179.266 7.676C179.387 8.00267 179.611 8.30133 179.938 8.572C180.265 8.84267 180.601 8.978 180.946 8.978C181.357 8.978 181.679 8.838 181.912 8.558C182.155 8.278 182.276 7.93733 182.276 7.536C182.276 7.24667 182.187 6.99467 182.01 6.78C181.833 6.556 181.231 6.22 180.204 5.772C179.187 5.31467 178.678 4.666 178.678 3.826C178.678 3.10733 178.911 2.50533 179.378 2.02C179.854 1.52533 180.447 1.278 181.156 1.278C182.136 1.278 182.911 1.59533 183.48 2.23L182.808 3.224ZM186.012 6.794L187.944 4.47H189.764L187.44 6.906L189.946 10H188.098L186.04 7.312L186.012 10H184.654V0.438H186.012V6.794ZM191.54 7.368C191.54 7.9 191.656 8.33867 191.89 8.684C192.123 9.02933 192.445 9.202 192.856 9.202C193.5 9.202 193.91 8.88467 194.088 8.25L195.376 8.46C194.956 9.608 194.116 10.182 192.856 10.182C192.016 10.182 191.344 9.916 190.84 9.384C190.345 8.84267 190.098 8.14267 190.098 7.284C190.098 6.37867 190.336 5.65533 190.812 5.114C191.297 4.56333 191.95 4.288 192.772 4.288C193.602 4.288 194.246 4.54933 194.704 5.072C195.17 5.58533 195.404 6.29 195.404 7.186V7.368H191.54ZM194.144 6.612C194.144 6.22933 194.022 5.89333 193.78 5.604C193.546 5.31467 193.238 5.17 192.856 5.17C192.482 5.17 192.174 5.324 191.932 5.632C191.698 5.93067 191.582 6.25733 191.582 6.612H194.144ZM197.802 10H196.444V5.688H195.786V4.582H196.444V2.594H197.802V4.582H198.88V5.688H197.802V10ZM202.992 5.912C202.647 5.56667 202.259 5.394 201.83 5.394C201.326 5.394 200.929 5.576 200.64 5.94C200.351 6.304 200.206 6.752 200.206 7.284C200.206 7.80667 200.369 8.236 200.696 8.572C201.023 8.908 201.419 9.076 201.886 9.076C202.287 9.076 202.656 8.89867 202.992 8.544V9.846C202.6 10.07 202.147 10.182 201.634 10.182C200.831 10.182 200.164 9.89733 199.632 9.328C199.1 8.75867 198.834 8.06333 198.834 7.242C198.834 6.42067 199.105 5.72533 199.646 5.156C200.197 4.57733 200.883 4.288 201.704 4.288C202.189 4.288 202.619 4.40467 202.992 4.638V5.912ZM205.328 0.438V4.932C205.683 4.50267 206.247 4.288 207.022 4.288C207.601 4.288 208.063 4.512 208.408 4.96C208.753 5.408 208.926 5.96333 208.926 6.626V10H207.582V7.074C207.582 5.90733 207.223 5.324 206.504 5.324C205.72 5.324 205.328 5.968 205.328 7.256V10H203.97V0.438H205.328ZM215.738 10H213.96L211.552 6.22L211.538 10H210.096V1.502H212.35C214.245 1.502 215.192 2.356 215.192 4.064C215.192 4.708 215.024 5.24467 214.688 5.674C214.361 6.10333 213.913 6.35067 213.344 6.416L215.738 10ZM211.538 5.632H211.972C213.157 5.632 213.75 5.12333 213.75 4.106C213.75 3.126 213.162 2.636 211.986 2.636H211.538V5.632ZM216.385 1.278H217.477L222.279 7.676L222.307 1.502H223.735V10.168H222.657L217.841 3.784L217.827 10H216.385V1.278ZM224.944 1.278H226.036L230.838 7.676L230.866 1.502H232.294V10.168H231.216L226.4 3.784L226.386 10H224.944V1.278ZM236.134 5.744V7.032H233.39V5.744H236.134ZM237.179 0.438H238.537V4.974C238.929 4.51667 239.512 4.288 240.287 4.288C241.015 4.288 241.617 4.57733 242.093 5.156C242.578 5.73467 242.821 6.416 242.821 7.2C242.821 8.04933 242.583 8.75867 242.107 9.328C241.631 9.89733 241.015 10.182 240.259 10.182C239.447 10.182 238.882 9.94867 238.565 9.482L238.537 10H237.179V0.438ZM241.435 7.228C241.435 6.76133 241.29 6.35067 241.001 5.996C240.712 5.64133 240.343 5.464 239.895 5.464C239.447 5.464 239.083 5.64133 238.803 5.996C238.523 6.34133 238.383 6.75667 238.383 7.242C238.383 7.718 238.528 8.13333 238.817 8.488C239.116 8.83333 239.48 9.006 239.909 9.006C240.376 9.006 240.744 8.838 241.015 8.502C241.295 8.15667 241.435 7.732 241.435 7.228ZM248.786 10H247.456V9.496C247.064 9.95333 246.481 10.182 245.706 10.182C244.932 10.182 244.311 9.88333 243.844 9.286C243.387 8.68867 243.158 7.98867 243.158 7.186C243.158 6.38333 243.392 5.702 243.858 5.142C244.334 4.57267 244.941 4.288 245.678 4.288C246.462 4.288 247.055 4.52133 247.456 4.988V4.47H248.786V10ZM247.61 7.228C247.61 6.71467 247.466 6.29467 247.176 5.968C246.887 5.632 246.514 5.464 246.056 5.464C245.608 5.464 245.24 5.62733 244.95 5.954C244.67 6.27133 244.53 6.696 244.53 7.228C244.53 7.76 244.675 8.18933 244.964 8.516C245.254 8.84267 245.627 9.006 246.084 9.006C246.542 9.006 246.91 8.84733 247.19 8.53C247.47 8.21267 247.61 7.77867 247.61 7.228ZM252.875 5.618C252.577 5.338 252.264 5.198 251.937 5.198C251.443 5.198 251.195 5.422 251.195 5.87C251.195 6.122 251.419 6.32733 251.867 6.486C252.689 6.78467 253.197 7.06 253.393 7.312C253.589 7.55467 253.687 7.858 253.687 8.222C253.687 8.81933 253.477 9.29533 253.057 9.65C252.647 10.0047 252.138 10.182 251.531 10.182C250.747 10.182 250.099 9.874 249.585 9.258L250.187 8.488C250.654 8.95467 251.083 9.188 251.475 9.188C252.045 9.188 252.329 8.91267 252.329 8.362C252.329 8.082 252.18 7.87667 251.881 7.746C251.583 7.606 251.354 7.50333 251.195 7.438C250.337 7.06467 249.907 6.612 249.907 6.08C249.907 5.548 250.066 5.11867 250.383 4.792C250.71 4.456 251.135 4.288 251.657 4.288C252.404 4.288 252.997 4.47933 253.435 4.862L252.875 5.618ZM255.592 7.368C255.592 7.9 255.709 8.33867 255.942 8.684C256.176 9.02933 256.498 9.202 256.908 9.202C257.552 9.202 257.963 8.88467 258.14 8.25L259.428 8.46C259.008 9.608 258.168 10.182 256.908 10.182C256.068 10.182 255.396 9.916 254.892 9.384C254.398 8.84267 254.15 8.14267 254.15 7.284C254.15 6.37867 254.388 5.65533 254.864 5.114C255.35 4.56333 256.003 4.288 256.824 4.288C257.655 4.288 258.299 4.54933 258.756 5.072C259.223 5.58533 259.456 6.29 259.456 7.186V7.368H255.592ZM258.196 6.612C258.196 6.22933 258.075 5.89333 257.832 5.604C257.599 5.31467 257.291 5.17 256.908 5.17C256.535 5.17 256.227 5.324 255.984 5.632C255.751 5.93067 255.634 6.25733 255.634 6.612H258.196ZM264.081 9.482C263.717 9.94867 263.143 10.182 262.359 10.182C261.575 10.182 260.95 9.88333 260.483 9.286C260.026 8.68867 259.797 7.98867 259.797 7.186C259.797 6.38333 260.03 5.702 260.497 5.142C260.973 4.57267 261.58 4.288 262.317 4.288C263.101 4.288 263.68 4.51667 264.053 4.974L264.081 0.438H265.439V10H264.081V9.482ZM264.235 7.228C264.235 6.74267 264.086 6.32733 263.787 5.982C263.488 5.63667 263.129 5.464 262.709 5.464C262.289 5.464 261.925 5.63667 261.617 5.982C261.318 6.318 261.169 6.738 261.169 7.242C261.169 7.73667 261.314 8.15667 261.603 8.502C261.902 8.838 262.275 9.006 262.723 9.006C263.171 9.006 263.535 8.84267 263.815 8.516C264.095 8.18 264.235 7.75067 264.235 7.228ZM189.154 18.974C189.537 18.5167 190.102 18.288 190.848 18.288C192.118 18.288 192.752 19.0673 192.752 20.626V24H191.408V21.074C191.408 19.9073 191.049 19.324 190.33 19.324C189.546 19.324 189.154 19.9493 189.154 21.2V24H187.796V18.47H189.154V18.974ZM194.93 21.368C194.93 21.9 195.047 22.3387 195.28 22.684C195.514 23.0293 195.836 23.202 196.246 23.202C196.89 23.202 197.301 22.8847 197.478 22.25L198.766 22.46C198.346 23.608 197.506 24.182 196.246 24.182C195.406 24.182 194.734 23.916 194.23 23.384C193.736 22.8427 193.488 22.1427 193.488 21.284C193.488 20.3787 193.726 19.6553 194.202 19.114C194.688 18.5633 195.341 18.288 196.162 18.288C196.993 18.288 197.637 18.5493 198.094 19.072C198.561 19.5853 198.794 20.29 198.794 21.186V21.368H194.93ZM197.534 20.612C197.534 20.2293 197.413 19.8933 197.17 19.604C196.937 19.3147 196.629 19.17 196.246 19.17C195.873 19.17 195.565 19.324 195.322 19.632C195.089 19.9307 194.972 20.2573 194.972 20.612H197.534ZM200.857 18.47V21.466C200.857 22.5393 201.23 23.076 201.977 23.076C202.723 23.076 203.097 22.5393 203.097 21.466V18.47H204.455V21.718C204.455 23.3607 203.629 24.182 201.977 24.182C200.325 24.182 199.499 23.3607 199.499 21.718V18.47H200.857ZM206.914 19.044C207.259 18.54 207.801 18.288 208.538 18.288C208.771 18.288 208.986 18.3347 209.182 18.428L209.014 19.66C208.809 19.5293 208.585 19.464 208.342 19.464C207.39 19.464 206.914 20.1453 206.914 21.508V24H205.556V18.47H206.914V19.044ZM214.921 24H213.591V23.496C213.199 23.9533 212.616 24.182 211.841 24.182C211.066 24.182 210.446 23.8833 209.979 23.286C209.522 22.6887 209.293 21.9887 209.293 21.186C209.293 20.3833 209.526 19.702 209.993 19.142C210.469 18.5727 211.076 18.288 211.813 18.288C212.597 18.288 213.19 18.5213 213.591 18.988V18.47H214.921V24ZM213.745 21.228C213.745 20.7147 213.6 20.2947 213.311 19.968C213.022 19.632 212.648 19.464 212.191 19.464C211.743 19.464 211.374 19.6273 211.085 19.954C210.805 20.2713 210.665 20.696 210.665 21.228C210.665 21.76 210.81 22.1893 211.099 22.516C211.388 22.8427 211.762 23.006 212.219 23.006C212.676 23.006 213.045 22.8473 213.325 22.53C213.605 22.2127 213.745 21.7787 213.745 21.228ZM217.526 24H216.168V14.438H217.526V24ZM224.783 18.974C225.166 18.5167 225.731 18.288 226.477 18.288C227.747 18.288 228.381 19.0673 228.381 20.626V24H227.037V21.074C227.037 19.9073 226.678 19.324 225.959 19.324C225.175 19.324 224.783 19.9493 224.783 21.2V24H223.425V18.47H224.783V18.974ZM230.559 21.368C230.559 21.9 230.676 22.3387 230.909 22.684C231.143 23.0293 231.465 23.202 231.875 23.202C232.519 23.202 232.93 22.8847 233.107 22.25L234.395 22.46C233.975 23.608 233.135 24.182 231.875 24.182C231.035 24.182 230.363 23.916 229.859 23.384C229.365 22.8427 229.117 22.1427 229.117 21.284C229.117 20.3787 229.355 19.6553 229.831 19.114C230.317 18.5633 230.97 18.288 231.791 18.288C232.622 18.288 233.266 18.5493 233.723 19.072C234.19 19.5853 234.423 20.29 234.423 21.186V21.368H230.559ZM233.163 20.612C233.163 20.2293 233.042 19.8933 232.799 19.604C232.566 19.3147 232.258 19.17 231.875 19.17C231.502 19.17 231.194 19.324 230.951 19.632C230.718 19.9307 230.601 20.2573 230.601 20.612H233.163ZM236.822 24H235.464V19.688H234.806V18.582H235.464V16.594H236.822V18.582H237.9V19.688H236.822V24ZM240.346 22.082L241.816 18.288H242.306L243.846 22.068L245.218 18.47H246.716L244.14 24.112H243.454L242.18 20.57L240.724 24.112H240.024L237.49 18.47H238.988L240.346 22.082ZM252.496 21.228C252.496 22.096 252.23 22.8053 251.698 23.356C251.166 23.9067 250.466 24.182 249.598 24.182C248.739 24.182 248.039 23.9067 247.498 23.356C246.957 22.8053 246.686 22.1007 246.686 21.242C246.686 20.374 246.952 19.6647 247.484 19.114C248.016 18.5633 248.716 18.288 249.584 18.288C250.452 18.288 251.152 18.5633 251.684 19.114C252.225 19.6553 252.496 20.36 252.496 21.228ZM248.058 21.256C248.058 21.7693 248.203 22.1893 248.492 22.516C248.781 22.8427 249.155 23.006 249.612 23.006C250.069 23.006 250.433 22.8333 250.704 22.488C250.984 22.1333 251.124 21.718 251.124 21.242C251.124 20.7567 250.984 20.3413 250.704 19.996C250.424 19.6413 250.055 19.464 249.598 19.464C249.15 19.464 248.781 19.632 248.492 19.968C248.203 20.304 248.058 20.7333 248.058 21.256ZM254.602 19.044C254.947 18.54 255.488 18.288 256.226 18.288C256.459 18.288 256.674 18.3347 256.87 18.428L256.702 19.66C256.496 19.5293 256.272 19.464 256.03 19.464C255.078 19.464 254.602 20.1453 254.602 21.508V24H253.244V18.47H254.602V19.044ZM258.815 20.794L260.747 18.47H262.567L260.243 20.906L262.749 24H260.901L258.843 21.312L258.815 24H257.457V14.438H258.815V20.794ZM265.364 23.202C265.364 23.482 265.266 23.7247 265.07 23.93C264.884 24.126 264.65 24.224 264.37 24.224C264.09 24.224 263.852 24.126 263.656 23.93C263.46 23.734 263.362 23.5007 263.362 23.23C263.362 22.95 263.46 22.712 263.656 22.516C263.852 22.32 264.086 22.222 264.356 22.222C264.636 22.222 264.874 22.3153 265.07 22.502C265.266 22.6887 265.364 22.922 265.364 23.202Z" fill="black"/>
</svg>
