<svg width="263" height="27" viewBox="0 0 263 27" fill="none" xmlns="http://www.w3.org/2000/svg">
<path d="M3.184 8.096L2.428 10H0.902L4.206 1.278H5.494L8.714 10H7.174L6.46 8.096H3.184ZM4.766 3.364L3.534 6.962H6.068L4.766 3.364ZM15.9647 8.082L17.4347 4.288H17.9247L19.4647 8.068L20.8367 4.47H22.3347L19.7587 10.112H19.0727L17.7987 6.57L16.3427 10.112H15.6427L13.1087 4.47H14.6067L15.9647 8.082ZM23.733 7.368C23.733 7.9 23.8497 8.33867 24.083 8.684C24.3164 9.02933 24.6384 9.202 25.049 9.202C25.693 9.202 26.1037 8.88467 26.281 8.25L27.569 8.46C27.149 9.608 26.309 10.182 25.049 10.182C24.209 10.182 23.537 9.916 23.033 9.384C22.5384 8.84267 22.291 8.14267 22.291 7.284C22.291 6.37867 22.529 5.65533 23.005 5.114C23.4904 4.56333 24.1437 4.288 24.965 4.288C25.7957 4.288 26.4397 4.54933 26.897 5.072C27.3637 5.58533 27.597 6.29 27.597 7.186V7.368H23.733ZM26.337 6.612C26.337 6.22933 26.2157 5.89333 25.973 5.604C25.7397 5.31467 25.4317 5.17 25.049 5.17C24.6757 5.17 24.3677 5.324 24.125 5.632C23.8917 5.93067 23.775 6.25733 23.775 6.612H26.337ZM28.3295 0.438H29.6875V4.974C30.0795 4.51667 30.6629 4.288 31.4375 4.288C32.1655 4.288 32.7675 4.57733 33.2435 5.156C33.7289 5.73467 33.9715 6.416 33.9715 7.2C33.9715 8.04933 33.7335 8.75867 33.2575 9.328C32.7815 9.89733 32.1655 10.182 31.4095 10.182C30.5975 10.182 30.0329 9.94867 29.7155 9.482L29.6875 10H28.3295V0.438ZM32.5855 7.228C32.5855 6.76133 32.4409 6.35067 32.1515 5.996C31.8622 5.64133 31.4935 5.464 31.0455 5.464C30.5975 5.464 30.2335 5.64133 29.9535 5.996C29.6735 6.34133 29.5335 6.75667 29.5335 7.242C29.5335 7.718 29.6782 8.13333 29.9675 8.488C30.2662 8.83333 30.6302 9.006 31.0595 9.006C31.5262 9.006 31.8949 8.838 32.1655 8.502C32.4455 8.15667 32.5855 7.732 32.5855 7.228ZM40.7344 4.974C41.1264 4.51667 41.7097 4.288 42.4844 4.288C43.2124 4.288 43.8144 4.57733 44.2904 5.156C44.7757 5.73467 45.0184 6.416 45.0184 7.2C45.0184 8.04933 44.7804 8.75867 44.3044 9.328C43.8284 9.89733 43.2124 10.182 42.4564 10.182C41.6444 10.182 41.0797 9.94867 40.7624 9.482L40.7344 12.338H39.3764V4.47H40.7344V4.974ZM43.6324 7.228C43.6324 6.752 43.4971 6.34133 43.2264 5.996C42.9557 5.64133 42.5824 5.464 42.1064 5.464C41.6677 5.464 41.3037 5.64133 41.0144 5.996C40.7251 6.35067 40.5804 6.76133 40.5804 7.228C40.5804 7.68533 40.7344 8.096 41.0424 8.46C41.3504 8.824 41.7051 9.006 42.1064 9.006C42.5824 9.006 42.9557 8.838 43.2264 8.502C43.4971 8.166 43.6324 7.74133 43.6324 7.228ZM47.1055 5.044C47.4508 4.54 47.9922 4.288 48.7295 4.288C48.9628 4.288 49.1775 4.33467 49.3735 4.428L49.2055 5.66C49.0002 5.52933 48.7762 5.464 48.5335 5.464C47.5815 5.464 47.1055 6.14533 47.1055 7.508V10H45.7475V4.47H47.1055V5.044ZM55.3084 7.228C55.3084 8.096 55.0424 8.80533 54.5104 9.356C53.9784 9.90667 53.2784 10.182 52.4104 10.182C51.5517 10.182 50.8517 9.90667 50.3104 9.356C49.7691 8.80533 49.4984 8.10067 49.4984 7.242C49.4984 6.374 49.7644 5.66467 50.2964 5.114C50.8284 4.56333 51.5284 4.288 52.3964 4.288C53.2644 4.288 53.9644 4.56333 54.4964 5.114C55.0377 5.65533 55.3084 6.36 55.3084 7.228ZM50.8704 7.256C50.8704 7.76933 51.0151 8.18933 51.3044 8.516C51.5937 8.84267 51.9671 9.006 52.4244 9.006C52.8817 9.006 53.2457 8.83333 53.5164 8.488C53.7964 8.13333 53.9364 7.718 53.9364 7.242C53.9364 6.75667 53.7964 6.34133 53.5164 5.996C53.2364 5.64133 52.8677 5.464 52.4104 5.464C51.9624 5.464 51.5937 5.632 51.3044 5.968C51.0151 6.304 50.8704 6.73333 50.8704 7.256ZM57.6101 12.954H56.2521V4.47H57.6101V12.954ZM57.7221 2.146C57.7221 2.36067 57.6428 2.54733 57.4841 2.706C57.3254 2.86467 57.1388 2.944 56.9241 2.944C56.7094 2.944 56.5228 2.86467 56.3641 2.706C56.2054 2.54733 56.1261 2.36067 56.1261 2.146C56.1261 1.93133 56.2054 1.74467 56.3641 1.586C56.5228 1.42733 56.7094 1.348 56.9241 1.348C57.1388 1.348 57.3254 1.42733 57.4841 1.586C57.6428 1.74467 57.7221 1.93133 57.7221 2.146ZM59.9635 7.368C59.9635 7.9 60.0802 8.33867 60.3135 8.684C60.5468 9.02933 60.8688 9.202 61.2795 9.202C61.9235 9.202 62.3342 8.88467 62.5115 8.25L63.7995 8.46C63.3795 9.608 62.5395 10.182 61.2795 10.182C60.4395 10.182 59.7675 9.916 59.2635 9.384C58.7688 8.84267 58.5215 8.14267 58.5215 7.284C58.5215 6.37867 58.7595 5.65533 59.2355 5.114C59.7208 4.56333 60.3742 4.288 61.1955 4.288C62.0262 4.288 62.6702 4.54933 63.1275 5.072C63.5942 5.58533 63.8275 6.29 63.8275 7.186V7.368H59.9635ZM62.5675 6.612C62.5675 6.22933 62.4462 5.89333 62.2035 5.604C61.9702 5.31467 61.6622 5.17 61.2795 5.17C60.9062 5.17 60.5982 5.324 60.3555 5.632C60.1222 5.93067 60.0055 6.25733 60.0055 6.612H62.5675ZM68.326 5.912C67.9807 5.56667 67.5933 5.394 67.164 5.394C66.66 5.394 66.2633 5.576 65.974 5.94C65.6847 6.304 65.54 6.752 65.54 7.284C65.54 7.80667 65.7033 8.236 66.03 8.572C66.3567 8.908 66.7533 9.076 67.22 9.076C67.6213 9.076 67.99 8.89867 68.326 8.544V9.846C67.934 10.07 67.4813 10.182 66.968 10.182C66.1653 10.182 65.498 9.89733 64.966 9.328C64.434 8.75867 64.168 8.06333 64.168 7.242C64.168 6.42067 64.4387 5.72533 64.98 5.156C65.5307 4.57733 66.2167 4.288 67.038 4.288C67.5233 4.288 67.9527 4.40467 68.326 4.638V5.912ZM70.9701 10H69.6121V5.688H68.9541V4.582H69.6121V2.594H70.9701V4.582H72.0481V5.688H70.9701V10ZM79.1698 8.082L80.6398 4.288H81.1298L82.6698 8.068L84.0418 4.47H85.5398L82.9638 10.112H82.2778L81.0038 6.57L79.5478 10.112H78.8478L76.3138 4.47H77.8118L79.1698 8.082ZM87.2461 0.438V4.932C87.6008 4.50267 88.1655 4.288 88.9401 4.288C89.5188 4.288 89.9808 4.512 90.3261 4.96C90.6715 5.408 90.8441 5.96333 90.8441 6.626V10H89.5001V7.074C89.5001 5.90733 89.1408 5.324 88.4221 5.324C87.6381 5.324 87.2461 5.968 87.2461 7.256V10H85.8881V0.438H87.2461ZM93.6381 2.146C93.6381 2.36067 93.5588 2.54733 93.4001 2.706C93.2414 2.86467 93.0548 2.944 92.8401 2.944C92.6254 2.944 92.4388 2.86467 92.2801 2.706C92.1214 2.54733 92.0421 2.36067 92.0421 2.146C92.0421 1.93133 92.1214 1.74467 92.2801 1.586C92.4388 1.42733 92.6254 1.348 92.8401 1.348C93.0548 1.348 93.2414 1.42733 93.4001 1.586C93.5588 1.74467 93.6381 1.93133 93.6381 2.146ZM93.5261 10H92.1681V4.47H93.5261V10ZM98.5955 5.912C98.2502 5.56667 97.8629 5.394 97.4335 5.394C96.9295 5.394 96.5329 5.576 96.2435 5.94C95.9542 6.304 95.8095 6.752 95.8095 7.284C95.8095 7.80667 95.9729 8.236 96.2995 8.572C96.6262 8.908 97.0229 9.076 97.4895 9.076C97.8909 9.076 98.2595 8.89867 98.5955 8.544V9.846C98.2035 10.07 97.7509 10.182 97.2375 10.182C96.4349 10.182 95.7675 9.89733 95.2355 9.328C94.7035 8.75867 94.4375 8.06333 94.4375 7.242C94.4375 6.42067 94.7082 5.72533 95.2495 5.156C95.8002 4.57733 96.4862 4.288 97.3075 4.288C97.7929 4.288 98.2222 4.40467 98.5955 4.638V5.912ZM100.932 0.438V4.932C101.286 4.50267 101.851 4.288 102.626 4.288C103.204 4.288 103.666 4.512 104.012 4.96C104.357 5.408 104.53 5.96333 104.53 6.626V10H103.186V7.074C103.186 5.90733 102.826 5.324 102.108 5.324C101.324 5.324 100.932 5.968 100.932 7.256V10H99.5737V0.438H100.932ZM113.441 7.858L115.541 1.502H117.137L113.833 10.224H112.867L109.619 1.502H111.173L113.441 7.858ZM119.191 2.146C119.191 2.36067 119.112 2.54733 118.953 2.706C118.794 2.86467 118.608 2.944 118.393 2.944C118.178 2.944 117.992 2.86467 117.833 2.706C117.674 2.54733 117.595 2.36067 117.595 2.146C117.595 1.93133 117.674 1.74467 117.833 1.586C117.992 1.42733 118.178 1.348 118.393 1.348C118.608 1.348 118.794 1.42733 118.953 1.586C119.112 1.74467 119.191 1.93133 119.191 2.146ZM119.079 10H117.721V4.47H119.079V10ZM123.336 5.618C123.038 5.338 122.725 5.198 122.398 5.198C121.904 5.198 121.656 5.422 121.656 5.87C121.656 6.122 121.88 6.32733 122.328 6.486C123.15 6.78467 123.658 7.06 123.854 7.312C124.05 7.55467 124.148 7.858 124.148 8.222C124.148 8.81933 123.938 9.29533 123.518 9.65C123.108 10.0047 122.599 10.182 121.992 10.182C121.208 10.182 120.56 9.874 120.046 9.258L120.648 8.488C121.115 8.95467 121.544 9.188 121.936 9.188C122.506 9.188 122.79 8.91267 122.79 8.362C122.79 8.082 122.641 7.87667 122.342 7.746C122.044 7.606 121.815 7.50333 121.656 7.438C120.798 7.06467 120.368 6.612 120.368 6.08C120.368 5.548 120.527 5.11867 120.844 4.792C121.171 4.456 121.596 4.288 122.118 4.288C122.865 4.288 123.458 4.47933 123.896 4.862L123.336 5.618ZM126.333 4.47V7.466C126.333 8.53933 126.707 9.076 127.453 9.076C128.2 9.076 128.573 8.53933 128.573 7.466V4.47H129.931V7.718C129.931 9.36067 129.105 10.182 127.453 10.182C125.801 10.182 124.975 9.36067 124.975 7.718V4.47H126.333ZM136.269 10H134.939V9.496C134.547 9.95333 133.963 10.182 133.189 10.182C132.414 10.182 131.793 9.88333 131.327 9.286C130.869 8.68867 130.641 7.98867 130.641 7.186C130.641 6.38333 130.874 5.702 131.341 5.142C131.817 4.57267 132.423 4.288 133.161 4.288C133.945 4.288 134.537 4.52133 134.939 4.988V4.47H136.269V10ZM135.093 7.228C135.093 6.71467 134.948 6.29467 134.659 5.968C134.369 5.632 133.996 5.464 133.539 5.464C133.091 5.464 132.722 5.62733 132.433 5.954C132.153 6.27133 132.013 6.696 132.013 7.228C132.013 7.76 132.157 8.18933 132.447 8.516C132.736 8.84267 133.109 9.006 133.567 9.006C134.024 9.006 134.393 8.84733 134.673 8.53C134.953 8.21267 135.093 7.77867 135.093 7.228ZM138.874 10H137.516V0.438H138.874V10ZM141.763 2.146C141.763 2.36067 141.684 2.54733 141.525 2.706C141.366 2.86467 141.18 2.944 140.965 2.944C140.75 2.944 140.564 2.86467 140.405 2.706C140.246 2.54733 140.167 2.36067 140.167 2.146C140.167 1.93133 140.246 1.74467 140.405 1.586C140.564 1.42733 140.75 1.348 140.965 1.348C141.18 1.348 141.366 1.42733 141.525 1.586C141.684 1.74467 141.763 1.93133 141.763 2.146ZM141.651 10H140.293V4.47H141.651V10ZM147.631 8.894V10H142.493L145.475 5.576H142.829V4.47H147.701L144.761 8.894H147.631ZM149.419 7.368C149.419 7.9 149.535 8.33867 149.769 8.684C150.002 9.02933 150.324 9.202 150.735 9.202C151.379 9.202 151.789 8.88467 151.967 8.25L153.255 8.46C152.835 9.608 151.995 10.182 150.735 10.182C149.895 10.182 149.223 9.916 148.719 9.384C148.224 8.84267 147.977 8.14267 147.977 7.284C147.977 6.37867 148.215 5.65533 148.691 5.114C149.176 4.56333 149.829 4.288 150.651 4.288C151.481 4.288 152.125 4.54933 152.583 5.072C153.049 5.58533 153.283 6.29 153.283 7.186V7.368H149.419ZM152.023 6.612C152.023 6.22933 151.901 5.89333 151.659 5.604C151.425 5.31467 151.117 5.17 150.735 5.17C150.361 5.17 150.053 5.324 149.811 5.632C149.577 5.93067 149.461 6.25733 149.461 6.612H152.023ZM156.969 5.618C156.67 5.338 156.358 5.198 156.031 5.198C155.536 5.198 155.289 5.422 155.289 5.87C155.289 6.122 155.513 6.32733 155.961 6.486C156.782 6.78467 157.291 7.06 157.487 7.312C157.683 7.55467 157.781 7.858 157.781 8.222C157.781 8.81933 157.571 9.29533 157.151 9.65C156.74 10.0047 156.232 10.182 155.625 10.182C154.841 10.182 154.192 9.874 153.679 9.258L154.281 8.488C154.748 8.95467 155.177 9.188 155.569 9.188C156.138 9.188 156.423 8.91267 156.423 8.362C156.423 8.082 156.274 7.87667 155.975 7.746C155.676 7.606 155.448 7.50333 155.289 7.438C154.43 7.06467 154.001 6.612 154.001 6.08C154.001 5.548 154.16 5.11867 154.477 4.792C154.804 4.456 155.228 4.288 155.751 4.288C156.498 4.288 157.09 4.47933 157.529 4.862L156.969 5.618ZM167.078 5.912C166.733 5.56667 166.345 5.394 165.916 5.394C165.412 5.394 165.015 5.576 164.726 5.94C164.437 6.304 164.292 6.752 164.292 7.284C164.292 7.80667 164.455 8.236 164.782 8.572C165.109 8.908 165.505 9.076 165.972 9.076C166.373 9.076 166.742 8.89867 167.078 8.544V9.846C166.686 10.07 166.233 10.182 165.72 10.182C164.917 10.182 164.25 9.89733 163.718 9.328C163.186 8.75867 162.92 8.06333 162.92 7.242C162.92 6.42067 163.191 5.72533 163.732 5.156C164.283 4.57733 164.969 4.288 165.79 4.288C166.275 4.288 166.705 4.40467 167.078 4.638V5.912ZM173.488 7.228C173.488 8.096 173.222 8.80533 172.69 9.356C172.158 9.90667 171.458 10.182 170.59 10.182C169.731 10.182 169.031 9.90667 168.49 9.356C167.949 8.80533 167.678 8.10067 167.678 7.242C167.678 6.374 167.944 5.66467 168.476 5.114C169.008 4.56333 169.708 4.288 170.576 4.288C171.444 4.288 172.144 4.56333 172.676 5.114C173.217 5.65533 173.488 6.36 173.488 7.228ZM169.05 7.256C169.05 7.76933 169.195 8.18933 169.484 8.516C169.773 8.84267 170.147 9.006 170.604 9.006C171.061 9.006 171.425 8.83333 171.696 8.488C171.976 8.13333 172.116 7.718 172.116 7.242C172.116 6.75667 171.976 6.34133 171.696 5.996C171.416 5.64133 171.047 5.464 170.59 5.464C170.142 5.464 169.773 5.632 169.484 5.968C169.195 6.304 169.05 6.73333 169.05 7.256ZM175.706 10H174.348V0.438H175.706V10ZM182.361 7.228C182.361 8.096 182.095 8.80533 181.563 9.356C181.031 9.90667 180.331 10.182 179.463 10.182C178.604 10.182 177.904 9.90667 177.363 9.356C176.822 8.80533 176.551 8.10067 176.551 7.242C176.551 6.374 176.817 5.66467 177.349 5.114C177.881 4.56333 178.581 4.288 179.449 4.288C180.317 4.288 181.017 4.56333 181.549 5.114C182.09 5.65533 182.361 6.36 182.361 7.228ZM177.923 7.256C177.923 7.76933 178.068 8.18933 178.357 8.516C178.646 8.84267 179.02 9.006 179.477 9.006C179.934 9.006 180.298 8.83333 180.569 8.488C180.849 8.13333 180.989 7.718 180.989 7.242C180.989 6.75667 180.849 6.34133 180.569 5.996C180.289 5.64133 179.92 5.464 179.463 5.464C179.015 5.464 178.646 5.632 178.357 5.968C178.068 6.304 177.923 6.73333 177.923 7.256ZM184.467 5.044C184.812 4.54 185.353 4.288 186.091 4.288C186.324 4.288 186.539 4.33467 186.735 4.428L186.567 5.66C186.361 5.52933 186.137 5.464 185.895 5.464C184.943 5.464 184.467 6.14533 184.467 7.508V10H183.109V4.47H184.467V5.044ZM190.192 5.618C189.893 5.338 189.58 5.198 189.254 5.198C188.759 5.198 188.512 5.422 188.512 5.87C188.512 6.122 188.736 6.32733 189.184 6.486C190.005 6.78467 190.514 7.06 190.71 7.312C190.906 7.55467 191.004 7.858 191.004 8.222C191.004 8.81933 190.794 9.29533 190.374 9.65C189.963 10.0047 189.454 10.182 188.848 10.182C188.064 10.182 187.415 9.874 186.902 9.258L187.504 8.488C187.97 8.95467 188.4 9.188 188.792 9.188C189.361 9.188 189.646 8.91267 189.646 8.362C189.646 8.082 189.496 7.87667 189.198 7.746C188.899 7.606 188.67 7.50333 188.512 7.438C187.653 7.06467 187.224 6.612 187.224 6.08C187.224 5.548 187.382 5.11867 187.7 4.792C188.026 4.456 188.451 4.288 188.974 4.288C189.72 4.288 190.313 4.47933 190.752 4.862L190.192 5.618ZM201.771 10H200.441V9.496C200.049 9.95333 199.465 10.182 198.691 10.182C197.916 10.182 197.295 9.88333 196.829 9.286C196.371 8.68867 196.143 7.98867 196.143 7.186C196.143 6.38333 196.376 5.702 196.843 5.142C197.319 4.57267 197.925 4.288 198.663 4.288C199.447 4.288 200.039 4.52133 200.441 4.988V4.47H201.771V10ZM200.595 7.228C200.595 6.71467 200.45 6.29467 200.161 5.968C199.871 5.632 199.498 5.464 199.041 5.464C198.593 5.464 198.224 5.62733 197.935 5.954C197.655 6.27133 197.515 6.696 197.515 7.228C197.515 7.76 197.659 8.18933 197.949 8.516C198.238 8.84267 198.611 9.006 199.069 9.006C199.526 9.006 199.895 8.84733 200.175 8.53C200.455 8.21267 200.595 7.77867 200.595 7.228ZM204.264 4.974C204.646 4.51667 205.211 4.288 205.958 4.288C207.227 4.288 207.862 5.06733 207.862 6.626V10H206.518V7.074C206.518 5.90733 206.158 5.324 205.44 5.324C204.656 5.324 204.264 5.94933 204.264 7.2V10H202.906V4.47H204.264V4.974ZM212.882 9.482C212.518 9.94867 211.944 10.182 211.16 10.182C210.376 10.182 209.75 9.88333 209.284 9.286C208.826 8.68867 208.598 7.98867 208.598 7.186C208.598 6.38333 208.831 5.702 209.298 5.142C209.774 4.57267 210.38 4.288 211.118 4.288C211.902 4.288 212.48 4.51667 212.854 4.974L212.882 0.438H214.24V10H212.882V9.482ZM213.036 7.228C213.036 6.74267 212.886 6.32733 212.588 5.982C212.289 5.63667 211.93 5.464 211.51 5.464C211.09 5.464 210.726 5.63667 210.418 5.982C210.119 6.318 209.97 6.738 209.97 7.242C209.97 7.73667 210.114 8.15667 210.404 8.502C210.702 8.838 211.076 9.006 211.524 9.006C211.972 9.006 212.336 8.84267 212.616 8.516C212.896 8.18 213.036 7.75067 213.036 7.228ZM221.087 7.368C221.087 7.9 221.203 8.33867 221.437 8.684C221.67 9.02933 221.992 9.202 222.403 9.202C223.047 9.202 223.457 8.88467 223.635 8.25L224.923 8.46C224.503 9.608 223.663 10.182 222.403 10.182C221.563 10.182 220.891 9.916 220.387 9.384C219.892 8.84267 219.645 8.14267 219.645 7.284C219.645 6.37867 219.883 5.65533 220.359 5.114C220.844 4.56333 221.497 4.288 222.319 4.288C223.149 4.288 223.793 4.54933 224.251 5.072C224.717 5.58533 224.951 6.29 224.951 7.186V7.368H221.087ZM223.691 6.612C223.691 6.22933 223.569 5.89333 223.327 5.604C223.093 5.31467 222.785 5.17 222.403 5.17C222.029 5.17 221.721 5.324 221.479 5.632C221.245 5.93067 221.129 6.25733 221.129 6.612H223.691ZM227.041 4.96C227.386 4.512 227.918 4.288 228.637 4.288C229.262 4.288 229.757 4.57733 230.121 5.156C230.476 4.57733 231.05 4.288 231.843 4.288C233.01 4.288 233.593 5.044 233.593 6.556V10H232.249V7.088C232.249 5.912 231.927 5.324 231.283 5.324C230.639 5.324 230.317 5.97733 230.317 7.284V10H228.959V7.2C228.959 5.94933 228.674 5.324 228.105 5.324C227.396 5.324 227.041 5.97733 227.041 7.284V10H225.683V4.47H227.041V4.96ZM240.166 7.228C240.166 8.096 239.9 8.80533 239.368 9.356C238.836 9.90667 238.136 10.182 237.268 10.182C236.409 10.182 235.709 9.90667 235.168 9.356C234.626 8.80533 234.356 8.10067 234.356 7.242C234.356 6.374 234.622 5.66467 235.154 5.114C235.686 4.56333 236.386 4.288 237.254 4.288C238.122 4.288 238.822 4.56333 239.354 5.114C239.895 5.65533 240.166 6.36 240.166 7.228ZM235.728 7.256C235.728 7.76933 235.872 8.18933 236.162 8.516C236.451 8.84267 236.824 9.006 237.282 9.006C237.739 9.006 238.103 8.83333 238.374 8.488C238.654 8.13333 238.794 7.718 238.794 7.242C238.794 6.75667 238.654 6.34133 238.374 5.996C238.094 5.64133 237.725 5.464 237.268 5.464C236.82 5.464 236.451 5.632 236.162 5.968C235.872 6.304 235.728 6.73333 235.728 7.256ZM242.58 10H241.222V5.688H240.564V4.582H241.222V2.594H242.58V4.582H243.658V5.688H242.58V10ZM245.669 2.146C245.669 2.36067 245.59 2.54733 245.431 2.706C245.273 2.86467 245.086 2.944 244.871 2.944C244.657 2.944 244.47 2.86467 244.311 2.706C244.153 2.54733 244.073 2.36067 244.073 2.146C244.073 1.93133 244.153 1.74467 244.311 1.586C244.47 1.42733 244.657 1.348 244.871 1.348C245.086 1.348 245.273 1.42733 245.431 1.586C245.59 1.74467 245.669 1.93133 245.669 2.146ZM245.557 10H244.199V4.47H245.557V10ZM252.293 7.228C252.293 8.096 252.027 8.80533 251.495 9.356C250.963 9.90667 250.263 10.182 249.395 10.182C248.536 10.182 247.836 9.90667 247.295 9.356C246.753 8.80533 246.483 8.10067 246.483 7.242C246.483 6.374 246.749 5.66467 247.281 5.114C247.813 4.56333 248.513 4.288 249.381 4.288C250.249 4.288 250.949 4.56333 251.481 5.114C252.022 5.65533 252.293 6.36 252.293 7.228ZM247.855 7.256C247.855 7.76933 247.999 8.18933 248.289 8.516C248.578 8.84267 248.951 9.006 249.409 9.006C249.866 9.006 250.23 8.83333 250.501 8.488C250.781 8.13333 250.921 7.718 250.921 7.242C250.921 6.75667 250.781 6.34133 250.501 5.996C250.221 5.64133 249.852 5.464 249.395 5.464C248.947 5.464 248.578 5.632 248.289 5.968C247.999 6.304 247.855 6.73333 247.855 7.256ZM254.398 4.974C254.781 4.51667 255.346 4.288 256.092 4.288C257.362 4.288 257.996 5.06733 257.996 6.626V10H256.652V7.074C256.652 5.90733 256.293 5.324 255.574 5.324C254.79 5.324 254.398 5.94933 254.398 7.2V10H253.04V4.47H254.398V4.974ZM262.078 5.618C261.78 5.338 261.467 5.198 261.14 5.198C260.646 5.198 260.398 5.422 260.398 5.87C260.398 6.122 260.622 6.32733 261.07 6.486C261.892 6.78467 262.4 7.06 262.596 7.312C262.792 7.55467 262.89 7.858 262.89 8.222C262.89 8.81933 262.68 9.29533 262.26 9.65C261.85 10.0047 261.341 10.182 260.734 10.182C259.95 10.182 259.302 9.874 258.788 9.258L259.39 8.488C259.857 8.95467 260.286 9.188 260.678 9.188C261.248 9.188 261.532 8.91267 261.532 8.362C261.532 8.082 261.383 7.87667 261.084 7.746C260.786 7.606 260.557 7.50333 260.398 7.438C259.54 7.06467 259.11 6.612 259.11 6.08C259.11 5.548 259.269 5.11867 259.586 4.792C259.913 4.456 260.338 4.288 260.86 4.288C261.607 4.288 262.2 4.47933 262.638 4.862L262.078 5.618ZM3.226 16.146C3.226 16.3607 3.14667 16.5473 2.988 16.706C2.82933 16.8647 2.64267 16.944 2.428 16.944C2.21333 16.944 2.02667 16.8647 1.868 16.706C1.70933 16.5473 1.63 16.3607 1.63 16.146C1.63 15.9313 1.70933 15.7447 1.868 15.586C2.02667 15.4273 2.21333 15.348 2.428 15.348C2.64267 15.348 2.82933 15.4273 2.988 15.586C3.14667 15.7447 3.226 15.9313 3.226 16.146ZM3.114 24H1.756V18.47H3.114V24ZM5.77542 18.974C6.15809 18.5167 6.72276 18.288 7.46942 18.288C8.73876 18.288 9.37342 19.0673 9.37342 20.626V24H8.02942V21.074C8.02942 19.9073 7.67009 19.324 6.95142 19.324C6.16742 19.324 5.77542 19.9493 5.77542 21.2V24H4.41742V18.47H5.77542V18.974ZM20.9032 17.532C20.4085 16.9347 19.7879 16.636 19.0412 16.636C18.2665 16.636 17.6179 16.958 17.0952 17.602C16.5725 18.2367 16.3112 18.9647 16.3112 19.786C16.3112 20.5793 16.5679 21.2933 17.0812 21.928C17.6039 22.5533 18.2525 22.866 19.0272 22.866C19.7645 22.866 20.3899 22.5673 20.9032 21.97V23.72C20.2125 24.056 19.5732 24.224 18.9852 24.224C17.8092 24.224 16.8199 23.79 16.0172 22.922C15.2145 22.054 14.8132 21.018 14.8132 19.814C14.8132 18.5633 15.2145 17.4947 16.0172 16.608C16.8199 15.7213 17.8185 15.278 19.0132 15.278C19.6385 15.278 20.2685 15.4413 20.9032 15.768V17.532ZM23.3164 14.438V18.932C23.6711 18.5027 24.2358 18.288 25.0104 18.288C25.5891 18.288 26.0511 18.512 26.3964 18.96C26.7418 19.408 26.9144 19.9633 26.9144 20.626V24H25.5704V21.074C25.5704 19.9073 25.2111 19.324 24.4924 19.324C23.7084 19.324 23.3164 19.968 23.3164 21.256V24H21.9584V14.438H23.3164ZM29.7084 16.146C29.7084 16.3607 29.6291 16.5473 29.4704 16.706C29.3118 16.8647 29.1251 16.944 28.9104 16.944C28.6958 16.944 28.5091 16.8647 28.3504 16.706C28.1918 16.5473 28.1124 16.3607 28.1124 16.146C28.1124 15.9313 28.1918 15.7447 28.3504 15.586C28.5091 15.4273 28.6958 15.348 28.9104 15.348C29.1251 15.348 29.3118 15.4273 29.4704 15.586C29.6291 15.7447 29.7084 15.9313 29.7084 16.146ZM29.5964 24H28.2384V18.47H29.5964V24ZM32.2578 18.974C32.6405 18.5167 33.2052 18.288 33.9518 18.288C35.2212 18.288 35.8558 19.0673 35.8558 20.626V24H34.5118V21.074C34.5118 19.9073 34.1525 19.324 33.4338 19.324C32.6498 19.324 32.2578 19.9493 32.2578 21.2V24H30.8998V18.47H32.2578V18.974ZM38.0338 21.368C38.0338 21.9 38.1505 22.3387 38.3838 22.684C38.6172 23.0293 38.9392 23.202 39.3498 23.202C39.9938 23.202 40.4045 22.8847 40.5818 22.25L41.8698 22.46C41.4498 23.608 40.6098 24.182 39.3498 24.182C38.5098 24.182 37.8378 23.916 37.3338 23.384C36.8392 22.8427 36.5918 22.1427 36.5918 21.284C36.5918 20.3787 36.8298 19.6553 37.3058 19.114C37.7912 18.5633 38.4445 18.288 39.2658 18.288C40.0965 18.288 40.7405 18.5493 41.1978 19.072C41.6645 19.5853 41.8978 20.29 41.8978 21.186V21.368H38.0338ZM40.6378 20.612C40.6378 20.2293 40.5165 19.8933 40.2738 19.604C40.0405 19.3147 39.7325 19.17 39.3498 19.17C38.9765 19.17 38.6685 19.324 38.4258 19.632C38.1925 19.9307 38.0758 20.2573 38.0758 20.612H40.6378ZM45.5843 19.618C45.2856 19.338 44.973 19.198 44.6463 19.198C44.1516 19.198 43.9043 19.422 43.9043 19.87C43.9043 20.122 44.1283 20.3273 44.5763 20.486C45.3976 20.7847 45.9063 21.06 46.1023 21.312C46.2983 21.5547 46.3963 21.858 46.3963 22.222C46.3963 22.8193 46.1863 23.2953 45.7663 23.65C45.3556 24.0047 44.847 24.182 44.2403 24.182C43.4563 24.182 42.8076 23.874 42.2943 23.258L42.8963 22.488C43.363 22.9547 43.7923 23.188 44.1843 23.188C44.7536 23.188 45.0383 22.9127 45.0383 22.362C45.0383 22.082 44.889 21.8767 44.5903 21.746C44.2916 21.606 44.063 21.5033 43.9043 21.438C43.0456 21.0647 42.6163 20.612 42.6163 20.08C42.6163 19.548 42.775 19.1187 43.0923 18.792C43.419 18.456 43.8436 18.288 44.3663 18.288C45.113 18.288 45.7056 18.4793 46.1443 18.862L45.5843 19.618ZM48.3014 21.368C48.3014 21.9 48.4181 22.3387 48.6514 22.684C48.8847 23.0293 49.2067 23.202 49.6174 23.202C50.2614 23.202 50.6721 22.8847 50.8494 22.25L52.1374 22.46C51.7174 23.608 50.8774 24.182 49.6174 24.182C48.7774 24.182 48.1054 23.916 47.6014 23.384C47.1067 22.8427 46.8594 22.1427 46.8594 21.284C46.8594 20.3787 47.0974 19.6553 47.5734 19.114C48.0587 18.5633 48.7121 18.288 49.5334 18.288C50.3641 18.288 51.0081 18.5493 51.4654 19.072C51.9321 19.5853 52.1654 20.29 52.1654 21.186V21.368H48.3014ZM50.9054 20.612C50.9054 20.2293 50.7841 19.8933 50.5414 19.604C50.3081 19.3147 50.0001 19.17 49.6174 19.17C49.2441 19.17 48.9361 19.324 48.6934 19.632C48.4601 19.9307 48.3434 20.2573 48.3434 20.612H50.9054ZM58.9317 18.974C59.3237 18.5167 59.907 18.288 60.6817 18.288C61.4097 18.288 62.0117 18.5773 62.4877 19.156C62.973 19.7347 63.2157 20.416 63.2157 21.2C63.2157 22.0493 62.9777 22.7587 62.5017 23.328C62.0257 23.8973 61.4097 24.182 60.6537 24.182C59.8417 24.182 59.277 23.9487 58.9597 23.482L58.9317 26.338H57.5737V18.47H58.9317V18.974ZM61.8297 21.228C61.8297 20.752 61.6943 20.3413 61.4237 19.996C61.153 19.6413 60.7797 19.464 60.3037 19.464C59.865 19.464 59.501 19.6413 59.2117 19.996C58.9223 20.3507 58.7777 20.7613 58.7777 21.228C58.7777 21.6853 58.9317 22.096 59.2397 22.46C59.5477 22.824 59.9023 23.006 60.3037 23.006C60.7797 23.006 61.153 22.838 61.4237 22.502C61.6943 22.166 61.8297 21.7413 61.8297 21.228ZM69.3768 21.228C69.3768 22.096 69.1108 22.8053 68.5788 23.356C68.0468 23.9067 67.3468 24.182 66.4788 24.182C65.6201 24.182 64.9201 23.9067 64.3788 23.356C63.8374 22.8053 63.5668 22.1007 63.5668 21.242C63.5668 20.374 63.8328 19.6647 64.3648 19.114C64.8968 18.5633 65.5968 18.288 66.4648 18.288C67.3328 18.288 68.0328 18.5633 68.5648 19.114C69.1061 19.6553 69.3768 20.36 69.3768 21.228ZM64.9388 21.256C64.9388 21.7693 65.0834 22.1893 65.3728 22.516C65.6621 22.8427 66.0354 23.006 66.4928 23.006C66.9501 23.006 67.3141 22.8333 67.5848 22.488C67.8648 22.1333 68.0048 21.718 68.0048 21.242C68.0048 20.7567 67.8648 20.3413 67.5848 19.996C67.3048 19.6413 66.9361 19.464 66.4788 19.464C66.0308 19.464 65.6621 19.632 65.3728 19.968C65.0834 20.304 64.9388 20.7333 64.9388 21.256ZM71.1745 21.368C71.1745 21.9 71.2911 22.3387 71.5245 22.684C71.7578 23.0293 72.0798 23.202 72.4905 23.202C73.1345 23.202 73.5451 22.8847 73.7225 22.25L75.0105 22.46C74.5905 23.608 73.7505 24.182 72.4905 24.182C71.6505 24.182 70.9785 23.916 70.4745 23.384C69.9798 22.8427 69.7325 22.1427 69.7325 21.284C69.7325 20.3787 69.9705 19.6553 70.4465 19.114C70.9318 18.5633 71.5851 18.288 72.4065 18.288C73.2371 18.288 73.8811 18.5493 74.3385 19.072C74.8051 19.5853 75.0385 20.29 75.0385 21.186V21.368H71.1745ZM73.7785 20.612C73.7785 20.2293 73.6571 19.8933 73.4145 19.604C73.1811 19.3147 72.8731 19.17 72.4905 19.17C72.1171 19.17 71.8091 19.324 71.5665 19.632C71.3331 19.9307 71.2165 20.2573 71.2165 20.612H73.7785ZM77.4369 24H76.0789V19.688H75.4209V18.582H76.0789V16.594H77.4369V18.582H78.5149V19.688H77.4369V24ZM80.2188 19.044C80.5641 18.54 81.1054 18.288 81.8428 18.288C82.0761 18.288 82.2908 18.3347 82.4868 18.428L82.3188 19.66C82.1134 19.5293 81.8894 19.464 81.6468 19.464C80.6948 19.464 80.2188 20.1453 80.2188 21.508V24H78.8608V18.47H80.2188V19.044ZM84.6557 16.146C84.6557 16.3607 84.5764 16.5473 84.4177 16.706C84.259 16.8647 84.0724 16.944 83.8577 16.944C83.643 16.944 83.4564 16.8647 83.2977 16.706C83.139 16.5473 83.0597 16.3607 83.0597 16.146C83.0597 15.9313 83.139 15.7447 83.2977 15.586C83.4564 15.4273 83.643 15.348 83.8577 15.348C84.0724 15.348 84.259 15.4273 84.4177 15.586C84.5764 15.7447 84.6557 15.9313 84.6557 16.146ZM84.5437 24H83.1857V18.47H84.5437V24ZM86.8971 21.368C86.8971 21.9 87.0138 22.3387 87.2471 22.684C87.4804 23.0293 87.8024 23.202 88.2131 23.202C88.8571 23.202 89.2678 22.8847 89.4451 22.25L90.7331 22.46C90.3131 23.608 89.4731 24.182 88.2131 24.182C87.3731 24.182 86.7011 23.916 86.1971 23.384C85.7024 22.8427 85.4551 22.1427 85.4551 21.284C85.4551 20.3787 85.6931 19.6553 86.1691 19.114C86.6544 18.5633 87.3078 18.288 88.1291 18.288C88.9598 18.288 89.6038 18.5493 90.0611 19.072C90.5278 19.5853 90.7611 20.29 90.7611 21.186V21.368H86.8971ZM89.5011 20.612C89.5011 20.2293 89.3798 19.8933 89.1371 19.604C88.9038 19.3147 88.5958 19.17 88.2131 19.17C87.8398 19.17 87.5318 19.324 87.2891 19.632C87.0558 19.9307 86.9391 20.2573 86.9391 20.612H89.5011ZM94.4476 19.618C94.1489 19.338 93.8363 19.198 93.5096 19.198C93.0149 19.198 92.7676 19.422 92.7676 19.87C92.7676 20.122 92.9916 20.3273 93.4396 20.486C94.2609 20.7847 94.7696 21.06 94.9656 21.312C95.1616 21.5547 95.2596 21.858 95.2596 22.222C95.2596 22.8193 95.0496 23.2953 94.6296 23.65C94.2189 24.0047 93.7103 24.182 93.1036 24.182C92.3196 24.182 91.6709 23.874 91.1576 23.258L91.7596 22.488C92.2263 22.9547 92.6556 23.188 93.0476 23.188C93.6169 23.188 93.9016 22.9127 93.9016 22.362C93.9016 22.082 93.7523 21.8767 93.4536 21.746C93.1549 21.606 92.9263 21.5033 92.7676 21.438C91.9089 21.0647 91.4796 20.612 91.4796 20.08C91.4796 19.548 91.6383 19.1187 91.9556 18.792C92.2823 18.456 92.7069 18.288 93.2296 18.288C93.9763 18.288 94.5689 18.4793 95.0076 18.862L94.4476 19.618ZM98.1867 23.202C98.1867 23.482 98.0887 23.7247 97.8927 23.93C97.706 24.126 97.4727 24.224 97.1927 24.224C96.9127 24.224 96.6747 24.126 96.4787 23.93C96.2827 23.734 96.1847 23.5007 96.1847 23.23C96.1847 22.95 96.2827 22.712 96.4787 22.516C96.6747 22.32 96.908 22.222 97.1787 22.222C97.4587 22.222 97.6967 22.3153 97.8927 22.502C98.0887 22.6887 98.1867 22.922 98.1867 23.202Z" fill="black"/>
</svg>
