<svg width="264" height="13" viewBox="0 0 264 13" fill="none" xmlns="http://www.w3.org/2000/svg">
<path d="M2.43986 8.096L1.68386 10H0.157859L3.46186 1.278H4.74986L7.96986 10H6.42986L5.71586 8.096H2.43986ZM4.02186 3.364L2.78986 6.962H5.32386L4.02186 3.364ZM9.80277 4.974C10.1854 4.51667 10.7501 4.288 11.4968 4.288C12.7661 4.288 13.4008 5.06733 13.4008 6.626V10H12.0568V7.074C12.0568 5.90733 11.6974 5.324 10.9788 5.324C10.1948 5.324 9.80277 5.94933 9.80277 7.2V10H8.44477V4.47H9.80277V4.974ZM20.8285 8.096L20.0725 10H18.5465L21.8505 1.278H23.1385L26.3585 10H24.8185L24.1045 8.096H20.8285ZM22.4105 3.364L21.1785 6.962H23.7125L22.4105 3.364ZM32.5174 10H30.7394L28.3314 6.22L28.3174 10H26.8754V1.502H29.1294C31.0241 1.502 31.9714 2.356 31.9714 4.064C31.9714 4.708 31.8034 5.24467 31.4674 5.674C31.1408 6.10333 30.6928 6.35067 30.1234 6.416L32.5174 10ZM28.3174 5.632H28.7514C29.9368 5.632 30.5294 5.12333 30.5294 4.106C30.5294 3.126 29.9414 2.636 28.7654 2.636H28.3174V5.632ZM41.6903 9.482C41.3263 9.94867 40.7523 10.182 39.9683 10.182C39.1843 10.182 38.5589 9.88333 38.0923 9.286C37.6349 8.68867 37.4063 7.98867 37.4063 7.186C37.4063 6.38333 37.6396 5.702 38.1063 5.142C38.5823 4.57267 39.1889 4.288 39.9263 4.288C40.7103 4.288 41.2889 4.51667 41.6623 4.974L41.6903 0.438H43.0483V10H41.6903V9.482ZM41.8443 7.228C41.8443 6.74267 41.6949 6.32733 41.3963 5.982C41.0976 5.63667 40.7383 5.464 40.3183 5.464C39.8983 5.464 39.5343 5.63667 39.2263 5.982C38.9276 6.318 38.7783 6.738 38.7783 7.242C38.7783 7.73667 38.9229 8.15667 39.2123 8.502C39.5109 8.838 39.8843 9.006 40.3323 9.006C40.7803 9.006 41.1443 8.84267 41.4243 8.516C41.7043 8.18 41.8443 7.75067 41.8443 7.228ZM49.6014 7.228C49.6014 8.096 49.3354 8.80533 48.8034 9.356C48.2714 9.90667 47.5714 10.182 46.7034 10.182C45.8447 10.182 45.1447 9.90667 44.6034 9.356C44.062 8.80533 43.7914 8.10067 43.7914 7.242C43.7914 6.374 44.0574 5.66467 44.5894 5.114C45.1214 4.56333 45.8214 4.288 46.6894 4.288C47.5574 4.288 48.2574 4.56333 48.7894 5.114C49.3307 5.65533 49.6014 6.36 49.6014 7.228ZM45.1634 7.256C45.1634 7.76933 45.308 8.18933 45.5974 8.516C45.8867 8.84267 46.26 9.006 46.7174 9.006C47.1747 9.006 47.5387 8.83333 47.8094 8.488C48.0894 8.13333 48.2294 7.718 48.2294 7.242C48.2294 6.75667 48.0894 6.34133 47.8094 5.996C47.5294 5.64133 47.1607 5.464 46.7034 5.464C46.2554 5.464 45.8867 5.632 45.5974 5.968C45.308 6.304 45.1634 6.73333 45.1634 7.256ZM55.7811 7.228C55.7811 8.096 55.5151 8.80533 54.9831 9.356C54.4511 9.90667 53.7511 10.182 52.8831 10.182C52.0244 10.182 51.3244 9.90667 50.7831 9.356C50.2417 8.80533 49.9711 8.10067 49.9711 7.242C49.9711 6.374 50.2371 5.66467 50.7691 5.114C51.3011 4.56333 52.0011 4.288 52.8691 4.288C53.7371 4.288 54.4371 4.56333 54.9691 5.114C55.5104 5.65533 55.7811 6.36 55.7811 7.228ZM51.3431 7.256C51.3431 7.76933 51.4877 8.18933 51.7771 8.516C52.0664 8.84267 52.4397 9.006 52.8971 9.006C53.3544 9.006 53.7184 8.83333 53.9891 8.488C54.2691 8.13333 54.4091 7.718 54.4091 7.242C54.4091 6.75667 54.2691 6.34133 53.9891 5.996C53.7091 5.64133 53.3404 5.464 52.8831 5.464C52.4351 5.464 52.0664 5.632 51.7771 5.968C51.4877 6.304 51.3431 6.73333 51.3431 7.256ZM60.4208 9.482C60.0568 9.94867 59.4828 10.182 58.6988 10.182C57.9148 10.182 57.2894 9.88333 56.8228 9.286C56.3654 8.68867 56.1368 7.98867 56.1368 7.186C56.1368 6.38333 56.3701 5.702 56.8368 5.142C57.3128 4.57267 57.9194 4.288 58.6568 4.288C59.4408 4.288 60.0194 4.51667 60.3928 4.974L60.4208 0.438H61.7788V10H60.4208V9.482ZM60.5748 7.228C60.5748 6.74267 60.4254 6.32733 60.1268 5.982C59.8281 5.63667 59.4688 5.464 59.0488 5.464C58.6288 5.464 58.2648 5.63667 57.9568 5.982C57.6581 6.318 57.5088 6.738 57.5088 7.242C57.5088 7.73667 57.6534 8.15667 57.9428 8.502C58.2414 8.838 58.6148 9.006 59.0628 9.006C59.5108 9.006 59.8748 8.84267 60.1548 8.516C60.4348 8.18 60.5748 7.75067 60.5748 7.228ZM64.3698 10H63.0118V0.438H64.3698V10ZM67.2592 2.146C67.2592 2.36067 67.1799 2.54733 67.0212 2.706C66.8625 2.86467 66.6759 2.944 66.4612 2.944C66.2465 2.944 66.0599 2.86467 65.9012 2.706C65.7425 2.54733 65.6632 2.36067 65.6632 2.146C65.6632 1.93133 65.7425 1.74467 65.9012 1.586C66.0599 1.42733 66.2465 1.348 66.4612 1.348C66.6759 1.348 66.8625 1.42733 67.0212 1.586C67.1799 1.74467 67.2592 1.93133 67.2592 2.146ZM67.1472 10H65.7892V4.47H67.1472V10ZM69.8086 4.974C70.1913 4.51667 70.756 4.288 71.5026 4.288C72.772 4.288 73.4066 5.06733 73.4066 6.626V10H72.0626V7.074C72.0626 5.90733 71.7033 5.324 70.9846 5.324C70.2006 5.324 69.8086 5.94933 69.8086 7.2V10H68.4506V4.47H69.8086V4.974ZM79.7986 9.524C79.7986 11.4187 78.9166 12.366 77.1526 12.366C76.3686 12.366 75.7059 12.1513 75.1646 11.722C74.6233 11.302 74.3526 10.7513 74.3526 10.07H75.7946C75.7946 10.3407 75.9299 10.6067 76.2006 10.868C76.4713 11.1293 76.7746 11.26 77.1106 11.26C77.9973 11.26 78.4406 10.728 78.4406 9.664V9.314C78.0579 9.79933 77.4746 10.042 76.6906 10.042C75.9159 10.042 75.3046 9.77133 74.8566 9.23C74.4179 8.68867 74.1986 8.026 74.1986 7.242C74.1986 6.39267 74.4366 5.68333 74.9126 5.114C75.3886 4.54467 76.0046 4.26 76.7606 4.26C77.5259 4.26 78.0859 4.498 78.4406 4.974V4.442H79.7986V9.524ZM78.6366 7.116C78.6366 6.612 78.4966 6.206 78.2166 5.898C77.9366 5.59 77.5679 5.436 77.1106 5.436C76.6533 5.436 76.2799 5.604 75.9906 5.94C75.7106 6.276 75.5706 6.70067 75.5706 7.214C75.5706 8.31533 76.0839 8.866 77.1106 8.866C77.5773 8.866 77.9459 8.70267 78.2166 8.376C78.4966 8.04 78.6366 7.62 78.6366 7.116ZM90.7765 10H89.4465V9.496C89.0545 9.95333 88.4711 10.182 87.6965 10.182C86.9218 10.182 86.3011 9.88333 85.8345 9.286C85.3771 8.68867 85.1485 7.98867 85.1485 7.186C85.1485 6.38333 85.3818 5.702 85.8485 5.142C86.3245 4.57267 86.9311 4.288 87.6685 4.288C88.4525 4.288 89.0451 4.52133 89.4465 4.988V4.47H90.7765V10ZM89.6005 7.228C89.6005 6.71467 89.4558 6.29467 89.1665 5.968C88.8771 5.632 88.5038 5.464 88.0465 5.464C87.5985 5.464 87.2298 5.62733 86.9405 5.954C86.6605 6.27133 86.5205 6.696 86.5205 7.228C86.5205 7.76 86.6651 8.18933 86.9545 8.516C87.2438 8.84267 87.6171 9.006 88.0745 9.006C88.5318 9.006 88.9005 8.84733 89.1805 8.53C89.4605 8.21267 89.6005 7.77867 89.6005 7.228ZM93.2696 4.974C93.6616 4.51667 94.2449 4.288 95.0196 4.288C95.7476 4.288 96.3496 4.57733 96.8256 5.156C97.3109 5.73467 97.5536 6.416 97.5536 7.2C97.5536 8.04933 97.3156 8.75867 96.8396 9.328C96.3636 9.89733 95.7476 10.182 94.9916 10.182C94.1796 10.182 93.6149 9.94867 93.2976 9.482L93.2696 12.338H91.9116V4.47H93.2696V4.974ZM96.1676 7.228C96.1676 6.752 96.0322 6.34133 95.7616 5.996C95.4909 5.64133 95.1176 5.464 94.6416 5.464C94.2029 5.464 93.8389 5.64133 93.5496 5.996C93.2602 6.35067 93.1156 6.76133 93.1156 7.228C93.1156 7.68533 93.2696 8.096 93.5776 8.46C93.8856 8.824 94.2402 9.006 94.6416 9.006C95.1176 9.006 95.4909 8.838 95.7616 8.502C96.0322 8.166 96.1676 7.74133 96.1676 7.228ZM99.6407 4.974C100.033 4.51667 100.616 4.288 101.391 4.288C102.119 4.288 102.721 4.57733 103.197 5.156C103.682 5.73467 103.925 6.416 103.925 7.2C103.925 8.04933 103.687 8.75867 103.211 9.328C102.735 9.89733 102.119 10.182 101.363 10.182C100.551 10.182 99.986 9.94867 99.6687 9.482L99.6407 12.338H98.2827V4.47H99.6407V4.974ZM102.539 7.228C102.539 6.752 102.403 6.34133 102.133 5.996C101.862 5.64133 101.489 5.464 101.013 5.464C100.574 5.464 100.21 5.64133 99.9207 5.996C99.6313 6.35067 99.4867 6.76133 99.4867 7.228C99.4867 7.68533 99.6407 8.096 99.9487 8.46C100.257 8.824 100.611 9.006 101.013 9.006C101.489 9.006 101.862 8.838 102.133 8.502C102.403 8.166 102.539 7.74133 102.539 7.228ZM111.43 8.082L112.9 4.288H113.39L114.93 8.068L116.302 4.47H117.8L115.224 10.112H114.538L113.264 6.57L111.808 10.112H111.108L108.574 4.47H110.072L111.43 8.082ZM119.814 2.146C119.814 2.36067 119.735 2.54733 119.576 2.706C119.417 2.86467 119.231 2.944 119.016 2.944C118.801 2.944 118.615 2.86467 118.456 2.706C118.297 2.54733 118.218 2.36067 118.218 2.146C118.218 1.93133 118.297 1.74467 118.456 1.586C118.615 1.42733 118.801 1.348 119.016 1.348C119.231 1.348 119.417 1.42733 119.576 1.586C119.735 1.74467 119.814 1.93133 119.814 2.146ZM119.702 10H118.344V4.47H119.702V10ZM122.671 10H121.313V5.688H120.655V4.582H121.313V2.594H122.671V4.582H123.749V5.688H122.671V10ZM125.453 0.438V4.932C125.808 4.50267 126.372 4.288 127.147 4.288C127.726 4.288 128.188 4.512 128.533 4.96C128.878 5.408 129.051 5.96333 129.051 6.626V10H127.707V7.074C127.707 5.90733 127.348 5.324 126.629 5.324C125.845 5.324 125.453 5.968 125.453 7.256V10H124.095V0.438H125.453ZM137.809 5.618C137.51 5.338 137.198 5.198 136.871 5.198C136.376 5.198 136.129 5.422 136.129 5.87C136.129 6.122 136.353 6.32733 136.801 6.486C137.622 6.78467 138.131 7.06 138.327 7.312C138.523 7.55467 138.621 7.858 138.621 8.222C138.621 8.81933 138.411 9.29533 137.991 9.65C137.58 10.0047 137.072 10.182 136.465 10.182C135.681 10.182 135.032 9.874 134.519 9.258L135.121 8.488C135.588 8.95467 136.017 9.188 136.409 9.188C136.978 9.188 137.263 8.91267 137.263 8.362C137.263 8.082 137.114 7.87667 136.815 7.746C136.516 7.606 136.288 7.50333 136.129 7.438C135.27 7.06467 134.841 6.612 134.841 6.08C134.841 5.548 135 5.11867 135.317 4.792C135.644 4.456 136.068 4.288 136.591 4.288C137.338 4.288 137.93 4.47933 138.369 4.862L137.809 5.618ZM144.908 7.228C144.908 8.096 144.642 8.80533 144.11 9.356C143.578 9.90667 142.878 10.182 142.01 10.182C141.151 10.182 140.451 9.90667 139.91 9.356C139.369 8.80533 139.098 8.10067 139.098 7.242C139.098 6.374 139.364 5.66467 139.896 5.114C140.428 4.56333 141.128 4.288 141.996 4.288C142.864 4.288 143.564 4.56333 144.096 5.114C144.637 5.65533 144.908 6.36 144.908 7.228ZM140.47 7.256C140.47 7.76933 140.615 8.18933 140.904 8.516C141.193 8.84267 141.567 9.006 142.024 9.006C142.481 9.006 142.845 8.83333 143.116 8.488C143.396 8.13333 143.536 7.718 143.536 7.242C143.536 6.75667 143.396 6.34133 143.116 5.996C142.836 5.64133 142.467 5.464 142.01 5.464C141.562 5.464 141.193 5.632 140.904 5.968C140.615 6.304 140.47 6.73333 140.47 7.256ZM149.422 5.912C149.076 5.56667 148.689 5.394 148.26 5.394C147.756 5.394 147.359 5.576 147.07 5.94C146.78 6.304 146.636 6.752 146.636 7.284C146.636 7.80667 146.799 8.236 147.126 8.572C147.452 8.908 147.849 9.076 148.316 9.076C148.717 9.076 149.086 8.89867 149.422 8.544V9.846C149.03 10.07 148.577 10.182 148.064 10.182C147.261 10.182 146.594 9.89733 146.062 9.328C145.53 8.75867 145.264 8.06333 145.264 7.242C145.264 6.42067 145.534 5.72533 146.076 5.156C146.626 4.57733 147.312 4.288 148.134 4.288C148.619 4.288 149.048 4.40467 149.422 4.638V5.912ZM152.066 2.146C152.066 2.36067 151.987 2.54733 151.828 2.706C151.669 2.86467 151.483 2.944 151.268 2.944C151.053 2.944 150.867 2.86467 150.708 2.706C150.549 2.54733 150.47 2.36067 150.47 2.146C150.47 1.93133 150.549 1.74467 150.708 1.586C150.867 1.42733 151.053 1.348 151.268 1.348C151.483 1.348 151.669 1.42733 151.828 1.586C151.987 1.74467 152.066 1.93133 152.066 2.146ZM151.954 10H150.596V4.47H151.954V10ZM158.493 10H157.163V9.496C156.771 9.95333 156.188 10.182 155.413 10.182C154.639 10.182 154.018 9.88333 153.551 9.286C153.094 8.68867 152.865 7.98867 152.865 7.186C152.865 6.38333 153.099 5.702 153.565 5.142C154.041 4.57267 154.648 4.288 155.385 4.288C156.169 4.288 156.762 4.52133 157.163 4.988V4.47H158.493V10ZM157.317 7.228C157.317 6.71467 157.173 6.29467 156.883 5.968C156.594 5.632 156.221 5.464 155.763 5.464C155.315 5.464 154.947 5.62733 154.657 5.954C154.377 6.27133 154.237 6.696 154.237 7.228C154.237 7.76 154.382 8.18933 154.671 8.516C154.961 8.84267 155.334 9.006 155.791 9.006C156.249 9.006 156.617 8.84733 156.897 8.53C157.177 8.21267 157.317 7.77867 157.317 7.228ZM161.098 10H159.74V0.438H161.098V10ZM168.664 2.146C168.664 2.36067 168.584 2.54733 168.426 2.706C168.267 2.86467 168.08 2.944 167.866 2.944C167.651 2.944 167.464 2.86467 167.306 2.706C167.147 2.54733 167.068 2.36067 167.068 2.146C167.068 1.93133 167.147 1.74467 167.306 1.586C167.464 1.42733 167.651 1.348 167.866 1.348C168.08 1.348 168.267 1.42733 168.426 1.586C168.584 1.74467 168.664 1.93133 168.664 2.146ZM168.552 10H167.194V4.47H168.552V10ZM171.213 4.974C171.596 4.51667 172.16 4.288 172.907 4.288C174.176 4.288 174.811 5.06733 174.811 6.626V10H173.467V7.074C173.467 5.90733 173.108 5.324 172.389 5.324C171.605 5.324 171.213 5.94933 171.213 7.2V10H169.855V4.47H171.213V4.974ZM177.605 10H176.247V5.688H175.589V4.582H176.247V2.594H177.605V4.582H178.683V5.688H177.605V10ZM180.079 7.368C180.079 7.9 180.195 8.33867 180.429 8.684C180.662 9.02933 180.984 9.202 181.395 9.202C182.039 9.202 182.449 8.88467 182.627 8.25L183.915 8.46C183.495 9.608 182.655 10.182 181.395 10.182C180.555 10.182 179.883 9.916 179.379 9.384C178.884 8.84267 178.637 8.14267 178.637 7.284C178.637 6.37867 178.875 5.65533 179.351 5.114C179.836 4.56333 180.489 4.288 181.311 4.288C182.141 4.288 182.785 4.54933 183.243 5.072C183.709 5.58533 183.943 6.29 183.943 7.186V7.368H180.079ZM182.683 6.612C182.683 6.22933 182.561 5.89333 182.319 5.604C182.085 5.31467 181.777 5.17 181.395 5.17C181.021 5.17 180.713 5.324 180.471 5.632C180.237 5.93067 180.121 6.25733 180.121 6.612H182.683ZM186.033 5.044C186.379 4.54 186.92 4.288 187.657 4.288C187.891 4.288 188.105 4.33467 188.301 4.428L188.133 5.66C187.928 5.52933 187.704 5.464 187.461 5.464C186.509 5.464 186.033 6.14533 186.033 7.508V10H184.675V4.47H186.033V5.044ZM194.04 10H192.71V9.496C192.318 9.95333 191.735 10.182 190.96 10.182C190.185 10.182 189.565 9.88333 189.098 9.286C188.641 8.68867 188.412 7.98867 188.412 7.186C188.412 6.38333 188.645 5.702 189.112 5.142C189.588 4.57267 190.195 4.288 190.932 4.288C191.716 4.288 192.309 4.52133 192.71 4.988V4.47H194.04V10ZM192.864 7.228C192.864 6.71467 192.719 6.29467 192.43 5.968C192.141 5.632 191.767 5.464 191.31 5.464C190.862 5.464 190.493 5.62733 190.204 5.954C189.924 6.27133 189.784 6.696 189.784 7.228C189.784 7.76 189.929 8.18933 190.218 8.516C190.507 8.84267 190.881 9.006 191.338 9.006C191.795 9.006 192.164 8.84733 192.444 8.53C192.724 8.21267 192.864 7.77867 192.864 7.228ZM198.941 5.912C198.596 5.56667 198.209 5.394 197.779 5.394C197.275 5.394 196.879 5.576 196.589 5.94C196.3 6.304 196.155 6.752 196.155 7.284C196.155 7.80667 196.319 8.236 196.645 8.572C196.972 8.908 197.369 9.076 197.835 9.076C198.237 9.076 198.605 8.89867 198.941 8.544V9.846C198.549 10.07 198.097 10.182 197.583 10.182C196.781 10.182 196.113 9.89733 195.581 9.328C195.049 8.75867 194.783 8.06333 194.783 7.242C194.783 6.42067 195.054 5.72533 195.595 5.156C196.146 4.57733 196.832 4.288 197.653 4.288C198.139 4.288 198.568 4.40467 198.941 4.638V5.912ZM201.585 10H200.227V5.688H199.569V4.582H200.227V2.594H201.585V4.582H202.663V5.688H201.585V10ZM204.675 2.146C204.675 2.36067 204.596 2.54733 204.437 2.706C204.279 2.86467 204.092 2.944 203.877 2.944C203.663 2.944 203.476 2.86467 203.317 2.706C203.159 2.54733 203.079 2.36067 203.079 2.146C203.079 1.93133 203.159 1.74467 203.317 1.586C203.476 1.42733 203.663 1.348 203.877 1.348C204.092 1.348 204.279 1.42733 204.437 1.586C204.596 1.74467 204.675 1.93133 204.675 2.146ZM204.563 10H203.205V4.47H204.563V10ZM211.299 7.228C211.299 8.096 211.033 8.80533 210.501 9.356C209.969 9.90667 209.269 10.182 208.401 10.182C207.542 10.182 206.842 9.90667 206.301 9.356C205.759 8.80533 205.489 8.10067 205.489 7.242C205.489 6.374 205.755 5.66467 206.287 5.114C206.819 4.56333 207.519 4.288 208.387 4.288C209.255 4.288 209.955 4.56333 210.487 5.114C211.028 5.65533 211.299 6.36 211.299 7.228ZM206.861 7.256C206.861 7.76933 207.005 8.18933 207.295 8.516C207.584 8.84267 207.957 9.006 208.415 9.006C208.872 9.006 209.236 8.83333 209.507 8.488C209.787 8.13333 209.927 7.718 209.927 7.242C209.927 6.75667 209.787 6.34133 209.507 5.996C209.227 5.64133 208.858 5.464 208.401 5.464C207.953 5.464 207.584 5.632 207.295 5.968C207.005 6.304 206.861 6.73333 206.861 7.256ZM213.404 4.974C213.787 4.51667 214.352 4.288 215.098 4.288C216.368 4.288 217.002 5.06733 217.002 6.626V10H215.658V7.074C215.658 5.90733 215.299 5.324 214.58 5.324C213.796 5.324 213.404 5.94933 213.404 7.2V10H212.046V4.47H213.404V4.974ZM224.332 10H222.974V5.688H222.33V4.582H222.974V2.846C222.974 1.15667 223.632 0.312 224.948 0.312C225.219 0.312 225.471 0.372666 225.704 0.494V1.67C225.461 1.54867 225.247 1.488 225.06 1.488C224.808 1.488 224.621 1.58133 224.5 1.768C224.388 1.94533 224.332 2.37933 224.332 3.07V4.582H225.704V5.688H224.332V10ZM227.554 4.47V7.466C227.554 8.53933 227.927 9.076 228.674 9.076C229.421 9.076 229.794 8.53933 229.794 7.466V4.47H231.152V7.718C231.152 9.36067 230.326 10.182 228.674 10.182C227.022 10.182 226.196 9.36067 226.196 7.718V4.47H227.554ZM233.611 4.974C233.994 4.51667 234.559 4.288 235.305 4.288C236.575 4.288 237.209 5.06733 237.209 6.626V10H235.865V7.074C235.865 5.90733 235.506 5.324 234.787 5.324C234.003 5.324 233.611 5.94933 233.611 7.2V10H232.253V4.47H233.611V4.974ZM242.103 5.912C241.758 5.56667 241.371 5.394 240.941 5.394C240.437 5.394 240.041 5.576 239.751 5.94C239.462 6.304 239.317 6.752 239.317 7.284C239.317 7.80667 239.481 8.236 239.807 8.572C240.134 8.908 240.531 9.076 240.997 9.076C241.399 9.076 241.767 8.89867 242.103 8.544V9.846C241.711 10.07 241.259 10.182 240.745 10.182C239.943 10.182 239.275 9.89733 238.743 9.328C238.211 8.75867 237.945 8.06333 237.945 7.242C237.945 6.42067 238.216 5.72533 238.757 5.156C239.308 4.57733 239.994 4.288 240.815 4.288C241.301 4.288 241.73 4.40467 242.103 4.638V5.912ZM244.747 10H243.389V5.688H242.731V4.582H243.389V2.594H244.747V4.582H245.825V5.688H244.747V10ZM247.837 2.146C247.837 2.36067 247.758 2.54733 247.599 2.706C247.441 2.86467 247.254 2.944 247.039 2.944C246.825 2.944 246.638 2.86467 246.479 2.706C246.321 2.54733 246.241 2.36067 246.241 2.146C246.241 1.93133 246.321 1.74467 246.479 1.586C246.638 1.42733 246.825 1.348 247.039 1.348C247.254 1.348 247.441 1.42733 247.599 1.586C247.758 1.74467 247.837 1.93133 247.837 2.146ZM247.725 10H246.367V4.47H247.725V10ZM254.461 7.228C254.461 8.096 254.195 8.80533 253.663 9.356C253.131 9.90667 252.431 10.182 251.563 10.182C250.704 10.182 250.004 9.90667 249.463 9.356C248.921 8.80533 248.651 8.10067 248.651 7.242C248.651 6.374 248.917 5.66467 249.449 5.114C249.981 4.56333 250.681 4.288 251.549 4.288C252.417 4.288 253.117 4.56333 253.649 5.114C254.19 5.65533 254.461 6.36 254.461 7.228ZM250.023 7.256C250.023 7.76933 250.167 8.18933 250.457 8.516C250.746 8.84267 251.119 9.006 251.577 9.006C252.034 9.006 252.398 8.83333 252.669 8.488C252.949 8.13333 253.089 7.718 253.089 7.242C253.089 6.75667 252.949 6.34133 252.669 5.996C252.389 5.64133 252.02 5.464 251.563 5.464C251.115 5.464 250.746 5.632 250.457 5.968C250.167 6.304 250.023 6.73333 250.023 7.256ZM256.566 4.974C256.949 4.51667 257.514 4.288 258.26 4.288C259.53 4.288 260.164 5.06733 260.164 6.626V10H258.82V7.074C258.82 5.90733 258.461 5.324 257.742 5.324C256.958 5.324 256.566 5.94933 256.566 7.2V10H255.208V4.47H256.566V4.974ZM263.364 9.202C263.364 9.482 263.266 9.72467 263.07 9.93C262.884 10.126 262.65 10.224 262.37 10.224C262.09 10.224 261.852 10.126 261.656 9.93C261.46 9.734 261.362 9.50067 261.362 9.23C261.362 8.95 261.46 8.712 261.656 8.516C261.852 8.32 262.086 8.222 262.356 8.222C262.636 8.222 262.874 8.31533 263.07 8.502C263.266 8.68867 263.364 8.922 263.364 9.202Z" fill="black"/>
</svg>
