<svg width="288" height="14" viewBox="0 0 288 14" fill="none" xmlns="http://www.w3.org/2000/svg">
<path d="M2.68394 8.59502L1.92794 10.499H0.401939L3.70594 1.77702H4.99394L8.21394 10.499H6.67394L5.95994 8.59502H2.68394ZM4.26594 3.86302L3.03394 7.46102H5.56794L4.26594 3.86302ZM10.0468 5.47302C10.4295 5.01569 10.9942 4.78702 11.7408 4.78702C13.0102 4.78702 13.6448 5.56636 13.6448 7.12502V10.499H12.3008V7.57302C12.3008 6.40636 11.9415 5.82302 11.2228 5.82302C10.4388 5.82302 10.0468 6.44836 10.0468 7.69902V10.499H8.68885V4.96902H10.0468V5.47302ZM21.1146 2.64502C21.1146 2.85969 21.0353 3.04636 20.8766 3.20502C20.7179 3.36369 20.5313 3.44302 20.3166 3.44302C20.1019 3.44302 19.9153 3.36369 19.7566 3.20502C19.5979 3.04636 19.5186 2.85969 19.5186 2.64502C19.5186 2.43036 19.5979 2.24369 19.7566 2.08502C19.9153 1.92636 20.1019 1.84702 20.3166 1.84702C20.5313 1.84702 20.7179 1.92636 20.8766 2.08502C21.0353 2.24369 21.1146 2.43036 21.1146 2.64502ZM21.0026 10.499H19.6446V4.96902H21.0026V10.499ZM23.664 5.47302C24.0467 5.01569 24.6114 4.78702 25.358 4.78702C26.6274 4.78702 27.262 5.56636 27.262 7.12502V10.499H25.918V7.57302C25.918 6.40636 25.5587 5.82302 24.84 5.82302C24.056 5.82302 23.664 6.44836 23.664 7.69902V10.499H22.306V4.96902H23.664V5.47302ZM30.056 10.499H28.698V6.18702H28.04V5.08102H28.698V3.09302H30.056V5.08102H31.134V6.18702H30.056V10.499ZM32.5299 7.86702C32.5299 8.39902 32.6465 8.83769 32.8799 9.18302C33.1132 9.52836 33.4352 9.70102 33.8459 9.70102C34.4899 9.70102 34.9005 9.38369 35.0779 8.74902L36.3659 8.95902C35.9459 10.107 35.1059 10.681 33.8459 10.681C33.0059 10.681 32.3339 10.415 31.8299 9.88302C31.3352 9.34169 31.0879 8.64169 31.0879 7.78302C31.0879 6.87769 31.3259 6.15436 31.8019 5.61302C32.2872 5.06236 32.9405 4.78702 33.7619 4.78702C34.5925 4.78702 35.2365 5.04836 35.6939 5.57102C36.1605 6.08436 36.3939 6.78902 36.3939 7.68502V7.86702H32.5299ZM35.1339 7.11102C35.1339 6.72836 35.0125 6.39236 34.7699 6.10302C34.5365 5.81369 34.2285 5.66902 33.8459 5.66902C33.4725 5.66902 33.1645 5.82302 32.9219 6.13102C32.6885 6.42969 32.5719 6.75636 32.5719 7.11102H35.1339ZM38.4843 5.54302C38.8297 5.03902 39.371 4.78702 40.1083 4.78702C40.3417 4.78702 40.5563 4.83369 40.7523 4.92702L40.5843 6.15902C40.379 6.02836 40.155 5.96302 39.9123 5.96302C38.9603 5.96302 38.4843 6.64436 38.4843 8.00702V10.499H37.1263V4.96902H38.4843V5.54302ZM46.4913 10.499H45.1613V9.99502C44.7693 10.4524 44.1859 10.681 43.4113 10.681C42.6366 10.681 42.0159 10.3824 41.5493 9.78502C41.0919 9.18769 40.8633 8.48769 40.8633 7.68502C40.8633 6.88236 41.0966 6.20102 41.5633 5.64102C42.0393 5.07169 42.6459 4.78702 43.3833 4.78702C44.1673 4.78702 44.7599 5.02036 45.1613 5.48702V4.96902H46.4913V10.499ZM45.3153 7.72702C45.3153 7.21369 45.1706 6.79369 44.8813 6.46702C44.5919 6.13102 44.2186 5.96302 43.7613 5.96302C43.3133 5.96302 42.9446 6.12636 42.6553 6.45302C42.3753 6.77036 42.2353 7.19502 42.2353 7.72702C42.2353 8.25902 42.3799 8.68836 42.6693 9.01502C42.9586 9.34169 43.3319 9.50502 43.7893 9.50502C44.2466 9.50502 44.6153 9.34636 44.8953 9.02902C45.1753 8.71169 45.3153 8.27769 45.3153 7.72702ZM51.3923 6.41102C51.047 6.06569 50.6597 5.89302 50.2303 5.89302C49.7263 5.89302 49.3297 6.07502 49.0403 6.43902C48.751 6.80302 48.6063 7.25102 48.6063 7.78302C48.6063 8.30569 48.7697 8.73502 49.0963 9.07102C49.423 9.40702 49.8197 9.57502 50.2863 9.57502C50.6877 9.57502 51.0563 9.39769 51.3923 9.04302V10.345C51.0003 10.569 50.5477 10.681 50.0343 10.681C49.2317 10.681 48.5643 10.3964 48.0323 9.82702C47.5003 9.25769 47.2343 8.56236 47.2343 7.74102C47.2343 6.91969 47.505 6.22436 48.0463 5.65502C48.597 5.07636 49.283 4.78702 50.1043 4.78702C50.5897 4.78702 51.019 4.90369 51.3923 5.13702V6.41102ZM54.0365 10.499H52.6785V6.18702H52.0205V5.08102H52.6785V3.09302H54.0365V5.08102H55.1145V6.18702H54.0365V10.499ZM57.1263 2.64502C57.1263 2.85969 57.047 3.04636 56.8883 3.20502C56.7297 3.36369 56.543 3.44302 56.3283 3.44302C56.1137 3.44302 55.927 3.36369 55.7683 3.20502C55.6097 3.04636 55.5303 2.85969 55.5303 2.64502C55.5303 2.43036 55.6097 2.24369 55.7683 2.08502C55.927 1.92636 56.1137 1.84702 56.3283 1.84702C56.543 1.84702 56.7297 1.92636 56.8883 2.08502C57.047 2.24369 57.1263 2.43036 57.1263 2.64502ZM57.0143 10.499H55.6563V4.96902H57.0143V10.499ZM60.5858 8.46902L61.9438 4.96902H63.4558L60.9078 10.611H60.0958L57.5618 4.96902H59.0598L60.5858 8.46902ZM64.8638 7.86702C64.8638 8.39902 64.9805 8.83769 65.2138 9.18302C65.4472 9.52836 65.7692 9.70102 66.1798 9.70102C66.8238 9.70102 67.2345 9.38369 67.4118 8.74902L68.6998 8.95902C68.2798 10.107 67.4398 10.681 66.1798 10.681C65.3398 10.681 64.6678 10.415 64.1638 9.88302C63.6692 9.34169 63.4218 8.64169 63.4218 7.78302C63.4218 6.87769 63.6598 6.15436 64.1358 5.61302C64.6212 5.06236 65.2745 4.78702 66.0958 4.78702C66.9265 4.78702 67.5705 5.04836 68.0278 5.57102C68.4945 6.08436 68.7278 6.78902 68.7278 7.68502V7.86702H64.8638ZM67.4678 7.11102C67.4678 6.72836 67.3465 6.39236 67.1038 6.10302C66.8705 5.81369 66.5625 5.66902 66.1798 5.66902C65.8065 5.66902 65.4985 5.82302 65.2558 6.13102C65.0225 6.42969 64.9058 6.75636 64.9058 7.11102H67.4678ZM75.4941 5.47302C75.8861 5.01569 76.4694 4.78702 77.2441 4.78702C77.9721 4.78702 78.5741 5.07636 79.0501 5.65502C79.5354 6.23369 79.7781 6.91502 79.7781 7.69902C79.7781 8.54836 79.5401 9.25769 79.0641 9.82702C78.5881 10.3964 77.9721 10.681 77.2161 10.681C76.4041 10.681 75.8394 10.4477 75.5221 9.98102L75.4941 12.837H74.1361V4.96902H75.4941V5.47302ZM78.3921 7.72702C78.3921 7.25102 78.2568 6.84036 77.9861 6.49502C77.7154 6.14036 77.3421 5.96302 76.8661 5.96302C76.4274 5.96302 76.0634 6.14036 75.7741 6.49502C75.4848 6.84969 75.3401 7.26036 75.3401 7.72702C75.3401 8.18436 75.4941 8.59502 75.8021 8.95902C76.1101 9.32302 76.4648 9.50502 76.8661 9.50502C77.3421 9.50502 77.7154 9.33702 77.9861 9.00102C78.2568 8.66502 78.3921 8.24036 78.3921 7.72702ZM81.8652 5.54302C82.2105 5.03902 82.7519 4.78702 83.4892 4.78702C83.7225 4.78702 83.9372 4.83369 84.1332 4.92702L83.9652 6.15902C83.7599 6.02836 83.5359 5.96302 83.2932 5.96302C82.3412 5.96302 81.8652 6.64436 81.8652 8.00702V10.499H80.5072V4.96902H81.8652V5.54302ZM90.0681 7.72702C90.0681 8.59502 89.8021 9.30436 89.2701 9.85502C88.7381 10.4057 88.0381 10.681 87.1701 10.681C86.3114 10.681 85.6114 10.4057 85.0701 9.85502C84.5288 9.30436 84.2581 8.59969 84.2581 7.74102C84.2581 6.87302 84.5241 6.16369 85.0561 5.61302C85.5881 5.06236 86.2881 4.78702 87.1561 4.78702C88.0241 4.78702 88.7241 5.06236 89.2561 5.61302C89.7974 6.15436 90.0681 6.85902 90.0681 7.72702ZM85.6301 7.75502C85.6301 8.26836 85.7748 8.68836 86.0641 9.01502C86.3534 9.34169 86.7268 9.50502 87.1841 9.50502C87.6414 9.50502 88.0054 9.33236 88.2761 8.98702C88.5561 8.63236 88.6961 8.21702 88.6961 7.74102C88.6961 7.25569 88.5561 6.84036 88.2761 6.49502C87.9961 6.14036 87.6274 5.96302 87.1701 5.96302C86.7221 5.96302 86.3534 6.13102 86.0641 6.46702C85.7748 6.80302 85.6301 7.23236 85.6301 7.75502ZM92.3698 13.453H91.0118V4.96902H92.3698V13.453ZM92.4818 2.64502C92.4818 2.85969 92.4025 3.04636 92.2438 3.20502C92.0851 3.36369 91.8985 3.44302 91.6838 3.44302C91.4691 3.44302 91.2825 3.36369 91.1238 3.20502C90.9651 3.04636 90.8858 2.85969 90.8858 2.64502C90.8858 2.43036 90.9651 2.24369 91.1238 2.08502C91.2825 1.92636 91.4691 1.84702 91.6838 1.84702C91.8985 1.84702 92.0851 1.92636 92.2438 2.08502C92.4025 2.24369 92.4818 2.43036 92.4818 2.64502ZM94.7232 7.86702C94.7232 8.39902 94.8399 8.83769 95.0732 9.18302C95.3066 9.52836 95.6286 9.70102 96.0392 9.70102C96.6832 9.70102 97.0939 9.38369 97.2712 8.74902L98.5592 8.95902C98.1392 10.107 97.2992 10.681 96.0392 10.681C95.1992 10.681 94.5272 10.415 94.0232 9.88302C93.5286 9.34169 93.2812 8.64169 93.2812 7.78302C93.2812 6.87769 93.5192 6.15436 93.9952 5.61302C94.4806 5.06236 95.1339 4.78702 95.9552 4.78702C96.7859 4.78702 97.4299 5.04836 97.8872 5.57102C98.3539 6.08436 98.5872 6.78902 98.5872 7.68502V7.86702H94.7232ZM97.3272 7.11102C97.3272 6.72836 97.2059 6.39236 96.9632 6.10302C96.7299 5.81369 96.4219 5.66902 96.0392 5.66902C95.6659 5.66902 95.3579 5.82302 95.1152 6.13102C94.8819 6.42969 94.7652 6.75636 94.7652 7.11102H97.3272ZM103.086 6.41102C102.74 6.06569 102.353 5.89302 101.924 5.89302C101.42 5.89302 101.023 6.07502 100.734 6.43902C100.444 6.80302 100.3 7.25102 100.3 7.78302C100.3 8.30569 100.463 8.73502 100.79 9.07102C101.116 9.40702 101.513 9.57502 101.98 9.57502C102.381 9.57502 102.75 9.39769 103.086 9.04302V10.345C102.694 10.569 102.241 10.681 101.728 10.681C100.925 10.681 100.258 10.3964 99.7257 9.82702C99.1937 9.25769 98.9277 8.56236 98.9277 7.74102C98.9277 6.91969 99.1984 6.22436 99.7397 5.65502C100.29 5.07636 100.976 4.78702 101.798 4.78702C102.283 4.78702 102.712 4.90369 103.086 5.13702V6.41102ZM105.73 10.499H104.372V6.18702H103.714V5.08102H104.372V3.09302H105.73V5.08102H106.808V6.18702H105.73V10.499ZM113.159 4.96902V7.96502C113.159 9.03836 113.533 9.57502 114.279 9.57502C115.026 9.57502 115.399 9.03836 115.399 7.96502V4.96902H116.757V8.21702C116.757 9.85969 115.931 10.681 114.279 10.681C112.627 10.681 111.801 9.85969 111.801 8.21702V4.96902H113.159ZM120.813 6.11702C120.514 5.83702 120.201 5.69702 119.875 5.69702C119.38 5.69702 119.133 5.92102 119.133 6.36902C119.133 6.62102 119.357 6.82636 119.805 6.98502C120.626 7.28369 121.135 7.55902 121.331 7.81102C121.527 8.05369 121.625 8.35702 121.625 8.72102C121.625 9.31836 121.415 9.79436 120.995 10.149C120.584 10.5037 120.075 10.681 119.469 10.681C118.685 10.681 118.036 10.373 117.523 9.75702L118.125 8.98702C118.591 9.45369 119.021 9.68702 119.413 9.68702C119.982 9.68702 120.267 9.41169 120.267 8.86102C120.267 8.58102 120.117 8.37569 119.819 8.24502C119.52 8.10502 119.291 8.00236 119.133 7.93702C118.274 7.56369 117.845 7.11102 117.845 6.57902C117.845 6.04702 118.003 5.61769 118.321 5.29102C118.647 4.95502 119.072 4.78702 119.595 4.78702C120.341 4.78702 120.934 4.97836 121.373 5.36102L120.813 6.11702ZM124.146 2.64502C124.146 2.85969 124.067 3.04636 123.908 3.20502C123.749 3.36369 123.563 3.44302 123.348 3.44302C123.133 3.44302 122.947 3.36369 122.788 3.20502C122.629 3.04636 122.55 2.85969 122.55 2.64502C122.55 2.43036 122.629 2.24369 122.788 2.08502C122.947 1.92636 123.133 1.84702 123.348 1.84702C123.563 1.84702 123.749 1.92636 123.908 2.08502C124.067 2.24369 124.146 2.43036 124.146 2.64502ZM124.034 10.499H122.676V4.96902H124.034V10.499ZM126.695 5.47302C127.078 5.01569 127.643 4.78702 128.389 4.78702C129.659 4.78702 130.293 5.56636 130.293 7.12502V10.499H128.949V7.57302C128.949 6.40636 128.59 5.82302 127.871 5.82302C127.087 5.82302 126.695 6.44836 126.695 7.69902V10.499H125.337V4.96902H126.695V5.47302ZM136.685 10.023C136.685 11.9177 135.803 12.865 134.039 12.865C133.255 12.865 132.593 12.6504 132.051 12.221C131.51 11.801 131.239 11.2504 131.239 10.569H132.681C132.681 10.8397 132.817 11.1057 133.087 11.367C133.358 11.6284 133.661 11.759 133.997 11.759C134.884 11.759 135.327 11.227 135.327 10.163V9.81302C134.945 10.2984 134.361 10.541 133.577 10.541C132.803 10.541 132.191 10.2704 131.743 9.72902C131.305 9.18769 131.085 8.52502 131.085 7.74102C131.085 6.89169 131.323 6.18236 131.799 5.61302C132.275 5.04369 132.891 4.75902 133.647 4.75902C134.413 4.75902 134.973 4.99702 135.327 5.47302V4.94102H136.685V10.023ZM135.523 7.61502C135.523 7.11102 135.383 6.70502 135.103 6.39702C134.823 6.08902 134.455 5.93502 133.997 5.93502C133.54 5.93502 133.167 6.10302 132.877 6.43902C132.597 6.77502 132.457 7.19969 132.457 7.71302C132.457 8.81436 132.971 9.36502 133.997 9.36502C134.464 9.36502 134.833 9.20169 135.103 8.87502C135.383 8.53902 135.523 8.11902 135.523 7.61502ZM143.785 0.937023V5.43102C144.14 5.00169 144.704 4.78702 145.479 4.78702C146.058 4.78702 146.52 5.01102 146.865 5.45902C147.21 5.90702 147.383 6.46236 147.383 7.12502V10.499H146.039V7.57302C146.039 6.40636 145.68 5.82302 144.961 5.82302C144.177 5.82302 143.785 6.46702 143.785 7.75502V10.499H142.427V0.937023H143.785ZM153.747 10.499H152.417V9.99502C152.025 10.4524 151.442 10.681 150.667 10.681C149.892 10.681 149.272 10.3824 148.805 9.78502C148.348 9.18769 148.119 8.48769 148.119 7.68502C148.119 6.88236 148.352 6.20102 148.819 5.64102C149.295 5.07169 149.902 4.78702 150.639 4.78702C151.423 4.78702 152.016 5.02036 152.417 5.48702V4.96902H153.747V10.499ZM152.571 7.72702C152.571 7.21369 152.426 6.79369 152.137 6.46702C151.848 6.13102 151.474 5.96302 151.017 5.96302C150.569 5.96302 150.2 6.12636 149.911 6.45302C149.631 6.77036 149.491 7.19502 149.491 7.72702C149.491 8.25902 149.636 8.68836 149.925 9.01502C150.214 9.34169 150.588 9.50502 151.045 9.50502C151.502 9.50502 151.871 9.34636 152.151 9.02902C152.431 8.71169 152.571 8.27769 152.571 7.72702ZM156.24 5.47302C156.623 5.01569 157.188 4.78702 157.934 4.78702C159.204 4.78702 159.838 5.56636 159.838 7.12502V10.499H158.494V7.57302C158.494 6.40636 158.135 5.82302 157.416 5.82302C156.632 5.82302 156.24 6.44836 156.24 7.69902V10.499H154.882V4.96902H156.24V5.47302ZM164.858 9.98102C164.494 10.4477 163.92 10.681 163.136 10.681C162.352 10.681 161.727 10.3824 161.26 9.78502C160.803 9.18769 160.574 8.48769 160.574 7.68502C160.574 6.88236 160.808 6.20102 161.274 5.64102C161.75 5.07169 162.357 4.78702 163.094 4.78702C163.878 4.78702 164.457 5.01569 164.83 5.47302L164.858 0.937023H166.216V10.499H164.858V9.98102ZM165.012 7.72702C165.012 7.24169 164.863 6.82636 164.564 6.48102C164.266 6.13569 163.906 5.96302 163.486 5.96302C163.066 5.96302 162.702 6.13569 162.394 6.48102C162.096 6.81702 161.946 7.23702 161.946 7.74102C161.946 8.23569 162.091 8.65569 162.38 9.00102C162.679 9.33702 163.052 9.50502 163.5 9.50502C163.948 9.50502 164.312 9.34169 164.592 9.01502C164.872 8.67902 165.012 8.24969 165.012 7.72702ZM173.371 5.45902C173.716 5.01102 174.248 4.78702 174.967 4.78702C175.592 4.78702 176.087 5.07636 176.451 5.65502C176.806 5.07636 177.38 4.78702 178.173 4.78702C179.34 4.78702 179.923 5.54302 179.923 7.05502V10.499H178.579V7.58702C178.579 6.41102 178.257 5.82302 177.613 5.82302C176.969 5.82302 176.647 6.47636 176.647 7.78302V10.499H175.289V7.69902C175.289 6.44836 175.004 5.82302 174.435 5.82302C173.726 5.82302 173.371 6.47636 173.371 7.78302V10.499H172.013V4.96902H173.371V5.45902ZM186.496 7.72702C186.496 8.59502 186.23 9.30436 185.698 9.85502C185.166 10.4057 184.466 10.681 183.598 10.681C182.739 10.681 182.039 10.4057 181.498 9.85502C180.957 9.30436 180.686 8.59969 180.686 7.74102C180.686 6.87302 180.952 6.16369 181.484 5.61302C182.016 5.06236 182.716 4.78702 183.584 4.78702C184.452 4.78702 185.152 5.06236 185.684 5.61302C186.225 6.15436 186.496 6.85902 186.496 7.72702ZM182.058 7.75502C182.058 8.26836 182.203 8.68836 182.492 9.01502C182.781 9.34169 183.155 9.50502 183.612 9.50502C184.069 9.50502 184.433 9.33236 184.704 8.98702C184.984 8.63236 185.124 8.21702 185.124 7.74102C185.124 7.25569 184.984 6.84036 184.704 6.49502C184.424 6.14036 184.055 5.96302 183.598 5.96302C183.15 5.96302 182.781 6.13102 182.492 6.46702C182.203 6.80302 182.058 7.23236 182.058 7.75502ZM189.512 8.46902L190.87 4.96902H192.382L189.834 10.611H189.022L186.488 4.96902H187.986L189.512 8.46902ZM193.79 7.86702C193.79 8.39902 193.906 8.83769 194.14 9.18302C194.373 9.52836 194.695 9.70102 195.106 9.70102C195.75 9.70102 196.16 9.38369 196.338 8.74902L197.626 8.95902C197.206 10.107 196.366 10.681 195.106 10.681C194.266 10.681 193.594 10.415 193.09 9.88302C192.595 9.34169 192.348 8.64169 192.348 7.78302C192.348 6.87769 192.586 6.15436 193.062 5.61302C193.547 5.06236 194.2 4.78702 195.022 4.78702C195.852 4.78702 196.496 5.04836 196.954 5.57102C197.42 6.08436 197.654 6.78902 197.654 7.68502V7.86702H193.79ZM196.394 7.11102C196.394 6.72836 196.272 6.39236 196.03 6.10302C195.796 5.81369 195.488 5.66902 195.106 5.66902C194.732 5.66902 194.424 5.82302 194.182 6.13102C193.948 6.42969 193.832 6.75636 193.832 7.11102H196.394ZM199.744 5.45902C200.089 5.01102 200.621 4.78702 201.34 4.78702C201.965 4.78702 202.46 5.07636 202.824 5.65502C203.179 5.07636 203.753 4.78702 204.546 4.78702C205.713 4.78702 206.296 5.54302 206.296 7.05502V10.499H204.952V7.58702C204.952 6.41102 204.63 5.82302 203.986 5.82302C203.342 5.82302 203.02 6.47636 203.02 7.78302V10.499H201.662V7.69902C201.662 6.44836 201.377 5.82302 200.808 5.82302C200.099 5.82302 199.744 6.47636 199.744 7.78302V10.499H198.386V4.96902H199.744V5.45902ZM208.487 7.86702C208.487 8.39902 208.604 8.83769 208.837 9.18302C209.07 9.52836 209.392 9.70102 209.803 9.70102C210.447 9.70102 210.858 9.38369 211.035 8.74902L212.323 8.95902C211.903 10.107 211.063 10.681 209.803 10.681C208.963 10.681 208.291 10.415 207.787 9.88302C207.292 9.34169 207.045 8.64169 207.045 7.78302C207.045 6.87769 207.283 6.15436 207.759 5.61302C208.244 5.06236 208.898 4.78702 209.719 4.78702C210.55 4.78702 211.194 5.04836 211.651 5.57102C212.118 6.08436 212.351 6.78902 212.351 7.68502V7.86702H208.487ZM211.091 7.11102C211.091 6.72836 210.97 6.39236 210.727 6.10302C210.494 5.81369 210.186 5.66902 209.803 5.66902C209.43 5.66902 209.122 5.82302 208.879 6.13102C208.646 6.42969 208.529 6.75636 208.529 7.11102H211.091ZM214.441 5.47302C214.824 5.01569 215.389 4.78702 216.135 4.78702C217.405 4.78702 218.039 5.56636 218.039 7.12502V10.499H216.695V7.57302C216.695 6.40636 216.336 5.82302 215.617 5.82302C214.833 5.82302 214.441 6.44836 214.441 7.69902V10.499H213.083V4.96902H214.441V5.47302ZM220.833 10.499H219.475V6.18702H218.817V5.08102H219.475V3.09302H220.833V5.08102H221.911V6.18702H220.833V10.499ZM232.169 10.499H230.839V9.99502C230.447 10.4524 229.864 10.681 229.089 10.681C228.314 10.681 227.694 10.3824 227.227 9.78502C226.77 9.18769 226.541 8.48769 226.541 7.68502C226.541 6.88236 226.774 6.20102 227.241 5.64102C227.717 5.07169 228.324 4.78702 229.061 4.78702C229.845 4.78702 230.438 5.02036 230.839 5.48702V4.96902H232.169V10.499ZM230.993 7.72702C230.993 7.21369 230.848 6.79369 230.559 6.46702C230.27 6.13102 229.896 5.96302 229.439 5.96302C228.991 5.96302 228.622 6.12636 228.333 6.45302C228.053 6.77036 227.913 7.19502 227.913 7.72702C227.913 8.25902 228.058 8.68836 228.347 9.01502C228.636 9.34169 229.01 9.50502 229.467 9.50502C229.924 9.50502 230.293 9.34636 230.573 9.02902C230.853 8.71169 230.993 8.27769 230.993 7.72702ZM234.662 5.47302C235.045 5.01569 235.609 4.78702 236.356 4.78702C237.625 4.78702 238.26 5.56636 238.26 7.12502V10.499H236.916V7.57302C236.916 6.40636 236.557 5.82302 235.838 5.82302C235.054 5.82302 234.662 6.44836 234.662 7.69902V10.499H233.304V4.96902H234.662V5.47302ZM243.28 9.98102C242.916 10.4477 242.342 10.681 241.558 10.681C240.774 10.681 240.149 10.3824 239.682 9.78502C239.225 9.18769 238.996 8.48769 238.996 7.68502C238.996 6.88236 239.229 6.20102 239.696 5.64102C240.172 5.07169 240.779 4.78702 241.516 4.78702C242.3 4.78702 242.879 5.01569 243.252 5.47302L243.28 0.937023H244.638V10.499H243.28V9.98102ZM243.434 7.72702C243.434 7.24169 243.285 6.82636 242.986 6.48102C242.687 6.13569 242.328 5.96302 241.908 5.96302C241.488 5.96302 241.124 6.13569 240.816 6.48102C240.517 6.81702 240.368 7.23702 240.368 7.74102C240.368 8.23569 240.513 8.65569 240.802 9.00102C241.101 9.33702 241.474 9.50502 241.922 9.50502C242.37 9.50502 242.734 9.34169 243.014 9.01502C243.294 8.67902 243.434 8.24969 243.434 7.72702ZM255.699 10.023C255.699 11.9177 254.817 12.865 253.053 12.865C252.269 12.865 251.606 12.6504 251.065 12.221C250.524 11.801 250.253 11.2504 250.253 10.569H251.695C251.695 10.8397 251.83 11.1057 252.101 11.367C252.372 11.6284 252.675 11.759 253.011 11.759C253.898 11.759 254.341 11.227 254.341 10.163V9.81302C253.958 10.2984 253.375 10.541 252.591 10.541C251.816 10.541 251.205 10.2704 250.757 9.72902C250.318 9.18769 250.099 8.52502 250.099 7.74102C250.099 6.89169 250.337 6.18236 250.813 5.61302C251.289 5.04369 251.905 4.75902 252.661 4.75902C253.426 4.75902 253.986 4.99702 254.341 5.47302V4.94102H255.699V10.023ZM254.537 7.61502C254.537 7.11102 254.397 6.70502 254.117 6.39702C253.837 6.08902 253.468 5.93502 253.011 5.93502C252.554 5.93502 252.18 6.10302 251.891 6.43902C251.611 6.77502 251.471 7.19969 251.471 7.71302C251.471 8.81436 251.984 9.36502 253.011 9.36502C253.478 9.36502 253.846 9.20169 254.117 8.87502C254.397 8.53902 254.537 8.11902 254.537 7.61502ZM257.815 7.86702C257.815 8.39902 257.932 8.83769 258.165 9.18302C258.398 9.52836 258.72 9.70102 259.131 9.70102C259.775 9.70102 260.186 9.38369 260.363 8.74902L261.651 8.95902C261.231 10.107 260.391 10.681 259.131 10.681C258.291 10.681 257.619 10.415 257.115 9.88302C256.62 9.34169 256.373 8.64169 256.373 7.78302C256.373 6.87769 256.611 6.15436 257.087 5.61302C257.572 5.06236 258.226 4.78702 259.047 4.78702C259.878 4.78702 260.522 5.04836 260.979 5.57102C261.446 6.08436 261.679 6.78902 261.679 7.68502V7.86702H257.815ZM260.419 7.11102C260.419 6.72836 260.298 6.39236 260.055 6.10302C259.822 5.81369 259.514 5.66902 259.131 5.66902C258.758 5.66902 258.45 5.82302 258.207 6.13102C257.974 6.42969 257.857 6.75636 257.857 7.11102H260.419ZM265.366 6.11702C265.067 5.83702 264.754 5.69702 264.428 5.69702C263.933 5.69702 263.686 5.92102 263.686 6.36902C263.686 6.62102 263.91 6.82636 264.358 6.98502C265.179 7.28369 265.688 7.55902 265.884 7.81102C266.08 8.05369 266.178 8.35702 266.178 8.72102C266.178 9.31836 265.968 9.79436 265.548 10.149C265.137 10.5037 264.628 10.681 264.022 10.681C263.238 10.681 262.589 10.373 262.076 9.75702L262.678 8.98702C263.144 9.45369 263.574 9.68702 263.966 9.68702C264.535 9.68702 264.82 9.41169 264.82 8.86102C264.82 8.58102 264.67 8.37569 264.372 8.24502C264.073 8.10502 263.844 8.00236 263.686 7.93702C262.827 7.56369 262.398 7.11102 262.398 6.57902C262.398 6.04702 262.556 5.61769 262.874 5.29102C263.2 4.95502 263.625 4.78702 264.148 4.78702C264.894 4.78702 265.487 4.97836 265.926 5.36102L265.366 6.11702ZM268.699 10.499H267.341V6.18702H266.683V5.08102H267.341V3.09302H268.699V5.08102H269.777V6.18702H268.699V10.499ZM271.452 4.96902V7.96502C271.452 9.03836 271.826 9.57502 272.572 9.57502C273.319 9.57502 273.692 9.03836 273.692 7.96502V4.96902H275.05V8.21702C275.05 9.85969 274.224 10.681 272.572 10.681C270.92 10.681 270.094 9.85969 270.094 8.21702V4.96902H271.452ZM277.51 5.54302C277.855 5.03902 278.396 4.78702 279.134 4.78702C279.367 4.78702 279.582 4.83369 279.778 4.92702L279.61 6.15902C279.404 6.02836 279.18 5.96302 278.938 5.96302C277.986 5.96302 277.51 6.64436 277.51 8.00702V10.499H276.152V4.96902H277.51V5.54302ZM281.331 7.86702C281.331 8.39902 281.447 8.83769 281.681 9.18302C281.914 9.52836 282.236 9.70102 282.647 9.70102C283.291 9.70102 283.701 9.38369 283.879 8.74902L285.167 8.95902C284.747 10.107 283.907 10.681 282.647 10.681C281.807 10.681 281.135 10.415 280.631 9.88302C280.136 9.34169 279.889 8.64169 279.889 7.78302C279.889 6.87769 280.127 6.15436 280.603 5.61302C281.088 5.06236 281.741 4.78702 282.563 4.78702C283.393 4.78702 284.037 5.04836 284.495 5.57102C284.961 6.08436 285.195 6.78902 285.195 7.68502V7.86702H281.331ZM283.935 7.11102C283.935 6.72836 283.813 6.39236 283.571 6.10302C283.337 5.81369 283.029 5.66902 282.647 5.66902C282.273 5.66902 281.965 5.82302 281.723 6.13102C281.489 6.42969 281.373 6.75636 281.373 7.11102H283.935ZM287.999 9.70102C287.999 9.98102 287.901 10.2237 287.705 10.429C287.518 10.625 287.285 10.723 287.005 10.723C286.725 10.723 286.487 10.625 286.291 10.429C286.095 10.233 285.997 9.99969 285.997 9.72902C285.997 9.44902 286.095 9.21102 286.291 9.01502C286.487 8.81902 286.72 8.72102 286.991 8.72102C287.271 8.72102 287.509 8.81436 287.705 9.00102C287.901 9.18769 287.999 9.42102 287.999 9.70102Z" fill="black"/>
</svg>
