<svg width="106" height="16" viewBox="0 0 106 16" fill="none" xmlns="http://www.w3.org/2000/svg">
<path d="M4.744 11.736L3.448 15H0.832L6.496 0.0479994H8.704L14.224 15H11.584L10.36 11.736H4.744ZM7.456 3.624L5.344 9.792H9.688L7.456 3.624ZM15.1101 0.0479994H16.9821L25.2141 11.016L25.2621 0.431999H27.7101V15.288H25.8621L17.6061 4.344L17.5821 15H15.1101V0.0479994ZM32.446 15H29.974V0.431999H32.446V15ZM45.6724 5.184L42.0244 15.192H41.4244L37.9924 5.136L36.3364 15H33.8644L36.3124 0.0479994H38.1364L41.9284 10.056L45.5524 0.0479994H47.4004L49.5844 15H47.1124L45.6724 5.184ZM53.5409 11.736L52.2449 15H49.6289L55.2929 0.0479994H57.5009L63.0209 15H60.3809L59.1569 11.736H53.5409ZM56.2529 3.624L54.1409 9.792H58.4849L56.2529 3.624ZM68.347 15H66.115V2.52H62.875V0.431999H71.587V2.52H68.347V15ZM75.2898 15H72.8178V0.431999H75.2898V15ZM76.8282 7.752C76.8282 5.624 77.5082 3.808 78.8682 2.304C80.2442 0.799999 81.9722 0.0479994 84.0522 0.0479994C86.1322 0.0479994 87.8522 0.799999 89.2122 2.304C90.5722 3.808 91.2522 5.616 91.2522 7.728C91.2522 9.84 90.5722 11.648 89.2122 13.152C87.8682 14.64 86.1482 15.384 84.0522 15.384C81.9562 15.384 80.2282 14.64 78.8682 13.152C77.5082 11.664 76.8282 9.864 76.8282 7.752ZM79.3962 7.584C79.3962 9.008 79.8442 10.264 80.7402 11.352C81.6362 12.424 82.7402 12.96 84.0522 12.96C85.4602 12.96 86.5882 12.448 87.4362 11.424C88.2842 10.384 88.7082 9.104 88.7082 7.584C88.7082 6.144 88.2842 4.936 87.4362 3.96C86.5882 2.968 85.4522 2.472 84.0282 2.472C82.6202 2.472 81.4922 2.968 80.6442 3.96C79.8122 4.952 79.3962 6.16 79.3962 7.584ZM92.6414 0.0479994H94.5134L102.745 11.016L102.793 0.431999H105.241V15.288H103.393L95.1374 4.344L95.1134 15H92.6414V0.0479994Z" fill="black"/>
</svg>
