<svg width="129" height="16" viewBox="0 0 129 16" fill="none" xmlns="http://www.w3.org/2000/svg">
<path d="M4.744 11.736L3.448 15H0.832L6.496 0.0479994H8.704L14.224 15H11.584L10.36 11.736H4.744ZM7.456 3.624L5.344 9.792H9.688L7.456 3.624ZM24.7821 15H21.7341L17.6061 8.52L17.5821 15H15.1101V0.431999H18.9741C22.2221 0.431999 23.8461 1.896 23.8461 4.824C23.8461 5.928 23.5581 6.848 22.9821 7.584C22.4221 8.32 21.6541 8.744 20.6781 8.856L24.7821 15ZM17.5821 7.512H18.3261C20.3581 7.512 21.3741 6.64 21.3741 4.896C21.3741 3.216 20.3661 2.376 18.3501 2.376H17.5821V7.512ZM30.3314 15H28.0994V2.52H24.8594V0.431999H33.5714V2.52H30.3314V15ZM50.6658 13.296C49.1938 14.576 47.8018 15.216 46.4898 15.216C45.2738 15.216 44.2898 14.832 43.5378 14.064C42.8018 13.28 42.4338 12.304 42.4338 11.136C42.4338 9.536 43.0658 8.336 44.3298 7.536L45.5298 6.768C44.6498 5.488 44.2098 4.448 44.2098 3.648C44.2098 2.64 44.5378 1.816 45.1938 1.176C45.8658 0.519999 46.7218 0.191999 47.7617 0.191999C48.8178 0.191999 49.6738 0.519999 50.3298 1.176C51.0018 1.816 51.3378 2.656 51.3378 3.696C51.3378 4.88 50.5138 6.016 48.8658 7.104L51.0018 9.936L52.6818 7.992L54.2657 9.504L52.4658 11.616L55.1298 15H52.0338L50.6658 13.296ZM47.6658 5.664L48.1938 5.28C48.8978 4.8 49.2498 4.2 49.2498 3.48C49.2498 2.408 48.7938 1.872 47.8818 1.872C46.9698 1.872 46.5138 2.392 46.5138 3.432C46.5138 3.8 46.6338 4.16 46.8738 4.512L47.6658 5.664ZM46.7538 8.328C45.5218 9.256 44.9058 10.112 44.9058 10.896C44.9058 12.32 45.5458 13.032 46.8258 13.032C47.4498 13.032 48.2498 12.56 49.2258 11.616L46.7538 8.328ZM64.2117 0.431999H68.2917C70.3717 0.431999 72.0597 1.12 73.3557 2.496C74.6677 3.872 75.3237 5.608 75.3237 7.704C75.3237 9.8 74.6597 11.544 73.3317 12.936C72.0197 14.312 70.3317 15 68.2677 15H64.2117V0.431999ZM66.6837 12.768H67.5237C71.0117 12.768 72.7557 11.088 72.7557 7.728C72.7557 4.352 71.0117 2.664 67.5237 2.664H66.6837V12.768ZM79.1524 2.52V6.312H84.0484V8.4H79.1524V12.912H84.2164V15H76.6804V0.431999H84.2164V2.52H79.1524ZM93.1583 3.384C92.5343 2.504 91.7423 2.064 90.7823 2.064C90.1743 2.064 89.6623 2.248 89.2463 2.616C88.8303 2.984 88.6223 3.48 88.6223 4.104C88.6223 4.712 89.3743 5.44 90.8783 6.288C92.3983 7.136 93.1663 7.56 93.1823 7.56C94.2543 8.36 94.7903 9.304 94.7903 10.392C94.7903 11.88 94.3583 13.088 93.4943 14.016C92.6463 14.928 91.4783 15.384 89.9903 15.384C88.1023 15.384 86.6143 14.44 85.5263 12.552L87.0863 11.016C87.2943 11.576 87.6783 12.088 88.2383 12.552C88.7983 13.016 89.3743 13.248 89.9663 13.248C90.6703 13.248 91.2223 13.008 91.6223 12.528C92.0383 12.048 92.2463 11.464 92.2463 10.776C92.2463 10.28 92.0943 9.848 91.7903 9.48C91.4863 9.096 90.4543 8.52 88.6943 7.752C86.9503 6.968 86.0783 5.856 86.0783 4.416C86.0783 3.184 86.4783 2.152 87.2783 1.32C88.0943 0.471999 89.1103 0.0479994 90.3263 0.0479994C92.0063 0.0479994 93.3343 0.592 94.3103 1.68L93.1583 3.384ZM98.9148 15H96.4428V0.431999H98.9148V15ZM114.037 7.248V7.608C114.037 9.928 113.445 11.808 112.261 13.248C111.077 14.672 109.453 15.384 107.389 15.384C105.389 15.384 103.733 14.648 102.421 13.176C101.109 11.704 100.453 9.904 100.453 7.776C100.453 5.568 101.117 3.728 102.445 2.256C103.789 0.783999 105.501 0.0479994 107.581 0.0479994C110.269 0.0479994 112.189 1.208 113.341 3.528L111.133 4.704C110.397 3.024 109.189 2.184 107.509 2.184C106.213 2.184 105.141 2.744 104.293 3.864C103.445 4.968 103.021 6.28 103.021 7.8C103.021 9.32 103.437 10.608 104.269 11.664C105.101 12.72 106.181 13.248 107.509 13.248C108.645 13.248 109.549 12.848 110.221 12.048C110.893 11.248 111.229 10.296 111.229 9.192H107.749V7.248H114.037ZM115.423 0.0479994H117.295L125.527 11.016L125.575 0.431999H128.023V15.288H126.175L117.919 4.344L117.895 15H115.423V0.0479994Z" fill="black"/>
</svg>
