<svg width="106" height="16" viewBox="0 0 106 16" fill="none" xmlns="http://www.w3.org/2000/svg">
<path d="M10.776 3.912C9.928 2.888 8.864 2.376 7.584 2.376C6.256 2.376 5.144 2.928 4.248 4.032C3.352 5.12 2.904 6.368 2.904 7.776C2.904 9.136 3.344 10.36 4.224 11.448C5.12 12.52 6.232 13.056 7.56 13.056C8.824 13.056 9.896 12.544 10.776 11.52V14.52C9.592 15.096 8.496 15.384 7.488 15.384C5.472 15.384 3.776 14.64 2.4 13.152C1.024 11.664 0.336 9.888 0.336 7.824C0.336 5.68 1.024 3.848 2.4 2.328C3.776 0.808 5.488 0.0479994 7.536 0.0479994C8.608 0.0479994 9.688 0.328 10.776 0.888V3.912ZM11.961 7.752C11.961 5.624 12.641 3.808 14.001 2.304C15.377 0.799999 17.105 0.0479994 19.185 0.0479994C21.265 0.0479994 22.985 0.799999 24.345 2.304C25.705 3.808 26.385 5.616 26.385 7.728C26.385 9.84 25.705 11.648 24.345 13.152C23.001 14.64 21.281 15.384 19.185 15.384C17.089 15.384 15.361 14.64 14.001 13.152C12.641 11.664 11.961 9.864 11.961 7.752ZM14.529 7.584C14.529 9.008 14.977 10.264 15.873 11.352C16.769 12.424 17.873 12.96 19.185 12.96C20.593 12.96 21.721 12.448 22.569 11.424C23.417 10.384 23.841 9.104 23.841 7.584C23.841 6.144 23.417 4.936 22.569 3.96C21.721 2.968 20.585 2.472 19.161 2.472C17.753 2.472 16.625 2.968 15.777 3.96C14.945 4.952 14.529 6.16 14.529 7.584ZM30.2462 12.912H34.6382V15H27.7742V0.431999H30.2462V12.912ZM38.0274 12.912H42.4194V15H35.5554V0.431999H38.0274V12.912ZM45.8087 2.52V6.312H50.7047V8.4H45.8087V12.912H50.8727V15H43.3367V0.431999H50.8727V2.52H45.8087ZM62.5026 3.912C61.6546 2.888 60.5906 2.376 59.3106 2.376C57.9826 2.376 56.8706 2.928 55.9746 4.032C55.0786 5.12 54.6306 6.368 54.6306 7.776C54.6306 9.136 55.0706 10.36 55.9506 11.448C56.8466 12.52 57.9586 13.056 59.2866 13.056C60.5506 13.056 61.6226 12.544 62.5026 11.52V14.52C61.3186 15.096 60.2226 15.384 59.2146 15.384C57.1986 15.384 55.5026 14.64 54.1266 13.152C52.7506 11.664 52.0626 9.888 52.0626 7.824C52.0626 5.68 52.7506 3.848 54.1266 2.328C55.5026 0.808 57.2146 0.0479994 59.2626 0.0479994C60.3346 0.0479994 61.4146 0.328 62.5026 0.888V3.912ZM68.8236 15H66.5916V2.52H63.3516V0.431999H72.0636V2.52H68.8236V15ZM75.7663 15H73.2943V0.431999H75.7663V15ZM77.3048 7.752C77.3048 5.624 77.9848 3.808 79.3448 2.304C80.7208 0.799999 82.4488 0.0479994 84.5288 0.0479994C86.6088 0.0479994 88.3288 0.799999 89.6888 2.304C91.0488 3.808 91.7288 5.616 91.7288 7.728C91.7288 9.84 91.0488 11.648 89.6888 13.152C88.3448 14.64 86.6248 15.384 84.5288 15.384C82.4328 15.384 80.7048 14.64 79.3448 13.152C77.9848 11.664 77.3048 9.864 77.3048 7.752ZM79.8728 7.584C79.8728 9.008 80.3208 10.264 81.2168 11.352C82.1128 12.424 83.2168 12.96 84.5288 12.96C85.9368 12.96 87.0648 12.448 87.9128 11.424C88.7608 10.384 89.1848 9.104 89.1848 7.584C89.1848 6.144 88.7608 4.936 87.9128 3.96C87.0648 2.968 85.9288 2.472 84.5048 2.472C83.0968 2.472 81.9688 2.968 81.1208 3.96C80.2888 4.952 79.8728 6.16 79.8728 7.584ZM93.1179 0.0479994H94.9899L103.222 11.016L103.27 0.431999H105.718V15.288H103.87L95.6139 4.344L95.5899 15H93.1179V0.0479994Z" fill="black"/>
</svg>
