<svg width="64" height="16" viewBox="0 0 64 16" fill="none" xmlns="http://www.w3.org/2000/svg">
<path d="M0.032 0.431999H4.112C6.192 0.431999 7.88 1.12 9.176 2.496C10.488 3.872 11.144 5.608 11.144 7.704C11.144 9.8 10.48 11.544 9.152 12.936C7.84 14.312 6.152 15 4.088 15H0.032V0.431999ZM2.504 12.768H3.344C6.832 12.768 8.576 11.088 8.576 7.728C8.576 4.352 6.832 2.664 3.344 2.664H2.504V12.768ZM14.9728 2.52V6.312H19.8688V8.4H14.9728V12.912H20.0368V15H12.5008V0.431999H20.0368V2.52H14.9728ZM28.9786 3.384C28.3546 2.504 27.5626 2.064 26.6026 2.064C25.9946 2.064 25.4826 2.248 25.0666 2.616C24.6506 2.984 24.4426 3.48 24.4426 4.104C24.4426 4.712 25.1946 5.44 26.6986 6.288C28.2186 7.136 28.9866 7.56 29.0026 7.56C30.0746 8.36 30.6106 9.304 30.6106 10.392C30.6106 11.88 30.1786 13.088 29.3146 14.016C28.4666 14.928 27.2986 15.384 25.8106 15.384C23.9226 15.384 22.4346 14.44 21.3466 12.552L22.9066 11.016C23.1146 11.576 23.4986 12.088 24.0586 12.552C24.6186 13.016 25.1946 13.248 25.7866 13.248C26.4906 13.248 27.0426 13.008 27.4426 12.528C27.8586 12.048 28.0666 11.464 28.0666 10.776C28.0666 10.28 27.9146 9.848 27.6106 9.48C27.3066 9.096 26.2746 8.52 24.5146 7.752C22.7706 6.968 21.8986 5.856 21.8986 4.416C21.8986 3.184 22.2986 2.152 23.0986 1.32C23.9146 0.471999 24.9306 0.0479994 26.1466 0.0479994C27.8266 0.0479994 29.1546 0.592 30.1306 1.68L28.9786 3.384ZM34.7351 15H32.2631V0.431999H34.7351V15ZM49.8575 7.248V7.608C49.8575 9.928 49.2655 11.808 48.0815 13.248C46.8975 14.672 45.2735 15.384 43.2095 15.384C41.2095 15.384 39.5535 14.648 38.2415 13.176C36.9295 11.704 36.2735 9.904 36.2735 7.776C36.2735 5.568 36.9375 3.728 38.2655 2.256C39.6095 0.783999 41.3215 0.0479994 43.4015 0.0479994C46.0895 0.0479994 48.0095 1.208 49.1615 3.528L46.9535 4.704C46.2175 3.024 45.0095 2.184 43.3295 2.184C42.0335 2.184 40.9615 2.744 40.1135 3.864C39.2655 4.968 38.8415 6.28 38.8415 7.8C38.8415 9.32 39.2575 10.608 40.0895 11.664C40.9215 12.72 42.0015 13.248 43.3295 13.248C44.4655 13.248 45.3695 12.848 46.0415 12.048C46.7135 11.248 47.0495 10.296 47.0495 9.192H43.5695V7.248H49.8575ZM51.2429 0.0479994H53.1149L61.3469 11.016L61.3949 0.431999H63.8429V15.288H61.9949L53.7389 4.344L53.7149 15H51.2429V0.0479994Z" fill="black"/>
</svg>
