<svg width="143" height="13" viewBox="0 0 143 13" fill="none" xmlns="http://www.w3.org/2000/svg">
<path d="M0.774 1.074H3.834C5.394 1.074 6.66 1.59 7.632 2.622C8.616 3.654 9.108 4.956 9.108 6.528C9.108 8.1 8.61 9.408 7.614 10.452C6.63 11.484 5.364 12 3.816 12H0.774V1.074ZM2.628 10.326H3.258C5.874 10.326 7.182 9.066 7.182 6.546C7.182 4.014 5.874 2.748 3.258 2.748H2.628V10.326ZM12.1236 12H10.2696V1.074H12.1236V12ZM23.4654 6.186V6.456C23.4654 8.196 23.0214 9.606 22.1334 10.686C21.2454 11.754 20.0274 12.288 18.4794 12.288C16.9794 12.288 15.7374 11.736 14.7534 10.632C13.7694 9.528 13.2774 8.178 13.2774 6.582C13.2774 4.926 13.7754 3.546 14.7714 2.442C15.7794 1.338 17.0634 0.786 18.6234 0.786C20.6394 0.786 22.0794 1.656 22.9434 3.396L21.2874 4.278C20.7354 3.018 19.8294 2.388 18.5694 2.388C17.5974 2.388 16.7934 2.808 16.1574 3.648C15.5214 4.476 15.2034 5.46 15.2034 6.6C15.2034 7.74 15.5154 8.706 16.1394 9.498C16.7634 10.29 17.5734 10.686 18.5694 10.686C19.4214 10.686 20.0994 10.386 20.6034 9.786C21.1074 9.186 21.3594 8.472 21.3594 7.644H18.7494V6.186H23.4654ZM26.5025 12H24.6485V1.074H26.5025V12ZM31.5083 12H29.8343V2.64H27.4043V1.074H33.9383V2.64H31.5083V12ZM36.7514 9.552L35.7794 12H33.8174L38.0654 0.786H39.7214L43.8614 12H41.8814L40.9634 9.552H36.7514ZM38.7854 3.468L37.2014 8.094H40.4594L38.7854 3.468ZM46.38 10.434H49.674V12H44.526V1.074H46.38V10.434ZM58.3716 12H56.5176V1.074H58.3716V12ZM60.0474 0.786H61.4514L67.6254 9.012L67.6614 1.074H69.4974V12.216H68.1114L61.9194 4.008L61.9014 12H60.0474V0.786ZM74.3813 12H72.7073V2.64H70.2773V1.074H76.8113V2.64H74.3813V12ZM79.4444 2.64V5.484H83.1164V7.05H79.4444V10.434H83.2424V12H77.5904V1.074H83.2424V2.64H79.4444ZM91.9108 12H89.6248L86.5288 7.14L86.5108 12H84.6568V1.074H87.5548C89.9908 1.074 91.2088 2.172 91.2088 4.368C91.2088 5.196 90.9928 5.886 90.5608 6.438C90.1408 6.99 89.5648 7.308 88.8328 7.392L91.9108 12ZM86.5108 6.384H87.0688C88.5928 6.384 89.3548 5.73 89.3548 4.422C89.3548 3.162 88.5988 2.532 87.0868 2.532H86.5108V6.384ZM94.7768 9.552L93.8048 12H91.8427L96.0908 0.786H97.7468L101.887 12H99.9068L98.9888 9.552H94.7768ZM96.8108 3.468L95.2268 8.094H98.4848L96.8108 3.468ZM109.859 3.684C109.223 2.916 108.425 2.532 107.465 2.532C106.469 2.532 105.635 2.946 104.963 3.774C104.291 4.59 103.955 5.526 103.955 6.582C103.955 7.602 104.285 8.52 104.945 9.336C105.617 10.14 106.451 10.542 107.447 10.542C108.395 10.542 109.199 10.158 109.859 9.39V11.64C108.971 12.072 108.149 12.288 107.393 12.288C105.881 12.288 104.609 11.73 103.577 10.614C102.545 9.498 102.029 8.166 102.029 6.618C102.029 5.01 102.545 3.636 103.577 2.496C104.609 1.356 105.893 0.786 107.429 0.786C108.233 0.786 109.043 0.996 109.859 1.416V3.684ZM114.6 12H112.926V2.64H110.496V1.074H117.03V2.64H114.6V12ZM119.807 12H117.953V1.074H119.807V12ZM120.961 6.564C120.961 4.968 121.471 3.606 122.491 2.478C123.523 1.35 124.819 0.786 126.379 0.786C127.939 0.786 129.229 1.35 130.249 2.478C131.269 3.606 131.779 4.962 131.779 6.546C131.779 8.13 131.269 9.486 130.249 10.614C129.241 11.73 127.951 12.288 126.379 12.288C124.807 12.288 123.511 11.73 122.491 10.614C121.471 9.498 120.961 8.148 120.961 6.564ZM122.887 6.438C122.887 7.506 123.223 8.448 123.895 9.264C124.567 10.068 125.395 10.47 126.379 10.47C127.435 10.47 128.281 10.086 128.917 9.318C129.553 8.538 129.871 7.578 129.871 6.438C129.871 5.358 129.553 4.452 128.917 3.72C128.281 2.976 127.429 2.604 126.361 2.604C125.305 2.604 124.459 2.976 123.823 3.72C123.199 4.464 122.887 5.37 122.887 6.438ZM132.821 0.786H134.225L140.399 9.012L140.435 1.074H142.271V12.216H140.885L134.693 4.008L134.675 12H132.821V0.786Z" fill="black"/>
</svg>
