<svg width="37" height="37" viewBox="0 0 37 37" fill="none" xmlns="http://www.w3.org/2000/svg">
<g clip-path="url(#clip0)">
<path d="M0 35.1929V1.8201C0.101172 1.37612 0.325585 0.969749 0.647412 0.647753C0.969238 0.325757 1.3754 0.101225 1.81914 0L35.1744 0C35.6246 0.0961032 36.0383 0.318201 36.3672 0.640431C36.6962 0.962662 36.9269 1.37176 37.0325 1.8201V35.1929C36.6297 36.636 35.6097 37.026 34.2128 37C31.5621 36.9415 28.9048 37 26.2476 37H25.5979V22.6992H30.3536L30.8474 19.098C30.9124 18.6365 30.9774 18.1685 31.0748 17.7135C31.1723 17.2584 31.0748 17.0634 30.555 17.0634H26.1696C25.9682 17.0634 25.7668 17.0634 25.5589 17.0634C25.5589 15.8739 25.5589 14.7558 25.5589 13.6377C25.5385 13.1011 25.6088 12.5649 25.7668 12.0517C25.9256 11.6869 26.1946 11.381 26.536 11.1769C26.8774 10.9729 27.2741 10.881 27.6704 10.9141C28.8723 10.8751 30.0808 10.9141 31.3087 10.9141V5.79831C30.8796 5.70728 30.4458 5.64001 30.0093 5.5968C29.5025 5.5968 28.9828 5.66831 28.476 5.6293C27.2193 5.51226 25.9522 5.57795 24.7143 5.82432C23.3533 6.11013 22.1404 6.87611 21.2969 7.98243C20.4426 9.015 19.9457 10.2967 19.8806 11.6356C19.8221 13.2217 19.8026 14.8078 19.7701 16.3939V17.0439H14.9429V22.6992H19.7637V37H19.036C13.6306 37 8.22511 37 2.79368 37C1.42283 37.0065 0.40281 36.636 0 35.1929Z" fill="black"/>
</g>
<defs>
<clipPath id="clip0">
<rect width="37" height="37" fill="white"/>
</clipPath>
</defs>
</svg>
