<svg width="125" height="13" viewBox="0 0 125 13" fill="none" xmlns="http://www.w3.org/2000/svg">
<path d="M10.44 6.186V6.456C10.44 8.196 9.996 9.606 9.108 10.686C8.22 11.754 7.002 12.288 5.454 12.288C3.954 12.288 2.712 11.736 1.728 10.632C0.744 9.528 0.252 8.178 0.252 6.582C0.252 4.926 0.75 3.546 1.746 2.442C2.754 1.338 4.038 0.786 5.598 0.786C7.614 0.786 9.054 1.656 9.918 3.396L8.262 4.278C7.71 3.018 6.804 2.388 5.544 2.388C4.572 2.388 3.768 2.808 3.132 3.648C2.496 4.476 2.178 5.46 2.178 6.6C2.178 7.74 2.49 8.706 3.114 9.498C3.738 10.29 4.548 10.686 5.544 10.686C6.396 10.686 7.074 10.386 7.578 9.786C8.082 9.186 8.334 8.472 8.334 7.644H5.724V6.186H10.44ZM13.5131 9.552L12.5411 12H10.5791L14.8271 0.786H16.4831L20.6231 12H18.6431L17.7251 9.552H13.5131ZM15.5471 3.468L13.9631 8.094H17.2211L15.5471 3.468ZM29.5317 4.638L26.7957 12.144H26.3457L23.7717 4.602L22.5297 12H20.6757L22.5117 0.786H23.8797L26.7237 8.292L29.4417 0.786H30.8277L32.4657 12H30.6117L29.5317 4.638ZM35.253 2.64V5.484H38.925V7.05H35.253V10.434H39.051V12H33.399V1.074H39.051V2.64H35.253ZM48.5111 9.552L47.5391 12H45.5771L49.8251 0.786H51.4811L55.6211 12H53.6411L52.7231 9.552H48.5111ZM50.5451 3.468L48.9611 8.094H52.2191L50.5451 3.468ZM63.5397 12H61.2537L58.1577 7.14L58.1397 12H56.2857V1.074H59.1837C61.6197 1.074 62.8377 2.172 62.8377 4.368C62.8377 5.196 62.6217 5.886 62.1897 6.438C61.7697 6.99 61.1937 7.308 60.4617 7.392L63.5397 12ZM58.1397 6.384H58.6977C60.2217 6.384 60.9837 5.73 60.9837 4.422C60.9837 3.162 60.2277 2.532 58.7157 2.532H58.1397V6.384ZM67.7017 12H66.0277V2.64H63.5977V1.074H70.1317V2.64H67.7017V12ZM76.9224 1.074H79.9824C81.5424 1.074 82.8084 1.59 83.7804 2.622C84.7644 3.654 85.2564 4.956 85.2564 6.528C85.2564 8.1 84.7584 9.408 83.7624 10.452C82.7784 11.484 81.5124 12 79.9644 12H76.9224V1.074ZM78.7764 10.326H79.4064C82.0224 10.326 83.3304 9.066 83.3304 6.546C83.3304 4.014 82.0224 2.748 79.4064 2.748H78.7764V10.326ZM88.128 2.64V5.484H91.8V7.05H88.128V10.434H91.926V12H86.274V1.074H91.926V2.64H88.128ZM98.6324 3.288C98.1644 2.628 97.5704 2.298 96.8504 2.298C96.3944 2.298 96.0104 2.436 95.6984 2.712C95.3864 2.988 95.2304 3.36 95.2304 3.828C95.2304 4.284 95.7944 4.83 96.9224 5.466C98.0624 6.102 98.6384 6.42 98.6504 6.42C99.4544 7.02 99.8564 7.728 99.8564 8.544C99.8564 9.66 99.5324 10.566 98.8844 11.262C98.2484 11.946 97.3724 12.288 96.2564 12.288C94.8404 12.288 93.7244 11.58 92.9084 10.164L94.0784 9.012C94.2344 9.432 94.5224 9.816 94.9424 10.164C95.3624 10.512 95.7944 10.686 96.2384 10.686C96.7664 10.686 97.1804 10.506 97.4804 10.146C97.7924 9.786 97.9484 9.348 97.9484 8.832C97.9484 8.46 97.8344 8.136 97.6064 7.86C97.3784 7.572 96.6044 7.14 95.2844 6.564C93.9764 5.976 93.3224 5.142 93.3224 4.062C93.3224 3.138 93.6224 2.364 94.2224 1.74C94.8344 1.104 95.5964 0.786 96.5084 0.786C97.7684 0.786 98.7644 1.194 99.4964 2.01L98.6324 3.288ZM102.95 12H101.096V1.074H102.95V12ZM114.292 6.186V6.456C114.292 8.196 113.848 9.606 112.96 10.686C112.072 11.754 110.854 12.288 109.306 12.288C107.806 12.288 106.564 11.736 105.58 10.632C104.596 9.528 104.104 8.178 104.104 6.582C104.104 4.926 104.602 3.546 105.598 2.442C106.606 1.338 107.89 0.786 109.45 0.786C111.466 0.786 112.906 1.656 113.77 3.396L112.114 4.278C111.562 3.018 110.656 2.388 109.396 2.388C108.424 2.388 107.62 2.808 106.984 3.648C106.348 4.476 106.03 5.46 106.03 6.6C106.03 7.74 106.342 8.706 106.966 9.498C107.59 10.29 108.4 10.686 109.396 10.686C110.248 10.686 110.926 10.386 111.43 9.786C111.934 9.186 112.186 8.472 112.186 7.644H109.576V6.186H114.292ZM115.331 0.786H116.735L122.909 9.012L122.945 1.074H124.781V12.216H123.395L117.203 4.008L117.185 12H115.331V0.786Z" fill="black"/>
</svg>
