<svg width="191" height="16" viewBox="0 0 191 16" fill="none" xmlns="http://www.w3.org/2000/svg">
<rect width="191" height="16" fill="black"/>
<path d="M9.276 10.788L11.11 4.39H11.866L13.784 10.788L15.66 4.502H17.172L14.288 13.168H13.196L11.39 7.33L9.654 13.168H8.548L5.846 4.502H7.358L9.276 10.788ZM19.0499 5.72V7.932H21.9059V9.15H19.0499V11.782L22.0039 11.782V13L17.6079 13V4.502L22.0039 4.502V5.72H19.0499ZM23.104 4.502H25.176C26.8746 4.502 27.724 5.272 27.724 6.812C27.724 7.568 27.4766 8.11867 26.982 8.464C27.43 8.53867 27.78 8.77667 28.032 9.178C28.2933 9.57933 28.424 10.0507 28.424 10.592C28.424 11.3853 28.172 11.9873 27.668 12.398C27.1733 12.7993 26.52 13 25.708 13H23.104V4.502ZM24.546 11.852H25.344C26.4453 11.852 26.996 11.3853 26.996 10.452C26.996 9.612 26.4173 9.192 25.26 9.192H24.546V11.852ZM24.546 8.156H25.19C25.9926 8.156 26.394 7.74533 26.394 6.924C26.394 6.04667 25.9973 5.608 25.204 5.608H24.546V8.156ZM31.9703 8.744V10.032H29.2263V8.744L31.9703 8.744ZM33.0571 4.502H35.1291C36.8277 4.502 37.6771 5.272 37.6771 6.812C37.6771 7.568 37.4297 8.11867 36.9351 8.464C37.3831 8.53867 37.7331 8.77667 37.9851 9.178C38.2464 9.57933 38.3771 10.0507 38.3771 10.592C38.3771 11.3853 38.1251 11.9873 37.6211 12.398C37.1264 12.7993 36.4731 13 35.6611 13H33.0571V4.502ZM34.4991 11.852H35.2971C36.3984 11.852 36.9491 11.3853 36.9491 10.452C36.9491 9.612 36.3704 9.192 35.2131 9.192H34.4991V11.852ZM34.4991 8.156H35.1431C35.9457 8.156 36.3471 7.74533 36.3471 6.924C36.3471 6.04667 35.9504 5.608 35.1571 5.608H34.4991V8.156ZM40.8735 11.096L40.1175 13H38.5915L41.8955 4.278H43.1835L46.4035 13H44.8635L44.1495 11.096H40.8735ZM42.4555 6.364L41.2235 9.962H43.7575L42.4555 6.364ZM51.0364 6.224C50.6724 5.71067 50.2104 5.454 49.6504 5.454C49.2957 5.454 48.997 5.56133 48.7544 5.776C48.5117 5.99067 48.3904 6.28 48.3904 6.644C48.3904 6.99867 48.829 7.42333 49.7064 7.918C50.593 8.41267 51.041 8.66 51.0504 8.66C51.6757 9.12667 51.9884 9.67733 51.9884 10.312C51.9884 11.18 51.7364 11.8847 51.2324 12.426C50.7377 12.958 50.0564 13.224 49.1884 13.224C48.087 13.224 47.219 12.6733 46.5844 11.572L47.4944 10.676C47.6157 11.0027 47.8397 11.3013 48.1664 11.572C48.493 11.8427 48.829 11.978 49.1744 11.978C49.585 11.978 49.907 11.838 50.1404 11.558C50.383 11.278 50.5044 10.9373 50.5044 10.536C50.5044 10.2467 50.4157 9.99467 50.2384 9.78C50.061 9.556 49.459 9.22 48.4324 8.772C47.415 8.31467 46.9064 7.666 46.9064 6.826C46.9064 6.10733 47.1397 5.50533 47.6064 5.02C48.0824 4.52533 48.675 4.278 49.3844 4.278C50.3644 4.278 51.139 4.59533 51.7084 5.23L51.0364 6.224ZM54.2823 5.72V7.932H57.1383V9.15H54.2823V11.782H57.2363V13L52.8403 13V4.502H57.2363V5.72H54.2823ZM58.3364 4.502H60.7164C61.9297 4.502 62.9144 4.90333 63.6704 5.706C64.4357 6.50867 64.8184 7.52133 64.8184 8.744C64.8184 9.96667 64.431 10.984 63.6564 11.796C62.891 12.5987 61.9064 13 60.7024 13H58.3364V4.502ZM59.7784 11.698H60.2684C62.303 11.698 63.3204 10.718 63.3204 8.758C63.3204 6.78867 62.303 5.804 60.2684 5.804H59.7784V11.698ZM71.8396 13H70.3976V4.502H71.8396V13ZM73.143 4.278H74.235L79.037 10.676L79.065 4.502H80.493V13.168H79.415L74.599 6.784L74.585 13H73.143V4.278ZM84.2916 13H82.9896V5.72H81.0996V4.502L86.1816 4.502V5.72H84.2916V13ZM88.2295 5.72V7.932H91.0855V9.15H88.2295V11.782H91.1835V13H86.7875V4.502L91.1835 4.502V5.72H88.2295ZM97.9256 13H96.1476L93.7396 9.22L93.7256 13H92.2836V4.502H94.5376C96.4323 4.502 97.3796 5.356 97.3796 7.064C97.3796 7.708 97.2116 8.24467 96.8756 8.674C96.549 9.10333 96.101 9.35067 95.5316 9.416L97.9256 13ZM93.7256 8.632L94.1596 8.632C95.345 8.632 95.9376 8.12333 95.9376 7.106C95.9376 6.126 95.3496 5.636 94.1736 5.636L93.7256 5.636V8.632ZM100.155 11.096L99.3987 13H97.8727L101.177 4.278H102.465L105.685 13H104.145L103.431 11.096H100.155ZM101.737 6.364L100.505 9.962H103.039L101.737 6.364ZM111.886 6.532C111.391 5.93467 110.77 5.636 110.024 5.636C109.249 5.636 108.6 5.958 108.078 6.602C107.555 7.23667 107.294 7.96467 107.294 8.786C107.294 9.57933 107.55 10.2933 108.064 10.928C108.586 11.5533 109.235 11.866 110.01 11.866C110.747 11.866 111.372 11.5673 111.886 10.97V12.72C111.195 13.056 110.556 13.224 109.968 13.224C108.792 13.224 107.802 12.79 107 11.922C106.197 11.054 105.796 10.018 105.796 8.814C105.796 7.56333 106.197 6.49467 107 5.608C107.802 4.72133 108.801 4.278 109.996 4.278C110.621 4.278 111.251 4.44133 111.886 4.768V6.532ZM115.573 13H114.271V5.72H112.381V4.502L117.463 4.502V5.72H115.573V13ZM119.623 13H118.181V4.502H119.623V13ZM120.52 8.772C120.52 7.53067 120.917 6.47133 121.71 5.594C122.513 4.71667 123.521 4.278 124.734 4.278C125.948 4.278 126.951 4.71667 127.744 5.594C128.538 6.47133 128.934 7.526 128.934 8.758C128.934 9.99 128.538 11.0447 127.744 11.922C126.96 12.79 125.957 13.224 124.734 13.224C123.512 13.224 122.504 12.79 121.71 11.922C120.917 11.054 120.52 10.004 120.52 8.772ZM122.018 8.674C122.018 9.50467 122.28 10.2373 122.802 10.872C123.325 11.4973 123.969 11.81 124.734 11.81C125.556 11.81 126.214 11.5113 126.708 10.914C127.203 10.3073 127.45 9.56067 127.45 8.674C127.45 7.834 127.203 7.12933 126.708 6.56C126.214 5.98133 125.551 5.692 124.72 5.692C123.899 5.692 123.241 5.98133 122.746 6.56C122.261 7.13867 122.018 7.84333 122.018 8.674ZM129.745 4.278H130.837L135.639 10.676L135.667 4.502H137.095V13.168H136.017L131.201 6.784L131.187 13H129.745V4.278ZM144.421 13H142.979V4.502H145.233C147.202 4.502 148.187 5.37933 148.187 7.134C148.187 8.926 147.282 9.822 145.471 9.822H144.421V13ZM144.421 8.674H145.135C146.19 8.674 146.717 8.16067 146.717 7.134C146.717 6.14467 146.176 5.65 145.093 5.65H144.421V8.674ZM154.568 13H152.79L150.382 9.22L150.368 13L148.926 13V4.502H151.18C153.075 4.502 154.022 5.356 154.022 7.064C154.022 7.708 153.854 8.24467 153.518 8.674C153.192 9.10333 152.744 9.35067 152.174 9.416L154.568 13ZM150.368 8.632H150.802C151.988 8.632 152.58 8.12333 152.58 7.106C152.58 6.126 151.992 5.636 150.816 5.636H150.368V8.632ZM154.809 8.772C154.809 7.53067 155.206 6.47133 155.999 5.594C156.802 4.71667 157.81 4.278 159.023 4.278C160.237 4.278 161.24 4.71667 162.033 5.594C162.827 6.47133 163.223 7.526 163.223 8.758C163.223 9.99 162.827 11.0447 162.033 11.922C161.249 12.79 160.246 13.224 159.023 13.224C157.801 13.224 156.793 12.79 155.999 11.922C155.206 11.054 154.809 10.004 154.809 8.772ZM156.307 8.674C156.307 9.50467 156.569 10.2373 157.091 10.872C157.614 11.4973 158.258 11.81 159.023 11.81C159.845 11.81 160.503 11.5113 160.997 10.914C161.492 10.3073 161.739 9.56067 161.739 8.674C161.739 7.834 161.492 7.12933 160.997 6.56C160.503 5.98133 159.84 5.692 159.009 5.692C158.188 5.692 157.53 5.98133 157.035 6.56C156.55 7.13867 156.307 7.84333 156.307 8.674ZM167.142 10.116C167.142 12.188 166.376 13.224 164.846 13.224C164.248 13.224 163.693 12.958 163.18 12.426L164.146 11.334C164.379 11.7167 164.631 11.908 164.902 11.908C165.172 11.908 165.373 11.7773 165.504 11.516C165.644 11.2547 165.714 10.6947 165.714 9.836V4.502H167.142V10.116ZM169.864 5.72V7.932H172.72V9.15H169.864V11.782H172.818V13H168.422V4.502H172.818V5.72H169.864ZM179.602 6.532C179.108 5.93467 178.487 5.636 177.74 5.636C176.966 5.636 176.317 5.958 175.794 6.602C175.272 7.23667 175.01 7.96467 175.01 8.786C175.01 9.57933 175.267 10.2933 175.78 10.928C176.303 11.5533 176.952 11.866 177.726 11.866C178.464 11.866 179.089 11.5673 179.602 10.97V12.72C178.912 13.056 178.272 13.224 177.684 13.224C176.508 13.224 175.519 12.79 174.716 11.922C173.914 11.054 173.512 10.018 173.512 8.814C173.512 7.56333 173.914 6.49467 174.716 5.608C175.519 4.72133 176.518 4.278 177.712 4.278C178.338 4.278 178.968 4.44133 179.602 4.768V6.532ZM183.29 13L181.988 13V5.72H180.098V4.502H185.18V5.72H183.29V13Z" fill="white"/>
</svg>
