<svg width="312" height="316" viewBox="0 0 312 316" fill="none" xmlns="http://www.w3.org/2000/svg">
<rect width="312" height="316" transform="matrix(1 0 0 -1 0 316)" fill="black"/>
<path d="M50.504 140H48.032V125.432H51.896C55.272 125.432 56.96 126.936 56.96 129.944C56.96 133.016 55.408 134.552 52.304 134.552H50.504V140ZM50.504 132.584H51.728C53.536 132.584 54.44 131.704 54.44 129.944C54.44 128.248 53.512 127.4 51.656 127.4H50.504V132.584ZM60.6993 137.912H65.0913V140H58.2273V125.432H60.6993V137.912ZM68.7206 136.736L67.4246 140H64.8086L70.4726 125.048H72.6806L78.2006 140H75.5606L74.3366 136.736H68.7206ZM71.4326 128.624L69.3206 134.792H73.6646L71.4326 128.624ZM81.7507 140H79.2787V125.432H81.7507V140ZM83.9851 125.048H85.8571L94.0891 136.016L94.1371 125.432H96.5851V140.288H94.7371L86.4811 129.344L86.4571 140H83.9851V125.048ZM105.977 132.752C105.977 130.624 106.657 128.808 108.017 127.304C109.393 125.8 111.121 125.048 113.201 125.048C115.281 125.048 117.001 125.8 118.361 127.304C119.721 128.808 120.401 130.616 120.401 132.728C120.401 134.84 119.721 136.648 118.361 138.152C117.017 139.64 115.297 140.384 113.201 140.384C111.105 140.384 109.377 139.64 108.017 138.152C106.657 136.664 105.977 134.864 105.977 132.752ZM108.545 132.584C108.545 134.008 108.993 135.264 109.889 136.352C110.785 137.424 111.889 137.96 113.201 137.96C114.609 137.96 115.737 137.448 116.585 136.424C117.433 135.384 117.857 134.104 117.857 132.584C117.857 131.144 117.433 129.936 116.585 128.96C115.737 127.968 114.601 127.472 113.177 127.472C111.769 127.472 110.641 127.968 109.793 128.96C108.961 129.952 108.545 131.16 108.545 132.584ZM128.846 128.384C128.222 127.504 127.43 127.064 126.47 127.064C125.862 127.064 125.35 127.248 124.934 127.616C124.518 127.984 124.31 128.48 124.31 129.104C124.31 129.712 125.062 130.44 126.566 131.288C128.086 132.136 128.854 132.56 128.87 132.56C129.942 133.36 130.478 134.304 130.478 135.392C130.478 136.88 130.046 138.088 129.182 139.016C128.334 139.928 127.166 140.384 125.678 140.384C123.79 140.384 122.302 139.44 121.214 137.552L122.774 136.016C122.982 136.576 123.366 137.088 123.926 137.552C124.486 138.016 125.062 138.248 125.654 138.248C126.358 138.248 126.91 138.008 127.31 137.528C127.726 137.048 127.934 136.464 127.934 135.776C127.934 135.28 127.782 134.848 127.478 134.48C127.174 134.096 126.142 133.52 124.382 132.752C122.638 131.968 121.766 130.856 121.766 129.416C121.766 128.184 122.166 127.152 122.966 126.32C123.782 125.472 124.798 125.048 126.014 125.048C127.694 125.048 129.022 125.592 129.998 126.68L128.846 128.384Z" fill="white"/>
<rect x="47" y="47" width="37.1" height="56" rx="6" fill="white"/>
<rect x="49.4" y="49.3999" width="32.3" height="51.2" rx="4" fill="white" stroke="black" stroke-width="2"/>
<circle cx="65.8" cy="95.8" r="2.8" fill="black"/>
<path d="M48.774 187.074H51.834C53.394 187.074 54.66 187.59 55.632 188.622C56.616 189.654 57.108 190.956 57.108 192.528C57.108 194.1 56.61 195.408 55.614 196.452C54.63 197.484 53.364 198 51.816 198H48.774V187.074ZM50.628 196.326H51.258C53.874 196.326 55.182 195.066 55.182 192.546C55.182 190.014 53.874 188.748 51.258 188.748H50.628V196.326ZM59.4216 194.616C59.4216 195.3 59.5716 195.864 59.8716 196.308C60.1716 196.752 60.5856 196.974 61.1136 196.974C61.9416 196.974 62.4696 196.566 62.6976 195.75L64.3536 196.02C63.8136 197.496 62.7336 198.234 61.1136 198.234C60.0336 198.234 59.1696 197.892 58.5216 197.208C57.8856 196.512 57.5676 195.612 57.5676 194.508C57.5676 193.344 57.8736 192.414 58.4856 191.718C59.1096 191.01 59.9496 190.656 61.0056 190.656C62.0736 190.656 62.9016 190.992 63.4896 191.664C64.0896 192.324 64.3896 193.23 64.3896 194.382V194.616H59.4216ZM62.7696 193.644C62.7696 193.152 62.6136 192.72 62.3016 192.348C62.0016 191.976 61.6056 191.79 61.1136 191.79C60.6336 191.79 60.2376 191.988 59.9256 192.384C59.6256 192.768 59.4756 193.188 59.4756 193.644H62.7696ZM69.1293 192.366C68.7453 192.006 68.3433 191.826 67.9233 191.826C67.2873 191.826 66.9693 192.114 66.9693 192.69C66.9693 193.014 67.2573 193.278 67.8333 193.482C68.8893 193.866 69.5433 194.22 69.7953 194.544C70.0473 194.856 70.1733 195.246 70.1733 195.714C70.1733 196.482 69.9033 197.094 69.3633 197.55C68.8353 198.006 68.1813 198.234 67.4013 198.234C66.3933 198.234 65.5593 197.838 64.8993 197.046L65.6733 196.056C66.2733 196.656 66.8253 196.956 67.3293 196.956C68.0613 196.956 68.4273 196.602 68.4273 195.894C68.4273 195.534 68.2353 195.27 67.8513 195.102C67.4673 194.922 67.1733 194.79 66.9693 194.706C65.8653 194.226 65.3133 193.644 65.3133 192.96C65.3133 192.276 65.5173 191.724 65.9253 191.304C66.3453 190.872 66.8913 190.656 67.5633 190.656C68.5233 190.656 69.2853 190.902 69.8493 191.394L69.1293 192.366ZM73.4147 187.902C73.4147 188.178 73.3127 188.418 73.1087 188.622C72.9047 188.826 72.6647 188.928 72.3887 188.928C72.1127 188.928 71.8727 188.826 71.6687 188.622C71.4647 188.418 71.3627 188.178 71.3627 187.902C71.3627 187.626 71.4647 187.386 71.6687 187.182C71.8727 186.978 72.1127 186.876 72.3887 186.876C72.6647 186.876 72.9047 186.978 73.1087 187.182C73.3127 187.386 73.4147 187.626 73.4147 187.902ZM73.2707 198H71.5247V190.89H73.2707V198ZM81.7146 197.388C81.7146 199.824 80.5806 201.042 78.3126 201.042C77.3046 201.042 76.4526 200.766 75.7566 200.214C75.0606 199.674 74.7126 198.966 74.7126 198.09H76.5666C76.5666 198.438 76.7406 198.78 77.0886 199.116C77.4366 199.452 77.8266 199.62 78.2586 199.62C79.3986 199.62 79.9686 198.936 79.9686 197.568V197.118C79.4766 197.742 78.7266 198.054 77.7186 198.054C76.7226 198.054 75.9366 197.706 75.3606 197.01C74.7966 196.314 74.5146 195.462 74.5146 194.454C74.5146 193.362 74.8206 192.45 75.4326 191.718C76.0446 190.986 76.8366 190.62 77.8086 190.62C78.7926 190.62 79.5126 190.926 79.9686 191.538V190.854H81.7146V197.388ZM80.2206 194.292C80.2206 193.644 80.0406 193.122 79.6806 192.726C79.3206 192.33 78.8466 192.132 78.2586 192.132C77.6706 192.132 77.1906 192.348 76.8186 192.78C76.4586 193.212 76.2786 193.758 76.2786 194.418C76.2786 195.834 76.9386 196.542 78.2586 196.542C78.8586 196.542 79.3326 196.332 79.6806 195.912C80.0406 195.48 80.2206 194.94 80.2206 194.292ZM84.8312 191.538C85.3232 190.95 86.0492 190.656 87.0092 190.656C88.6412 190.656 89.4572 191.658 89.4572 193.662V198H87.7292V194.238C87.7292 192.738 87.2672 191.988 86.3432 191.988C85.3352 191.988 84.8312 192.792 84.8312 194.4V198H83.0852V190.89H84.8312V191.538ZM92.2575 194.616C92.2575 195.3 92.4075 195.864 92.7075 196.308C93.0075 196.752 93.4215 196.974 93.9495 196.974C94.7775 196.974 95.3055 196.566 95.5335 195.75L97.1895 196.02C96.6495 197.496 95.5695 198.234 93.9495 198.234C92.8695 198.234 92.0055 197.892 91.3575 197.208C90.7215 196.512 90.4035 195.612 90.4035 194.508C90.4035 193.344 90.7095 192.414 91.3215 191.718C91.9455 191.01 92.7855 190.656 93.8415 190.656C94.9095 190.656 95.7375 190.992 96.3255 191.664C96.9255 192.324 97.2255 193.23 97.2255 194.382V194.616H92.2575ZM95.6055 193.644C95.6055 193.152 95.4495 192.72 95.1375 192.348C94.8375 191.976 94.4415 191.79 93.9495 191.79C93.4695 191.79 93.0735 191.988 92.7615 192.384C92.4615 192.768 92.3115 193.188 92.3115 193.644H95.6055ZM103.171 197.334C102.703 197.934 101.965 198.234 100.957 198.234C99.9493 198.234 99.1453 197.85 98.5453 197.082C97.9573 196.314 97.6633 195.414 97.6633 194.382C97.6633 193.35 97.9633 192.474 98.5633 191.754C99.1753 191.022 99.9553 190.656 100.903 190.656C101.911 190.656 102.655 190.95 103.135 191.538L103.171 185.706H104.917V198H103.171V197.334ZM103.369 194.436C103.369 193.812 103.177 193.278 102.793 192.834C102.409 192.39 101.947 192.168 101.407 192.168C100.867 192.168 100.399 192.39 100.003 192.834C99.6193 193.266 99.4273 193.806 99.4273 194.454C99.4273 195.09 99.6133 195.63 99.9853 196.074C100.369 196.506 100.849 196.722 101.425 196.722C102.001 196.722 102.469 196.512 102.829 196.092C103.189 195.66 103.369 195.108 103.369 194.436ZM119.102 198H117.392V197.352C116.888 197.94 116.138 198.234 115.142 198.234C114.146 198.234 113.348 197.85 112.748 197.082C112.16 196.314 111.866 195.414 111.866 194.382C111.866 193.35 112.166 192.474 112.766 191.754C113.378 191.022 114.158 190.656 115.106 190.656C116.114 190.656 116.876 190.956 117.392 191.556V190.89H119.102V198ZM117.59 194.436C117.59 193.776 117.404 193.236 117.032 192.816C116.66 192.384 116.18 192.168 115.592 192.168C115.016 192.168 114.542 192.378 114.17 192.798C113.81 193.206 113.63 193.752 113.63 194.436C113.63 195.12 113.816 195.672 114.188 196.092C114.56 196.512 115.04 196.722 115.628 196.722C116.216 196.722 116.69 196.518 117.05 196.11C117.41 195.702 117.59 195.144 117.59 194.436ZM131.416 192.744C130.972 192.3 130.474 192.078 129.922 192.078C129.274 192.078 128.764 192.312 128.392 192.78C128.02 193.248 127.834 193.824 127.834 194.508C127.834 195.18 128.044 195.732 128.464 196.164C128.884 196.596 129.394 196.812 129.994 196.812C130.51 196.812 130.984 196.584 131.416 196.128V197.802C130.912 198.09 130.33 198.234 129.67 198.234C128.638 198.234 127.78 197.868 127.096 197.136C126.412 196.404 126.07 195.51 126.07 194.454C126.07 193.398 126.418 192.504 127.114 191.772C127.822 191.028 128.704 190.656 129.76 190.656C130.384 190.656 130.936 190.806 131.416 191.106V192.744ZM139.657 194.436C139.657 195.552 139.315 196.464 138.631 197.172C137.947 197.88 137.047 198.234 135.931 198.234C134.827 198.234 133.927 197.88 133.231 197.172C132.535 196.464 132.187 195.558 132.187 194.454C132.187 193.338 132.529 192.426 133.213 191.718C133.897 191.01 134.797 190.656 135.913 190.656C137.029 190.656 137.929 191.01 138.613 191.718C139.309 192.414 139.657 193.32 139.657 194.436ZM133.951 194.472C133.951 195.132 134.137 195.672 134.509 196.092C134.881 196.512 135.361 196.722 135.949 196.722C136.537 196.722 137.005 196.5 137.353 196.056C137.713 195.6 137.893 195.066 137.893 194.454C137.893 193.83 137.713 193.296 137.353 192.852C136.993 192.396 136.519 192.168 135.931 192.168C135.355 192.168 134.881 192.384 134.509 192.816C134.137 193.248 133.951 193.8 133.951 194.472ZM142.364 191.538C142.856 190.95 143.582 190.656 144.542 190.656C146.174 190.656 146.99 191.658 146.99 193.662V198H145.262V194.238C145.262 192.738 144.8 191.988 143.876 191.988C142.868 191.988 142.364 192.792 142.364 194.4V198H140.618V190.89H142.364V191.538ZM153.283 192.744C152.839 192.3 152.341 192.078 151.789 192.078C151.141 192.078 150.631 192.312 150.259 192.78C149.887 193.248 149.701 193.824 149.701 194.508C149.701 195.18 149.911 195.732 150.331 196.164C150.751 196.596 151.261 196.812 151.861 196.812C152.377 196.812 152.851 196.584 153.283 196.128V197.802C152.779 198.09 152.197 198.234 151.537 198.234C150.505 198.234 149.647 197.868 148.963 197.136C148.279 196.404 147.937 195.51 147.937 194.454C147.937 193.398 148.285 192.504 148.981 191.772C149.689 191.028 150.571 190.656 151.627 190.656C152.251 190.656 152.803 190.806 153.283 191.106V192.744ZM156.682 187.902C156.682 188.178 156.58 188.418 156.376 188.622C156.172 188.826 155.932 188.928 155.656 188.928C155.38 188.928 155.14 188.826 154.936 188.622C154.732 188.418 154.63 188.178 154.63 187.902C154.63 187.626 154.732 187.386 154.936 187.182C155.14 186.978 155.38 186.876 155.656 186.876C155.932 186.876 156.172 186.978 156.376 187.182C156.58 187.386 156.682 187.626 156.682 187.902ZM156.538 198H154.792V190.89H156.538V198ZM162.012 192.366C161.628 192.006 161.226 191.826 160.806 191.826C160.17 191.826 159.852 192.114 159.852 192.69C159.852 193.014 160.14 193.278 160.716 193.482C161.772 193.866 162.426 194.22 162.678 194.544C162.93 194.856 163.056 195.246 163.056 195.714C163.056 196.482 162.786 197.094 162.246 197.55C161.718 198.006 161.064 198.234 160.284 198.234C159.276 198.234 158.442 197.838 157.782 197.046L158.556 196.056C159.156 196.656 159.708 196.956 160.212 196.956C160.944 196.956 161.31 196.602 161.31 195.894C161.31 195.534 161.118 195.27 160.734 195.102C160.35 194.922 160.056 194.79 159.852 194.706C158.748 194.226 158.196 193.644 158.196 192.96C158.196 192.276 158.4 191.724 158.808 191.304C159.228 190.872 159.774 190.656 160.446 190.656C161.406 190.656 162.168 190.902 162.732 191.394L162.012 192.366ZM165.506 194.616C165.506 195.3 165.656 195.864 165.956 196.308C166.256 196.752 166.67 196.974 167.198 196.974C168.026 196.974 168.554 196.566 168.782 195.75L170.438 196.02C169.898 197.496 168.818 198.234 167.198 198.234C166.118 198.234 165.254 197.892 164.606 197.208C163.97 196.512 163.652 195.612 163.652 194.508C163.652 193.344 163.958 192.414 164.57 191.718C165.194 191.01 166.034 190.656 167.09 190.656C168.158 190.656 168.986 190.992 169.574 191.664C170.174 192.324 170.474 193.23 170.474 194.382V194.616H165.506ZM168.854 193.644C168.854 193.152 168.698 192.72 168.386 192.348C168.086 191.976 167.69 191.79 167.198 191.79C166.718 191.79 166.322 191.988 166.01 192.384C165.71 192.768 165.56 193.188 165.56 193.644H168.854ZM179.173 191.52C179.617 190.944 180.301 190.656 181.225 190.656C182.029 190.656 182.665 191.028 183.133 191.772C183.589 191.028 184.327 190.656 185.347 190.656C186.847 190.656 187.597 191.628 187.597 193.572V198H185.869V194.256C185.869 192.744 185.455 191.988 184.627 191.988C183.799 191.988 183.385 192.828 183.385 194.508V198H181.639V194.4C181.639 192.792 181.273 191.988 180.541 191.988C179.629 191.988 179.173 192.828 179.173 194.508V198H177.427V190.89H179.173V191.52ZM196.048 194.436C196.048 195.552 195.706 196.464 195.022 197.172C194.338 197.88 193.438 198.234 192.322 198.234C191.218 198.234 190.318 197.88 189.622 197.172C188.926 196.464 188.578 195.558 188.578 194.454C188.578 193.338 188.92 192.426 189.604 191.718C190.288 191.01 191.188 190.656 192.304 190.656C193.42 190.656 194.32 191.01 195.004 191.718C195.7 192.414 196.048 193.32 196.048 194.436ZM190.342 194.472C190.342 195.132 190.528 195.672 190.9 196.092C191.272 196.512 191.752 196.722 192.34 196.722C192.928 196.722 193.396 196.5 193.744 196.056C194.104 195.6 194.284 195.066 194.284 194.454C194.284 193.83 194.104 193.296 193.744 192.852C193.384 192.396 192.91 192.168 192.322 192.168C191.746 192.168 191.272 192.384 190.9 192.816C190.528 193.248 190.342 193.8 190.342 194.472ZM197.009 185.706H198.755V191.538C199.259 190.95 200.009 190.656 201.005 190.656C201.941 190.656 202.715 191.028 203.327 191.772C203.951 192.516 204.263 193.392 204.263 194.4C204.263 195.492 203.957 196.404 203.345 197.136C202.733 197.868 201.941 198.234 200.969 198.234C199.925 198.234 199.199 197.934 198.791 197.334L198.755 198H197.009V185.706ZM202.481 194.436C202.481 193.836 202.295 193.308 201.923 192.852C201.551 192.396 201.077 192.168 200.501 192.168C199.925 192.168 199.457 192.396 199.097 192.852C198.737 193.296 198.557 193.83 198.557 194.454C198.557 195.066 198.743 195.6 199.115 196.056C199.499 196.5 199.967 196.722 200.519 196.722C201.119 196.722 201.593 196.506 201.941 196.074C202.301 195.63 202.481 195.084 202.481 194.436ZM207.342 187.902C207.342 188.178 207.24 188.418 207.036 188.622C206.832 188.826 206.592 188.928 206.316 188.928C206.04 188.928 205.8 188.826 205.596 188.622C205.392 188.418 205.29 188.178 205.29 187.902C205.29 187.626 205.392 187.386 205.596 187.182C205.8 186.978 206.04 186.876 206.316 186.876C206.592 186.876 206.832 186.978 207.036 187.182C207.24 187.386 207.342 187.626 207.342 187.902ZM207.198 198H205.452V190.89H207.198V198ZM210.764 198H209.018V185.706H210.764V198ZM213.687 194.616C213.687 195.3 213.837 195.864 214.137 196.308C214.437 196.752 214.851 196.974 215.379 196.974C216.207 196.974 216.735 196.566 216.963 195.75L218.619 196.02C218.079 197.496 216.999 198.234 215.379 198.234C214.299 198.234 213.435 197.892 212.787 197.208C212.151 196.512 211.833 195.612 211.833 194.508C211.833 193.344 212.139 192.414 212.751 191.718C213.375 191.01 214.215 190.656 215.271 190.656C216.339 190.656 217.167 190.992 217.755 191.664C218.355 192.324 218.655 193.23 218.655 194.382V194.616H213.687ZM217.035 193.644C217.035 193.152 216.879 192.72 216.567 192.348C216.267 191.976 215.871 191.79 215.379 191.79C214.899 191.79 214.503 191.988 214.191 192.384C213.891 192.768 213.741 193.188 213.741 193.644H217.035ZM50.862 205.902C50.862 206.178 50.76 206.418 50.556 206.622C50.352 206.826 50.112 206.928 49.836 206.928C49.56 206.928 49.32 206.826 49.116 206.622C48.912 206.418 48.81 206.178 48.81 205.902C48.81 205.626 48.912 205.386 49.116 205.182C49.32 204.978 49.56 204.876 49.836 204.876C50.112 204.876 50.352 204.978 50.556 205.182C50.76 205.386 50.862 205.626 50.862 205.902ZM50.718 216H48.972V208.89H50.718V216ZM54.1398 209.538C54.6318 208.95 55.3578 208.656 56.3178 208.656C57.9498 208.656 58.7658 209.658 58.7658 211.662V216H57.0378V212.238C57.0378 210.738 56.5758 209.988 55.6518 209.988C54.6438 209.988 54.1398 210.792 54.1398 212.4V216H52.3938V208.89H54.1398V209.538ZM62.3581 216H60.6121V210.456H59.7661V209.034H60.6121V206.478H62.3581V209.034H63.7441V210.456H62.3581V216ZM65.5388 212.616C65.5388 213.3 65.6888 213.864 65.9888 214.308C66.2888 214.752 66.7028 214.974 67.2308 214.974C68.0588 214.974 68.5868 214.566 68.8148 213.75L70.4708 214.02C69.9308 215.496 68.8508 216.234 67.2308 216.234C66.1508 216.234 65.2868 215.892 64.6388 215.208C64.0028 214.512 63.6848 213.612 63.6848 212.508C63.6848 211.344 63.9908 210.414 64.6028 209.718C65.2268 209.01 66.0668 208.656 67.1228 208.656C68.1908 208.656 69.0188 208.992 69.6068 209.664C70.2068 210.324 70.5068 211.23 70.5068 212.382V212.616H65.5388ZM68.8868 211.644C68.8868 211.152 68.7308 210.72 68.4188 210.348C68.1188 209.976 67.7228 209.79 67.2308 209.79C66.7508 209.79 66.3548 209.988 66.0428 210.384C65.7428 210.768 65.5928 211.188 65.5928 211.644H68.8868ZM73.1945 209.628C73.6385 208.98 74.3345 208.656 75.2825 208.656C75.5825 208.656 75.8585 208.716 76.1105 208.836L75.8945 210.42C75.6305 210.252 75.3425 210.168 75.0305 210.168C73.8065 210.168 73.1945 211.044 73.1945 212.796V216H71.4485V208.89H73.1945V209.628ZM78.7191 216H76.9731V210.456H76.1451V209.034H76.9731V206.802C76.9731 204.63 77.8191 203.544 79.5111 203.544C79.8591 203.544 80.1831 203.622 80.4831 203.778V205.29C80.1711 205.134 79.8951 205.056 79.6551 205.056C79.3311 205.056 79.0911 205.176 78.9351 205.416C78.7911 205.644 78.7191 206.202 78.7191 207.09V209.034H80.4831V210.456H78.7191V216ZM87.8836 216H86.1736V215.352C85.6696 215.94 84.9196 216.234 83.9236 216.234C82.9276 216.234 82.1296 215.85 81.5296 215.082C80.9416 214.314 80.6476 213.414 80.6476 212.382C80.6476 211.35 80.9476 210.474 81.5476 209.754C82.1596 209.022 82.9396 208.656 83.8876 208.656C84.8956 208.656 85.6576 208.956 86.1736 209.556V208.89H87.8836V216ZM86.3716 212.436C86.3716 211.776 86.1856 211.236 85.8136 210.816C85.4416 210.384 84.9616 210.168 84.3736 210.168C83.7976 210.168 83.3236 210.378 82.9516 210.798C82.5916 211.206 82.4116 211.752 82.4116 212.436C82.4116 213.12 82.5976 213.672 82.9696 214.092C83.3416 214.512 83.8216 214.722 84.4096 214.722C84.9976 214.722 85.4716 214.518 85.8316 214.11C86.1916 213.702 86.3716 213.144 86.3716 212.436ZM94.185 210.744C93.741 210.3 93.243 210.078 92.691 210.078C92.043 210.078 91.533 210.312 91.161 210.78C90.789 211.248 90.603 211.824 90.603 212.508C90.603 213.18 90.813 213.732 91.233 214.164C91.653 214.596 92.163 214.812 92.763 214.812C93.279 214.812 93.753 214.584 94.185 214.128V215.802C93.681 216.09 93.099 216.234 92.439 216.234C91.407 216.234 90.549 215.868 89.865 215.136C89.181 214.404 88.839 213.51 88.839 212.454C88.839 211.398 89.187 210.504 89.883 209.772C90.591 209.028 91.473 208.656 92.529 208.656C93.153 208.656 93.705 208.806 94.185 209.106V210.744ZM96.7927 212.616C96.7927 213.3 96.9427 213.864 97.2427 214.308C97.5427 214.752 97.9567 214.974 98.4847 214.974C99.3127 214.974 99.8407 214.566 100.069 213.75L101.725 214.02C101.185 215.496 100.105 216.234 98.4847 216.234C97.4047 216.234 96.5407 215.892 95.8927 215.208C95.2567 214.512 94.9387 213.612 94.9387 212.508C94.9387 211.344 95.2447 210.414 95.8567 209.718C96.4807 209.01 97.3207 208.656 98.3767 208.656C99.4447 208.656 100.273 208.992 100.861 209.664C101.461 210.324 101.761 211.23 101.761 212.382V212.616H96.7927ZM100.141 211.644C100.141 211.152 99.9847 210.72 99.6727 210.348C99.3727 209.976 98.9767 209.79 98.4847 209.79C98.0047 209.79 97.6087 209.988 97.2967 210.384C96.9967 210.768 96.8467 211.188 96.8467 211.644H100.141ZM115.446 216H113.736V215.352C113.232 215.94 112.482 216.234 111.486 216.234C110.49 216.234 109.692 215.85 109.092 215.082C108.504 214.314 108.21 213.414 108.21 212.382C108.21 211.35 108.51 210.474 109.11 209.754C109.722 209.022 110.502 208.656 111.45 208.656C112.458 208.656 113.22 208.956 113.736 209.556V208.89H115.446V216ZM113.934 212.436C113.934 211.776 113.748 211.236 113.376 210.816C113.004 210.384 112.524 210.168 111.936 210.168C111.36 210.168 110.886 210.378 110.514 210.798C110.154 211.206 109.974 211.752 109.974 212.436C109.974 213.12 110.16 213.672 110.532 214.092C110.904 214.512 111.384 214.722 111.972 214.722C112.56 214.722 113.034 214.518 113.394 214.11C113.754 213.702 113.934 213.144 113.934 212.436ZM118.652 209.538C119.144 208.95 119.87 208.656 120.83 208.656C122.462 208.656 123.278 209.658 123.278 211.662V216H121.55V212.238C121.55 210.738 121.088 209.988 120.164 209.988C119.156 209.988 118.652 210.792 118.652 212.4V216H116.906V208.89H118.652V209.538ZM129.732 215.334C129.264 215.934 128.526 216.234 127.518 216.234C126.51 216.234 125.706 215.85 125.106 215.082C124.518 214.314 124.224 213.414 124.224 212.382C124.224 211.35 124.524 210.474 125.124 209.754C125.736 209.022 126.516 208.656 127.464 208.656C128.472 208.656 129.216 208.95 129.696 209.538L129.732 203.706H131.478V216H129.732V215.334ZM129.93 212.436C129.93 211.812 129.738 211.278 129.354 210.834C128.97 210.39 128.508 210.168 127.968 210.168C127.428 210.168 126.96 210.39 126.564 210.834C126.18 211.266 125.988 211.806 125.988 212.454C125.988 213.09 126.174 213.63 126.546 214.074C126.93 214.506 127.41 214.722 127.986 214.722C128.562 214.722 129.03 214.512 129.39 214.092C129.75 213.66 129.93 213.108 129.93 212.436ZM141.073 205.902C141.073 206.178 140.971 206.418 140.767 206.622C140.563 206.826 140.323 206.928 140.047 206.928C139.771 206.928 139.531 206.826 139.327 206.622C139.123 206.418 139.021 206.178 139.021 205.902C139.021 205.626 139.123 205.386 139.327 205.182C139.531 204.978 139.771 204.876 140.047 204.876C140.323 204.876 140.563 204.978 140.767 205.182C140.971 205.386 141.073 205.626 141.073 205.902ZM140.929 216H139.183V208.89H140.929V216ZM144.747 216H143.001V210.456H142.155V209.034H143.001V206.478H144.747V209.034H146.133V210.456H144.747V216ZM150.375 210.366C149.991 210.006 149.589 209.826 149.169 209.826C148.533 209.826 148.215 210.114 148.215 210.69C148.215 211.014 148.503 211.278 149.079 211.482C150.135 211.866 150.789 212.22 151.041 212.544C151.293 212.856 151.419 213.246 151.419 213.714C151.419 214.482 151.149 215.094 150.609 215.55C150.081 216.006 149.427 216.234 148.647 216.234C147.639 216.234 146.805 215.838 146.145 215.046L146.919 214.056C147.519 214.656 148.071 214.956 148.575 214.956C149.307 214.956 149.673 214.602 149.673 213.894C149.673 213.534 149.481 213.27 149.097 213.102C148.713 212.922 148.419 212.79 148.215 212.706C147.111 212.226 146.559 211.644 146.559 210.96C146.559 210.276 146.763 209.724 147.171 209.304C147.591 208.872 148.137 208.656 148.809 208.656C149.769 208.656 150.531 208.902 151.095 209.394L150.375 210.366ZM161.231 213.534L163.121 208.656H163.751L165.731 213.516L167.495 208.89H169.421L166.109 216.144H165.227L163.589 211.59L161.717 216.144H160.817L157.559 208.89H159.485L161.231 213.534ZM176.6 216H174.89V215.352C174.386 215.94 173.636 216.234 172.64 216.234C171.644 216.234 170.846 215.85 170.246 215.082C169.658 214.314 169.364 213.414 169.364 212.382C169.364 211.35 169.664 210.474 170.264 209.754C170.876 209.022 171.656 208.656 172.604 208.656C173.612 208.656 174.374 208.956 174.89 209.556V208.89H176.6V216ZM175.088 212.436C175.088 211.776 174.902 211.236 174.53 210.816C174.158 210.384 173.678 210.168 173.09 210.168C172.514 210.168 172.04 210.378 171.668 210.798C171.308 211.206 171.128 211.752 171.128 212.436C171.128 213.12 171.314 213.672 171.686 214.092C172.058 214.512 172.538 214.722 173.126 214.722C173.714 214.722 174.188 214.518 174.548 214.11C174.908 213.702 175.088 213.144 175.088 212.436ZM177.232 208.89H179.248L181.102 213.156L183.046 208.89H185.026L179.986 218.97H178.042L180.238 214.902L177.232 208.89ZM198.597 212.436C198.597 213.552 198.255 214.464 197.571 215.172C196.887 215.88 195.987 216.234 194.871 216.234C193.767 216.234 192.867 215.88 192.171 215.172C191.475 214.464 191.127 213.558 191.127 212.454C191.127 211.338 191.469 210.426 192.153 209.718C192.837 209.01 193.737 208.656 194.853 208.656C195.969 208.656 196.869 209.01 197.553 209.718C198.249 210.414 198.597 211.32 198.597 212.436ZM192.891 212.472C192.891 213.132 193.077 213.672 193.449 214.092C193.821 214.512 194.301 214.722 194.889 214.722C195.477 214.722 195.945 214.5 196.293 214.056C196.653 213.6 196.833 213.066 196.833 212.454C196.833 211.83 196.653 211.296 196.293 210.852C195.933 210.396 195.459 210.168 194.871 210.168C194.295 210.168 193.821 210.384 193.449 210.816C193.077 211.248 192.891 211.8 192.891 212.472ZM201.52 216H199.774V210.456H198.946V209.034H199.774V206.802C199.774 204.63 200.62 203.544 202.312 203.544C202.66 203.544 202.984 203.622 203.284 203.778V205.29C202.972 205.134 202.696 205.056 202.456 205.056C202.132 205.056 201.892 205.176 201.736 205.416C201.592 205.644 201.52 206.202 201.52 207.09V209.034H203.284V210.456H201.52V216ZM50.862 223.902C50.862 224.178 50.76 224.418 50.556 224.622C50.352 224.826 50.112 224.928 49.836 224.928C49.56 224.928 49.32 224.826 49.116 224.622C48.912 224.418 48.81 224.178 48.81 223.902C48.81 223.626 48.912 223.386 49.116 223.182C49.32 222.978 49.56 222.876 49.836 222.876C50.112 222.876 50.352 222.978 50.556 223.182C50.76 223.386 50.862 223.626 50.862 223.902ZM50.718 234H48.972V226.89H50.718V234ZM54.1398 227.538C54.6318 226.95 55.3578 226.656 56.3178 226.656C57.9498 226.656 58.7658 227.658 58.7658 229.662V234H57.0378V230.238C57.0378 228.738 56.5758 227.988 55.6518 227.988C54.6438 227.988 54.1398 228.792 54.1398 230.4V234H52.3938V226.89H54.1398V227.538ZM62.3581 234H60.6121V228.456H59.7661V227.034H60.6121V224.478H62.3581V227.034H63.7441V228.456H62.3581V234ZM65.5388 230.616C65.5388 231.3 65.6888 231.864 65.9888 232.308C66.2888 232.752 66.7028 232.974 67.2308 232.974C68.0588 232.974 68.5868 232.566 68.8148 231.75L70.4708 232.02C69.9308 233.496 68.8508 234.234 67.2308 234.234C66.1508 234.234 65.2868 233.892 64.6388 233.208C64.0028 232.512 63.6848 231.612 63.6848 230.508C63.6848 229.344 63.9908 228.414 64.6028 227.718C65.2268 227.01 66.0668 226.656 67.1228 226.656C68.1908 226.656 69.0188 226.992 69.6068 227.664C70.2068 228.324 70.5068 229.23 70.5068 230.382V230.616H65.5388ZM68.8868 229.644C68.8868 229.152 68.7308 228.72 68.4188 228.348C68.1188 227.976 67.7228 227.79 67.2308 227.79C66.7508 227.79 66.3548 227.988 66.0428 228.384C65.7428 228.768 65.5928 229.188 65.5928 229.644H68.8868ZM73.1945 227.628C73.6385 226.98 74.3345 226.656 75.2825 226.656C75.5825 226.656 75.8585 226.716 76.1105 226.836L75.8945 228.42C75.6305 228.252 75.3425 228.168 75.0305 228.168C73.8065 228.168 73.1945 229.044 73.1945 230.796V234H71.4485V226.89H73.1945V227.628ZM83.4891 234H81.7791V233.352C81.2751 233.94 80.5251 234.234 79.5291 234.234C78.5331 234.234 77.7351 233.85 77.1351 233.082C76.5471 232.314 76.2531 231.414 76.2531 230.382C76.2531 229.35 76.5531 228.474 77.1531 227.754C77.7651 227.022 78.5451 226.656 79.4931 226.656C80.5011 226.656 81.2631 226.956 81.7791 227.556V226.89H83.4891V234ZM81.9771 230.436C81.9771 229.776 81.7911 229.236 81.4191 228.816C81.0471 228.384 80.5671 228.168 79.9791 228.168C79.4031 228.168 78.9291 228.378 78.5571 228.798C78.1971 229.206 78.0171 229.752 78.0171 230.436C78.0171 231.12 78.2031 231.672 78.5751 232.092C78.9471 232.512 79.4271 232.722 80.0151 232.722C80.6031 232.722 81.0771 232.518 81.4371 232.11C81.7971 231.702 81.9771 231.144 81.9771 230.436ZM89.7905 228.744C89.3465 228.3 88.8485 228.078 88.2965 228.078C87.6485 228.078 87.1385 228.312 86.7665 228.78C86.3945 229.248 86.2085 229.824 86.2085 230.508C86.2085 231.18 86.4185 231.732 86.8385 232.164C87.2585 232.596 87.7685 232.812 88.3685 232.812C88.8845 232.812 89.3585 232.584 89.7905 232.128V233.802C89.2865 234.09 88.7045 234.234 88.0445 234.234C87.0125 234.234 86.1545 233.868 85.4705 233.136C84.7865 232.404 84.4445 231.51 84.4445 230.454C84.4445 229.398 84.7925 228.504 85.4885 227.772C86.1965 227.028 87.0785 226.656 88.1345 226.656C88.7585 226.656 89.3105 226.806 89.7905 227.106V228.744ZM93.1901 234H91.4441V228.456H90.5981V227.034H91.4441V224.478H93.1901V227.034H94.5761V228.456H93.1901V234ZM97.1628 223.902C97.1628 224.178 97.0608 224.418 96.8568 224.622C96.6528 224.826 96.4128 224.928 96.1368 224.928C95.8608 224.928 95.6208 224.826 95.4168 224.622C95.2128 224.418 95.1108 224.178 95.1108 223.902C95.1108 223.626 95.2128 223.386 95.4168 223.182C95.6208 222.978 95.8608 222.876 96.1368 222.876C96.4128 222.876 96.6528 222.978 96.8568 223.182C97.0608 223.386 97.1628 223.626 97.1628 223.902ZM97.0188 234H95.2728V226.89H97.0188V234ZM105.679 230.436C105.679 231.552 105.337 232.464 104.653 233.172C103.969 233.88 103.069 234.234 101.953 234.234C100.849 234.234 99.9486 233.88 99.2526 233.172C98.5566 232.464 98.2086 231.558 98.2086 230.454C98.2086 229.338 98.5506 228.426 99.2346 227.718C99.9186 227.01 100.819 226.656 101.935 226.656C103.051 226.656 103.951 227.01 104.635 227.718C105.331 228.414 105.679 229.32 105.679 230.436ZM99.9726 230.472C99.9726 231.132 100.159 231.672 100.531 232.092C100.903 232.512 101.383 232.722 101.971 232.722C102.559 232.722 103.027 232.5 103.375 232.056C103.735 231.6 103.915 231.066 103.915 230.454C103.915 229.83 103.735 229.296 103.375 228.852C103.015 228.396 102.541 228.168 101.953 228.168C101.377 228.168 100.903 228.384 100.531 228.816C100.159 229.248 99.9726 229.8 99.9726 230.472ZM108.386 227.538C108.878 226.95 109.604 226.656 110.564 226.656C112.196 226.656 113.012 227.658 113.012 229.662V234H111.284V230.238C111.284 228.738 110.822 227.988 109.898 227.988C108.89 227.988 108.386 228.792 108.386 230.4V234H106.64V226.89H108.386V227.538ZM117.558 231.948L115.47 236.304L114.12 236.142L115.704 231.732L117.558 231.948ZM131.407 234H129.697V233.352C129.193 233.94 128.443 234.234 127.447 234.234C126.451 234.234 125.653 233.85 125.053 233.082C124.465 232.314 124.171 231.414 124.171 230.382C124.171 229.35 124.471 228.474 125.071 227.754C125.683 227.022 126.463 226.656 127.411 226.656C128.419 226.656 129.181 226.956 129.697 227.556V226.89H131.407V234ZM129.895 230.436C129.895 229.776 129.709 229.236 129.337 228.816C128.965 228.384 128.485 228.168 127.897 228.168C127.321 228.168 126.847 228.378 126.475 228.798C126.115 229.206 125.935 229.752 125.935 230.436C125.935 231.12 126.121 231.672 126.493 232.092C126.865 232.512 127.345 232.722 127.933 232.722C128.521 232.722 128.995 232.518 129.355 232.11C129.715 231.702 129.895 231.144 129.895 230.436ZM135.008 223.902C135.008 224.178 134.906 224.418 134.702 224.622C134.498 224.826 134.258 224.928 133.982 224.928C133.706 224.928 133.466 224.826 133.262 224.622C133.058 224.418 132.956 224.178 132.956 223.902C132.956 223.626 133.058 223.386 133.262 223.182C133.466 222.978 133.706 222.876 133.982 222.876C134.258 222.876 134.498 222.978 134.702 223.182C134.906 223.386 135.008 223.626 135.008 223.902ZM134.864 234H133.118V226.89H134.864V234ZM138.286 227.52C138.73 226.944 139.414 226.656 140.338 226.656C141.142 226.656 141.778 227.028 142.246 227.772C142.702 227.028 143.44 226.656 144.46 226.656C145.96 226.656 146.71 227.628 146.71 229.572V234H144.982V230.256C144.982 228.744 144.568 227.988 143.74 227.988C142.912 227.988 142.498 228.828 142.498 230.508V234H140.752V230.4C140.752 228.792 140.386 227.988 139.654 227.988C138.742 227.988 138.286 228.828 138.286 230.508V234H136.54V226.89H138.286V227.52ZM149.527 230.616C149.527 231.3 149.677 231.864 149.977 232.308C150.277 232.752 150.691 232.974 151.219 232.974C152.047 232.974 152.575 232.566 152.803 231.75L154.459 232.02C153.919 233.496 152.839 234.234 151.219 234.234C150.139 234.234 149.275 233.892 148.627 233.208C147.991 232.512 147.673 231.612 147.673 230.508C147.673 229.344 147.979 228.414 148.591 227.718C149.215 227.01 150.055 226.656 151.111 226.656C152.179 226.656 153.007 226.992 153.595 227.664C154.195 228.324 154.495 229.23 154.495 230.382V230.616H149.527ZM152.875 229.644C152.875 229.152 152.719 228.72 152.407 228.348C152.107 227.976 151.711 227.79 151.219 227.79C150.739 227.79 150.343 227.988 150.031 228.384C149.731 228.768 149.581 229.188 149.581 229.644H152.875ZM160.441 233.334C159.973 233.934 159.235 234.234 158.227 234.234C157.219 234.234 156.415 233.85 155.815 233.082C155.227 232.314 154.933 231.414 154.933 230.382C154.933 229.35 155.233 228.474 155.833 227.754C156.445 227.022 157.225 226.656 158.173 226.656C159.181 226.656 159.925 226.95 160.405 227.538L160.441 221.706H162.187V234H160.441V233.334ZM160.639 230.436C160.639 229.812 160.447 229.278 160.063 228.834C159.679 228.39 159.217 228.168 158.677 228.168C158.137 228.168 157.669 228.39 157.273 228.834C156.889 229.266 156.697 229.806 156.697 230.454C156.697 231.09 156.883 231.63 157.255 232.074C157.639 232.506 158.119 232.722 158.695 232.722C159.271 232.722 159.739 232.512 160.099 232.092C160.459 231.66 160.639 231.108 160.639 230.436ZM171.782 234H170.036V228.456H169.19V227.034H170.036V224.478H171.782V227.034H173.168V228.456H171.782V234ZM180.597 230.436C180.597 231.552 180.255 232.464 179.571 233.172C178.887 233.88 177.987 234.234 176.871 234.234C175.767 234.234 174.867 233.88 174.171 233.172C173.475 232.464 173.127 231.558 173.127 230.454C173.127 229.338 173.469 228.426 174.153 227.718C174.837 227.01 175.737 226.656 176.853 226.656C177.969 226.656 178.869 227.01 179.553 227.718C180.249 228.414 180.597 229.32 180.597 230.436ZM174.891 230.472C174.891 231.132 175.077 231.672 175.449 232.092C175.821 232.512 176.301 232.722 176.889 232.722C177.477 232.722 177.945 232.5 178.293 232.056C178.653 231.6 178.833 231.066 178.833 230.454C178.833 229.83 178.653 229.296 178.293 228.852C177.933 228.396 177.459 228.168 176.871 228.168C176.295 228.168 175.821 228.384 175.449 228.816C175.077 229.248 174.891 229.8 174.891 230.472ZM191.368 228.366C190.984 228.006 190.582 227.826 190.162 227.826C189.526 227.826 189.208 228.114 189.208 228.69C189.208 229.014 189.496 229.278 190.072 229.482C191.128 229.866 191.782 230.22 192.034 230.544C192.286 230.856 192.412 231.246 192.412 231.714C192.412 232.482 192.142 233.094 191.602 233.55C191.074 234.006 190.42 234.234 189.64 234.234C188.632 234.234 187.798 233.838 187.138 233.046L187.912 232.056C188.512 232.656 189.064 232.956 189.568 232.956C190.3 232.956 190.666 232.602 190.666 231.894C190.666 231.534 190.474 231.27 190.09 231.102C189.706 230.922 189.412 230.79 189.208 230.706C188.104 230.226 187.552 229.644 187.552 228.96C187.552 228.276 187.756 227.724 188.164 227.304C188.584 226.872 189.13 226.656 189.802 226.656C190.762 226.656 191.524 226.902 192.088 227.394L191.368 228.366ZM200.495 230.436C200.495 231.552 200.153 232.464 199.469 233.172C198.785 233.88 197.885 234.234 196.769 234.234C195.665 234.234 194.765 233.88 194.069 233.172C193.373 232.464 193.025 231.558 193.025 230.454C193.025 229.338 193.367 228.426 194.051 227.718C194.735 227.01 195.635 226.656 196.751 226.656C197.867 226.656 198.767 227.01 199.451 227.718C200.147 228.414 200.495 229.32 200.495 230.436ZM194.789 230.472C194.789 231.132 194.975 231.672 195.347 232.092C195.719 232.512 196.199 232.722 196.787 232.722C197.375 232.722 197.843 232.5 198.191 232.056C198.551 231.6 198.731 231.066 198.731 230.454C198.731 229.83 198.551 229.296 198.191 228.852C197.831 228.396 197.357 228.168 196.769 228.168C196.193 228.168 195.719 228.384 195.347 228.816C194.975 229.248 194.789 229.8 194.789 230.472ZM203.346 234H201.6V221.706H203.346V234ZM207.835 231.39L209.581 226.89H211.525L208.249 234.144H207.205L203.947 226.89H205.873L207.835 231.39ZM213.336 230.616C213.336 231.3 213.486 231.864 213.786 232.308C214.086 232.752 214.5 232.974 215.028 232.974C215.856 232.974 216.384 232.566 216.612 231.75L218.268 232.02C217.728 233.496 216.648 234.234 215.028 234.234C213.948 234.234 213.084 233.892 212.436 233.208C211.8 232.512 211.482 231.612 211.482 230.508C211.482 229.344 211.788 228.414 212.4 227.718C213.024 227.01 213.864 226.656 214.92 226.656C215.988 226.656 216.816 226.992 217.404 227.664C218.004 228.324 218.304 229.23 218.304 230.382V230.616H213.336ZM216.684 229.644C216.684 229.152 216.528 228.72 216.216 228.348C215.916 227.976 215.52 227.79 215.028 227.79C214.548 227.79 214.152 227.988 213.84 228.384C213.54 228.768 213.39 229.188 213.39 229.644H216.684ZM227.003 227.52C227.447 226.944 228.131 226.656 229.055 226.656C229.859 226.656 230.495 227.028 230.963 227.772C231.419 227.028 232.157 226.656 233.177 226.656C234.677 226.656 235.427 227.628 235.427 229.572V234H233.699V230.256C233.699 228.744 233.285 227.988 232.457 227.988C231.629 227.988 231.215 228.828 231.215 230.508V234H229.469V230.4C229.469 228.792 229.103 227.988 228.371 227.988C227.459 227.988 227.003 228.828 227.003 230.508V234H225.257V226.89H227.003V227.52ZM243.878 230.436C243.878 231.552 243.536 232.464 242.852 233.172C242.168 233.88 241.268 234.234 240.152 234.234C239.048 234.234 238.148 233.88 237.452 233.172C236.756 232.464 236.408 231.558 236.408 230.454C236.408 229.338 236.75 228.426 237.434 227.718C238.118 227.01 239.018 226.656 240.134 226.656C241.25 226.656 242.15 227.01 242.834 227.718C243.53 228.414 243.878 229.32 243.878 230.436ZM238.172 230.472C238.172 231.132 238.358 231.672 238.73 232.092C239.102 232.512 239.582 232.722 240.17 232.722C240.758 232.722 241.226 232.5 241.574 232.056C241.934 231.6 242.114 231.066 242.114 230.454C242.114 229.83 241.934 229.296 241.574 228.852C241.214 228.396 240.74 228.168 240.152 228.168C239.576 228.168 239.102 228.384 238.73 228.816C238.358 229.248 238.172 229.8 238.172 230.472ZM244.839 221.706H246.585V227.538C247.089 226.95 247.839 226.656 248.835 226.656C249.771 226.656 250.545 227.028 251.157 227.772C251.781 228.516 252.093 229.392 252.093 230.4C252.093 231.492 251.787 232.404 251.175 233.136C250.563 233.868 249.771 234.234 248.799 234.234C247.755 234.234 247.029 233.934 246.621 233.334L246.585 234H244.839V221.706ZM250.311 230.436C250.311 229.836 250.125 229.308 249.753 228.852C249.381 228.396 248.907 228.168 248.331 228.168C247.755 228.168 247.287 228.396 246.927 228.852C246.567 229.296 246.387 229.83 246.387 230.454C246.387 231.066 246.573 231.6 246.945 232.056C247.329 232.5 247.797 232.722 248.349 232.722C248.949 232.722 249.423 232.506 249.771 232.074C250.131 231.63 250.311 231.084 250.311 230.436ZM255.173 223.902C255.173 224.178 255.071 224.418 254.867 224.622C254.663 224.826 254.423 224.928 254.147 224.928C253.871 224.928 253.631 224.826 253.427 224.622C253.223 224.418 253.121 224.178 253.121 223.902C253.121 223.626 253.223 223.386 253.427 223.182C253.631 222.978 253.871 222.876 254.147 222.876C254.423 222.876 254.663 222.978 254.867 223.182C255.071 223.386 255.173 223.626 255.173 223.902ZM255.029 234H253.283V226.89H255.029V234ZM258.594 234H256.848V221.706H258.594V234ZM261.517 230.616C261.517 231.3 261.667 231.864 261.967 232.308C262.267 232.752 262.681 232.974 263.209 232.974C264.037 232.974 264.565 232.566 264.793 231.75L266.449 232.02C265.909 233.496 264.829 234.234 263.209 234.234C262.129 234.234 261.265 233.892 260.617 233.208C259.981 232.512 259.663 231.612 259.663 230.508C259.663 229.344 259.969 228.414 260.581 227.718C261.205 227.01 262.045 226.656 263.101 226.656C264.169 226.656 264.997 226.992 265.585 227.664C266.185 228.324 266.485 229.23 266.485 230.382V230.616H261.517ZM264.865 229.644C264.865 229.152 264.709 228.72 264.397 228.348C264.097 227.976 263.701 227.79 263.209 227.79C262.729 227.79 262.333 227.988 262.021 228.384C261.721 228.768 261.571 229.188 261.571 229.644H264.865ZM55.452 252H53.742V251.352C53.238 251.94 52.488 252.234 51.492 252.234C50.496 252.234 49.698 251.85 49.098 251.082C48.51 250.314 48.216 249.414 48.216 248.382C48.216 247.35 48.516 246.474 49.116 245.754C49.728 245.022 50.508 244.656 51.456 244.656C52.464 244.656 53.226 244.956 53.742 245.556V244.89H55.452V252ZM53.94 248.436C53.94 247.776 53.754 247.236 53.382 246.816C53.01 246.384 52.53 246.168 51.942 246.168C51.366 246.168 50.892 246.378 50.52 246.798C50.16 247.206 49.98 247.752 49.98 248.436C49.98 249.12 50.166 249.672 50.538 250.092C50.91 250.512 51.39 250.722 51.978 250.722C52.566 250.722 53.04 250.518 53.4 250.11C53.76 249.702 53.94 249.144 53.94 248.436ZM61.9154 251.334C61.4474 251.934 60.7094 252.234 59.7014 252.234C58.6934 252.234 57.8894 251.85 57.2894 251.082C56.7014 250.314 56.4074 249.414 56.4074 248.382C56.4074 247.35 56.7074 246.474 57.3074 245.754C57.9194 245.022 58.6994 244.656 59.6474 244.656C60.6554 244.656 61.3994 244.95 61.8794 245.538L61.9154 239.706H63.6614V252H61.9154V251.334ZM62.1134 248.436C62.1134 247.812 61.9214 247.278 61.5374 246.834C61.1534 246.39 60.6914 246.168 60.1514 246.168C59.6114 246.168 59.1434 246.39 58.7474 246.834C58.3634 247.266 58.1714 247.806 58.1714 248.454C58.1714 249.09 58.3574 249.63 58.7294 250.074C59.1134 250.506 59.5934 250.722 60.1694 250.722C60.7454 250.722 61.2134 250.512 61.5734 250.092C61.9334 249.66 62.1134 249.108 62.1134 248.436ZM70.1068 251.334C69.6388 251.934 68.9008 252.234 67.8928 252.234C66.8848 252.234 66.0808 251.85 65.4808 251.082C64.8928 250.314 64.5988 249.414 64.5988 248.382C64.5988 247.35 64.8988 246.474 65.4988 245.754C66.1108 245.022 66.8908 244.656 67.8388 244.656C68.8468 244.656 69.5908 244.95 70.0708 245.538L70.1068 239.706H71.8528V252H70.1068V251.334ZM70.3048 248.436C70.3048 247.812 70.1128 247.278 69.7288 246.834C69.3448 246.39 68.8828 246.168 68.3428 246.168C67.8028 246.168 67.3348 246.39 66.9388 246.834C66.5548 247.266 66.3628 247.806 66.3628 248.454C66.3628 249.09 66.5488 249.63 66.9208 250.074C67.3048 250.506 67.7848 250.722 68.3608 250.722C68.9368 250.722 69.4048 250.512 69.7648 250.092C70.1248 249.66 70.3048 249.108 70.3048 248.436ZM75.4362 241.902C75.4362 242.178 75.3342 242.418 75.1302 242.622C74.9262 242.826 74.6862 242.928 74.4102 242.928C74.1342 242.928 73.8942 242.826 73.6902 242.622C73.4862 242.418 73.3842 242.178 73.3842 241.902C73.3842 241.626 73.4862 241.386 73.6902 241.182C73.8942 240.978 74.1342 240.876 74.4102 240.876C74.6862 240.876 74.9262 240.978 75.1302 241.182C75.3342 241.386 75.4362 241.626 75.4362 241.902ZM75.2922 252H73.5462V244.89H75.2922V252ZM81.81 246.744C81.366 246.3 80.868 246.078 80.316 246.078C79.668 246.078 79.158 246.312 78.786 246.78C78.414 247.248 78.228 247.824 78.228 248.508C78.228 249.18 78.438 249.732 78.858 250.164C79.278 250.596 79.788 250.812 80.388 250.812C80.904 250.812 81.378 250.584 81.81 250.128V251.802C81.306 252.09 80.724 252.234 80.064 252.234C79.032 252.234 78.174 251.868 77.49 251.136C76.806 250.404 76.464 249.51 76.464 248.454C76.464 247.398 76.812 246.504 77.508 245.772C78.216 245.028 79.098 244.656 80.154 244.656C80.778 244.656 81.33 244.806 81.81 245.106V246.744ZM85.2097 252H83.4637V246.456H82.6177V245.034H83.4637V242.478H85.2097V245.034H86.5957V246.456H85.2097V252ZM89.1823 241.902C89.1823 242.178 89.0803 242.418 88.8763 242.622C88.6723 242.826 88.4323 242.928 88.1563 242.928C87.8803 242.928 87.6403 242.826 87.4363 242.622C87.2323 242.418 87.1303 242.178 87.1303 241.902C87.1303 241.626 87.2323 241.386 87.4363 241.182C87.6403 240.978 87.8803 240.876 88.1563 240.876C88.4323 240.876 88.6723 240.978 88.8763 241.182C89.0803 241.386 89.1823 241.626 89.1823 241.902ZM89.0383 252H87.2923V244.89H89.0383V252ZM97.6981 248.436C97.6981 249.552 97.3561 250.464 96.6721 251.172C95.9881 251.88 95.0881 252.234 93.9721 252.234C92.8681 252.234 91.9681 251.88 91.2721 251.172C90.5761 250.464 90.2281 249.558 90.2281 248.454C90.2281 247.338 90.5701 246.426 91.2541 245.718C91.9381 245.01 92.8381 244.656 93.9541 244.656C95.0701 244.656 95.9701 245.01 96.6541 245.718C97.3501 246.414 97.6981 247.32 97.6981 248.436ZM91.9921 248.472C91.9921 249.132 92.1781 249.672 92.5501 250.092C92.9221 250.512 93.4021 250.722 93.9901 250.722C94.5781 250.722 95.0461 250.5 95.3941 250.056C95.7541 249.6 95.9341 249.066 95.9341 248.454C95.9341 247.83 95.7541 247.296 95.3941 246.852C95.0341 246.396 94.5601 246.168 93.9721 246.168C93.3961 246.168 92.9221 246.384 92.5501 246.816C92.1781 247.248 91.9921 247.8 91.9921 248.472ZM100.405 245.538C100.897 244.95 101.623 244.656 102.583 244.656C104.215 244.656 105.031 245.658 105.031 247.662V252H103.303V248.238C103.303 246.738 102.841 245.988 101.917 245.988C100.909 245.988 100.405 246.792 100.405 248.4V252H98.6595V244.89H100.405V245.538ZM109.146 250.974C109.146 251.334 109.02 251.646 108.768 251.91C108.528 252.162 108.228 252.288 107.868 252.288C107.508 252.288 107.202 252.162 106.95 251.91C106.698 251.658 106.572 251.358 106.572 251.01C106.572 250.65 106.698 250.344 106.95 250.092C107.202 249.84 107.502 249.714 107.85 249.714C108.21 249.714 108.516 249.834 108.768 250.074C109.02 250.314 109.146 250.614 109.146 250.974Z" fill="white"/>
</svg>
