<svg width="91" height="16" viewBox="0 0 91 16" fill="none" xmlns="http://www.w3.org/2000/svg">
<rect width="91" height="16" fill="black"/>
<path d="M6.56 4.502H8.002V9.262C8.002 11.0913 8.576 12.006 9.724 12.006C10.872 12.006 11.446 11.0913 11.446 9.262V4.502H12.874V9.584C12.874 12.0107 11.8193 13.224 9.71 13.224C7.61 13.224 6.56 12.0107 6.56 9.584V4.502ZM15.5935 13H14.1515V4.502H15.5935V13ZM22.0209 3.872L17.8769 14.848L16.6589 14.4L20.7889 3.41L22.0209 3.872ZM22.9252 4.502H24.3672V9.262C24.3672 11.0913 24.9412 12.006 26.0892 12.006C27.2372 12.006 27.8112 11.0913 27.8112 9.262V4.502H29.2392V9.584C29.2392 12.0107 28.1846 13.224 26.0752 13.224C23.9752 13.224 22.9252 12.0107 22.9252 9.584V4.502ZM30.2507 4.502H31.9867L33.4567 7.33L34.8007 4.502H36.5367L34.1987 8.492L36.8027 13H35.0947L33.2747 9.752L31.5387 13H29.8307L32.5327 8.478L30.2507 4.502ZM43.5499 13H42.1079V4.502H44.3619C46.3312 4.502 47.3159 5.37933 47.3159 7.134C47.3159 8.926 46.4105 9.822 44.5999 9.822H43.5499V13ZM43.5499 8.674H44.2639C45.3185 8.674 45.8459 8.16067 45.8459 7.134C45.8459 6.14467 45.3045 5.65 44.2219 5.65H43.5499V8.674ZM53.6971 13H51.9191L49.5111 9.22L49.4971 13H48.0551V4.502L50.3091 4.502C52.2038 4.502 53.1511 5.356 53.1511 7.064C53.1511 7.708 52.9831 8.24467 52.6471 8.674C52.3205 9.10333 51.8725 9.35067 51.3031 9.416L53.6971 13ZM49.4971 8.632H49.9311C51.1165 8.632 51.7091 8.12333 51.7091 7.106C51.7091 6.126 51.1211 5.636 49.9451 5.636H49.4971V8.632ZM53.9382 8.772C53.9382 7.53067 54.3349 6.47133 55.1282 5.594C55.9309 4.71667 56.9389 4.278 58.1522 4.278C59.3655 4.278 60.3689 4.71667 61.1622 5.594C61.9555 6.47133 62.3522 7.526 62.3522 8.758C62.3522 9.99 61.9555 11.0447 61.1622 11.922C60.3782 12.79 59.3749 13.224 58.1522 13.224C56.9295 13.224 55.9215 12.79 55.1282 11.922C54.3349 11.054 53.9382 10.004 53.9382 8.772ZM55.4362 8.674C55.4362 9.50467 55.6975 10.2373 56.2202 10.872C56.7429 11.4973 57.3869 11.81 58.1522 11.81C58.9735 11.81 59.6315 11.5113 60.1262 10.914C60.6209 10.3073 60.8682 9.56067 60.8682 8.674C60.8682 7.834 60.6209 7.12933 60.1262 6.56C59.6315 5.98133 58.9689 5.692 58.1382 5.692C57.3169 5.692 56.6589 5.98133 56.1642 6.56C55.6789 7.13867 55.4362 7.84333 55.4362 8.674ZM66.2705 10.116C66.2705 12.188 65.5052 13.224 63.9745 13.224C63.3772 13.224 62.8219 12.958 62.3085 12.426L63.2745 11.334C63.5079 11.7167 63.7599 11.908 64.0305 11.908C64.3012 11.908 64.5019 11.7773 64.6325 11.516C64.7725 11.2547 64.8425 10.6947 64.8425 9.836V4.502H66.2705V10.116ZM68.9932 5.72V7.932H71.8492V9.15H68.9932V11.782H71.9472V13H67.5512V4.502H71.9472V5.72H68.9932ZM78.7313 6.532C78.2366 5.93467 77.616 5.636 76.8693 5.636C76.0946 5.636 75.446 5.958 74.9233 6.602C74.4006 7.23667 74.1393 7.96467 74.1393 8.786C74.1393 9.57933 74.396 10.2933 74.9093 10.928C75.432 11.5533 76.0806 11.866 76.8553 11.866C77.5926 11.866 78.218 11.5673 78.7313 10.97V12.72C78.0406 13.056 77.4013 13.224 76.8133 13.224C75.6373 13.224 74.648 12.79 73.8453 11.922C73.0426 11.054 72.6413 10.018 72.6413 8.814C72.6413 7.56333 73.0426 6.49467 73.8453 5.608C74.648 4.72133 75.6466 4.278 76.8413 4.278C77.4666 4.278 78.0966 4.44133 78.7313 4.768V6.532ZM82.4186 13H81.1166V5.72H79.2266V4.502L84.3086 4.502V5.72H82.4186V13Z" fill="white"/>
</svg>
