<svg width="264" height="180" viewBox="0 0 264 180" fill="none" xmlns="http://www.w3.org/2000/svg">
<rect width="264" height="180" transform="matrix(1 0 0 -1 0 180)" fill="black"/>
<path d="M36.504 139H34.032V124.432H37.896C41.272 124.432 42.96 125.936 42.96 128.944C42.96 132.016 41.408 133.552 38.304 133.552H36.504V139ZM36.504 131.584H37.728C39.536 131.584 40.44 130.704 40.44 128.944C40.44 127.248 39.512 126.4 37.656 126.4H36.504V131.584ZM53.5393 136.912V139H43.7473L47.4433 134.32C49.2033 132.144 50.2353 130.784 50.5393 130.24C50.8593 129.68 51.0193 129.224 51.0193 128.872C51.0353 128.776 51.0433 128.68 51.0433 128.584C51.0433 127.944 50.8273 127.376 50.3953 126.88C49.9793 126.384 49.4273 126.136 48.7393 126.136C48.0513 126.136 47.5073 126.416 47.1073 126.976C46.7233 127.536 46.5313 128.216 46.5313 129.016H43.9393C43.9393 127.576 44.3633 126.392 45.2113 125.464C46.0753 124.52 47.2433 124.048 48.7153 124.048C50.0433 124.048 51.1633 124.496 52.0753 125.392C52.9873 126.288 53.4433 127.408 53.4433 128.752C53.4433 130.016 52.4753 131.776 50.5393 134.032L48.0673 136.912H53.5393ZM57.8556 139H55.3836V124.432H59.2476C62.6236 124.432 64.3116 125.936 64.3116 128.944C64.3116 132.016 62.7596 133.552 59.6556 133.552H57.8556V139ZM57.8556 131.584H59.0796C60.8876 131.584 61.7916 130.704 61.7916 128.944C61.7916 127.248 60.8636 126.4 59.0076 126.4H57.8556V131.584ZM76.0665 136.912H80.4585V139H73.5945V124.432H76.0665V136.912ZM80.6798 131.752C80.6798 129.624 81.3598 127.808 82.7198 126.304C84.0958 124.8 85.8238 124.048 87.9038 124.048C89.9838 124.048 91.7038 124.8 93.0638 126.304C94.4238 127.808 95.1038 129.616 95.1038 131.728C95.1038 133.84 94.4238 135.648 93.0638 137.152C91.7198 138.64 89.9998 139.384 87.9038 139.384C85.8078 139.384 84.0798 138.64 82.7198 137.152C81.3598 135.664 80.6798 133.864 80.6798 131.752ZM83.2478 131.584C83.2478 133.008 83.6958 134.264 84.5918 135.352C85.4878 136.424 86.5918 136.96 87.9038 136.96C89.3118 136.96 90.4398 136.448 91.2878 135.424C92.1358 134.384 92.5598 133.104 92.5598 131.584C92.5598 130.144 92.1358 128.936 91.2878 127.96C90.4398 126.968 89.3038 126.472 87.8798 126.472C86.4718 126.472 85.3438 126.968 84.4958 127.96C83.6638 128.952 83.2478 130.16 83.2478 131.584ZM99.2049 135.736L97.9089 139H95.2929L100.957 124.048H103.165L108.685 139H106.045L104.821 135.736H99.2049ZM101.917 127.624L99.8049 133.792H104.149L101.917 127.624ZM109.571 124.048H111.443L119.675 135.016L119.723 124.432H122.171V139.288H120.323L112.067 128.344L112.043 139H109.571V124.048ZM131.299 127.384C130.675 126.504 129.883 126.064 128.923 126.064C128.315 126.064 127.803 126.248 127.387 126.616C126.971 126.984 126.763 127.48 126.763 128.104C126.763 128.712 127.515 129.44 129.019 130.288C130.539 131.136 131.307 131.56 131.323 131.56C132.395 132.36 132.931 133.304 132.931 134.392C132.931 135.88 132.499 137.088 131.635 138.016C130.787 138.928 129.619 139.384 128.131 139.384C126.243 139.384 124.755 138.44 123.667 136.552L125.227 135.016C125.435 135.576 125.819 136.088 126.379 136.552C126.939 137.016 127.515 137.248 128.107 137.248C128.811 137.248 129.363 137.008 129.763 136.528C130.179 136.048 130.387 135.464 130.387 134.776C130.387 134.28 130.235 133.848 129.931 133.48C129.627 133.096 128.595 132.52 126.835 131.752C125.091 130.968 124.219 129.856 124.219 128.416C124.219 127.184 124.619 126.152 125.419 125.32C126.235 124.472 127.251 124.048 128.467 124.048C130.147 124.048 131.475 124.592 132.451 125.68L131.299 127.384ZM145.119 135.736L143.823 139H141.207L146.871 124.048H149.079L154.599 139H151.959L150.735 135.736H145.119ZM147.831 127.624L145.719 133.792H150.063L147.831 127.624ZM155.485 124.048H157.357L165.589 135.016L165.637 124.432H168.085V139.288H166.237L157.981 128.344L157.957 139H155.485V124.048ZM172.869 135.736L171.573 139H168.957L174.621 124.048H176.829L182.349 139H179.709L178.485 135.736H172.869ZM175.581 127.624L173.469 133.792H177.813L175.581 127.624ZM185.707 136.912H190.099V139H183.235V124.432H185.707V136.912ZM189.792 124.432H192.72L195.528 129.88L198.576 124.432H201.504L196.848 132.376V139H194.376V132.376L189.792 124.432ZM209.416 127.384C208.792 126.504 208 126.064 207.04 126.064C206.432 126.064 205.92 126.248 205.504 126.616C205.088 126.984 204.88 127.48 204.88 128.104C204.88 128.712 205.632 129.44 207.136 130.288C208.656 131.136 209.424 131.56 209.44 131.56C210.512 132.36 211.048 133.304 211.048 134.392C211.048 135.88 210.616 137.088 209.752 138.016C208.904 138.928 207.736 139.384 206.248 139.384C204.36 139.384 202.872 138.44 201.784 136.552L203.344 135.016C203.552 135.576 203.936 136.088 204.496 136.552C205.056 137.016 205.632 137.248 206.224 137.248C206.928 137.248 207.48 137.008 207.88 136.528C208.296 136.048 208.504 135.464 208.504 134.776C208.504 134.28 208.352 133.848 208.048 133.48C207.744 133.096 206.712 132.52 204.952 131.752C203.208 130.968 202.336 129.856 202.336 128.416C202.336 127.184 202.736 126.152 203.536 125.32C204.352 124.472 205.368 124.048 206.584 124.048C208.264 124.048 209.592 124.592 210.568 125.68L209.416 127.384ZM214.981 126.52V130.312H219.877V132.4H214.981V136.912H220.045V139H212.509V124.432H220.045V126.52H214.981ZM228.986 127.384C228.362 126.504 227.57 126.064 226.61 126.064C226.002 126.064 225.49 126.248 225.074 126.616C224.658 126.984 224.45 127.48 224.45 128.104C224.45 128.712 225.202 129.44 226.706 130.288C228.226 131.136 228.994 131.56 229.01 131.56C230.082 132.36 230.618 133.304 230.618 134.392C230.618 135.88 230.186 137.088 229.322 138.016C228.474 138.928 227.306 139.384 225.818 139.384C223.93 139.384 222.442 138.44 221.354 136.552L222.914 135.016C223.122 135.576 223.506 136.088 224.066 136.552C224.626 137.016 225.202 137.248 225.794 137.248C226.498 137.248 227.05 137.008 227.45 136.528C227.866 136.048 228.074 135.464 228.074 134.776C228.074 134.28 227.922 133.848 227.618 133.48C227.314 133.096 226.282 132.52 224.522 131.752C222.778 130.968 221.906 129.856 221.906 128.416C221.906 127.184 222.306 126.152 223.106 125.32C223.922 124.472 224.938 124.048 226.154 124.048C227.834 124.048 229.162 124.592 230.138 125.68L228.986 127.384Z" fill="white"/>
<g clip-path="url(#clip0)">
<path d="M114 38H128.144C131.222 38 133.528 38.7318 135.062 40.1954C136.596 41.659 137.358 43.7433 137.35 46.4484C137.35 49.2297 136.514 51.4011 134.843 52.9627C133.172 54.5243 130.625 55.3084 127.203 55.3149H122.546V65.5242H114V38ZM122.546 49.7349H124.631C126.271 49.7349 127.423 49.4496 128.085 48.879C128.403 48.6122 128.656 48.277 128.826 47.8985C128.995 47.52 129.077 47.108 129.065 46.6934C129.074 46.2881 129.003 45.885 128.855 45.5075C128.707 45.1301 128.485 44.7858 128.203 44.4947C127.625 43.898 126.541 43.5985 124.951 43.5963H122.546V49.7349Z" fill="white"/>
<path d="M129.082 38H142.954C145.978 38 148.242 38.7318 149.745 40.1954C151.248 41.659 152 43.7433 152 46.4484C152 49.2297 151.181 51.4011 149.542 52.9627C147.904 54.5243 145.401 55.3084 142.033 55.3149H137.457V65.5242H129.082V38ZM137.464 49.7349H139.51C141.117 49.7349 142.247 49.4496 142.899 48.879C143.215 48.6111 143.467 48.2757 143.637 47.8975C143.807 47.5192 143.889 47.1078 143.879 46.6934C143.899 45.8775 143.594 45.087 143.033 44.4947C142.466 43.898 141.403 43.5985 139.843 43.5963H137.464V49.7349Z" fill="white"/>
<path d="M137.471 65.5242H114C114.293 67.6443 115.137 69.6506 116.448 71.3426C117.814 73.1591 120.375 75.3033 124.131 77.7753C126.423 79.2999 127.889 80.4499 128.529 81.2252C129.183 82.0126 129.49 82.7574 129.49 83.4664C129.491 83.8439 129.406 84.2166 129.241 84.5563C129.076 84.8959 128.836 85.1936 128.539 85.4265C127.869 85.9819 127.017 86.2714 126.147 86.24C125.256 86.2745 124.383 85.9764 123.699 85.4037C123.065 84.8439 122.639 83.8584 122.422 82.4471L114.578 83.009C114.886 84.9692 115.449 86.4992 116.268 87.5991C117.163 88.7515 118.364 89.628 119.735 90.1277C121.23 90.7136 123.3 91.0065 125.944 91.0065C128.696 91.0065 130.837 90.7277 132.366 90.1702C133.791 89.6808 135.04 88.7847 135.961 87.5925C136.82 86.4799 137.281 85.1106 137.268 83.7048C137.249 82.1227 136.721 80.5889 135.761 79.3304C134.755 77.943 132.927 76.4184 130.278 74.7566C128.703 73.7896 127.649 73.1122 127.118 72.7246C126.586 72.3369 125.962 71.8305 125.245 71.2054H137.471V65.5242Z" fill="white"/>
</g>
<defs>
<clipPath id="clip0">
<rect width="38" height="53" fill="white" transform="translate(114 38)"/>
</clipPath>
</defs>
</svg>
