<svg width="86" height="18" viewBox="0 0 86 18" fill="none" xmlns="http://www.w3.org/2000/svg">
<path d="M23.628 13.434H26.922V15H21.774V4.074H23.628V13.434ZM29.6079 15H27.7539V4.074H29.6079V15ZM36.5758 6.288C36.1078 5.628 35.5138 5.298 34.7938 5.298C34.3378 5.298 33.9538 5.436 33.6418 5.712C33.3298 5.988 33.1738 6.36 33.1738 6.828C33.1738 7.284 33.7378 7.83 34.8658 8.466C36.0058 9.102 36.5818 9.42 36.5938 9.42C37.3978 10.02 37.7998 10.728 37.7998 11.544C37.7998 12.66 37.4758 13.566 36.8278 14.262C36.1918 14.946 35.3158 15.288 34.1998 15.288C32.7838 15.288 31.6678 14.58 30.8518 13.164L32.0218 12.012C32.1778 12.432 32.4658 12.816 32.8858 13.164C33.3058 13.512 33.7378 13.686 34.1818 13.686C34.7098 13.686 35.1238 13.506 35.4238 13.146C35.7358 12.786 35.8918 12.348 35.8918 11.832C35.8918 11.46 35.7778 11.136 35.5498 10.86C35.3218 10.572 34.5478 10.14 33.2278 9.564C31.9198 8.976 31.2658 8.142 31.2658 7.062C31.2658 6.138 31.5658 5.364 32.1658 4.74C32.7778 4.104 33.5398 3.786 34.4518 3.786C35.7118 3.786 36.7078 4.194 37.4398 5.01L36.5758 6.288ZM42.2251 15H40.5511V5.64H38.1211V4.074H44.6551V5.64H42.2251V15ZM55.3879 12.246L58.0879 4.074H60.1399L55.8919 15.288H54.6499L50.4739 4.074H52.4719L55.3879 12.246ZM62.69 15H60.836V4.074H62.69V15ZM66.2198 5.64V8.484H69.8918V10.05H66.2198V13.434H70.0178V15H64.3658V4.074H70.0178V5.64H66.2198ZM74.8702 12.156L77.2282 3.93H78.2002L80.6662 12.156L83.0782 4.074H85.0222L81.3142 15.216H79.9102L77.5882 7.71L75.3562 15.216H73.9342L70.4602 4.074H72.4042L74.8702 12.156Z" fill="black"/>
<rect y="5" width="9" height="1" fill="black"/>
<rect y="7" width="9" height="1" fill="black"/>
<rect y="9" width="9" height="1" fill="black"/>
<rect y="11" width="9" height="1" fill="black"/>
<rect y="13" width="9" height="1" fill="black"/>
</svg>
