<svg width="233" height="17" viewBox="0 0 233 17" fill="none" xmlns="http://www.w3.org/2000/svg">
<rect x="0.499939" y="0.499023" width="232" height="16" fill="black"/>
<path d="M13.5139 7.77302L11.3859 13.611H11.0359L9.03394 7.74502L8.06794 13.499H6.62594L8.05394 4.77702H9.11794L11.3299 10.615L13.4439 4.77702H14.5219L15.7959 13.499H14.3539L13.5139 7.77302ZM16.1159 9.27102C16.1159 8.02969 16.5125 6.97036 17.3059 6.09302C18.1085 5.21569 19.1165 4.77702 20.3299 4.77702C21.5432 4.77702 22.5465 5.21569 23.3399 6.09302C24.1332 6.97036 24.5299 8.02502 24.5299 9.25702C24.5299 10.489 24.1332 11.5437 23.3399 12.421C22.5559 13.289 21.5525 13.723 20.3299 13.723C19.1072 13.723 18.0992 13.289 17.3059 12.421C16.5125 11.553 16.1159 10.503 16.1159 9.27102ZM17.6139 9.17302C17.6139 10.0037 17.8752 10.7364 18.3979 11.371C18.9205 11.9964 19.5645 12.309 20.3299 12.309C21.1512 12.309 21.8092 12.0104 22.3039 11.413C22.7985 10.8064 23.0459 10.0597 23.0459 9.17302C23.0459 8.33302 22.7985 7.62836 22.3039 7.05902C21.8092 6.48036 21.1465 6.19102 20.3159 6.19102C19.4945 6.19102 18.8365 6.48036 18.3419 7.05902C17.8565 7.63769 17.6139 8.34236 17.6139 9.17302ZM27.9302 13.499H26.6282V6.21902H24.7382V5.00102L29.8202 5.00102V6.21902H27.9302V13.499ZM31.9802 13.499H30.5382V5.00102H31.9802V13.499ZM32.8776 9.27102C32.8776 8.02969 33.2742 6.97036 34.0676 6.09302C34.8702 5.21569 35.8782 4.77702 37.0916 4.77702C38.3049 4.77702 39.3082 5.21569 40.1016 6.09302C40.8949 6.97036 41.2916 8.02502 41.2916 9.25702C41.2916 10.489 40.8949 11.5437 40.1016 12.421C39.3176 13.289 38.3142 13.723 37.0916 13.723C35.8689 13.723 34.8609 13.289 34.0676 12.421C33.2742 11.553 32.8776 10.503 32.8776 9.27102ZM34.3756 9.17302C34.3756 10.0037 34.6369 10.7364 35.1596 11.371C35.6822 11.9964 36.3262 12.309 37.0916 12.309C37.9129 12.309 38.5709 12.0104 39.0656 11.413C39.5602 10.8064 39.8076 10.0597 39.8076 9.17302C39.8076 8.33302 39.5602 7.62836 39.0656 7.05902C38.5709 6.48036 37.9082 6.19102 37.0776 6.19102C36.2562 6.19102 35.5982 6.48036 35.1036 7.05902C34.6182 7.63769 34.3756 8.34236 34.3756 9.17302ZM42.1019 4.77702H43.1939L47.9959 11.175L48.0239 5.00102H49.4519V13.667H48.3739L43.5579 7.28302L43.5439 13.499H42.1019V4.77702ZM57.9263 13.499H56.6243V6.21902H54.7343V5.00102L59.8163 5.00102V6.21902H57.9263V13.499ZM66.0643 13.499H64.2863L61.8783 9.71902L61.8643 13.499H60.4223V5.00102H62.6763C64.5709 5.00102 65.5183 5.85502 65.5183 7.56302C65.5183 8.20702 65.3503 8.74369 65.0143 9.17302C64.6876 9.60236 64.2396 9.84969 63.6703 9.91502L66.0643 13.499ZM61.8643 9.13102H62.2983C63.4836 9.13102 64.0763 8.62236 64.0763 7.60502C64.0763 6.62502 63.4883 6.13502 62.3123 6.13502H61.8643V9.13102ZM68.2933 11.595L67.5373 13.499H66.0113L69.3153 4.77702H70.6033L73.8233 13.499H72.2833L71.5693 11.595H68.2933ZM69.8753 6.86302L68.6433 10.461H71.1773L69.8753 6.86302ZM80.0242 7.03102C79.5296 6.43369 78.9089 6.13502 78.1622 6.13502C77.3876 6.13502 76.7389 6.45702 76.2162 7.10102C75.6936 7.73569 75.4322 8.46369 75.4322 9.28502C75.4322 10.0784 75.6889 10.7924 76.2022 11.427C76.7249 12.0524 77.3736 12.365 78.1482 12.365C78.8856 12.365 79.5109 12.0664 80.0242 11.469V13.219C79.3336 13.555 78.6942 13.723 78.1062 13.723C76.9302 13.723 75.9409 13.289 75.1382 12.421C74.3356 11.553 73.9342 10.517 73.9342 9.31302C73.9342 8.06236 74.3356 6.99369 75.1382 6.10702C75.9409 5.22036 76.9396 4.77702 78.1342 4.77702C78.7596 4.77702 79.3896 4.94036 80.0242 5.26702V7.03102ZM85.6575 5.00102H87.4775L84.2435 8.92102L87.6595 13.499L85.7415 13.499L82.6755 9.28502L82.6615 13.499H81.2195V5.00102L82.6615 5.00102V8.97702L85.6575 5.00102ZM89.6618 13.499H88.2198V5.00102H89.6618V13.499ZM90.9652 4.77702H92.0572L96.8592 11.175L96.8872 5.00102H98.3152V13.667H97.2372L92.4212 7.28302L92.4072 13.499H90.9652V4.77702ZM107.042 8.97702V9.18702C107.042 10.5404 106.696 11.637 106.006 12.477C105.315 13.3077 104.368 13.723 103.164 13.723C101.997 13.723 101.031 13.2937 100.266 12.435C99.5005 11.5764 99.1178 10.5264 99.1178 9.28502C99.1178 7.99702 99.5051 6.92369 100.28 6.06502C101.064 5.20636 102.062 4.77702 103.276 4.77702C104.844 4.77702 105.964 5.45369 106.636 6.80702L105.348 7.49302C104.918 6.51302 104.214 6.02302 103.234 6.02302C102.478 6.02302 101.852 6.34969 101.358 7.00302C100.863 7.64702 100.616 8.41236 100.616 9.29902C100.616 10.1857 100.858 10.937 101.344 11.553C101.829 12.169 102.459 12.477 103.234 12.477C103.896 12.477 104.424 12.2437 104.816 11.777C105.208 11.3104 105.404 10.755 105.404 10.111H103.374V8.97702H107.042ZM114.08 13.499H112.638V5.00102H114.08V13.499ZM115.383 4.77702H116.475L121.277 11.175L121.305 5.00102L122.733 5.00102V13.667H121.655L116.839 7.28302L116.825 13.499H115.383V4.77702ZM126.532 13.499H125.23V6.21902H123.34V5.00102H128.422V6.21902H126.532V13.499ZM130.47 6.21902V8.43102H133.326V9.64902H130.47V12.281H133.424V13.499H129.028V5.00102H133.424V6.21902H130.47ZM140.166 13.499H138.388L135.98 9.71902L135.966 13.499H134.524V5.00102H136.778C138.672 5.00102 139.62 5.85502 139.62 7.56302C139.62 8.20702 139.452 8.74369 139.116 9.17302C138.789 9.60236 138.341 9.84969 137.772 9.91502L140.166 13.499ZM135.966 9.13102H136.4C137.585 9.13102 138.178 8.62236 138.178 7.60502C138.178 6.62502 137.59 6.13502 136.414 6.13502H135.966V9.13102ZM142.395 11.595L141.639 13.499H140.113L143.417 4.77702H144.705L147.925 13.499H146.385L145.671 11.595H142.395ZM143.977 6.86302L142.745 10.461H145.279L143.977 6.86302ZM154.126 7.03102C153.631 6.43369 153.01 6.13502 152.264 6.13502C151.489 6.13502 150.84 6.45702 150.318 7.10102C149.795 7.73569 149.534 8.46369 149.534 9.28502C149.534 10.0784 149.79 10.7924 150.304 11.427C150.826 12.0524 151.475 12.365 152.25 12.365C152.987 12.365 153.612 12.0664 154.126 11.469V13.219C153.435 13.555 152.796 13.723 152.208 13.723C151.032 13.723 150.042 13.289 149.24 12.421C148.437 11.553 148.036 10.517 148.036 9.31302C148.036 8.06236 148.437 6.99369 149.24 6.10702C150.042 5.22036 151.041 4.77702 152.236 4.77702C152.861 4.77702 153.491 4.94036 154.126 5.26702V7.03102ZM157.813 13.499H156.511V6.21902H154.621V5.00102H159.703V6.21902L157.813 6.21902V13.499ZM161.863 13.499H160.421V5.00102H161.863V13.499ZM162.76 9.27102C162.76 8.02969 163.157 6.97036 163.95 6.09302C164.753 5.21569 165.761 4.77702 166.974 4.77702C168.188 4.77702 169.191 5.21569 169.984 6.09302C170.778 6.97036 171.174 8.02502 171.174 9.25702C171.174 10.489 170.778 11.5437 169.984 12.421C169.2 13.289 168.197 13.723 166.974 13.723C165.752 13.723 164.744 13.289 163.95 12.421C163.157 11.553 162.76 10.503 162.76 9.27102ZM164.258 9.17302C164.258 10.0037 164.52 10.7364 165.042 11.371C165.565 11.9964 166.209 12.309 166.974 12.309C167.796 12.309 168.454 12.0104 168.948 11.413C169.443 10.8064 169.69 10.0597 169.69 9.17302C169.69 8.33302 169.443 7.62836 168.948 7.05902C168.454 6.48036 167.791 6.19102 166.96 6.19102C166.139 6.19102 165.481 6.48036 164.986 7.05902C164.501 7.63769 164.258 8.34236 164.258 9.17302ZM171.985 4.77702H173.077L177.879 11.175L177.907 5.00102L179.335 5.00102V13.667H178.257L173.441 7.28302L173.427 13.499H171.985V4.77702ZM186.661 13.499H185.219V5.00102L187.473 5.00102C189.442 5.00102 190.427 5.87836 190.427 7.63302C190.427 9.42502 189.522 10.321 187.711 10.321H186.661V13.499ZM186.661 9.17302H187.375C188.43 9.17302 188.957 8.65969 188.957 7.63302C188.957 6.64369 188.416 6.14902 187.333 6.14902H186.661V9.17302ZM196.808 13.499H195.03L192.622 9.71902L192.608 13.499H191.166V5.00102H193.42C195.315 5.00102 196.262 5.85502 196.262 7.56302C196.262 8.20702 196.094 8.74369 195.758 9.17302C195.432 9.60236 194.984 9.84969 194.414 9.91502L196.808 13.499ZM192.608 9.13102H193.042C194.228 9.13102 194.82 8.62236 194.82 7.60502C194.82 6.62502 194.232 6.13502 193.056 6.13502H192.608V9.13102ZM197.049 9.27102C197.049 8.02969 197.446 6.97036 198.239 6.09302C199.042 5.21569 200.05 4.77702 201.263 4.77702C202.477 4.77702 203.48 5.21569 204.273 6.09302C205.067 6.97036 205.463 8.02502 205.463 9.25702C205.463 10.489 205.067 11.5437 204.273 12.421C203.489 13.289 202.486 13.723 201.263 13.723C200.041 13.723 199.033 13.289 198.239 12.421C197.446 11.553 197.049 10.503 197.049 9.27102ZM198.547 9.17302C198.547 10.0037 198.809 10.7364 199.331 11.371C199.854 11.9964 200.498 12.309 201.263 12.309C202.085 12.309 202.743 12.0104 203.237 11.413C203.732 10.8064 203.979 10.0597 203.979 9.17302C203.979 8.33302 203.732 7.62836 203.237 7.05902C202.743 6.48036 202.08 6.19102 201.249 6.19102C200.428 6.19102 199.77 6.48036 199.275 7.05902C198.79 7.63769 198.547 8.34236 198.547 9.17302ZM209.382 10.615C209.382 12.687 208.616 13.723 207.086 13.723C206.488 13.723 205.933 13.457 205.42 12.925L206.386 11.833C206.619 12.2157 206.871 12.407 207.142 12.407C207.412 12.407 207.613 12.2764 207.744 12.015C207.884 11.7537 207.954 11.1937 207.954 10.335V5.00102H209.382V10.615ZM212.104 6.21902V8.43102H214.96V9.64902L212.104 9.64902V12.281L215.058 12.281V13.499L210.662 13.499V5.00102H215.058V6.21902H212.104ZM221.843 7.03102C221.348 6.43369 220.727 6.13502 219.981 6.13502C219.206 6.13502 218.557 6.45702 218.035 7.10102C217.512 7.73569 217.251 8.46369 217.251 9.28502C217.251 10.0784 217.507 10.7924 218.021 11.427C218.543 12.0524 219.192 12.365 219.967 12.365C220.704 12.365 221.329 12.0664 221.843 11.469V13.219C221.152 13.555 220.513 13.723 219.925 13.723C218.749 13.723 217.759 13.289 216.957 12.421C216.154 11.553 215.753 10.517 215.753 9.31302C215.753 8.06236 216.154 6.99369 216.957 6.10702C217.759 5.22036 218.758 4.77702 219.953 4.77702C220.578 4.77702 221.208 4.94036 221.843 5.26702V7.03102ZM225.53 13.499H224.228V6.21902L222.338 6.21902V5.00102H227.42V6.21902H225.53V13.499Z" fill="white"/>
</svg>
