<svg width="164" height="16" viewBox="0 0 164 16" fill="none" xmlns="http://www.w3.org/2000/svg">
<rect width="164" height="16" fill="black"/>
<path d="M12.244 13H10.466L8.058 9.22L8.044 13H6.602L6.602 4.502H8.856C10.7507 4.502 11.698 5.356 11.698 7.064C11.698 7.708 11.53 8.24467 11.194 8.674C10.8673 9.10333 10.4193 9.35067 9.85 9.416L12.244 13ZM8.044 8.632H8.478C9.66333 8.632 10.256 8.12333 10.256 7.106C10.256 6.126 9.668 5.636 8.492 5.636H8.044V8.632ZM12.4851 8.772C12.4851 7.53067 12.8817 6.47133 13.6751 5.594C14.4777 4.71667 15.4857 4.278 16.6991 4.278C17.9124 4.278 18.9157 4.71667 19.7091 5.594C20.5024 6.47133 20.8991 7.526 20.8991 8.758C20.8991 9.99 20.5024 11.0447 19.7091 11.922C18.9251 12.79 17.9217 13.224 16.6991 13.224C15.4764 13.224 14.4684 12.79 13.6751 11.922C12.8817 11.054 12.4851 10.004 12.4851 8.772ZM13.9831 8.674C13.9831 9.50467 14.2444 10.2373 14.7671 10.872C15.2897 11.4973 15.9337 11.81 16.6991 11.81C17.5204 11.81 18.1784 11.5113 18.6731 10.914C19.1677 10.3073 19.4151 9.56067 19.4151 8.674C19.4151 7.834 19.1677 7.12933 18.6731 6.56C18.1784 5.98133 17.5157 5.692 16.6851 5.692C15.8637 5.692 15.2057 5.98133 14.7111 6.56C14.2257 7.13867 13.9831 7.84333 13.9831 8.674ZM23.1514 11.782H25.7134V13L21.7094 13V4.502H23.1514V11.782ZM27.6905 5.72V7.932L30.5465 7.932V9.15H27.6905V11.782H30.6445V13H26.2485V4.502H30.6445V5.72L27.6905 5.72ZM33.7746 12.202C33.7746 12.482 33.6766 12.7247 33.4806 12.93C33.2939 13.126 33.0606 13.224 32.7806 13.224C32.5006 13.224 32.2626 13.126 32.0666 12.93C31.8706 12.734 31.7726 12.5007 31.7726 12.23C31.7726 11.95 31.8706 11.712 32.0666 11.516C32.2626 11.32 32.4959 11.222 32.7666 11.222C33.0466 11.222 33.2846 11.3153 33.4806 11.502C33.6766 11.6887 33.7746 11.922 33.7746 12.202ZM33.7746 8.142C33.7746 8.422 33.6766 8.66467 33.4806 8.87C33.2939 9.066 33.0606 9.164 32.7806 9.164C32.5006 9.164 32.2626 9.066 32.0666 8.87C31.8706 8.674 31.7726 8.44067 31.7726 8.17C31.7726 7.89 31.8706 7.652 32.0666 7.456C32.2626 7.26 32.4959 7.162 32.7666 7.162C33.0466 7.162 33.2846 7.25533 33.4806 7.442C33.6766 7.62867 33.7746 7.862 33.7746 8.142ZM39.6459 4.502H41.0879V9.262C41.0879 11.0913 41.6619 12.006 42.8099 12.006C43.9579 12.006 44.5319 11.0913 44.5319 9.262V4.502H45.9599V9.584C45.9599 12.0107 44.9053 13.224 42.7959 13.224C40.6959 13.224 39.6459 12.0107 39.6459 9.584V4.502ZM48.6794 13H47.2374V4.502H48.6794V13ZM55.1069 3.872L50.9629 14.848L49.7449 14.4L53.8749 3.41L55.1069 3.872ZM56.0112 4.502H57.4532V9.262C57.4532 11.0913 58.0272 12.006 59.1752 12.006C60.3232 12.006 60.8972 11.0913 60.8972 9.262V4.502H62.3252V9.584C62.3252 12.0107 61.2705 13.224 59.1612 13.224C57.0612 13.224 56.0112 12.0107 56.0112 9.584V4.502ZM63.3367 4.502H65.0727L66.5427 7.33L67.8867 4.502H69.6227L67.2847 8.492L69.8887 13H68.1807L66.3607 9.752L64.6247 13H62.9167L65.6187 8.478L63.3367 4.502ZM78.2878 13H76.9578V3.438H78.2878V13ZM87.3682 13L85.9262 13V4.502H88.1802C90.1496 4.502 91.1342 5.37933 91.1342 7.134C91.1342 8.926 90.2289 9.822 88.4182 9.822H87.3682V13ZM87.3682 8.674H88.0822C89.1369 8.674 89.6642 8.16067 89.6642 7.134C89.6642 6.14467 89.1229 5.65 88.0402 5.65H87.3682V8.674ZM97.5155 13H95.7375L93.3295 9.22L93.3155 13H91.8735V4.502H94.1275C96.0222 4.502 96.9695 5.356 96.9695 7.064C96.9695 7.708 96.8015 8.24467 96.4655 8.674C96.1388 9.10333 95.6908 9.35067 95.1215 9.416L97.5155 13ZM93.3155 8.632H93.7495C94.9348 8.632 95.5275 8.12333 95.5275 7.106C95.5275 6.126 94.9395 5.636 93.7635 5.636H93.3155V8.632ZM97.7565 8.772C97.7565 7.53067 98.1532 6.47133 98.9465 5.594C99.7492 4.71667 100.757 4.278 101.971 4.278C103.184 4.278 104.187 4.71667 104.981 5.594C105.774 6.47133 106.171 7.526 106.171 8.758C106.171 9.99 105.774 11.0447 104.981 11.922C104.197 12.79 103.193 13.224 101.971 13.224C100.748 13.224 99.7399 12.79 98.9465 11.922C98.1532 11.054 97.7565 10.004 97.7565 8.772ZM99.2545 8.674C99.2545 9.50467 99.5159 10.2373 100.039 10.872C100.561 11.4973 101.205 11.81 101.971 11.81C102.792 11.81 103.45 11.5113 103.945 10.914C104.439 10.3073 104.687 9.56067 104.687 8.674C104.687 7.834 104.439 7.12933 103.945 6.56C103.45 5.98133 102.787 5.692 101.957 5.692C101.135 5.692 100.477 5.98133 99.9825 6.56C99.4972 7.13867 99.2545 7.84333 99.2545 8.674ZM114.499 8.478V8.688C114.499 10.0413 114.154 11.138 113.463 11.978C112.772 12.8087 111.825 13.224 110.621 13.224C109.454 13.224 108.488 12.7947 107.723 11.936C106.958 11.0773 106.575 10.0273 106.575 8.786C106.575 7.498 106.962 6.42467 107.737 5.566C108.521 4.70733 109.52 4.278 110.733 4.278C112.301 4.278 113.421 4.95467 114.093 6.308L112.805 6.994C112.376 6.014 111.671 5.524 110.691 5.524C109.935 5.524 109.31 5.85067 108.815 6.504C108.32 7.148 108.073 7.91333 108.073 8.8C108.073 9.68667 108.316 10.438 108.801 11.054C109.286 11.67 109.916 11.978 110.691 11.978C111.354 11.978 111.881 11.7447 112.273 11.278C112.665 10.8113 112.861 10.256 112.861 9.612H110.831V8.478H114.499ZM120.949 13H119.171L116.763 9.22L116.749 13H115.307V4.502H117.561C119.456 4.502 120.403 5.356 120.403 7.064C120.403 7.708 120.235 8.24467 119.899 8.674C119.572 9.10333 119.124 9.35067 118.555 9.416L120.949 13ZM116.749 8.632H117.183C118.368 8.632 118.961 8.12333 118.961 7.106C118.961 6.126 118.373 5.636 117.197 5.636H116.749V8.632ZM123.178 11.096L122.422 13H120.896L124.2 4.278H125.488L128.708 13H127.168L126.454 11.096H123.178ZM124.76 6.364L123.528 9.962H126.062L124.76 6.364ZM135.637 7.274L133.509 13.112H133.159L131.157 7.246L130.191 13H128.749L130.177 4.278H131.241L133.453 10.116L135.567 4.278H136.645L137.919 13H136.477L135.637 7.274ZM145.057 7.274L142.929 13.112H142.579L140.577 7.246L139.611 13H138.169L139.597 4.278H140.661L142.873 10.116L144.987 4.278L146.065 4.278L147.339 13H145.897L145.057 7.274ZM149.507 5.72V7.932H152.363V9.15L149.507 9.15V11.782L152.461 11.782V13L148.065 13V4.502H152.461V5.72H149.507ZM159.203 13H157.425L155.017 9.22L155.003 13H153.561V4.502L155.815 4.502C157.71 4.502 158.657 5.356 158.657 7.064C158.657 7.708 158.489 8.24467 158.153 8.674C157.826 9.10333 157.378 9.35067 156.809 9.416L159.203 13ZM155.003 8.632H155.437C156.622 8.632 157.215 8.12333 157.215 7.106C157.215 6.126 156.627 5.636 155.451 5.636H155.003V8.632Z" fill="white"/>
</svg>
