<svg width="71" height="16" viewBox="0 0 71 16" fill="none" xmlns="http://www.w3.org/2000/svg">
<rect width="71" height="16" fill="black"/>
<path d="M8.226 5.146C8.226 5.36067 8.14667 5.54733 7.988 5.706C7.82933 5.86467 7.64267 5.944 7.428 5.944C7.21333 5.944 7.02667 5.86467 6.868 5.706C6.70933 5.54733 6.63 5.36067 6.63 5.146C6.63 4.93133 6.70933 4.74467 6.868 4.586C7.02667 4.42733 7.21333 4.348 7.428 4.348C7.64267 4.348 7.82933 4.42733 7.988 4.586C8.14667 4.74467 8.226 4.93133 8.226 5.146ZM8.114 13H6.756L6.756 7.47H8.114V13ZM9.05342 8.772C9.05342 7.53067 9.45009 6.47133 10.2434 5.594C11.0461 4.71667 12.0541 4.278 13.2674 4.278C14.4808 4.278 15.4841 4.71667 16.2774 5.594C17.0708 6.47133 17.4674 7.526 17.4674 8.758C17.4674 9.99 17.0708 11.0447 16.2774 11.922C15.4934 12.79 14.4901 13.224 13.2674 13.224C12.0448 13.224 11.0368 12.79 10.2434 11.922C9.45009 11.054 9.05342 10.004 9.05342 8.772ZM10.5514 8.674C10.5514 9.50467 10.8128 10.2373 11.3354 10.872C11.8581 11.4973 12.5021 11.81 13.2674 11.81C14.0888 11.81 14.7468 11.5113 15.2414 10.914C15.7361 10.3073 15.9834 9.56067 15.9834 8.674C15.9834 7.834 15.7361 7.12933 15.2414 6.56C14.7468 5.98133 14.0841 5.692 13.2534 5.692C12.4321 5.692 11.7741 5.98133 11.2794 6.56C10.7941 7.13867 10.5514 7.84333 10.5514 8.674ZM22.3938 6.224C22.0298 5.71067 21.5678 5.454 21.0078 5.454C20.6531 5.454 20.3544 5.56133 20.1118 5.776C19.8691 5.99067 19.7478 6.28 19.7478 6.644C19.7478 6.99867 20.1864 7.42333 21.0638 7.918C21.9504 8.41267 22.3984 8.66 22.4078 8.66C23.0331 9.12667 23.3458 9.67733 23.3458 10.312C23.3458 11.18 23.0938 11.8847 22.5898 12.426C22.0951 12.958 21.4138 13.224 20.5458 13.224C19.4444 13.224 18.5764 12.6733 17.9418 11.572L18.8518 10.676C18.9731 11.0027 19.1971 11.3013 19.5238 11.572C19.8504 11.8427 20.1864 11.978 20.5318 11.978C20.9424 11.978 21.2644 11.838 21.4978 11.558C21.7404 11.278 21.8618 10.9373 21.8618 10.536C21.8618 10.2467 21.7731 9.99467 21.5958 9.78C21.4184 9.556 20.8164 9.22 19.7898 8.772C18.7724 8.31467 18.2638 7.666 18.2638 6.826C18.2638 6.10733 18.4971 5.50533 18.9638 5.02C19.4398 4.52533 20.0324 4.278 20.7418 4.278C21.7218 4.278 22.4964 4.59533 23.0658 5.23L22.3938 6.224ZM30.4555 11.096L29.6995 13H28.1735L31.4775 4.278H32.7655L35.9855 13H34.4455L33.7315 11.096H30.4555ZM32.0375 6.364L30.8055 9.962H33.3395L32.0375 6.364ZM42.1444 13H40.3664L37.9584 9.22L37.9444 13H36.5024V4.502H38.7564C40.6511 4.502 41.5984 5.356 41.5984 7.064C41.5984 7.708 41.4304 8.24467 41.0944 8.674C40.7677 9.10333 40.3197 9.35067 39.7504 9.416L42.1444 13ZM37.9444 8.632H38.3784C39.5637 8.632 40.1564 8.12333 40.1564 7.106C40.1564 6.126 39.5684 5.636 38.3924 5.636H37.9444V8.632ZM49.0492 11.096L48.2932 13H46.7672L50.0712 4.278H51.3592L54.5792 13L53.0392 13L52.3252 11.096H49.0492ZM50.6312 6.364L49.3992 9.962H51.9332L50.6312 6.364ZM56.5381 13H55.0961V4.502H57.3501C59.3195 4.502 60.3041 5.37933 60.3041 7.134C60.3041 8.926 59.3988 9.822 57.5881 9.822H56.5381V13ZM56.5381 8.674H57.2521C58.3068 8.674 58.8341 8.16067 58.8341 7.134C58.8341 6.14467 58.2928 5.65 57.2101 5.65H56.5381V8.674ZM62.4854 13H61.0434V4.502H63.2974C65.2667 4.502 66.2514 5.37933 66.2514 7.134C66.2514 8.926 65.3461 9.822 63.5354 9.822H62.4854V13ZM62.4854 8.674H63.1994C64.2541 8.674 64.7814 8.16067 64.7814 7.134C64.7814 6.14467 64.2401 5.65 63.1574 5.65H62.4854V8.674Z" fill="white"/>
</svg>
