<svg width="71" height="47" viewBox="0 0 71 47" fill="none" xmlns="http://www.w3.org/2000/svg">
<path d="M6.066 35.288C5.598 34.628 5.004 34.298 4.284 34.298C3.828 34.298 3.444 34.436 3.132 34.712C2.82 34.988 2.664 35.36 2.664 35.828C2.664 36.284 3.228 36.83 4.356 37.466C5.496 38.102 6.072 38.42 6.084 38.42C6.888 39.02 7.29 39.728 7.29 40.544C7.29 41.66 6.966 42.566 6.318 43.262C5.682 43.946 4.806 44.288 3.69 44.288C2.274 44.288 1.158 43.58 0.342 42.164L1.512 41.012C1.668 41.432 1.956 41.816 2.376 42.164C2.796 42.512 3.228 42.686 3.672 42.686C4.2 42.686 4.614 42.506 4.914 42.146C5.226 41.786 5.382 41.348 5.382 40.832C5.382 40.46 5.268 40.136 5.04 39.86C4.812 39.572 4.038 39.14 2.718 38.564C1.41 37.976 0.756 37.142 0.756 36.062C0.756 35.138 1.056 34.364 1.656 33.74C2.268 33.104 3.03 32.786 3.942 32.786C5.202 32.786 6.198 33.194 6.93 34.01L6.066 35.288ZM15.6933 35.684C15.0573 34.916 14.2593 34.532 13.2993 34.532C12.3033 34.532 11.4693 34.946 10.7973 35.774C10.1253 36.59 9.78933 37.526 9.78933 38.582C9.78933 39.602 10.1193 40.52 10.7793 41.336C11.4513 42.14 12.2853 42.542 13.2813 42.542C14.2293 42.542 15.0333 42.158 15.6933 41.39V43.64C14.8053 44.072 13.9833 44.288 13.2273 44.288C11.7153 44.288 10.4433 43.73 9.41133 42.614C8.37933 41.498 7.86333 40.166 7.86333 38.618C7.86333 37.01 8.37933 35.636 9.41133 34.496C10.4433 33.356 11.7273 32.786 13.2633 32.786C14.0673 32.786 14.8773 32.996 15.6933 33.416V35.684ZM24.3581 44H22.0721L18.9761 39.14L18.9581 44H17.1041V33.074H20.0021C22.4381 33.074 23.6561 34.172 23.6561 36.368C23.6561 37.196 23.4401 37.886 23.0081 38.438C22.5881 38.99 22.0121 39.308 21.2801 39.392L24.3581 44ZM18.9581 38.384H19.5161C21.0401 38.384 21.8021 37.73 21.8021 36.422C21.8021 35.162 21.0461 34.532 19.5341 34.532H18.9581V38.384ZM24.668 38.564C24.668 36.968 25.178 35.606 26.198 34.478C27.23 33.35 28.526 32.786 30.086 32.786C31.646 32.786 32.936 33.35 33.956 34.478C34.976 35.606 35.486 36.962 35.486 38.546C35.486 40.13 34.976 41.486 33.956 42.614C32.948 43.73 31.658 44.288 30.086 44.288C28.514 44.288 27.218 43.73 26.198 42.614C25.178 41.498 24.668 40.148 24.668 38.564ZM26.594 38.438C26.594 39.506 26.93 40.448 27.602 41.264C28.274 42.068 29.102 42.47 30.086 42.47C31.142 42.47 31.988 42.086 32.624 41.318C33.26 40.538 33.578 39.578 33.578 38.438C33.578 37.358 33.26 36.452 32.624 35.72C31.988 34.976 31.136 34.604 30.068 34.604C29.012 34.604 28.166 34.976 27.53 35.72C26.906 36.464 26.594 37.37 26.594 38.438ZM38.3819 42.434H41.6759V44H36.5279V33.074H38.3819V42.434ZM44.2178 42.434H47.5118V44H42.3638V33.074H44.2178V42.434ZM54.1575 33.074H56.0115V39.194C56.0115 41.546 56.7495 42.722 58.2255 42.722C59.7015 42.722 60.4395 41.546 60.4395 39.194V33.074H62.2755V39.608C62.2755 42.728 60.9195 44.288 58.2075 44.288C55.5075 44.288 54.1575 42.728 54.1575 39.608V33.074ZM65.628 44H63.774V33.074H66.672C69.204 33.074 70.47 34.202 70.47 36.458C70.47 38.762 69.306 39.914 66.978 39.914H65.628V44ZM65.628 38.438H66.546C67.902 38.438 68.58 37.778 68.58 36.458C68.58 35.186 67.884 34.55 66.492 34.55H65.628V38.438Z" fill="black"/>
<path d="M35.7071 0.292893C35.3166 -0.0976311 34.6834 -0.0976311 34.2929 0.292893L27.9289 6.65685C27.5384 7.04738 27.5384 7.68054 27.9289 8.07107C28.3195 8.46159 28.9526 8.46159 29.3431 8.07107L35 2.41421L40.6569 8.07107C41.0474 8.46159 41.6805 8.46159 42.0711 8.07107C42.4616 7.68054 42.4616 7.04738 42.0711 6.65685L35.7071 0.292893ZM36 20L36 1L34 1L34 20L36 20Z" fill="black"/>
</svg>
