<svg width="264" height="180" viewBox="0 0 264 180" fill="none" xmlns="http://www.w3.org/2000/svg">
<rect width="264" height="180" transform="matrix(1 0 0 -1 0 180)" fill="black"/>
<path d="M129.213 83.048H131.085L139.317 94.016L139.365 83.432H141.813V98.288H139.965L131.709 87.344L131.685 98H129.213V83.048ZM146.357 85.52V89.312H151.253V91.4H146.357V95.912H151.421V98H143.885V83.432H151.421V85.52H146.357ZM157.746 98H155.514V85.52H152.274V83.432H160.986V85.52H157.746V98ZM162.025 83.432H165.577C168.489 83.432 169.945 84.752 169.945 87.392C169.945 88.688 169.521 89.632 168.673 90.224C169.441 90.352 170.041 90.76 170.473 91.448C170.921 92.136 171.145 92.944 171.145 93.872C171.145 95.232 170.713 96.264 169.849 96.968C169.001 97.656 167.881 98 166.489 98H162.025V83.432ZM164.497 96.032H165.865C167.753 96.032 168.697 95.232 168.697 93.632C168.697 92.192 167.705 91.472 165.721 91.472H164.497V96.032ZM164.497 89.696H165.601C166.977 89.696 167.665 88.992 167.665 87.584C167.665 86.08 166.985 85.328 165.625 85.328H164.497V89.696ZM172.017 90.752C172.017 88.624 172.697 86.808 174.057 85.304C175.433 83.8 177.161 83.048 179.241 83.048C181.321 83.048 183.041 83.8 184.401 85.304C185.761 86.808 186.441 88.616 186.441 90.728C186.441 92.84 185.761 94.648 184.401 96.152C183.057 97.64 181.337 98.384 179.241 98.384C177.145 98.384 175.417 97.64 174.057 96.152C172.697 94.664 172.017 92.864 172.017 90.752ZM174.585 90.584C174.585 92.008 175.033 93.264 175.929 94.352C176.825 95.424 177.929 95.96 179.241 95.96C180.649 95.96 181.777 95.448 182.625 94.424C183.473 93.384 183.897 92.104 183.897 90.584C183.897 89.144 183.473 87.936 182.625 86.96C181.777 85.968 180.641 85.472 179.217 85.472C177.809 85.472 176.681 85.968 175.833 86.96C175.001 87.952 174.585 89.16 174.585 90.584ZM197.502 98H194.454L190.326 91.52L190.302 98H187.83V83.432H191.694C194.942 83.432 196.566 84.896 196.566 87.824C196.566 88.928 196.278 89.848 195.702 90.584C195.142 91.32 194.374 91.744 193.398 91.856L197.502 98ZM190.302 90.512H191.046C193.078 90.512 194.094 89.64 194.094 87.896C194.094 86.216 193.086 85.376 191.07 85.376H190.302V90.512Z" fill="white"/>
<path d="M65 87.8163H68.7143L85.0476 107.248L85.1429 88.4966H90V114.816H86.3333L69.9524 95.4273L69.9048 114.306H65V87.8163Z" fill="white"/>
<path fill-rule="evenodd" clip-rule="evenodd" d="M77.2721 66L53 90.2721L57.0454 94.3175L77.2721 74.0907L97.4988 94.3174L77.2721 114.544L77.2721 114.544L97.4989 94.3175L97.4988 94.3174L101.544 90.2721L77.2721 66Z" fill="white"/>
<rect x="73" y="81" width="9" height="9" fill="white"/>
</svg>
