<svg width="264" height="180" viewBox="0 0 264 180" fill="none" xmlns="http://www.w3.org/2000/svg">
<rect width="264" height="180" transform="matrix(1 0 0 -1 0 180)" fill="black"/>
<path d="M158.685 85.52V89.312H163.173V91.4H158.685V98H156.213V83.432H163.461V85.52H158.685ZM167.878 94.736L166.582 98H163.966L169.63 83.048H171.838L177.358 98H174.718L173.494 94.736H167.878ZM170.59 86.624L168.478 92.792H172.822L170.59 86.624ZM187.988 86.912C187.14 85.888 186.076 85.376 184.796 85.376C183.468 85.376 182.356 85.928 181.46 87.032C180.564 88.12 180.116 89.368 180.116 90.776C180.116 92.136 180.556 93.36 181.436 94.448C182.332 95.52 183.444 96.056 184.772 96.056C186.036 96.056 187.108 95.544 187.988 94.52V97.52C186.804 98.096 185.708 98.384 184.7 98.384C182.684 98.384 180.988 97.64 179.612 96.152C178.236 94.664 177.548 92.888 177.548 90.824C177.548 88.68 178.236 86.848 179.612 85.328C180.988 83.808 182.7 83.048 184.748 83.048C185.82 83.048 186.9 83.328 187.988 83.888V86.912ZM192.341 85.52V89.312H197.237V91.4H192.341V95.912H197.405V98H189.869V83.432H197.405V85.52H192.341ZM199.027 83.432H202.003L204.523 88.28L206.827 83.432H209.803L205.795 90.272L210.259 98H207.331L204.211 92.432L201.235 98H198.307L202.939 90.248L199.027 83.432Z" fill="white"/>
<path fill-rule="evenodd" clip-rule="evenodd" d="M102.815 88.8197C104.377 90.3818 106.91 90.3818 108.472 88.8197C110.034 87.2576 110.034 84.725 108.472 83.1629L103.522 78.2131L108.472 73.2634C110.034 71.7013 110.034 69.1686 108.472 67.6065C106.91 66.0444 104.377 66.0444 102.815 67.6065L97.8655 72.5563L92.9158 67.6065C91.3537 66.0444 88.821 66.0444 87.2589 67.6065C85.6968 69.1686 85.6968 71.7013 87.2589 73.2634L92.2087 78.2131L87.2589 83.1629C85.6968 84.725 85.6968 87.2576 87.2589 88.8197C88.821 90.3818 91.3537 90.3818 92.9158 88.8197L97.8655 83.87L102.815 88.8197Z" fill="white"/>
<circle cx="66.8657" cy="78.2131" r="13" fill="white"/>
<path fill-rule="evenodd" clip-rule="evenodd" d="M82.8017 119.213C94.4034 119.213 103.999 111.29 105.574 100.99C105.824 99.3518 104.457 98 102.8 98H62.8031C61.1463 98 59.7793 99.3518 60.0297 100.99C61.6049 111.29 71.2001 119.213 82.8017 119.213Z" fill="white"/>
</svg>
