<svg width="98" height="18" viewBox="0 0 98 18" fill="none" xmlns="http://www.w3.org/2000/svg">
<path d="M29.082 6.684C28.446 5.916 27.648 5.532 26.688 5.532C25.692 5.532 24.858 5.946 24.186 6.774C23.514 7.59 23.178 8.526 23.178 9.582C23.178 10.602 23.508 11.52 24.168 12.336C24.84 13.14 25.674 13.542 26.67 13.542C27.618 13.542 28.422 13.158 29.082 12.39V14.64C28.194 15.072 27.372 15.288 26.616 15.288C25.104 15.288 23.832 14.73 22.8 13.614C21.768 12.498 21.252 11.166 21.252 9.618C21.252 8.01 21.768 6.636 22.8 5.496C23.832 4.356 25.116 3.786 26.652 3.786C27.456 3.786 28.266 3.996 29.082 4.416V6.684ZM32.5268 12.552L31.5548 15H29.5927L33.8408 3.786H35.4968L39.6367 15H37.6568L36.7388 12.552H32.5268ZM34.5608 6.468L32.9768 11.094H36.2348L34.5608 6.468ZM47.5553 15H45.2693L42.1733 10.14L42.1553 15H40.3013V4.074H43.1993C45.6353 4.074 46.8533 5.172 46.8533 7.368C46.8533 8.196 46.6373 8.886 46.2053 9.438C45.7853 9.99 45.2093 10.308 44.4773 10.392L47.5553 15ZM42.1553 9.384H42.7133C44.2373 9.384 44.9993 8.73 44.9993 7.422C44.9993 6.162 44.2433 5.532 42.7313 5.532H42.1553V9.384ZM48.3873 4.074H51.4473C53.0073 4.074 54.2733 4.59 55.2453 5.622C56.2293 6.654 56.7213 7.956 56.7213 9.528C56.7213 11.1 56.2233 12.408 55.2273 13.452C54.2433 14.484 52.9773 15 51.4293 15H48.3873V4.074ZM50.2413 13.326H50.8713C53.4873 13.326 54.7953 12.066 54.7953 9.546C54.7953 7.014 53.4873 5.748 50.8713 5.748H50.2413V13.326ZM67.6926 12.246L70.3926 4.074H72.4446L68.1966 15.288H66.9546L62.7786 4.074H64.7766L67.6926 12.246ZM74.9947 15H73.1407V4.074H74.9947V15ZM78.5245 5.64V8.484H82.1965V10.05H78.5245V13.434H82.3225V15H76.6705V4.074H82.3225V5.64H78.5245ZM87.1749 12.156L89.5329 3.93H90.5049L92.9709 12.156L95.3829 4.074H97.3269L93.6189 15.216H92.2149L89.8929 7.71L87.6609 15.216H86.2389L82.7649 4.074H84.7089L87.1749 12.156Z" fill="#FF6230"/>
<rect y="5" width="4" height="4" fill="#FF6230"/>
<rect x="5" y="5" width="4" height="4" fill="#FF6230"/>
<rect y="10" width="4" height="4" fill="#FF6230"/>
<rect x="5" y="10" width="4" height="4" fill="#FF6230"/>
</svg>
