<svg width="264" height="180" viewBox="0 0 264 180" fill="none" xmlns="http://www.w3.org/2000/svg">
<rect x="2" y="-2" width="260" height="176" rx="6" transform="matrix(1 0 0 -1 1.19209e-07 176)" fill="white" stroke="black" stroke-width="4"/>
<path d="M149.024 83.184L145.376 93.192H144.776L141.344 83.136L139.688 93H137.216L139.664 78.048H141.488L145.28 88.056L148.904 78.048H150.752L152.936 93H150.464L149.024 83.184ZM153.484 85.752C153.484 83.624 154.164 81.808 155.524 80.304C156.9 78.8 158.628 78.048 160.708 78.048C162.788 78.048 164.508 78.8 165.868 80.304C167.228 81.808 167.908 83.616 167.908 85.728C167.908 87.84 167.228 89.648 165.868 91.152C164.524 92.64 162.804 93.384 160.708 93.384C158.612 93.384 156.884 92.64 155.524 91.152C154.164 89.664 153.484 87.864 153.484 85.752ZM156.052 85.584C156.052 87.008 156.5 88.264 157.396 89.352C158.292 90.424 159.396 90.96 160.708 90.96C162.116 90.96 163.244 90.448 164.092 89.424C164.94 88.384 165.364 87.104 165.364 85.584C165.364 84.144 164.94 82.936 164.092 81.96C163.244 80.968 162.108 80.472 160.684 80.472C159.276 80.472 158.148 80.968 157.3 81.96C156.468 82.952 156.052 84.16 156.052 85.584ZM173.738 93H171.506V80.52H168.266V78.432H176.978V80.52H173.738V93ZM180.68 93H178.208V78.432H180.68V93ZM182.219 85.752C182.219 83.624 182.899 81.808 184.259 80.304C185.635 78.8 187.363 78.048 189.443 78.048C191.523 78.048 193.243 78.8 194.603 80.304C195.963 81.808 196.643 83.616 196.643 85.728C196.643 87.84 195.963 89.648 194.603 91.152C193.259 92.64 191.539 93.384 189.443 93.384C187.347 93.384 185.619 92.64 184.259 91.152C182.899 89.664 182.219 87.864 182.219 85.752ZM184.787 85.584C184.787 87.008 185.235 88.264 186.131 89.352C187.027 90.424 188.131 90.96 189.443 90.96C190.851 90.96 191.979 90.448 192.827 89.424C193.675 88.384 194.099 87.104 194.099 85.584C194.099 84.144 193.675 82.936 192.827 81.96C191.979 80.968 190.843 80.472 189.419 80.472C188.011 80.472 186.883 80.968 186.035 81.96C185.203 82.952 184.787 84.16 184.787 85.584ZM198.032 78.048H199.904L208.136 89.016L208.184 78.432H210.632V93.288H208.784L200.528 82.344L200.504 93H198.032V78.048Z" fill="black"/>
<path d="M143.388 101.456C142.964 100.944 142.432 100.688 141.792 100.688C141.128 100.688 140.572 100.964 140.124 101.516C139.676 102.06 139.452 102.684 139.452 103.388C139.452 104.068 139.672 104.68 140.112 105.224C140.56 105.76 141.116 106.028 141.78 106.028C142.412 106.028 142.948 105.772 143.388 105.26V106.76C142.796 107.048 142.248 107.192 141.744 107.192C140.736 107.192 139.888 106.82 139.2 106.076C138.512 105.332 138.168 104.444 138.168 103.412C138.168 102.34 138.512 101.424 139.2 100.664C139.888 99.904 140.744 99.524 141.768 99.524C142.304 99.524 142.844 99.664 143.388 99.944V101.456ZM148.949 104.624C148.949 105.368 148.721 105.976 148.265 106.448C147.809 106.92 147.209 107.156 146.465 107.156C145.729 107.156 145.129 106.92 144.665 106.448C144.201 105.976 143.969 105.372 143.969 104.636C143.969 103.892 144.197 103.284 144.653 102.812C145.109 102.34 145.709 102.104 146.453 102.104C147.197 102.104 147.797 102.34 148.253 102.812C148.717 103.276 148.949 103.88 148.949 104.624ZM145.145 104.648C145.145 105.088 145.269 105.448 145.517 105.728C145.765 106.008 146.085 106.148 146.477 106.148C146.869 106.148 147.181 106 147.413 105.704C147.653 105.4 147.773 105.044 147.773 104.636C147.773 104.22 147.653 103.864 147.413 103.568C147.173 103.264 146.857 103.112 146.465 103.112C146.081 103.112 145.765 103.256 145.517 103.544C145.269 103.832 145.145 104.2 145.145 104.648ZM150.849 107H149.685V98.804H150.849V107ZM153.158 107H151.994V98.804H153.158V107ZM155.107 104.744C155.107 105.2 155.207 105.576 155.407 105.872C155.607 106.168 155.883 106.316 156.235 106.316C156.787 106.316 157.139 106.044 157.291 105.5L158.395 105.68C158.035 106.664 157.315 107.156 156.235 107.156C155.515 107.156 154.939 106.928 154.507 106.472C154.083 106.008 153.871 105.408 153.871 104.672C153.871 103.896 154.075 103.276 154.483 102.812C154.899 102.34 155.459 102.104 156.163 102.104C156.875 102.104 157.427 102.328 157.819 102.776C158.219 103.216 158.419 103.82 158.419 104.588V104.744H155.107ZM157.339 104.096C157.339 103.768 157.235 103.48 157.027 103.232C156.827 102.984 156.563 102.86 156.235 102.86C155.915 102.86 155.651 102.992 155.443 103.256C155.243 103.512 155.143 103.792 155.143 104.096H157.339ZM162.274 103.496C161.978 103.2 161.646 103.052 161.278 103.052C160.846 103.052 160.506 103.208 160.258 103.52C160.01 103.832 159.886 104.216 159.886 104.672C159.886 105.12 160.026 105.488 160.306 105.776C160.586 106.064 160.926 106.208 161.326 106.208C161.67 106.208 161.986 106.056 162.274 105.752V106.868C161.938 107.06 161.55 107.156 161.11 107.156C160.422 107.156 159.85 106.912 159.394 106.424C158.938 105.936 158.71 105.34 158.71 104.636C158.71 103.932 158.942 103.336 159.406 102.848C159.878 102.352 160.466 102.104 161.17 102.104C161.586 102.104 161.954 102.204 162.274 102.404V103.496ZM164.541 107H163.377V103.304H162.813V102.356H163.377V100.652H164.541V102.356H165.465V103.304H164.541V107ZM167.189 100.268C167.189 100.452 167.121 100.612 166.985 100.748C166.849 100.884 166.689 100.952 166.505 100.952C166.321 100.952 166.161 100.884 166.025 100.748C165.889 100.612 165.821 100.452 165.821 100.268C165.821 100.084 165.889 99.924 166.025 99.788C166.161 99.652 166.321 99.584 166.505 99.584C166.689 99.584 166.849 99.652 166.985 99.788C167.121 99.924 167.189 100.084 167.189 100.268ZM167.093 107H165.929V102.26H167.093V107ZM172.866 104.624C172.866 105.368 172.638 105.976 172.182 106.448C171.726 106.92 171.126 107.156 170.382 107.156C169.646 107.156 169.046 106.92 168.582 106.448C168.118 105.976 167.886 105.372 167.886 104.636C167.886 103.892 168.114 103.284 168.57 102.812C169.026 102.34 169.626 102.104 170.37 102.104C171.114 102.104 171.714 102.34 172.17 102.812C172.634 103.276 172.866 103.88 172.866 104.624ZM169.062 104.648C169.062 105.088 169.186 105.448 169.434 105.728C169.682 106.008 170.002 106.148 170.394 106.148C170.786 106.148 171.098 106 171.33 105.704C171.57 105.4 171.69 105.044 171.69 104.636C171.69 104.22 171.57 103.864 171.33 103.568C171.09 103.264 170.774 103.112 170.382 103.112C169.998 103.112 169.682 103.256 169.434 103.544C169.186 103.832 169.062 104.2 169.062 104.648ZM174.671 102.692C174.999 102.3 175.483 102.104 176.123 102.104C177.211 102.104 177.755 102.772 177.755 104.108V107H176.603V104.492C176.603 103.492 176.295 102.992 175.679 102.992C175.007 102.992 174.671 103.528 174.671 104.6V107H173.507V102.26H174.671V102.692Z" fill="black"/>
<g clip-path="url(#clip0)">
<path d="M91.8616 84.352C100.222 84.352 107 77.5574 107 69.176C107 60.7945 100.222 54 91.8616 54C83.5009 54 76.7231 60.7945 76.7231 69.176C76.7231 77.5574 83.5009 84.352 91.8616 84.352Z" fill="#231F20"/>
<path d="M91.5895 84.532C99.867 84.532 106.577 77.8051 106.577 69.507C106.577 61.2089 99.867 54.4819 91.5895 54.4819C83.3119 54.4819 76.6016 61.2089 76.6016 69.507C76.6016 77.8051 83.3119 84.532 91.5895 84.532Z" fill="#231F20" stroke="#939598" stroke-width="0.01" stroke-miterlimit="10"/>
<path d="M91.3172 84.7178C99.5149 84.7178 106.16 78.0558 106.16 69.8379C106.16 61.62 99.5149 54.958 91.3172 54.958C83.1196 54.958 76.4741 61.62 76.4741 69.8379C76.4741 78.0558 83.1196 84.7178 91.3172 84.7178Z" fill="#231F20" stroke="#939598" stroke-width="0.02" stroke-miterlimit="10"/>
<path d="M91.0451 84.8976C99.1595 84.8976 105.738 78.3032 105.738 70.1686C105.738 62.0341 99.1595 55.4397 91.0451 55.4397C82.9306 55.4397 76.3525 62.0341 76.3525 70.1686C76.3525 78.3032 82.9306 84.8976 91.0451 84.8976Z" fill="#231F20" stroke="#939598" stroke-width="0.03" stroke-miterlimit="10"/>
<path d="M90.7787 85.0778C98.8132 85.0778 105.326 78.5484 105.326 70.494C105.326 62.4395 98.8132 55.9102 90.7787 55.9102C82.7442 55.9102 76.231 62.4395 76.231 70.494C76.231 78.5484 82.7442 85.0778 90.7787 85.0778Z" fill="#231F20" stroke="#939598" stroke-width="0.04" stroke-miterlimit="10"/>
<path d="M90.5065 85.2633C98.461 85.2633 104.909 78.7989 104.909 70.8246C104.909 62.8504 98.461 56.386 90.5065 56.386C82.5519 56.386 76.1035 62.8504 76.1035 70.8246C76.1035 78.7989 82.5519 85.2633 90.5065 85.2633Z" fill="#231F20" stroke="#939598" stroke-width="0.05" stroke-miterlimit="10"/>
<path d="M90.2343 85.4493C98.1088 85.4493 104.492 79.0499 104.492 71.1558C104.492 63.2617 98.1088 56.8623 90.2343 56.8623C82.3597 56.8623 75.9761 63.2617 75.9761 71.1558C75.9761 79.0499 82.3597 85.4493 90.2343 85.4493Z" fill="#231F20" stroke="#939598" stroke-width="0.06" stroke-miterlimit="10"/>
<path d="M89.962 85.6349C97.7567 85.6349 104.075 79.3004 104.075 71.4865C104.075 63.6726 97.7567 57.3381 89.962 57.3381C82.1674 57.3381 75.8486 63.6726 75.8486 71.4865C75.8486 79.3004 82.1674 85.6349 89.962 85.6349Z" fill="#231F20" stroke="#939598" stroke-width="0.07" stroke-miterlimit="10"/>
<path d="M89.6956 85.8208C97.4135 85.8208 103.67 79.5488 103.67 71.8118C103.67 64.0748 97.4135 57.8027 89.6956 57.8027C81.9777 57.8027 75.7212 64.0748 75.7212 71.8118C75.7212 79.5488 81.9777 85.8208 89.6956 85.8208Z" fill="#231F20" stroke="#939598" stroke-width="0.08" stroke-miterlimit="10"/>
<path d="M89.4233 86.0124C97.0644 86.0124 103.259 79.8027 103.259 72.1427C103.259 64.4826 97.0644 58.2729 89.4233 58.2729C81.7822 58.2729 75.5879 64.4826 75.5879 72.1427C75.5879 79.8027 81.7822 86.0124 89.4233 86.0124Z" fill="#231F20" stroke="#939598" stroke-width="0.09" stroke-miterlimit="10"/>
<path d="M89.151 86.2039C96.7154 86.2039 102.847 80.0566 102.847 72.4735C102.847 64.8905 96.7154 58.7432 89.151 58.7432C81.5867 58.7432 75.4546 64.8905 75.4546 72.4735C75.4546 80.0566 81.5867 86.2039 89.151 86.2039Z" fill="#231F20" stroke="#939598" stroke-width="0.1" stroke-miterlimit="10"/>
<path d="M88.8792 86.3955C96.3668 86.3955 102.437 80.3105 102.437 72.8044C102.437 65.2983 96.3668 59.2134 88.8792 59.2134C81.3916 59.2134 75.3218 65.2983 75.3218 72.8044C75.3218 80.3105 81.3916 86.3955 88.8792 86.3955Z" fill="#231F20" stroke="#939598" stroke-width="0.11" stroke-miterlimit="10"/>
<path d="M88.6128 86.5814C96.0236 86.5814 102.031 80.5588 102.031 73.1297C102.031 65.7005 96.0236 59.678 88.6128 59.678C81.202 59.678 75.1943 65.7005 75.1943 73.1297C75.1943 80.5588 81.202 86.5814 88.6128 86.5814Z" fill="#231F20" stroke="#939598" stroke-width="0.12" stroke-miterlimit="10"/>
<path d="M88.3404 86.7787C95.6777 86.7787 101.626 80.8159 101.626 73.4605C101.626 66.1051 95.6777 60.1423 88.3404 60.1423C81.0032 60.1423 75.0552 66.1051 75.0552 73.4605C75.0552 80.8159 81.0032 86.7787 88.3404 86.7787Z" fill="#231F20" stroke="#939598" stroke-width="0.13" stroke-miterlimit="10"/>
<path d="M88.0681 86.9762C95.3317 86.9762 101.22 81.0732 101.22 73.7916C101.22 66.5099 95.3317 60.6069 88.0681 60.6069C80.8044 60.6069 74.916 66.5099 74.916 73.7916C74.916 81.0732 80.8044 86.9762 88.0681 86.9762Z" fill="#231F20" stroke="#939598" stroke-width="0.14" stroke-miterlimit="10"/>
<path d="M87.7962 87.1735C94.9863 87.1735 100.815 81.3303 100.815 74.1224C100.815 66.9145 94.9863 61.0713 87.7962 61.0713C80.6061 61.0713 74.7773 66.9145 74.7773 74.1224C74.7773 81.3303 80.6061 87.1735 87.7962 87.1735Z" fill="#231F20" stroke="#939598" stroke-width="0.15" stroke-miterlimit="10"/>
<path d="M87.5238 87.3708C94.6404 87.3708 100.409 81.5874 100.409 74.4532C100.409 67.319 94.6404 61.5356 87.5238 61.5356C80.4073 61.5356 74.6382 67.319 74.6382 74.4532C74.6382 81.5874 80.4073 87.3708 87.5238 87.3708Z" fill="#231F20" stroke="#939598" stroke-width="0.16" stroke-miterlimit="10"/>
<path d="M87.2573 87.5682C94.3034 87.5682 100.015 81.842 100.015 74.7784C100.015 67.7147 94.3034 61.9885 87.2573 61.9885C80.2111 61.9885 74.499 67.7147 74.499 74.7784C74.499 81.842 80.2111 87.5682 87.2573 87.5682Z" fill="#231F20" stroke="#939598" stroke-width="0.17" stroke-miterlimit="10"/>
<path d="M86.9853 87.7715C93.9611 87.7715 99.6162 82.1025 99.6162 75.1094C99.6162 68.1163 93.9611 62.4473 86.9853 62.4473C80.0095 62.4473 74.3545 68.1163 74.3545 75.1094C74.3545 82.1025 80.0095 87.7715 86.9853 87.7715Z" fill="#231F20" stroke="#939598" stroke-width="0.18" stroke-miterlimit="10"/>
<path d="M86.7129 87.9746C93.6183 87.9746 99.2163 82.3627 99.2163 75.4402C99.2163 68.5176 93.6183 62.9058 86.7129 62.9058C79.8074 62.9058 74.2095 68.5176 74.2095 75.4402C74.2095 82.3627 79.8074 87.9746 86.7129 87.9746Z" fill="#231F20" stroke="#939598" stroke-width="0.19" stroke-miterlimit="10"/>
<path d="M86.4409 88.1836C93.2792 88.1836 98.8227 82.6264 98.8227 75.7711C98.8227 68.9159 93.2792 63.3586 86.4409 63.3586C79.6026 63.3586 74.0591 68.9159 74.0591 75.7711C74.0591 82.6264 79.6026 88.1836 86.4409 88.1836Z" fill="#231F20" stroke="#939598" stroke-width="0.2" stroke-miterlimit="10"/>
<path d="M86.1747 88.3868C92.9459 88.3868 98.4349 82.8841 98.4349 76.0962C98.4349 69.3083 92.9459 63.8057 86.1747 63.8057C79.4036 63.8057 73.9146 69.3083 73.9146 76.0962C73.9146 82.8841 79.4036 88.3868 86.1747 88.3868Z" fill="#231F20" stroke="#939598" stroke-width="0.21" stroke-miterlimit="10"/>
<path d="M85.9022 88.5958C92.6062 88.5958 98.0408 83.1478 98.0408 76.4272C98.0408 69.7066 92.6062 64.2585 85.9022 64.2585C79.1983 64.2585 73.7637 69.7066 73.7637 76.4272C73.7637 83.1478 79.1983 88.5958 85.9022 88.5958Z" fill="#231F20" stroke="#939598" stroke-width="0.22" stroke-miterlimit="10"/>
<path d="M85.6302 88.8049C92.267 88.8049 97.6472 83.4114 97.6472 76.7582C97.6472 70.1049 92.267 64.7114 85.6302 64.7114C78.9935 64.7114 73.6133 70.1049 73.6133 76.7582C73.6133 83.4114 78.9935 88.8049 85.6302 88.8049Z" fill="#231F20" stroke="#939598" stroke-width="0.23" stroke-miterlimit="10"/>
<path d="M85.3582 89.0197C91.931 89.0197 97.2593 83.6782 97.2593 77.0891C97.2593 70.5 91.931 65.1584 85.3582 65.1584C78.7853 65.1584 73.457 70.5 73.457 77.0891C73.457 83.6782 78.7853 89.0197 85.3582 89.0197Z" fill="#231F20" stroke="#939598" stroke-width="0.24" stroke-miterlimit="10"/>
<path d="M85.0915 89.2286C91.6003 89.2286 96.8768 83.9391 96.8768 77.4141C96.8768 70.8891 91.6003 65.5996 85.0915 65.5996C78.5826 65.5996 73.3062 70.8891 73.3062 77.4141C73.3062 83.9391 78.5826 89.2286 85.0915 89.2286Z" fill="#231F20" stroke="#939598" stroke-width="0.25" stroke-miterlimit="10"/>
<path d="M84.8193 89.4494C91.2674 89.4494 96.4946 84.2093 96.4946 77.7452C96.4946 71.2812 91.2674 66.041 84.8193 66.041C78.3712 66.041 73.144 71.2812 73.144 77.7452C73.144 84.2093 78.3712 89.4494 84.8193 89.4494Z" fill="#231F20" stroke="#939598" stroke-width="0.26" stroke-miterlimit="10"/>
<path d="M84.5472 89.67C90.9345 89.67 96.1124 84.4792 96.1124 78.0761C96.1124 71.6729 90.9345 66.4822 84.5472 66.4822C78.1599 66.4822 72.9819 71.6729 72.9819 78.0761C72.9819 84.4792 78.1599 89.67 84.5472 89.67Z" fill="#231F20" stroke="#939598" stroke-width="0.27" stroke-miterlimit="10"/>
<path d="M84.275 89.8905C90.6016 89.8905 95.7302 84.7491 95.7302 78.4069C95.7302 72.0647 90.6016 66.9233 84.275 66.9233C77.9485 66.9233 72.8198 72.0647 72.8198 78.4069C72.8198 84.7491 77.9485 89.8905 84.275 89.8905Z" fill="#231F20" stroke="#939598" stroke-width="0.28" stroke-miterlimit="10"/>
<path d="M84.0087 90.117C90.2776 90.117 95.3596 85.0225 95.3596 78.738C95.3596 72.4535 90.2776 67.3589 84.0087 67.3589C77.7397 67.3589 72.6577 72.4535 72.6577 78.738C72.6577 85.0225 77.7397 90.117 84.0087 90.117Z" fill="#231F20" stroke="#939598" stroke-width="0.29" stroke-miterlimit="10"/>
<path d="M83.7365 90.3375C89.9478 90.3375 94.9832 85.2897 94.9832 79.0629C94.9832 72.8361 89.9478 67.7883 83.7365 67.7883C77.5251 67.7883 72.4897 72.8361 72.4897 79.0629C72.4897 85.2897 77.5251 90.3375 83.7365 90.3375Z" fill="#231F20" stroke="#939598" stroke-width="0.3" stroke-miterlimit="10"/>
<path d="M83.4642 90.564C89.6181 90.564 94.6067 85.563 94.6067 79.394C94.6067 73.2249 89.6181 68.2239 83.4642 68.2239C77.3104 68.2239 72.3218 73.2249 72.3218 79.394C72.3218 85.563 77.3104 90.564 83.4642 90.564Z" fill="#231F20" stroke="#939598" stroke-width="0.31" stroke-miterlimit="10"/>
<path d="M83.192 90.7963C89.2914 90.7963 94.236 85.8395 94.236 79.7249C94.236 73.6104 89.2914 68.6536 83.192 68.6536C77.0925 68.6536 72.1479 73.6104 72.1479 79.7249C72.1479 85.8395 77.0925 90.7963 83.192 90.7963Z" fill="#231F20" stroke="#939598" stroke-width="0.32" stroke-miterlimit="10"/>
<path d="M82.9197 91.0284C88.9648 91.0284 93.8652 86.1157 93.8652 80.0557C93.8652 73.9956 88.9648 69.083 82.9197 69.083C76.8746 69.083 71.9741 73.9956 71.9741 80.0557C71.9741 86.1157 76.8746 91.0284 82.9197 91.0284Z" fill="#231F20" stroke="#939598" stroke-width="0.33" stroke-miterlimit="10"/>
<path d="M82.6532 91.2608C88.6471 91.2608 93.5061 86.3898 93.5061 80.381C93.5061 74.3723 88.6471 69.5012 82.6532 69.5012C76.6593 69.5012 71.8003 74.3723 71.8003 80.381C71.8003 86.3898 76.6593 91.2608 82.6532 91.2608Z" fill="#231F20" stroke="#939598" stroke-width="0.34" stroke-miterlimit="10"/>
<path d="M82.3813 91.4989C88.324 91.4989 93.1416 86.6694 93.1416 80.712C93.1416 74.7545 88.324 69.925 82.3813 69.925C76.4386 69.925 71.6211 74.7545 71.6211 80.712C71.6211 86.6694 76.4386 91.4989 82.3813 91.4989Z" fill="#231F20" stroke="#939598" stroke-width="0.35" stroke-miterlimit="10"/>
<path d="M82.1089 91.7427C88.0037 91.7427 92.7823 86.9522 92.7823 81.0428C92.7823 75.1335 88.0037 70.343 82.1089 70.343C76.2142 70.343 71.4355 75.1335 71.4355 81.0428C71.4355 86.9522 76.2142 91.7427 82.1089 91.7427Z" fill="#231F20" stroke="#939598" stroke-width="0.36" stroke-miterlimit="10"/>
<path d="M81.8365 91.9865C87.6833 91.9865 92.423 87.235 92.423 81.3737C92.423 75.5125 87.6833 70.761 81.8365 70.761C75.9897 70.761 71.25 75.5125 71.25 81.3737C71.25 87.235 75.9897 91.9865 81.8365 91.9865Z" fill="#231F20" stroke="#939598" stroke-width="0.37" stroke-miterlimit="10"/>
<path d="M81.5704 92.2301C87.3723 92.2301 92.0758 87.5151 92.0758 81.6987C92.0758 75.8823 87.3723 71.1672 81.5704 71.1672C75.7684 71.1672 71.0649 75.8823 71.0649 81.6987C71.0649 87.5151 75.7684 92.2301 81.5704 92.2301Z" fill="#231F20" stroke="#939598" stroke-width="0.38" stroke-miterlimit="10"/>
<path d="M81.2984 92.4799C87.0556 92.4799 91.7227 87.8012 91.7227 82.0298C91.7227 76.2583 87.0556 71.5796 81.2984 71.5796C75.5412 71.5796 70.874 76.2583 70.874 82.0298C70.874 87.8012 75.5412 92.4799 81.2984 92.4799Z" fill="#231F20" stroke="#939598" stroke-width="0.39" stroke-miterlimit="10"/>
<path d="M81.0259 92.7295C86.7383 92.7295 91.3692 88.0872 91.3692 82.3606C91.3692 76.634 86.7383 71.9917 81.0259 71.9917C75.3135 71.9917 70.6826 76.634 70.6826 82.3606C70.6826 88.0872 75.3135 92.7295 81.0259 92.7295Z" fill="#231F20" stroke="#939598" stroke-width="0.4" stroke-miterlimit="10"/>
<path d="M80.7538 92.985C86.4247 92.985 91.0218 88.3765 91.0218 82.6916C91.0218 77.0067 86.4247 72.3982 80.7538 72.3982C75.083 72.3982 70.4858 77.0067 70.4858 82.6916C70.4858 88.3765 75.083 92.985 80.7538 92.985Z" fill="#231F20" stroke="#939598" stroke-width="0.41" stroke-miterlimit="10"/>
<path d="M80.4875 93.2463C86.12 93.2463 90.686 88.669 90.686 83.0226C90.686 77.3762 86.12 72.7988 80.4875 72.7988C74.8551 72.7988 70.2891 77.3762 70.2891 83.0226C70.2891 88.669 74.8551 93.2463 80.4875 93.2463Z" fill="#231F20" stroke="#939598" stroke-width="0.42" stroke-miterlimit="10"/>
<path d="M80.2154 93.5015C85.8095 93.5015 90.3444 88.9554 90.3444 83.3474C90.3444 77.7395 85.8095 73.1934 80.2154 73.1934C74.6213 73.1934 70.0864 77.7395 70.0864 83.3474C70.0864 88.9554 74.6213 93.5015 80.2154 93.5015Z" fill="#231F20" stroke="#939598" stroke-width="0.43" stroke-miterlimit="10"/>
<path d="M79.9432 93.7688C85.5021 93.7688 90.0085 89.2513 90.0085 83.6786C90.0085 78.1059 85.5021 73.5884 79.9432 73.5884C74.3843 73.5884 69.8779 78.1059 69.8779 83.6786C69.8779 89.2513 74.3843 93.7688 79.9432 93.7688Z" fill="#231F20" stroke="#939598" stroke-width="0.44" stroke-miterlimit="10"/>
<path d="M79.671 94.0359C85.1947 94.0359 89.6726 89.5469 89.6726 84.0095C89.6726 78.4721 85.1947 73.9832 79.671 73.9832C74.1473 73.9832 69.6694 78.4721 69.6694 84.0095C69.6694 89.5469 74.1473 94.0359 79.671 94.0359Z" fill="#231F20" stroke="#939598" stroke-width="0.45" stroke-miterlimit="10"/>
<path d="M79.3987 94.3087C84.8905 94.3087 89.3424 89.8457 89.3424 84.3404C89.3424 78.835 84.8905 74.3721 79.3987 74.3721C73.907 74.3721 69.4551 78.835 69.4551 84.3404C69.4551 89.8457 73.907 94.3087 79.3987 94.3087Z" fill="#231F20" stroke="#939598" stroke-width="0.46" stroke-miterlimit="10"/>
<path d="M79.1323 94.5816C84.5952 94.5816 89.0238 90.1421 89.0238 84.6656C89.0238 79.1891 84.5952 74.7495 79.1323 74.7495C73.6693 74.7495 69.2407 79.1891 69.2407 84.6656C69.2407 90.1421 73.6693 94.5816 79.1323 94.5816Z" fill="#231F20" stroke="#939598" stroke-width="0.47" stroke-miterlimit="10"/>
<path d="M78.8599 94.8602C84.2941 94.8602 88.6993 90.444 88.6993 84.9964C88.6993 79.5487 84.2941 75.1326 78.8599 75.1326C73.4258 75.1326 69.0205 79.5487 69.0205 84.9964C69.0205 90.444 73.4258 94.8602 78.8599 94.8602Z" fill="#231F20" stroke="#939598" stroke-width="0.48" stroke-miterlimit="10"/>
<path d="M78.588 95.1447C83.9966 95.1447 88.3811 90.7494 88.3811 85.3274C88.3811 79.9054 83.9966 75.51 78.588 75.51C73.1794 75.51 68.7949 79.9054 68.7949 85.3274C68.7949 90.7494 73.1794 95.1447 78.588 95.1447Z" fill="#231F20" stroke="#939598" stroke-width="0.49" stroke-miterlimit="10"/>
<path d="M78.3156 95.429C83.6986 95.429 88.0624 91.0545 88.0624 85.6581C88.0624 80.2618 83.6986 75.8872 78.3156 75.8872C72.9326 75.8872 68.5688 80.2618 68.5688 85.6581C68.5688 91.0545 72.9326 95.429 78.3156 95.429Z" fill="#231F20" stroke="#939598" stroke-width="0.5" stroke-miterlimit="10"/>
<path d="M78.049 95.7137C83.4096 95.7137 87.7552 91.3573 87.7552 85.9834C87.7552 80.6096 83.4096 76.2532 78.049 76.2532C72.6884 76.2532 68.3428 80.6096 68.3428 85.9834C68.3428 91.3573 72.6884 95.7137 78.049 95.7137Z" fill="#231F20" stroke="#939598" stroke-width="0.5" stroke-miterlimit="10"/>
<path d="M77.7769 96.0098C83.1184 96.0098 87.4484 91.669 87.4484 86.3143C87.4484 80.9597 83.1184 76.6189 77.7769 76.6189C72.4355 76.6189 68.1055 80.9597 68.1055 86.3143C68.1055 91.669 72.4355 96.0098 77.7769 96.0098Z" fill="#231F20" stroke="#939598" stroke-width="0.51" stroke-miterlimit="10"/>
<path d="M77.5049 96.3058C82.8271 96.3058 87.1416 91.9806 87.1416 86.6452C87.1416 81.3098 82.8271 76.9846 77.5049 76.9846C72.1827 76.9846 67.8682 81.3098 67.8682 86.6452C67.8682 91.9806 72.1827 96.3058 77.5049 96.3058Z" fill="#231F20" stroke="#939598" stroke-width="0.52" stroke-miterlimit="10"/>
<path d="M77.2328 96.6076C82.539 96.6076 86.8405 92.2954 86.8405 86.9761C86.8405 81.6567 82.539 77.3445 77.2328 77.3445C71.9265 77.3445 67.625 81.6567 67.625 86.9761C67.625 92.2954 71.9265 96.6076 77.2328 96.6076Z" fill="#231F20" stroke="#939598" stroke-width="0.53" stroke-miterlimit="10"/>
<path d="M76.9665 96.9094C82.2567 96.9094 86.5453 92.6102 86.5453 87.3069C86.5453 82.0036 82.2567 77.7043 76.9665 77.7043C71.6763 77.7043 67.3877 82.0036 67.3877 87.3069C67.3877 92.6102 71.6763 96.9094 76.9665 96.9094Z" fill="#231F20" stroke="#939598" stroke-width="0.54" stroke-miterlimit="10"/>
<path d="M76.6943 97.2174C81.9749 97.2174 86.2557 92.926 86.2557 87.6323C86.2557 82.3385 81.9749 78.0471 76.6943 78.0471C71.4136 78.0471 67.1328 82.3385 67.1328 87.6323C67.1328 92.926 71.4136 97.2174 76.6943 97.2174Z" fill="#231F20" stroke="#939598" stroke-width="0.55" stroke-miterlimit="10"/>
<path d="M76.4221 97.5249C81.6899 97.5249 85.9603 93.2439 85.9603 87.963C85.9603 82.6821 81.6899 78.4011 76.4221 78.4011C71.1542 78.4011 66.8838 82.6821 66.8838 87.963C66.8838 93.2439 71.1542 97.5249 76.4221 97.5249Z" fill="#231F20" stroke="#939598" stroke-width="0.56" stroke-miterlimit="10"/>
<path d="M76.1497 97.8443C81.4112 97.8443 85.6764 93.5684 85.6764 88.294C85.6764 83.0195 81.4112 78.7437 76.1497 78.7437C70.8883 78.7437 66.623 83.0195 66.623 88.294C66.623 93.5684 70.8883 97.8443 76.1497 97.8443Z" fill="#231F20" stroke="#939598" stroke-width="0.57" stroke-miterlimit="10"/>
<path d="M75.8774 98.1636C81.1325 98.1636 85.3925 93.8929 85.3925 88.6249C85.3925 83.3568 81.1325 79.0862 75.8774 79.0862C70.6224 79.0862 66.3623 83.3568 66.3623 88.6249C66.3623 93.8929 70.6224 98.1636 75.8774 98.1636Z" fill="#231F20" stroke="#939598" stroke-width="0.58" stroke-miterlimit="10"/>
<path d="M75.6109 98.483C80.8627 98.483 85.1202 94.215 85.1202 88.9501C85.1202 83.6853 80.8627 79.4172 75.6109 79.4172C70.359 79.4172 66.1016 83.6853 66.1016 88.9501C66.1016 94.215 70.359 98.483 75.6109 98.483Z" fill="#231F20" stroke="#939598" stroke-width="0.59" stroke-miterlimit="10"/>
<path d="M75.3389 98.8138C80.5908 98.8138 84.8482 94.5458 84.8482 89.2809C84.8482 84.0161 80.5908 79.748 75.3389 79.748C70.0871 79.748 65.8296 84.0161 65.8296 89.2809C65.8296 94.5458 70.0871 98.8138 75.3389 98.8138Z" fill="#231F20" stroke="#939598" stroke-width="0.6" stroke-miterlimit="10"/>
<path d="M75.0664 99.1449C80.3183 99.1449 84.5758 94.8769 84.5758 89.612C84.5758 84.3471 80.3183 80.0791 75.0664 80.0791C69.8146 80.0791 65.5571 84.3471 65.5571 89.612C65.5571 94.8769 69.8146 99.1449 75.0664 99.1449Z" fill="#231F20" stroke="#939598" stroke-width="0.61" stroke-miterlimit="10"/>
<path d="M74.7944 99.4814C80.0495 99.4814 84.3095 95.2108 84.3095 89.9427C84.3095 84.6747 80.0495 80.4041 74.7944 80.4041C69.5394 80.4041 65.2793 84.6747 65.2793 89.9427C65.2793 95.2108 69.5394 99.4814 74.7944 99.4814Z" fill="#231F20" stroke="#939598" stroke-width="0.62" stroke-miterlimit="10"/>
<path d="M74.5282 99.8124C79.7865 99.8124 84.0491 95.5392 84.0491 90.2679C84.0491 84.9966 79.7865 80.7234 74.5282 80.7234C69.27 80.7234 65.0073 84.9966 65.0073 90.2679C65.0073 95.5392 69.27 99.8124 74.5282 99.8124Z" fill="#231F20" stroke="#939598" stroke-width="0.63" stroke-miterlimit="10"/>
<path d="M74.2561 100.155C79.5208 100.155 83.7886 95.8765 83.7886 90.5988C83.7886 85.3211 79.5208 81.0427 74.2561 81.0427C68.9915 81.0427 64.7236 85.3211 64.7236 90.5988C64.7236 95.8765 68.9915 100.155 74.2561 100.155Z" fill="#231F20" stroke="#939598" stroke-width="0.64" stroke-miterlimit="10"/>
<path d="M73.9839 100.503C79.2582 100.503 83.5338 96.217 83.5338 90.9297C83.5338 85.6424 79.2582 81.3562 73.9839 81.3562C68.7097 81.3562 64.4341 85.6424 64.4341 90.9297C64.4341 96.217 68.7097 100.503 73.9839 100.503Z" fill="#231F20" stroke="#939598" stroke-width="0.65" stroke-miterlimit="10"/>
<path d="M73.7117 100.858C78.9987 100.858 83.2847 96.5609 83.2847 91.2608C83.2847 85.9607 78.9987 81.6641 73.7117 81.6641C68.4247 81.6641 64.1387 85.9607 64.1387 91.2608C64.1387 96.5609 68.4247 100.858 73.7117 100.858Z" fill="#231F20" stroke="#939598" stroke-width="0.66" stroke-miterlimit="10"/>
<path d="M73.4453 101.212C78.7451 101.212 83.0415 96.9046 83.0415 91.5916C83.0415 86.2787 78.7451 81.9717 73.4453 81.9717C68.1455 81.9717 63.8491 86.2787 63.8491 91.5916C63.8491 96.9046 68.1455 101.212 73.4453 101.212Z" fill="#231F20" stroke="#939598" stroke-width="0.67" stroke-miterlimit="10"/>
<path d="M73.173 101.566C78.4888 101.566 82.7981 97.2458 82.7981 91.9168C82.7981 86.5878 78.4888 82.2678 73.173 82.2678C67.8572 82.2678 63.5479 86.5878 63.5479 91.9168C63.5479 97.2458 67.8572 101.566 73.173 101.566Z" fill="#231F20" stroke="#939598" stroke-width="0.68" stroke-miterlimit="10"/>
<path d="M72.9006 101.931C78.2356 101.931 82.5605 97.5958 82.5605 92.2476C82.5605 86.8993 78.2356 82.5637 72.9006 82.5637C67.5656 82.5637 63.2407 86.8993 63.2407 92.2476C63.2407 97.5958 67.5656 101.931 72.9006 101.931Z" fill="#231F20" stroke="#939598" stroke-width="0.69" stroke-miterlimit="10"/>
<path d="M72.6287 102.297C77.9829 102.297 82.3234 97.946 82.3234 92.5785C82.3234 87.2111 77.9829 82.8599 72.6287 82.8599C67.2745 82.8599 62.9341 87.2111 62.9341 92.5785C62.9341 97.946 67.2745 102.297 72.6287 102.297Z" fill="#231F20" stroke="#939598" stroke-width="0.7" stroke-miterlimit="10"/>
<path d="M72.3621 102.669C77.7387 102.669 82.0973 98.2994 82.0973 92.9094C82.0973 87.5195 77.7387 83.1501 72.3621 83.1501C66.9855 83.1501 62.627 87.5195 62.627 92.9094C62.627 98.2994 66.9855 102.669 72.3621 102.669Z" fill="#231F20" stroke="#939598" stroke-width="0.71" stroke-miterlimit="10"/>
<path d="M72.0902 103.034C77.4892 103.034 81.8659 98.6469 81.8659 93.2345C81.8659 87.8222 77.4892 83.4346 72.0902 83.4346C66.6912 83.4346 62.3145 87.8222 62.3145 93.2345C62.3145 98.6469 66.6912 103.034 72.0902 103.034Z" fill="#231F20" stroke="#939598" stroke-width="0.72" stroke-miterlimit="10"/>
<path d="M71.8181 103.412C77.2427 103.412 81.6402 99.0036 81.6402 93.5656C81.6402 88.1276 77.2427 83.7192 71.8181 83.7192C66.3936 83.7192 61.9961 88.1276 61.9961 93.5656C61.9961 99.0036 66.3936 103.412 71.8181 103.412Z" fill="#231F20" stroke="#939598" stroke-width="0.73" stroke-miterlimit="10"/>
<path d="M71.5456 103.795C76.9989 103.795 81.4197 99.3633 81.4197 93.8964C81.4197 88.4296 76.9989 83.9978 71.5456 83.9978C66.0922 83.9978 61.6714 88.4296 61.6714 93.8964C61.6714 99.3633 66.0922 103.795 71.5456 103.795Z" fill="#231F20" stroke="#939598" stroke-width="0.74" stroke-miterlimit="10"/>
<path d="M71.2735 104.178C76.7556 104.178 81.1997 99.7232 81.1997 94.2275C81.1997 88.7318 76.7556 84.2766 71.2735 84.2766C65.7913 84.2766 61.3472 88.7318 61.3472 94.2275C61.3472 99.7232 65.7913 104.178 71.2735 104.178Z" fill="#231F20" stroke="#939598" stroke-width="0.75" stroke-miterlimit="10"/>
<path d="M71.0072 104.561C76.5213 104.561 80.9914 100.08 80.9914 94.5524C80.9914 89.0246 76.5213 84.5435 71.0072 84.5435C65.493 84.5435 61.0229 89.0246 61.0229 94.5524C61.0229 100.08 65.493 104.561 71.0072 104.561Z" fill="#231F20" stroke="#939598" stroke-width="0.76" stroke-miterlimit="10"/>
<path d="M70.735 104.95C76.2811 104.95 80.7771 100.443 80.7771 94.8834C80.7771 89.3236 76.2811 84.8164 70.735 84.8164C65.1889 84.8164 60.6929 89.3236 60.6929 94.8834C60.6929 100.443 65.1889 104.95 70.735 104.95Z" fill="#231F20" stroke="#939598" stroke-width="0.77" stroke-miterlimit="10"/>
<path d="M70.4628 105.345C76.044 105.345 80.5686 100.809 80.5686 95.2144C80.5686 89.6192 76.044 85.0835 70.4628 85.0835C64.8815 85.0835 60.3569 89.6192 60.3569 95.2144C60.3569 100.809 64.8815 105.345 70.4628 105.345Z" fill="#231F20" stroke="#939598" stroke-width="0.78" stroke-miterlimit="10"/>
<path d="M70.1905 105.746C75.8101 105.746 80.3658 101.179 80.3658 95.5453C80.3658 89.9117 75.8101 85.3447 70.1905 85.3447C64.5708 85.3447 60.0151 89.9117 60.0151 95.5453C60.0151 101.179 64.5708 105.746 70.1905 105.746Z" fill="#231F20" stroke="#939598" stroke-width="0.79" stroke-miterlimit="10"/>
<path d="M69.924 106.146C75.5821 106.146 80.1688 101.548 80.1688 95.8762C80.1688 90.2041 75.5821 85.606 69.924 85.606C64.266 85.606 59.6792 90.2041 59.6792 95.8762C59.6792 101.548 64.266 106.146 69.924 106.146Z" fill="#231F20" stroke="#939598" stroke-width="0.8" stroke-miterlimit="10"/>
<path d="M69.6516 106.547C75.3513 106.547 79.9717 101.915 79.9717 96.2011C79.9717 90.4874 75.3513 85.8555 69.6516 85.8555C63.952 85.8555 59.3315 90.4874 59.3315 96.2011C59.3315 101.915 63.952 106.547 69.6516 106.547Z" fill="#231F20" stroke="#939598" stroke-width="0.81" stroke-miterlimit="10"/>
<path d="M69.3798 106.953C75.121 106.953 79.7752 102.288 79.7752 96.5322C79.7752 90.7768 75.121 86.1111 69.3798 86.1111C63.6385 86.1111 58.9844 90.7768 58.9844 96.5322C58.9844 102.288 63.6385 106.953 69.3798 106.953Z" fill="#231F20" stroke="#939598" stroke-width="0.82" stroke-miterlimit="10"/>
<path d="M69.1073 107.366C74.8933 107.366 79.5838 102.664 79.5838 96.8633C79.5838 91.0629 74.8933 86.3608 69.1073 86.3608C63.3213 86.3608 58.6309 91.0629 58.6309 96.8633C58.6309 102.664 63.3213 107.366 69.1073 107.366Z" fill="#231F20" stroke="#939598" stroke-width="0.83" stroke-miterlimit="10"/>
<path d="M68.8412 107.778C74.672 107.778 79.3988 103.039 79.3988 97.1941C79.3988 91.3488 74.672 86.6104 68.8412 86.6104C63.0105 86.6104 58.2837 91.3488 58.2837 97.1941C58.2837 103.039 63.0105 107.778 68.8412 107.778Z" fill="#231F20" stroke="#939598" stroke-width="0.84" stroke-miterlimit="10"/>
<path d="M68.5688 108.184C74.4443 108.184 79.2074 103.409 79.2074 97.5192C79.2074 91.6291 74.4443 86.8542 68.5688 86.8542C62.6932 86.8542 57.9302 91.6291 57.9302 97.5192C57.9302 103.409 62.6932 108.184 68.5688 108.184Z" fill="#231F20" stroke="#939598" stroke-width="0.85" stroke-miterlimit="10"/>
<path d="M68.2967 108.608C74.2234 108.608 79.028 103.792 79.028 97.8502C79.028 91.9087 74.2234 87.0923 68.2967 87.0923C62.37 87.0923 57.5654 91.9087 57.5654 97.8502C57.5654 103.792 62.37 108.608 68.2967 108.608Z" fill="#231F20" stroke="#939598" stroke-width="0.86" stroke-miterlimit="10"/>
<path d="M68.0242 109.026C73.9989 109.026 78.8424 104.171 78.8424 98.1811C78.8424 92.1916 73.9989 87.3362 68.0242 87.3362C62.0495 87.3362 57.2061 92.1916 57.2061 98.1811C57.2061 104.171 62.0495 109.026 68.0242 109.026Z" fill="#231F20" stroke="#939598" stroke-width="0.87" stroke-miterlimit="10"/>
<path d="M67.7526 109.45C73.7785 109.45 78.6634 104.553 78.6634 98.5118C78.6634 92.471 73.7785 87.574 67.7526 87.574C61.7267 87.574 56.8418 92.471 56.8418 98.5118C56.8418 104.553 61.7267 109.45 67.7526 109.45Z" fill="#231F20" stroke="#939598" stroke-width="0.88" stroke-miterlimit="10"/>
<path d="M67.4858 109.874C73.5661 109.874 78.4951 104.932 78.4951 98.8371C78.4951 92.7418 73.5661 87.8005 67.4858 87.8005C61.4056 87.8005 56.4766 92.7418 56.4766 98.8371C56.4766 104.932 61.4056 109.874 67.4858 109.874Z" fill="#231F20" stroke="#939598" stroke-width="0.89" stroke-miterlimit="10"/>
<path d="M67.2137 110.303C73.3483 110.303 78.3214 105.318 78.3214 99.168C78.3214 93.0181 73.3483 88.0327 67.2137 88.0327C61.0791 88.0327 56.106 93.0181 56.106 99.168C56.106 105.318 61.0791 110.303 67.2137 110.303Z" fill="#231F20" stroke="#939598" stroke-width="0.9" stroke-miterlimit="10"/>
<path d="M66.9415 110.733C73.1305 110.733 78.1477 105.703 78.1477 99.4988C78.1477 93.2945 73.1305 88.2649 66.9415 88.2649C60.7525 88.2649 55.7354 93.2945 55.7354 99.4988C55.7354 105.703 60.7525 110.733 66.9415 110.733Z" fill="#231F20" stroke="#939598" stroke-width="0.91" stroke-miterlimit="10"/>
<path d="M66.6693 111.168C72.9159 111.168 77.9797 106.092 77.9797 99.8299C77.9797 93.5678 72.9159 88.4915 66.6693 88.4915C60.4227 88.4915 55.3589 93.5678 55.3589 99.8299C55.3589 106.092 60.4227 111.168 66.6693 111.168Z" fill="#231F20" stroke="#939598" stroke-width="0.92" stroke-miterlimit="10"/>
<path d="M66.4029 111.598C72.7071 111.598 77.8176 106.475 77.8176 100.155C77.8176 93.8351 72.7071 88.7119 66.4029 88.7119C60.0988 88.7119 54.9883 93.8351 54.9883 100.155C54.9883 106.475 60.0988 111.598 66.4029 111.598Z" fill="#231F20" stroke="#939598" stroke-width="0.93" stroke-miterlimit="10"/>
<path d="M66.1306 112.039C72.4956 112.039 77.6553 106.867 77.6553 100.486C77.6553 94.1052 72.4956 88.9326 66.1306 88.9326C59.7657 88.9326 54.606 94.1052 54.606 100.486C54.606 106.867 59.7657 112.039 66.1306 112.039Z" fill="#231F20" stroke="#939598" stroke-width="0.94" stroke-miterlimit="10"/>
<path d="M65.8588 112.48C72.2845 112.48 77.4936 107.258 77.4936 100.817C77.4936 94.3753 72.2845 89.1533 65.8588 89.1533C59.4332 89.1533 54.2241 94.3753 54.2241 100.817C54.2241 107.258 59.4332 112.48 65.8588 112.48Z" fill="#231F20" stroke="#939598" stroke-width="0.95" stroke-miterlimit="10"/>
<path d="M65.5866 112.922C72.073 112.922 77.3313 107.65 77.3313 101.148C77.3313 94.6451 72.073 89.3738 65.5866 89.3738C59.1001 89.3738 53.8418 94.6451 53.8418 101.148C53.8418 107.65 59.1001 112.922 65.5866 112.922Z" fill="#231F20" stroke="#939598" stroke-width="0.96" stroke-miterlimit="10"/>
<path d="M65.3201 113.369C71.8705 113.369 77.1806 108.045 77.1806 101.479C77.1806 94.9119 71.8705 89.5886 65.3201 89.5886C58.7696 89.5886 53.4595 94.9119 53.4595 101.479C53.4595 108.045 58.7696 113.369 65.3201 113.369Z" fill="#231F20" stroke="#939598" stroke-width="0.97" stroke-miterlimit="10"/>
<path d="M65.0477 113.81C71.6621 113.81 77.0241 108.434 77.0241 101.804C77.0241 95.1729 71.6621 89.7976 65.0477 89.7976C58.4333 89.7976 53.0713 95.1729 53.0713 101.804C53.0713 108.434 58.4333 113.81 65.0477 113.81Z" fill="#231F20" stroke="#939598" stroke-width="0.98" stroke-miterlimit="10"/>
<path d="M64.7758 114.263C71.4573 114.263 76.8738 108.833 76.8738 102.135C76.8738 95.4365 71.4573 90.0066 64.7758 90.0066C58.0942 90.0066 52.6777 95.4365 52.6777 102.135C52.6777 108.833 58.0942 114.263 64.7758 114.263Z" fill="#231F20" stroke="#939598" stroke-width="0.99" stroke-miterlimit="10"/>
<path d="M64.5034 114.71C71.2489 114.71 76.7173 109.228 76.7173 102.466C76.7173 95.7033 71.2489 90.2214 64.5034 90.2214C57.7579 90.2214 52.2896 95.7033 52.2896 102.466C52.2896 109.228 57.7579 114.71 64.5034 114.71Z" stroke="#939598" stroke-miterlimit="10"/>
</g>
<defs>
<clipPath id="clip0">
<rect width="55" height="61" fill="white" transform="translate(52 54)"/>
</clipPath>
</defs>
</svg>
