<svg width="264" height="180" viewBox="0 0 264 180" fill="none" xmlns="http://www.w3.org/2000/svg">
<rect width="264" height="180" transform="matrix(1 0 0 -1 0 180)" fill="black"/>
<path d="M147.989 84.432H151.109L145.565 91.152L151.421 99H148.133L142.877 91.776L142.853 99H140.381V84.432H142.853V91.248L147.989 84.432ZM155.669 97.632C155.669 98.112 155.501 98.528 155.165 98.88C154.845 99.216 154.445 99.384 153.965 99.384C153.485 99.384 153.077 99.216 152.741 98.88C152.405 98.544 152.237 98.144 152.237 97.68C152.237 97.2 152.405 96.792 152.741 96.456C153.077 96.12 153.477 95.952 153.941 95.952C154.421 95.952 154.829 96.112 155.165 96.432C155.501 96.752 155.669 97.152 155.669 97.632ZM165.734 84.432H168.206V92.592C168.206 95.728 169.19 97.296 171.158 97.296C173.126 97.296 174.11 95.728 174.11 92.592V84.432H176.558V93.144C176.558 97.304 174.75 99.384 171.134 99.384C167.534 99.384 165.734 97.304 165.734 93.144V84.432ZM182.036 97.632C182.036 98.112 181.868 98.528 181.532 98.88C181.212 99.216 180.812 99.384 180.332 99.384C179.852 99.384 179.444 99.216 179.108 98.88C178.772 98.544 178.604 98.144 178.604 97.68C178.604 97.2 178.772 96.792 179.108 96.456C179.444 96.12 179.844 95.952 180.308 95.952C180.788 95.952 181.196 96.112 181.532 96.432C181.868 96.752 182.036 97.152 182.036 97.632ZM192.174 84.048H194.046L202.278 95.016L202.326 84.432H204.774V99.288H202.926L194.67 88.344L194.646 99H192.174V84.048ZM210.325 97.632C210.325 98.112 210.157 98.528 209.821 98.88C209.501 99.216 209.101 99.384 208.621 99.384C208.141 99.384 207.733 99.216 207.397 98.88C207.061 98.544 206.893 98.144 206.893 97.68C206.893 97.2 207.061 96.792 207.397 96.456C207.733 96.12 208.133 95.952 208.597 95.952C209.077 95.952 209.485 96.112 209.821 96.432C210.157 96.752 210.325 97.152 210.325 97.632Z" fill="white"/>
<g clip-path="url(#clip0)">
<path d="M80.1052 57.5296C80.1052 57.5296 78.8411 61.5261 78.5729 64.3413C78.42 65.9465 78.4836 66.9096 78.4914 68.3773C78.4983 69.6913 79.0682 70.8388 79.7735 71.5648C80.5664 72.3812 83.1224 73.0352 82.9648 74.2249C82.934 74.4606 82.2277 76.0814 82.2277 76.0814C82.2277 76.0814 81.6841 77.8243 81.6822 77.8243C81.6804 77.8243 84.0037 79.0965 85.7696 78.6195C87.1642 78.2412 86.5841 76.8804 87.9598 76.6653C89.0812 76.4901 88.8176 75.4233 89.1245 74.6743C89.1821 74.534 89.6451 74.0781 90.9249 73.9405C91.0921 73.9226 91.493 73.7172 91.6302 73.5846C93.3851 71.8918 95.8968 70.0866 96.0489 69.5532C97.2882 65.2095 93.6417 59.4916 93.6417 59.4916C93.6417 59.4916 85.4992 53.2106 80.1052 57.5296Z" fill="#D3C06E"/>
<path d="M87.868 62.7297C87.868 62.7297 79.9738 63.3993 80.3382 60.3562C80.423 59.6513 79.1164 60.5397 78.5456 60.0728C78.0034 59.6284 77.4925 58.7225 77.668 58.0708C77.8435 57.4191 78.313 56.8747 78.8658 56.4583C79.6776 55.8418 81.6135 54.4114 83.2559 53.523C83.9677 53.1377 85.5341 52.9625 86.361 53.007C88.5798 53.1253 90.6235 53.4913 92.5105 54.6393C93.2513 55.0901 93.9562 55.6217 94.4657 56.3051C94.9753 56.9884 94.4657 56.3051 95.2747 57.842C95.2747 57.842 98.2605 60.181 97.9814 64.3445C97.8726 65.9718 97.2488 68.137 95.4936 70.2151C90.0715 76.6319 88.3568 73.1756 88.3568 73.1756C88.3568 73.1756 86.5932 71.9772 88.5899 67.7403C89.7228 65.3352 90.5004 65.5755 90.1457 63.8877C90.1333 63.829 89.9061 63.0622 89.2515 62.8741" fill="#D3C06E"/>
<path d="M83.5974 65.7295L83.5235 66.058C83.4326 66.4619 83.6878 66.8627 84.0935 66.9532C84.4992 67.0437 84.9017 66.7896 84.9926 66.3858L85.0666 66.0573C85.1575 65.6534 84.9023 65.2526 84.4966 65.1621C84.0909 65.0716 83.6883 65.3257 83.5974 65.7295Z" fill="#D3C06E"/>
<path d="M78.7312 64.6446L78.6573 64.9731C78.5664 65.3769 78.8216 65.7777 79.2272 65.8682C79.6329 65.9587 80.0355 65.7047 80.1264 65.3008L80.2004 64.9723C80.2913 64.5684 80.0361 64.1677 79.6304 64.0772C79.2247 63.9867 78.8221 64.2407 78.7312 64.6446Z" fill="#D3C06E"/>
<path d="M88.3463 67.6268C88.3463 67.6268 88.9392 67.4498 89.1428 67.419C89.3888 67.3819 89.5519 67.3003 89.944 67.2883C90.1596 67.2819 90.5715 67.4016 90.7396 67.536C91.0653 67.7956 91.4399 68.3395 90.9096 69.0628C90.114 70.1479 87.1318 70.8006 87.1318 70.8006L88.3463 67.6268Z" fill="#D3C06E"/>
<path d="M73.1702 90.4074C75.5575 92.0044 74.5417 94.792 73.7078 95.7432C70.4235 99.4917 65.0576 108.041 62.5449 111.739C61.4609 113.335 59.256 113.044 58.4829 112.507C57.7223 111.978 56.8064 110.371 57.6016 108.866C58.0807 107.959 68.054 91.2651 68.054 91.2651C68.7442 90.0928 70.6639 88.7307 73.1702 90.4074Z" fill="#D3C06E"/>
<path d="M89.5898 103.747C90.1265 104.412 93.4459 106.415 90.5725 110.191C89.0029 112.255 86.575 111.734 84.9602 110.825C82.3434 109.351 75.7783 104.078 71.0299 98.911C70.1974 98.0048 68.6844 96.7096 68.0491 95.8579C65.9547 93.057 67.9021 90.9422 69.1423 90.2102C69.7546 89.8488 71.5417 89.7438 72.816 90.5313C76.8172 92.9987 87.9409 101.705 89.5898 103.747Z" fill="#D3C06E"/>
<path d="M64.8763 108.01L59.5782 108.601C59.5782 108.601 55.1789 109.234 52.4608 111.313C49.7426 113.392 61.0031 112.929 63.9434 112.793C64.9518 112.747 65.0159 110.733 64.8763 108.01Z" fill="#D3C06E"/>
<path d="M74.4181 89.9232C76.9059 91.3945 76.0444 94.2532 75.2603 95.2558C72.1713 99.2065 67.262 108.098 64.946 111.956C63.9468 113.62 61.7142 113.452 60.907 112.955C60.1128 112.466 59.1015 110.903 59.8156 109.346C60.2459 108.408 69.325 91.0721 69.325 91.0721C69.9525 89.8548 71.805 88.379 74.4181 89.9232Z" fill="#D3C06E"/>
<path d="M66.7683 108.636L59.5859 109.183C59.5859 109.183 55.1581 109.821 52.4224 111.913C49.6868 114.005 61.0201 113.54 63.9783 113.403C64.9918 113.357 66.9088 111.376 66.7683 108.636Z" fill="#D3C06E"/>
<path d="M57.2979 63.3692C57.366 62.773 58.7772 61.7512 59.377 61.82C59.9349 61.8837 60.819 63.6618 60.819 63.6618L58.4865 65.3074C58.4865 65.3074 57.2329 63.9334 57.2979 63.3692Z" fill="#D3C06E"/>
<path d="M70.5467 77.6547C69.5432 78.6701 67.8852 78.3784 67.1268 77.524C66.5676 76.8938 65.8885 76.2164 64.657 74.4672C62.1383 70.8898 58.4863 65.3077 58.4863 65.3077L60.8184 63.6621C60.8184 63.6621 66.6279 70.4743 67.6497 71.3732C68.4486 72.0772 69.5847 73.0908 70.5522 73.9984C71.1221 74.5323 72.096 76.0866 70.5467 77.6547Z" fill="#D3C06E"/>
<path d="M83.9235 80.2646C83.6932 79.9949 83.08 79.3143 81.8209 78.6135C80.3125 77.776 74.7081 75.4948 70.0388 73.7332C69.6896 73.6011 67.9145 73.2044 67.0341 74.9962C66.654 75.7695 66.4683 77.1606 67.9937 78.1503C71.42 80.3756 79.8822 84.7056 82.3604 84.2603C82.7826 84.1881 83.1794 84.0096 83.5129 83.7418C83.8464 83.4741 84.1056 83.1258 84.2658 82.7302C84.6395 81.7946 84.4409 80.8659 83.9235 80.2646Z" fill="#D3C06E"/>
<path d="M81.8078 77.4321C81.8078 77.4321 81.5899 77.7811 81.9543 77.8343C82.3187 77.8875 83.0816 77.6967 83.6184 77.5756C85.5146 77.1472 88.1835 76.0222 88.9455 75.4315C89.1123 75.3026 88.7796 75.5182 88.9455 75.8369C89.4771 76.8569 89.5937 78.2842 90.4197 80.182C91.6116 82.9151 91.3269 84.6524 91.4826 86.1301C91.8401 89.524 92.1543 94.3502 92.0211 96.3802C91.7116 101.1 92.3105 101.112 92.0211 106.749C92.0211 106.749 84.9687 102.752 79.3352 103.328C79.3352 103.328 77.3901 98.7619 77.3901 95.8376C77.3901 92.4134 77.3523 87.4702 77.9784 84.34C78.6271 81.0934 79.0422 80.7705 79.6964 79.4276C80.1221 78.5516 81.196 78.2411 81.8078 77.4321Z" fill="#D3C06E"/>
<path d="M85.2393 93.334L85.571 94.4086C85.4625 94.1094 85.3756 93.8028 85.3111 93.4913C85.2784 93.3335 85.2586 93.1482 85.3701 93.0326C85.3802 93.0196 85.3934 93.0094 85.4086 93.0029C85.4237 92.9964 85.4403 92.9938 85.4567 92.9955C85.4808 93.0037 85.5013 93.0199 85.5148 93.0413C85.6132 93.1867 85.6552 93.3628 85.633 93.5367C85.6107 93.7106 85.5256 93.8705 85.3936 93.9866C85.4127 93.9225 85.456 93.8681 85.5143 93.8349C85.5727 93.8016 85.6416 93.7921 85.7069 93.8082C85.7379 93.8192 85.7662 93.8365 85.79 93.8591C85.8138 93.8817 85.8325 93.909 85.845 93.9393C85.8575 93.9696 85.8634 94.0022 85.8624 94.0349C85.8614 94.0676 85.8534 94.0998 85.8391 94.1292C85.8686 94.0196 85.9018 93.9036 85.9856 93.8261C86.0694 93.7486 86.2206 93.7344 86.2892 93.8229C86.5561 93.5147 86.8244 93.208 87.0941 92.9028C87.267 93.2162 87.3132 93.5836 87.2231 93.9297C87.1537 93.8064 87.1211 93.6659 87.1293 93.5247C87.1374 93.3836 87.186 93.2477 87.2691 93.1331L87.4124 93.394C87.4863 93.3465 87.5483 93.2829 87.5938 93.208C87.6393 93.133 87.6671 93.0488 87.675 92.9615C87.6487 93.0753 87.8183 93.1514 87.9183 93.0913C88.0182 93.0313 88.0532 92.9047 88.0721 92.7896C88.1265 92.452 88.115 92.1071 88.0947 91.7659C88.2023 92.1324 88.3462 92.4873 88.5245 92.8253C88.5064 92.8205 88.4899 92.8109 88.4767 92.7975C88.4636 92.7841 88.4543 92.7674 88.4499 92.7492C89.0051 92.6635 89.5429 92.4899 90.043 92.2351C89.9303 92.2571 89.8215 92.2961 89.7205 92.3506" fill="#D3C06E"/>
<path d="M85.1709 93.3519L85.5026 94.4265L85.6362 94.3908C85.5683 94.2039 85.5091 94.0148 85.4584 93.8234C85.4123 93.6487 85.3547 93.4629 85.3506 93.2813C85.3454 93.204 85.3639 93.1269 85.4036 93.0603C85.4109 93.0488 85.4211 93.0392 85.4284 93.0281C85.4358 93.0171 85.4575 93.0107 85.4234 93.0203C85.3893 93.03 85.4137 93.0203 85.4188 93.0327C85.4273 93.0432 85.4366 93.0532 85.4464 93.0625C85.4678 93.0913 85.4863 93.122 85.5017 93.1543C85.563 93.2827 85.5845 93.4264 85.5634 93.567C85.5421 93.7338 85.4601 93.887 85.3331 93.9977L85.4588 93.9798C85.474 93.9231 85.5098 93.8741 85.5593 93.8422C85.5833 93.8311 85.6101 93.8274 85.6362 93.8317C85.6624 93.8359 85.6866 93.8479 85.7058 93.8661C85.7479 93.8978 85.7776 93.9431 85.7898 93.9942C85.802 94.0454 85.7959 94.0991 85.7726 94.1463L85.9039 94.122C85.9227 94.0276 85.9603 93.9379 86.0144 93.8583C86.0237 93.8394 86.0378 93.8232 86.0554 93.8115C86.0729 93.7998 86.0933 93.793 86.1143 93.7917C86.1354 93.7904 86.1565 93.7947 86.1754 93.8041C86.1942 93.8135 86.2102 93.8278 86.2218 93.8454C86.2462 93.8748 86.3346 93.8381 86.3544 93.8156C86.6189 93.5099 86.8853 93.2053 87.1538 92.902L87.0266 92.9254C87.1977 93.2372 87.2443 93.6018 87.157 93.9463L87.2892 93.9165C87.2208 93.7939 87.1888 93.6545 87.197 93.5145C87.2052 93.3745 87.2531 93.2397 87.3353 93.1258L87.2031 93.1556L87.3463 93.4166C87.3615 93.4441 87.4454 93.4116 87.4638 93.3996C87.5409 93.3499 87.6057 93.2836 87.6536 93.2056C87.7014 93.1275 87.7311 93.0398 87.7402 92.9488C87.7402 92.9327 87.6131 92.9488 87.6066 92.9841C87.585 93.1121 87.7449 93.1538 87.843 93.1391C87.9087 93.1291 87.9699 93.0995 88.0183 93.0541C88.0668 93.0087 88.1003 92.9498 88.1143 92.8851C88.156 92.7116 88.1764 92.5337 88.1752 92.3553C88.1807 92.1544 88.1719 91.9531 88.1599 91.7527L88.0268 91.7884C88.1347 92.1548 88.2785 92.5096 88.4562 92.8479L88.5778 92.8048C88.5625 92.7993 88.5488 92.7901 88.5379 92.7782C88.527 92.7662 88.5192 92.7517 88.5152 92.736L88.4354 92.7768C89.0081 92.6873 89.563 92.5085 90.0797 92.2471C90.1295 92.2219 90.0935 92.209 90.0544 92.2168C89.9197 92.2439 89.7896 92.2902 89.6683 92.3544C89.6439 92.3677 89.654 92.3783 89.6757 92.3815C89.7089 92.382 89.7416 92.3733 89.7701 92.3562C89.8512 92.313 89.9383 92.2821 90.0286 92.2645L90.0032 92.2338C89.5188 92.4798 88.9984 92.6481 88.4612 92.7323C88.4525 92.7323 88.3746 92.7516 88.3815 92.7731C88.3877 92.7931 88.3988 92.8112 88.4139 92.8257C88.429 92.8402 88.4475 92.8507 88.4677 92.8562C88.4843 92.8617 88.6022 92.8378 88.5898 92.8135C88.4121 92.4752 88.2681 92.1203 88.1599 91.754C88.1521 91.7274 88.025 91.7596 88.0268 91.7898C88.0518 92.0975 88.0488 92.4068 88.0176 92.714C88.0033 92.8305 87.9895 92.9736 87.9052 93.0644C87.8961 93.0746 87.8857 93.0835 87.8743 93.091C87.8637 93.0979 87.8633 93.0983 87.8743 93.091H87.8596C87.8373 93.0849 87.8157 93.0766 87.7951 93.0662C87.7747 93.0546 87.7585 93.0368 87.7489 93.0155C87.7393 92.9941 87.7368 92.9703 87.7416 92.9474L87.608 92.9827C87.6 93.0654 87.5738 93.1453 87.5311 93.2167C87.4884 93.2881 87.4303 93.3491 87.3611 93.3955L87.479 93.3785L87.3362 93.1208C87.3187 93.0896 87.2183 93.13 87.2035 93.1506C87.1206 93.2663 87.0722 93.4031 87.0641 93.5451C87.0559 93.687 87.0883 93.8284 87.1575 93.9528C87.1722 93.978 87.2832 93.9486 87.2901 93.9225C87.3799 93.5747 87.3341 93.2061 87.1621 92.8906C87.1464 92.8621 87.0506 92.8965 87.0349 92.9139C86.7631 93.2212 86.493 93.53 86.2245 93.8404L86.3572 93.8101C86.272 93.7083 86.1163 93.7335 86.008 93.784C85.8633 93.8514 85.8131 94.0032 85.7744 94.1468C85.767 94.1738 85.8919 94.1468 85.9057 94.1225C85.9222 94.0892 85.9307 94.0525 85.9306 94.0154C85.9305 93.9783 85.9218 93.9417 85.9051 93.9085C85.8884 93.8753 85.8642 93.8464 85.8344 93.8241C85.8046 93.8018 85.7701 93.7866 85.7334 93.7799C85.5759 93.7542 85.3782 93.845 85.3294 94.0018C85.3192 94.0349 85.4432 93.9945 85.4552 93.9839C85.5793 93.8754 85.6633 93.7285 85.6939 93.5669C85.7245 93.4052 85.6998 93.238 85.6238 93.0919C85.5851 93.0213 85.5436 92.9598 85.4547 92.9726C85.4132 92.9777 85.3736 92.9929 85.3394 93.0169C85.3052 93.0409 85.2776 93.073 85.2589 93.1102C85.1732 93.2795 85.24 93.496 85.2805 93.6679C85.3407 93.9243 85.4158 94.177 85.5054 94.4247C85.5155 94.4531 85.6468 94.4151 85.639 94.3889L85.3063 93.3143C85.2976 93.2864 85.1649 93.324 85.1727 93.3501L85.1709 93.3519Z" fill="#D3C06E"/>
<path d="M86.854 94.7471C86.8609 95.0622 86.8867 95.3766 86.9314 95.6887L86.854 94.7471Z" fill="#D3C06E"/>
<path d="M86.7876 94.7645C86.7946 95.0798 86.8206 95.3943 86.8655 95.7065C86.8714 95.7487 87.0037 95.7185 86.9986 95.6708C86.9541 95.3587 86.9284 95.0443 86.9217 94.7291C86.9217 94.6902 86.7871 94.7149 86.7881 94.7645H86.7876Z" fill="#D3C06E"/>
<path d="M87.2947 94.8279L86.875 95.2407C87.0807 95.32 87.2972 95.3686 87.5172 95.3847" fill="#D3C06E"/>
<path d="M87.2338 94.8279L86.8128 95.2448C86.8022 95.2554 86.8077 95.2664 86.8197 95.271C87.0294 95.3511 87.2498 95.4004 87.4739 95.4173C87.5066 95.4196 87.5391 95.4107 87.566 95.392C87.5854 95.3769 87.5844 95.3576 87.5563 95.3553C87.3403 95.3392 87.1278 95.2916 86.9256 95.2141L86.933 95.2402L87.3541 94.8233C87.3762 94.8013 87.3347 94.7935 87.3205 94.794C87.2877 94.7944 87.2562 94.8065 87.2315 94.8279H87.2338Z" fill="#D3C06E"/>
<path d="M87.5421 95.2212C87.62 95.2212 87.6435 95.1199 87.5527 95.1199C87.4753 95.1199 87.4518 95.2212 87.5421 95.2212Z" fill="#D3C06E"/>
<path d="M87.6475 94.4948C87.7012 94.7482 87.7822 94.9952 87.8889 95.2314C87.8929 95.2443 87.9016 95.2552 87.9133 95.2621C87.9205 95.2643 87.9281 95.2649 87.9356 95.2639C87.9431 95.2628 87.9502 95.2602 87.9566 95.2561C88.1294 95.175 88.2238 94.9782 88.2358 94.7883C88.2478 94.5985 88.1897 94.4113 88.1363 94.2292" fill="#D3C06E"/>
<path d="M87.5806 94.5124C87.6224 94.7088 87.6803 94.9014 87.7538 95.0884C87.7727 95.1366 87.7925 95.1843 87.8137 95.2315C87.8298 95.2673 87.8437 95.2943 87.8856 95.2998C87.9635 95.3099 88.0464 95.254 88.1026 95.2054C88.3988 94.9504 88.3002 94.5344 88.2026 94.2115C88.1892 94.1656 88.0561 94.2037 88.069 94.2473C88.1551 94.5307 88.2532 94.8802 88.0441 95.137C88.0249 95.1604 88.0031 95.1814 87.9791 95.1999C87.9633 95.2084 87.9479 95.2177 87.933 95.2278C87.9155 95.2361 87.9252 95.2361 87.9621 95.2278C87.9551 95.2175 87.9494 95.2064 87.945 95.1948C87.9091 95.1187 87.8791 95.0393 87.8529 94.9605C87.7956 94.8022 87.7494 94.6403 87.7147 94.4757C87.7055 94.4298 87.5714 94.4651 87.5811 94.511L87.5806 94.5124Z" fill="#D3C06E"/>
<path d="M88.6107 94.8229C88.6411 94.8229 88.6839 94.8151 88.6982 94.7839C88.7125 94.7527 88.6871 94.7339 88.659 94.7339C88.6309 94.7339 88.5858 94.7421 88.5715 94.7729C88.5572 94.8036 88.5825 94.8229 88.6107 94.8229Z" fill="#D3C06E"/>
<path d="M88.7568 94.0574C88.825 94.3343 88.9098 94.6069 89.0107 94.8737L88.7568 94.0574Z" fill="#D3C06E"/>
<path d="M88.6899 94.0751C88.7581 94.3521 88.8429 94.6247 88.9438 94.8915C88.958 94.9291 89.0898 94.8915 89.0769 94.8557C88.9764 94.589 88.8918 94.3165 88.8235 94.0398C88.8148 94.0031 88.6807 94.0375 88.6899 94.0751Z" fill="#D3C06E"/>
<path d="M88.7935 94.1165C88.9965 94.2063 89.1833 94.3288 89.3463 94.4792C89.3568 94.2054 89.3257 93.9316 89.2542 93.667" fill="#D3C06E"/>
<path d="M88.7415 94.1527C88.9399 94.2408 89.1226 94.3603 89.2824 94.5067C89.3124 94.5347 89.4091 94.5251 89.4114 94.4723C89.4221 94.1941 89.391 93.9159 89.3193 93.6468C89.3045 93.5913 89.1709 93.6266 89.1857 93.6826C89.2561 93.9435 89.2871 94.2134 89.2778 94.4833L89.4063 94.4489C89.2413 94.2959 89.0522 94.1708 88.8466 94.0784C88.8313 94.0716 88.8145 94.069 88.7978 94.0707C88.7812 94.0724 88.7653 94.0783 88.7517 94.088C88.7337 94.1008 88.7116 94.1362 88.7425 94.1504L88.7415 94.1527Z" fill="#D3C06E"/>
<path d="M89.5904 94.4797C89.6651 94.4797 89.6941 94.3879 89.6033 94.3879C89.5287 94.3879 89.4992 94.4797 89.5904 94.4797Z" fill="#D3C06E"/>
<path d="M90.7198 104.384C91.2192 105.083 94.4345 107.293 91.3187 110.916C89.6183 112.895 87.2097 112.229 85.6415 111.22C83.1007 109.584 76.8204 103.896 72.3589 98.4236C71.5757 97.4632 70.1341 96.0694 69.5486 95.1787C67.6136 92.2398 69.6951 90.231 70.9851 89.5687C71.6218 89.2417 73.4236 89.2426 74.6569 90.1085C78.5305 92.825 89.1857 102.233 90.7198 104.384Z" fill="#D3C06E"/>
<path d="M97.2995 111.981C96.9416 112.482 95.1711 112.7 94.668 112.343C94.2004 112.011 94.2925 109.984 94.2925 109.984L97.1982 109.66C97.1982 109.66 97.6377 111.508 97.2995 111.981Z" fill="#D3C06E"/>
<path d="M92.5386 92.6641C93.9415 92.249 95.2808 93.3272 95.5332 94.4656C95.7207 95.3058 95.9939 96.2465 96.2243 98.419C96.7006 102.863 97.195 109.66 97.195 109.66L94.2925 109.984C94.2925 109.984 92.4769 101.025 92.0098 99.7151C91.6444 98.691 91.1317 97.2243 90.7156 95.9346C90.4687 95.176 90.3715 93.3043 92.5386 92.6641Z" fill="#D3C06E"/>
<path d="M86.5554 80.9837C86.5015 81.3428 86.3817 82.2679 86.6817 83.7071C87.041 85.4288 89.0193 91.2746 90.7773 96.0444C90.9091 96.4017 91.7909 98.034 93.7719 97.5121C94.627 97.2869 95.8317 96.4985 95.5797 94.6612C95.014 90.5335 92.7128 81.1199 90.7068 79.5088C90.3681 79.2319 89.9638 79.0458 89.5325 78.9684C89.1012 78.8909 88.6571 78.9246 88.2425 79.0662C87.2649 79.4079 86.6761 80.183 86.5554 80.9837Z" fill="#D3C06E"/>
<path d="M81.5009 128C81.5693 128 81.6248 127.943 81.6248 127.873C81.6248 127.802 81.5693 127.745 81.5009 127.745C81.4324 127.745 81.377 127.802 81.377 127.873C81.377 127.943 81.4324 128 81.5009 128Z" fill="#D3C06E"/>
<path d="M87.0733 127.703C87.1405 127.703 87.1949 127.647 87.1949 127.578C87.1949 127.508 87.1405 127.452 87.0733 127.452C87.0061 127.452 86.9517 127.508 86.9517 127.578C86.9517 127.647 87.0061 127.703 87.0733 127.703Z" fill="#D3C06E"/>
<path d="M80.1052 57.5296C80.1052 57.5296 78.8411 61.5261 78.5729 64.3413C78.42 65.9465 78.4836 66.9096 78.4914 68.3773C78.4983 69.6913 79.0682 70.8388 79.7735 71.5648C80.5664 72.3812 83.1224 73.0352 82.9648 74.2249C82.934 74.4606 82.2277 76.0814 82.2277 76.0814C82.2277 76.0814 81.6841 77.8243 81.6822 77.8243C81.6804 77.8243 84.0037 79.0965 85.7696 78.6195C87.1642 78.2412 86.5841 76.8804 87.9598 76.6653C89.0812 76.4901 88.8176 75.4233 89.1245 74.6743C89.1821 74.534 89.6451 74.0781 90.9249 73.9405C91.0921 73.9226 91.493 73.7172 91.6302 73.5846C93.3851 71.8918 95.8968 70.0866 96.0489 69.5532C97.2882 65.2095 93.6417 59.4916 93.6417 59.4916C93.6417 59.4916 85.4992 53.2106 80.1052 57.5296Z" fill="white" stroke="black" stroke-miterlimit="10"/>
<path d="M87.868 62.7297C87.868 62.7297 79.9738 63.3993 80.3382 60.3562C80.423 59.6513 79.1164 60.5397 78.5456 60.0728C78.0034 59.6284 77.4925 58.7225 77.668 58.0708C77.8435 57.4191 78.313 56.8747 78.8658 56.4583C79.6776 55.8418 81.6135 54.4114 83.2559 53.523C83.9677 53.1377 85.5341 52.9625 86.361 53.007C88.5798 53.1253 90.6235 53.4913 92.5105 54.6393C93.2513 55.0901 93.9562 55.6217 94.4657 56.3051C94.9753 56.9884 94.4657 56.3051 95.2747 57.842C95.2747 57.842 98.2605 60.181 97.9814 64.3445C97.8726 65.9718 97.2488 68.137 95.4936 70.2151C90.0715 76.6319 88.3568 73.1756 88.3568 73.1756C88.3568 73.1756 86.5932 71.9772 88.5899 67.7403C89.7228 65.3352 90.5004 65.5755 90.1457 63.8877C90.1333 63.829 89.9061 63.0622 89.2515 62.8741" fill="#999999"/>
<path d="M83.5974 65.7295L83.5235 66.058C83.4326 66.4619 83.6878 66.8627 84.0935 66.9532C84.4992 67.0437 84.9017 66.7896 84.9926 66.3858L85.0666 66.0573C85.1575 65.6534 84.9023 65.2526 84.4966 65.1621C84.0909 65.0716 83.6883 65.3257 83.5974 65.7295Z" fill="#050100"/>
<path d="M78.7312 64.6446L78.6573 64.9731C78.5664 65.3769 78.8216 65.7777 79.2272 65.8682C79.6329 65.9587 80.0355 65.7047 80.1264 65.3008L80.2004 64.9723C80.2913 64.5684 80.0361 64.1677 79.6304 64.0772C79.2247 63.9867 78.8221 64.2407 78.7312 64.6446Z" fill="#050100"/>
<path d="M88.3463 67.6268C88.3463 67.6268 88.9392 67.4498 89.1428 67.419C89.3888 67.3819 89.5519 67.3003 89.944 67.2883C90.1596 67.2819 90.5715 67.4016 90.7396 67.536C91.0653 67.7956 91.4399 68.3395 90.9096 69.0628C90.114 70.1479 87.1318 70.8006 87.1318 70.8006L88.3463 67.6268Z" fill="white"/>
<path d="M73.1702 90.4074C75.5575 92.0044 74.5417 94.792 73.7078 95.7432C70.4235 99.4917 65.0576 108.041 62.5449 111.739C61.4609 113.335 59.256 113.044 58.4829 112.507C57.7223 111.978 56.8064 110.371 57.6016 108.866C58.0807 107.959 68.054 91.2651 68.054 91.2651C68.7442 90.0928 70.6639 88.7307 73.1702 90.4074Z" fill="#B8B5B5"/>
<path d="M89.5898 103.747C90.1265 104.412 93.4459 106.415 90.5725 110.191C89.0029 112.255 86.575 111.734 84.9602 110.825C82.3434 109.351 75.7783 104.078 71.0299 98.911C70.1974 98.0048 68.6844 96.7096 68.0491 95.8579C65.9547 93.057 67.9021 90.9422 69.1423 90.2102C69.7546 89.8488 71.5417 89.7438 72.816 90.5313C76.8172 92.9987 87.9409 101.705 89.5898 103.747Z" fill="#B8B5B5"/>
<path d="M64.8763 108.01L59.5782 108.601C59.5782 108.601 55.1789 109.234 52.4608 111.313C49.7426 113.392 61.0031 112.929 63.9434 112.793C64.9518 112.747 65.0159 110.733 64.8763 108.01Z" fill="#B8B5B5"/>
<path d="M74.4181 89.9232C76.9059 91.3945 76.0444 94.2532 75.2603 95.2558C72.1713 99.2065 67.262 108.098 64.946 111.956C63.9468 113.62 61.7142 113.452 60.907 112.955C60.1128 112.466 59.1015 110.903 59.8156 109.346C60.2459 108.408 69.325 91.0721 69.325 91.0721C69.9525 89.8548 71.805 88.379 74.4181 89.9232Z" fill="white"/>
<path d="M66.7683 108.636L59.5859 109.183C59.5859 109.183 55.1581 109.821 52.4224 111.913C49.6868 114.005 61.0201 113.54 63.9783 113.403C64.9918 113.357 66.9088 111.376 66.7683 108.636Z" fill="#999999"/>
<path d="M57.2979 63.3692C57.366 62.773 58.7772 61.7512 59.377 61.82C59.9349 61.8837 60.819 63.6618 60.819 63.6618L58.4865 65.3074C58.4865 65.3074 57.2329 63.9334 57.2979 63.3692Z" fill="#606060"/>
<path d="M70.5467 77.6547C69.5432 78.6701 67.8852 78.3784 67.1268 77.524C66.5676 76.8938 65.8885 76.2164 64.657 74.4672C62.1383 70.8898 58.4863 65.3077 58.4863 65.3077L60.8184 63.6621C60.8184 63.6621 66.6279 70.4743 67.6497 71.3732C68.4486 72.0772 69.5847 73.0908 70.5522 73.9984C71.1221 74.5323 72.096 76.0866 70.5467 77.6547Z" fill="white"/>
<path d="M83.9235 80.2646C83.6932 79.9949 83.08 79.3143 81.8209 78.6135C80.3125 77.776 74.7081 75.4948 70.0388 73.7332C69.6896 73.6011 67.9145 73.2044 67.0341 74.9962C66.654 75.7695 66.4683 77.1606 67.9937 78.1503C71.42 80.3756 79.8822 84.7056 82.3604 84.2603C82.7826 84.1881 83.1794 84.0096 83.5129 83.7418C83.8464 83.4741 84.1056 83.1258 84.2658 82.7302C84.6395 81.7946 84.4409 80.8659 83.9235 80.2646Z" fill="white"/>
<path d="M81.8078 77.4321C81.8078 77.4321 81.5899 77.7811 81.9543 77.8343C82.3187 77.8875 83.0816 77.6967 83.6184 77.5756C85.5146 77.1472 88.1835 76.0222 88.9455 75.4315C89.1123 75.3026 88.7796 75.5182 88.9455 75.8369C89.4771 76.8569 89.5937 78.2842 90.4197 80.182C91.6116 82.9151 91.3269 84.6524 91.4826 86.1301C91.8401 89.524 92.1543 94.3502 92.0211 96.3802C91.7116 101.1 92.3105 101.112 92.0211 106.749C92.0211 106.749 84.9687 102.752 79.3352 103.328C79.3352 103.328 77.3901 98.7619 77.3901 95.8376C77.3901 92.4134 77.3523 87.4702 77.9784 84.34C78.6271 81.0934 79.0422 80.7705 79.6964 79.4276C80.1221 78.5516 81.196 78.2411 81.8078 77.4321Z" fill="#B8B5B5"/>
<path d="M85.1709 93.3519L85.5026 94.4265L85.6362 94.3908C85.5683 94.2039 85.5091 94.0148 85.4584 93.8234C85.4123 93.6487 85.3547 93.4629 85.3506 93.2813C85.3454 93.204 85.3639 93.1269 85.4036 93.0603C85.4109 93.0488 85.4211 93.0392 85.4284 93.0281C85.4358 93.0171 85.4575 93.0107 85.4234 93.0203C85.3893 93.03 85.4137 93.0203 85.4188 93.0327C85.4273 93.0432 85.4366 93.0532 85.4464 93.0625C85.4678 93.0913 85.4863 93.122 85.5017 93.1543C85.563 93.2827 85.5845 93.4264 85.5634 93.567C85.5421 93.7338 85.4601 93.887 85.3331 93.9977L85.4588 93.9798C85.474 93.9231 85.5098 93.8741 85.5593 93.8422C85.5833 93.8311 85.6101 93.8274 85.6362 93.8317C85.6624 93.8359 85.6866 93.8479 85.7058 93.8661C85.7479 93.8978 85.7776 93.9431 85.7898 93.9942C85.802 94.0454 85.7959 94.0991 85.7726 94.1463L85.9039 94.122C85.9227 94.0276 85.9603 93.9379 86.0144 93.8583C86.0237 93.8394 86.0378 93.8232 86.0554 93.8115C86.0729 93.7998 86.0933 93.793 86.1143 93.7917C86.1354 93.7904 86.1565 93.7947 86.1754 93.8041C86.1942 93.8135 86.2102 93.8278 86.2218 93.8454C86.2462 93.8748 86.3346 93.8381 86.3544 93.8156C86.6189 93.5099 86.8853 93.2053 87.1538 92.902L87.0266 92.9254C87.1977 93.2372 87.2443 93.6018 87.157 93.9463L87.2892 93.9165C87.2208 93.7939 87.1888 93.6545 87.197 93.5145C87.2052 93.3745 87.2531 93.2397 87.3353 93.1258L87.2031 93.1556L87.3463 93.4166C87.3615 93.4441 87.4454 93.4116 87.4638 93.3996C87.5409 93.3499 87.6057 93.2836 87.6536 93.2056C87.7014 93.1275 87.7311 93.0398 87.7402 92.9488C87.7402 92.9327 87.6131 92.9488 87.6066 92.9841C87.585 93.1121 87.7449 93.1538 87.843 93.1391C87.9087 93.1291 87.9699 93.0995 88.0183 93.0541C88.0668 93.0087 88.1003 92.9498 88.1143 92.8851C88.156 92.7116 88.1764 92.5337 88.1752 92.3553C88.1807 92.1544 88.1719 91.9531 88.1599 91.7527L88.0268 91.7884C88.1347 92.1548 88.2785 92.5096 88.4562 92.8479L88.5778 92.8048C88.5625 92.7993 88.5488 92.7901 88.5379 92.7782C88.527 92.7662 88.5192 92.7517 88.5152 92.736L88.4354 92.7768C89.0081 92.6873 89.563 92.5085 90.0797 92.2471C90.1295 92.2219 90.0935 92.209 90.0544 92.2168C89.9197 92.2439 89.7896 92.2902 89.6683 92.3544C89.6439 92.3677 89.654 92.3783 89.6757 92.3815C89.7089 92.382 89.7416 92.3733 89.7701 92.3562C89.8512 92.313 89.9383 92.2821 90.0286 92.2645L90.0032 92.2338C89.5188 92.4798 88.9984 92.6481 88.4612 92.7323C88.4525 92.7323 88.3746 92.7516 88.3815 92.7731C88.3877 92.7931 88.3988 92.8112 88.4139 92.8257C88.429 92.8402 88.4475 92.8507 88.4677 92.8562C88.4843 92.8617 88.6022 92.8378 88.5898 92.8135C88.4121 92.4752 88.2681 92.1203 88.1599 91.754C88.1521 91.7274 88.025 91.7596 88.0268 91.7898C88.0518 92.0975 88.0488 92.4068 88.0176 92.714C88.0033 92.8305 87.9895 92.9736 87.9052 93.0644C87.8961 93.0746 87.8857 93.0835 87.8743 93.091C87.8637 93.0979 87.8633 93.0983 87.8743 93.091H87.8596C87.8373 93.0849 87.8157 93.0766 87.7951 93.0662C87.7747 93.0546 87.7585 93.0368 87.7489 93.0155C87.7393 92.9941 87.7368 92.9703 87.7416 92.9474L87.608 92.9827C87.6 93.0654 87.5738 93.1453 87.5311 93.2167C87.4884 93.2881 87.4303 93.3491 87.3611 93.3955L87.479 93.3785L87.3362 93.1208C87.3187 93.0896 87.2183 93.13 87.2035 93.1506C87.1206 93.2663 87.0722 93.4031 87.0641 93.5451C87.0559 93.687 87.0883 93.8284 87.1575 93.9528C87.1722 93.978 87.2832 93.9486 87.2901 93.9225C87.3799 93.5747 87.3341 93.2061 87.1621 92.8906C87.1464 92.8621 87.0506 92.8965 87.0349 92.9139C86.7631 93.2212 86.493 93.53 86.2245 93.8404L86.3572 93.8101C86.272 93.7083 86.1163 93.7335 86.008 93.784C85.8633 93.8514 85.8131 94.0032 85.7744 94.1468C85.767 94.1738 85.8919 94.1468 85.9057 94.1225C85.9222 94.0892 85.9307 94.0525 85.9306 94.0154C85.9305 93.9783 85.9218 93.9417 85.9051 93.9085C85.8884 93.8753 85.8642 93.8464 85.8344 93.8241C85.8046 93.8018 85.7701 93.7866 85.7334 93.7799C85.5759 93.7542 85.3782 93.845 85.3294 94.0018C85.3192 94.0349 85.4432 93.9945 85.4552 93.9839C85.5793 93.8754 85.6633 93.7285 85.6939 93.5669C85.7245 93.4052 85.6998 93.238 85.6238 93.0919C85.5851 93.0213 85.5436 92.9598 85.4547 92.9726C85.4132 92.9777 85.3736 92.9929 85.3394 93.0169C85.3052 93.0409 85.2776 93.073 85.2589 93.1102C85.1732 93.2795 85.24 93.496 85.2805 93.6679C85.3407 93.9243 85.4158 94.177 85.5054 94.4247C85.5155 94.4531 85.6468 94.4151 85.639 94.3889L85.3063 93.3143C85.2976 93.2864 85.1649 93.324 85.1727 93.3501L85.1709 93.3519Z" fill="#35505E"/>
<path d="M86.7876 94.7645C86.7946 95.0798 86.8206 95.3943 86.8655 95.7065C86.8714 95.7487 87.0037 95.7185 86.9986 95.6708C86.9541 95.3587 86.9284 95.0443 86.9217 94.7291C86.9217 94.6902 86.7871 94.7149 86.7881 94.7645H86.7876Z" fill="#35505E"/>
<path d="M87.2338 94.8279L86.8128 95.2448C86.8022 95.2554 86.8077 95.2664 86.8197 95.271C87.0294 95.3511 87.2498 95.4004 87.4739 95.4173C87.5066 95.4196 87.5391 95.4107 87.566 95.392C87.5854 95.3769 87.5844 95.3576 87.5563 95.3553C87.3403 95.3392 87.1278 95.2916 86.9256 95.2141L86.933 95.2402L87.3541 94.8233C87.3762 94.8013 87.3347 94.7935 87.3205 94.794C87.2877 94.7944 87.2562 94.8065 87.2315 94.8279H87.2338Z" fill="#35505E"/>
<path d="M87.5421 95.2212C87.62 95.2212 87.6435 95.1199 87.5527 95.1199C87.4753 95.1199 87.4518 95.2212 87.5421 95.2212Z" fill="#35505E"/>
<path d="M87.5806 94.5124C87.6224 94.7088 87.6803 94.9014 87.7538 95.0884C87.7727 95.1366 87.7925 95.1843 87.8137 95.2315C87.8298 95.2673 87.8437 95.2943 87.8856 95.2998C87.9635 95.3099 88.0464 95.254 88.1026 95.2054C88.3988 94.9504 88.3002 94.5344 88.2026 94.2115C88.1892 94.1656 88.0561 94.2037 88.069 94.2473C88.1551 94.5307 88.2532 94.8802 88.0441 95.137C88.0249 95.1604 88.0031 95.1814 87.9791 95.1999C87.9633 95.2084 87.9479 95.2177 87.933 95.2278C87.9155 95.2361 87.9252 95.2361 87.9621 95.2278C87.9551 95.2175 87.9494 95.2064 87.945 95.1948C87.9091 95.1187 87.8791 95.0393 87.8529 94.9605C87.7956 94.8022 87.7494 94.6403 87.7147 94.4757C87.7055 94.4298 87.5714 94.4651 87.5811 94.511L87.5806 94.5124Z" fill="#35505E"/>
<path d="M88.6107 94.8229C88.6411 94.8229 88.6839 94.8151 88.6982 94.7839C88.7125 94.7527 88.6871 94.7339 88.659 94.7339C88.6309 94.7339 88.5858 94.7421 88.5715 94.7729C88.5572 94.8036 88.5825 94.8229 88.6107 94.8229Z" fill="#35505E"/>
<path d="M88.6899 94.0751C88.7581 94.3521 88.8429 94.6247 88.9438 94.8915C88.958 94.9291 89.0898 94.8915 89.0769 94.8557C88.9764 94.589 88.8918 94.3165 88.8235 94.0398C88.8148 94.0031 88.6807 94.0375 88.6899 94.0751Z" fill="#35505E"/>
<path d="M88.7415 94.1527C88.9399 94.2408 89.1226 94.3603 89.2824 94.5067C89.3124 94.5347 89.4091 94.5251 89.4114 94.4723C89.4221 94.1941 89.391 93.9159 89.3193 93.6468C89.3045 93.5913 89.1709 93.6266 89.1857 93.6826C89.2561 93.9435 89.2871 94.2134 89.2778 94.4833L89.4063 94.4489C89.2413 94.2959 89.0522 94.1708 88.8466 94.0784C88.8313 94.0716 88.8145 94.069 88.7978 94.0707C88.7812 94.0724 88.7653 94.0783 88.7517 94.088C88.7337 94.1008 88.7116 94.1362 88.7425 94.1504L88.7415 94.1527Z" fill="#35505E"/>
<path d="M89.5904 94.4797C89.6651 94.4797 89.6941 94.3879 89.6033 94.3879C89.5287 94.3879 89.4992 94.4797 89.5904 94.4797Z" fill="#35505E"/>
<path d="M90.7198 104.384C91.2192 105.083 94.4345 107.293 91.3187 110.916C89.6183 112.895 87.2097 112.229 85.6415 111.22C83.1007 109.584 76.8204 103.896 72.3589 98.4236C71.5757 97.4632 70.1341 96.0694 69.5486 95.1787C67.6136 92.2398 69.6951 90.231 70.9851 89.5687C71.6218 89.2417 73.4236 89.2426 74.6569 90.1085C78.5305 92.825 89.1857 102.233 90.7198 104.384Z" fill="white"/>
<path d="M97.2995 111.981C96.9416 112.482 95.1711 112.7 94.668 112.343C94.2004 112.011 94.2925 109.984 94.2925 109.984L97.1982 109.66C97.1982 109.66 97.6377 111.508 97.2995 111.981Z" fill="#999999"/>
<path d="M92.5386 92.6641C93.9415 92.249 95.2808 93.3272 95.5332 94.4656C95.7207 95.3058 95.9939 96.2465 96.2243 98.419C96.7006 102.863 97.195 109.66 97.195 109.66L94.2925 109.984C94.2925 109.984 92.4769 101.025 92.0098 99.7151C91.6444 98.691 91.1317 97.2243 90.7156 95.9346C90.4687 95.176 90.3715 93.3043 92.5386 92.6641Z" fill="white"/>
<path d="M86.5554 80.9837C86.5015 81.3428 86.3817 82.2679 86.6817 83.7071C87.041 85.4288 89.0193 91.2746 90.7773 96.0444C90.9091 96.4017 91.7909 98.034 93.7719 97.5121C94.627 97.2869 95.8317 96.4985 95.5797 94.6612C95.014 90.5335 92.7128 81.1199 90.7068 79.5088C90.3681 79.2319 89.9638 79.0458 89.5325 78.9684C89.1012 78.8909 88.6571 78.9246 88.2425 79.0662C87.2649 79.4079 86.6761 80.183 86.5554 80.9837Z" fill="white"/>
<path d="M81.5009 128C81.5693 128 81.6248 127.943 81.6248 127.873C81.6248 127.802 81.5693 127.745 81.5009 127.745C81.4324 127.745 81.377 127.802 81.377 127.873C81.377 127.943 81.4324 128 81.5009 128Z" fill="black"/>
<path d="M87.0733 127.703C87.1405 127.703 87.1949 127.647 87.1949 127.578C87.1949 127.508 87.1405 127.452 87.0733 127.452C87.0061 127.452 86.9517 127.508 86.9517 127.578C86.9517 127.647 87.0061 127.703 87.0733 127.703Z" fill="black"/>
</g>
<defs>
<clipPath id="clip0">
<rect width="46" height="75" fill="white" transform="translate(52 53)"/>
</clipPath>
</defs>
</svg>
