<svg width="264" height="360" viewBox="0 0 264 360" fill="none" xmlns="http://www.w3.org/2000/svg">
<rect x="2" y="-2" width="260" height="356" rx="6" transform="matrix(1 0 0 -1 1.19209e-07 356)" fill="white" stroke="black" stroke-width="4"/>
<path d="M149.024 179.184L145.376 189.192H144.776L141.344 179.136L139.688 189H137.216L139.664 174.048H141.488L145.28 184.056L148.904 174.048H150.752L152.936 189H150.464L149.024 179.184ZM153.484 181.752C153.484 179.624 154.164 177.808 155.524 176.304C156.9 174.8 158.628 174.048 160.708 174.048C162.788 174.048 164.508 174.8 165.868 176.304C167.228 177.808 167.908 179.616 167.908 181.728C167.908 183.84 167.228 185.648 165.868 187.152C164.524 188.64 162.804 189.384 160.708 189.384C158.612 189.384 156.884 188.64 155.524 187.152C154.164 185.664 153.484 183.864 153.484 181.752ZM156.052 181.584C156.052 183.008 156.5 184.264 157.396 185.352C158.292 186.424 159.396 186.96 160.708 186.96C162.116 186.96 163.244 186.448 164.092 185.424C164.94 184.384 165.364 183.104 165.364 181.584C165.364 180.144 164.94 178.936 164.092 177.96C163.244 176.968 162.108 176.472 160.684 176.472C159.276 176.472 158.148 176.968 157.3 177.96C156.468 178.952 156.052 180.16 156.052 181.584ZM173.738 189H171.506V176.52H168.266V174.432H176.978V176.52H173.738V189ZM180.68 189H178.208V174.432H180.68V189ZM182.219 181.752C182.219 179.624 182.899 177.808 184.259 176.304C185.635 174.8 187.363 174.048 189.443 174.048C191.523 174.048 193.243 174.8 194.603 176.304C195.963 177.808 196.643 179.616 196.643 181.728C196.643 183.84 195.963 185.648 194.603 187.152C193.259 188.64 191.539 189.384 189.443 189.384C187.347 189.384 185.619 188.64 184.259 187.152C182.899 185.664 182.219 183.864 182.219 181.752ZM184.787 181.584C184.787 183.008 185.235 184.264 186.131 185.352C187.027 186.424 188.131 186.96 189.443 186.96C190.851 186.96 191.979 186.448 192.827 185.424C193.675 184.384 194.099 183.104 194.099 181.584C194.099 180.144 193.675 178.936 192.827 177.96C191.979 176.968 190.843 176.472 189.419 176.472C188.011 176.472 186.883 176.968 186.035 177.96C185.203 178.952 184.787 180.16 184.787 181.584ZM198.032 174.048H199.904L208.136 185.016L208.184 174.432H210.632V189.288H208.784L200.528 178.344L200.504 189H198.032V174.048Z" fill="black"/>
<path d="M143.388 197.456C142.964 196.944 142.432 196.688 141.792 196.688C141.128 196.688 140.572 196.964 140.124 197.516C139.676 198.06 139.452 198.684 139.452 199.388C139.452 200.068 139.672 200.68 140.112 201.224C140.56 201.76 141.116 202.028 141.78 202.028C142.412 202.028 142.948 201.772 143.388 201.26V202.76C142.796 203.048 142.248 203.192 141.744 203.192C140.736 203.192 139.888 202.82 139.2 202.076C138.512 201.332 138.168 200.444 138.168 199.412C138.168 198.34 138.512 197.424 139.2 196.664C139.888 195.904 140.744 195.524 141.768 195.524C142.304 195.524 142.844 195.664 143.388 195.944V197.456ZM148.949 200.624C148.949 201.368 148.721 201.976 148.265 202.448C147.809 202.92 147.209 203.156 146.465 203.156C145.729 203.156 145.129 202.92 144.665 202.448C144.201 201.976 143.969 201.372 143.969 200.636C143.969 199.892 144.197 199.284 144.653 198.812C145.109 198.34 145.709 198.104 146.453 198.104C147.197 198.104 147.797 198.34 148.253 198.812C148.717 199.276 148.949 199.88 148.949 200.624ZM145.145 200.648C145.145 201.088 145.269 201.448 145.517 201.728C145.765 202.008 146.085 202.148 146.477 202.148C146.869 202.148 147.181 202 147.413 201.704C147.653 201.4 147.773 201.044 147.773 200.636C147.773 200.22 147.653 199.864 147.413 199.568C147.173 199.264 146.857 199.112 146.465 199.112C146.081 199.112 145.765 199.256 145.517 199.544C145.269 199.832 145.145 200.2 145.145 200.648ZM150.849 203H149.685V194.804H150.849V203ZM153.158 203H151.994V194.804H153.158V203ZM155.107 200.744C155.107 201.2 155.207 201.576 155.407 201.872C155.607 202.168 155.883 202.316 156.235 202.316C156.787 202.316 157.139 202.044 157.291 201.5L158.395 201.68C158.035 202.664 157.315 203.156 156.235 203.156C155.515 203.156 154.939 202.928 154.507 202.472C154.083 202.008 153.871 201.408 153.871 200.672C153.871 199.896 154.075 199.276 154.483 198.812C154.899 198.34 155.459 198.104 156.163 198.104C156.875 198.104 157.427 198.328 157.819 198.776C158.219 199.216 158.419 199.82 158.419 200.588V200.744H155.107ZM157.339 200.096C157.339 199.768 157.235 199.48 157.027 199.232C156.827 198.984 156.563 198.86 156.235 198.86C155.915 198.86 155.651 198.992 155.443 199.256C155.243 199.512 155.143 199.792 155.143 200.096H157.339ZM162.274 199.496C161.978 199.2 161.646 199.052 161.278 199.052C160.846 199.052 160.506 199.208 160.258 199.52C160.01 199.832 159.886 200.216 159.886 200.672C159.886 201.12 160.026 201.488 160.306 201.776C160.586 202.064 160.926 202.208 161.326 202.208C161.67 202.208 161.986 202.056 162.274 201.752V202.868C161.938 203.06 161.55 203.156 161.11 203.156C160.422 203.156 159.85 202.912 159.394 202.424C158.938 201.936 158.71 201.34 158.71 200.636C158.71 199.932 158.942 199.336 159.406 198.848C159.878 198.352 160.466 198.104 161.17 198.104C161.586 198.104 161.954 198.204 162.274 198.404V199.496ZM164.541 203H163.377V199.304H162.813V198.356H163.377V196.652H164.541V198.356H165.465V199.304H164.541V203ZM167.189 196.268C167.189 196.452 167.121 196.612 166.985 196.748C166.849 196.884 166.689 196.952 166.505 196.952C166.321 196.952 166.161 196.884 166.025 196.748C165.889 196.612 165.821 196.452 165.821 196.268C165.821 196.084 165.889 195.924 166.025 195.788C166.161 195.652 166.321 195.584 166.505 195.584C166.689 195.584 166.849 195.652 166.985 195.788C167.121 195.924 167.189 196.084 167.189 196.268ZM167.093 203H165.929V198.26H167.093V203ZM172.866 200.624C172.866 201.368 172.638 201.976 172.182 202.448C171.726 202.92 171.126 203.156 170.382 203.156C169.646 203.156 169.046 202.92 168.582 202.448C168.118 201.976 167.886 201.372 167.886 200.636C167.886 199.892 168.114 199.284 168.57 198.812C169.026 198.34 169.626 198.104 170.37 198.104C171.114 198.104 171.714 198.34 172.17 198.812C172.634 199.276 172.866 199.88 172.866 200.624ZM169.062 200.648C169.062 201.088 169.186 201.448 169.434 201.728C169.682 202.008 170.002 202.148 170.394 202.148C170.786 202.148 171.098 202 171.33 201.704C171.57 201.4 171.69 201.044 171.69 200.636C171.69 200.22 171.57 199.864 171.33 199.568C171.09 199.264 170.774 199.112 170.382 199.112C169.998 199.112 169.682 199.256 169.434 199.544C169.186 199.832 169.062 200.2 169.062 200.648ZM174.671 198.692C174.999 198.3 175.483 198.104 176.123 198.104C177.211 198.104 177.755 198.772 177.755 200.108V203H176.603V200.492C176.603 199.492 176.295 198.992 175.679 198.992C175.007 198.992 174.671 199.528 174.671 200.6V203H173.507V198.26H174.671V198.692Z" fill="black"/>
<g clip-path="url(#clip0)">
<path d="M91.8616 176.352C100.222 176.352 107 169.557 107 161.176C107 152.795 100.222 146 91.8616 146C83.5009 146 76.7231 152.795 76.7231 161.176C76.7231 169.557 83.5009 176.352 91.8616 176.352Z" fill="#231F20"/>
<path d="M91.5892 176.532C99.8668 176.532 106.577 169.805 106.577 161.507C106.577 153.209 99.8668 146.482 91.5892 146.482C83.3116 146.482 76.6013 153.209 76.6013 161.507C76.6013 169.805 83.3116 176.532 91.5892 176.532Z" fill="#231F20" stroke="#939598" stroke-width="0.01" stroke-miterlimit="10"/>
<path d="M91.3172 176.718C99.5149 176.718 106.16 170.056 106.16 161.838C106.16 153.62 99.5149 146.958 91.3172 146.958C83.1196 146.958 76.4741 153.62 76.4741 161.838C76.4741 170.056 83.1196 176.718 91.3172 176.718Z" fill="#231F20" stroke="#939598" stroke-width="0.02" stroke-miterlimit="10"/>
<path d="M91.0451 176.898C99.1595 176.898 105.738 170.303 105.738 162.169C105.738 154.034 99.1595 147.44 91.0451 147.44C82.9306 147.44 76.3525 154.034 76.3525 162.169C76.3525 170.303 82.9306 176.898 91.0451 176.898Z" fill="#231F20" stroke="#939598" stroke-width="0.03" stroke-miterlimit="10"/>
<path d="M90.7787 177.078C98.8132 177.078 105.326 170.548 105.326 162.494C105.326 154.44 98.8132 147.91 90.7787 147.91C82.7442 147.91 76.231 154.44 76.231 162.494C76.231 170.548 82.7442 177.078 90.7787 177.078Z" fill="#231F20" stroke="#939598" stroke-width="0.04" stroke-miterlimit="10"/>
<path d="M90.5062 177.263C98.4608 177.263 104.909 170.799 104.909 162.825C104.909 154.85 98.4608 148.386 90.5062 148.386C82.5517 148.386 76.1033 154.85 76.1033 162.825C76.1033 170.799 82.5517 177.263 90.5062 177.263Z" fill="#231F20" stroke="#939598" stroke-width="0.05" stroke-miterlimit="10"/>
<path d="M90.2343 177.449C98.1088 177.449 104.492 171.05 104.492 163.156C104.492 155.262 98.1088 148.862 90.2343 148.862C82.3597 148.862 75.9761 155.262 75.9761 163.156C75.9761 171.05 82.3597 177.449 90.2343 177.449Z" fill="#231F20" stroke="#939598" stroke-width="0.06" stroke-miterlimit="10"/>
<path d="M89.9618 177.635C97.7564 177.635 104.075 171.3 104.075 163.487C104.075 155.673 97.7564 149.338 89.9618 149.338C82.1672 149.338 75.8484 155.673 75.8484 163.487C75.8484 171.3 82.1672 177.635 89.9618 177.635Z" fill="#231F20" stroke="#939598" stroke-width="0.07" stroke-miterlimit="10"/>
<path d="M89.6956 177.821C97.4135 177.821 103.67 171.549 103.67 163.812C103.67 156.075 97.4135 149.803 89.6956 149.803C81.9777 149.803 75.7212 156.075 75.7212 163.812C75.7212 171.549 81.9777 177.821 89.6956 177.821Z" fill="#231F20" stroke="#939598" stroke-width="0.08" stroke-miterlimit="10"/>
<path d="M89.4233 178.012C97.0644 178.012 103.259 171.803 103.259 164.143C103.259 156.483 97.0644 150.273 89.4233 150.273C81.7822 150.273 75.5879 156.483 75.5879 164.143C75.5879 171.803 81.7822 178.012 89.4233 178.012Z" fill="#231F20" stroke="#939598" stroke-width="0.09" stroke-miterlimit="10"/>
<path d="M89.1513 178.204C96.7156 178.204 102.848 172.057 102.848 164.474C102.848 156.89 96.7156 150.743 89.1513 150.743C81.5869 150.743 75.4548 156.89 75.4548 164.474C75.4548 172.057 81.5869 178.204 89.1513 178.204Z" fill="#231F20" stroke="#939598" stroke-width="0.1" stroke-miterlimit="10"/>
<path d="M88.879 178.395C96.3665 178.395 102.436 172.311 102.436 164.804C102.436 157.298 96.3665 151.213 88.879 151.213C81.3914 151.213 75.3215 157.298 75.3215 164.804C75.3215 172.311 81.3914 178.395 88.879 178.395Z" fill="#231F20" stroke="#939598" stroke-width="0.11" stroke-miterlimit="10"/>
<path d="M88.6125 178.581C96.0233 178.581 102.031 172.559 102.031 165.13C102.031 157.701 96.0233 151.678 88.6125 151.678C81.2017 151.678 75.1941 157.701 75.1941 165.13C75.1941 172.559 81.2017 178.581 88.6125 178.581Z" fill="#231F20" stroke="#939598" stroke-width="0.12" stroke-miterlimit="10"/>
<path d="M88.3404 178.779C95.6777 178.779 101.626 172.816 101.626 165.461C101.626 158.105 95.6777 152.142 88.3404 152.142C81.0032 152.142 75.0552 158.105 75.0552 165.461C75.0552 172.816 81.0032 178.779 88.3404 178.779Z" fill="#231F20" stroke="#939598" stroke-width="0.13" stroke-miterlimit="10"/>
<path d="M88.0683 178.976C95.332 178.976 101.22 173.073 101.22 165.792C101.22 158.51 95.332 152.607 88.0683 152.607C80.8046 152.607 74.9163 158.51 74.9163 165.792C74.9163 173.073 80.8046 178.976 88.0683 178.976Z" fill="#231F20" stroke="#939598" stroke-width="0.14" stroke-miterlimit="10"/>
<path d="M87.7959 179.174C94.9861 179.174 100.815 173.33 100.815 166.122C100.815 158.914 94.9861 153.071 87.7959 153.071C80.6058 153.071 74.7771 158.914 74.7771 166.122C74.7771 173.33 80.6058 179.174 87.7959 179.174Z" fill="#231F20" stroke="#939598" stroke-width="0.15" stroke-miterlimit="10"/>
<path d="M87.5238 179.371C94.6404 179.371 100.409 173.587 100.409 166.453C100.409 159.319 94.6404 153.536 87.5238 153.536C80.4073 153.536 74.6382 159.319 74.6382 166.453C74.6382 173.587 80.4073 179.371 87.5238 179.371Z" fill="#231F20" stroke="#939598" stroke-width="0.16" stroke-miterlimit="10"/>
<path d="M87.2575 179.568C94.3037 179.568 100.016 173.842 100.016 166.778C100.016 159.715 94.3037 153.989 87.2575 153.989C80.2113 153.989 74.4993 159.715 74.4993 166.778C74.4993 173.842 80.2113 179.568 87.2575 179.568Z" fill="#231F20" stroke="#939598" stroke-width="0.17" stroke-miterlimit="10"/>
<path d="M86.9853 179.772C93.9611 179.772 99.6162 174.102 99.6162 167.109C99.6162 160.116 93.9611 154.447 86.9853 154.447C80.0095 154.447 74.3545 160.116 74.3545 167.109C74.3545 174.102 80.0095 179.772 86.9853 179.772Z" fill="#231F20" stroke="#939598" stroke-width="0.18" stroke-miterlimit="10"/>
<path d="M86.7129 179.975C93.6183 179.975 99.2163 174.363 99.2163 167.44C99.2163 160.518 93.6183 154.906 86.7129 154.906C79.8074 154.906 74.2095 160.518 74.2095 167.44C74.2095 174.363 79.8074 179.975 86.7129 179.975Z" fill="#231F20" stroke="#939598" stroke-width="0.19" stroke-miterlimit="10"/>
<path d="M86.4409 180.184C93.2792 180.184 98.8227 174.626 98.8227 167.771C98.8227 160.916 93.2792 155.359 86.4409 155.359C79.6026 155.359 74.0591 160.916 74.0591 167.771C74.0591 174.626 79.6026 180.184 86.4409 180.184Z" fill="#231F20" stroke="#939598" stroke-width="0.2" stroke-miterlimit="10"/>
<path d="M86.1745 180.387C92.9456 180.387 98.4347 174.884 98.4347 168.096C98.4347 161.308 92.9456 155.806 86.1745 155.806C79.4034 155.806 73.9143 161.308 73.9143 168.096C73.9143 174.884 79.4034 180.387 86.1745 180.387Z" fill="#231F20" stroke="#939598" stroke-width="0.21" stroke-miterlimit="10"/>
<path d="M85.9022 180.596C92.6062 180.596 98.0408 175.148 98.0408 168.427C98.0408 161.707 92.6062 156.259 85.9022 156.259C79.1983 156.259 73.7637 161.707 73.7637 168.427C73.7637 175.148 79.1983 180.596 85.9022 180.596Z" fill="#231F20" stroke="#939598" stroke-width="0.22" stroke-miterlimit="10"/>
<path d="M85.6302 180.805C92.267 180.805 97.6472 175.411 97.6472 168.758C97.6472 162.105 92.267 156.711 85.6302 156.711C78.9935 156.711 73.6133 162.105 73.6133 168.758C73.6133 175.411 78.9935 180.805 85.6302 180.805Z" fill="#231F20" stroke="#939598" stroke-width="0.23" stroke-miterlimit="10"/>
<path d="M85.3579 181.02C91.9307 181.02 97.259 175.678 97.259 169.089C97.259 162.5 91.9307 157.158 85.3579 157.158C78.7851 157.158 73.4568 162.5 73.4568 169.089C73.4568 175.678 78.7851 181.02 85.3579 181.02Z" fill="#231F20" stroke="#939598" stroke-width="0.24" stroke-miterlimit="10"/>
<path d="M85.0915 181.229C91.6003 181.229 96.8768 175.939 96.8768 169.414C96.8768 162.889 91.6003 157.6 85.0915 157.6C78.5826 157.6 73.3062 162.889 73.3062 169.414C73.3062 175.939 78.5826 181.229 85.0915 181.229Z" fill="#231F20" stroke="#939598" stroke-width="0.25" stroke-miterlimit="10"/>
<path d="M84.8193 181.449C91.2674 181.449 96.4946 176.209 96.4946 169.745C96.4946 163.281 91.2674 158.041 84.8193 158.041C78.3712 158.041 73.144 163.281 73.144 169.745C73.144 176.209 78.3712 181.449 84.8193 181.449Z" fill="#231F20" stroke="#939598" stroke-width="0.26" stroke-miterlimit="10"/>
<path d="M84.5472 181.67C90.9345 181.67 96.1124 176.479 96.1124 170.076C96.1124 163.673 90.9345 158.482 84.5472 158.482C78.1599 158.482 72.9819 163.673 72.9819 170.076C72.9819 176.479 78.1599 181.67 84.5472 181.67Z" fill="#231F20" stroke="#939598" stroke-width="0.27" stroke-miterlimit="10"/>
<path d="M84.2748 181.891C90.6013 181.891 95.73 176.749 95.73 170.407C95.73 164.065 90.6013 158.923 84.2748 158.923C77.9482 158.923 72.8196 164.065 72.8196 170.407C72.8196 176.749 77.9482 181.891 84.2748 181.891Z" fill="#231F20" stroke="#939598" stroke-width="0.28" stroke-miterlimit="10"/>
<path d="M84.0084 182.117C90.2774 182.117 95.3594 177.022 95.3594 170.738C95.3594 164.453 90.2774 159.359 84.0084 159.359C77.7395 159.359 72.6575 164.453 72.6575 170.738C72.6575 177.022 77.7395 182.117 84.0084 182.117Z" fill="#231F20" stroke="#939598" stroke-width="0.29" stroke-miterlimit="10"/>
<path d="M83.7365 182.337C89.9478 182.337 94.9832 177.29 94.9832 171.063C94.9832 164.836 89.9478 159.788 83.7365 159.788C77.5251 159.788 72.4897 164.836 72.4897 171.063C72.4897 177.29 77.5251 182.337 83.7365 182.337Z" fill="#231F20" stroke="#939598" stroke-width="0.3" stroke-miterlimit="10"/>
<path d="M83.4642 182.564C89.6181 182.564 94.6067 177.563 94.6067 171.394C94.6067 165.225 89.6181 160.224 83.4642 160.224C77.3104 160.224 72.3218 165.225 72.3218 171.394C72.3218 177.563 77.3104 182.564 83.4642 182.564Z" fill="#231F20" stroke="#939598" stroke-width="0.31" stroke-miterlimit="10"/>
<path d="M83.192 182.796C89.2914 182.796 94.236 177.839 94.236 171.725C94.236 165.61 89.2914 160.654 83.192 160.654C77.0925 160.654 72.1479 165.61 72.1479 171.725C72.1479 177.839 77.0925 182.796 83.192 182.796Z" fill="#231F20" stroke="#939598" stroke-width="0.32" stroke-miterlimit="10"/>
<path d="M82.9197 183.028C88.9648 183.028 93.8652 178.116 93.8652 172.056C93.8652 165.996 88.9648 161.083 82.9197 161.083C76.8746 161.083 71.9741 165.996 71.9741 172.056C71.9741 178.116 76.8746 183.028 82.9197 183.028Z" fill="#231F20" stroke="#939598" stroke-width="0.33" stroke-miterlimit="10"/>
<path d="M82.6534 183.261C88.6473 183.261 93.5063 178.39 93.5063 172.381C93.5063 166.372 88.6473 161.501 82.6534 161.501C76.6595 161.501 71.8005 166.372 71.8005 172.381C71.8005 178.39 76.6595 183.261 82.6534 183.261Z" fill="#231F20" stroke="#939598" stroke-width="0.34" stroke-miterlimit="10"/>
<path d="M82.3811 183.499C88.3238 183.499 93.1413 178.669 93.1413 172.712C93.1413 166.755 88.3238 161.925 82.3811 161.925C76.4384 161.925 71.6208 166.755 71.6208 172.712C71.6208 178.669 76.4384 183.499 82.3811 183.499Z" fill="#231F20" stroke="#939598" stroke-width="0.35" stroke-miterlimit="10"/>
<path d="M82.1089 183.743C88.0037 183.743 92.7823 178.952 92.7823 173.043C92.7823 167.133 88.0037 162.343 82.1089 162.343C76.2142 162.343 71.4355 167.133 71.4355 173.043C71.4355 178.952 76.2142 183.743 82.1089 183.743Z" fill="#231F20" stroke="#939598" stroke-width="0.36" stroke-miterlimit="10"/>
<path d="M81.8367 183.986C87.6835 183.986 92.4232 179.235 92.4232 173.374C92.4232 167.512 87.6835 162.761 81.8367 162.761C75.99 162.761 71.2502 167.512 71.2502 173.374C71.2502 179.235 75.99 183.986 81.8367 183.986Z" fill="#231F20" stroke="#939598" stroke-width="0.37" stroke-miterlimit="10"/>
<path d="M81.5704 184.23C87.3723 184.23 92.0758 179.515 92.0758 173.699C92.0758 167.882 87.3723 163.167 81.5704 163.167C75.7684 163.167 71.0649 167.882 71.0649 173.699C71.0649 179.515 75.7684 184.23 81.5704 184.23Z" fill="#231F20" stroke="#939598" stroke-width="0.38" stroke-miterlimit="10"/>
<path d="M81.2981 184.48C87.0553 184.48 91.7225 179.801 91.7225 174.03C91.7225 168.258 87.0553 163.58 81.2981 163.58C75.5409 163.58 70.8738 168.258 70.8738 174.03C70.8738 179.801 75.5409 184.48 81.2981 184.48Z" fill="#231F20" stroke="#939598" stroke-width="0.39" stroke-miterlimit="10"/>
<path d="M81.0261 184.729C86.7386 184.729 91.3694 180.087 91.3694 174.361C91.3694 168.634 86.7386 163.992 81.0261 163.992C75.3137 163.992 70.6829 168.634 70.6829 174.361C70.6829 180.087 75.3137 184.729 81.0261 184.729Z" fill="#231F20" stroke="#939598" stroke-width="0.4" stroke-miterlimit="10"/>
<path d="M80.7538 184.985C86.4247 184.985 91.0218 180.377 91.0218 174.692C91.0218 169.007 86.4247 164.398 80.7538 164.398C75.083 164.398 70.4858 169.007 70.4858 174.692C70.4858 180.377 75.083 184.985 80.7538 184.985Z" fill="#231F20" stroke="#939598" stroke-width="0.41" stroke-miterlimit="10"/>
<path d="M80.4873 185.246C86.1198 185.246 90.6858 180.669 90.6858 175.023C90.6858 169.376 86.1198 164.799 80.4873 164.799C74.8548 164.799 70.2888 169.376 70.2888 175.023C70.2888 180.669 74.8548 185.246 80.4873 185.246Z" fill="#231F20" stroke="#939598" stroke-width="0.42" stroke-miterlimit="10"/>
<path d="M80.2152 185.502C85.8093 185.502 90.3442 180.955 90.3442 175.347C90.3442 169.739 85.8093 165.193 80.2152 165.193C74.6211 165.193 70.0862 169.739 70.0862 175.347C70.0862 180.955 74.6211 185.502 80.2152 185.502Z" fill="#231F20" stroke="#939598" stroke-width="0.43" stroke-miterlimit="10"/>
<path d="M79.943 185.769C85.5019 185.769 90.0082 181.251 90.0082 175.679C90.0082 170.106 85.5019 165.588 79.943 165.588C74.3841 165.588 69.8777 170.106 69.8777 175.679C69.8777 181.251 74.3841 185.769 79.943 185.769Z" fill="#231F20" stroke="#939598" stroke-width="0.44" stroke-miterlimit="10"/>
<path d="M79.671 186.036C85.1947 186.036 89.6726 181.547 89.6726 176.01C89.6726 170.472 85.1947 165.983 79.671 165.983C74.1473 165.983 69.6694 170.472 69.6694 176.01C69.6694 181.547 74.1473 186.036 79.671 186.036Z" fill="#231F20" stroke="#939598" stroke-width="0.45" stroke-miterlimit="10"/>
<path d="M79.3985 186.309C84.8902 186.309 89.3422 181.846 89.3422 176.34C89.3422 170.835 84.8902 166.372 79.3985 166.372C73.9068 166.372 69.4548 170.835 69.4548 176.34C69.4548 181.846 73.9068 186.309 79.3985 186.309Z" fill="#231F20" stroke="#939598" stroke-width="0.46" stroke-miterlimit="10"/>
<path d="M79.1323 186.582C84.5952 186.582 89.0238 182.142 89.0238 176.666C89.0238 171.189 84.5952 166.75 79.1323 166.75C73.6693 166.75 69.2407 171.189 69.2407 176.666C69.2407 182.142 73.6693 186.582 79.1323 186.582Z" fill="#231F20" stroke="#939598" stroke-width="0.47" stroke-miterlimit="10"/>
<path d="M78.8599 186.86C84.2941 186.86 88.6993 182.444 88.6993 176.996C88.6993 171.549 84.2941 167.133 78.8599 167.133C73.4258 167.133 69.0205 171.549 69.0205 176.996C69.0205 182.444 73.4258 186.86 78.8599 186.86Z" fill="#231F20" stroke="#939598" stroke-width="0.48" stroke-miterlimit="10"/>
<path d="M78.5878 187.145C83.9963 187.145 88.3809 182.749 88.3809 177.327C88.3809 171.905 83.9963 167.51 78.5878 167.51C73.1792 167.51 68.7947 171.905 68.7947 177.327C68.7947 182.749 73.1792 187.145 78.5878 187.145Z" fill="#231F20" stroke="#939598" stroke-width="0.49" stroke-miterlimit="10"/>
<path d="M78.3159 187.429C83.6988 187.429 88.0626 183.054 88.0626 177.658C88.0626 172.262 83.6988 167.887 78.3159 167.887C72.9329 167.887 68.5691 172.262 68.5691 177.658C68.5691 183.054 72.9329 187.429 78.3159 187.429Z" fill="#231F20" stroke="#939598" stroke-width="0.5" stroke-miterlimit="10"/>
<path d="M78.0492 187.714C83.4098 187.714 87.7555 183.357 87.7555 177.983C87.7555 172.61 83.4098 168.253 78.0492 168.253C72.6886 168.253 68.343 172.61 68.343 177.983C68.343 183.357 72.6886 187.714 78.0492 187.714Z" fill="#231F20" stroke="#939598" stroke-width="0.5" stroke-miterlimit="10"/>
<path d="M77.7769 188.01C83.1184 188.01 87.4484 183.669 87.4484 178.314C87.4484 172.96 83.1184 168.619 77.7769 168.619C72.4355 168.619 68.1055 172.96 68.1055 178.314C68.1055 183.669 72.4355 188.01 77.7769 188.01Z" fill="#231F20" stroke="#939598" stroke-width="0.51" stroke-miterlimit="10"/>
<path d="M77.5049 188.306C82.8271 188.306 87.1416 183.981 87.1416 178.645C87.1416 173.31 82.8271 168.985 77.5049 168.985C72.1827 168.985 67.8682 173.31 67.8682 178.645C67.8682 183.981 72.1827 188.306 77.5049 188.306Z" fill="#231F20" stroke="#939598" stroke-width="0.52" stroke-miterlimit="10"/>
<path d="M77.2328 188.608C82.539 188.608 86.8405 184.295 86.8405 178.976C86.8405 173.657 82.539 169.344 77.2328 169.344C71.9265 169.344 67.625 173.657 67.625 178.976C67.625 184.295 71.9265 188.608 77.2328 188.608Z" fill="#231F20" stroke="#939598" stroke-width="0.53" stroke-miterlimit="10"/>
<path d="M76.9663 188.909C82.2565 188.909 86.5451 184.61 86.5451 179.307C86.5451 174.004 82.2565 169.704 76.9663 169.704C71.676 169.704 67.3875 174.004 67.3875 179.307C67.3875 184.61 71.676 188.909 76.9663 188.909Z" fill="#231F20" stroke="#939598" stroke-width="0.54" stroke-miterlimit="10"/>
<path d="M76.694 189.217C81.9746 189.217 86.2554 184.926 86.2554 179.632C86.2554 174.339 81.9746 170.047 76.694 170.047C71.4134 170.047 67.1326 174.339 67.1326 179.632C67.1326 184.926 71.4134 189.217 76.694 189.217Z" fill="#231F20" stroke="#939598" stroke-width="0.55" stroke-miterlimit="10"/>
<path d="M76.4218 189.525C81.6897 189.525 85.9601 185.244 85.9601 179.963C85.9601 174.682 81.6897 170.401 76.4218 170.401C71.154 170.401 66.8835 174.682 66.8835 179.963C66.8835 185.244 71.154 189.525 76.4218 189.525Z" fill="#231F20" stroke="#939598" stroke-width="0.56" stroke-miterlimit="10"/>
<path d="M76.1497 189.844C81.4112 189.844 85.6764 185.568 85.6764 180.294C85.6764 175.019 81.4112 170.744 76.1497 170.744C70.8883 170.744 66.623 175.019 66.623 180.294C66.623 185.568 70.8883 189.844 76.1497 189.844Z" fill="#231F20" stroke="#939598" stroke-width="0.57" stroke-miterlimit="10"/>
<path d="M75.8777 190.164C81.1327 190.164 85.3928 185.893 85.3928 180.625C85.3928 175.357 81.1327 171.086 75.8777 171.086C70.6226 171.086 66.3625 175.357 66.3625 180.625C66.3625 185.893 70.6226 190.164 75.8777 190.164Z" fill="#231F20" stroke="#939598" stroke-width="0.58" stroke-miterlimit="10"/>
<path d="M75.6111 190.483C80.863 190.483 85.1204 186.215 85.1204 180.95C85.1204 175.685 80.863 171.417 75.6111 171.417C70.3593 171.417 66.1018 175.685 66.1018 180.95C66.1018 186.215 70.3593 190.483 75.6111 190.483Z" fill="#231F20" stroke="#939598" stroke-width="0.59" stroke-miterlimit="10"/>
<path d="M75.3389 190.814C80.5908 190.814 84.8482 186.546 84.8482 181.281C84.8482 176.016 80.5908 171.748 75.3389 171.748C70.0871 171.748 65.8296 176.016 65.8296 181.281C65.8296 186.546 70.0871 190.814 75.3389 190.814Z" fill="#231F20" stroke="#939598" stroke-width="0.6" stroke-miterlimit="10"/>
<path d="M75.0667 191.145C80.3185 191.145 84.576 186.877 84.576 181.612C84.576 176.347 80.3185 172.079 75.0667 172.079C69.8148 172.079 65.5574 176.347 65.5574 181.612C65.5574 186.877 69.8148 191.145 75.0667 191.145Z" fill="#231F20" stroke="#939598" stroke-width="0.61" stroke-miterlimit="10"/>
<path d="M74.7944 191.481C80.0495 191.481 84.3095 187.211 84.3095 181.943C84.3095 176.675 80.0495 172.404 74.7944 172.404C69.5394 172.404 65.2793 176.675 65.2793 181.943C65.2793 187.211 69.5394 191.481 74.7944 191.481Z" fill="#231F20" stroke="#939598" stroke-width="0.62" stroke-miterlimit="10"/>
<path d="M74.5282 191.812C79.7865 191.812 84.0491 187.539 84.0491 182.268C84.0491 176.997 79.7865 172.723 74.5282 172.723C69.27 172.723 65.0073 176.997 65.0073 182.268C65.0073 187.539 69.27 191.812 74.5282 191.812Z" fill="#231F20" stroke="#939598" stroke-width="0.63" stroke-miterlimit="10"/>
<path d="M74.2559 192.155C79.5205 192.155 83.7884 187.877 83.7884 182.599C83.7884 177.321 79.5205 173.043 74.2559 173.043C68.9912 173.043 64.7234 177.321 64.7234 182.599C64.7234 187.877 68.9912 192.155 74.2559 192.155Z" fill="#231F20" stroke="#939598" stroke-width="0.64" stroke-miterlimit="10"/>
<path d="M73.9837 192.503C79.2579 192.503 83.5336 188.217 83.5336 182.93C83.5336 177.642 79.2579 173.356 73.9837 173.356C68.7095 173.356 64.4338 177.642 64.4338 182.93C64.4338 188.217 68.7095 192.503 73.9837 192.503Z" fill="#231F20" stroke="#939598" stroke-width="0.65" stroke-miterlimit="10"/>
<path d="M73.7117 192.858C78.9987 192.858 83.2847 188.561 83.2847 183.261C83.2847 177.961 78.9987 173.664 73.7117 173.664C68.4247 173.664 64.1387 177.961 64.1387 183.261C64.1387 188.561 68.4247 192.858 73.7117 192.858Z" fill="#231F20" stroke="#939598" stroke-width="0.66" stroke-miterlimit="10"/>
<path d="M73.4451 193.212C78.7449 193.212 83.0413 188.905 83.0413 183.592C83.0413 178.279 78.7449 173.972 73.4451 173.972C68.1452 173.972 63.8489 178.279 63.8489 183.592C63.8489 188.905 68.1452 193.212 73.4451 193.212Z" fill="#231F20" stroke="#939598" stroke-width="0.67" stroke-miterlimit="10"/>
<path d="M73.173 193.566C78.4888 193.566 82.7981 189.246 82.7981 183.917C82.7981 178.588 78.4888 174.268 73.173 174.268C67.8572 174.268 63.5479 178.588 63.5479 183.917C63.5479 189.246 67.8572 193.566 73.173 193.566Z" fill="#231F20" stroke="#939598" stroke-width="0.68" stroke-miterlimit="10"/>
<path d="M72.9006 193.931C78.2356 193.931 82.5605 189.596 82.5605 184.248C82.5605 178.899 78.2356 174.564 72.9006 174.564C67.5656 174.564 63.2407 178.899 63.2407 184.248C63.2407 189.596 67.5656 193.931 72.9006 193.931Z" fill="#231F20" stroke="#939598" stroke-width="0.69" stroke-miterlimit="10"/>
<path d="M72.6287 194.297C77.9829 194.297 82.3234 189.946 82.3234 184.579C82.3234 179.211 77.9829 174.86 72.6287 174.86C67.2745 174.86 62.9341 179.211 62.9341 184.579C62.9341 189.946 67.2745 194.297 72.6287 194.297Z" fill="#231F20" stroke="#939598" stroke-width="0.7" stroke-miterlimit="10"/>
<path d="M72.3621 194.669C77.7387 194.669 82.0973 190.299 82.0973 184.909C82.0973 179.52 77.7387 175.15 72.3621 175.15C66.9855 175.15 62.627 179.52 62.627 184.909C62.627 190.299 66.9855 194.669 72.3621 194.669Z" fill="#231F20" stroke="#939598" stroke-width="0.71" stroke-miterlimit="10"/>
<path d="M72.0899 195.034C77.4889 195.034 81.8657 190.647 81.8657 185.235C81.8657 179.822 77.4889 175.435 72.0899 175.435C66.6909 175.435 62.3142 179.822 62.3142 185.235C62.3142 190.647 66.6909 195.034 72.0899 195.034Z" fill="#231F20" stroke="#939598" stroke-width="0.72" stroke-miterlimit="10"/>
<path d="M71.8179 195.412C77.2425 195.412 81.6399 191.004 81.6399 185.566C81.6399 180.128 77.2425 175.719 71.8179 175.719C66.3933 175.719 61.9958 180.128 61.9958 185.566C61.9958 191.004 66.3933 195.412 71.8179 195.412Z" fill="#231F20" stroke="#939598" stroke-width="0.73" stroke-miterlimit="10"/>
<path d="M71.5456 195.795C76.9989 195.795 81.4197 191.363 81.4197 185.896C81.4197 180.43 76.9989 175.998 71.5456 175.998C66.0922 175.998 61.6714 180.43 61.6714 185.896C61.6714 191.363 66.0922 195.795 71.5456 195.795Z" fill="#231F20" stroke="#939598" stroke-width="0.74" stroke-miterlimit="10"/>
<path d="M71.2735 196.178C76.7556 196.178 81.1997 191.723 81.1997 186.228C81.1997 180.732 76.7556 176.277 71.2735 176.277C65.7913 176.277 61.3472 180.732 61.3472 186.228C61.3472 191.723 65.7913 196.178 71.2735 196.178Z" fill="#231F20" stroke="#939598" stroke-width="0.75" stroke-miterlimit="10"/>
<path d="M71.0069 196.561C76.521 196.561 80.9911 192.08 80.9911 186.552C80.9911 181.025 76.521 176.543 71.0069 176.543C65.4928 176.543 61.0227 181.025 61.0227 186.552C61.0227 192.08 65.4928 196.561 71.0069 196.561Z" fill="#231F20" stroke="#939598" stroke-width="0.76" stroke-miterlimit="10"/>
<path d="M70.735 196.95C76.2811 196.95 80.7771 192.443 80.7771 186.883C80.7771 181.324 76.2811 176.816 70.735 176.816C65.1889 176.816 60.6929 181.324 60.6929 186.883C60.6929 192.443 65.1889 196.95 70.735 196.95Z" fill="#231F20" stroke="#939598" stroke-width="0.77" stroke-miterlimit="10"/>
<path d="M70.4625 197.345C76.0438 197.345 80.5683 192.809 80.5683 187.214C80.5683 181.619 76.0438 177.083 70.4625 177.083C64.8812 177.083 60.3567 181.619 60.3567 187.214C60.3567 192.809 64.8812 197.345 70.4625 197.345Z" fill="#231F20" stroke="#939598" stroke-width="0.78" stroke-miterlimit="10"/>
<path d="M70.1905 197.746C75.8101 197.746 80.3658 193.179 80.3658 187.545C80.3658 181.912 75.8101 177.345 70.1905 177.345C64.5708 177.345 60.0151 181.912 60.0151 187.545C60.0151 193.179 64.5708 197.746 70.1905 197.746Z" fill="#231F20" stroke="#939598" stroke-width="0.79" stroke-miterlimit="10"/>
<path d="M69.9243 198.146C75.5823 198.146 80.1691 193.548 80.1691 187.876C80.1691 182.204 75.5823 177.606 69.9243 177.606C64.2662 177.606 59.6794 182.204 59.6794 187.876C59.6794 193.548 64.2662 198.146 69.9243 198.146Z" fill="#231F20" stroke="#939598" stroke-width="0.8" stroke-miterlimit="10"/>
<path d="M69.6519 198.547C75.3515 198.547 79.972 193.915 79.972 188.201C79.972 182.487 75.3515 177.855 69.6519 177.855C63.9523 177.855 59.3318 182.487 59.3318 188.201C59.3318 193.915 63.9523 198.547 69.6519 198.547Z" fill="#231F20" stroke="#939598" stroke-width="0.81" stroke-miterlimit="10"/>
<path d="M69.3798 198.953C75.121 198.953 79.7752 194.288 79.7752 188.532C79.7752 182.777 75.121 178.111 69.3798 178.111C63.6385 178.111 58.9844 182.777 58.9844 188.532C58.9844 194.288 63.6385 198.953 69.3798 198.953Z" fill="#231F20" stroke="#939598" stroke-width="0.82" stroke-miterlimit="10"/>
<path d="M69.1073 199.366C74.8933 199.366 79.5838 194.664 79.5838 188.863C79.5838 183.063 74.8933 178.361 69.1073 178.361C63.3213 178.361 58.6309 183.063 58.6309 188.863C58.6309 194.664 63.3213 199.366 69.1073 199.366Z" fill="#231F20" stroke="#939598" stroke-width="0.83" stroke-miterlimit="10"/>
<path d="M68.841 199.778C74.6718 199.778 79.3985 195.039 79.3985 189.194C79.3985 183.349 74.6718 178.61 68.841 178.61C63.0102 178.61 58.2834 183.349 58.2834 189.194C58.2834 195.039 63.0102 199.778 68.841 199.778Z" fill="#231F20" stroke="#939598" stroke-width="0.84" stroke-miterlimit="10"/>
<path d="M68.5688 200.184C74.4443 200.184 79.2074 195.409 79.2074 189.519C79.2074 183.629 74.4443 178.854 68.5688 178.854C62.6932 178.854 57.9302 183.629 57.9302 189.519C57.9302 195.409 62.6932 200.184 68.5688 200.184Z" fill="#231F20" stroke="#939598" stroke-width="0.85" stroke-miterlimit="10"/>
<path d="M68.2967 200.608C74.2234 200.608 79.028 195.792 79.028 189.85C79.028 183.909 74.2234 179.092 68.2967 179.092C62.37 179.092 57.5654 183.909 57.5654 189.85C57.5654 195.792 62.37 200.608 68.2967 200.608Z" fill="#231F20" stroke="#939598" stroke-width="0.86" stroke-miterlimit="10"/>
<path d="M68.0245 201.026C73.9992 201.026 78.8426 196.171 78.8426 190.181C78.8426 184.192 73.9992 179.336 68.0245 179.336C62.0498 179.336 57.2063 184.192 57.2063 190.181C57.2063 196.171 62.0498 201.026 68.0245 201.026Z" fill="#231F20" stroke="#939598" stroke-width="0.87" stroke-miterlimit="10"/>
<path d="M67.7524 201.45C73.7782 201.45 78.6632 196.553 78.6632 190.512C78.6632 184.471 73.7782 179.574 67.7524 179.574C61.7265 179.574 56.8416 184.471 56.8416 190.512C56.8416 196.553 61.7265 201.45 67.7524 201.45Z" fill="#231F20" stroke="#939598" stroke-width="0.88" stroke-miterlimit="10"/>
<path d="M67.4858 201.874C73.5661 201.874 78.4951 196.932 78.4951 190.837C78.4951 184.742 73.5661 179.801 67.4858 179.801C61.4056 179.801 56.4766 184.742 56.4766 190.837C56.4766 196.932 61.4056 201.874 67.4858 201.874Z" fill="#231F20" stroke="#939598" stroke-width="0.89" stroke-miterlimit="10"/>
<path d="M67.2137 202.303C73.3483 202.303 78.3214 197.318 78.3214 191.168C78.3214 185.018 73.3483 180.033 67.2137 180.033C61.0791 180.033 56.106 185.018 56.106 191.168C56.106 197.318 61.0791 202.303 67.2137 202.303Z" fill="#231F20" stroke="#939598" stroke-width="0.9" stroke-miterlimit="10"/>
<path d="M66.9415 202.733C73.1305 202.733 78.1477 197.703 78.1477 191.499C78.1477 185.295 73.1305 180.265 66.9415 180.265C60.7525 180.265 55.7354 185.295 55.7354 191.499C55.7354 197.703 60.7525 202.733 66.9415 202.733Z" fill="#231F20" stroke="#939598" stroke-width="0.91" stroke-miterlimit="10"/>
<path d="M66.6695 203.168C72.9161 203.168 77.98 198.092 77.98 191.83C77.98 185.568 72.9161 180.491 66.6695 180.491C60.423 180.491 55.3591 185.568 55.3591 191.83C55.3591 198.092 60.423 203.168 66.6695 203.168Z" fill="#231F20" stroke="#939598" stroke-width="0.92" stroke-miterlimit="10"/>
<path d="M66.4029 203.598C72.7071 203.598 77.8176 198.475 77.8176 192.155C77.8176 185.835 72.7071 180.712 66.4029 180.712C60.0988 180.712 54.9883 185.835 54.9883 192.155C54.9883 198.475 60.0988 203.598 66.4029 203.598Z" fill="#231F20" stroke="#939598" stroke-width="0.93" stroke-miterlimit="10"/>
<path d="M66.1306 204.039C72.4956 204.039 77.6553 198.867 77.6553 192.486C77.6553 186.105 72.4956 180.933 66.1306 180.933C59.7657 180.933 54.606 186.105 54.606 192.486C54.606 198.867 59.7657 204.039 66.1306 204.039Z" fill="#231F20" stroke="#939598" stroke-width="0.94" stroke-miterlimit="10"/>
<path d="M65.8586 204.48C72.2843 204.48 77.4933 199.258 77.4933 192.817C77.4933 186.375 72.2843 181.153 65.8586 181.153C59.4329 181.153 54.2239 186.375 54.2239 192.817C54.2239 199.258 59.4329 204.48 65.8586 204.48Z" fill="#231F20" stroke="#939598" stroke-width="0.95" stroke-miterlimit="10"/>
<path d="M65.5863 204.922C72.0728 204.922 77.3311 199.65 77.3311 193.148C77.3311 186.645 72.0728 181.374 65.5863 181.374C59.0999 181.374 53.8416 186.645 53.8416 193.148C53.8416 199.65 59.0999 204.922 65.5863 204.922Z" fill="#231F20" stroke="#939598" stroke-width="0.96" stroke-miterlimit="10"/>
<path d="M65.3201 205.369C71.8705 205.369 77.1806 200.045 77.1806 193.479C77.1806 186.912 71.8705 181.589 65.3201 181.589C58.7696 181.589 53.4595 186.912 53.4595 193.479C53.4595 200.045 58.7696 205.369 65.3201 205.369Z" fill="#231F20" stroke="#939598" stroke-width="0.97" stroke-miterlimit="10"/>
<path d="M65.0477 205.81C71.6621 205.81 77.0241 200.434 77.0241 193.804C77.0241 187.173 71.6621 181.798 65.0477 181.798C58.4333 181.798 53.0713 187.173 53.0713 193.804C53.0713 200.434 58.4333 205.81 65.0477 205.81Z" fill="#231F20" stroke="#939598" stroke-width="0.98" stroke-miterlimit="10"/>
<path d="M64.7755 206.263C71.4571 206.263 76.8736 200.833 76.8736 194.135C76.8736 187.436 71.4571 182.007 64.7755 182.007C58.094 182.007 52.6775 187.436 52.6775 194.135C52.6775 200.833 58.094 206.263 64.7755 206.263Z" fill="#231F20" stroke="#939598" stroke-width="0.99" stroke-miterlimit="10"/>
<path d="M64.5034 206.71C71.2489 206.71 76.7173 201.228 76.7173 194.466C76.7173 187.703 71.2489 182.221 64.5034 182.221C57.7579 182.221 52.2896 187.703 52.2896 194.466C52.2896 201.228 57.7579 206.71 64.5034 206.71Z" stroke="#939598" stroke-miterlimit="10"/>
</g>
<defs>
<clipPath id="clip0">
<rect width="55" height="61" fill="white" transform="translate(52 146)"/>
</clipPath>
</defs>
</svg>
