<svg width="312" height="316" viewBox="0 0 312 316" fill="none" xmlns="http://www.w3.org/2000/svg">
<rect width="312" height="316" transform="matrix(1 0 0 -1 0 316)" fill="black"/>
<path d="M36.504 138.912H40.896V141H34.032V126.432H36.504V138.912ZM44.4773 141H42.0053V126.432H44.4773V141ZM49.1837 128.52V132.312H53.6717V134.4H49.1837V141H46.7117V126.432H53.9597V128.52H49.1837ZM58.1368 128.52V132.312H63.0328V134.4H58.1368V138.912H63.2008V141H55.6648V126.432H63.2008V128.52H58.1368ZM72.4063 133.752C72.4063 131.624 73.0863 129.808 74.4463 128.304C75.8223 126.8 77.5503 126.048 79.6303 126.048C81.7103 126.048 83.4303 126.8 84.7903 128.304C86.1503 129.808 86.8303 131.616 86.8303 133.728C86.8303 135.84 86.1503 137.648 84.7903 139.152C83.4463 140.64 81.7263 141.384 79.6303 141.384C77.5343 141.384 75.8063 140.64 74.4463 139.152C73.0863 137.664 72.4063 135.864 72.4063 133.752ZM74.9743 133.584C74.9743 135.008 75.4223 136.264 76.3183 137.352C77.2143 138.424 78.3183 138.96 79.6303 138.96C81.0383 138.96 82.1663 138.448 83.0143 137.424C83.8623 136.384 84.2863 135.104 84.2863 133.584C84.2863 132.144 83.8623 130.936 83.0143 129.96C82.1663 128.968 81.0303 128.472 79.6063 128.472C78.1983 128.472 77.0703 128.968 76.2223 129.96C75.3903 130.952 74.9743 132.16 74.9743 133.584ZM90.6915 128.52V132.312H95.1795V134.4H90.6915V141H88.2195V126.432H95.4675V128.52H90.6915ZM105.188 126.432H108.74C111.652 126.432 113.108 127.752 113.108 130.392C113.108 131.688 112.684 132.632 111.836 133.224C112.604 133.352 113.204 133.76 113.636 134.448C114.084 135.136 114.308 135.944 114.308 136.872C114.308 138.232 113.876 139.264 113.012 139.968C112.164 140.656 111.044 141 109.652 141H105.188V126.432ZM107.66 139.032H109.028C110.916 139.032 111.86 138.232 111.86 136.632C111.86 135.192 110.868 134.472 108.884 134.472H107.66V139.032ZM107.66 132.696H108.764C110.14 132.696 110.828 131.992 110.828 130.584C110.828 129.08 110.148 128.328 108.788 128.328H107.66V132.696ZM115.804 126.432H118.276V134.592C118.276 137.728 119.26 139.296 121.228 139.296C123.196 139.296 124.18 137.728 124.18 134.592V126.432H126.628V135.144C126.628 139.304 124.82 141.384 121.204 141.384C117.604 141.384 115.804 139.304 115.804 135.144V126.432ZM133.066 141H130.834V128.52H127.594V126.432H136.306V128.52H133.066V141ZM141.785 141H139.553V128.52H136.312V126.432H145.025V128.52H141.785V141ZM148.535 128.52V132.312H153.431V134.4H148.535V138.912H153.599V141H146.063V126.432H153.599V128.52H148.535ZM165.157 141H162.109L157.981 134.52L157.957 141H155.485V126.432H159.349C162.597 126.432 164.221 127.896 164.221 130.824C164.221 131.928 163.933 132.848 163.357 133.584C162.797 134.32 162.029 134.744 161.053 134.856L165.157 141ZM157.957 133.512H158.701C160.733 133.512 161.749 132.64 161.749 130.896C161.749 129.216 160.741 128.376 158.725 128.376H157.957V133.512ZM168.738 128.52V132.312H173.226V134.4H168.738V141H166.266V126.432L173.514 126.432V128.52H168.738ZM177.692 138.912H182.084V141H175.22V126.432H177.692V138.912ZM185.665 141H183.193V126.432H185.665V141ZM190.371 128.52V132.312H195.267V134.4H190.371V138.912H195.435V141H187.899V126.432H195.435V128.52H190.371ZM204.377 129.384C203.753 128.504 202.961 128.064 202.001 128.064C201.393 128.064 200.881 128.248 200.465 128.616C200.049 128.984 199.841 129.48 199.841 130.104C199.841 130.712 200.593 131.44 202.097 132.288C203.617 133.136 204.385 133.56 204.401 133.56C205.473 134.36 206.009 135.304 206.009 136.392C206.009 137.88 205.577 139.088 204.713 140.016C203.865 140.928 202.697 141.384 201.209 141.384C199.321 141.384 197.833 140.44 196.745 138.552L198.305 137.016C198.513 137.576 198.897 138.088 199.457 138.552C200.017 139.016 200.593 139.248 201.185 139.248C201.889 139.248 202.441 139.008 202.841 138.528C203.257 138.048 203.465 137.464 203.465 136.776C203.465 136.28 203.313 135.848 203.009 135.48C202.705 135.096 201.673 134.52 199.913 133.752C198.169 132.968 197.297 131.856 197.297 130.416C197.297 129.184 197.697 128.152 198.497 127.32C199.313 126.472 200.329 126.048 201.545 126.048C203.225 126.048 204.553 126.592 205.529 127.68L204.377 129.384Z" fill="white"/>
<ellipse cx="61.1523" cy="39.711" rx="5.11665" ry="2.98472" transform="rotate(-135.656 61.1523 39.711)" fill="white"/>
<ellipse cx="66.1196" cy="40.9226" rx="3.35043" ry="1.95442" transform="rotate(-51.2037 66.1196 40.9226)" fill="white"/>
<ellipse rx="1.34408" ry="0.215271" transform="matrix(0.94607 0.323963 0.323963 -0.94607 58.7154 42.5824)" fill="white"/>
<ellipse rx="5.11665" ry="2.98472" transform="matrix(-0.715152 0.698969 0.698969 0.715152 61.1523 47.7566)" fill="white"/>
<ellipse rx="3.35043" ry="1.95442" transform="matrix(0.626553 0.779379 0.779379 -0.626553 66.1196 46.5449)" fill="white"/>
<ellipse cx="58.7154" cy="44.8852" rx="1.34408" ry="0.215271" transform="rotate(-18.9027 58.7154 44.8852)" fill="white"/>
<ellipse cx="35.7109" cy="68.9965" rx="5.11665" ry="2.98472" transform="rotate(134.344 35.7109 68.9965)" fill="white"/>
<ellipse cx="36.9227" cy="64.0294" rx="3.35043" ry="1.95442" transform="rotate(-141.204 36.9227 64.0294)" fill="white"/>
<ellipse rx="1.34408" ry="0.215271" transform="matrix(0.323963 -0.94607 -0.94607 -0.323963 38.5824 71.4333)" fill="white"/>
<ellipse rx="5.11665" ry="2.98472" transform="matrix(0.698969 0.715152 0.715152 -0.698969 43.7567 68.9965)" fill="white"/>
<ellipse rx="3.35043" ry="1.95442" transform="matrix(0.779379 -0.626553 -0.626553 -0.779379 42.545 64.0292)" fill="white"/>
<ellipse cx="40.8852" cy="71.4336" rx="1.34408" ry="0.215271" transform="rotate(-108.903 40.8852 71.4336)" fill="white"/>
<ellipse cx="90.2891" cy="66.1524" rx="5.11665" ry="2.98472" transform="rotate(-45.6557 90.2891 66.1524)" fill="white"/>
<ellipse cx="89.0773" cy="71.1195" rx="3.35043" ry="1.95442" transform="rotate(38.7963 89.0773 71.1195)" fill="white"/>
<ellipse rx="1.34408" ry="0.215271" transform="matrix(-0.323963 0.94607 0.94607 0.323963 87.4176 63.7156)" fill="white"/>
<ellipse rx="5.11665" ry="2.98472" transform="matrix(-0.698969 -0.715152 -0.715152 0.698969 82.2433 66.1521)" fill="white"/>
<ellipse rx="3.35043" ry="1.95442" transform="matrix(-0.779379 0.626553 0.626553 0.779379 83.455 71.1195)" fill="white"/>
<ellipse cx="85.1148" cy="63.7151" rx="1.34408" ry="0.215271" transform="rotate(71.0973 85.1148 63.7151)" fill="white"/>
<ellipse cx="64.751" cy="94.289" rx="5.11665" ry="2.98472" transform="rotate(44.3443 64.751 94.289)" fill="white"/>
<ellipse cx="59.7838" cy="93.0774" rx="3.35043" ry="1.95442" transform="rotate(128.796 59.7838 93.0774)" fill="white"/>
<ellipse rx="1.34408" ry="0.215271" transform="matrix(-0.94607 -0.323963 -0.323963 0.94607 67.188 91.4176)" fill="white"/>
<ellipse rx="5.11665" ry="2.98472" transform="matrix(0.715152 -0.698969 -0.698969 -0.715152 64.751 86.2432)" fill="white"/>
<ellipse rx="3.35043" ry="1.95442" transform="matrix(-0.626553 -0.779379 -0.779379 0.626553 59.7837 87.4548)" fill="white"/>
<ellipse cx="67.188" cy="89.1146" rx="1.34408" ry="0.215271" transform="rotate(161.097 67.188 89.1146)" fill="white"/>
<ellipse cx="42.4857" cy="51.4169" rx="2.32273" ry="1.35493" transform="rotate(179.344 42.4857 51.4169)" fill="white"/>
<ellipse cx="44.4692" cy="50.2112" rx="1.52095" ry="0.88722" transform="rotate(-96.2037 44.4692 50.2112)" fill="white"/>
<ellipse rx="0.610154" ry="0.0977234" transform="matrix(0.898049 -0.439896 -0.439896 -0.898049 42.6252 53.1206)" fill="white"/>
<ellipse rx="2.32274" ry="1.35493" transform="matrix(-0.0114432 0.999934 0.999934 0.0114435 45.0687 53.9992)" fill="white"/>
<ellipse rx="1.52095" ry="0.88722" transform="matrix(0.994144 0.108064 0.108064 -0.994144 46.2741 52.0155)" fill="white"/>
<ellipse cx="43.3646" cy="53.8595" rx="0.610154" ry="0.0977234" transform="rotate(-63.9027 43.3646 53.8595)" fill="white"/>
<ellipse cx="44.9078" cy="85.6877" rx="2.32274" ry="1.35493" transform="rotate(89.3443 44.9078 85.6877)" fill="white"/>
<ellipse cx="43.7023" cy="83.7042" rx="1.52095" ry="0.88722" transform="rotate(173.796 43.7023 83.7042)" fill="white"/>
<ellipse rx="0.610154" ry="0.0977234" transform="matrix(-0.439896 -0.898049 -0.898049 0.439896 46.6118 85.5483)" fill="white"/>
<ellipse rx="2.32274" ry="1.35493" transform="matrix(0.999935 0.0114432 0.0114435 -0.999935 47.4899 83.1044)" fill="white"/>
<ellipse rx="1.52095" ry="0.88722" transform="matrix(0.108064 -0.994144 -0.994144 -0.108064 45.5065 81.8989)" fill="white"/>
<ellipse cx="47.3504" cy="84.8084" rx="0.610155" ry="0.0977234" transform="rotate(-153.903 47.3504 84.8084)" fill="white"/>
<ellipse cx="81.4421" cy="84.7741" rx="2.32274" ry="1.35493" transform="rotate(-0.655669 81.4421 84.7741)" fill="white"/>
<ellipse cx="79.4587" cy="85.9797" rx="1.52095" ry="0.88722" transform="rotate(83.7963 79.4587 85.9797)" fill="white"/>
<ellipse rx="0.610154" ry="0.0977234" transform="matrix(-0.898049 0.439896 0.439896 0.898049 81.3027 83.0703)" fill="white"/>
<ellipse rx="2.32274" ry="1.35493" transform="matrix(0.0114432 -0.999935 -0.999935 -0.0114435 78.8591 82.1917)" fill="white"/>
<ellipse rx="1.52095" ry="0.88722" transform="matrix(-0.994144 -0.108064 -0.108064 0.994144 77.6537 84.1754)" fill="white"/>
<ellipse cx="80.5632" cy="82.3314" rx="0.610154" ry="0.0977235" transform="rotate(116.097 80.5632 82.3314)" fill="white"/>
<ellipse cx="81.2835" cy="49.7491" rx="2.32274" ry="1.35493" transform="rotate(-90.6557 81.2835 49.7491)" fill="white"/>
<ellipse cx="82.489" cy="51.7326" rx="1.52095" ry="0.88722" transform="rotate(-6.20373 82.489 51.7326)" fill="white"/>
<ellipse rx="0.610154" ry="0.0977234" transform="matrix(0.439896 0.898049 0.898049 -0.439896 79.5795 49.8885)" fill="white"/>
<ellipse rx="2.32274" ry="1.35493" transform="matrix(-0.999935 -0.0114432 -0.0114435 0.999935 78.7011 52.3319)" fill="white"/>
<ellipse rx="1.52095" ry="0.88722" transform="matrix(-0.108064 0.994144 0.994144 0.108064 80.6846 53.5374)" fill="white"/>
<ellipse cx="78.8406" cy="50.6279" rx="0.610155" ry="0.0977234" transform="rotate(26.0973 78.8406 50.6279)" fill="white"/>
<ellipse cx="73.8131" cy="44.865" rx="1.23998" ry="0.723319" transform="rotate(-113.156 73.8131 44.865)" fill="white"/>
<ellipse cx="74.8129" cy="45.5968" rx="0.811948" ry="0.473636" transform="rotate(-28.7037 74.8129 45.5968)" fill="white"/>
<ellipse rx="0.325727" ry="0.0521689" transform="matrix(0.75008 0.661348 0.661348 -0.75008 73.0012 45.282)" fill="white"/>
<ellipse rx="1.23998" ry="0.723319" transform="matrix(-0.928198 0.372086 0.372086 0.928198 73.0671 46.6665)" fill="white"/>
<ellipse rx="0.811948" ry="0.473636" transform="matrix(0.280604 0.959824 0.959824 -0.280604 74.2916 46.8557)" fill="white"/>
<ellipse cx="72.7878" cy="45.7974" rx="0.325727" ry="0.052169" transform="rotate(3.59728 72.7878 45.7974)" fill="white"/>
<ellipse cx="51.187" cy="45.129" rx="1.23998" ry="0.723319" transform="rotate(-158.156 51.187 45.129)" fill="white"/>
<ellipse cx="52.4115" cy="44.9398" rx="0.811948" ry="0.473636" transform="rotate(-73.7037 52.4115 44.9398)" fill="white"/>
<ellipse rx="0.325727" ry="0.0521689" transform="matrix(0.99803 -0.0627429 -0.0627429 -0.99803 50.9077 45.9981)" fill="white"/>
<ellipse rx="1.23998" ry="0.723319" transform="matrix(-0.393231 0.91944 0.91944 0.393231 51.9334 46.9304)" fill="white"/>
<ellipse rx="0.811948" ry="0.473636" transform="matrix(0.877115 0.480281 0.480281 -0.877115 52.9331 46.1982)" fill="white"/>
<ellipse cx="51.1214" cy="46.5134" rx="0.325727" ry="0.052169" transform="rotate(-41.4027 51.1214 46.5134)" fill="white"/>
<ellipse cx="39.8652" cy="58.3323" rx="1.23998" ry="0.723319" transform="rotate(156.844 39.8652 58.3323)" fill="white"/>
<ellipse cx="40.5972" cy="57.3328" rx="0.811948" ry="0.473636" transform="rotate(-118.704 40.5972 57.3328)" fill="white"/>
<ellipse rx="0.325727" ry="0.0521689" transform="matrix(0.661348 -0.75008 -0.75008 -0.661348 40.2822 59.1445)" fill="white"/>
<ellipse rx="1.23998" ry="0.723319" transform="matrix(0.372086 0.928198 0.928198 -0.372086 41.6666 59.0788)" fill="white"/>
<ellipse rx="0.811948" ry="0.473636" transform="matrix(0.959824 -0.280604 -0.280604 -0.959824 41.8559 57.8542)" fill="white"/>
<ellipse cx="40.7976" cy="59.3581" rx="0.325727" ry="0.052169" transform="rotate(-86.4028 40.7976 59.3581)" fill="white"/>
<ellipse cx="40.1291" cy="77.1865" rx="1.23998" ry="0.723319" transform="rotate(111.844 40.1291 77.1865)" fill="white"/>
<ellipse cx="39.9397" cy="75.9618" rx="0.811948" ry="0.473636" transform="rotate(-163.704 39.9397 75.9618)" fill="white"/>
<ellipse rx="0.325727" ry="0.0521689" transform="matrix(-0.0627429 -0.99803 -0.99803 0.0627429 40.9981 77.4655)" fill="white"/>
<ellipse rx="1.23998" ry="0.723319" transform="matrix(0.91944 0.393231 0.393231 -0.91944 41.9301 76.4395)" fill="white"/>
<ellipse rx="0.811948" ry="0.473636" transform="matrix(0.480281 -0.877115 -0.877115 -0.480281 41.1981 75.4397)" fill="white"/>
<ellipse cx="41.5131" cy="77.2514" rx="0.325727" ry="0.052169" transform="rotate(-131.403 41.5131 77.2514)" fill="white"/>
<ellipse cx="52.915" cy="89.5991" rx="1.23998" ry="0.723319" transform="rotate(66.8443 52.915 89.5991)" fill="white"/>
<ellipse cx="51.9152" cy="88.8671" rx="0.811948" ry="0.473636" transform="rotate(151.296 51.9152 88.8671)" fill="white"/>
<ellipse rx="0.325727" ry="0.0521689" transform="matrix(-0.75008 -0.661348 -0.661348 0.75008 53.7269 89.1821)" fill="white"/>
<ellipse rx="1.23998" ry="0.723319" transform="matrix(0.928198 -0.372086 -0.372086 -0.928198 53.661 87.7977)" fill="white"/>
<ellipse rx="0.811948" ry="0.473636" transform="matrix(-0.280604 -0.959824 -0.959824 0.280604 52.4365 87.6085)" fill="white"/>
<ellipse cx="53.9403" cy="88.6668" rx="0.325727" ry="0.052169" transform="rotate(-176.403 53.9403 88.6668)" fill="white"/>
<ellipse cx="72.9411" cy="89.6721" rx="1.23998" ry="0.723319" transform="rotate(21.8443 72.9411 89.6721)" fill="white"/>
<ellipse cx="71.7166" cy="89.8613" rx="0.811948" ry="0.473636" transform="rotate(106.296 71.7166 89.8613)" fill="white"/>
<ellipse rx="0.325727" ry="0.0521689" transform="matrix(-0.99803 0.0627429 0.0627429 0.99803 73.2204 88.803)" fill="white"/>
<ellipse rx="1.23998" ry="0.723319" transform="matrix(0.393231 -0.91944 -0.91944 -0.393231 72.1947 87.8704)" fill="white"/>
<ellipse rx="0.811948" ry="0.473636" transform="matrix(-0.877115 -0.480281 -0.480281 0.877115 71.195 88.6026)" fill="white"/>
<ellipse cx="73.0067" cy="88.2874" rx="0.325727" ry="0.052169" transform="rotate(138.597 73.0067 88.2874)" fill="white"/>
<ellipse cx="84.9359" cy="78.0588" rx="1.23998" ry="0.723319" transform="rotate(-23.1557 84.9359 78.0588)" fill="white"/>
<ellipse cx="84.2039" cy="79.0583" rx="0.811948" ry="0.473636" transform="rotate(61.2963 84.2039 79.0583)" fill="white"/>
<ellipse rx="0.325727" ry="0.0521689" transform="matrix(-0.661348 0.75008 0.75008 0.661348 84.5189 77.2466)" fill="white"/>
<ellipse rx="1.23998" ry="0.723319" transform="matrix(-0.372086 -0.928198 -0.928198 0.372086 83.1345 77.3123)" fill="white"/>
<ellipse rx="0.811948" ry="0.473636" transform="matrix(-0.959824 0.280604 0.280604 0.959824 82.9452 78.5369)" fill="white"/>
<ellipse cx="84.0035" cy="77.033" rx="0.325727" ry="0.052169" transform="rotate(93.5972 84.0035 77.033)" fill="white"/>
<ellipse cx="85.4265" cy="56.9412" rx="1.23998" ry="0.723319" transform="rotate(-68.1557 85.4265 56.9412)" fill="white"/>
<ellipse cx="85.6159" cy="58.1658" rx="0.811948" ry="0.473636" transform="rotate(16.2963 85.6159 58.1658)" fill="white"/>
<ellipse rx="0.325727" ry="0.0521689" transform="matrix(0.0627429 0.99803 0.99803 -0.0627429 84.5575 56.6621)" fill="white"/>
<ellipse rx="1.23998" ry="0.723319" transform="matrix(-0.91944 -0.393231 -0.393231 0.91944 83.6255 57.6884)" fill="white"/>
<ellipse rx="0.811948" ry="0.473636" transform="matrix(-0.480281 0.877115 0.877115 0.480281 84.3576 58.6882)" fill="white"/>
<ellipse cx="84.0425" cy="56.8765" rx="0.325727" ry="0.052169" transform="rotate(48.5973 84.0425 56.8765)" fill="white"/>
<circle cx="62.9517" cy="67.1971" r="23.6434" stroke="white"/>
<path d="M35.808 193.552L34.836 196H32.874L37.122 184.786H38.778L42.918 196H40.938L40.02 193.552H35.808ZM37.842 187.468L36.258 192.094H39.516L37.842 187.468ZM45.2746 189.538C45.7666 188.95 46.4926 188.656 47.4526 188.656C49.0846 188.656 49.9006 189.658 49.9006 191.662V196H48.1726V192.238C48.1726 190.738 47.7106 189.988 46.7866 189.988C45.7786 189.988 45.2746 190.792 45.2746 192.4V196H43.5286V188.89H45.2746V189.538ZM53.4929 185.902C53.4929 186.178 53.3909 186.418 53.1869 186.622C52.9829 186.826 52.7429 186.928 52.4669 186.928C52.1909 186.928 51.9509 186.826 51.7469 186.622C51.5429 186.418 51.4409 186.178 51.4409 185.902C51.4409 185.626 51.5429 185.386 51.7469 185.182C51.9509 184.978 52.1909 184.876 52.4669 184.876C52.7429 184.876 52.9829 184.978 53.1869 185.182C53.3909 185.386 53.4929 185.626 53.4929 185.902ZM53.3489 196H51.6029V188.89H53.3489V196ZM56.7707 189.52C57.2147 188.944 57.8987 188.656 58.8227 188.656C59.6267 188.656 60.2627 189.028 60.7307 189.772C61.1867 189.028 61.9247 188.656 62.9447 188.656C64.4447 188.656 65.1947 189.628 65.1947 191.572V196H63.4667V192.256C63.4667 190.744 63.0527 189.988 62.2247 189.988C61.3967 189.988 60.9827 190.828 60.9827 192.508V196H59.2367V192.4C59.2367 190.792 58.8707 189.988 58.1387 189.988C57.2267 189.988 56.7707 190.828 56.7707 192.508V196H55.0247V188.89H56.7707V189.52ZM73.3934 196H71.6834V195.352C71.1794 195.94 70.4294 196.234 69.4334 196.234C68.4374 196.234 67.6394 195.85 67.0394 195.082C66.4514 194.314 66.1574 193.414 66.1574 192.382C66.1574 191.35 66.4574 190.474 67.0574 189.754C67.6694 189.022 68.4494 188.656 69.3974 188.656C70.4054 188.656 71.1674 188.956 71.6834 189.556V188.89H73.3934V196ZM71.8814 192.436C71.8814 191.776 71.6954 191.236 71.3234 190.816C70.9514 190.384 70.4714 190.168 69.8834 190.168C69.3074 190.168 68.8334 190.378 68.4614 190.798C68.1014 191.206 67.9214 191.752 67.9214 192.436C67.9214 193.12 68.1074 193.672 68.4794 194.092C68.8514 194.512 69.3314 194.722 69.9194 194.722C70.5074 194.722 70.9814 194.518 71.3414 194.11C71.7014 193.702 71.8814 193.144 71.8814 192.436ZM76.9948 196H75.2488V190.456H74.4028V189.034H75.2488V186.478H76.9948V189.034H78.3808V190.456H76.9948V196ZM80.9675 185.902C80.9675 186.178 80.8655 186.418 80.6615 186.622C80.4575 186.826 80.2175 186.928 79.9415 186.928C79.6655 186.928 79.4255 186.826 79.2215 186.622C79.0175 186.418 78.9155 186.178 78.9155 185.902C78.9155 185.626 79.0175 185.386 79.2215 185.182C79.4255 184.978 79.6655 184.876 79.9415 184.876C80.2175 184.876 80.4575 184.978 80.6615 185.182C80.8655 185.386 80.9675 185.626 80.9675 185.902ZM80.8235 196H79.0775V188.89H80.8235V196ZM89.4833 192.436C89.4833 193.552 89.1413 194.464 88.4573 195.172C87.7733 195.88 86.8733 196.234 85.7573 196.234C84.6533 196.234 83.7533 195.88 83.0573 195.172C82.3613 194.464 82.0133 193.558 82.0133 192.454C82.0133 191.338 82.3553 190.426 83.0393 189.718C83.7233 189.01 84.6233 188.656 85.7393 188.656C86.8553 188.656 87.7553 189.01 88.4393 189.718C89.1353 190.414 89.4833 191.32 89.4833 192.436ZM83.7773 192.472C83.7773 193.132 83.9633 193.672 84.3353 194.092C84.7073 194.512 85.1873 194.722 85.7753 194.722C86.3633 194.722 86.8313 194.5 87.1793 194.056C87.5393 193.6 87.7193 193.066 87.7193 192.454C87.7193 191.83 87.5393 191.296 87.1793 190.852C86.8193 190.396 86.3453 190.168 85.7573 190.168C85.1813 190.168 84.7073 190.384 84.3353 190.816C83.9633 191.248 83.7773 191.8 83.7773 192.472ZM92.1906 189.538C92.6826 188.95 93.4086 188.656 94.3686 188.656C96.0006 188.656 96.8166 189.658 96.8166 191.662V196H95.0886V192.238C95.0886 190.738 94.6266 189.988 93.7026 189.988C92.6946 189.988 92.1906 190.792 92.1906 192.4V196H90.4446V188.89H92.1906V189.538ZM106.025 189.538C106.529 188.95 107.279 188.656 108.275 188.656C109.211 188.656 109.985 189.028 110.597 189.772C111.221 190.516 111.533 191.392 111.533 192.4C111.533 193.492 111.227 194.404 110.615 195.136C110.003 195.868 109.211 196.234 108.239 196.234C107.195 196.234 106.469 195.934 106.061 195.334L106.025 199.006H104.279V188.89H106.025V189.538ZM109.751 192.436C109.751 191.824 109.577 191.296 109.229 190.852C108.881 190.396 108.401 190.168 107.789 190.168C107.225 190.168 106.757 190.396 106.385 190.852C106.013 191.308 105.827 191.836 105.827 192.436C105.827 193.024 106.025 193.552 106.421 194.02C106.817 194.488 107.273 194.722 107.789 194.722C108.401 194.722 108.881 194.506 109.229 194.074C109.577 193.642 109.751 193.096 109.751 192.436ZM114.216 189.628C114.66 188.98 115.356 188.656 116.304 188.656C116.604 188.656 116.88 188.716 117.132 188.836L116.916 190.42C116.652 190.252 116.364 190.168 116.052 190.168C114.828 190.168 114.216 191.044 114.216 192.796V196H112.47V188.89H114.216V189.628ZM124.763 192.436C124.763 193.552 124.421 194.464 123.737 195.172C123.053 195.88 122.153 196.234 121.037 196.234C119.933 196.234 119.033 195.88 118.337 195.172C117.641 194.464 117.293 193.558 117.293 192.454C117.293 191.338 117.635 190.426 118.319 189.718C119.003 189.01 119.903 188.656 121.019 188.656C122.135 188.656 123.035 189.01 123.719 189.718C124.415 190.414 124.763 191.32 124.763 192.436ZM119.057 192.472C119.057 193.132 119.243 193.672 119.615 194.092C119.987 194.512 120.467 194.722 121.055 194.722C121.643 194.722 122.111 194.5 122.459 194.056C122.819 193.6 122.999 193.066 122.999 192.454C122.999 191.83 122.819 191.296 122.459 190.852C122.099 190.396 121.625 190.168 121.037 190.168C120.461 190.168 119.987 190.384 119.615 190.816C119.243 191.248 119.057 191.8 119.057 192.472ZM127.722 199.798H125.976V188.89H127.722V199.798ZM127.866 185.902C127.866 186.178 127.764 186.418 127.56 186.622C127.356 186.826 127.116 186.928 126.84 186.928C126.564 186.928 126.324 186.826 126.12 186.622C125.916 186.418 125.814 186.178 125.814 185.902C125.814 185.626 125.916 185.386 126.12 185.182C126.324 184.978 126.564 184.876 126.84 184.876C127.116 184.876 127.356 184.978 127.56 185.182C127.764 185.386 127.866 185.626 127.866 185.902ZM130.748 192.616C130.748 193.3 130.898 193.864 131.198 194.308C131.498 194.752 131.912 194.974 132.44 194.974C133.268 194.974 133.796 194.566 134.024 193.75L135.68 194.02C135.14 195.496 134.06 196.234 132.44 196.234C131.36 196.234 130.496 195.892 129.848 195.208C129.212 194.512 128.894 193.612 128.894 192.508C128.894 191.344 129.2 190.414 129.812 189.718C130.436 189.01 131.276 188.656 132.332 188.656C133.4 188.656 134.228 188.992 134.816 189.664C135.416 190.324 135.716 191.23 135.716 192.382V192.616H130.748ZM134.096 191.644C134.096 191.152 133.94 190.72 133.628 190.348C133.328 189.976 132.932 189.79 132.44 189.79C131.96 189.79 131.564 189.988 131.252 190.384C130.952 190.768 130.802 191.188 130.802 191.644H134.096ZM141.5 190.744C141.056 190.3 140.558 190.078 140.006 190.078C139.358 190.078 138.848 190.312 138.476 190.78C138.104 191.248 137.918 191.824 137.918 192.508C137.918 193.18 138.128 193.732 138.548 194.164C138.968 194.596 139.478 194.812 140.078 194.812C140.594 194.812 141.068 194.584 141.5 194.128V195.802C140.996 196.09 140.414 196.234 139.754 196.234C138.722 196.234 137.864 195.868 137.18 195.136C136.496 194.404 136.154 193.51 136.154 192.454C136.154 191.398 136.502 190.504 137.198 189.772C137.906 189.028 138.788 188.656 139.844 188.656C140.468 188.656 141.02 188.806 141.5 189.106V190.744ZM144.899 196H143.153V190.456H142.307V189.034H143.153V186.478H144.899V189.034H146.285V190.456H144.899V196ZM157.583 190.744C157.139 190.3 156.641 190.078 156.089 190.078C155.441 190.078 154.931 190.312 154.559 190.78C154.187 191.248 154.001 191.824 154.001 192.508C154.001 193.18 154.211 193.732 154.631 194.164C155.051 194.596 155.561 194.812 156.161 194.812C156.677 194.812 157.151 194.584 157.583 194.128V195.802C157.079 196.09 156.497 196.234 155.837 196.234C154.805 196.234 153.947 195.868 153.263 195.136C152.579 194.404 152.237 193.51 152.237 192.454C152.237 191.398 152.585 190.504 153.281 189.772C153.989 189.028 154.871 188.656 155.927 188.656C156.551 188.656 157.103 188.806 157.583 189.106V190.744ZM165.825 192.436C165.825 193.552 165.483 194.464 164.799 195.172C164.115 195.88 163.215 196.234 162.099 196.234C160.995 196.234 160.095 195.88 159.399 195.172C158.703 194.464 158.355 193.558 158.355 192.454C158.355 191.338 158.697 190.426 159.381 189.718C160.065 189.01 160.965 188.656 162.081 188.656C163.197 188.656 164.097 189.01 164.781 189.718C165.477 190.414 165.825 191.32 165.825 192.436ZM160.119 192.472C160.119 193.132 160.305 193.672 160.677 194.092C161.049 194.512 161.529 194.722 162.117 194.722C162.705 194.722 163.173 194.5 163.521 194.056C163.881 193.6 164.061 193.066 164.061 192.454C164.061 191.83 163.881 191.296 163.521 190.852C163.161 190.396 162.687 190.168 162.099 190.168C161.523 190.168 161.049 190.384 160.677 190.816C160.305 191.248 160.119 191.8 160.119 192.472ZM168.532 189.52C168.976 188.944 169.66 188.656 170.584 188.656C171.388 188.656 172.024 189.028 172.492 189.772C172.948 189.028 173.686 188.656 174.706 188.656C176.206 188.656 176.956 189.628 176.956 191.572V196H175.228V192.256C175.228 190.744 174.814 189.988 173.986 189.988C173.158 189.988 172.744 190.828 172.744 192.508V196H170.998V192.4C170.998 190.792 170.632 189.988 169.9 189.988C168.988 189.988 168.532 190.828 168.532 192.508V196H166.786V188.89H168.532V189.52ZM178.423 183.706H180.169V189.538C180.673 188.95 181.423 188.656 182.419 188.656C183.355 188.656 184.129 189.028 184.741 189.772C185.365 190.516 185.677 191.392 185.677 192.4C185.677 193.492 185.371 194.404 184.759 195.136C184.147 195.868 183.355 196.234 182.383 196.234C181.339 196.234 180.613 195.934 180.205 195.334L180.169 196H178.423V183.706ZM183.895 192.436C183.895 191.836 183.709 191.308 183.337 190.852C182.965 190.396 182.491 190.168 181.915 190.168C181.339 190.168 180.871 190.396 180.511 190.852C180.151 191.296 179.971 191.83 179.971 192.454C179.971 193.066 180.157 193.6 180.529 194.056C180.913 194.5 181.381 194.722 181.933 194.722C182.533 194.722 183.007 194.506 183.355 194.074C183.715 193.63 183.895 193.084 183.895 192.436ZM188.757 185.902C188.757 186.178 188.655 186.418 188.451 186.622C188.247 186.826 188.007 186.928 187.731 186.928C187.455 186.928 187.215 186.826 187.011 186.622C186.807 186.418 186.705 186.178 186.705 185.902C186.705 185.626 186.807 185.386 187.011 185.182C187.215 184.978 187.455 184.876 187.731 184.876C188.007 184.876 188.247 184.978 188.451 185.182C188.655 185.386 188.757 185.626 188.757 185.902ZM188.613 196H186.867V188.89H188.613V196ZM192.034 189.538C192.526 188.95 193.252 188.656 194.212 188.656C195.844 188.656 196.66 189.658 196.66 191.662V196H194.932V192.238C194.932 190.738 194.47 189.988 193.546 189.988C192.538 189.988 192.034 190.792 192.034 192.4V196H190.288V188.89H192.034V189.538ZM199.461 192.616C199.461 193.3 199.611 193.864 199.911 194.308C200.211 194.752 200.625 194.974 201.153 194.974C201.981 194.974 202.509 194.566 202.737 193.75L204.393 194.02C203.853 195.496 202.773 196.234 201.153 196.234C200.073 196.234 199.209 195.892 198.561 195.208C197.925 194.512 197.607 193.612 197.607 192.508C197.607 191.344 197.913 190.414 198.525 189.718C199.149 189.01 199.989 188.656 201.045 188.656C202.113 188.656 202.941 188.992 203.529 189.664C204.129 190.324 204.429 191.23 204.429 192.382V192.616H199.461ZM202.809 191.644C202.809 191.152 202.653 190.72 202.341 190.348C202.041 189.976 201.645 189.79 201.153 189.79C200.673 189.79 200.277 189.988 199.965 190.384C199.665 190.768 199.515 191.188 199.515 191.644H202.809ZM210.374 195.334C209.906 195.934 209.168 196.234 208.16 196.234C207.152 196.234 206.348 195.85 205.748 195.082C205.16 194.314 204.866 193.414 204.866 192.382C204.866 191.35 205.166 190.474 205.766 189.754C206.378 189.022 207.158 188.656 208.106 188.656C209.114 188.656 209.858 188.95 210.338 189.538L210.374 183.706H212.12V196H210.374V195.334ZM210.572 192.436C210.572 191.812 210.38 191.278 209.996 190.834C209.612 190.39 209.15 190.168 208.61 190.168C208.07 190.168 207.602 190.39 207.206 190.834C206.822 191.266 206.63 191.806 206.63 192.454C206.63 193.09 206.816 193.63 207.188 194.074C207.572 194.506 208.052 194.722 208.628 194.722C209.204 194.722 209.672 194.512 210.032 194.092C210.392 193.66 210.572 193.108 210.572 192.436ZM35.466 201.706V207.484C35.922 206.932 36.648 206.656 37.644 206.656C38.388 206.656 38.982 206.944 39.426 207.52C39.87 208.096 40.092 208.81 40.092 209.662V214H38.364V210.238C38.364 208.738 37.902 207.988 36.978 207.988C35.97 207.988 35.466 208.816 35.466 210.472V214H33.72V201.706H35.466ZM48.2743 214H46.5643V213.352C46.0603 213.94 45.3103 214.234 44.3143 214.234C43.3183 214.234 42.5203 213.85 41.9203 213.082C41.3323 212.314 41.0383 211.414 41.0383 210.382C41.0383 209.35 41.3383 208.474 41.9383 207.754C42.5503 207.022 43.3303 206.656 44.2783 206.656C45.2863 206.656 46.0483 206.956 46.5643 207.556V206.89H48.2743V214ZM46.7623 210.436C46.7623 209.776 46.5763 209.236 46.2043 208.816C45.8323 208.384 45.3523 208.168 44.7643 208.168C44.1883 208.168 43.7143 208.378 43.3423 208.798C42.9823 209.206 42.8023 209.752 42.8023 210.436C42.8023 211.12 42.9883 211.672 43.3603 212.092C43.7323 212.512 44.2123 212.722 44.8003 212.722C45.3883 212.722 45.8623 212.518 46.2223 212.11C46.5823 211.702 46.7623 211.144 46.7623 210.436ZM51.4797 207.538C51.9717 206.95 52.6977 206.656 53.6577 206.656C55.2897 206.656 56.1057 207.658 56.1057 209.662V214H54.3777V210.238C54.3777 208.738 53.9157 207.988 52.9917 207.988C51.9837 207.988 51.4797 208.792 51.4797 210.4V214H49.7337V206.89H51.4797V207.538ZM62.5599 213.334C62.0919 213.934 61.3539 214.234 60.3459 214.234C59.3379 214.234 58.5339 213.85 57.9339 213.082C57.3459 212.314 57.0519 211.414 57.0519 210.382C57.0519 209.35 57.3519 208.474 57.9519 207.754C58.5639 207.022 59.3439 206.656 60.2919 206.656C61.2999 206.656 62.0439 206.95 62.5239 207.538L62.5599 201.706H64.3059V214H62.5599V213.334ZM62.7579 210.436C62.7579 209.812 62.5659 209.278 62.1819 208.834C61.7979 208.39 61.3359 208.168 60.7959 208.168C60.2559 208.168 59.7879 208.39 59.3919 208.834C59.0079 209.266 58.8159 209.806 58.8159 210.454C58.8159 211.09 59.0019 211.63 59.3739 212.074C59.7579 212.506 60.2379 212.722 60.8139 212.722C61.3899 212.722 61.8579 212.512 62.2179 212.092C62.5779 211.66 62.7579 211.108 62.7579 210.436ZM76.7631 213.334C76.2951 213.934 75.5571 214.234 74.5491 214.234C73.5411 214.234 72.7371 213.85 72.1371 213.082C71.5491 212.314 71.2551 211.414 71.2551 210.382C71.2551 209.35 71.5551 208.474 72.1551 207.754C72.7671 207.022 73.5471 206.656 74.4951 206.656C75.5031 206.656 76.2471 206.95 76.7271 207.538L76.7631 201.706H78.5091V214H76.7631V213.334ZM76.9611 210.436C76.9611 209.812 76.7691 209.278 76.3851 208.834C76.0011 208.39 75.5391 208.168 74.9991 208.168C74.4591 208.168 73.9911 208.39 73.5951 208.834C73.2111 209.266 73.0191 209.806 73.0191 210.454C73.0191 211.09 73.2051 211.63 73.5771 212.074C73.9611 212.506 74.4411 212.722 75.0171 212.722C75.5931 212.722 76.0611 212.512 76.4211 212.092C76.7811 211.66 76.9611 211.108 76.9611 210.436ZM81.6965 207.628C82.1405 206.98 82.8365 206.656 83.7845 206.656C84.0845 206.656 84.3605 206.716 84.6125 206.836L84.3965 208.42C84.1325 208.252 83.8445 208.168 83.5325 208.168C82.3085 208.168 81.6965 209.044 81.6965 210.796V214H79.9505V206.89H81.6965V207.628ZM91.9911 214H90.2811V213.352C89.7771 213.94 89.0271 214.234 88.0311 214.234C87.0351 214.234 86.2371 213.85 85.6371 213.082C85.0491 212.314 84.7551 211.414 84.7551 210.382C84.7551 209.35 85.0551 208.474 85.6551 207.754C86.2671 207.022 87.0471 206.656 87.9951 206.656C89.0031 206.656 89.7651 206.956 90.2811 207.556V206.89H91.9911V214ZM90.4791 210.436C90.4791 209.776 90.2931 209.236 89.9211 208.816C89.5491 208.384 89.0691 208.168 88.4811 208.168C87.9051 208.168 87.4311 208.378 87.0591 208.798C86.6991 209.206 86.5191 209.752 86.5191 210.436C86.5191 211.12 86.7051 211.672 87.0771 212.092C87.4491 212.512 87.9291 212.722 88.5171 212.722C89.1051 212.722 89.5791 212.518 89.9391 212.11C90.2991 211.702 90.4791 211.144 90.4791 210.436ZM96.1505 211.534L98.0405 206.656H98.6705L100.65 211.516L102.414 206.89H104.34L101.028 214.144H100.146L98.5085 209.59L96.6365 214.144H95.7365L92.4785 206.89H94.4045L96.1505 211.534ZM106.93 203.902C106.93 204.178 106.828 204.418 106.624 204.622C106.42 204.826 106.18 204.928 105.904 204.928C105.628 204.928 105.388 204.826 105.184 204.622C104.98 204.418 104.878 204.178 104.878 203.902C104.878 203.626 104.98 203.386 105.184 203.182C105.388 202.978 105.628 202.876 105.904 202.876C106.18 202.876 106.42 202.978 106.624 203.182C106.828 203.386 106.93 203.626 106.93 203.902ZM106.786 214H105.04V206.89H106.786V214ZM110.208 207.538C110.7 206.95 111.426 206.656 112.386 206.656C114.018 206.656 114.834 207.658 114.834 209.662V214H113.106V210.238C113.106 208.738 112.644 207.988 111.72 207.988C110.712 207.988 110.208 208.792 110.208 210.4V214H108.462V206.89H110.208V207.538ZM123.052 213.388C123.052 215.824 121.918 217.042 119.65 217.042C118.642 217.042 117.79 216.766 117.094 216.214C116.398 215.674 116.05 214.966 116.05 214.09H117.904C117.904 214.438 118.078 214.78 118.426 215.116C118.774 215.452 119.164 215.62 119.596 215.62C120.736 215.62 121.306 214.936 121.306 213.568V213.118C120.814 213.742 120.064 214.054 119.056 214.054C118.06 214.054 117.274 213.706 116.698 213.01C116.134 212.314 115.852 211.462 115.852 210.454C115.852 209.362 116.158 208.45 116.77 207.718C117.382 206.986 118.174 206.62 119.146 206.62C120.13 206.62 120.85 206.926 121.306 207.538V206.854H123.052V213.388ZM121.558 210.292C121.558 209.644 121.378 209.122 121.018 208.726C120.658 208.33 120.184 208.132 119.596 208.132C119.008 208.132 118.528 208.348 118.156 208.78C117.796 209.212 117.616 209.758 117.616 210.418C117.616 211.834 118.276 212.542 119.596 212.542C120.196 212.542 120.67 212.332 121.018 211.912C121.378 211.48 121.558 210.94 121.558 210.292ZM137.167 214H135.457V213.352C134.953 213.94 134.203 214.234 133.207 214.234C132.211 214.234 131.413 213.85 130.813 213.082C130.225 212.314 129.931 211.414 129.931 210.382C129.931 209.35 130.231 208.474 130.831 207.754C131.443 207.022 132.223 206.656 133.171 206.656C134.179 206.656 134.941 206.956 135.457 207.556V206.89H137.167V214ZM135.655 210.436C135.655 209.776 135.469 209.236 135.097 208.816C134.725 208.384 134.245 208.168 133.657 208.168C133.081 208.168 132.607 208.378 132.235 208.798C131.875 209.206 131.695 209.752 131.695 210.436C131.695 211.12 131.881 211.672 132.253 212.092C132.625 212.512 133.105 212.722 133.693 212.722C134.281 212.722 134.755 212.518 135.115 212.11C135.475 211.702 135.655 211.144 135.655 210.436ZM140.372 207.538C140.864 206.95 141.59 206.656 142.55 206.656C144.182 206.656 144.998 207.658 144.998 209.662V214H143.27V210.238C143.27 208.738 142.808 207.988 141.884 207.988C140.876 207.988 140.372 208.792 140.372 210.4V214H138.626V206.89H140.372V207.538ZM151.453 213.334C150.985 213.934 150.247 214.234 149.239 214.234C148.231 214.234 147.427 213.85 146.827 213.082C146.239 212.314 145.945 211.414 145.945 210.382C145.945 209.35 146.245 208.474 146.845 207.754C147.457 207.022 148.237 206.656 149.185 206.656C150.193 206.656 150.937 206.95 151.417 207.538L151.453 201.706H153.199V214H151.453V213.334ZM151.651 210.436C151.651 209.812 151.459 209.278 151.075 208.834C150.691 208.39 150.229 208.168 149.689 208.168C149.149 208.168 148.681 208.39 148.285 208.834C147.901 209.266 147.709 209.806 147.709 210.454C147.709 211.09 147.895 211.63 148.267 212.074C148.651 212.506 149.131 212.722 149.707 212.722C150.283 212.722 150.751 212.512 151.111 212.092C151.471 211.66 151.651 211.108 151.651 210.436ZM165.656 213.334C165.188 213.934 164.45 214.234 163.442 214.234C162.434 214.234 161.63 213.85 161.03 213.082C160.442 212.314 160.148 211.414 160.148 210.382C160.148 209.35 160.448 208.474 161.048 207.754C161.66 207.022 162.44 206.656 163.388 206.656C164.396 206.656 165.14 206.95 165.62 207.538L165.656 201.706H167.402V214H165.656V213.334ZM165.854 210.436C165.854 209.812 165.662 209.278 165.278 208.834C164.894 208.39 164.432 208.168 163.892 208.168C163.352 208.168 162.884 208.39 162.488 208.834C162.104 209.266 161.912 209.806 161.912 210.454C161.912 211.09 162.098 211.63 162.47 212.074C162.854 212.506 163.334 212.722 163.91 212.722C164.486 212.722 164.954 212.512 165.314 212.092C165.674 211.66 165.854 211.108 165.854 210.436ZM170.985 203.902C170.985 204.178 170.883 204.418 170.679 204.622C170.475 204.826 170.235 204.928 169.959 204.928C169.683 204.928 169.443 204.826 169.239 204.622C169.035 204.418 168.933 204.178 168.933 203.902C168.933 203.626 169.035 203.386 169.239 203.182C169.443 202.978 169.683 202.876 169.959 202.876C170.235 202.876 170.475 202.978 170.679 203.182C170.883 203.386 170.985 203.626 170.985 203.902ZM170.841 214H169.095V206.89H170.841V214ZM179.285 213.388C179.285 215.824 178.151 217.042 175.883 217.042C174.875 217.042 174.023 216.766 173.327 216.214C172.631 215.674 172.283 214.966 172.283 214.09H174.137C174.137 214.438 174.311 214.78 174.659 215.116C175.007 215.452 175.397 215.62 175.829 215.62C176.969 215.62 177.539 214.936 177.539 213.568V213.118C177.047 213.742 176.297 214.054 175.289 214.054C174.293 214.054 173.507 213.706 172.931 213.01C172.367 212.314 172.085 211.462 172.085 210.454C172.085 209.362 172.391 208.45 173.003 207.718C173.615 206.986 174.407 206.62 175.379 206.62C176.363 206.62 177.083 206.926 177.539 207.538V206.854H179.285V213.388ZM177.791 210.292C177.791 209.644 177.611 209.122 177.251 208.726C176.891 208.33 176.417 208.132 175.829 208.132C175.241 208.132 174.761 208.348 174.389 208.78C174.029 209.212 173.849 209.758 173.849 210.418C173.849 211.834 174.509 212.542 175.829 212.542C176.429 212.542 176.903 212.332 177.251 211.912C177.611 211.48 177.791 210.94 177.791 210.292ZM182.798 203.902C182.798 204.178 182.696 204.418 182.492 204.622C182.288 204.826 182.048 204.928 181.772 204.928C181.496 204.928 181.256 204.826 181.052 204.622C180.848 204.418 180.746 204.178 180.746 203.902C180.746 203.626 180.848 203.386 181.052 203.182C181.256 202.978 181.496 202.876 181.772 202.876C182.048 202.876 182.288 202.978 182.492 203.182C182.696 203.386 182.798 203.626 182.798 203.902ZM182.654 214H180.908V206.89H182.654V214ZM186.471 214H184.725V208.456H183.879V207.034H184.725V204.478H186.471V207.034H187.857V208.456H186.471V214ZM195.034 214H193.324V213.352C192.82 213.94 192.07 214.234 191.074 214.234C190.078 214.234 189.28 213.85 188.68 213.082C188.092 212.314 187.798 211.414 187.798 210.382C187.798 209.35 188.098 208.474 188.698 207.754C189.31 207.022 190.09 206.656 191.038 206.656C192.046 206.656 192.808 206.956 193.324 207.556V206.89H195.034V214ZM193.522 210.436C193.522 209.776 193.336 209.236 192.964 208.816C192.592 208.384 192.112 208.168 191.524 208.168C190.948 208.168 190.474 208.378 190.102 208.798C189.742 209.206 189.562 209.752 189.562 210.436C189.562 211.12 189.748 211.672 190.12 212.092C190.492 212.512 190.972 212.722 191.56 212.722C192.148 212.722 192.622 212.518 192.982 212.11C193.342 211.702 193.522 211.144 193.522 210.436ZM198.383 214H196.637V201.706H198.383V214ZM35.862 232H34.116V226.456H33.27V225.034H34.116V222.478H35.862V225.034H37.248V226.456H35.862V232ZM39.0427 228.616C39.0427 229.3 39.1927 229.864 39.4927 230.308C39.7927 230.752 40.2067 230.974 40.7347 230.974C41.5627 230.974 42.0907 230.566 42.3187 229.75L43.9747 230.02C43.4347 231.496 42.3547 232.234 40.7347 232.234C39.6547 232.234 38.7907 231.892 38.1427 231.208C37.5067 230.512 37.1887 229.612 37.1887 228.508C37.1887 227.344 37.4947 226.414 38.1067 225.718C38.7307 225.01 39.5707 224.656 40.6267 224.656C41.6947 224.656 42.5227 224.992 43.1107 225.664C43.7107 226.324 44.0107 227.23 44.0107 228.382V228.616H39.0427ZM42.3907 227.644C42.3907 227.152 42.2347 226.72 41.9227 226.348C41.6227 225.976 41.2267 225.79 40.7347 225.79C40.2547 225.79 39.8587 225.988 39.5467 226.384C39.2467 226.768 39.0967 227.188 39.0967 227.644H42.3907ZM49.7944 226.744C49.3504 226.3 48.8524 226.078 48.3004 226.078C47.6524 226.078 47.1424 226.312 46.7704 226.78C46.3984 227.248 46.2124 227.824 46.2124 228.508C46.2124 229.18 46.4224 229.732 46.8424 230.164C47.2624 230.596 47.7724 230.812 48.3724 230.812C48.8884 230.812 49.3624 230.584 49.7944 230.128V231.802C49.2904 232.09 48.7084 232.234 48.0484 232.234C47.0164 232.234 46.1584 231.868 45.4744 231.136C44.7904 230.404 44.4484 229.51 44.4484 228.454C44.4484 227.398 44.7964 226.504 45.4924 225.772C46.2004 225.028 47.0824 224.656 48.1384 224.656C48.7624 224.656 49.3144 224.806 49.7944 225.106V226.744ZM52.798 219.706V225.484C53.254 224.932 53.98 224.656 54.976 224.656C55.72 224.656 56.314 224.944 56.758 225.52C57.202 226.096 57.424 226.81 57.424 227.662V232H55.696V228.238C55.696 226.738 55.234 225.988 54.31 225.988C53.302 225.988 52.798 226.816 52.798 228.472V232H51.052V219.706H52.798ZM60.6203 225.538C61.1123 224.95 61.8383 224.656 62.7983 224.656C64.4303 224.656 65.2463 225.658 65.2463 227.662V232H63.5183V228.238C63.5183 226.738 63.0563 225.988 62.1323 225.988C61.1243 225.988 60.6203 226.792 60.6203 228.4V232H58.8743V224.89H60.6203V225.538ZM73.6806 228.436C73.6806 229.552 73.3386 230.464 72.6546 231.172C71.9706 231.88 71.0706 232.234 69.9546 232.234C68.8506 232.234 67.9506 231.88 67.2546 231.172C66.5586 230.464 66.2106 229.558 66.2106 228.454C66.2106 227.338 66.5526 226.426 67.2366 225.718C67.9206 225.01 68.8206 224.656 69.9366 224.656C71.0526 224.656 71.9526 225.01 72.6366 225.718C73.3326 226.414 73.6806 227.32 73.6806 228.436ZM67.9746 228.472C67.9746 229.132 68.1606 229.672 68.5326 230.092C68.9046 230.512 69.3846 230.722 69.9726 230.722C70.5606 230.722 71.0286 230.5 71.3766 230.056C71.7366 229.6 71.9166 229.066 71.9166 228.454C71.9166 227.83 71.7366 227.296 71.3766 226.852C71.0166 226.396 70.5426 226.168 69.9546 226.168C69.3786 226.168 68.9046 226.384 68.5326 226.816C68.1606 227.248 67.9746 227.8 67.9746 228.472ZM76.5319 232H74.7859V219.706H76.5319V232ZM85.0888 228.436C85.0888 229.552 84.7468 230.464 84.0628 231.172C83.3788 231.88 82.4788 232.234 81.3628 232.234C80.2588 232.234 79.3588 231.88 78.6628 231.172C77.9668 230.464 77.6188 229.558 77.6188 228.454C77.6188 227.338 77.9608 226.426 78.6448 225.718C79.3288 225.01 80.2288 224.656 81.3448 224.656C82.4608 224.656 83.3608 225.01 84.0448 225.718C84.7408 226.414 85.0888 227.32 85.0888 228.436ZM79.3828 228.472C79.3828 229.132 79.5688 229.672 79.9408 230.092C80.3128 230.512 80.7928 230.722 81.3808 230.722C81.9688 230.722 82.4368 230.5 82.7848 230.056C83.1448 229.6 83.3248 229.066 83.3248 228.454C83.3248 227.83 83.1448 227.296 82.7848 226.852C82.4248 226.396 81.9508 226.168 81.3628 226.168C80.7868 226.168 80.3128 226.384 79.9408 226.816C79.5688 227.248 79.3828 227.8 79.3828 228.472ZM92.8181 231.388C92.8181 233.824 91.6841 235.042 89.4161 235.042C88.4081 235.042 87.5561 234.766 86.8601 234.214C86.1641 233.674 85.8161 232.966 85.8161 232.09H87.6701C87.6701 232.438 87.8441 232.78 88.1921 233.116C88.5401 233.452 88.9301 233.62 89.3621 233.62C90.5021 233.62 91.0721 232.936 91.0721 231.568V231.118C90.5801 231.742 89.8301 232.054 88.8221 232.054C87.8261 232.054 87.0401 231.706 86.4641 231.01C85.9001 230.314 85.6181 229.462 85.6181 228.454C85.6181 227.362 85.9241 226.45 86.5361 225.718C87.1481 224.986 87.9401 224.62 88.9121 224.62C89.8961 224.62 90.6161 224.926 91.0721 225.538V224.854H92.8181V231.388ZM91.3241 228.292C91.3241 227.644 91.1441 227.122 90.7841 226.726C90.4241 226.33 89.9501 226.132 89.3621 226.132C88.7741 226.132 88.2941 226.348 87.9221 226.78C87.5621 227.212 87.3821 227.758 87.3821 228.418C87.3821 229.834 88.0421 230.542 89.3621 230.542C89.9621 230.542 90.4361 230.332 90.7841 229.912C91.1441 229.48 91.3241 228.94 91.3241 228.292ZM93.3607 224.89H95.3768L97.2308 229.156L99.1748 224.89H101.155L96.1147 234.97H94.1708L96.3668 230.902L93.3607 224.89ZM104.394 230.974C104.394 231.334 104.268 231.646 104.016 231.91C103.776 232.162 103.476 232.288 103.116 232.288C102.756 232.288 102.45 232.162 102.198 231.91C101.946 231.658 101.82 231.358 101.82 231.01C101.82 230.65 101.946 230.344 102.198 230.092C102.45 229.84 102.75 229.714 103.098 229.714C103.458 229.714 103.764 229.834 104.016 230.074C104.268 230.314 104.394 230.614 104.394 230.974Z" fill="white"/>
</svg>
