<svg width="264" height="180" viewBox="0 0 264 180" fill="none" xmlns="http://www.w3.org/2000/svg">
<rect width="264" height="180" transform="matrix(1 0 0 -1 0 180)" fill="black"/>
<path d="M140.837 95.912V98H130.469L137.093 85.52H131.261V83.432H141.005L134.357 95.912H140.837ZM144.986 98H142.514V83.432H144.986V98ZM163.732 89.36V83.432H166.18V98H163.732V91.304H157.708V98H155.236V83.432H157.708V89.36H163.732ZM168.195 83.432H170.667V91.592C170.667 94.728 171.651 96.296 173.619 96.296C175.587 96.296 176.571 94.728 176.571 91.592V83.432H179.019V92.144C179.019 96.304 177.211 98.384 173.595 98.384C169.995 98.384 168.195 96.304 168.195 92.144V83.432ZM183.729 94.736L182.433 98H179.817L185.481 83.048H187.689L193.209 98H190.569L189.345 94.736H183.729ZM186.441 86.624L184.329 92.792H188.673L186.441 86.624Z" fill="white"/>
<rect x="70" y="66.0696" width="10" height="20" fill="white"/>
<rect x="70" y="90" width="10" height="23" fill="white"/>
<rect x="83.9912" y="66.0348" width="10" height="13" fill="white"/>
<rect x="84.0332" y="83.0347" width="10" height="13" fill="white"/>
<rect x="84.0762" y="100.035" width="10" height="13" fill="white"/>
<rect x="98.0049" y="66" width="10" height="24" fill="white"/>
<rect x="98" y="94" width="10" height="9" fill="white"/>
<rect x="98" y="107" width="10" height="6" fill="white"/>
</svg>
