<svg width="264" height="180" viewBox="0 0 264 180" fill="none" xmlns="http://www.w3.org/2000/svg">
<rect width="264" height="180" transform="matrix(1 0 0 -1 0 180)" fill="black"/>
<path d="M149.653 98H147.421V85.52H144.181V83.432H152.893V85.52H149.653V98ZM156.643 94.736L155.347 98H152.731L158.395 83.048H160.603L166.123 98H163.483L162.259 94.736H156.643ZM159.355 86.624L157.243 92.792H161.587L159.355 86.624ZM169.482 98H167.01V83.432H170.874C174.25 83.432 175.938 84.936 175.938 87.944C175.938 91.016 174.386 92.552 171.282 92.552H169.482V98ZM169.482 90.584H170.706C172.514 90.584 173.418 89.704 173.418 87.944C173.418 86.248 172.49 85.4 170.634 85.4H169.482V90.584ZM181.645 98H179.413V85.52H176.173V83.432H184.885V85.52H181.645V98ZM185.228 90.752C185.228 88.624 185.908 86.808 187.268 85.304C188.644 83.8 190.372 83.048 192.452 83.048C194.532 83.048 196.252 83.8 197.612 85.304C198.972 86.808 199.652 88.616 199.652 90.728C199.652 92.84 198.972 94.648 197.612 96.152C196.268 97.64 194.548 98.384 192.452 98.384C190.356 98.384 188.628 97.64 187.268 96.152C185.908 94.664 185.228 92.864 185.228 90.752ZM187.796 90.584C187.796 92.008 188.244 93.264 189.14 94.352C190.036 95.424 191.14 95.96 192.452 95.96C193.86 95.96 194.988 95.448 195.836 94.424C196.684 93.384 197.108 92.104 197.108 90.584C197.108 89.144 196.684 87.936 195.836 86.96C194.988 85.968 193.852 85.472 192.428 85.472C191.02 85.472 189.892 85.968 189.044 86.96C188.212 87.952 187.796 89.16 187.796 90.584Z" fill="white"/>
<circle cx="77.9089" cy="81.7273" r="11.7273" fill="white"/>
<circle cx="82.2728" cy="103.545" r="7.36364" fill="white"/>
<circle cx="98.6366" cy="87.7273" r="7.36364" fill="white"/>
<circle cx="88.5455" cy="93.4546" r="1.63636" fill="white"/>
<circle cx="67.8182" cy="97.8182" r="3.81818" fill="white"/>
<circle cx="94.8182" cy="74.8182" r="3.81818" fill="white"/>
<circle cx="96.182" cy="101.636" r="3.81818" fill="white"/>
</svg>
