<svg width="264" height="180" viewBox="0 0 264 180" fill="none" xmlns="http://www.w3.org/2000/svg">
<rect width="264" height="180" transform="matrix(1 0 0 -1 0 180)" fill="black"/>
<path d="M76.032 47.432H80.112C82.192 47.432 83.88 48.12 85.176 49.496C86.488 50.872 87.144 52.608 87.144 54.704C87.144 56.8 86.48 58.544 85.152 59.936C83.84 61.312 82.152 62 80.088 62H76.032V47.432ZM78.504 59.768H79.344C82.832 59.768 84.576 58.088 84.576 54.728C84.576 51.352 82.832 49.664 79.344 49.664H78.504V59.768ZM91.1648 62H88.6928V47.432H91.1648V62ZM106.287 54.248V54.608C106.287 56.928 105.695 58.808 104.511 60.248C103.327 61.672 101.703 62.384 99.6392 62.384C97.6392 62.384 95.9832 61.648 94.6712 60.176C93.3592 58.704 92.7032 56.904 92.7032 54.776C92.7032 52.568 93.3672 50.728 94.6952 49.256C96.0392 47.784 97.7512 47.048 99.8312 47.048C102.519 47.048 104.439 48.208 105.591 50.528L103.383 51.704C102.647 50.024 101.439 49.184 99.7592 49.184C98.4632 49.184 97.3912 49.744 96.5432 50.864C95.6952 51.968 95.2712 53.28 95.2712 54.8C95.2712 56.32 95.6872 57.608 96.5192 58.664C97.3512 59.72 98.4312 60.248 99.7592 60.248C100.895 60.248 101.799 59.848 102.471 59.048C103.143 58.248 103.479 57.296 103.479 56.192H99.9992V54.248H106.287ZM110.337 62H107.865V47.432H110.337V62ZM117.011 62H114.779V49.52H111.539V47.432H120.251V49.52H117.011V62ZM124.002 58.736L122.706 62H120.09L125.754 47.048H127.962L133.482 62H130.842L129.618 58.736H124.002ZM126.714 50.624L124.602 56.792H128.946L126.714 50.624ZM136.84 59.912H141.232V62H134.368V47.432H136.84V59.912ZM161.157 52.184L157.509 62.192H156.909L153.477 52.136L151.821 62H149.349L151.797 47.048H153.621L157.413 57.056L161.037 47.048H162.885L165.069 62H162.597L161.157 52.184ZM168.785 49.52V53.312H173.681V55.4H168.785V59.912L173.849 59.912V62L166.313 62V47.432H173.849V49.52H168.785ZM175.735 47.432H179.815C181.895 47.432 183.583 48.12 184.879 49.496C186.191 50.872 186.847 52.608 186.847 54.704C186.847 56.8 186.183 58.544 184.855 59.936C183.543 61.312 181.855 62 179.791 62H175.735V47.432ZM178.207 59.768H179.047C182.535 59.768 184.279 58.088 184.279 54.728C184.279 51.352 182.535 49.664 179.047 49.664H178.207V59.768ZM190.868 62H188.396V47.432H190.868V62ZM195.814 58.736L194.518 62H191.902L197.566 47.048H199.774L205.294 62H202.654L201.43 58.736H195.814ZM198.526 50.624L196.414 56.792H200.758L198.526 50.624ZM222.236 60.296C220.764 61.576 219.372 62.216 218.06 62.216C216.844 62.216 215.86 61.832 215.108 61.064C214.372 60.28 214.004 59.304 214.004 58.136C214.004 56.536 214.636 55.336 215.9 54.536L217.1 53.768C216.22 52.488 215.78 51.448 215.78 50.648C215.78 49.64 216.108 48.816 216.764 48.176C217.436 47.52 218.292 47.192 219.332 47.192C220.388 47.192 221.244 47.52 221.9 48.176C222.572 48.816 222.908 49.656 222.908 50.696C222.908 51.88 222.084 53.016 220.436 54.104L222.572 56.936L224.252 54.992L225.836 56.504L224.036 58.616L226.7 62H223.604L222.236 60.296ZM219.236 52.664L219.764 52.28C220.468 51.8 220.82 51.2 220.82 50.48C220.82 49.408 220.364 48.872 219.452 48.872C218.54 48.872 218.084 49.392 218.084 50.432C218.084 50.8 218.204 51.16 218.444 51.512L219.236 52.664ZM218.324 55.328C217.092 56.256 216.476 57.112 216.476 57.896C216.476 59.32 217.116 60.032 218.396 60.032C219.02 60.032 219.82 59.56 220.796 58.616L218.324 55.328ZM85.776 74.912C84.928 73.888 83.864 73.376 82.584 73.376C81.256 73.376 80.144 73.928 79.248 75.032C78.352 76.12 77.904 77.368 77.904 78.776C77.904 80.136 78.344 81.36 79.224 82.448C80.12 83.52 81.232 84.056 82.56 84.056C83.824 84.056 84.896 83.544 85.776 82.52V85.52C84.592 86.096 83.496 86.384 82.488 86.384C80.472 86.384 78.776 85.64 77.4 84.152C76.024 82.664 75.336 80.888 75.336 78.824C75.336 76.68 76.024 74.848 77.4 73.328C78.776 71.808 80.488 71.048 82.536 71.048C83.608 71.048 84.688 71.328 85.776 71.888V74.912ZM87.585 71.432H90.057V79.592C90.057 82.728 91.041 84.296 93.009 84.296C94.977 84.296 95.961 82.728 95.961 79.592V71.432H98.409V80.144C98.409 84.304 96.601 86.384 92.985 86.384C89.385 86.384 87.585 84.304 87.585 80.144V71.432ZM102.879 83.912H107.271V86H100.407V71.432H102.879V83.912ZM112.628 86H110.396V73.52H107.156V71.432H115.868V73.52H112.628V86ZM116.835 71.432H119.307V79.592C119.307 82.728 120.291 84.296 122.259 84.296C124.227 84.296 125.211 82.728 125.211 79.592V71.432H127.659V80.144C127.659 84.304 125.851 86.384 122.235 86.384C118.635 86.384 116.835 84.304 116.835 80.144V71.432ZM139.329 86H136.281L132.153 79.52L132.129 86H129.657V71.432H133.521C136.769 71.432 138.393 72.896 138.393 75.824C138.393 76.928 138.105 77.848 137.529 78.584C136.969 79.32 136.201 79.744 135.225 79.856L139.329 86ZM132.129 78.512H132.873C134.905 78.512 135.921 77.64 135.921 75.896C135.921 74.216 134.913 73.376 132.897 73.376H132.129V78.512ZM142.91 73.52V77.312H147.806V79.4H142.91V83.912H147.974V86H140.438V71.432H147.974V73.52H142.91Z" fill="white"/>
<path d="M77.736 116H76.62V109.76H75V108.716H79.356V109.76H77.736V116ZM81.0034 107.804V111.656C81.3074 111.288 81.7914 111.104 82.4554 111.104C82.9514 111.104 83.3474 111.296 83.6434 111.68C83.9394 112.064 84.0874 112.54 84.0874 113.108V116H82.9354V113.492C82.9354 112.492 82.6274 111.992 82.0114 111.992C81.3394 111.992 81.0034 112.544 81.0034 113.648V116H79.8394V107.804H81.0034ZM85.9542 113.744C85.9542 114.2 86.0542 114.576 86.2542 114.872C86.4542 115.168 86.7302 115.316 87.0822 115.316C87.6342 115.316 87.9862 115.044 88.1382 114.5L89.2422 114.68C88.8822 115.664 88.1622 116.156 87.0822 116.156C86.3622 116.156 85.7862 115.928 85.3542 115.472C84.9302 115.008 84.7182 114.408 84.7182 113.672C84.7182 112.896 84.9222 112.276 85.3302 111.812C85.7462 111.34 86.3062 111.104 87.0102 111.104C87.7222 111.104 88.2742 111.328 88.6662 111.776C89.0662 112.216 89.2662 112.82 89.2662 113.588V113.744H85.9542ZM88.1862 113.096C88.1862 112.768 88.0822 112.48 87.8742 112.232C87.6742 111.984 87.4102 111.86 87.0822 111.86C86.7622 111.86 86.4982 111.992 86.2902 112.256C86.0902 112.512 85.9902 112.792 85.9902 113.096H88.1862ZM98.1859 111.68V108.716H99.4099V116H98.1859V112.652H95.1739V116H93.9379V108.716H95.1739V111.68H98.1859ZM101.558 111.26V113.828C101.558 114.748 101.878 115.208 102.518 115.208C103.158 115.208 103.478 114.748 103.478 113.828V111.26H104.642V114.044C104.642 115.452 103.934 116.156 102.518 116.156C101.102 116.156 100.394 115.452 100.394 114.044V111.26H101.558ZM106.749 111.68C107.045 111.296 107.501 111.104 108.117 111.104C108.653 111.104 109.077 111.352 109.389 111.848C109.693 111.352 110.185 111.104 110.865 111.104C111.865 111.104 112.365 111.752 112.365 113.048V116H111.213V113.504C111.213 112.496 110.937 111.992 110.385 111.992C109.833 111.992 109.557 112.552 109.557 113.672V116H108.393V113.6C108.393 112.528 108.149 111.992 107.661 111.992C107.053 111.992 106.749 112.552 106.749 113.672V116H105.585V111.26H106.749V111.68ZM117.831 116H116.691V115.568C116.355 115.96 115.855 116.156 115.191 116.156C114.527 116.156 113.995 115.9 113.595 115.388C113.203 114.876 113.007 114.276 113.007 113.588C113.007 112.9 113.207 112.316 113.607 111.836C114.015 111.348 114.535 111.104 115.167 111.104C115.839 111.104 116.347 111.304 116.691 111.704V111.26H117.831V116ZM116.823 113.624C116.823 113.184 116.699 112.824 116.451 112.544C116.203 112.256 115.883 112.112 115.491 112.112C115.107 112.112 114.791 112.252 114.543 112.532C114.303 112.804 114.183 113.168 114.183 113.624C114.183 114.08 114.307 114.448 114.555 114.728C114.803 115.008 115.123 115.148 115.515 115.148C115.907 115.148 116.223 115.012 116.463 114.74C116.703 114.468 116.823 114.096 116.823 113.624ZM119.968 111.692C120.296 111.3 120.78 111.104 121.42 111.104C122.508 111.104 123.052 111.772 123.052 113.108V116H121.9V113.492C121.9 112.492 121.592 111.992 120.976 111.992C120.304 111.992 119.968 112.528 119.968 113.6V116H118.804V111.26H119.968V111.692ZM129.299 109.76V111.656H131.543V112.7H129.299V116H128.063V108.716H131.687V109.76H129.299ZM133.763 116H132.599V107.804H133.763V116ZM135.712 113.744C135.712 114.2 135.812 114.576 136.012 114.872C136.212 115.168 136.488 115.316 136.84 115.316C137.392 115.316 137.744 115.044 137.896 114.5L139 114.68C138.64 115.664 137.92 116.156 136.84 116.156C136.12 116.156 135.544 115.928 135.112 115.472C134.688 115.008 134.476 114.408 134.476 113.672C134.476 112.896 134.68 112.276 135.088 111.812C135.504 111.34 136.064 111.104 136.768 111.104C137.48 111.104 138.032 111.328 138.424 111.776C138.824 112.216 139.024 112.82 139.024 113.588V113.744H135.712ZM137.944 113.096C137.944 112.768 137.84 112.48 137.632 112.232C137.432 111.984 137.168 111.86 136.84 111.86C136.52 111.86 136.256 111.992 136.048 112.256C135.848 112.512 135.748 112.792 135.748 113.096H137.944ZM142.184 112.244C141.928 112.004 141.66 111.884 141.38 111.884C140.956 111.884 140.744 112.076 140.744 112.46C140.744 112.676 140.936 112.852 141.32 112.988C142.024 113.244 142.46 113.48 142.628 113.696C142.796 113.904 142.88 114.164 142.88 114.476C142.88 114.988 142.7 115.396 142.34 115.7C141.988 116.004 141.552 116.156 141.032 116.156C140.36 116.156 139.804 115.892 139.364 115.364L139.88 114.704C140.28 115.104 140.648 115.304 140.984 115.304C141.472 115.304 141.716 115.068 141.716 114.596C141.716 114.356 141.588 114.18 141.332 114.068C141.076 113.948 140.88 113.86 140.744 113.804C140.008 113.484 139.64 113.096 139.64 112.64C139.64 112.184 139.776 111.816 140.048 111.536C140.328 111.248 140.692 111.104 141.14 111.104C141.78 111.104 142.288 111.268 142.664 111.596L142.184 112.244ZM144.777 107.804V111.656C145.081 111.288 145.565 111.104 146.229 111.104C146.725 111.104 147.121 111.296 147.417 111.68C147.713 112.064 147.861 112.54 147.861 113.108V116H146.709V113.492C146.709 112.492 146.401 111.992 145.785 111.992C145.113 111.992 144.777 112.544 144.777 113.648V116H143.613V107.804H144.777ZM156.399 110.192C156.087 109.752 155.691 109.532 155.211 109.532C154.907 109.532 154.651 109.624 154.443 109.808C154.235 109.992 154.131 110.24 154.131 110.552C154.131 110.856 154.507 111.22 155.259 111.644C156.019 112.068 156.403 112.28 156.411 112.28C156.947 112.68 157.215 113.152 157.215 113.696C157.215 114.44 156.999 115.044 156.567 115.508C156.143 115.964 155.559 116.192 154.815 116.192C153.871 116.192 153.127 115.72 152.583 114.776L153.363 114.008C153.467 114.288 153.659 114.544 153.939 114.776C154.219 115.008 154.507 115.124 154.803 115.124C155.155 115.124 155.431 115.004 155.631 114.764C155.839 114.524 155.943 114.232 155.943 113.888C155.943 113.64 155.867 113.424 155.715 113.24C155.563 113.048 155.047 112.76 154.167 112.376C153.295 111.984 152.859 111.428 152.859 110.708C152.859 110.092 153.059 109.576 153.459 109.16C153.867 108.736 154.375 108.524 154.983 108.524C155.823 108.524 156.487 108.796 156.975 109.34L156.399 110.192ZM158.81 113.744C158.81 114.2 158.91 114.576 159.11 114.872C159.31 115.168 159.586 115.316 159.938 115.316C160.49 115.316 160.842 115.044 160.994 114.5L162.098 114.68C161.738 115.664 161.018 116.156 159.938 116.156C159.218 116.156 158.642 115.928 158.21 115.472C157.786 115.008 157.574 114.408 157.574 113.672C157.574 112.896 157.778 112.276 158.186 111.812C158.602 111.34 159.162 111.104 159.866 111.104C160.578 111.104 161.13 111.328 161.522 111.776C161.922 112.216 162.122 112.82 162.122 113.588V113.744H158.81ZM161.042 113.096C161.042 112.768 160.938 112.48 160.73 112.232C160.53 111.984 160.266 111.86 159.938 111.86C159.618 111.86 159.354 111.992 159.146 112.256C158.946 112.512 158.846 112.792 158.846 113.096H161.042ZM167.238 116H166.098V115.568C165.762 115.96 165.262 116.156 164.598 116.156C163.934 116.156 163.402 115.9 163.002 115.388C162.61 114.876 162.414 114.276 162.414 113.588C162.414 112.9 162.614 112.316 163.014 111.836C163.422 111.348 163.942 111.104 164.574 111.104C165.246 111.104 165.754 111.304 166.098 111.704V111.26H167.238V116ZM166.23 113.624C166.23 113.184 166.106 112.824 165.858 112.544C165.61 112.256 165.29 112.112 164.898 112.112C164.514 112.112 164.198 112.252 163.95 112.532C163.71 112.804 163.59 113.168 163.59 113.624C163.59 114.08 163.714 114.448 163.962 114.728C164.21 115.008 164.53 115.148 164.922 115.148C165.314 115.148 165.63 115.012 165.87 114.74C166.11 114.468 166.23 114.096 166.23 113.624ZM169.374 111.752C169.67 111.32 170.134 111.104 170.766 111.104C170.966 111.104 171.15 111.144 171.318 111.224L171.174 112.28C170.998 112.168 170.806 112.112 170.598 112.112C169.782 112.112 169.374 112.696 169.374 113.864V116H168.21V111.26H169.374V111.752ZM174.978 112.496C174.682 112.2 174.35 112.052 173.982 112.052C173.55 112.052 173.21 112.208 172.962 112.52C172.714 112.832 172.59 113.216 172.59 113.672C172.59 114.12 172.73 114.488 173.01 114.776C173.29 115.064 173.63 115.208 174.03 115.208C174.374 115.208 174.69 115.056 174.978 114.752V115.868C174.642 116.06 174.254 116.156 173.814 116.156C173.126 116.156 172.554 115.912 172.098 115.424C171.642 114.936 171.414 114.34 171.414 113.636C171.414 112.932 171.646 112.336 172.11 111.848C172.582 111.352 173.17 111.104 173.874 111.104C174.29 111.104 174.658 111.204 174.978 111.404V112.496ZM176.98 107.804V111.656C177.284 111.288 177.768 111.104 178.432 111.104C178.928 111.104 179.324 111.296 179.62 111.68C179.916 112.064 180.064 112.54 180.064 113.108V116H178.912V113.492C178.912 112.492 178.604 111.992 177.988 111.992C177.316 111.992 176.98 112.544 176.98 113.648V116H175.816V107.804H176.98ZM186.311 109.76V111.656H188.759V112.7H186.311V114.956H188.843V116H185.075V108.716H188.843V109.76H186.311ZM190.914 111.692C191.242 111.3 191.726 111.104 192.366 111.104C193.454 111.104 193.998 111.772 193.998 113.108V116H192.846V113.492C192.846 112.492 192.538 111.992 191.922 111.992C191.25 111.992 190.914 112.528 190.914 113.6V116H189.75V111.26H190.914V111.692ZM199.476 115.592C199.476 117.216 198.72 118.028 197.208 118.028C196.536 118.028 195.968 117.844 195.504 117.476C195.04 117.116 194.808 116.644 194.808 116.06H196.044C196.044 116.292 196.16 116.52 196.392 116.744C196.624 116.968 196.884 117.08 197.172 117.08C197.932 117.08 198.312 116.624 198.312 115.712V115.412C197.984 115.828 197.484 116.036 196.812 116.036C196.148 116.036 195.624 115.804 195.24 115.34C194.864 114.876 194.676 114.308 194.676 113.636C194.676 112.908 194.88 112.3 195.288 111.812C195.696 111.324 196.224 111.08 196.872 111.08C197.528 111.08 198.008 111.284 198.312 111.692V111.236H199.476V115.592ZM198.48 113.528C198.48 113.096 198.36 112.748 198.12 112.484C197.88 112.22 197.564 112.088 197.172 112.088C196.78 112.088 196.46 112.232 196.212 112.52C195.972 112.808 195.852 113.172 195.852 113.612C195.852 114.556 196.292 115.028 197.172 115.028C197.572 115.028 197.888 114.888 198.12 114.608C198.36 114.32 198.48 113.96 198.48 113.528ZM201.818 109.268C201.818 109.452 201.75 109.612 201.614 109.748C201.478 109.884 201.318 109.952 201.134 109.952C200.95 109.952 200.79 109.884 200.654 109.748C200.518 109.612 200.45 109.452 200.45 109.268C200.45 109.084 200.518 108.924 200.654 108.788C200.79 108.652 200.95 108.584 201.134 108.584C201.318 108.584 201.478 108.652 201.614 108.788C201.75 108.924 201.818 109.084 201.818 109.268ZM201.722 116H200.558V111.26H201.722V116ZM204.003 111.692C204.331 111.3 204.815 111.104 205.455 111.104C206.543 111.104 207.087 111.772 207.087 113.108V116H205.935V113.492C205.935 112.492 205.627 111.992 205.011 111.992C204.339 111.992 204.003 112.528 204.003 113.6V116H202.839V111.26H204.003V111.692ZM208.954 113.744C208.954 114.2 209.054 114.576 209.254 114.872C209.454 115.168 209.73 115.316 210.082 115.316C210.634 115.316 210.986 115.044 211.138 114.5L212.242 114.68C211.882 115.664 211.162 116.156 210.082 116.156C209.362 116.156 208.786 115.928 208.354 115.472C207.93 115.008 207.718 114.408 207.718 113.672C207.718 112.896 207.922 112.276 208.33 111.812C208.746 111.34 209.306 111.104 210.01 111.104C210.722 111.104 211.274 111.328 211.666 111.776C212.066 112.216 212.266 112.82 212.266 113.588V113.744L208.954 113.744ZM211.186 113.096C211.186 112.768 211.082 112.48 210.874 112.232C210.674 111.984 210.41 111.86 210.082 111.86C209.762 111.86 209.498 111.992 209.29 112.256C209.09 112.512 208.99 112.792 208.99 113.096L211.186 113.096ZM214.67 115.316C214.67 115.556 214.586 115.764 214.418 115.94C214.258 116.108 214.058 116.192 213.818 116.192C213.578 116.192 213.374 116.108 213.206 115.94C213.038 115.772 212.954 115.572 212.954 115.34C212.954 115.1 213.038 114.896 213.206 114.728C213.374 114.56 213.574 114.476 213.806 114.476C214.046 114.476 214.25 114.556 214.418 114.716C214.586 114.876 214.67 115.076 214.67 115.316ZM214.67 111.836C214.67 112.076 214.586 112.284 214.418 112.46C214.258 112.628 214.058 112.712 213.818 112.712C213.578 112.712 213.374 112.628 213.206 112.46C213.038 112.292 212.954 112.092 212.954 111.86C212.954 111.62 213.038 111.416 213.206 111.248C213.374 111.08 213.574 110.996 213.806 110.996C214.046 110.996 214.25 111.076 214.418 111.236C214.586 111.396 214.67 111.596 214.67 111.836ZM79.764 123.68V120.716H80.988V128H79.764V124.652H76.752V128H75.516V120.716H76.752V123.68H79.764ZM86.6516 125.624C86.6516 126.368 86.4236 126.976 85.9676 127.448C85.5116 127.92 84.9116 128.156 84.1676 128.156C83.4316 128.156 82.8316 127.92 82.3676 127.448C81.9036 126.976 81.6716 126.372 81.6716 125.636C81.6716 124.892 81.8996 124.284 82.3556 123.812C82.8116 123.34 83.4116 123.104 84.1556 123.104C84.8996 123.104 85.4996 123.34 85.9556 123.812C86.4196 124.276 86.6516 124.88 86.6516 125.624ZM82.8476 125.648C82.8476 126.088 82.9716 126.448 83.2196 126.728C83.4676 127.008 83.7876 127.148 84.1796 127.148C84.5716 127.148 84.8836 127 85.1156 126.704C85.3556 126.4 85.4756 126.044 85.4756 125.636C85.4756 125.22 85.3556 124.864 85.1156 124.568C84.8756 124.264 84.5596 124.112 84.1676 124.112C83.7836 124.112 83.4676 124.256 83.2196 124.544C82.9716 124.832 82.8476 125.2 82.8476 125.648ZM89.0925 126.356L90.3525 123.104H90.7725L92.0925 126.344L93.2685 123.26H94.5525L92.3445 128.096H91.7565L90.6645 125.06L89.4165 128.096H88.8165L86.6445 123.26H87.9285L89.0925 126.356ZM98.8949 120.716H100.935C101.975 120.716 102.819 121.06 103.467 121.748C104.123 122.436 104.451 123.304 104.451 124.352C104.451 125.4 104.119 126.272 103.455 126.968C102.799 127.656 101.955 128 100.923 128H98.8949V120.716ZM100.131 126.884H100.551C102.295 126.884 103.167 126.044 103.167 124.364C103.167 122.676 102.295 121.832 100.551 121.832H100.131V126.884ZM106.521 121.268C106.521 121.452 106.453 121.612 106.317 121.748C106.181 121.884 106.021 121.952 105.837 121.952C105.653 121.952 105.493 121.884 105.357 121.748C105.221 121.612 105.153 121.452 105.153 121.268C105.153 121.084 105.221 120.924 105.357 120.788C105.493 120.652 105.653 120.584 105.837 120.584C106.021 120.584 106.181 120.652 106.317 120.788C106.453 120.924 106.521 121.084 106.521 121.268ZM106.425 128H105.261V123.26H106.425V128ZM110.879 127.556C110.567 127.956 110.075 128.156 109.403 128.156C108.731 128.156 108.195 127.9 107.795 127.388C107.403 126.876 107.207 126.276 107.207 125.588C107.207 124.9 107.407 124.316 107.807 123.836C108.215 123.348 108.735 123.104 109.367 123.104C110.039 123.104 110.535 123.3 110.855 123.692L110.879 119.804H112.043V128H110.879V127.556ZM111.011 125.624C111.011 125.208 110.883 124.852 110.627 124.556C110.371 124.26 110.063 124.112 109.703 124.112C109.343 124.112 109.031 124.26 108.767 124.556C108.511 124.844 108.383 125.204 108.383 125.636C108.383 126.06 108.507 126.42 108.755 126.716C109.011 127.004 109.331 127.148 109.715 127.148C110.099 127.148 110.411 127.008 110.651 126.728C110.891 126.44 111.011 126.072 111.011 125.624ZM118.439 128H117.275V124.304H116.711V123.356H117.275V121.652H118.439V123.356H119.363V124.304H118.439V128ZM120.824 119.804V123.656C121.128 123.288 121.612 123.104 122.276 123.104C122.772 123.104 123.168 123.296 123.464 123.68C123.76 124.064 123.908 124.54 123.908 125.108V128H122.756V125.492C122.756 124.492 122.448 123.992 121.832 123.992C121.16 123.992 120.824 124.544 120.824 125.648V128H119.66V119.804H120.824ZM125.775 125.744C125.775 126.2 125.875 126.576 126.075 126.872C126.275 127.168 126.551 127.316 126.903 127.316C127.455 127.316 127.807 127.044 127.959 126.5L129.063 126.68C128.703 127.664 127.983 128.156 126.903 128.156C126.183 128.156 125.607 127.928 125.175 127.472C124.751 127.008 124.539 126.408 124.539 125.672C124.539 124.896 124.743 124.276 125.151 123.812C125.567 123.34 126.127 123.104 126.831 123.104C127.543 123.104 128.095 123.328 128.487 123.776C128.887 124.216 129.087 124.82 129.087 125.588V125.744H125.775ZM128.007 125.096C128.007 124.768 127.903 124.48 127.695 124.232C127.495 123.984 127.231 123.86 126.903 123.86C126.583 123.86 126.319 123.992 126.111 124.256C125.911 124.512 125.811 124.792 125.811 125.096H128.007ZM136.422 125.528C136.422 127.304 135.766 128.192 134.454 128.192C133.942 128.192 133.466 127.964 133.026 127.508L133.854 126.572C134.054 126.9 134.27 127.064 134.502 127.064C134.734 127.064 134.906 126.952 135.018 126.728C135.138 126.504 135.198 126.024 135.198 125.288V120.716H136.422V125.528ZM138.624 123.26V125.828C138.624 126.748 138.944 127.208 139.584 127.208C140.224 127.208 140.544 126.748 140.544 125.828V123.26H141.708V126.044C141.708 127.452 141 128.156 139.584 128.156C138.168 128.156 137.46 127.452 137.46 126.044V123.26H138.624ZM145.184 124.244C144.928 124.004 144.66 123.884 144.38 123.884C143.956 123.884 143.744 124.076 143.744 124.46C143.744 124.676 143.936 124.852 144.32 124.988C145.024 125.244 145.46 125.48 145.628 125.696C145.796 125.904 145.88 126.164 145.88 126.476C145.88 126.988 145.7 127.396 145.34 127.7C144.988 128.004 144.552 128.156 144.032 128.156C143.36 128.156 142.804 127.892 142.364 127.364L142.88 126.704C143.28 127.104 143.648 127.304 143.984 127.304C144.472 127.304 144.716 127.068 144.716 126.596C144.716 126.356 144.588 126.18 144.332 126.068C144.076 125.948 143.88 125.86 143.744 125.804C143.008 125.484 142.64 125.096 142.64 124.64C142.64 124.184 142.776 123.816 143.048 123.536C143.328 123.248 143.692 123.104 144.14 123.104C144.78 123.104 145.288 123.268 145.664 123.596L145.184 124.244ZM148.041 128H146.877V124.304H146.313V123.356H146.877V121.652H148.041V123.356H148.965V124.304H148.041V128ZM150.689 121.268C150.689 121.452 150.621 121.612 150.485 121.748C150.349 121.884 150.189 121.952 150.005 121.952C149.821 121.952 149.661 121.884 149.525 121.748C149.389 121.612 149.321 121.452 149.321 121.268C149.321 121.084 149.389 120.924 149.525 120.788C149.661 120.652 149.821 120.584 150.005 120.584C150.189 120.584 150.349 120.652 150.485 120.788C150.621 120.924 150.689 121.084 150.689 121.268ZM150.593 128H149.429V123.26H150.593V128ZM154.938 124.496C154.642 124.2 154.31 124.052 153.942 124.052C153.51 124.052 153.17 124.208 152.922 124.52C152.674 124.832 152.55 125.216 152.55 125.672C152.55 126.12 152.69 126.488 152.97 126.776C153.25 127.064 153.59 127.208 153.99 127.208C154.334 127.208 154.65 127.056 154.938 126.752V127.868C154.602 128.06 154.214 128.156 153.774 128.156C153.086 128.156 152.514 127.912 152.058 127.424C151.602 126.936 151.374 126.34 151.374 125.636C151.374 124.932 151.606 124.336 152.07 123.848C152.542 123.352 153.13 123.104 153.834 123.104C154.25 123.104 154.618 123.204 154.938 123.404V124.496ZM156.677 125.744C156.677 126.2 156.777 126.576 156.977 126.872C157.177 127.168 157.453 127.316 157.805 127.316C158.357 127.316 158.709 127.044 158.861 126.5L159.965 126.68C159.605 127.664 158.885 128.156 157.805 128.156C157.085 128.156 156.509 127.928 156.077 127.472C155.653 127.008 155.441 126.408 155.441 125.672C155.441 124.896 155.645 124.276 156.053 123.812C156.469 123.34 157.029 123.104 157.733 123.104C158.445 123.104 158.997 123.328 159.389 123.776C159.789 124.216 159.989 124.82 159.989 125.588V125.744H156.677ZM158.909 125.096C158.909 124.768 158.805 124.48 158.597 124.232C158.397 123.984 158.133 123.86 157.805 123.86C157.485 123.86 157.221 123.992 157.013 124.256C156.813 124.512 156.713 124.792 156.713 125.096H158.909ZM164.625 119.804H165.789V123.692C166.125 123.3 166.625 123.104 167.289 123.104C167.913 123.104 168.429 123.352 168.837 123.848C169.253 124.344 169.461 124.928 169.461 125.6C169.461 126.328 169.257 126.936 168.849 127.424C168.441 127.912 167.913 128.156 167.265 128.156C166.569 128.156 166.085 127.956 165.813 127.556L165.789 128H164.625V119.804ZM168.273 125.624C168.273 125.224 168.149 124.872 167.901 124.568C167.653 124.264 167.337 124.112 166.953 124.112C166.569 124.112 166.257 124.264 166.017 124.568C165.777 124.864 165.657 125.22 165.657 125.636C165.657 126.044 165.781 126.4 166.029 126.704C166.285 127 166.597 127.148 166.965 127.148C167.365 127.148 167.681 127.004 167.913 126.716C168.153 126.42 168.273 126.056 168.273 125.624ZM170.985 125.744C170.985 126.2 171.085 126.576 171.285 126.872C171.485 127.168 171.761 127.316 172.113 127.316C172.665 127.316 173.017 127.044 173.169 126.5L174.273 126.68C173.913 127.664 173.193 128.156 172.113 128.156C171.393 128.156 170.817 127.928 170.385 127.472C169.961 127.008 169.749 126.408 169.749 125.672C169.749 124.896 169.953 124.276 170.361 123.812C170.777 123.34 171.337 123.104 172.041 123.104C172.753 123.104 173.305 123.328 173.697 123.776C174.097 124.216 174.297 124.82 174.297 125.588V125.744H170.985ZM173.217 125.096C173.217 124.768 173.113 124.48 172.905 124.232C172.705 123.984 172.441 123.86 172.113 123.86C171.793 123.86 171.529 123.992 171.321 124.256C171.121 124.512 171.021 124.792 171.021 125.096H173.217ZM180.301 128H179.065V120.716H180.301V128ZM182.546 123.68C182.842 123.296 183.298 123.104 183.914 123.104C184.45 123.104 184.874 123.352 185.186 123.848C185.49 123.352 185.982 123.104 186.662 123.104C187.662 123.104 188.162 123.752 188.162 125.048V128H187.01V125.504C187.01 124.496 186.734 123.992 186.182 123.992C185.63 123.992 185.354 124.552 185.354 125.672V128H184.19V125.6C184.19 124.528 183.946 123.992 183.458 123.992C182.85 123.992 182.546 124.552 182.546 125.672V128H181.382V123.26H182.546V123.68ZM190.304 123.692C190.64 123.3 191.14 123.104 191.804 123.104C192.428 123.104 192.944 123.352 193.352 123.848C193.768 124.344 193.976 124.928 193.976 125.6C193.976 126.328 193.772 126.936 193.364 127.424C192.956 127.912 192.428 128.156 191.78 128.156C191.084 128.156 190.6 127.956 190.328 127.556L190.304 130.004H189.14V123.26H190.304V123.692ZM192.788 125.624C192.788 125.216 192.672 124.864 192.44 124.568C192.208 124.264 191.888 124.112 191.48 124.112C191.104 124.112 190.792 124.264 190.544 124.568C190.296 124.872 190.172 125.224 190.172 125.624C190.172 126.016 190.304 126.368 190.568 126.68C190.832 126.992 191.136 127.148 191.48 127.148C191.888 127.148 192.208 127.004 192.44 126.716C192.672 126.428 192.788 126.064 192.788 125.624ZM199.257 125.624C199.257 126.368 199.029 126.976 198.573 127.448C198.117 127.92 197.517 128.156 196.773 128.156C196.037 128.156 195.437 127.92 194.973 127.448C194.509 126.976 194.277 126.372 194.277 125.636C194.277 124.892 194.505 124.284 194.961 123.812C195.417 123.34 196.017 123.104 196.761 123.104C197.505 123.104 198.105 123.34 198.561 123.812C199.025 124.276 199.257 124.88 199.257 125.624ZM195.453 125.648C195.453 126.088 195.577 126.448 195.825 126.728C196.073 127.008 196.393 127.148 196.785 127.148C197.177 127.148 197.489 127 197.721 126.704C197.961 126.4 198.081 126.044 198.081 125.636C198.081 125.22 197.961 124.864 197.721 124.568C197.481 124.264 197.165 124.112 196.773 124.112C196.389 124.112 196.073 124.256 195.825 124.544C195.577 124.832 195.453 125.2 195.453 125.648ZM202.43 124.244C202.174 124.004 201.906 123.884 201.626 123.884C201.202 123.884 200.99 124.076 200.99 124.46C200.99 124.676 201.182 124.852 201.566 124.988C202.27 125.244 202.706 125.48 202.874 125.696C203.042 125.904 203.126 126.164 203.126 126.476C203.126 126.988 202.946 127.396 202.586 127.7C202.234 128.004 201.798 128.156 201.278 128.156C200.606 128.156 200.05 127.892 199.61 127.364L200.126 126.704C200.526 127.104 200.894 127.304 201.23 127.304C201.718 127.304 201.962 127.068 201.962 126.596C201.962 126.356 201.834 126.18 201.578 126.068C201.322 125.948 201.126 125.86 200.99 125.804C200.254 125.484 199.886 125.096 199.886 124.64C199.886 124.184 200.022 123.816 200.294 123.536C200.574 123.248 200.938 123.104 201.386 123.104C202.026 123.104 202.534 123.268 202.91 123.596L202.43 124.244ZM204.759 125.744C204.759 126.2 204.859 126.576 205.059 126.872C205.259 127.168 205.535 127.316 205.887 127.316C206.439 127.316 206.791 127.044 206.943 126.5L208.047 126.68C207.687 127.664 206.967 128.156 205.887 128.156C205.167 128.156 204.591 127.928 204.159 127.472C203.735 127.008 203.523 126.408 203.523 125.672C203.523 124.896 203.727 124.276 204.135 123.812C204.551 123.34 205.111 123.104 205.815 123.104C206.527 123.104 207.079 123.328 207.471 123.776C207.871 124.216 208.071 124.82 208.071 125.588V125.744H204.759ZM206.991 125.096C206.991 124.768 206.887 124.48 206.679 124.232C206.479 123.984 206.215 123.86 205.887 123.86C205.567 123.86 205.303 123.992 205.095 124.256C204.895 124.512 204.795 124.792 204.795 125.096H206.991ZM212.035 127.556C211.723 127.956 211.231 128.156 210.559 128.156C209.887 128.156 209.351 127.9 208.951 127.388C208.559 126.876 208.363 126.276 208.363 125.588C208.363 124.9 208.563 124.316 208.963 123.836C209.371 123.348 209.891 123.104 210.523 123.104C211.195 123.104 211.691 123.3 212.011 123.692L212.035 119.804H213.199V128H212.035V127.556ZM212.167 125.624C212.167 125.208 212.039 124.852 211.783 124.556C211.527 124.26 211.219 124.112 210.859 124.112C210.499 124.112 210.187 124.26 209.923 124.556C209.667 124.844 209.539 125.204 209.539 125.636C209.539 126.06 209.663 126.42 209.911 126.716C210.167 127.004 210.487 127.148 210.871 127.148C211.255 127.148 211.567 127.008 211.807 126.728C212.047 126.44 212.167 126.072 212.167 125.624ZM80.136 137.624C80.136 138.368 79.908 138.976 79.452 139.448C78.996 139.92 78.396 140.156 77.652 140.156C76.916 140.156 76.316 139.92 75.852 139.448C75.388 138.976 75.156 138.372 75.156 137.636C75.156 136.892 75.384 136.284 75.84 135.812C76.296 135.34 76.896 135.104 77.64 135.104C78.384 135.104 78.984 135.34 79.44 135.812C79.904 136.276 80.136 136.88 80.136 137.624ZM76.332 137.648C76.332 138.088 76.456 138.448 76.704 138.728C76.952 139.008 77.272 139.148 77.664 139.148C78.056 139.148 78.368 139 78.6 138.704C78.84 138.4 78.96 138.044 78.96 137.636C78.96 137.22 78.84 136.864 78.6 136.568C78.36 136.264 78.044 136.112 77.652 136.112C77.268 136.112 76.952 136.256 76.704 136.544C76.456 136.832 76.332 137.2 76.332 137.648ZM81.9409 135.692C82.2689 135.3 82.7529 135.104 83.3929 135.104C84.4809 135.104 85.0249 135.772 85.0249 137.108V140H83.8729V137.492C83.8729 136.492 83.5649 135.992 82.9489 135.992C82.2769 135.992 81.9409 136.528 81.9409 137.6V140H80.7769V135.26H81.9409V135.692ZM91.2715 140H90.0355V132.716H91.9675C93.6555 132.716 94.4995 133.468 94.4995 134.972C94.4995 136.508 93.7235 137.276 92.1715 137.276H91.2715V140ZM91.2715 136.292H91.8835C92.7875 136.292 93.2395 135.852 93.2395 134.972C93.2395 134.124 92.7755 133.7 91.8475 133.7H91.2715V136.292ZM95.9972 137.744C95.9972 138.2 96.0972 138.576 96.2972 138.872C96.4972 139.168 96.7732 139.316 97.1252 139.316C97.6772 139.316 98.0292 139.044 98.1812 138.5L99.2852 138.68C98.9252 139.664 98.2052 140.156 97.1252 140.156C96.4052 140.156 95.8292 139.928 95.3972 139.472C94.9732 139.008 94.7612 138.408 94.7612 137.672C94.7612 136.896 94.9652 136.276 95.3732 135.812C95.7892 135.34 96.3492 135.104 97.0532 135.104C97.7652 135.104 98.3172 135.328 98.7092 135.776C99.1092 136.216 99.3092 136.82 99.3092 137.588V137.744H95.9972ZM98.2292 137.096C98.2292 136.768 98.1252 136.48 97.9172 136.232C97.7172 135.984 97.4532 135.86 97.1252 135.86C96.8052 135.86 96.5412 135.992 96.3332 136.256C96.1332 136.512 96.0332 136.792 96.0332 137.096H98.2292ZM104.593 137.624C104.593 138.368 104.365 138.976 103.909 139.448C103.453 139.92 102.853 140.156 102.109 140.156C101.373 140.156 100.773 139.92 100.309 139.448C99.845 138.976 99.613 138.372 99.613 137.636C99.613 136.892 99.841 136.284 100.297 135.812C100.753 135.34 101.353 135.104 102.097 135.104C102.841 135.104 103.441 135.34 103.897 135.812C104.361 136.276 104.593 136.88 104.593 137.624ZM100.789 137.648C100.789 138.088 100.913 138.448 101.161 138.728C101.409 139.008 101.729 139.148 102.121 139.148C102.513 139.148 102.825 139 103.057 138.704C103.297 138.4 103.417 138.044 103.417 137.636C103.417 137.22 103.297 136.864 103.057 136.568C102.817 136.264 102.501 136.112 102.109 136.112C101.725 136.112 101.409 136.256 101.161 136.544C100.913 136.832 100.789 137.2 100.789 137.648ZM106.398 135.692C106.734 135.3 107.234 135.104 107.898 135.104C108.522 135.104 109.038 135.352 109.446 135.848C109.862 136.344 110.07 136.928 110.07 137.6C110.07 138.328 109.866 138.936 109.458 139.424C109.05 139.912 108.522 140.156 107.874 140.156C107.178 140.156 106.694 139.956 106.422 139.556L106.398 142.004H105.234V135.26H106.398V135.692ZM108.882 137.624C108.882 137.216 108.766 136.864 108.534 136.568C108.302 136.264 107.982 136.112 107.574 136.112C107.198 136.112 106.886 136.264 106.638 136.568C106.39 136.872 106.266 137.224 106.266 137.624C106.266 138.016 106.398 138.368 106.662 138.68C106.926 138.992 107.23 139.148 107.574 139.148C107.982 139.148 108.302 139.004 108.534 138.716C108.766 138.428 108.882 138.064 108.882 137.624ZM111.955 140H110.791V131.804H111.955V140ZM113.903 137.744C113.903 138.2 114.003 138.576 114.203 138.872C114.403 139.168 114.679 139.316 115.031 139.316C115.583 139.316 115.935 139.044 116.087 138.5L117.191 138.68C116.831 139.664 116.111 140.156 115.031 140.156C114.311 140.156 113.735 139.928 113.303 139.472C112.879 139.008 112.667 138.408 112.667 137.672C112.667 136.896 112.871 136.276 113.279 135.812C113.695 135.34 114.255 135.104 114.959 135.104C115.671 135.104 116.223 135.328 116.615 135.776C117.015 136.216 117.215 136.82 117.215 137.588V137.744H113.903ZM116.135 137.096C116.135 136.768 116.031 136.48 115.823 136.232C115.623 135.984 115.359 135.86 115.031 135.86C114.711 135.86 114.447 135.992 114.239 136.256C114.039 136.512 113.939 136.792 113.939 137.096H116.135ZM123.279 133.268C123.279 133.452 123.211 133.612 123.075 133.748C122.939 133.884 122.779 133.952 122.595 133.952C122.411 133.952 122.251 133.884 122.115 133.748C121.979 133.612 121.911 133.452 121.911 133.268C121.911 133.084 121.979 132.924 122.115 132.788C122.251 132.652 122.411 132.584 122.595 132.584C122.779 132.584 122.939 132.652 123.075 132.788C123.211 132.924 123.279 133.084 123.279 133.268ZM123.183 140H122.019V135.26H123.183V140ZM125.464 135.692C125.792 135.3 126.276 135.104 126.916 135.104C128.004 135.104 128.548 135.772 128.548 137.108V140H127.396V137.492C127.396 136.492 127.088 135.992 126.472 135.992C125.8 135.992 125.464 136.528 125.464 137.6V140H124.3V135.26H125.464V135.692ZM138.431 134.456C138.007 133.944 137.475 133.688 136.835 133.688C136.171 133.688 135.615 133.964 135.167 134.516C134.719 135.06 134.495 135.684 134.495 136.388C134.495 137.068 134.715 137.68 135.155 138.224C135.603 138.76 136.159 139.028 136.823 139.028C137.455 139.028 137.991 138.772 138.431 138.26V139.76C137.839 140.048 137.291 140.192 136.787 140.192C135.779 140.192 134.931 139.82 134.243 139.076C133.555 138.332 133.211 137.444 133.211 136.412C133.211 135.34 133.555 134.424 134.243 133.664C134.931 132.904 135.787 132.524 136.811 132.524C137.347 132.524 137.887 132.664 138.431 132.944V134.456ZM140.499 131.804V135.656C140.803 135.288 141.287 135.104 141.951 135.104C142.447 135.104 142.843 135.296 143.139 135.68C143.435 136.064 143.583 136.54 143.583 137.108V140H142.431V137.492C142.431 136.492 142.123 135.992 141.507 135.992C140.835 135.992 140.499 136.544 140.499 137.648V140H139.335V131.804H140.499ZM145.978 133.268C145.978 133.452 145.91 133.612 145.774 133.748C145.638 133.884 145.478 133.952 145.294 133.952C145.11 133.952 144.95 133.884 144.814 133.748C144.678 133.612 144.61 133.452 144.61 133.268C144.61 133.084 144.678 132.924 144.814 132.788C144.95 132.652 145.11 132.584 145.294 132.584C145.478 132.584 145.638 132.652 145.774 132.788C145.91 132.924 145.978 133.084 145.978 133.268ZM145.882 140H144.718V135.26H145.882V140ZM148.164 135.692C148.492 135.3 148.976 135.104 149.616 135.104C150.704 135.104 151.248 135.772 151.248 137.108V140H150.096V137.492C150.096 136.492 149.788 135.992 149.172 135.992C148.5 135.992 148.164 136.528 148.164 137.6V140H147V135.26H148.164V135.692ZM156.702 140H155.562V139.568C155.226 139.96 154.726 140.156 154.062 140.156C153.398 140.156 152.866 139.9 152.466 139.388C152.074 138.876 151.878 138.276 151.878 137.588C151.878 136.9 152.078 136.316 152.478 135.836C152.886 135.348 153.406 135.104 154.038 135.104C154.71 135.104 155.218 135.304 155.562 135.704V135.26H156.702V140ZM155.694 137.624C155.694 137.184 155.57 136.824 155.322 136.544C155.074 136.256 154.754 136.112 154.362 136.112C153.978 136.112 153.662 136.252 153.414 136.532C153.174 136.804 153.054 137.168 153.054 137.624C153.054 138.08 153.178 138.448 153.426 138.728C153.674 139.008 153.994 139.148 154.386 139.148C154.778 139.148 155.094 139.012 155.334 138.74C155.574 138.468 155.694 138.096 155.694 137.624Z" fill="white"/>
<path d="M17.872 19.368L17.224 21H15.916L18.748 13.524H19.852L22.612 21H21.292L20.68 19.368H17.872ZM19.228 15.312L18.172 18.396H20.344L19.228 15.312ZM27.8911 21H26.3671L24.3031 17.76L24.2911 21H23.0551V13.716H24.9871C26.6111 13.716 27.4231 14.448 27.4231 15.912C27.4231 16.464 27.2791 16.924 26.9911 17.292C26.7111 17.66 26.3271 17.872 25.8391 17.928L27.8911 21ZM24.2911 17.256H24.6631C25.6791 17.256 26.1871 16.82 26.1871 15.948C26.1871 15.108 25.6831 14.688 24.6751 14.688H24.2911V17.256ZM30.6657 21H29.5497V14.76H27.9297V13.716H32.2857V14.76H30.6657V21ZM34.1371 21H32.9011V13.716H34.1371V21ZM40.1263 15.456C39.7023 14.944 39.1703 14.688 38.5303 14.688C37.8663 14.688 37.3103 14.964 36.8623 15.516C36.4143 16.06 36.1903 16.684 36.1903 17.388C36.1903 18.068 36.4103 18.68 36.8503 19.224C37.2983 19.76 37.8543 20.028 38.5183 20.028C39.1503 20.028 39.6863 19.772 40.1263 19.26V20.76C39.5343 21.048 38.9863 21.192 38.4823 21.192C37.4743 21.192 36.6263 20.82 35.9383 20.076C35.2503 19.332 34.9063 18.444 34.9063 17.412C34.9063 16.34 35.2503 15.424 35.9383 14.664C36.6263 13.904 37.4823 13.524 38.5063 13.524C39.0423 13.524 39.5823 13.664 40.1263 13.944V15.456ZM42.3028 19.956H44.4988V21H41.0668V13.716H42.3028V19.956ZM46.1934 14.76V16.656H48.6414V17.7H46.1934V19.956H48.7254V21H44.9574V13.716H48.7254V14.76H46.1934Z" fill="white"/>
</svg>
