<svg width="312" height="316" viewBox="0 0 312 316" fill="none" xmlns="http://www.w3.org/2000/svg">
<rect width="312" height="316" transform="matrix(1 0 0 -1 0 316)" fill="black"/>
<path d="M43.808 125.432H46.928L41.384 132.152L47.24 140H43.952L38.696 132.776L38.672 140H36.2V125.432H38.672V132.248L43.808 125.432ZM51.4886 138.632C51.4886 139.112 51.3206 139.528 50.9846 139.88C50.6646 140.216 50.2646 140.384 49.7846 140.384C49.3046 140.384 48.8966 140.216 48.5606 139.88C48.2246 139.544 48.0566 139.144 48.0566 138.68C48.0566 138.2 48.2246 137.792 48.5606 137.456C48.8966 137.12 49.2966 136.952 49.7606 136.952C50.2406 136.952 50.6486 137.112 50.9846 137.432C51.3206 137.752 51.4886 138.152 51.4886 138.632ZM61.5538 125.432H64.0258V133.592C64.0258 136.728 65.0098 138.296 66.9778 138.296C68.9458 138.296 69.9298 136.728 69.9298 133.592V125.432H72.3778V134.144C72.3778 138.304 70.5698 140.384 66.9538 140.384C63.3538 140.384 61.5538 138.304 61.5538 134.144V125.432ZM77.8558 138.632C77.8558 139.112 77.6878 139.528 77.3518 139.88C77.0318 140.216 76.6318 140.384 76.1518 140.384C75.6718 140.384 75.2638 140.216 74.9277 139.88C74.5918 139.544 74.4238 139.144 74.4238 138.68C74.4238 138.2 74.5918 137.792 74.9277 137.456C75.2638 137.12 75.6638 136.952 76.1278 136.952C76.6078 136.952 77.0158 137.112 77.3518 137.432C77.6878 137.752 77.8558 138.152 77.8558 138.632ZM87.9929 125.048H89.8649L98.0969 136.016L98.1449 125.432H100.593V140.288H98.7449L90.4889 129.344L90.4649 140H87.9929V125.048ZM106.145 138.632C106.145 139.112 105.977 139.528 105.641 139.88C105.321 140.216 104.921 140.384 104.441 140.384C103.961 140.384 103.553 140.216 103.217 139.88C102.881 139.544 102.713 139.144 102.713 138.68C102.713 138.2 102.881 137.792 103.217 137.456C103.553 137.12 103.953 136.952 104.417 136.952C104.897 136.952 105.305 137.112 105.641 137.432C105.977 137.752 106.145 138.152 106.145 138.632Z" fill="white"/>
<g clip-path="url(#clip0)">
<path d="M64.1053 43.5296C64.1053 43.5296 62.8411 47.5261 62.573 50.3413C62.42 51.9465 62.4836 52.9096 62.4915 54.3773C62.4984 55.6913 63.0683 56.8388 63.7736 57.5648C64.5665 58.3812 67.1225 59.0352 66.9649 60.2249C66.934 60.4606 66.2278 62.0814 66.2278 62.0814C66.2278 62.0814 65.6841 63.8243 65.6823 63.8243C65.6805 63.8243 68.0038 65.0965 69.7697 64.6195C71.1642 64.2412 70.5842 62.8804 71.9599 62.6653C73.0812 62.4901 72.8177 61.4233 73.1245 60.6743C73.1821 60.534 73.6451 60.0781 74.925 59.9405C75.0922 59.9226 75.493 59.7172 75.6303 59.5846C77.3851 57.8918 79.8969 56.0866 80.0489 55.5532C81.2882 51.2095 77.6417 45.4916 77.6417 45.4916C77.6417 45.4916 69.4992 39.2106 64.1053 43.5296Z" fill="#D3C06E"/>
<path d="M71.8681 48.7297C71.8681 48.7297 63.974 49.3993 64.3384 46.3562C64.4232 45.6513 63.1166 46.5397 62.5458 46.0728C62.0035 45.6284 61.4926 44.7225 61.6682 44.0708C61.8437 43.4191 62.3131 42.8747 62.866 42.4583C63.6777 41.8418 65.6136 40.4114 67.256 39.523C67.9678 39.1377 69.5342 38.9625 70.3612 39.007C72.5799 39.1253 74.6236 39.4913 76.5107 40.6393C77.2515 41.0901 77.9564 41.6217 78.4659 42.3051C78.9754 42.9884 78.4659 42.3051 79.2749 43.842C79.2749 43.842 82.2607 46.181 81.9815 50.3445C81.8728 51.9718 81.249 54.137 79.4937 56.2151C74.0717 62.6319 72.357 59.1756 72.357 59.1756C72.357 59.1756 70.5934 57.9772 72.5901 53.7403C73.7229 51.3352 74.5006 51.5755 74.1459 49.8877C74.1334 49.829 73.9063 49.0622 73.2516 48.8741" fill="#D3C06E"/>
<path d="M67.5976 51.7295L67.5236 52.058C67.4327 52.4619 67.6879 52.8627 68.0936 52.9532C68.4993 53.0437 68.9019 52.7896 68.9928 52.3858L69.0667 52.0573C69.1576 51.6534 68.9025 51.2526 68.4968 51.1621C68.0911 51.0716 67.6885 51.3257 67.5976 51.7295Z" fill="#D3C06E"/>
<path d="M62.7311 50.6446L62.6572 50.9731C62.5663 51.3769 62.8215 51.7777 63.2272 51.8682C63.6329 51.9587 64.0354 51.7047 64.1263 51.3008L64.2003 50.9723C64.2912 50.5684 64.036 50.1677 63.6303 50.0772C63.2246 49.9867 62.822 50.2407 62.7311 50.6446Z" fill="#D3C06E"/>
<path d="M72.3463 53.6268C72.3463 53.6268 72.9393 53.4498 73.1429 53.419C73.3889 53.3819 73.552 53.3003 73.9441 53.2883C74.1597 53.2819 74.5716 53.4016 74.7397 53.536C75.0654 53.7956 75.44 54.3395 74.9097 55.0628C74.1141 56.1479 71.1319 56.8006 71.1319 56.8006L72.3463 53.6268Z" fill="#D3C06E"/>
<path d="M57.1702 76.4074C59.5575 78.0044 58.5417 80.792 57.7078 81.7432C54.4234 85.4917 49.0576 94.0411 46.5449 97.7391C45.4609 99.3347 43.256 99.0439 42.4829 98.5069C41.7223 97.9781 40.8064 96.3715 41.6016 94.8662C42.0807 93.9595 52.054 77.2651 52.054 77.2651C52.7442 76.0928 54.6639 74.7307 57.1702 76.4074Z" fill="#D3C06E"/>
<path d="M73.59 89.7473C74.1267 90.4124 77.4461 92.4152 74.5727 96.1907C73.0031 98.2546 70.5751 97.7341 68.9604 96.8246C66.3436 95.3514 59.7785 90.0785 55.03 84.911C54.1975 84.0048 52.6846 82.7096 52.0493 81.8579C49.9549 79.057 51.9023 76.9422 53.1425 76.2102C53.7548 75.8488 55.5419 75.7438 56.8162 76.5313C60.8174 78.9987 71.9411 87.7046 73.59 89.7473Z" fill="#D3C06E"/>
<path d="M48.8762 94.01L43.5781 94.6007C43.5781 94.6007 39.1788 95.2337 36.4607 97.3127C33.7425 99.3917 45.003 98.9289 47.9433 98.7931C48.9517 98.7468 49.0158 96.7329 48.8762 94.01Z" fill="#D3C06E"/>
<path d="M58.4184 75.9232C60.9062 77.3945 60.0446 80.2532 59.2605 81.2558C56.1715 85.2065 51.2622 94.0976 48.9463 97.9557C47.947 99.62 45.7144 99.4517 44.9073 98.955C44.113 98.4661 43.1018 96.9031 43.8159 95.3456C44.2462 94.4076 53.3253 77.0721 53.3253 77.0721C53.9527 75.8548 55.8052 74.379 58.4184 75.9232Z" fill="#D3C06E"/>
<path d="M50.7683 94.636L43.5859 95.1831C43.5859 95.1831 39.1581 95.8206 36.4224 97.9129C33.6868 100.005 45.0201 99.5402 47.9783 99.4026C48.9918 99.3567 50.9088 97.3763 50.7683 94.636Z" fill="#D3C06E"/>
<path d="M41.298 49.3692C41.3661 48.773 42.7773 47.7512 43.3771 47.82C43.935 47.8837 44.8191 49.6618 44.8191 49.6618L42.4866 51.3074C42.4866 51.3074 41.233 49.9334 41.298 49.3692Z" fill="#D3C06E"/>
<path d="M54.5469 63.6547C53.5435 64.6701 51.8854 64.3784 51.1271 63.524C50.5678 62.8938 49.8887 62.2164 48.6572 60.4672C46.1385 56.8898 42.4865 51.3077 42.4865 51.3077L44.8186 49.6621C44.8186 49.6621 50.6281 56.4743 51.65 57.3732C52.4488 58.0772 53.5849 59.0908 54.5524 59.9984C55.1223 60.5323 56.0962 62.0866 54.5469 63.6547Z" fill="#D3C06E"/>
<path d="M67.9237 66.2646C67.6934 65.9949 67.0802 65.3143 65.821 64.6135C64.3127 63.776 58.7082 61.4948 54.039 59.7332C53.6898 59.6011 51.9147 59.2044 51.0343 60.9962C50.6542 61.7695 50.4685 63.1606 51.9939 64.1503C55.4202 66.3756 63.8824 70.7056 66.3605 70.2603C66.7828 70.1881 67.1796 70.0096 67.5131 69.7418C67.8466 69.4741 68.1057 69.1258 68.266 68.7302C68.6396 67.7946 68.4411 66.8659 67.9237 66.2646Z" fill="#D3C06E"/>
<path d="M65.8077 63.4321C65.8077 63.4321 65.5898 63.7811 65.9542 63.8343C66.3186 63.8875 67.0815 63.6967 67.6183 63.5756C69.5145 63.1472 72.1834 62.0222 72.9454 61.4315C73.1122 61.3026 72.7795 61.5182 72.9454 61.8369C73.477 62.8569 73.5936 64.2842 74.4196 66.182C75.6115 68.9151 75.3268 70.6524 75.4825 72.1301C75.84 75.524 76.1542 80.3502 76.0211 82.3802C75.7115 87.1 76.3104 87.1119 76.0211 92.7486C76.0211 92.7486 68.9686 88.7525 63.3351 89.3281C63.3351 89.3281 61.39 84.7619 61.39 81.8376C61.39 78.4134 61.3522 73.4702 61.9783 70.34C62.627 67.0934 63.0421 66.7705 63.6963 65.4276C64.122 64.5516 65.1959 64.2411 65.8077 63.4321Z" fill="#D3C06E"/>
<path d="M69.2393 79.334L69.571 80.4086C69.4625 80.1094 69.3757 79.8028 69.3112 79.4913C69.2784 79.3335 69.2586 79.1482 69.3701 79.0326C69.3802 79.0196 69.3934 79.0094 69.4086 79.0029C69.4238 78.9964 69.4403 78.9938 69.4567 78.9955C69.4808 79.0037 69.5013 79.0199 69.5148 79.0413C69.6133 79.1867 69.6553 79.3628 69.633 79.5367C69.6107 79.7106 69.5256 79.8705 69.3936 79.9866C69.4128 79.9225 69.456 79.8681 69.5143 79.8349C69.5727 79.8016 69.6417 79.7921 69.7069 79.8082C69.7379 79.8192 69.7662 79.8365 69.79 79.8591C69.8138 79.8817 69.8325 79.909 69.845 79.9393C69.8575 79.9696 69.8634 80.0022 69.8624 80.0349C69.8614 80.0676 69.8535 80.0998 69.8391 80.1292C69.8686 80.0196 69.9018 79.9036 69.9856 79.8261C70.0695 79.7486 70.2206 79.7344 70.2892 79.8229C70.5561 79.5147 70.8244 79.208 71.0941 78.9028C71.2671 79.2162 71.3132 79.5836 71.2231 79.9297C71.1537 79.8064 71.1211 79.6659 71.1293 79.5247C71.1375 79.3836 71.186 79.2477 71.2692 79.1331L71.4124 79.394C71.4863 79.3465 71.5484 79.2829 71.5939 79.208C71.6394 79.133 71.6671 79.0488 71.675 78.9615C71.6488 79.0753 71.8183 79.1514 71.9183 79.0913C72.0183 79.0313 72.0533 78.9047 72.0722 78.7896C72.1265 78.452 72.115 78.1071 72.0947 77.7659C72.2023 78.1324 72.3463 78.4873 72.5246 78.8253C72.5064 78.8205 72.4899 78.8109 72.4767 78.7975C72.4636 78.7841 72.4544 78.7674 72.4499 78.7492C73.0051 78.6635 73.543 78.4899 74.0431 78.2351C73.9303 78.2571 73.8216 78.2961 73.7206 78.3506" fill="#D3C06E"/>
<path d="M69.1708 79.3519L69.5025 80.4265L69.6361 80.3908C69.5683 80.2039 69.509 80.0148 69.4583 79.8234C69.4122 79.6487 69.3546 79.4629 69.3505 79.2813C69.3453 79.204 69.3638 79.1269 69.4035 79.0603C69.4108 79.0488 69.421 79.0392 69.4284 79.0281C69.4357 79.0171 69.4574 79.0107 69.4233 79.0203C69.3892 79.03 69.4136 79.0203 69.4187 79.0327C69.4273 79.0432 69.4365 79.0532 69.4463 79.0625C69.4677 79.0913 69.4862 79.122 69.5016 79.1543C69.5629 79.2827 69.5844 79.4264 69.5633 79.567C69.542 79.7338 69.46 79.887 69.333 79.9977L69.4588 79.9798C69.4739 79.9231 69.5097 79.8741 69.5592 79.8422C69.5832 79.8311 69.61 79.8274 69.6361 79.8317C69.6623 79.8359 69.6865 79.8479 69.7057 79.8661C69.7478 79.8978 69.7775 79.9431 69.7897 79.9942C69.8019 80.0454 69.7958 80.0991 69.7725 80.1463L69.9038 80.122C69.9226 80.0276 69.9602 79.9379 70.0144 79.8583C70.0236 79.8394 70.0377 79.8232 70.0553 79.8115C70.0728 79.7998 70.0932 79.793 70.1143 79.7917C70.1353 79.7904 70.1564 79.7947 70.1753 79.8041C70.1941 79.8135 70.2102 79.8278 70.2217 79.8454C70.2461 79.8748 70.3346 79.8381 70.3544 79.8156C70.6188 79.5099 70.8853 79.2053 71.1537 78.902L71.0265 78.9254C71.1977 79.2372 71.2442 79.6018 71.1569 79.9463L71.2891 79.9165C71.2207 79.7939 71.1888 79.6545 71.1969 79.5145C71.2051 79.3745 71.253 79.2397 71.3352 79.1258L71.203 79.1556L71.3463 79.4166C71.3615 79.4441 71.4453 79.4116 71.4637 79.3996C71.5408 79.3499 71.6057 79.2836 71.6535 79.2056C71.7014 79.1275 71.731 79.0398 71.7402 78.9488C71.7402 78.9327 71.613 78.9488 71.6066 78.9841C71.5849 79.1121 71.7448 79.1538 71.8429 79.1391C71.9087 79.1291 71.9698 79.0995 72.0183 79.0541C72.0667 79.0087 72.1002 78.9498 72.1143 78.8851C72.1559 78.7116 72.1763 78.5337 72.1751 78.3553C72.1806 78.1544 72.1718 77.9531 72.1599 77.7527L72.0267 77.7884C72.1346 78.1548 72.2784 78.5096 72.4561 78.8479L72.5777 78.8048C72.5624 78.7993 72.5487 78.7901 72.5378 78.7782C72.5269 78.7662 72.5191 78.7517 72.5151 78.736L72.4354 78.7768C73.008 78.6873 73.5629 78.5085 74.0796 78.2471C74.1294 78.2219 74.0934 78.209 74.0543 78.2168C73.9196 78.2439 73.7895 78.2902 73.6682 78.3544C73.6438 78.3677 73.6539 78.3783 73.6756 78.3815C73.7088 78.382 73.7415 78.3733 73.77 78.3562C73.8511 78.313 73.9382 78.2821 74.0285 78.2645L74.0031 78.2338C73.5188 78.4798 72.9983 78.6481 72.4612 78.7323C72.4524 78.7323 72.3746 78.7516 72.3815 78.7731C72.3876 78.7931 72.3988 78.8112 72.4138 78.8257C72.4289 78.8402 72.4474 78.8507 72.4676 78.8562C72.4842 78.8617 72.6021 78.8378 72.5897 78.8135C72.412 78.4752 72.268 78.1203 72.1599 77.754C72.152 77.7274 72.0249 77.7596 72.0267 77.7898C72.0518 78.0975 72.0487 78.4068 72.0175 78.714C72.0032 78.8305 71.9894 78.9736 71.9051 79.0644C71.896 79.0746 71.8856 79.0835 71.8742 79.091C71.8636 79.0979 71.8632 79.0983 71.8742 79.091H71.8595C71.8372 79.0849 71.8156 79.0766 71.795 79.0662C71.7746 79.0546 71.7584 79.0368 71.7488 79.0155C71.7392 78.9941 71.7367 78.9703 71.7415 78.9474L71.6079 78.9827C71.6 79.0654 71.5737 79.1453 71.531 79.2167C71.4883 79.2881 71.4302 79.3491 71.361 79.3955L71.4789 79.3785L71.3361 79.1208C71.3186 79.0896 71.2182 79.13 71.2034 79.1506C71.1205 79.2663 71.0721 79.4031 71.064 79.5451C71.0558 79.687 71.0882 79.8284 71.1574 79.9528C71.1721 79.978 71.2831 79.9486 71.2901 79.9225C71.3798 79.5747 71.334 79.2061 71.162 78.8906C71.1463 78.8621 71.0505 78.8965 71.0348 78.9139C70.763 79.2212 70.4929 79.53 70.2244 79.8404L70.3571 79.8101C70.2719 79.7083 70.1162 79.7335 70.0079 79.784C69.8633 79.8514 69.813 80.0032 69.7743 80.1468C69.767 80.1738 69.8918 80.1468 69.9056 80.1225C69.9221 80.0892 69.9307 80.0525 69.9306 80.0154C69.9304 79.9783 69.9217 79.9417 69.905 79.9085C69.8883 79.8753 69.8641 79.8464 69.8344 79.8241C69.8046 79.8018 69.77 79.7866 69.7333 79.7799C69.5758 79.7542 69.3781 79.845 69.3293 80.0018C69.3192 80.0349 69.4431 79.9945 69.4551 79.9839C69.5792 79.8754 69.6633 79.7285 69.6938 79.5669C69.7244 79.4052 69.6997 79.238 69.6237 79.0919C69.585 79.0213 69.5435 78.9598 69.4546 78.9726C69.4131 78.9777 69.3735 78.9929 69.3393 79.0169C69.3051 79.0409 69.2775 79.073 69.2588 79.1102C69.1731 79.2795 69.2399 79.496 69.2805 79.6679C69.3406 79.9243 69.4157 80.177 69.5053 80.4247C69.5154 80.4531 69.6467 80.4151 69.6389 80.3889L69.3063 79.3143C69.2975 79.2864 69.1648 79.324 69.1727 79.3501L69.1708 79.3519Z" fill="#D3C06E"/>
<path d="M70.854 80.7471C70.8609 81.0622 70.8867 81.3766 70.9314 81.6887L70.854 80.7471Z" fill="#D3C06E"/>
<path d="M70.7874 80.7645C70.7944 81.0798 70.8204 81.3943 70.8652 81.7065C70.8712 81.7487 71.0035 81.7185 70.9984 81.6708C70.9539 81.3587 70.9282 81.0443 70.9214 80.7291C70.9214 80.6902 70.7869 80.7149 70.7878 80.7645H70.7874Z" fill="#D3C06E"/>
<path d="M71.2949 80.8279L70.8752 81.2407C71.0809 81.32 71.2974 81.3686 71.5174 81.3847" fill="#D3C06E"/>
<path d="M71.2336 80.8279L70.8125 81.2448C70.8019 81.2554 70.8074 81.2664 70.8194 81.271C71.0292 81.3511 71.2496 81.4004 71.4736 81.4173C71.5063 81.4196 71.5389 81.4107 71.5658 81.392C71.5851 81.3769 71.5842 81.3576 71.5561 81.3553C71.34 81.3392 71.1275 81.2916 70.9254 81.2141L70.9328 81.2402L71.3538 80.8233C71.376 80.8013 71.3345 80.7935 71.3202 80.794C71.2875 80.7944 71.256 80.8065 71.2313 80.8279H71.2336Z" fill="#D3C06E"/>
<path d="M71.542 81.2212C71.6199 81.2212 71.6434 81.1199 71.5526 81.1199C71.4752 81.1199 71.4517 81.2212 71.542 81.2212Z" fill="#D3C06E"/>
<path d="M71.6474 80.4948C71.7012 80.7482 71.7822 80.9952 71.8889 81.2314C71.8929 81.2443 71.9016 81.2552 71.9133 81.2621C71.9205 81.2643 71.9281 81.2649 71.9356 81.2639C71.9431 81.2628 71.9502 81.2602 71.9566 81.2561C72.1294 81.175 72.2238 80.9782 72.2358 80.7883C72.2478 80.5985 72.1897 80.4113 72.1363 80.2292" fill="#D3C06E"/>
<path d="M71.5808 80.5124C71.6226 80.7088 71.6805 80.9014 71.754 81.0884C71.7729 81.1366 71.7927 81.1843 71.8139 81.2315C71.8301 81.2673 71.8439 81.2943 71.8858 81.2998C71.9637 81.3099 72.0466 81.254 72.1028 81.2054C72.399 80.9504 72.3004 80.5344 72.2028 80.2115C72.1894 80.1656 72.0563 80.2037 72.0692 80.2473C72.1553 80.5307 72.2535 80.8802 72.0443 81.137C72.0251 81.1604 72.0033 81.1814 71.9793 81.1999C71.9635 81.2084 71.9481 81.2177 71.9333 81.2278C71.9158 81.2361 71.9254 81.2361 71.9623 81.2278C71.9553 81.2175 71.9496 81.2064 71.9452 81.1948C71.9093 81.1187 71.8794 81.0393 71.8531 80.9605C71.7958 80.8022 71.7496 80.6403 71.7149 80.4757C71.7057 80.4298 71.5716 80.4651 71.5813 80.511L71.5808 80.5124Z" fill="#D3C06E"/>
<path d="M72.6108 80.8229C72.6412 80.8229 72.6841 80.8151 72.6984 80.7839C72.7126 80.7527 72.6873 80.7339 72.6592 80.7339C72.6311 80.7339 72.5859 80.7421 72.5717 80.7729C72.5574 80.8036 72.5827 80.8229 72.6108 80.8229Z" fill="#D3C06E"/>
<path d="M72.7568 80.0574C72.825 80.3343 72.9098 80.6069 73.0107 80.8737L72.7568 80.0574Z" fill="#D3C06E"/>
<path d="M72.6899 80.0751C72.7581 80.3521 72.8428 80.6247 72.9437 80.8915C72.958 80.9291 73.0898 80.8915 73.0769 80.8557C72.9764 80.589 72.8918 80.3165 72.8235 80.0398C72.8147 80.0031 72.6807 80.0375 72.6899 80.0751Z" fill="#D3C06E"/>
<path d="M72.7937 80.1165C72.9967 80.2063 73.1835 80.3288 73.3465 80.4792C73.357 80.2054 73.3259 79.9316 73.2544 79.667" fill="#D3C06E"/>
<path d="M72.7416 80.1527C72.94 80.2408 73.1227 80.3603 73.2825 80.5067C73.3125 80.5347 73.4092 80.5251 73.4115 80.4723C73.4221 80.1941 73.3911 79.9159 73.3194 79.6468C73.3046 79.5913 73.171 79.6266 73.1858 79.6826C73.2562 79.9435 73.2872 80.2134 73.2779 80.4833L73.4064 80.4489C73.2413 80.2959 73.0523 80.1708 72.8467 80.0784C72.8314 80.0716 72.8146 80.069 72.7979 80.0707C72.7813 80.0724 72.7654 80.0783 72.7518 80.088C72.7338 80.1008 72.7117 80.1362 72.7425 80.1504L72.7416 80.1527Z" fill="#D3C06E"/>
<path d="M73.5902 80.4797C73.6648 80.4797 73.6939 80.3879 73.6031 80.3879C73.5285 80.3879 73.499 80.4797 73.5902 80.4797Z" fill="#D3C06E"/>
<path d="M74.72 90.3836C75.2194 91.0835 78.4347 93.2932 75.3189 96.916C73.6184 98.895 71.2099 98.229 69.6416 97.2196C67.1009 95.5841 60.8205 89.8961 56.3591 84.4236C55.5759 83.4632 54.1343 82.0694 53.5488 81.1787C51.6138 78.2398 53.6953 76.231 54.9852 75.5687C55.6219 75.2417 57.4237 75.2426 58.6571 76.1085C62.5307 78.825 73.1858 88.233 74.72 90.3836Z" fill="#D3C06E"/>
<path d="M81.2994 97.9808C80.9414 98.4817 79.1709 98.7004 78.6678 98.3432C78.2002 98.0111 78.2923 95.9839 78.2923 95.9839L81.198 95.6597C81.198 95.6597 81.6375 97.5075 81.2994 97.9808Z" fill="#D3C06E"/>
<path d="M76.5388 78.6641C77.9417 78.249 79.2809 79.3272 79.5334 80.4656C79.7209 81.3058 79.9941 82.2465 80.2245 84.419C80.7008 88.8628 81.1952 95.6597 81.1952 95.6597L78.2927 95.984C78.2927 95.984 76.4771 87.025 76.0099 85.7151C75.6446 84.691 75.1318 83.2243 74.7158 81.9346C74.4689 81.176 74.3717 79.3043 76.5388 78.6641Z" fill="#D3C06E"/>
<path d="M70.5552 66.9837C70.5013 67.3428 70.3815 68.2679 70.6814 69.7071C71.0408 71.4288 73.019 77.2746 74.7771 82.0444C74.9088 82.4017 75.7906 84.034 77.7717 83.5121C78.6267 83.2869 79.8315 82.4985 79.5795 80.6612C79.0137 76.5335 76.7125 67.1199 74.7066 65.5088C74.3679 65.2319 73.9636 65.0458 73.5323 64.9684C73.1009 64.8909 72.6569 64.9246 72.2423 65.0662C71.2647 65.4079 70.6759 66.183 70.5552 66.9837Z" fill="#D3C06E"/>
<path d="M65.5009 114C65.5693 114 65.6248 113.943 65.6248 113.873C65.6248 113.802 65.5693 113.745 65.5009 113.745C65.4324 113.745 65.3769 113.802 65.3769 113.873C65.3769 113.943 65.4324 114 65.5009 114Z" fill="#D3C06E"/>
<path d="M71.0735 113.703C71.1406 113.703 71.1951 113.647 71.1951 113.578C71.1951 113.508 71.1406 113.452 71.0735 113.452C71.0063 113.452 70.9518 113.508 70.9518 113.578C70.9518 113.647 71.0063 113.703 71.0735 113.703Z" fill="#D3C06E"/>
<path d="M64.1053 43.5296C64.1053 43.5296 62.8411 47.5261 62.573 50.3413C62.42 51.9465 62.4836 52.9096 62.4915 54.3773C62.4984 55.6913 63.0683 56.8388 63.7736 57.5648C64.5665 58.3812 67.1225 59.0352 66.9649 60.2249C66.934 60.4606 66.2278 62.0814 66.2278 62.0814C66.2278 62.0814 65.6841 63.8243 65.6823 63.8243C65.6805 63.8243 68.0038 65.0965 69.7697 64.6195C71.1642 64.2412 70.5842 62.8804 71.9599 62.6653C73.0812 62.4901 72.8177 61.4233 73.1245 60.6743C73.1821 60.534 73.6451 60.0781 74.925 59.9405C75.0922 59.9226 75.493 59.7172 75.6303 59.5846C77.3851 57.8918 79.8969 56.0866 80.0489 55.5532C81.2882 51.2095 77.6417 45.4916 77.6417 45.4916C77.6417 45.4916 69.4992 39.2106 64.1053 43.5296Z" fill="white" stroke="black" stroke-miterlimit="10"/>
<path d="M71.8681 48.7297C71.8681 48.7297 63.974 49.3993 64.3384 46.3562C64.4232 45.6513 63.1166 46.5397 62.5458 46.0728C62.0035 45.6284 61.4926 44.7225 61.6682 44.0708C61.8437 43.4191 62.3131 42.8747 62.866 42.4583C63.6777 41.8418 65.6136 40.4114 67.256 39.523C67.9678 39.1377 69.5342 38.9625 70.3612 39.007C72.5799 39.1253 74.6236 39.4913 76.5107 40.6393C77.2515 41.0901 77.9564 41.6217 78.4659 42.3051C78.9754 42.9884 78.4659 42.3051 79.2749 43.842C79.2749 43.842 82.2607 46.181 81.9815 50.3445C81.8728 51.9718 81.249 54.137 79.4937 56.2151C74.0717 62.6319 72.357 59.1756 72.357 59.1756C72.357 59.1756 70.5934 57.9772 72.5901 53.7403C73.7229 51.3352 74.5006 51.5755 74.1459 49.8877C74.1334 49.829 73.9063 49.0622 73.2516 48.8741" fill="#999999"/>
<path d="M67.5976 51.7295L67.5236 52.058C67.4327 52.4619 67.6879 52.8627 68.0936 52.9532C68.4993 53.0437 68.9019 52.7896 68.9928 52.3858L69.0667 52.0573C69.1576 51.6534 68.9025 51.2526 68.4968 51.1621C68.0911 51.0716 67.6885 51.3257 67.5976 51.7295Z" fill="#050100"/>
<path d="M62.7311 50.6446L62.6572 50.9731C62.5663 51.3769 62.8215 51.7777 63.2272 51.8682C63.6329 51.9587 64.0354 51.7047 64.1263 51.3008L64.2003 50.9723C64.2912 50.5684 64.036 50.1677 63.6303 50.0772C63.2246 49.9867 62.822 50.2407 62.7311 50.6446Z" fill="#050100"/>
<path d="M72.3463 53.6268C72.3463 53.6268 72.9393 53.4498 73.1429 53.419C73.3889 53.3819 73.552 53.3003 73.9441 53.2883C74.1597 53.2819 74.5716 53.4016 74.7397 53.536C75.0654 53.7956 75.44 54.3395 74.9097 55.0628C74.1141 56.1479 71.1319 56.8006 71.1319 56.8006L72.3463 53.6268Z" fill="white"/>
<path d="M57.1702 76.4074C59.5575 78.0044 58.5417 80.792 57.7078 81.7432C54.4234 85.4917 49.0576 94.0411 46.5449 97.7391C45.4609 99.3347 43.256 99.0439 42.4829 98.5069C41.7223 97.9781 40.8064 96.3715 41.6016 94.8662C42.0807 93.9595 52.054 77.2651 52.054 77.2651C52.7442 76.0928 54.6639 74.7307 57.1702 76.4074Z" fill="#B8B5B5"/>
<path d="M73.59 89.7473C74.1267 90.4124 77.4461 92.4152 74.5727 96.1907C73.0031 98.2546 70.5751 97.7341 68.9604 96.8246C66.3436 95.3514 59.7785 90.0785 55.03 84.911C54.1975 84.0048 52.6846 82.7096 52.0493 81.8579C49.9549 79.057 51.9023 76.9422 53.1425 76.2102C53.7548 75.8488 55.5419 75.7438 56.8162 76.5313C60.8174 78.9987 71.9411 87.7046 73.59 89.7473Z" fill="#B8B5B5"/>
<path d="M48.8762 94.01L43.5781 94.6007C43.5781 94.6007 39.1788 95.2337 36.4607 97.3127C33.7425 99.3917 45.003 98.9289 47.9433 98.7931C48.9517 98.7468 49.0158 96.7329 48.8762 94.01Z" fill="#B8B5B5"/>
<path d="M58.4184 75.9232C60.9062 77.3945 60.0446 80.2532 59.2605 81.2558C56.1715 85.2065 51.2622 94.0976 48.9463 97.9557C47.947 99.62 45.7144 99.4517 44.9073 98.955C44.113 98.4661 43.1018 96.9031 43.8159 95.3456C44.2462 94.4076 53.3253 77.0721 53.3253 77.0721C53.9527 75.8548 55.8052 74.379 58.4184 75.9232Z" fill="white"/>
<path d="M50.7683 94.636L43.5859 95.1831C43.5859 95.1831 39.1581 95.8206 36.4224 97.9129C33.6868 100.005 45.0201 99.5402 47.9783 99.4026C48.9918 99.3567 50.9088 97.3763 50.7683 94.636Z" fill="#999999"/>
<path d="M41.298 49.3692C41.3661 48.773 42.7773 47.7512 43.3771 47.82C43.935 47.8837 44.8191 49.6618 44.8191 49.6618L42.4866 51.3074C42.4866 51.3074 41.233 49.9334 41.298 49.3692Z" fill="#606060"/>
<path d="M54.5469 63.6547C53.5435 64.6701 51.8854 64.3784 51.1271 63.524C50.5678 62.8938 49.8887 62.2164 48.6572 60.4672C46.1385 56.8898 42.4865 51.3077 42.4865 51.3077L44.8186 49.6621C44.8186 49.6621 50.6281 56.4743 51.65 57.3732C52.4488 58.0772 53.5849 59.0908 54.5524 59.9984C55.1223 60.5323 56.0962 62.0866 54.5469 63.6547Z" fill="white"/>
<path d="M67.9237 66.2646C67.6934 65.9949 67.0802 65.3143 65.821 64.6135C64.3127 63.776 58.7082 61.4948 54.039 59.7332C53.6898 59.6011 51.9147 59.2044 51.0343 60.9962C50.6542 61.7695 50.4685 63.1606 51.9939 64.1503C55.4202 66.3756 63.8824 70.7056 66.3605 70.2603C66.7828 70.1881 67.1796 70.0096 67.5131 69.7418C67.8466 69.4741 68.1057 69.1258 68.266 68.7302C68.6396 67.7946 68.4411 66.8659 67.9237 66.2646Z" fill="white"/>
<path d="M65.8077 63.4321C65.8077 63.4321 65.5898 63.7811 65.9542 63.8343C66.3186 63.8875 67.0815 63.6967 67.6183 63.5756C69.5145 63.1472 72.1834 62.0222 72.9454 61.4315C73.1122 61.3026 72.7795 61.5182 72.9454 61.8369C73.477 62.8569 73.5936 64.2842 74.4196 66.182C75.6115 68.9151 75.3268 70.6524 75.4825 72.1301C75.84 75.524 76.1542 80.3502 76.0211 82.3802C75.7115 87.1 76.3104 87.1119 76.0211 92.7486C76.0211 92.7486 68.9686 88.7525 63.3351 89.3281C63.3351 89.3281 61.39 84.7619 61.39 81.8376C61.39 78.4134 61.3522 73.4702 61.9783 70.34C62.627 67.0934 63.0421 66.7705 63.6963 65.4276C64.122 64.5516 65.1959 64.2411 65.8077 63.4321Z" fill="#B8B5B5"/>
<path d="M69.1708 79.3519L69.5025 80.4265L69.6361 80.3908C69.5683 80.2039 69.509 80.0148 69.4583 79.8234C69.4122 79.6487 69.3546 79.4629 69.3505 79.2813C69.3453 79.204 69.3638 79.1269 69.4035 79.0603C69.4108 79.0488 69.421 79.0392 69.4284 79.0281C69.4357 79.0171 69.4574 79.0107 69.4233 79.0203C69.3892 79.03 69.4136 79.0203 69.4187 79.0327C69.4273 79.0432 69.4365 79.0532 69.4463 79.0625C69.4677 79.0913 69.4862 79.122 69.5016 79.1543C69.5629 79.2827 69.5844 79.4264 69.5633 79.567C69.542 79.7338 69.46 79.887 69.333 79.9977L69.4588 79.9798C69.4739 79.9231 69.5097 79.8741 69.5592 79.8422C69.5832 79.8311 69.61 79.8274 69.6361 79.8317C69.6623 79.8359 69.6865 79.8479 69.7057 79.8661C69.7478 79.8978 69.7775 79.9431 69.7897 79.9942C69.8019 80.0454 69.7958 80.0991 69.7725 80.1463L69.9038 80.122C69.9226 80.0276 69.9602 79.9379 70.0144 79.8583C70.0236 79.8394 70.0377 79.8232 70.0553 79.8115C70.0728 79.7998 70.0932 79.793 70.1143 79.7917C70.1353 79.7904 70.1564 79.7947 70.1753 79.8041C70.1941 79.8135 70.2102 79.8278 70.2217 79.8454C70.2461 79.8748 70.3346 79.8381 70.3544 79.8156C70.6188 79.5099 70.8853 79.2053 71.1537 78.902L71.0265 78.9254C71.1977 79.2372 71.2442 79.6018 71.1569 79.9463L71.2891 79.9165C71.2207 79.7939 71.1888 79.6545 71.1969 79.5145C71.2051 79.3745 71.253 79.2397 71.3352 79.1258L71.203 79.1556L71.3463 79.4166C71.3615 79.4441 71.4453 79.4116 71.4637 79.3996C71.5408 79.3499 71.6057 79.2836 71.6535 79.2056C71.7014 79.1275 71.731 79.0398 71.7402 78.9488C71.7402 78.9327 71.613 78.9488 71.6066 78.9841C71.5849 79.1121 71.7448 79.1538 71.8429 79.1391C71.9087 79.1291 71.9698 79.0995 72.0183 79.0541C72.0667 79.0087 72.1002 78.9498 72.1143 78.8851C72.1559 78.7116 72.1763 78.5337 72.1751 78.3553C72.1806 78.1544 72.1718 77.9531 72.1599 77.7527L72.0267 77.7884C72.1346 78.1548 72.2784 78.5096 72.4561 78.8479L72.5777 78.8048C72.5624 78.7993 72.5487 78.7901 72.5378 78.7782C72.5269 78.7662 72.5191 78.7517 72.5151 78.736L72.4354 78.7768C73.008 78.6873 73.5629 78.5085 74.0796 78.2471C74.1294 78.2219 74.0934 78.209 74.0543 78.2168C73.9196 78.2439 73.7895 78.2902 73.6682 78.3544C73.6438 78.3677 73.6539 78.3783 73.6756 78.3815C73.7088 78.382 73.7415 78.3733 73.77 78.3562C73.8511 78.313 73.9382 78.2821 74.0285 78.2645L74.0031 78.2338C73.5188 78.4798 72.9983 78.6481 72.4612 78.7323C72.4524 78.7323 72.3746 78.7516 72.3815 78.7731C72.3876 78.7931 72.3988 78.8112 72.4138 78.8257C72.4289 78.8402 72.4474 78.8507 72.4676 78.8562C72.4842 78.8617 72.6021 78.8378 72.5897 78.8135C72.412 78.4752 72.268 78.1203 72.1599 77.754C72.152 77.7274 72.0249 77.7596 72.0267 77.7898C72.0518 78.0975 72.0487 78.4068 72.0175 78.714C72.0032 78.8305 71.9894 78.9736 71.9051 79.0644C71.896 79.0746 71.8856 79.0835 71.8742 79.091C71.8636 79.0979 71.8632 79.0983 71.8742 79.091H71.8595C71.8372 79.0849 71.8156 79.0766 71.795 79.0662C71.7746 79.0546 71.7584 79.0368 71.7488 79.0155C71.7392 78.9941 71.7367 78.9703 71.7415 78.9474L71.6079 78.9827C71.6 79.0654 71.5737 79.1453 71.531 79.2167C71.4883 79.2881 71.4302 79.3491 71.361 79.3955L71.4789 79.3785L71.3361 79.1208C71.3186 79.0896 71.2182 79.13 71.2034 79.1506C71.1205 79.2663 71.0721 79.4031 71.064 79.5451C71.0558 79.687 71.0882 79.8284 71.1574 79.9528C71.1721 79.978 71.2831 79.9486 71.2901 79.9225C71.3798 79.5747 71.334 79.2061 71.162 78.8906C71.1463 78.8621 71.0505 78.8965 71.0348 78.9139C70.763 79.2212 70.4929 79.53 70.2244 79.8404L70.3571 79.8101C70.2719 79.7083 70.1162 79.7335 70.0079 79.784C69.8633 79.8514 69.813 80.0032 69.7743 80.1468C69.767 80.1738 69.8918 80.1468 69.9056 80.1225C69.9221 80.0892 69.9307 80.0525 69.9306 80.0154C69.9304 79.9783 69.9217 79.9417 69.905 79.9085C69.8883 79.8753 69.8641 79.8464 69.8344 79.8241C69.8046 79.8018 69.77 79.7866 69.7333 79.7799C69.5758 79.7542 69.3781 79.845 69.3293 80.0018C69.3192 80.0349 69.4431 79.9945 69.4551 79.9839C69.5792 79.8754 69.6633 79.7285 69.6938 79.5669C69.7244 79.4052 69.6997 79.238 69.6237 79.0919C69.585 79.0213 69.5435 78.9598 69.4546 78.9726C69.4131 78.9777 69.3735 78.9929 69.3393 79.0169C69.3051 79.0409 69.2775 79.073 69.2588 79.1102C69.1731 79.2795 69.2399 79.496 69.2805 79.6679C69.3406 79.9243 69.4157 80.177 69.5053 80.4247C69.5154 80.4531 69.6467 80.4151 69.6389 80.3889L69.3063 79.3143C69.2975 79.2864 69.1648 79.324 69.1727 79.3501L69.1708 79.3519Z" fill="#35505E"/>
<path d="M70.7874 80.7645C70.7944 81.0798 70.8204 81.3943 70.8652 81.7065C70.8712 81.7487 71.0035 81.7185 70.9984 81.6708C70.9539 81.3587 70.9282 81.0443 70.9214 80.7291C70.9214 80.6902 70.7869 80.7149 70.7878 80.7645H70.7874Z" fill="#35505E"/>
<path d="M71.2336 80.8279L70.8125 81.2448C70.8019 81.2554 70.8074 81.2664 70.8194 81.271C71.0292 81.3511 71.2496 81.4004 71.4736 81.4173C71.5063 81.4196 71.5389 81.4107 71.5658 81.392C71.5851 81.3769 71.5842 81.3576 71.5561 81.3553C71.34 81.3392 71.1275 81.2916 70.9254 81.2141L70.9328 81.2402L71.3538 80.8233C71.376 80.8013 71.3345 80.7935 71.3202 80.794C71.2875 80.7944 71.256 80.8065 71.2313 80.8279H71.2336Z" fill="#35505E"/>
<path d="M71.542 81.2212C71.6199 81.2212 71.6434 81.1199 71.5526 81.1199C71.4752 81.1199 71.4517 81.2212 71.542 81.2212Z" fill="#35505E"/>
<path d="M71.5808 80.5124C71.6226 80.7088 71.6805 80.9014 71.754 81.0884C71.7729 81.1366 71.7927 81.1843 71.8139 81.2315C71.8301 81.2673 71.8439 81.2943 71.8858 81.2998C71.9637 81.3099 72.0466 81.254 72.1028 81.2054C72.399 80.9504 72.3004 80.5344 72.2028 80.2115C72.1894 80.1656 72.0563 80.2037 72.0692 80.2473C72.1553 80.5307 72.2535 80.8802 72.0443 81.137C72.0251 81.1604 72.0033 81.1814 71.9793 81.1999C71.9635 81.2084 71.9481 81.2177 71.9333 81.2278C71.9158 81.2361 71.9254 81.2361 71.9623 81.2278C71.9553 81.2175 71.9496 81.2064 71.9452 81.1948C71.9093 81.1187 71.8794 81.0393 71.8531 80.9605C71.7958 80.8022 71.7496 80.6403 71.7149 80.4757C71.7057 80.4298 71.5716 80.4651 71.5813 80.511L71.5808 80.5124Z" fill="#35505E"/>
<path d="M72.6108 80.8229C72.6412 80.8229 72.6841 80.8151 72.6984 80.7839C72.7126 80.7527 72.6873 80.7339 72.6592 80.7339C72.6311 80.7339 72.5859 80.7421 72.5717 80.7729C72.5574 80.8036 72.5827 80.8229 72.6108 80.8229Z" fill="#35505E"/>
<path d="M72.6899 80.0751C72.7581 80.3521 72.8428 80.6247 72.9437 80.8915C72.958 80.9291 73.0898 80.8915 73.0769 80.8557C72.9764 80.589 72.8918 80.3165 72.8235 80.0398C72.8147 80.0031 72.6807 80.0375 72.6899 80.0751Z" fill="#35505E"/>
<path d="M72.7416 80.1527C72.94 80.2408 73.1227 80.3603 73.2825 80.5067C73.3125 80.5347 73.4092 80.5251 73.4115 80.4723C73.4221 80.1941 73.3911 79.9159 73.3194 79.6468C73.3046 79.5913 73.171 79.6266 73.1858 79.6826C73.2562 79.9435 73.2872 80.2134 73.2779 80.4833L73.4064 80.4489C73.2413 80.2959 73.0523 80.1708 72.8467 80.0784C72.8314 80.0716 72.8146 80.069 72.7979 80.0707C72.7813 80.0724 72.7654 80.0783 72.7518 80.088C72.7338 80.1008 72.7117 80.1362 72.7425 80.1504L72.7416 80.1527Z" fill="#35505E"/>
<path d="M73.5902 80.4797C73.6648 80.4797 73.6939 80.3879 73.6031 80.3879C73.5285 80.3879 73.499 80.4797 73.5902 80.4797Z" fill="#35505E"/>
<path d="M74.72 90.3836C75.2194 91.0835 78.4347 93.2932 75.3189 96.916C73.6184 98.895 71.2099 98.229 69.6416 97.2196C67.1009 95.5841 60.8205 89.8961 56.3591 84.4236C55.5759 83.4632 54.1343 82.0694 53.5488 81.1787C51.6138 78.2398 53.6953 76.231 54.9852 75.5687C55.6219 75.2417 57.4237 75.2426 58.6571 76.1085C62.5307 78.825 73.1858 88.233 74.72 90.3836Z" fill="white"/>
<path d="M81.2994 97.9808C80.9414 98.4817 79.1709 98.7004 78.6678 98.3432C78.2002 98.0111 78.2923 95.9839 78.2923 95.9839L81.198 95.6597C81.198 95.6597 81.6375 97.5075 81.2994 97.9808Z" fill="#999999"/>
<path d="M76.5388 78.6641C77.9417 78.249 79.2809 79.3272 79.5334 80.4656C79.7209 81.3058 79.9941 82.2465 80.2245 84.419C80.7008 88.8628 81.1952 95.6597 81.1952 95.6597L78.2927 95.984C78.2927 95.984 76.4771 87.025 76.0099 85.7151C75.6446 84.691 75.1318 83.2243 74.7158 81.9346C74.4689 81.176 74.3717 79.3043 76.5388 78.6641Z" fill="white"/>
<path d="M70.5552 66.9837C70.5013 67.3428 70.3815 68.2679 70.6814 69.7071C71.0408 71.4288 73.019 77.2746 74.7771 82.0444C74.9088 82.4017 75.7906 84.034 77.7717 83.5121C78.6267 83.2869 79.8315 82.4985 79.5795 80.6612C79.0137 76.5335 76.7125 67.1199 74.7066 65.5088C74.3679 65.2319 73.9636 65.0458 73.5323 64.9684C73.1009 64.8909 72.6569 64.9246 72.2423 65.0662C71.2647 65.4079 70.6759 66.183 70.5552 66.9837Z" fill="white"/>
<path d="M65.5009 114C65.5693 114 65.6248 113.943 65.6248 113.873C65.6248 113.802 65.5693 113.745 65.5009 113.745C65.4324 113.745 65.3769 113.802 65.3769 113.873C65.3769 113.943 65.4324 114 65.5009 114Z" fill="black"/>
<path d="M71.0735 113.703C71.1406 113.703 71.1951 113.647 71.1951 113.578C71.1951 113.508 71.1406 113.452 71.0735 113.452C71.0063 113.452 70.9518 113.508 70.9518 113.578C70.9518 113.647 71.0063 113.703 71.0735 113.703Z" fill="black"/>
</g>
<path d="M36.774 186.074H39.834C41.394 186.074 42.66 186.59 43.632 187.622C44.616 188.654 45.108 189.956 45.108 191.528C45.108 193.1 44.61 194.408 43.614 195.452C42.63 196.484 41.364 197 39.816 197H36.774V186.074ZM38.628 195.326H39.258C41.874 195.326 43.182 194.066 43.182 191.546C43.182 189.014 41.874 187.748 39.258 187.748H38.628V195.326ZM47.4216 193.616C47.4216 194.3 47.5716 194.864 47.8716 195.308C48.1716 195.752 48.5856 195.974 49.1136 195.974C49.9416 195.974 50.4696 195.566 50.6976 194.75L52.3536 195.02C51.8136 196.496 50.7336 197.234 49.1136 197.234C48.0336 197.234 47.1696 196.892 46.5216 196.208C45.8856 195.512 45.5676 194.612 45.5676 193.508C45.5676 192.344 45.8736 191.414 46.4856 190.718C47.1096 190.01 47.9496 189.656 49.0056 189.656C50.0736 189.656 50.9016 189.992 51.4896 190.664C52.0896 191.324 52.3896 192.23 52.3896 193.382V193.616H47.4216ZM50.7696 192.644C50.7696 192.152 50.6136 191.72 50.3016 191.348C50.0016 190.976 49.6056 190.79 49.1136 190.79C48.6336 190.79 48.2376 190.988 47.9256 191.384C47.6256 191.768 47.4756 192.188 47.4756 192.644H50.7696ZM57.1293 191.366C56.7453 191.006 56.3433 190.826 55.9233 190.826C55.2873 190.826 54.9693 191.114 54.9693 191.69C54.9693 192.014 55.2573 192.278 55.8333 192.482C56.8893 192.866 57.5433 193.22 57.7953 193.544C58.0473 193.856 58.1733 194.246 58.1733 194.714C58.1733 195.482 57.9033 196.094 57.3633 196.55C56.8353 197.006 56.1813 197.234 55.4013 197.234C54.3933 197.234 53.5593 196.838 52.8993 196.046L53.6733 195.056C54.2733 195.656 54.8253 195.956 55.3293 195.956C56.0613 195.956 56.4273 195.602 56.4273 194.894C56.4273 194.534 56.2353 194.27 55.8513 194.102C55.4673 193.922 55.1733 193.79 54.9693 193.706C53.8653 193.226 53.3133 192.644 53.3133 191.96C53.3133 191.276 53.5173 190.724 53.9253 190.304C54.3453 189.872 54.8913 189.656 55.5633 189.656C56.5233 189.656 57.2853 189.902 57.8493 190.394L57.1293 191.366ZM61.4147 186.902C61.4147 187.178 61.3127 187.418 61.1087 187.622C60.9047 187.826 60.6647 187.928 60.3887 187.928C60.1127 187.928 59.8727 187.826 59.6687 187.622C59.4647 187.418 59.3627 187.178 59.3627 186.902C59.3627 186.626 59.4647 186.386 59.6687 186.182C59.8727 185.978 60.1127 185.876 60.3887 185.876C60.6647 185.876 60.9047 185.978 61.1087 186.182C61.3127 186.386 61.4147 186.626 61.4147 186.902ZM61.2707 197H59.5247V189.89H61.2707V197ZM69.7146 196.388C69.7146 198.824 68.5806 200.042 66.3126 200.042C65.3046 200.042 64.4526 199.766 63.7566 199.214C63.0606 198.674 62.7126 197.966 62.7126 197.09H64.5666C64.5666 197.438 64.7406 197.78 65.0886 198.116C65.4366 198.452 65.8266 198.62 66.2586 198.62C67.3986 198.62 67.9686 197.936 67.9686 196.568V196.118C67.4766 196.742 66.7266 197.054 65.7186 197.054C64.7226 197.054 63.9366 196.706 63.3606 196.01C62.7966 195.314 62.5146 194.462 62.5146 193.454C62.5146 192.362 62.8206 191.45 63.4326 190.718C64.0446 189.986 64.8366 189.62 65.8086 189.62C66.7926 189.62 67.5126 189.926 67.9686 190.538V189.854H69.7146V196.388ZM68.2206 193.292C68.2206 192.644 68.0406 192.122 67.6806 191.726C67.3206 191.33 66.8466 191.132 66.2586 191.132C65.6706 191.132 65.1906 191.348 64.8186 191.78C64.4586 192.212 64.2786 192.758 64.2786 193.418C64.2786 194.834 64.9386 195.542 66.2586 195.542C66.8586 195.542 67.3326 195.332 67.6806 194.912C68.0406 194.48 68.2206 193.94 68.2206 193.292ZM72.8312 190.538C73.3232 189.95 74.0492 189.656 75.0092 189.656C76.6412 189.656 77.4572 190.658 77.4572 192.662V197H75.7292V193.238C75.7292 191.738 75.2672 190.988 74.3432 190.988C73.3352 190.988 72.8312 191.792 72.8312 193.4V197H71.0852V189.89H72.8312V190.538ZM80.2575 193.616C80.2575 194.3 80.4075 194.864 80.7075 195.308C81.0075 195.752 81.4215 195.974 81.9495 195.974C82.7775 195.974 83.3055 195.566 83.5335 194.75L85.1895 195.02C84.6495 196.496 83.5695 197.234 81.9495 197.234C80.8695 197.234 80.0055 196.892 79.3575 196.208C78.7215 195.512 78.4035 194.612 78.4035 193.508C78.4035 192.344 78.7095 191.414 79.3215 190.718C79.9455 190.01 80.7855 189.656 81.8415 189.656C82.9095 189.656 83.7375 189.992 84.3255 190.664C84.9255 191.324 85.2255 192.23 85.2255 193.382V193.616H80.2575ZM83.6055 192.644C83.6055 192.152 83.4495 191.72 83.1375 191.348C82.8375 190.976 82.4415 190.79 81.9495 190.79C81.4695 190.79 81.0735 190.988 80.7615 191.384C80.4615 191.768 80.3115 192.188 80.3115 192.644H83.6055ZM91.1713 196.334C90.7033 196.934 89.9653 197.234 88.9573 197.234C87.9493 197.234 87.1453 196.85 86.5453 196.082C85.9573 195.314 85.6633 194.414 85.6633 193.382C85.6633 192.35 85.9633 191.474 86.5633 190.754C87.1753 190.022 87.9553 189.656 88.9033 189.656C89.9113 189.656 90.6553 189.95 91.1353 190.538L91.1713 184.706H92.9173V197H91.1713V196.334ZM91.3693 193.436C91.3693 192.812 91.1773 192.278 90.7933 191.834C90.4093 191.39 89.9473 191.168 89.4073 191.168C88.8673 191.168 88.3993 191.39 88.0033 191.834C87.6193 192.266 87.4273 192.806 87.4273 193.454C87.4273 194.09 87.6133 194.63 87.9853 195.074C88.3693 195.506 88.8493 195.722 89.4253 195.722C90.0013 195.722 90.4693 195.512 90.8293 195.092C91.1893 194.66 91.3693 194.108 91.3693 193.436ZM107.138 196.388C107.138 198.824 106.004 200.042 103.736 200.042C102.728 200.042 101.876 199.766 101.18 199.214C100.484 198.674 100.136 197.966 100.136 197.09H101.99C101.99 197.438 102.164 197.78 102.512 198.116C102.86 198.452 103.25 198.62 103.682 198.62C104.822 198.62 105.392 197.936 105.392 196.568V196.118C104.9 196.742 104.15 197.054 103.142 197.054C102.146 197.054 101.36 196.706 100.784 196.01C100.22 195.314 99.9384 194.462 99.9384 193.454C99.9384 192.362 100.244 191.45 100.856 190.718C101.468 189.986 102.26 189.62 103.232 189.62C104.216 189.62 104.936 189.926 105.392 190.538V189.854H107.138V196.388ZM105.644 193.292C105.644 192.644 105.464 192.122 105.104 191.726C104.744 191.33 104.27 191.132 103.682 191.132C103.094 191.132 102.614 191.348 102.242 191.78C101.882 192.212 101.702 192.758 101.702 193.418C101.702 194.834 102.362 195.542 103.682 195.542C104.282 195.542 104.756 195.332 105.104 194.912C105.464 194.48 105.644 193.94 105.644 193.292ZM115.241 197H113.531V196.352C113.027 196.94 112.277 197.234 111.281 197.234C110.285 197.234 109.487 196.85 108.887 196.082C108.299 195.314 108.005 194.414 108.005 193.382C108.005 192.35 108.305 191.474 108.905 190.754C109.517 190.022 110.297 189.656 111.245 189.656C112.253 189.656 113.015 189.956 113.531 190.556V189.89H115.241V197ZM113.729 193.436C113.729 192.776 113.543 192.236 113.171 191.816C112.799 191.384 112.319 191.168 111.731 191.168C111.155 191.168 110.681 191.378 110.309 191.798C109.949 192.206 109.769 192.752 109.769 193.436C109.769 194.12 109.955 194.672 110.327 195.092C110.699 195.512 111.179 195.722 111.767 195.722C112.355 195.722 112.829 195.518 113.189 195.11C113.549 194.702 113.729 194.144 113.729 193.436ZM118.446 190.52C118.89 189.944 119.574 189.656 120.498 189.656C121.302 189.656 121.938 190.028 122.406 190.772C122.862 190.028 123.6 189.656 124.62 189.656C126.12 189.656 126.87 190.628 126.87 192.572V197H125.142V193.256C125.142 191.744 124.728 190.988 123.9 190.988C123.072 190.988 122.658 191.828 122.658 193.508V197H120.912V193.4C120.912 191.792 120.546 190.988 119.814 190.988C118.902 190.988 118.446 191.828 118.446 193.508V197H116.7V189.89H118.446V190.52ZM129.687 193.616C129.687 194.3 129.837 194.864 130.137 195.308C130.437 195.752 130.851 195.974 131.379 195.974C132.207 195.974 132.735 195.566 132.963 194.75L134.619 195.02C134.079 196.496 132.999 197.234 131.379 197.234C130.299 197.234 129.435 196.892 128.787 196.208C128.151 195.512 127.833 194.612 127.833 193.508C127.833 192.344 128.139 191.414 128.751 190.718C129.375 190.01 130.215 189.656 131.271 189.656C132.339 189.656 133.167 189.992 133.755 190.664C134.355 191.324 134.655 192.23 134.655 193.382V193.616H129.687ZM133.035 192.644C133.035 192.152 132.879 191.72 132.567 191.348C132.267 190.976 131.871 190.79 131.379 190.79C130.899 190.79 130.503 190.988 130.191 191.384C129.891 191.768 129.741 192.188 129.741 192.644H133.035ZM146.451 191.744C146.007 191.3 145.509 191.078 144.957 191.078C144.309 191.078 143.799 191.312 143.427 191.78C143.055 192.248 142.869 192.824 142.869 193.508C142.869 194.18 143.079 194.732 143.499 195.164C143.919 195.596 144.429 195.812 145.029 195.812C145.545 195.812 146.019 195.584 146.451 195.128V196.802C145.947 197.09 145.365 197.234 144.705 197.234C143.673 197.234 142.815 196.868 142.131 196.136C141.447 195.404 141.105 194.51 141.105 193.454C141.105 192.398 141.453 191.504 142.149 190.772C142.857 190.028 143.739 189.656 144.795 189.656C145.419 189.656 145.971 189.806 146.451 190.106V191.744ZM149.454 184.706V190.484C149.91 189.932 150.636 189.656 151.632 189.656C152.376 189.656 152.97 189.944 153.414 190.52C153.858 191.096 154.08 191.81 154.08 192.662V197H152.352V193.238C152.352 191.738 151.89 190.988 150.966 190.988C149.958 190.988 149.454 191.816 149.454 193.472V197H147.708V184.706H149.454ZM162.263 197H160.553V196.352C160.049 196.94 159.299 197.234 158.303 197.234C157.307 197.234 156.509 196.85 155.909 196.082C155.321 195.314 155.027 194.414 155.027 193.382C155.027 192.35 155.327 191.474 155.927 190.754C156.539 190.022 157.319 189.656 158.267 189.656C159.275 189.656 160.037 189.956 160.553 190.556V189.89H162.263V197ZM160.751 193.436C160.751 192.776 160.565 192.236 160.193 191.816C159.821 191.384 159.341 191.168 158.753 191.168C158.177 191.168 157.703 191.378 157.331 191.798C156.971 192.206 156.791 192.752 156.791 193.436C156.791 194.12 156.977 194.672 157.349 195.092C157.721 195.512 158.201 195.722 158.789 195.722C159.377 195.722 159.851 195.518 160.211 195.11C160.571 194.702 160.751 194.144 160.751 193.436ZM165.468 190.628C165.912 189.98 166.608 189.656 167.556 189.656C167.856 189.656 168.132 189.716 168.384 189.836L168.168 191.42C167.904 191.252 167.616 191.168 167.304 191.168C166.08 191.168 165.468 192.044 165.468 193.796V197H163.722V189.89H165.468V190.628ZM175.763 197H174.053V196.352C173.549 196.94 172.799 197.234 171.803 197.234C170.807 197.234 170.009 196.85 169.409 196.082C168.821 195.314 168.527 194.414 168.527 193.382C168.527 192.35 168.827 191.474 169.427 190.754C170.039 190.022 170.819 189.656 171.767 189.656C172.775 189.656 173.537 189.956 174.053 190.556V189.89H175.763V197ZM174.251 193.436C174.251 192.776 174.065 192.236 173.693 191.816C173.321 191.384 172.841 191.168 172.253 191.168C171.677 191.168 171.203 191.378 170.831 191.798C170.471 192.206 170.291 192.752 170.291 193.436C170.291 194.12 170.477 194.672 170.849 195.092C171.221 195.512 171.701 195.722 172.289 195.722C172.877 195.722 173.351 195.518 173.711 195.11C174.071 194.702 174.251 194.144 174.251 193.436ZM182.064 191.744C181.62 191.3 181.122 191.078 180.57 191.078C179.922 191.078 179.412 191.312 179.04 191.78C178.668 192.248 178.482 192.824 178.482 193.508C178.482 194.18 178.692 194.732 179.112 195.164C179.532 195.596 180.042 195.812 180.642 195.812C181.158 195.812 181.632 195.584 182.064 195.128V196.802C181.56 197.09 180.978 197.234 180.318 197.234C179.286 197.234 178.428 196.868 177.744 196.136C177.06 195.404 176.718 194.51 176.718 193.454C176.718 192.398 177.066 191.504 177.762 190.772C178.47 190.028 179.352 189.656 180.408 189.656C181.032 189.656 181.584 189.806 182.064 190.106V191.744ZM185.464 197H183.718V191.456H182.872V190.034H183.718V187.478H185.464V190.034H186.85V191.456H185.464V197ZM188.644 193.616C188.644 194.3 188.794 194.864 189.094 195.308C189.394 195.752 189.808 195.974 190.336 195.974C191.164 195.974 191.692 195.566 191.92 194.75L193.576 195.02C193.036 196.496 191.956 197.234 190.336 197.234C189.256 197.234 188.392 196.892 187.744 196.208C187.108 195.512 186.79 194.612 186.79 193.508C186.79 192.344 187.096 191.414 187.708 190.718C188.332 190.01 189.172 189.656 190.228 189.656C191.296 189.656 192.124 189.992 192.712 190.664C193.312 191.324 193.612 192.23 193.612 193.382V193.616H188.644ZM191.992 192.644C191.992 192.152 191.836 191.72 191.524 191.348C191.224 190.976 190.828 190.79 190.336 190.79C189.856 190.79 189.46 190.988 189.148 191.384C188.848 191.768 188.698 192.188 188.698 192.644H191.992ZM196.3 190.628C196.744 189.98 197.44 189.656 198.388 189.656C198.688 189.656 198.964 189.716 199.216 189.836L199 191.42C198.736 191.252 198.448 191.168 198.136 191.168C196.912 191.168 196.3 192.044 196.3 193.796V197H194.554V189.89H196.3V190.628ZM203.661 191.366C203.277 191.006 202.875 190.826 202.455 190.826C201.819 190.826 201.501 191.114 201.501 191.69C201.501 192.014 201.789 192.278 202.365 192.482C203.421 192.866 204.075 193.22 204.327 193.544C204.579 193.856 204.705 194.246 204.705 194.714C204.705 195.482 204.435 196.094 203.895 196.55C203.367 197.006 202.713 197.234 201.933 197.234C200.925 197.234 200.091 196.838 199.431 196.046L200.205 195.056C200.805 195.656 201.357 195.956 201.861 195.956C202.593 195.956 202.959 195.602 202.959 194.894C202.959 194.534 202.767 194.27 202.383 194.102C201.999 193.922 201.705 193.79 201.501 193.706C200.397 193.226 199.845 192.644 199.845 191.96C199.845 191.276 200.049 190.724 200.457 190.304C200.877 189.872 201.423 189.656 202.095 189.656C203.055 189.656 203.817 189.902 204.381 190.394L203.661 191.366ZM218.548 197H216.838V196.352C216.334 196.94 215.584 197.234 214.588 197.234C213.592 197.234 212.794 196.85 212.194 196.082C211.606 195.314 211.312 194.414 211.312 193.382C211.312 192.35 211.612 191.474 212.212 190.754C212.824 190.022 213.604 189.656 214.552 189.656C215.56 189.656 216.322 189.956 216.838 190.556V189.89H218.548V197ZM217.036 193.436C217.036 192.776 216.85 192.236 216.478 191.816C216.106 191.384 215.626 191.168 215.038 191.168C214.462 191.168 213.988 191.378 213.616 191.798C213.256 192.206 213.076 192.752 213.076 193.436C213.076 194.12 213.262 194.672 213.634 195.092C214.006 195.512 214.486 195.722 215.074 195.722C215.662 195.722 216.136 195.518 216.496 195.11C216.856 194.702 217.036 194.144 217.036 193.436ZM221.753 190.538C222.245 189.95 222.971 189.656 223.931 189.656C225.563 189.656 226.379 190.658 226.379 192.662V197H224.651V193.238C224.651 191.738 224.189 190.988 223.265 190.988C222.257 190.988 221.753 191.792 221.753 193.4V197H220.007V189.89H221.753V190.538ZM232.833 196.334C232.365 196.934 231.627 197.234 230.619 197.234C229.611 197.234 228.807 196.85 228.207 196.082C227.619 195.314 227.325 194.414 227.325 193.382C227.325 192.35 227.625 191.474 228.225 190.754C228.837 190.022 229.617 189.656 230.565 189.656C231.573 189.656 232.317 189.95 232.797 190.538L232.833 184.706H234.579V197H232.833V196.334ZM233.031 193.436C233.031 192.812 232.839 192.278 232.455 191.834C232.071 191.39 231.609 191.168 231.069 191.168C230.529 191.168 230.061 191.39 229.665 191.834C229.281 192.266 229.089 192.806 229.089 193.454C229.089 194.09 229.275 194.63 229.647 195.074C230.031 195.506 230.511 195.722 231.087 195.722C231.663 195.722 232.131 195.512 232.491 195.092C232.851 194.66 233.031 194.108 233.031 193.436ZM38.862 204.902C38.862 205.178 38.76 205.418 38.556 205.622C38.352 205.826 38.112 205.928 37.836 205.928C37.56 205.928 37.32 205.826 37.116 205.622C36.912 205.418 36.81 205.178 36.81 204.902C36.81 204.626 36.912 204.386 37.116 204.182C37.32 203.978 37.56 203.876 37.836 203.876C38.112 203.876 38.352 203.978 38.556 204.182C38.76 204.386 38.862 204.626 38.862 204.902ZM38.718 215H36.972V207.89H38.718V215ZM42.1398 208.538C42.6318 207.95 43.3578 207.656 44.3178 207.656C45.9498 207.656 46.7658 208.658 46.7658 210.662V215H45.0378V211.238C45.0378 209.738 44.5758 208.988 43.6518 208.988C42.6438 208.988 42.1398 209.792 42.1398 211.4V215H40.3938V207.89H42.1398V208.538ZM50.3581 215H48.6121V209.456H47.7661V208.034H48.6121V205.478H50.3581V208.034H51.7441V209.456H50.3581V215ZM53.5388 211.616C53.5388 212.3 53.6888 212.864 53.9888 213.308C54.2888 213.752 54.7028 213.974 55.2308 213.974C56.0588 213.974 56.5868 213.566 56.8148 212.75L58.4708 213.02C57.9308 214.496 56.8508 215.234 55.2308 215.234C54.1508 215.234 53.2868 214.892 52.6388 214.208C52.0028 213.512 51.6848 212.612 51.6848 211.508C51.6848 210.344 51.9908 209.414 52.6028 208.718C53.2268 208.01 54.0668 207.656 55.1228 207.656C56.1908 207.656 57.0188 207.992 57.6068 208.664C58.2068 209.324 58.5068 210.23 58.5068 211.382V211.616H53.5388ZM56.8868 210.644C56.8868 210.152 56.7308 209.72 56.4188 209.348C56.1188 208.976 55.7228 208.79 55.2308 208.79C54.7508 208.79 54.3548 208.988 54.0428 209.384C53.7428 209.768 53.5928 210.188 53.5928 210.644H56.8868ZM61.1945 208.628C61.6385 207.98 62.3345 207.656 63.2825 207.656C63.5825 207.656 63.8585 207.716 64.1105 207.836L63.8945 209.42C63.6305 209.252 63.3425 209.168 63.0305 209.168C61.8065 209.168 61.1945 210.044 61.1945 211.796V215H59.4485V207.89H61.1945V208.628ZM71.4891 215H69.7791V214.352C69.2751 214.94 68.5251 215.234 67.5291 215.234C66.5331 215.234 65.7351 214.85 65.1351 214.082C64.5471 213.314 64.2531 212.414 64.2531 211.382C64.2531 210.35 64.5531 209.474 65.1531 208.754C65.7651 208.022 66.5451 207.656 67.4931 207.656C68.5011 207.656 69.2631 207.956 69.7791 208.556V207.89H71.4891V215ZM69.9771 211.436C69.9771 210.776 69.7911 210.236 69.4191 209.816C69.0471 209.384 68.5671 209.168 67.9791 209.168C67.4031 209.168 66.9291 209.378 66.5571 209.798C66.1971 210.206 66.0171 210.752 66.0171 211.436C66.0171 212.12 66.2031 212.672 66.5751 213.092C66.9471 213.512 67.4271 213.722 68.0151 213.722C68.6031 213.722 69.0771 213.518 69.4371 213.11C69.7971 212.702 69.9771 212.144 69.9771 211.436ZM77.7905 209.744C77.3465 209.3 76.8485 209.078 76.2965 209.078C75.6485 209.078 75.1385 209.312 74.7665 209.78C74.3945 210.248 74.2085 210.824 74.2085 211.508C74.2085 212.18 74.4185 212.732 74.8385 213.164C75.2585 213.596 75.7685 213.812 76.3685 213.812C76.8845 213.812 77.3585 213.584 77.7905 213.128V214.802C77.2865 215.09 76.7045 215.234 76.0445 215.234C75.0125 215.234 74.1545 214.868 73.4705 214.136C72.7865 213.404 72.4445 212.51 72.4445 211.454C72.4445 210.398 72.7925 209.504 73.4885 208.772C74.1965 208.028 75.0785 207.656 76.1345 207.656C76.7585 207.656 77.3105 207.806 77.7905 208.106V209.744ZM81.1901 215H79.4441V209.456H78.5981V208.034H79.4441V205.478H81.1901V208.034H82.5761V209.456H81.1901V215ZM85.1628 204.902C85.1628 205.178 85.0608 205.418 84.8568 205.622C84.6528 205.826 84.4128 205.928 84.1368 205.928C83.8608 205.928 83.6208 205.826 83.4168 205.622C83.2128 205.418 83.1108 205.178 83.1108 204.902C83.1108 204.626 83.2128 204.386 83.4168 204.182C83.6208 203.978 83.8608 203.876 84.1368 203.876C84.4128 203.876 84.6528 203.978 84.8568 204.182C85.0608 204.386 85.1628 204.626 85.1628 204.902ZM85.0188 215H83.2728V207.89H85.0188V215ZM89.6106 212.39L91.3566 207.89H93.3006L90.0246 215.144H88.9806L85.7226 207.89H87.6486L89.6106 212.39ZM95.111 211.616C95.111 212.3 95.261 212.864 95.561 213.308C95.861 213.752 96.275 213.974 96.803 213.974C97.631 213.974 98.159 213.566 98.387 212.75L100.043 213.02C99.503 214.496 98.423 215.234 96.803 215.234C95.723 215.234 94.859 214.892 94.211 214.208C93.575 213.512 93.257 212.612 93.257 211.508C93.257 210.344 93.563 209.414 94.175 208.718C94.799 208.01 95.639 207.656 96.695 207.656C97.763 207.656 98.591 207.992 99.179 208.664C99.779 209.324 100.079 210.23 100.079 211.382V211.616H95.111ZM98.459 210.644C98.459 210.152 98.303 209.72 97.991 209.348C97.691 208.976 97.295 208.79 96.803 208.79C96.323 208.79 95.927 208.988 95.615 209.384C95.315 209.768 95.165 210.188 95.165 210.644H98.459ZM114.017 211.436C114.017 212.552 113.675 213.464 112.991 214.172C112.307 214.88 111.407 215.234 110.291 215.234C109.187 215.234 108.287 214.88 107.591 214.172C106.895 213.464 106.547 212.558 106.547 211.454C106.547 210.338 106.889 209.426 107.573 208.718C108.257 208.01 109.157 207.656 110.273 207.656C111.389 207.656 112.289 208.01 112.973 208.718C113.669 209.414 114.017 210.32 114.017 211.436ZM108.311 211.472C108.311 212.132 108.497 212.672 108.869 213.092C109.241 213.512 109.721 213.722 110.309 213.722C110.897 213.722 111.365 213.5 111.713 213.056C112.073 212.6 112.253 212.066 112.253 211.454C112.253 210.83 112.073 210.296 111.713 209.852C111.353 209.396 110.879 209.168 110.291 209.168C109.715 209.168 109.241 209.384 108.869 209.816C108.497 210.248 108.311 210.8 108.311 211.472ZM114.978 202.706H116.724V208.538C117.228 207.95 117.978 207.656 118.974 207.656C119.91 207.656 120.684 208.028 121.296 208.772C121.92 209.516 122.232 210.392 122.232 211.4C122.232 212.492 121.926 213.404 121.314 214.136C120.702 214.868 119.91 215.234 118.938 215.234C117.894 215.234 117.168 214.934 116.76 214.334L116.724 215H114.978V202.706ZM120.45 211.436C120.45 210.836 120.264 210.308 119.892 209.852C119.52 209.396 119.046 209.168 118.47 209.168C117.894 209.168 117.426 209.396 117.066 209.852C116.706 210.296 116.526 210.83 116.526 211.454C116.526 212.066 116.712 212.6 117.084 213.056C117.468 213.5 117.936 213.722 118.488 213.722C119.088 213.722 119.562 213.506 119.91 213.074C120.27 212.63 120.45 212.084 120.45 211.436ZM125.167 218.798H123.421V207.89H125.167V218.798ZM125.311 204.902C125.311 205.178 125.209 205.418 125.005 205.622C124.801 205.826 124.561 205.928 124.285 205.928C124.009 205.928 123.769 205.826 123.565 205.622C123.361 205.418 123.259 205.178 123.259 204.902C123.259 204.626 123.361 204.386 123.565 204.182C123.769 203.978 124.009 203.876 124.285 203.876C124.561 203.876 124.801 203.978 125.005 204.182C125.209 204.386 125.311 204.626 125.311 204.902ZM128.193 211.616C128.193 212.3 128.343 212.864 128.643 213.308C128.943 213.752 129.357 213.974 129.885 213.974C130.713 213.974 131.241 213.566 131.469 212.75L133.125 213.02C132.585 214.496 131.505 215.234 129.885 215.234C128.805 215.234 127.941 214.892 127.293 214.208C126.657 213.512 126.339 212.612 126.339 211.508C126.339 210.344 126.645 209.414 127.257 208.718C127.881 208.01 128.721 207.656 129.777 207.656C130.845 207.656 131.673 207.992 132.261 208.664C132.861 209.324 133.161 210.23 133.161 211.382V211.616H128.193ZM131.541 210.644C131.541 210.152 131.385 209.72 131.073 209.348C130.773 208.976 130.377 208.79 129.885 208.79C129.405 208.79 129.009 208.988 128.697 209.384C128.397 209.768 128.247 210.188 128.247 210.644H131.541ZM138.945 209.744C138.501 209.3 138.003 209.078 137.451 209.078C136.803 209.078 136.293 209.312 135.921 209.78C135.549 210.248 135.363 210.824 135.363 211.508C135.363 212.18 135.573 212.732 135.993 213.164C136.413 213.596 136.923 213.812 137.523 213.812C138.039 213.812 138.513 213.584 138.945 213.128V214.802C138.441 215.09 137.859 215.234 137.199 215.234C136.167 215.234 135.309 214.868 134.625 214.136C133.941 213.404 133.599 212.51 133.599 211.454C133.599 210.398 133.947 209.504 134.643 208.772C135.351 208.028 136.233 207.656 137.289 207.656C137.913 207.656 138.465 207.806 138.945 208.106V209.744ZM142.344 215H140.598V209.456H139.752V208.034H140.598V205.478H142.344V208.034H143.73V209.456H142.344V215ZM152.149 215H150.403V209.456H149.575V208.034H150.403V205.802C150.403 203.63 151.249 202.544 152.941 202.544C153.289 202.544 153.613 202.622 153.913 202.778V204.29C153.601 204.134 153.325 204.056 153.085 204.056C152.761 204.056 152.521 204.176 152.365 204.416C152.221 204.644 152.149 205.202 152.149 206.09V208.034H153.913V209.456H152.149V215ZM161.565 211.436C161.565 212.552 161.223 213.464 160.539 214.172C159.855 214.88 158.955 215.234 157.839 215.234C156.735 215.234 155.835 214.88 155.139 214.172C154.443 213.464 154.095 212.558 154.095 211.454C154.095 210.338 154.437 209.426 155.121 208.718C155.805 208.01 156.705 207.656 157.821 207.656C158.937 207.656 159.837 208.01 160.521 208.718C161.217 209.414 161.565 210.32 161.565 211.436ZM155.859 211.472C155.859 212.132 156.045 212.672 156.417 213.092C156.789 213.512 157.269 213.722 157.857 213.722C158.445 213.722 158.913 213.5 159.261 213.056C159.621 212.6 159.801 212.066 159.801 211.454C159.801 210.83 159.621 210.296 159.261 209.852C158.901 209.396 158.427 209.168 157.839 209.168C157.263 209.168 156.789 209.384 156.417 209.816C156.045 210.248 155.859 210.8 155.859 211.472ZM164.273 208.628C164.717 207.98 165.413 207.656 166.361 207.656C166.661 207.656 166.937 207.716 167.189 207.836L166.973 209.42C166.709 209.252 166.421 209.168 166.109 209.168C164.885 209.168 164.273 210.044 164.273 211.796V215H162.527V207.89H164.273V208.628ZM175.989 215H174.243V209.456H173.397V208.034H174.243V205.478H175.989V208.034H177.375V209.456H175.989V215ZM179.566 202.706V208.484C180.022 207.932 180.748 207.656 181.744 207.656C182.488 207.656 183.082 207.944 183.526 208.52C183.97 209.096 184.192 209.81 184.192 210.662V215H182.464V211.238C182.464 209.738 182.002 208.988 181.078 208.988C180.07 208.988 179.566 209.816 179.566 211.472V215H177.82V202.706H179.566ZM186.992 211.616C186.992 212.3 187.142 212.864 187.442 213.308C187.742 213.752 188.156 213.974 188.684 213.974C189.512 213.974 190.04 213.566 190.268 212.75L191.924 213.02C191.384 214.496 190.304 215.234 188.684 215.234C187.604 215.234 186.74 214.892 186.092 214.208C185.456 213.512 185.138 212.612 185.138 211.508C185.138 210.344 185.444 209.414 186.056 208.718C186.68 208.01 187.52 207.656 188.576 207.656C189.644 207.656 190.472 207.992 191.06 208.664C191.66 209.324 191.96 210.23 191.96 211.382V211.616H186.992ZM190.34 210.644C190.34 210.152 190.184 209.72 189.872 209.348C189.572 208.976 189.176 208.79 188.684 208.79C188.204 208.79 187.808 208.988 187.496 209.384C187.196 209.768 187.046 210.188 187.046 210.644H190.34ZM205.681 214.388C205.681 216.824 204.547 218.042 202.279 218.042C201.271 218.042 200.419 217.766 199.723 217.214C199.027 216.674 198.679 215.966 198.679 215.09H200.533C200.533 215.438 200.707 215.78 201.055 216.116C201.403 216.452 201.793 216.62 202.225 216.62C203.365 216.62 203.935 215.936 203.935 214.568V214.118C203.443 214.742 202.693 215.054 201.685 215.054C200.689 215.054 199.903 214.706 199.327 214.01C198.763 213.314 198.481 212.462 198.481 211.454C198.481 210.362 198.787 209.45 199.399 208.718C200.011 207.986 200.803 207.62 201.775 207.62C202.759 207.62 203.479 207.926 203.935 208.538V207.854H205.681V214.388ZM204.187 211.292C204.187 210.644 204.007 210.122 203.647 209.726C203.287 209.33 202.813 209.132 202.225 209.132C201.637 209.132 201.157 209.348 200.785 209.78C200.425 210.212 200.245 210.758 200.245 211.418C200.245 212.834 200.905 213.542 202.225 213.542C202.825 213.542 203.299 213.332 203.647 212.912C204.007 212.48 204.187 211.94 204.187 211.292ZM213.784 215H212.074V214.352C211.57 214.94 210.82 215.234 209.824 215.234C208.828 215.234 208.03 214.85 207.43 214.082C206.842 213.314 206.548 212.414 206.548 211.382C206.548 210.35 206.848 209.474 207.448 208.754C208.06 208.022 208.84 207.656 209.788 207.656C210.796 207.656 211.558 207.956 212.074 208.556V207.89H213.784V215ZM212.272 211.436C212.272 210.776 212.086 210.236 211.714 209.816C211.342 209.384 210.862 209.168 210.274 209.168C209.698 209.168 209.224 209.378 208.852 209.798C208.492 210.206 208.312 210.752 208.312 211.436C208.312 212.12 208.498 212.672 208.87 213.092C209.242 213.512 209.722 213.722 210.31 213.722C210.898 213.722 211.372 213.518 211.732 213.11C212.092 212.702 212.272 212.144 212.272 211.436ZM216.989 208.52C217.433 207.944 218.117 207.656 219.041 207.656C219.845 207.656 220.481 208.028 220.949 208.772C221.405 208.028 222.143 207.656 223.163 207.656C224.663 207.656 225.413 208.628 225.413 210.572V215H223.685V211.256C223.685 209.744 223.271 208.988 222.443 208.988C221.615 208.988 221.201 209.828 221.201 211.508V215H219.455V211.4C219.455 209.792 219.089 208.988 218.357 208.988C217.445 208.988 216.989 209.828 216.989 211.508V215H215.243V207.89H216.989V208.52ZM228.23 211.616C228.23 212.3 228.38 212.864 228.68 213.308C228.98 213.752 229.394 213.974 229.922 213.974C230.75 213.974 231.278 213.566 231.506 212.75L233.162 213.02C232.622 214.496 231.542 215.234 229.922 215.234C228.842 215.234 227.978 214.892 227.33 214.208C226.694 213.512 226.376 212.612 226.376 211.508C226.376 210.344 226.682 209.414 227.294 208.718C227.918 208.01 228.758 207.656 229.814 207.656C230.882 207.656 231.71 207.992 232.298 208.664C232.898 209.324 233.198 210.23 233.198 211.382V211.616H228.23ZM231.578 210.644C231.578 210.152 231.422 209.72 231.11 209.348C230.81 208.976 230.414 208.79 229.922 208.79C229.442 208.79 229.046 208.988 228.734 209.384C228.434 209.768 228.284 210.188 228.284 210.644H231.578ZM42.606 222.074H44.946L40.788 227.114L45.18 233H42.714L38.772 227.582L38.754 233H36.9V222.074H38.754V227.186L42.606 222.074ZM48.3664 231.974C48.3664 232.334 48.2404 232.646 47.9884 232.91C47.7484 233.162 47.4484 233.288 47.0884 233.288C46.7284 233.288 46.4224 233.162 46.1704 232.91C45.9184 232.658 45.7924 232.358 45.7924 232.01C45.7924 231.65 45.9184 231.344 46.1704 231.092C46.4224 230.84 46.7224 230.714 47.0704 230.714C47.4304 230.714 47.7364 230.834 47.9884 231.074C48.2404 231.314 48.3664 231.614 48.3664 231.974ZM49.9036 222.074H51.7576V228.194C51.7576 230.546 52.4956 231.722 53.9716 231.722C55.4476 231.722 56.1856 230.546 56.1856 228.194V222.074H58.0216V228.608C58.0216 231.728 56.6656 233.288 53.9536 233.288C51.2536 233.288 49.9036 231.728 49.9036 228.608V222.074ZM62.1301 231.974C62.1301 232.334 62.0041 232.646 61.7521 232.91C61.5121 233.162 61.2121 233.288 60.8521 233.288C60.4921 233.288 60.1861 233.162 59.9341 232.91C59.6821 232.658 59.5561 232.358 59.5561 232.01C59.5561 231.65 59.6821 231.344 59.9341 231.092C60.1861 230.84 60.4861 230.714 60.8341 230.714C61.1941 230.714 61.5001 230.834 61.7521 231.074C62.0041 231.314 62.1301 231.614 62.1301 231.974ZM63.7213 221.786H65.1253L71.2993 230.012L71.3353 222.074H73.1713V233.216H71.7853L65.5933 225.008L65.5753 233H63.7213V221.786ZM87.4149 233H85.7049V232.352C85.2009 232.94 84.4509 233.234 83.4549 233.234C82.4589 233.234 81.6609 232.85 81.0609 232.082C80.4729 231.314 80.1789 230.414 80.1789 229.382C80.1789 228.35 80.4789 227.474 81.0789 226.754C81.6909 226.022 82.4709 225.656 83.4189 225.656C84.4269 225.656 85.1889 225.956 85.7049 226.556V225.89H87.4149V233ZM85.9029 229.436C85.9029 228.776 85.7169 228.236 85.3449 227.816C84.9729 227.384 84.4929 227.168 83.9049 227.168C83.3289 227.168 82.8549 227.378 82.4829 227.798C82.1229 228.206 81.9429 228.752 81.9429 229.436C81.9429 230.12 82.1289 230.672 82.5009 231.092C82.8729 231.512 83.3529 231.722 83.9409 231.722C84.5289 231.722 85.0029 231.518 85.3629 231.11C85.7229 230.702 85.9029 230.144 85.9029 229.436ZM90.6203 226.538C91.1123 225.95 91.8383 225.656 92.7983 225.656C94.4303 225.656 95.2463 226.658 95.2463 228.662V233H93.5183V229.238C93.5183 227.738 93.0563 226.988 92.1323 226.988C91.1243 226.988 90.6203 227.792 90.6203 229.4V233H88.8743V225.89H90.6203V226.538ZM101.701 232.334C101.233 232.934 100.495 233.234 99.4866 233.234C98.4786 233.234 97.6746 232.85 97.0746 232.082C96.4866 231.314 96.1926 230.414 96.1926 229.382C96.1926 228.35 96.4926 227.474 97.0926 226.754C97.7046 226.022 98.4846 225.656 99.4326 225.656C100.441 225.656 101.185 225.95 101.665 226.538L101.701 220.706H103.447V233H101.701V232.334ZM101.899 229.436C101.899 228.812 101.707 228.278 101.323 227.834C100.939 227.39 100.477 227.168 99.9366 227.168C99.3966 227.168 98.9286 227.39 98.5326 227.834C98.1486 228.266 97.9566 228.806 97.9566 229.454C97.9566 230.09 98.1426 230.63 98.5146 231.074C98.8986 231.506 99.3786 231.722 99.9546 231.722C100.531 231.722 100.999 231.512 101.359 231.092C101.719 230.66 101.899 230.108 101.899 229.436ZM118.208 233H115.922L112.826 228.14L112.808 233H110.954V222.074H113.852C116.288 222.074 117.506 223.172 117.506 225.368C117.506 226.196 117.29 226.886 116.858 227.438C116.438 227.99 115.862 228.308 115.13 228.392L118.208 233ZM112.808 227.384H113.366C114.89 227.384 115.652 226.73 115.652 225.422C115.652 224.162 114.896 223.532 113.384 223.532H112.808V227.384ZM120.336 229.616C120.336 230.3 120.486 230.864 120.786 231.308C121.086 231.752 121.5 231.974 122.028 231.974C122.856 231.974 123.384 231.566 123.612 230.75L125.268 231.02C124.728 232.496 123.648 233.234 122.028 233.234C120.948 233.234 120.084 232.892 119.436 232.208C118.8 231.512 118.482 230.612 118.482 229.508C118.482 228.344 118.788 227.414 119.4 226.718C120.024 226.01 120.864 225.656 121.92 225.656C122.988 225.656 123.816 225.992 124.404 226.664C125.004 227.324 125.304 228.23 125.304 229.382V229.616H120.336ZM123.684 228.644C123.684 228.152 123.528 227.72 123.216 227.348C122.916 226.976 122.52 226.79 122.028 226.79C121.548 226.79 121.152 226.988 120.84 227.384C120.54 227.768 120.39 228.188 120.39 228.644H123.684ZM128.387 233H126.641V227.456H125.795V226.034H126.641V223.478H128.387V226.034H129.773V227.456H128.387V233ZM131.964 226.628C132.408 225.98 133.104 225.656 134.052 225.656C134.352 225.656 134.628 225.716 134.88 225.836L134.664 227.42C134.4 227.252 134.112 227.168 133.8 227.168C132.576 227.168 131.964 228.044 131.964 229.796V233H130.218V225.89H131.964V226.628ZM142.259 233H140.549V232.352C140.045 232.94 139.295 233.234 138.299 233.234C137.303 233.234 136.505 232.85 135.905 232.082C135.317 231.314 135.023 230.414 135.023 229.382C135.023 228.35 135.323 227.474 135.923 226.754C136.535 226.022 137.315 225.656 138.263 225.656C139.271 225.656 140.033 225.956 140.549 226.556V225.89H142.259V233ZM140.747 229.436C140.747 228.776 140.561 228.236 140.189 227.816C139.817 227.384 139.337 227.168 138.749 227.168C138.173 227.168 137.699 227.378 137.327 227.798C136.967 228.206 136.787 228.752 136.787 229.436C136.787 230.12 136.973 230.672 137.345 231.092C137.717 231.512 138.197 231.722 138.785 231.722C139.373 231.722 139.847 231.518 140.207 231.11C140.567 230.702 140.747 230.144 140.747 229.436ZM148.56 227.744C148.116 227.3 147.618 227.078 147.066 227.078C146.418 227.078 145.908 227.312 145.536 227.78C145.164 228.248 144.978 228.824 144.978 229.508C144.978 230.18 145.188 230.732 145.608 231.164C146.028 231.596 146.538 231.812 147.138 231.812C147.654 231.812 148.128 231.584 148.56 231.128V232.802C148.056 233.09 147.474 233.234 146.814 233.234C145.782 233.234 144.924 232.868 144.24 232.136C143.556 231.404 143.214 230.51 143.214 229.454C143.214 228.398 143.562 227.504 144.258 226.772C144.966 226.028 145.848 225.656 146.904 225.656C147.528 225.656 148.08 225.806 148.56 226.106V227.744ZM151.168 229.616C151.168 230.3 151.318 230.864 151.618 231.308C151.918 231.752 152.332 231.974 152.86 231.974C153.688 231.974 154.216 231.566 154.444 230.75L156.1 231.02C155.56 232.496 154.48 233.234 152.86 233.234C151.78 233.234 150.916 232.892 150.268 232.208C149.632 231.512 149.314 230.612 149.314 229.508C149.314 228.344 149.62 227.414 150.232 226.718C150.856 226.01 151.696 225.656 152.752 225.656C153.82 225.656 154.648 225.992 155.236 226.664C155.836 227.324 156.136 228.23 156.136 229.382V229.616H151.168ZM154.516 228.644C154.516 228.152 154.36 227.72 154.048 227.348C153.748 226.976 153.352 226.79 152.86 226.79C152.38 226.79 151.984 226.988 151.672 227.384C151.372 227.768 151.222 228.188 151.222 228.644H154.516ZM159.741 231.974C159.741 232.334 159.615 232.646 159.363 232.91C159.123 233.162 158.823 233.288 158.463 233.288C158.103 233.288 157.797 233.162 157.545 232.91C157.293 232.658 157.167 232.358 157.167 232.01C157.167 231.65 157.293 231.344 157.545 231.092C157.797 230.84 158.097 230.714 158.445 230.714C158.805 230.714 159.111 230.834 159.363 231.074C159.615 231.314 159.741 231.614 159.741 231.974Z" fill="white"/>
<defs>
<clipPath id="clip0">
<rect width="46" height="75" fill="white" transform="translate(36 39)"/>
</clipPath>
</defs>
</svg>
