<svg width="264" height="180" viewBox="0 0 264 180" fill="none" xmlns="http://www.w3.org/2000/svg">
<rect width="264" height="180" transform="matrix(1 0 0 -1 0 180)" fill="black"/>
<path d="M130.205 88.184L126.557 98.192H125.957L122.525 88.136L120.869 98H118.397L120.845 83.048H122.669L126.461 93.056L130.085 83.048H131.933L134.117 98H131.645L130.205 88.184ZM137.833 85.52V89.312H142.729V91.4H137.833V95.912H142.897V98H135.361V83.432H142.897V85.52H137.833ZM144.783 83.048H146.655L154.887 94.016L154.935 83.432H157.383V98.288H155.535L147.279 87.344L147.255 98H144.783V83.048ZM163.895 98H161.663V85.52H158.423V83.432H167.135V85.52H163.895V98ZM167.478 90.752C167.478 88.624 168.158 86.808 169.518 85.304C170.894 83.8 172.622 83.048 174.702 83.048C176.782 83.048 178.502 83.8 179.862 85.304C181.222 86.808 181.902 88.616 181.902 90.728C181.902 92.84 181.222 94.648 179.862 96.152C178.518 97.64 176.798 98.384 174.702 98.384C172.606 98.384 170.878 97.64 169.518 96.152C168.158 94.664 167.478 92.864 167.478 90.752ZM170.046 90.584C170.046 92.008 170.494 93.264 171.39 94.352C172.286 95.424 173.39 95.96 174.702 95.96C176.11 95.96 177.238 95.448 178.086 94.424C178.934 93.384 179.358 92.104 179.358 90.584C179.358 89.144 178.934 87.936 178.086 86.96C177.238 85.968 176.102 85.472 174.678 85.472C173.27 85.472 172.142 85.968 171.294 86.96C170.462 87.952 170.046 89.16 170.046 90.584ZM192.963 98H189.915L185.787 91.52L185.763 98H183.291V83.432H187.155C190.403 83.432 192.027 84.896 192.027 87.824C192.027 88.928 191.739 89.848 191.163 90.584C190.603 91.32 189.835 91.744 188.859 91.856L192.963 98ZM185.763 90.512H186.507C188.539 90.512 189.555 89.64 189.555 87.896C189.555 86.216 188.547 85.376 186.531 85.376H185.763V90.512ZM194.072 83.048H195.944L204.176 94.016L204.224 83.432H206.672V98.288H204.824L196.568 87.344L196.544 98H194.072V83.048ZM211.216 85.52V89.312H216.112V91.4H211.216V95.912H216.28V98H208.744V83.432H216.28V85.52H211.216ZM222.606 98H220.374V85.52H217.134V83.432H225.846V85.52H222.606V98Z" fill="white"/>
<path fill-rule="evenodd" clip-rule="evenodd" d="M61.1802 75.878L40.8095 78.2195L40.6758 77.0564L61.0465 74.7149L61.1802 75.878Z" fill="white"/>
<path fill-rule="evenodd" clip-rule="evenodd" d="M50.4094 98.8243L41.2777 103.039L40.7871 101.976L49.9188 97.7613L50.4094 98.8243Z" fill="white"/>
<path fill-rule="evenodd" clip-rule="evenodd" d="M78.0388 98.1219L82.7217 78.6878L83.8599 78.962L79.1769 98.3962L78.0388 98.1219Z" fill="white"/>
<path fill-rule="evenodd" clip-rule="evenodd" d="M50.4093 98.122H78.0386V99.2927H50.4093V98.122Z" fill="white"/>
<path fill-rule="evenodd" clip-rule="evenodd" d="M49.7078 98.1218L63.5224 74.7072L64.5308 75.3021L50.7161 98.7167L49.7078 98.1218Z" fill="white"/>
<path fill-rule="evenodd" clip-rule="evenodd" d="M49.7073 98.1218L40.5756 78.2194L41.6396 77.7312L50.7713 97.6336L49.7073 98.1218Z" fill="white"/>
<path fill-rule="evenodd" clip-rule="evenodd" d="M78.0394 98.1219L63.5223 75.4097L64.5088 74.7792L79.0258 97.4913L78.0394 98.1219Z" fill="white"/>
<path fill-rule="evenodd" clip-rule="evenodd" d="M78.7419 98.1219L83.659 102.805L82.8516 103.653L77.9345 98.9697L78.7419 98.1219Z" fill="white"/>
<path fill-rule="evenodd" clip-rule="evenodd" d="M78.0389 98.8243L61.6486 115.449L60.8149 114.627L77.2052 98.0023L78.0389 98.8243Z" fill="white"/>
<path fill-rule="evenodd" clip-rule="evenodd" d="M50.4097 98.1219L61.1804 114.98L60.1938 115.611L49.4231 98.7522L50.4097 98.1219Z" fill="white"/>
<path fill-rule="evenodd" clip-rule="evenodd" d="M82.7224 79.156L63.7565 75.4096L63.9834 74.2611L82.9492 78.0074L82.7224 79.156Z" fill="white"/>
<path fill-rule="evenodd" clip-rule="evenodd" d="M61.6488 66.5122L41.7464 78.2195L41.1528 77.2104L61.0553 65.5031L61.6488 66.5122Z" fill="white"/>
<path fill-rule="evenodd" clip-rule="evenodd" d="M61.6486 65.8098L64.2242 74.7073L63.0996 75.0328L60.524 66.1353L61.6486 65.8098Z" fill="white"/>
<path fill-rule="evenodd" clip-rule="evenodd" d="M61.6484 66.7464L46.4289 82.2L45.5947 81.3785L60.8142 65.9249L61.6484 66.7464Z" fill="white"/>
<path fill-rule="evenodd" clip-rule="evenodd" d="M41.2779 77.5171L41.7462 102.805L40.5757 102.827L40.1074 77.5388L41.2779 77.5171Z" fill="white"/>
<path fill-rule="evenodd" clip-rule="evenodd" d="M46.4292 82.2001L41.7462 103.039L40.604 102.782L45.2869 81.9435L46.4292 82.2001Z" fill="white"/>
<path fill-rule="evenodd" clip-rule="evenodd" d="M41.7462 103.039L61.6487 114.512L61.064 115.526L41.1615 104.053L41.7462 103.039Z" fill="white"/>
<path fill-rule="evenodd" clip-rule="evenodd" d="M72.6536 82.6683H45.9609V81.4976H72.6536V82.6683Z" fill="white"/>
<path fill-rule="evenodd" clip-rule="evenodd" d="M83.1901 79.3902L72.8877 82.6682L72.5327 81.5526L82.8351 78.2746L83.1901 79.3902Z" fill="white"/>
<path fill-rule="evenodd" clip-rule="evenodd" d="M82.722 79.3902L61.6488 66.5121L62.2593 65.5132L83.3324 78.3912L82.722 79.3902Z" fill="white"/>
<path fill-rule="evenodd" clip-rule="evenodd" d="M72.8879 82.6682L59.7758 105.615L58.7593 105.034L71.8715 82.0874L72.8879 82.6682Z" fill="white"/>
<path fill-rule="evenodd" clip-rule="evenodd" d="M58.8387 105.381L45.4924 82.4342L46.5044 81.8456L59.8507 104.792L58.8387 105.381Z" fill="white"/>
<path fill-rule="evenodd" clip-rule="evenodd" d="M45.9613 82.6683L41.2784 78.6878L42.0366 77.7958L46.7195 81.7763L45.9613 82.6683Z" fill="white"/>
<path fill-rule="evenodd" clip-rule="evenodd" d="M59.3077 106.083L41.2784 103.741L41.4292 102.58L59.4585 104.922L59.3077 106.083Z" fill="white"/>
<path fill-rule="evenodd" clip-rule="evenodd" d="M83.1926 103.764L59.3075 106.083L59.1943 104.918L83.0794 102.599L83.1926 103.764Z" fill="white"/>
<path fill-rule="evenodd" clip-rule="evenodd" d="M83.6585 78.6877L83.6585 103.039L82.4878 103.039L82.4878 78.6877L83.6585 78.6877Z" fill="white"/>
<path fill-rule="evenodd" clip-rule="evenodd" d="M83.6581 103.741L62.1167 115.449L61.5576 114.42L83.0991 102.713L83.6581 103.741Z" fill="white"/>
<path fill-rule="evenodd" clip-rule="evenodd" d="M60.9461 114.98L58.8388 105.615L59.981 105.358L62.0883 114.723L60.9461 114.98Z" fill="white"/>
<path d="M48.7709 82.2C48.7709 83.7518 47.5129 85.0098 45.9611 85.0098C44.4093 85.0098 43.1514 83.7518 43.1514 82.2C43.1514 80.6482 44.4093 79.3903 45.9611 79.3903C47.5129 79.3903 48.7709 80.6482 48.7709 82.2Z" fill="white"/>
<path d="M66.3314 74.7073C66.3314 76.2591 65.0735 77.5171 63.5217 77.5171C61.9699 77.5171 60.7119 76.2591 60.7119 74.7073C60.7119 73.1556 61.9699 71.8976 63.5217 71.8976C65.0735 71.8976 66.3314 73.1556 66.3314 74.7073Z" fill="white"/>
<path d="M53.2196 98.1219C53.2196 99.6737 51.9616 100.932 50.4099 100.932C48.8581 100.932 47.6001 99.6737 47.6001 98.1219C47.6001 96.5701 48.8581 95.3121 50.4099 95.3121C51.9616 95.3121 53.2196 96.5701 53.2196 98.1219Z" fill="white"/>
<path d="M80.8485 98.1219C80.8485 99.6737 79.5905 100.932 78.0388 100.932C76.487 100.932 75.229 99.6737 75.229 98.1219C75.229 96.5701 76.487 95.3121 78.0388 95.3121C79.5905 95.3121 80.8485 96.5701 80.8485 98.1219Z" fill="white"/>
<path fill-rule="evenodd" clip-rule="evenodd" d="M72.8879 81.9658L83.6587 103.039L82.6162 103.572L71.8455 82.4986L72.8879 81.9658Z" fill="white"/>
<path d="M43.6195 77.517C43.6195 79.0688 42.3615 80.3268 40.8098 80.3268C39.258 80.3268 38 79.0688 38 77.517C38 75.9652 39.258 74.7073 40.8098 74.7073C42.3615 74.7073 43.6195 75.9652 43.6195 77.517Z" fill="white"/>
<path d="M44.0878 102.805C44.0878 104.357 42.8298 105.615 41.278 105.615C39.7262 105.615 38.4683 104.357 38.4683 102.805C38.4683 101.253 39.7262 99.9951 41.278 99.9951C42.8298 99.9951 44.0878 101.253 44.0878 102.805Z" fill="white"/>
<path d="M62.1171 105.615C62.1171 107.166 60.8591 108.424 59.3073 108.424C57.7555 108.424 56.4976 107.166 56.4976 105.615C56.4976 104.063 57.7555 102.805 59.3073 102.805C60.8591 102.805 62.1171 104.063 62.1171 105.615Z" fill="white"/>
<path d="M64.4584 114.981C64.4584 116.532 63.2004 117.79 61.6486 117.79C60.0968 117.79 58.8389 116.532 58.8389 114.981C58.8389 113.429 60.0968 112.171 61.6486 112.171C63.2004 112.171 64.4584 113.429 64.4584 114.981Z" fill="white"/>
<path d="M86.0004 103.039C86.0004 104.591 84.7424 105.849 83.1906 105.849C81.6388 105.849 80.3809 104.591 80.3809 103.039C80.3809 101.487 81.6388 100.229 83.1906 100.229C84.7424 100.229 86.0004 101.487 86.0004 103.039Z" fill="white"/>
<path d="M86.0004 78.6878C86.0004 80.2396 84.7424 81.4976 83.1906 81.4976C81.6388 81.4976 80.3809 80.2396 80.3809 78.6878C80.3809 77.136 81.6388 75.8781 83.1906 75.8781C84.7424 75.8781 86.0004 77.136 86.0004 78.6878Z" fill="white"/>
<path d="M75.2289 82.4341C75.2289 83.9859 73.9709 85.2439 72.4191 85.2439C70.8673 85.2439 69.6094 83.9859 69.6094 82.4341C69.6094 80.8824 70.8673 79.6244 72.4191 79.6244C73.9709 79.6244 75.2289 80.8824 75.2289 82.4341Z" fill="white"/>
<path fill-rule="evenodd" clip-rule="evenodd" d="M72.4191 82.6684L61.1801 66.5123L62.1411 65.8438L73.3801 81.9998L72.4191 82.6684Z" fill="white"/>
<path d="M63.9901 65.8098C63.9901 67.3615 62.7321 68.6195 61.1804 68.6195C59.6286 68.6195 58.3706 67.3615 58.3706 65.8098C58.3706 64.258 59.6286 63 61.1804 63C62.7321 63 63.9901 64.258 63.9901 65.8098Z" fill="white"/>
</svg>
