<svg width="144" height="16" viewBox="0 0 144 16" fill="none" xmlns="http://www.w3.org/2000/svg">
<rect width="144" height="16" fill="black"/>
<path d="M12.244 13H10.466L8.058 9.22L8.044 13H6.602L6.602 4.502H8.856C10.7507 4.502 11.698 5.356 11.698 7.064C11.698 7.708 11.53 8.24467 11.194 8.674C10.8673 9.10333 10.4193 9.35067 9.85 9.416L12.244 13ZM8.044 8.632H8.478C9.66333 8.632 10.256 8.12333 10.256 7.106C10.256 6.126 9.668 5.636 8.492 5.636H8.044V8.632ZM12.8911 4.278H13.9831L18.7851 10.676L18.8131 4.502H20.2411V13.168H19.1631L14.3471 6.784L14.3331 13H12.8911V4.278ZM21.4497 4.278H22.5417L27.3437 10.676L27.3717 4.502H28.7997V13.168H27.7217L22.9057 6.784L22.8917 13L21.4497 13V4.278ZM37.274 13H35.972V5.72H34.082V4.502H39.164V5.72H37.274V13ZM45.412 13H43.634L41.226 9.22L41.212 13H39.77V4.502H42.024C43.9186 4.502 44.866 5.356 44.866 7.064C44.866 7.708 44.698 8.24467 44.362 8.674C44.0353 9.10333 43.5873 9.35067 43.018 9.416L45.412 13ZM41.212 8.632H41.646C42.8313 8.632 43.424 8.12333 43.424 7.106C43.424 6.126 42.836 5.636 41.66 5.636H41.212V8.632ZM47.641 11.096L46.885 13H45.359L48.663 4.278H49.951L53.171 13H51.631L50.917 11.096H47.641ZM49.223 6.364L47.991 9.962H50.525L49.223 6.364ZM55.2419 13L53.7999 13V4.502H55.2419V13ZM56.5454 4.278H57.6374L62.4394 10.676L62.4674 4.502H63.8954V13.168H62.8174L58.0014 6.784L57.9874 13H56.5454V4.278ZM66.658 13H65.216V4.502H66.658V13ZM67.9614 4.278H69.0534L73.8554 10.676L73.8834 4.502H75.3114V13.168H74.2334L69.4174 6.784L69.4034 13H67.9614V4.278ZM84.038 8.478V8.688C84.038 10.0413 83.6926 11.138 83.002 11.978C82.3113 12.8087 81.364 13.224 80.16 13.224C78.9933 13.224 78.0273 12.7947 77.262 11.936C76.4966 11.0773 76.114 10.0273 76.114 8.786C76.114 7.498 76.5013 6.42467 77.276 5.566C78.06 4.70733 79.0586 4.278 80.272 4.278C81.84 4.278 82.96 4.95467 83.632 6.308L82.344 6.994C81.9146 6.014 81.21 5.524 80.23 5.524C79.474 5.524 78.8486 5.85067 78.354 6.504C77.8593 7.148 77.612 7.91333 77.612 8.8C77.612 9.68667 77.8546 10.438 78.34 11.054C78.8253 11.67 79.4553 11.978 80.23 11.978C80.8926 11.978 81.42 11.7447 81.812 11.278C82.204 10.8113 82.4 10.256 82.4 9.612H80.37V8.478H84.038ZM89.5219 4.502L91.9019 4.502C93.1153 4.502 94.0999 4.90333 94.8559 5.706C95.6213 6.50867 96.0039 7.52133 96.0039 8.744C96.0039 9.96667 95.6166 10.984 94.8419 11.796C94.0766 12.5987 93.0919 13 91.8879 13H89.5219V4.502ZM90.9639 11.698H91.4539C93.4886 11.698 94.5059 10.718 94.5059 8.758C94.5059 6.78867 93.4886 5.804 91.4539 5.804H90.9639V11.698ZM98.3774 11.096L97.6214 13H96.0954L99.3994 4.278H100.687L103.907 13H102.367L101.653 11.096H98.3774ZM99.9594 6.364L98.7274 9.962H101.261L99.9594 6.364ZM107.014 13H105.712V5.72H103.822V4.502H108.904V5.72H107.014V13ZM111.092 11.096L110.336 13H108.81L112.114 4.278H113.402L116.622 13H115.082L114.368 11.096H111.092ZM112.674 6.364L111.442 9.962H113.976L112.674 6.364ZM125.931 6.224C125.567 5.71067 125.105 5.454 124.545 5.454C124.19 5.454 123.892 5.56133 123.649 5.776C123.406 5.99067 123.285 6.28 123.285 6.644C123.285 6.99867 123.724 7.42333 124.601 7.918C125.488 8.41267 125.936 8.66 125.945 8.66C126.57 9.12667 126.883 9.67733 126.883 10.312C126.883 11.18 126.631 11.8847 126.127 12.426C125.632 12.958 124.951 13.224 124.083 13.224C122.982 13.224 122.114 12.6733 121.479 11.572L122.389 10.676C122.51 11.0027 122.734 11.3013 123.061 11.572C123.388 11.8427 123.724 11.978 124.069 11.978C124.48 11.978 124.802 11.838 125.035 11.558C125.278 11.278 125.399 10.9373 125.399 10.536C125.399 10.2467 125.31 9.99467 125.133 9.78C124.956 9.556 124.354 9.22 123.327 8.772C122.31 8.31467 121.801 7.666 121.801 6.826C121.801 6.10733 122.034 5.50533 122.501 5.02C122.977 4.52533 123.57 4.278 124.279 4.278C125.259 4.278 126.034 4.59533 126.603 5.23L125.931 6.224ZM129.177 5.72V7.932H132.033V9.15H129.177V11.782H132.131V13H127.735V4.502H132.131V5.72H129.177ZM135.821 13H134.519V5.72H132.629V4.502H137.711V5.72H135.821V13Z" fill="white"/>
</svg>
