<svg width="264" height="180" viewBox="0 0 264 180" fill="none" xmlns="http://www.w3.org/2000/svg">
<rect width="264" height="180" transform="matrix(1 0 0 -1 0 180)" fill="black"/>
<path d="M136.504 98H134.032V83.432H137.896C141.272 83.432 142.96 84.936 142.96 87.944C142.96 91.016 141.408 92.552 138.304 92.552H136.504V98ZM136.504 90.584H137.728C139.536 90.584 140.44 89.704 140.44 87.944C140.44 86.248 139.512 85.4 137.656 85.4H136.504V90.584ZM146.699 95.912H151.091V98H144.227V83.432H146.699V95.912ZM154.721 94.736L153.425 98H150.809L156.473 83.048H158.681L164.201 98H161.561L160.337 94.736H154.721ZM157.433 86.624L155.321 92.792H159.665L157.433 86.624ZM167.751 98H165.279V83.432H167.751V98ZM169.985 83.048H171.857L180.089 94.016L180.137 83.432H182.585V98.288H180.737L172.481 87.344L172.457 98H169.985V83.048ZM191.977 90.752C191.977 88.624 192.657 86.808 194.017 85.304C195.393 83.8 197.121 83.048 199.201 83.048C201.281 83.048 203.001 83.8 204.361 85.304C205.721 86.808 206.401 88.616 206.401 90.728C206.401 92.84 205.721 94.648 204.361 96.152C203.017 97.64 201.297 98.384 199.201 98.384C197.105 98.384 195.377 97.64 194.017 96.152C192.657 94.664 191.977 92.864 191.977 90.752ZM194.545 90.584C194.545 92.008 194.993 93.264 195.889 94.352C196.785 95.424 197.889 95.96 199.201 95.96C200.609 95.96 201.737 95.448 202.585 94.424C203.433 93.384 203.857 92.104 203.857 90.584C203.857 89.144 203.433 87.936 202.585 86.96C201.737 85.968 200.601 85.472 199.177 85.472C197.769 85.472 196.641 85.968 195.793 86.96C194.961 87.952 194.545 89.16 194.545 90.584ZM214.846 86.384C214.222 85.504 213.43 85.064 212.47 85.064C211.862 85.064 211.35 85.248 210.934 85.616C210.518 85.984 210.31 86.48 210.31 87.104C210.31 87.712 211.062 88.44 212.566 89.288C214.086 90.136 214.854 90.56 214.87 90.56C215.942 91.36 216.478 92.304 216.478 93.392C216.478 94.88 216.046 96.088 215.182 97.016C214.334 97.928 213.166 98.384 211.678 98.384C209.79 98.384 208.302 97.44 207.214 95.552L208.774 94.016C208.982 94.576 209.366 95.088 209.926 95.552C210.486 96.016 211.062 96.248 211.654 96.248C212.358 96.248 212.91 96.008 213.31 95.528C213.726 95.048 213.934 94.464 213.934 93.776C213.934 93.28 213.782 92.848 213.478 92.48C213.174 92.096 212.142 91.52 210.382 90.752C208.638 89.968 207.766 88.856 207.766 87.416C207.766 86.184 208.166 85.152 208.966 84.32C209.782 83.472 210.798 83.048 212.014 83.048C213.694 83.048 215.022 83.592 215.998 84.68L214.846 86.384Z" fill="white"/>
<rect x="55" y="62" width="37.1" height="56" rx="6" fill="white"/>
<rect x="57.3999" y="64.3999" width="32.3" height="51.2" rx="4" fill="white" stroke="black" stroke-width="2"/>
<circle cx="73.8" cy="110.8" r="2.8" fill="black"/>
</svg>
