<svg width="312" height="316" viewBox="0 0 312 316" fill="none" xmlns="http://www.w3.org/2000/svg">
<rect width="312" height="316" transform="matrix(1 0 0 -1 0 316)" fill="black"/>
<path d="M37.776 128.912C36.928 127.888 35.864 127.376 34.584 127.376C33.256 127.376 32.144 127.928 31.248 129.032C30.352 130.12 29.904 131.368 29.904 132.776C29.904 134.136 30.344 135.36 31.224 136.448C32.12 137.52 33.232 138.056 34.56 138.056C35.824 138.056 36.896 137.544 37.776 136.52V139.52C36.592 140.096 35.496 140.384 34.488 140.384C32.472 140.384 30.776 139.64 29.4 138.152C28.024 136.664 27.336 134.888 27.336 132.824C27.336 130.68 28.024 128.848 29.4 127.328C30.776 125.808 32.488 125.048 34.536 125.048C35.608 125.048 36.688 125.328 37.776 125.888V128.912ZM38.961 132.752C38.961 130.624 39.641 128.808 41.001 127.304C42.377 125.8 44.105 125.048 46.185 125.048C48.265 125.048 49.985 125.8 51.345 127.304C52.705 128.808 53.385 130.616 53.385 132.728C53.385 134.84 52.705 136.648 51.345 138.152C50.001 139.64 48.281 140.384 46.185 140.384C44.089 140.384 42.361 139.64 41.001 138.152C39.641 136.664 38.961 134.864 38.961 132.752ZM41.529 132.584C41.529 134.008 41.977 135.264 42.873 136.352C43.769 137.424 44.873 137.96 46.185 137.96C47.593 137.96 48.721 137.448 49.569 136.424C50.417 135.384 50.841 134.104 50.841 132.584C50.841 131.144 50.417 129.936 49.569 128.96C48.721 127.968 47.585 127.472 46.161 127.472C44.753 127.472 43.625 127.968 42.777 128.96C41.945 129.952 41.529 131.16 41.529 132.584ZM57.2462 137.912H61.6382V140H54.7742V125.432H57.2462V137.912ZM61.8594 132.752C61.8594 130.624 62.5394 128.808 63.8994 127.304C65.2754 125.8 67.0034 125.048 69.0834 125.048C71.1634 125.048 72.8834 125.8 74.2434 127.304C75.6034 128.808 76.2834 130.616 76.2834 132.728C76.2834 134.84 75.6034 136.648 74.2434 138.152C72.8994 139.64 71.1794 140.384 69.0834 140.384C66.9874 140.384 65.2594 139.64 63.8994 138.152C62.5394 136.664 61.8594 134.864 61.8594 132.752ZM64.4274 132.584C64.4274 134.008 64.8754 135.264 65.7714 136.352C66.6674 137.424 67.7714 137.96 69.0834 137.96C70.4914 137.96 71.6194 137.448 72.4674 136.424C73.3154 135.384 73.7394 134.104 73.7394 132.584C73.7394 131.144 73.3154 129.936 72.4674 128.96C71.6194 127.968 70.4834 127.472 69.0594 127.472C67.6514 127.472 66.5234 127.968 65.6754 128.96C64.8434 129.952 64.4274 131.16 64.4274 132.584ZM87.3446 140H84.2966L80.1686 133.52L80.1446 140H77.6726V125.432H81.5366C84.7846 125.432 86.4086 126.896 86.4086 129.824C86.4086 130.928 86.1206 131.848 85.5446 132.584C84.9846 133.32 84.2166 133.744 83.2406 133.856L87.3446 140ZM80.1446 132.512H80.8886C82.9206 132.512 83.9366 131.64 83.9366 129.896C83.9366 128.216 82.9286 127.376 80.9126 127.376H80.1446V132.512ZM104.51 138.296C103.038 139.576 101.646 140.216 100.334 140.216C99.1175 140.216 98.1335 139.832 97.3815 139.064C96.6455 138.28 96.2775 137.304 96.2775 136.136C96.2775 134.536 96.9095 133.336 98.1735 132.536L99.3735 131.768C98.4935 130.488 98.0535 129.448 98.0535 128.648C98.0535 127.64 98.3815 126.816 99.0375 126.176C99.7095 125.52 100.566 125.192 101.605 125.192C102.662 125.192 103.518 125.52 104.174 126.176C104.846 126.816 105.182 127.656 105.182 128.696C105.182 129.88 104.358 131.016 102.71 132.104L104.846 134.936L106.526 132.992L108.109 134.504L106.31 136.616L108.974 140H105.878L104.51 138.296ZM101.51 130.664L102.038 130.28C102.742 129.8 103.094 129.2 103.094 128.48C103.094 127.408 102.638 126.872 101.726 126.872C100.814 126.872 100.358 127.392 100.358 128.432C100.358 128.8 100.478 129.16 100.718 129.512L101.51 130.664ZM100.598 133.328C99.3655 134.256 98.7495 135.112 98.7495 135.896C98.7495 137.32 99.3895 138.032 100.67 138.032C101.294 138.032 102.094 137.56 103.07 136.616L100.598 133.328ZM120.527 127.52V131.312H125.423V133.4H120.527V137.912H125.591V140H118.055V125.432H125.591V127.52H120.527ZM138.469 130.184L134.821 140.192H134.221L130.789 130.136L129.133 140H126.661L129.109 125.048H130.933L134.725 135.056L138.349 125.048H140.197L142.381 140H139.909L138.469 130.184ZM142.93 132.752C142.93 130.624 143.61 128.808 144.97 127.304C146.346 125.8 148.074 125.048 150.154 125.048C152.234 125.048 153.954 125.8 155.314 127.304C156.674 128.808 157.354 130.616 157.354 132.728C157.354 134.84 156.674 136.648 155.314 138.152C153.97 139.64 152.25 140.384 150.154 140.384C148.058 140.384 146.33 139.64 144.97 138.152C143.61 136.664 142.93 134.864 142.93 132.752ZM145.498 132.584C145.498 134.008 145.946 135.264 146.842 136.352C147.738 137.424 148.842 137.96 150.154 137.96C151.562 137.96 152.69 137.448 153.538 136.424C154.386 135.384 154.81 134.104 154.81 132.584C154.81 131.144 154.386 129.936 153.538 128.96C152.69 127.968 151.554 127.472 150.13 127.472C148.722 127.472 147.594 127.968 146.746 128.96C145.914 129.952 145.498 131.16 145.498 132.584ZM163.183 140H160.951V127.52H157.711V125.432L166.423 125.432V127.52H163.183V140ZM170.126 140H167.654V125.432H170.126V140ZM171.664 132.752C171.664 130.624 172.344 128.808 173.704 127.304C175.08 125.8 176.808 125.048 178.888 125.048C180.968 125.048 182.688 125.8 184.048 127.304C185.408 128.808 186.088 130.616 186.088 132.728C186.088 134.84 185.408 136.648 184.048 138.152C182.704 139.64 180.984 140.384 178.888 140.384C176.792 140.384 175.064 139.64 173.704 138.152C172.344 136.664 171.664 134.864 171.664 132.752ZM174.232 132.584C174.232 134.008 174.68 135.264 175.576 136.352C176.472 137.424 177.576 137.96 178.888 137.96C180.296 137.96 181.424 137.448 182.272 136.424C183.12 135.384 183.544 134.104 183.544 132.584C183.544 131.144 183.12 129.936 182.272 128.96C181.424 127.968 180.288 127.472 178.864 127.472C177.456 127.472 176.328 127.968 175.48 128.96C174.648 129.952 174.232 131.16 174.232 132.584ZM187.477 125.048H189.349L197.581 136.016L197.629 125.432H200.077V140.288H198.229L189.973 129.344L189.949 140H187.477V125.048Z" fill="white"/>
<circle cx="50" cy="56" r="23" fill="url(#paint0_linear)"/>
<path d="M32.716 191.246L35.416 183.074H37.468L33.22 194.288H31.978L27.802 183.074H29.8L32.716 191.246ZM40.1081 183.902C40.1081 184.178 40.0061 184.418 39.8021 184.622C39.5981 184.826 39.3581 184.928 39.0821 184.928C38.8061 184.928 38.5661 184.826 38.3621 184.622C38.1581 184.418 38.0561 184.178 38.0561 183.902C38.0561 183.626 38.1581 183.386 38.3621 183.182C38.5661 182.978 38.8061 182.876 39.0821 182.876C39.3581 182.876 39.5981 182.978 39.8021 183.182C40.0061 183.386 40.1081 183.626 40.1081 183.902ZM39.9641 194H38.2181V186.89H39.9641V194ZM45.4379 188.366C45.0539 188.006 44.6519 187.826 44.2319 187.826C43.5959 187.826 43.2779 188.114 43.2779 188.69C43.2779 189.014 43.5659 189.278 44.1419 189.482C45.1979 189.866 45.8519 190.22 46.1039 190.544C46.3559 190.856 46.4819 191.246 46.4819 191.714C46.4819 192.482 46.2119 193.094 45.6719 193.55C45.1439 194.006 44.4899 194.234 43.7099 194.234C42.7019 194.234 41.8679 193.838 41.2079 193.046L41.9819 192.056C42.5819 192.656 43.1339 192.956 43.6379 192.956C44.3699 192.956 44.7359 192.602 44.7359 191.894C44.7359 191.534 44.5439 191.27 44.1599 191.102C43.7759 190.922 43.4819 190.79 43.2779 190.706C42.1739 190.226 41.6219 189.644 41.6219 188.96C41.6219 188.276 41.8259 187.724 42.2339 187.304C42.6539 186.872 43.1999 186.656 43.8719 186.656C44.8319 186.656 45.5939 186.902 46.1579 187.394L45.4379 188.366ZM49.2913 186.89V190.742C49.2913 192.122 49.7713 192.812 50.7313 192.812C51.6913 192.812 52.1713 192.122 52.1713 190.742V186.89H53.9173V191.066C53.9173 193.178 52.8553 194.234 50.7313 194.234C48.6073 194.234 47.5453 193.178 47.5453 191.066V186.89H49.2913ZM62.0653 194H60.3553V193.352C59.8513 193.94 59.1013 194.234 58.1053 194.234C57.1093 194.234 56.3113 193.85 55.7113 193.082C55.1233 192.314 54.8293 191.414 54.8293 190.382C54.8293 189.35 55.1293 188.474 55.7293 187.754C56.3413 187.022 57.1213 186.656 58.0693 186.656C59.0773 186.656 59.8393 186.956 60.3553 187.556V186.89H62.0653V194ZM60.5533 190.436C60.5533 189.776 60.3673 189.236 59.9953 188.816C59.6233 188.384 59.1433 188.168 58.5553 188.168C57.9793 188.168 57.5053 188.378 57.1333 188.798C56.7733 189.206 56.5933 189.752 56.5933 190.436C56.5933 191.12 56.7793 191.672 57.1513 192.092C57.5233 192.512 58.0033 192.722 58.5913 192.722C59.1793 192.722 59.6533 192.518 60.0133 192.11C60.3733 191.702 60.5533 191.144 60.5533 190.436ZM65.4147 194H63.6687V181.706H65.4147V194ZM69.1296 183.902C69.1296 184.178 69.0276 184.418 68.8236 184.622C68.6196 184.826 68.3796 184.928 68.1036 184.928C67.8276 184.928 67.5876 184.826 67.3836 184.622C67.1796 184.418 67.0776 184.178 67.0776 183.902C67.0776 183.626 67.1796 183.386 67.3836 183.182C67.5876 182.978 67.8276 182.876 68.1036 182.876C68.3796 182.876 68.6196 182.978 68.8236 183.182C69.0276 183.386 69.1296 183.626 69.1296 183.902ZM68.9856 194H67.2396V186.89H68.9856V194ZM76.6734 192.578V194H70.0674L73.9014 188.312H70.4994V186.89H76.7634L72.9834 192.578H76.6734ZM78.9723 190.616C78.9723 191.3 79.1223 191.864 79.4223 192.308C79.7223 192.752 80.1363 192.974 80.6643 192.974C81.4923 192.974 82.0203 192.566 82.2483 191.75L83.9043 192.02C83.3643 193.496 82.2843 194.234 80.6643 194.234C79.5843 194.234 78.7203 193.892 78.0723 193.208C77.4363 192.512 77.1183 191.612 77.1183 190.508C77.1183 189.344 77.4243 188.414 78.0363 187.718C78.6603 187.01 79.5003 186.656 80.5563 186.656C81.6243 186.656 82.4523 186.992 83.0403 187.664C83.6403 188.324 83.9403 189.23 83.9403 190.382V190.616H78.9723ZM82.3203 189.644C82.3203 189.152 82.1643 188.72 81.8523 188.348C81.5523 187.976 81.1563 187.79 80.6643 187.79C80.1843 187.79 79.7883 187.988 79.4763 188.384C79.1763 188.768 79.0263 189.188 79.0263 189.644H82.3203ZM95.7358 188.744C95.2918 188.3 94.7938 188.078 94.2418 188.078C93.5938 188.078 93.0838 188.312 92.7118 188.78C92.3398 189.248 92.1538 189.824 92.1538 190.508C92.1538 191.18 92.3638 191.732 92.7838 192.164C93.2038 192.596 93.7138 192.812 94.3138 192.812C94.8298 192.812 95.3038 192.584 95.7358 192.128V193.802C95.2318 194.09 94.6498 194.234 93.9898 194.234C92.9578 194.234 92.0998 193.868 91.4158 193.136C90.7318 192.404 90.3898 191.51 90.3898 190.454C90.3898 189.398 90.7378 188.504 91.4338 187.772C92.1418 187.028 93.0238 186.656 94.0798 186.656C94.7038 186.656 95.2558 186.806 95.7358 187.106V188.744ZM103.977 190.436C103.977 191.552 103.635 192.464 102.951 193.172C102.267 193.88 101.367 194.234 100.251 194.234C99.1474 194.234 98.2474 193.88 97.5514 193.172C96.8554 192.464 96.5074 191.558 96.5074 190.454C96.5074 189.338 96.8494 188.426 97.5334 187.718C98.2174 187.01 99.1174 186.656 100.233 186.656C101.349 186.656 102.249 187.01 102.933 187.718C103.629 188.414 103.977 189.32 103.977 190.436ZM98.2714 190.472C98.2714 191.132 98.4574 191.672 98.8294 192.092C99.2014 192.512 99.6814 192.722 100.269 192.722C100.857 192.722 101.325 192.5 101.673 192.056C102.033 191.6 102.213 191.066 102.213 190.454C102.213 189.83 102.033 189.296 101.673 188.852C101.313 188.396 100.839 188.168 100.251 188.168C99.6754 188.168 99.2014 188.384 98.8294 188.816C98.4574 189.248 98.2714 189.8 98.2714 190.472ZM106.829 194H105.083V181.706H106.829V194ZM115.386 190.436C115.386 191.552 115.044 192.464 114.36 193.172C113.676 193.88 112.776 194.234 111.66 194.234C110.556 194.234 109.656 193.88 108.96 193.172C108.264 192.464 107.916 191.558 107.916 190.454C107.916 189.338 108.258 188.426 108.942 187.718C109.626 187.01 110.526 186.656 111.642 186.656C112.758 186.656 113.658 187.01 114.342 187.718C115.038 188.414 115.386 189.32 115.386 190.436ZM109.68 190.472C109.68 191.132 109.866 191.672 110.238 192.092C110.61 192.512 111.09 192.722 111.678 192.722C112.266 192.722 112.734 192.5 113.082 192.056C113.442 191.6 113.622 191.066 113.622 190.454C113.622 189.83 113.442 189.296 113.082 188.852C112.722 188.396 112.248 188.168 111.66 188.168C111.084 188.168 110.61 188.384 110.238 188.816C109.866 189.248 109.68 189.8 109.68 190.472ZM118.093 187.628C118.537 186.98 119.233 186.656 120.181 186.656C120.481 186.656 120.757 186.716 121.009 186.836L120.793 188.42C120.529 188.252 120.241 188.168 119.929 188.168C118.705 188.168 118.093 189.044 118.093 190.796V194H116.347V186.89H118.093V187.628ZM125.454 188.366C125.07 188.006 124.668 187.826 124.248 187.826C123.612 187.826 123.294 188.114 123.294 188.69C123.294 189.014 123.582 189.278 124.158 189.482C125.214 189.866 125.868 190.22 126.12 190.544C126.372 190.856 126.498 191.246 126.498 191.714C126.498 192.482 126.228 193.094 125.688 193.55C125.16 194.006 124.506 194.234 123.726 194.234C122.718 194.234 121.884 193.838 121.224 193.046L121.998 192.056C122.598 192.656 123.15 192.956 123.654 192.956C124.386 192.956 124.752 192.602 124.752 191.894C124.752 191.534 124.56 191.27 124.176 191.102C123.792 190.922 123.498 190.79 123.294 190.706C122.19 190.226 121.638 189.644 121.638 188.96C121.638 188.276 121.842 187.724 122.25 187.304C122.67 186.872 123.216 186.656 123.888 186.656C124.848 186.656 125.61 186.902 126.174 187.394L125.454 188.366ZM140.341 194H138.631V193.352C138.127 193.94 137.377 194.234 136.381 194.234C135.385 194.234 134.587 193.85 133.987 193.082C133.399 192.314 133.105 191.414 133.105 190.382C133.105 189.35 133.405 188.474 134.005 187.754C134.617 187.022 135.397 186.656 136.345 186.656C137.353 186.656 138.115 186.956 138.631 187.556V186.89H140.341V194ZM138.829 190.436C138.829 189.776 138.643 189.236 138.271 188.816C137.899 188.384 137.419 188.168 136.831 188.168C136.255 188.168 135.781 188.378 135.409 188.798C135.049 189.206 134.869 189.752 134.869 190.436C134.869 191.12 135.055 191.672 135.427 192.092C135.799 192.512 136.279 192.722 136.867 192.722C137.455 192.722 137.929 192.518 138.289 192.11C138.649 191.702 138.829 191.144 138.829 190.436ZM143.546 187.538C144.038 186.95 144.764 186.656 145.724 186.656C147.356 186.656 148.172 187.658 148.172 189.662V194H146.444V190.238C146.444 188.738 145.982 187.988 145.058 187.988C144.05 187.988 143.546 188.792 143.546 190.4V194H141.8V186.89H143.546V187.538ZM154.626 193.334C154.158 193.934 153.42 194.234 152.412 194.234C151.404 194.234 150.6 193.85 150 193.082C149.412 192.314 149.118 191.414 149.118 190.382C149.118 189.35 149.418 188.474 150.018 187.754C150.63 187.022 151.41 186.656 152.358 186.656C153.366 186.656 154.11 186.95 154.59 187.538L154.626 181.706H156.372V194H154.626V193.334ZM154.824 190.436C154.824 189.812 154.632 189.278 154.248 188.834C153.864 188.39 153.402 188.168 152.862 188.168C152.322 188.168 151.854 188.39 151.458 188.834C151.074 189.266 150.882 189.806 150.882 190.454C150.882 191.09 151.068 191.63 151.44 192.074C151.824 192.506 152.304 192.722 152.88 192.722C153.456 192.722 153.924 192.512 154.284 192.092C154.644 191.66 154.824 191.108 154.824 190.436ZM165.175 190.616C165.175 191.3 165.325 191.864 165.625 192.308C165.925 192.752 166.339 192.974 166.867 192.974C167.695 192.974 168.223 192.566 168.451 191.75L170.107 192.02C169.567 193.496 168.487 194.234 166.867 194.234C165.787 194.234 164.923 193.892 164.275 193.208C163.639 192.512 163.321 191.612 163.321 190.508C163.321 189.344 163.627 188.414 164.239 187.718C164.863 187.01 165.703 186.656 166.759 186.656C167.827 186.656 168.655 186.992 169.243 187.664C169.843 188.324 170.143 189.23 170.143 190.382V190.616H165.175ZM168.523 189.644C168.523 189.152 168.367 188.72 168.055 188.348C167.755 187.976 167.359 187.79 166.867 187.79C166.387 187.79 165.991 187.988 165.679 188.384C165.379 188.768 165.229 189.188 165.229 189.644H168.523ZM172.831 187.52C173.275 186.944 173.959 186.656 174.883 186.656C175.687 186.656 176.323 187.028 176.791 187.772C177.247 187.028 177.985 186.656 179.005 186.656C180.505 186.656 181.255 187.628 181.255 189.572V194H179.527V190.256C179.527 188.744 179.113 187.988 178.285 187.988C177.457 187.988 177.043 188.828 177.043 190.508V194H175.297V190.4C175.297 188.792 174.931 187.988 174.199 187.988C173.287 187.988 172.831 188.828 172.831 190.508V194H171.085V186.89H172.831V187.52ZM189.706 190.436C189.706 191.552 189.364 192.464 188.68 193.172C187.996 193.88 187.096 194.234 185.98 194.234C184.876 194.234 183.976 193.88 183.28 193.172C182.584 192.464 182.236 191.558 182.236 190.454C182.236 189.338 182.578 188.426 183.262 187.718C183.946 187.01 184.846 186.656 185.962 186.656C187.078 186.656 187.978 187.01 188.662 187.718C189.358 188.414 189.706 189.32 189.706 190.436ZM184 190.472C184 191.132 184.186 191.672 184.558 192.092C184.93 192.512 185.41 192.722 185.998 192.722C186.586 192.722 187.054 192.5 187.402 192.056C187.762 191.6 187.942 191.066 187.942 190.454C187.942 189.83 187.762 189.296 187.402 188.852C187.042 188.396 186.568 188.168 185.98 188.168C185.404 188.168 184.93 188.384 184.558 188.816C184.186 189.248 184 189.8 184 190.472ZM192.809 194H191.063V188.456H190.217V187.034H191.063V184.478H192.809V187.034H194.195V188.456H192.809V194ZM196.782 183.902C196.782 184.178 196.68 184.418 196.476 184.622C196.272 184.826 196.032 184.928 195.756 184.928C195.48 184.928 195.24 184.826 195.036 184.622C194.832 184.418 194.73 184.178 194.73 183.902C194.73 183.626 194.832 183.386 195.036 183.182C195.24 182.978 195.48 182.876 195.756 182.876C196.032 182.876 196.272 182.978 196.476 183.182C196.68 183.386 196.782 183.626 196.782 183.902ZM196.638 194H194.892V186.89H196.638V194ZM205.298 190.436C205.298 191.552 204.956 192.464 204.272 193.172C203.588 193.88 202.688 194.234 201.572 194.234C200.468 194.234 199.568 193.88 198.872 193.172C198.176 192.464 197.828 191.558 197.828 190.454C197.828 189.338 198.17 188.426 198.854 187.718C199.538 187.01 200.438 186.656 201.554 186.656C202.67 186.656 203.57 187.01 204.254 187.718C204.95 188.414 205.298 189.32 205.298 190.436ZM199.592 190.472C199.592 191.132 199.778 191.672 200.15 192.092C200.522 192.512 201.002 192.722 201.59 192.722C202.178 192.722 202.646 192.5 202.994 192.056C203.354 191.6 203.534 191.066 203.534 190.454C203.534 189.83 203.354 189.296 202.994 188.852C202.634 188.396 202.16 188.168 201.572 188.168C200.996 188.168 200.522 188.384 200.15 188.816C199.778 189.248 199.592 189.8 199.592 190.472ZM208.005 187.538C208.497 186.95 209.223 186.656 210.183 186.656C211.815 186.656 212.631 187.658 212.631 189.662V194H210.903V190.238C210.903 188.738 210.441 187.988 209.517 187.988C208.509 187.988 208.005 188.792 208.005 190.4V194H206.259V186.89H208.005V187.538ZM217.879 188.366C217.495 188.006 217.093 187.826 216.673 187.826C216.037 187.826 215.719 188.114 215.719 188.69C215.719 189.014 216.007 189.278 216.583 189.482C217.639 189.866 218.293 190.22 218.545 190.544C218.797 190.856 218.923 191.246 218.923 191.714C218.923 192.482 218.653 193.094 218.113 193.55C217.585 194.006 216.931 194.234 216.151 194.234C215.143 194.234 214.309 193.838 213.649 193.046L214.423 192.056C215.023 192.656 215.575 192.956 216.079 192.956C216.811 192.956 217.177 192.602 217.177 191.894C217.177 191.534 216.985 191.27 216.601 191.102C216.217 190.922 215.923 190.79 215.719 190.706C214.615 190.226 214.063 189.644 214.063 188.96C214.063 188.276 214.267 187.724 214.675 187.304C215.095 186.872 215.641 186.656 216.313 186.656C217.273 186.656 218.035 186.902 218.599 187.394L217.879 188.366ZM228.176 183.902C228.176 184.178 228.074 184.418 227.87 184.622C227.666 184.826 227.426 184.928 227.15 184.928C226.874 184.928 226.634 184.826 226.43 184.622C226.226 184.418 226.124 184.178 226.124 183.902C226.124 183.626 226.226 183.386 226.43 183.182C226.634 182.978 226.874 182.876 227.15 182.876C227.426 182.876 227.666 182.978 227.87 183.182C228.074 183.386 228.176 183.626 228.176 183.902ZM228.032 194H226.286V186.89H228.032V194ZM231.454 187.538C231.946 186.95 232.672 186.656 233.632 186.656C235.264 186.656 236.08 187.658 236.08 189.662V194H234.352V190.238C234.352 188.738 233.89 187.988 232.966 187.988C231.958 187.988 231.454 188.792 231.454 190.4V194H229.708V186.89H231.454V187.538ZM36.082 203.684C35.446 202.916 34.648 202.532 33.688 202.532C32.692 202.532 31.858 202.946 31.186 203.774C30.514 204.59 30.178 205.526 30.178 206.582C30.178 207.602 30.508 208.52 31.168 209.336C31.84 210.14 32.674 210.542 33.67 210.542C34.618 210.542 35.422 210.158 36.082 209.39V211.64C35.194 212.072 34.372 212.288 33.616 212.288C32.104 212.288 30.832 211.73 29.8 210.614C28.768 209.498 28.252 208.166 28.252 206.618C28.252 205.01 28.768 203.636 29.8 202.496C30.832 201.356 32.116 200.786 33.652 200.786C34.456 200.786 35.266 200.996 36.082 201.416V203.684ZM39.1848 199.706V205.484C39.6408 204.932 40.3668 204.656 41.3628 204.656C42.1068 204.656 42.7008 204.944 43.1448 205.52C43.5888 206.096 43.8108 206.81 43.8108 207.662V212H42.0828V208.238C42.0828 206.738 41.6208 205.988 40.6968 205.988C39.6888 205.988 39.1848 206.816 39.1848 208.472V212H37.4388V199.706H39.1848ZM47.403 201.902C47.403 202.178 47.301 202.418 47.097 202.622C46.893 202.826 46.653 202.928 46.377 202.928C46.101 202.928 45.861 202.826 45.657 202.622C45.453 202.418 45.351 202.178 45.351 201.902C45.351 201.626 45.453 201.386 45.657 201.182C45.861 200.978 46.101 200.876 46.377 200.876C46.653 200.876 46.893 200.978 47.097 201.182C47.301 201.386 47.403 201.626 47.403 201.902ZM47.259 212H45.513V204.89H47.259V212ZM50.6808 205.538C51.1728 204.95 51.8988 204.656 52.8588 204.656C54.4908 204.656 55.3068 205.658 55.3068 207.662V212H53.5788V208.238C53.5788 206.738 53.1168 205.988 52.1928 205.988C51.1848 205.988 50.6808 206.792 50.6808 208.4V212H48.9348V204.89H50.6808V205.538ZM58.1071 208.616C58.1071 209.3 58.2571 209.864 58.5571 210.308C58.8571 210.752 59.2711 210.974 59.7991 210.974C60.6271 210.974 61.1551 210.566 61.3831 209.75L63.0391 210.02C62.4991 211.496 61.4191 212.234 59.7991 212.234C58.7191 212.234 57.8551 211.892 57.2071 211.208C56.5711 210.512 56.2531 209.612 56.2531 208.508C56.2531 207.344 56.5591 206.414 57.1711 205.718C57.7951 205.01 58.6351 204.656 59.6911 204.656C60.7591 204.656 61.5871 204.992 62.1751 205.664C62.7751 206.324 63.0751 207.23 63.0751 208.382V208.616H58.1071ZM61.4551 207.644C61.4551 207.152 61.2991 206.72 60.9871 206.348C60.6871 205.976 60.2911 205.79 59.7991 205.79C59.3191 205.79 58.9231 205.988 58.6111 206.384C58.3111 206.768 58.1611 207.188 58.1611 207.644H61.4551ZM67.8149 206.366C67.4309 206.006 67.0289 205.826 66.6089 205.826C65.9729 205.826 65.6549 206.114 65.6549 206.69C65.6549 207.014 65.9429 207.278 66.5189 207.482C67.5749 207.866 68.2289 208.22 68.4809 208.544C68.7329 208.856 68.8589 209.246 68.8589 209.714C68.8589 210.482 68.5889 211.094 68.0489 211.55C67.5209 212.006 66.8669 212.234 66.0869 212.234C65.0789 212.234 64.2449 211.838 63.5849 211.046L64.3589 210.056C64.9589 210.656 65.5109 210.956 66.0149 210.956C66.7469 210.956 67.1129 210.602 67.1129 209.894C67.1129 209.534 66.9209 209.27 66.5369 209.102C66.1529 208.922 65.8589 208.79 65.6549 208.706C64.5509 208.226 63.9989 207.644 63.9989 206.96C63.9989 206.276 64.2029 205.724 64.6109 205.304C65.0309 204.872 65.5769 204.656 66.2489 204.656C67.2089 204.656 67.9709 204.902 68.5349 205.394L67.8149 206.366ZM71.3083 208.616C71.3083 209.3 71.4583 209.864 71.7583 210.308C72.0583 210.752 72.4723 210.974 73.0003 210.974C73.8283 210.974 74.3563 210.566 74.5843 209.75L76.2403 210.02C75.7003 211.496 74.6203 212.234 73.0003 212.234C71.9203 212.234 71.0563 211.892 70.4083 211.208C69.7723 210.512 69.4543 209.612 69.4543 208.508C69.4543 207.344 69.7603 206.414 70.3723 205.718C70.9963 205.01 71.8363 204.656 72.8923 204.656C73.9603 204.656 74.7883 204.992 75.3763 205.664C75.9763 206.324 76.2763 207.23 76.2763 208.382V208.616H71.3083ZM74.6563 207.644C74.6563 207.152 74.5003 206.72 74.1883 206.348C73.8883 205.976 73.4923 205.79 73.0003 205.79C72.5203 205.79 72.1243 205.988 71.8123 206.384C71.5123 206.768 71.3623 207.188 71.3623 207.644H74.6563ZM84.9758 205.538C85.4798 204.95 86.2298 204.656 87.2258 204.656C88.1618 204.656 88.9358 205.028 89.5478 205.772C90.1718 206.516 90.4838 207.392 90.4838 208.4C90.4838 209.492 90.1778 210.404 89.5658 211.136C88.9538 211.868 88.1618 212.234 87.1898 212.234C86.1458 212.234 85.4198 211.934 85.0118 211.334L84.9758 215.006H83.2298V204.89H84.9758V205.538ZM88.7018 208.436C88.7018 207.824 88.5278 207.296 88.1798 206.852C87.8318 206.396 87.3518 206.168 86.7398 206.168C86.1758 206.168 85.7078 206.396 85.3358 206.852C84.9638 207.308 84.7778 207.836 84.7778 208.436C84.7778 209.024 84.9758 209.552 85.3718 210.02C85.7678 210.488 86.2238 210.722 86.7398 210.722C87.3518 210.722 87.8318 210.506 88.1798 210.074C88.5278 209.642 88.7018 209.096 88.7018 208.436ZM98.4052 208.436C98.4052 209.552 98.0632 210.464 97.3792 211.172C96.6952 211.88 95.7952 212.234 94.6792 212.234C93.5752 212.234 92.6752 211.88 91.9792 211.172C91.2832 210.464 90.9352 209.558 90.9352 208.454C90.9352 207.338 91.2772 206.426 91.9612 205.718C92.6452 205.01 93.5452 204.656 94.6612 204.656C95.7772 204.656 96.6772 205.01 97.3612 205.718C98.0572 206.414 98.4052 207.32 98.4052 208.436ZM92.6992 208.472C92.6992 209.132 92.8852 209.672 93.2572 210.092C93.6292 210.512 94.1092 210.722 94.6972 210.722C95.2852 210.722 95.7532 210.5 96.1012 210.056C96.4612 209.6 96.6412 209.066 96.6412 208.454C96.6412 207.83 96.4612 207.296 96.1012 206.852C95.7412 206.396 95.2672 206.168 94.6792 206.168C94.1032 206.168 93.6292 206.384 93.2572 206.816C92.8852 207.248 92.6992 207.8 92.6992 208.472ZM100.716 208.616C100.716 209.3 100.866 209.864 101.166 210.308C101.466 210.752 101.88 210.974 102.408 210.974C103.236 210.974 103.764 210.566 103.992 209.75L105.648 210.02C105.108 211.496 104.028 212.234 102.408 212.234C101.328 212.234 100.464 211.892 99.8165 211.208C99.1805 210.512 98.8625 209.612 98.8625 208.508C98.8625 207.344 99.1685 206.414 99.7805 205.718C100.404 205.01 101.244 204.656 102.3 204.656C103.368 204.656 104.196 204.992 104.784 205.664C105.384 206.324 105.684 207.23 105.684 208.382V208.616H100.716ZM104.064 207.644C104.064 207.152 103.908 206.72 103.596 206.348C103.296 205.976 102.9 205.79 102.408 205.79C101.928 205.79 101.532 205.988 101.22 206.384C100.92 206.768 100.77 207.188 100.77 207.644H104.064ZM108.768 212H107.022V206.456H106.176V205.034H107.022V202.478H108.768V205.034H110.154V206.456H108.768V212ZM112.345 205.628C112.789 204.98 113.485 204.656 114.433 204.656C114.733 204.656 115.009 204.716 115.261 204.836L115.045 206.42C114.781 206.252 114.493 206.168 114.181 206.168C112.957 206.168 112.345 207.044 112.345 208.796V212H110.599V204.89H112.345V205.628ZM118.05 201.902C118.05 202.178 117.948 202.418 117.744 202.622C117.54 202.826 117.3 202.928 117.024 202.928C116.748 202.928 116.508 202.826 116.304 202.622C116.1 202.418 115.998 202.178 115.998 201.902C115.998 201.626 116.1 201.386 116.304 201.182C116.508 200.978 116.748 200.876 117.024 200.876C117.3 200.876 117.54 200.978 117.744 201.182C117.948 201.386 118.05 201.626 118.05 201.902ZM117.906 212H116.16V204.89H117.906V212ZM120.931 208.616C120.931 209.3 121.081 209.864 121.381 210.308C121.681 210.752 122.095 210.974 122.623 210.974C123.451 210.974 123.979 210.566 124.207 209.75L125.863 210.02C125.323 211.496 124.243 212.234 122.623 212.234C121.543 212.234 120.679 211.892 120.031 211.208C119.395 210.512 119.077 209.612 119.077 208.508C119.077 207.344 119.383 206.414 119.995 205.718C120.619 205.01 121.459 204.656 122.515 204.656C123.583 204.656 124.411 204.992 124.999 205.664C125.599 206.324 125.899 207.23 125.899 208.382V208.616H120.931ZM124.279 207.644C124.279 207.152 124.123 206.72 123.811 206.348C123.511 205.976 123.115 205.79 122.623 205.79C122.143 205.79 121.747 205.988 121.435 206.384C121.135 206.768 120.985 207.188 120.985 207.644H124.279ZM130.639 206.366C130.255 206.006 129.853 205.826 129.433 205.826C128.797 205.826 128.479 206.114 128.479 206.69C128.479 207.014 128.767 207.278 129.343 207.482C130.399 207.866 131.053 208.22 131.305 208.544C131.557 208.856 131.683 209.246 131.683 209.714C131.683 210.482 131.413 211.094 130.873 211.55C130.345 212.006 129.691 212.234 128.911 212.234C127.903 212.234 127.069 211.838 126.409 211.046L127.183 210.056C127.783 210.656 128.335 210.956 128.839 210.956C129.571 210.956 129.937 210.602 129.937 209.894C129.937 209.534 129.745 209.27 129.361 209.102C128.977 208.922 128.683 208.79 128.479 208.706C127.375 208.226 126.823 207.644 126.823 206.96C126.823 206.276 127.027 205.724 127.435 205.304C127.855 204.872 128.401 204.656 129.073 204.656C130.033 204.656 130.795 204.902 131.359 205.394L130.639 206.366ZM135.447 210.974C135.447 211.334 135.321 211.646 135.069 211.91C134.829 212.162 134.529 212.288 134.169 212.288C133.809 212.288 133.503 212.162 133.25 211.91C132.999 211.658 132.873 211.358 132.873 211.01C132.873 210.65 132.999 210.344 133.25 210.092C133.503 209.84 133.803 209.714 134.151 209.714C134.511 209.714 134.817 209.834 135.069 210.074C135.321 210.314 135.447 210.614 135.447 210.974Z" fill="white"/>
<defs>
<linearGradient id="paint0_linear" x1="50" y1="68" x2="50" y2="20" gradientUnits="userSpaceOnUse">
<stop stop-color="white"/>
<stop offset="1" stop-color="white" stop-opacity="0"/>
</linearGradient>
</defs>
</svg>
