<svg width="53" height="13" viewBox="0 0 53 13" fill="none" xmlns="http://www.w3.org/2000/svg">
<path d="M2.772 12H0.918V1.074H2.772V12ZM4.44783 0.786H5.85183L12.0258 9.012L12.0618 1.074H13.8978V12.216H12.5118L6.31983 4.008L6.30183 12H4.44783V0.786ZM17.3057 2.64V5.484H20.6717V7.05H17.3057V12H15.4517V1.074H20.8877V2.64H17.3057ZM21.6446 6.564C21.6446 4.968 22.1546 3.606 23.1746 2.478C24.2066 1.35 25.5026 0.786 27.0626 0.786C28.6226 0.786 29.9126 1.35 30.9326 2.478C31.9526 3.606 32.4626 4.962 32.4626 6.546C32.4626 8.13 31.9526 9.486 30.9326 10.614C29.9246 11.73 28.6346 12.288 27.0626 12.288C25.4906 12.288 24.1946 11.73 23.1746 10.614C22.1546 9.498 21.6446 8.148 21.6446 6.564ZM23.5706 6.438C23.5706 7.506 23.9066 8.448 24.5786 9.264C25.2506 10.068 26.0786 10.47 27.0626 10.47C28.1186 10.47 28.9646 10.086 29.6006 9.318C30.2366 8.538 30.5546 7.578 30.5546 6.438C30.5546 5.358 30.2366 4.452 29.6006 3.72C28.9646 2.976 28.1126 2.604 27.0446 2.604C25.9886 2.604 25.1426 2.976 24.5066 3.72C23.8826 4.464 23.5706 5.37 23.5706 6.438ZM37.4465 9.246L40.1465 1.074H42.1985L37.9505 12.288H36.7085L32.5325 1.074H34.5305L37.4465 9.246ZM44.7486 12H42.8946V1.074H44.7486V12ZM51.7164 3.288C51.2484 2.628 50.6544 2.298 49.9344 2.298C49.4784 2.298 49.0944 2.436 48.7824 2.712C48.4704 2.988 48.3144 3.36 48.3144 3.828C48.3144 4.284 48.8784 4.83 50.0064 5.466C51.1464 6.102 51.7224 6.42 51.7344 6.42C52.5384 7.02 52.9404 7.728 52.9404 8.544C52.9404 9.66 52.6164 10.566 51.9684 11.262C51.3324 11.946 50.4564 12.288 49.3404 12.288C47.9244 12.288 46.8084 11.58 45.9924 10.164L47.1624 9.012C47.3184 9.432 47.6064 9.816 48.0264 10.164C48.4464 10.512 48.8784 10.686 49.3224 10.686C49.8504 10.686 50.2644 10.506 50.5644 10.146C50.8764 9.786 51.0324 9.348 51.0324 8.832C51.0324 8.46 50.9184 8.136 50.6904 7.86C50.4624 7.572 49.6884 7.14 48.3684 6.564C47.0604 5.976 46.4064 5.142 46.4064 4.062C46.4064 3.138 46.7064 2.364 47.3064 1.74C47.9184 1.104 48.6804 0.786 49.5924 0.786C50.8524 0.786 51.8484 1.194 52.5804 2.01L51.7164 3.288Z" fill="black"/>
</svg>
