<svg width="143" height="13" viewBox="0 0 143 13" fill="none" xmlns="http://www.w3.org/2000/svg">
<path d="M2.772 12H0.918V1.074H2.772V12ZM4.44783 0.786H5.85183L12.0258 9.012L12.0618 1.074H13.8978V12.216H12.5118L6.31983 4.008L6.30183 12H4.44783V0.786ZM18.7817 12H17.1077V2.64H14.6777V1.074H21.2117V2.64H18.7817V12ZM23.8448 2.64V5.484H27.5168V7.05H23.8448V10.434H27.6428V12H21.9908V1.074H27.6428V2.64H23.8448ZM36.3112 12H34.0252L30.9292 7.14L30.9112 12H29.0572V1.074H31.9552C34.3912 1.074 35.6092 2.172 35.6092 4.368C35.6092 5.196 35.3932 5.886 34.9612 6.438C34.5412 6.99 33.9652 7.308 33.2332 7.392L36.3112 12ZM30.9112 6.384H31.4692C32.9932 6.384 33.7552 5.73 33.7552 4.422C33.7552 3.162 32.9992 2.532 31.4872 2.532H30.9112V6.384ZM39.1771 9.552L38.2051 12H36.2431L40.4911 0.786H42.1471L46.2871 12H44.3071L43.3891 9.552H39.1771ZM41.2111 3.468L39.6271 8.094H42.8851L41.2111 3.468ZM54.2597 3.684C53.6237 2.916 52.8257 2.532 51.8657 2.532C50.8697 2.532 50.0357 2.946 49.3637 3.774C48.6917 4.59 48.3557 5.526 48.3557 6.582C48.3557 7.602 48.6857 8.52 49.3457 9.336C50.0177 10.14 50.8517 10.542 51.8477 10.542C52.7957 10.542 53.5997 10.158 54.2597 9.39V11.64C53.3717 12.072 52.5497 12.288 51.7937 12.288C50.2817 12.288 49.0097 11.73 47.9777 10.614C46.9457 9.498 46.4297 8.166 46.4297 6.618C46.4297 5.01 46.9457 3.636 47.9777 2.496C49.0097 1.356 50.2937 0.786 51.8297 0.786C52.6337 0.786 53.4437 0.996 54.2597 1.416V3.684ZM59.0005 12H57.3265V2.64H54.8965V1.074H61.4305V2.64H59.0005V12ZM64.2075 12H62.3535V1.074H64.2075V12ZM65.3614 6.564C65.3614 4.968 65.8714 3.606 66.8914 2.478C67.9234 1.35 69.2194 0.786 70.7794 0.786C72.3394 0.786 73.6294 1.35 74.6494 2.478C75.6694 3.606 76.1794 4.962 76.1794 6.546C76.1794 8.13 75.6694 9.486 74.6494 10.614C73.6414 11.73 72.3514 12.288 70.7794 12.288C69.2074 12.288 67.9114 11.73 66.8914 10.614C65.8714 9.498 65.3614 8.148 65.3614 6.564ZM67.2874 6.438C67.2874 7.506 67.6234 8.448 68.2954 9.264C68.9674 10.068 69.7954 10.47 70.7794 10.47C71.8354 10.47 72.6814 10.086 73.3174 9.318C73.9534 8.538 74.2714 7.578 74.2714 6.438C74.2714 5.358 73.9534 4.452 73.3174 3.72C72.6814 2.976 71.8294 2.604 70.7614 2.604C69.7054 2.604 68.8594 2.976 68.2234 3.72C67.5994 4.464 67.2874 5.37 67.2874 6.438ZM77.2213 0.786H78.6253L84.7993 9.012L84.8353 1.074H86.6713V12.216H85.2853L79.0933 4.008L79.0753 12H77.2213V0.786ZM94.2369 1.074H97.2969C98.8569 1.074 100.123 1.59 101.095 2.622C102.079 3.654 102.571 4.956 102.571 6.528C102.571 8.1 102.073 9.408 101.077 10.452C100.093 11.484 98.8269 12 97.2789 12H94.2369V1.074ZM96.0909 10.326H96.7209C99.3369 10.326 100.645 9.066 100.645 6.546C100.645 4.014 99.3369 2.748 96.7209 2.748H96.0909V10.326ZM105.442 2.64V5.484H109.114V7.05H105.442V10.434H109.24V12H103.588V1.074H109.24V2.64H105.442ZM115.947 3.288C115.479 2.628 114.885 2.298 114.165 2.298C113.709 2.298 113.325 2.436 113.013 2.712C112.701 2.988 112.545 3.36 112.545 3.828C112.545 4.284 113.109 4.83 114.237 5.466C115.377 6.102 115.953 6.42 115.965 6.42C116.769 7.02 117.171 7.728 117.171 8.544C117.171 9.66 116.847 10.566 116.199 11.262C115.563 11.946 114.687 12.288 113.571 12.288C112.155 12.288 111.039 11.58 110.223 10.164L111.393 9.012C111.549 9.432 111.837 9.816 112.257 10.164C112.677 10.512 113.109 10.686 113.553 10.686C114.081 10.686 114.495 10.506 114.795 10.146C115.107 9.786 115.263 9.348 115.263 8.832C115.263 8.46 115.149 8.136 114.921 7.86C114.693 7.572 113.919 7.14 112.599 6.564C111.291 5.976 110.637 5.142 110.637 4.062C110.637 3.138 110.937 2.364 111.537 1.74C112.149 1.104 112.911 0.786 113.823 0.786C115.083 0.786 116.079 1.194 116.811 2.01L115.947 3.288ZM120.264 12H118.41V1.074H120.264V12ZM131.606 6.186V6.456C131.606 8.196 131.162 9.606 130.274 10.686C129.386 11.754 128.168 12.288 126.62 12.288C125.12 12.288 123.878 11.736 122.894 10.632C121.91 9.528 121.418 8.178 121.418 6.582C121.418 4.926 121.916 3.546 122.912 2.442C123.92 1.338 125.204 0.786 126.764 0.786C128.78 0.786 130.22 1.656 131.084 3.396L129.428 4.278C128.876 3.018 127.97 2.388 126.71 2.388C125.738 2.388 124.934 2.808 124.298 3.648C123.662 4.476 123.344 5.46 123.344 6.6C123.344 7.74 123.656 8.706 124.28 9.498C124.904 10.29 125.714 10.686 126.71 10.686C127.562 10.686 128.24 10.386 128.744 9.786C129.248 9.186 129.5 8.472 129.5 7.644H126.89V6.186H131.606ZM132.645 0.786H134.049L140.223 9.012L140.259 1.074H142.095V12.216H140.709L134.517 4.008L134.499 12H132.645V0.786Z" fill="black"/>
</svg>
