<svg width="136" height="13" viewBox="0 0 136 13" fill="none" xmlns="http://www.w3.org/2000/svg">
<path d="M9.018 4.638L6.282 12.144H5.832L3.258 4.602L2.016 12H0.162L1.998 0.786H3.366L6.21 8.292L8.928 0.786H10.314L11.952 12H10.098L9.018 4.638ZM14.9193 9.552L13.9473 12H11.9853L16.2333 0.786H17.8893L22.0293 12H20.0493L19.1313 9.552H14.9193ZM16.9533 3.468L15.3693 8.094H18.6273L16.9533 3.468ZM30.0019 3.684C29.3659 2.916 28.5679 2.532 27.6079 2.532C26.6119 2.532 25.7779 2.946 25.1059 3.774C24.4339 4.59 24.0979 5.526 24.0979 6.582C24.0979 7.602 24.4279 8.52 25.0879 9.336C25.7599 10.14 26.5939 10.542 27.5899 10.542C28.5379 10.542 29.3419 10.158 30.0019 9.39V11.64C29.1139 12.072 28.2919 12.288 27.5359 12.288C26.0239 12.288 24.7519 11.73 23.7199 10.614C22.6879 9.498 22.1719 8.166 22.1719 6.618C22.1719 5.01 22.6879 3.636 23.7199 2.496C24.7519 1.356 26.0359 0.786 27.5719 0.786C28.3759 0.786 29.1859 0.996 30.0019 1.416V3.684ZM37.7847 5.52V1.074H39.6207V12H37.7847V6.978H33.2667V12H31.4127V1.074H33.2667V5.52H37.7847ZM43.1841 12H41.3301V1.074H43.1841V12ZM44.8599 0.786H46.2639L52.4379 9.012L52.4739 1.074H54.3099V12.216H52.9239L46.7319 4.008L46.7139 12H44.8599V0.786ZM57.7178 2.64V5.484H61.3898V7.05H57.7178V10.434H61.5158V12H55.8638V1.074H61.5158V2.64H57.7178ZM70.796 10.434H74.09V12H68.942V1.074H70.796V10.434ZM76.6319 2.64V5.484H80.3039V7.05H76.6319V10.434H80.4299V12H74.7779V1.074H80.4299V2.64H76.6319ZM83.8783 9.552L82.9063 12H80.9443L85.1923 0.786H86.8483L90.9883 12H89.0083L88.0903 9.552H83.8783ZM85.9123 3.468L84.3283 8.094H87.5863L85.9123 3.468ZM98.9069 12H96.6209L93.5249 7.14L93.5069 12H91.6529V1.074H94.5509C96.9869 1.074 98.2049 2.172 98.2049 4.368C98.2049 5.196 97.9889 5.886 97.5569 6.438C97.1369 6.99 96.5609 7.308 95.8289 7.392L98.9069 12ZM93.5069 6.384H94.0649C95.5889 6.384 96.3509 5.73 96.3509 4.422C96.3509 3.162 95.5949 2.532 94.0829 2.532H93.5069V6.384ZM99.7388 0.786H101.143L107.317 9.012L107.353 1.074H109.189V12.216H107.803L101.611 4.008L101.593 12H99.7388V0.786ZM112.741 12H110.887V1.074H112.741V12ZM114.417 0.786H115.821L121.995 9.012L122.031 1.074H123.867V12.216H122.481L116.289 4.008L116.271 12H114.417V0.786ZM135.086 6.186V6.456C135.086 8.196 134.642 9.606 133.754 10.686C132.866 11.754 131.648 12.288 130.1 12.288C128.6 12.288 127.358 11.736 126.374 10.632C125.39 9.528 124.898 8.178 124.898 6.582C124.898 4.926 125.396 3.546 126.392 2.442C127.4 1.338 128.684 0.786 130.244 0.786C132.26 0.786 133.7 1.656 134.564 3.396L132.908 4.278C132.356 3.018 131.45 2.388 130.19 2.388C129.218 2.388 128.414 2.808 127.778 3.648C127.142 4.476 126.824 5.46 126.824 6.6C126.824 7.74 127.136 8.706 127.76 9.498C128.384 10.29 129.194 10.686 130.19 10.686C131.042 10.686 131.72 10.386 132.224 9.786C132.728 9.186 132.98 8.472 132.98 7.644H130.37V6.186H135.086Z" fill="black"/>
</svg>
