<svg width="181" height="16" viewBox="0 0 181 16" fill="none" xmlns="http://www.w3.org/2000/svg">
<path d="M12.024 5.184L8.376 15.192H7.776L4.344 5.136L2.688 15H0.216L2.664 0.0479994H4.488L8.28 10.056L11.904 0.0479994H13.752L15.936 15H13.464L12.024 5.184ZM19.8924 11.736L18.5964 15H15.9804L21.6444 0.0479994H23.8524L29.3724 15H26.7324L25.5084 11.736H19.8924ZM22.6044 3.624L20.4924 9.792H24.8364L22.6044 3.624ZM40.0026 3.912C39.1546 2.888 38.0906 2.376 36.8106 2.376C35.4826 2.376 34.3706 2.928 33.4746 4.032C32.5786 5.12 32.1306 6.368 32.1306 7.776C32.1306 9.136 32.5706 10.36 33.4506 11.448C34.3466 12.52 35.4586 13.056 36.7866 13.056C38.0506 13.056 39.1226 12.544 40.0026 11.52V14.52C38.8186 15.096 37.7226 15.384 36.7146 15.384C34.6986 15.384 33.0026 14.64 31.6266 13.152C30.2506 11.664 29.5626 9.888 29.5626 7.824C29.5626 5.68 30.2506 3.848 31.6266 2.328C33.0026 0.808 34.7146 0.0479994 36.7626 0.0479994C37.8346 0.0479994 38.9146 0.328 40.0026 0.888V3.912ZM50.3796 6.36V0.431999H52.8276V15H50.3796V8.304H44.3556V15H41.8836V0.431999H44.3556V6.36H50.3796ZM57.5788 15H55.1068V0.431999H57.5788V15ZM59.8133 0.0479994H61.6853L69.9173 11.016L69.9653 0.431999H72.4133V15.288H70.5653L62.3092 4.344L62.2853 15H59.8133V0.0479994ZM76.9571 2.52V6.312H81.8531V8.4H76.9571V12.912H82.0211V15H74.4851V0.431999H82.0211V2.52H76.9571ZM94.3946 12.912H98.7866V15H91.9226V0.431999H94.3946V12.912ZM102.176 2.52V6.312H107.072V8.4H102.176V12.912H107.24V15H99.7039V0.431999H107.24V2.52H102.176ZM111.838 11.736L110.542 15H107.926L113.59 0.0479994H115.798L121.318 15H118.678L117.454 11.736H111.838ZM114.55 3.624L112.438 9.792H116.782L114.55 3.624ZM131.876 15H128.828L124.7 8.52L124.676 15H122.204V0.431999H126.068C129.316 0.431999 130.94 1.896 130.94 4.824C130.94 5.928 130.652 6.848 130.076 7.584C129.516 8.32 128.748 8.744 127.772 8.856L131.876 15ZM124.676 7.512H125.42C127.452 7.512 128.468 6.64 128.468 4.896C128.468 3.216 127.46 2.376 125.444 2.376H124.676V7.512ZM132.985 0.0479994H134.857L143.089 11.016L143.137 0.431999H145.585V15.288H143.737L135.481 4.344L135.457 15H132.985V0.0479994ZM150.321 15H147.849V0.431999H150.321V15ZM152.555 0.0479994H154.427L162.659 11.016L162.707 0.431999H165.155V15.288H163.307L155.051 4.344L155.027 15H152.555V0.0479994ZM180.115 7.248V7.608C180.115 9.928 179.523 11.808 178.339 13.248C177.155 14.672 175.531 15.384 173.467 15.384C171.467 15.384 169.811 14.648 168.499 13.176C167.187 11.704 166.531 9.904 166.531 7.776C166.531 5.568 167.195 3.728 168.523 2.256C169.867 0.783999 171.579 0.0479994 173.659 0.0479994C176.347 0.0479994 178.267 1.208 179.419 3.528L177.211 4.704C176.475 3.024 175.267 2.184 173.587 2.184C172.291 2.184 171.219 2.744 170.371 3.864C169.523 4.968 169.099 6.28 169.099 7.8C169.099 9.32 169.515 10.608 170.347 11.664C171.179 12.72 172.259 13.248 173.587 13.248C174.723 13.248 175.627 12.848 176.299 12.048C176.971 11.248 177.307 10.296 177.307 9.192H173.827V7.248H180.115Z" fill="black"/>
</svg>
