<svg width="16" height="8" viewBox="0 0 16 8" fill="none" xmlns="http://www.w3.org/2000/svg">
<path d="M1.752 8H0.516V0.715999H2.448C4.136 0.715999 4.98 1.468 4.98 2.972C4.98 4.508 4.204 5.276 2.652 5.276H1.752V8ZM1.752 4.292H2.364C3.268 4.292 3.72 3.852 3.72 2.972C3.72 2.124 3.256 1.7 2.328 1.7H1.752V4.292ZM10.2697 6.956V8H5.37366L7.22166 5.66C8.10166 4.572 8.61766 3.892 8.76966 3.62C8.92966 3.34 9.00966 3.112 9.00966 2.936C9.01766 2.888 9.02166 2.84 9.02166 2.792C9.02166 2.472 8.91366 2.188 8.69766 1.94C8.48966 1.692 8.21366 1.568 7.86966 1.568C7.52566 1.568 7.25366 1.708 7.05366 1.988C6.86166 2.268 6.76566 2.608 6.76566 3.008H5.46966C5.46966 2.288 5.68166 1.696 6.10566 1.232C6.53766 0.76 7.12166 0.524 7.85766 0.524C8.52166 0.524 9.08166 0.748 9.53766 1.196C9.99366 1.644 10.2217 2.204 10.2217 2.876C10.2217 3.508 9.73766 4.388 8.76966 5.516L7.53366 6.956H10.2697ZM12.4278 8H11.1918V0.715999H13.1238C14.8118 0.715999 15.6558 1.468 15.6558 2.972C15.6558 4.508 14.8798 5.276 13.3278 5.276H12.4278V8ZM12.4278 4.292H13.0398C13.9438 4.292 14.3958 3.852 14.3958 2.972C14.3958 2.124 13.9318 1.7 13.0038 1.7H12.4278V4.292Z" fill="black"/>
</svg>
