<svg width="102" height="13" viewBox="0 0 102 13" fill="none" xmlns="http://www.w3.org/2000/svg">
<path d="M2.628 12H0.774V1.074H3.672C6.204 1.074 7.47 2.202 7.47 4.458C7.47 6.762 6.306 7.914 3.978 7.914H2.628V12ZM2.628 6.438H3.546C4.902 6.438 5.58 5.778 5.58 4.458C5.58 3.186 4.884 2.55 3.492 2.55H2.628V6.438ZM14.7925 5.52V1.074H16.6285V12H14.7925V6.978H10.2745V12H8.42048V1.074H10.2745V5.52H14.7925ZM17.6719 6.564C17.6719 4.968 18.1819 3.606 19.2019 2.478C20.2339 1.35 21.5299 0.786 23.0899 0.786C24.6499 0.786 25.9399 1.35 26.9599 2.478C27.9799 3.606 28.4899 4.962 28.4899 6.546C28.4899 8.13 27.9799 9.486 26.9599 10.614C25.9519 11.73 24.6619 12.288 23.0899 12.288C21.5179 12.288 20.2219 11.73 19.2019 10.614C18.1819 9.498 17.6719 8.148 17.6719 6.564ZM19.5979 6.438C19.5979 7.506 19.9339 8.448 20.6059 9.264C21.2779 10.068 22.1059 10.47 23.0899 10.47C24.1459 10.47 24.9919 10.086 25.6279 9.318C26.2639 8.538 26.5819 7.578 26.5819 6.438C26.5819 5.358 26.2639 4.452 25.6279 3.72C24.9919 2.976 24.1399 2.604 23.0719 2.604C22.0159 2.604 21.1699 2.976 20.5339 3.72C19.9099 4.464 19.5979 5.37 19.5979 6.438ZM32.8618 12H31.1878V2.64H28.7578V1.074H35.2918V2.64H32.8618V12ZM35.5489 6.564C35.5489 4.968 36.0589 3.606 37.0789 2.478C38.1109 1.35 39.4069 0.786 40.9669 0.786C42.5269 0.786 43.8169 1.35 44.8369 2.478C45.8569 3.606 46.3669 4.962 46.3669 6.546C46.3669 8.13 45.8569 9.486 44.8369 10.614C43.8289 11.73 42.5389 12.288 40.9669 12.288C39.3949 12.288 38.0989 11.73 37.0789 10.614C36.0589 9.498 35.5489 8.148 35.5489 6.564ZM37.4749 6.438C37.4749 7.506 37.8109 8.448 38.4829 9.264C39.1549 10.068 39.9829 10.47 40.9669 10.47C42.0229 10.47 42.8689 10.086 43.5049 9.318C44.1409 8.538 44.4589 7.578 44.4589 6.438C44.4589 5.358 44.1409 4.452 43.5049 3.72C42.8689 2.976 42.0169 2.604 40.9489 2.604C39.8929 2.604 39.0469 2.976 38.4109 3.72C37.7869 4.464 37.4749 5.37 37.4749 6.438ZM57.0748 6.186V6.456C57.0748 8.196 56.6308 9.606 55.7428 10.686C54.8548 11.754 53.6368 12.288 52.0888 12.288C50.5888 12.288 49.3468 11.736 48.3628 10.632C47.3788 9.528 46.8868 8.178 46.8868 6.582C46.8868 4.926 47.3848 3.546 48.3808 2.442C49.3888 1.338 50.6728 0.786 52.2328 0.786C54.2488 0.786 55.6888 1.656 56.5528 3.396L54.8968 4.278C54.3448 3.018 53.4388 2.388 52.1788 2.388C51.2068 2.388 50.4028 2.808 49.7668 3.648C49.1308 4.476 48.8128 5.46 48.8128 6.6C48.8128 7.74 49.1248 8.706 49.7488 9.498C50.3728 10.29 51.1828 10.686 52.1788 10.686C53.0308 10.686 53.7088 10.386 54.2128 9.786C54.7168 9.186 54.9688 8.472 54.9688 7.644H52.3588V6.186H57.0748ZM65.3678 12H63.0818L59.9858 7.14L59.9678 12H58.1138V1.074H61.0118C63.4478 1.074 64.6658 2.172 64.6658 4.368C64.6658 5.196 64.4498 5.886 64.0178 6.438C63.5978 6.99 63.0218 7.308 62.2898 7.392L65.3678 12ZM59.9678 6.384H60.5258C62.0498 6.384 62.8118 5.73 62.8118 4.422C62.8118 3.162 62.0558 2.532 60.5438 2.532H59.9678V6.384ZM68.2338 9.552L67.2618 12H65.2998L69.5478 0.786H71.2038L75.3438 12H73.3638L72.4458 9.552H68.2338ZM70.2678 3.468L68.6838 8.094H71.9418L70.2678 3.468ZM77.8624 12H76.0084V1.074H78.9064C81.4384 1.074 82.7044 2.202 82.7044 4.458C82.7044 6.762 81.5404 7.914 79.2124 7.914H77.8624V12ZM77.8624 6.438H78.7804C80.1364 6.438 80.8144 5.778 80.8144 4.458C80.8144 3.186 80.1184 2.55 78.7264 2.55H77.8624V6.438ZM90.0269 5.52V1.074H91.8629V12H90.0269V6.978H85.5089V12H83.6549V1.074H85.5089V5.52H90.0269ZM92.5103 1.074H94.7063L96.8123 5.16L99.0983 1.074H101.294L97.8023 7.032V12H95.9483V7.032L92.5103 1.074Z" fill="black"/>
</svg>
