<svg width="56" height="14" viewBox="0 0 56 14" fill="none" xmlns="http://www.w3.org/2000/svg">
<path d="M8.028 13H5.742L2.646 8.14L2.628 13H0.774V2.074H3.672C6.108 2.074 7.326 3.172 7.326 5.368C7.326 6.196 7.11 6.886 6.678 7.438C6.258 7.99 5.682 8.308 4.95 8.392L8.028 13ZM2.628 7.384H3.186C4.71 7.384 5.472 6.73 5.472 5.422C5.472 4.162 4.716 3.532 3.204 3.532H2.628V7.384ZM10.1559 9.616C10.1559 10.3 10.3059 10.864 10.6059 11.308C10.9059 11.752 11.3199 11.974 11.8479 11.974C12.6759 11.974 13.2039 11.566 13.4319 10.75L15.0879 11.02C14.5479 12.496 13.4679 13.234 11.8479 13.234C10.7679 13.234 9.90394 12.892 9.25594 12.208C8.61994 11.512 8.30194 10.612 8.30194 9.508C8.30194 8.344 8.60794 7.414 9.21994 6.718C9.84394 6.01 10.6839 5.656 11.7399 5.656C12.8079 5.656 13.6359 5.992 14.2239 6.664C14.8239 7.324 15.1239 8.23 15.1239 9.382V9.616H10.1559ZM13.5039 8.644C13.5039 8.152 13.3479 7.72 13.0359 7.348C12.7359 6.976 12.3399 6.79 11.8479 6.79C11.3679 6.79 10.9719 6.988 10.6599 7.384C10.3599 7.768 10.2099 8.188 10.2099 8.644H13.5039ZM19.8637 7.366C19.4797 7.006 19.0777 6.826 18.6577 6.826C18.0217 6.826 17.7037 7.114 17.7037 7.69C17.7037 8.014 17.9917 8.278 18.5677 8.482C19.6237 8.866 20.2777 9.22 20.5297 9.544C20.7817 9.856 20.9077 10.246 20.9077 10.714C20.9077 11.482 20.6377 12.094 20.0977 12.55C19.5697 13.006 18.9157 13.234 18.1357 13.234C17.1277 13.234 16.2937 12.838 15.6337 12.046L16.4077 11.056C17.0077 11.656 17.5597 11.956 18.0637 11.956C18.7957 11.956 19.1617 11.602 19.1617 10.894C19.1617 10.534 18.9697 10.27 18.5857 10.102C18.2017 9.922 17.9077 9.79 17.7037 9.706C16.5997 9.226 16.0477 8.644 16.0477 7.96C16.0477 7.276 16.2517 6.724 16.6597 6.304C17.0797 5.872 17.6257 5.656 18.2977 5.656C19.2577 5.656 20.0197 5.902 20.5837 6.394L19.8637 7.366ZM23.3571 9.616C23.3571 10.3 23.5071 10.864 23.8071 11.308C24.1071 11.752 24.5211 11.974 25.0491 11.974C25.8771 11.974 26.4051 11.566 26.6331 10.75L28.2891 11.02C27.7491 12.496 26.6691 13.234 25.0491 13.234C23.9691 13.234 23.1051 12.892 22.4571 12.208C21.8211 11.512 21.5031 10.612 21.5031 9.508C21.5031 8.344 21.8091 7.414 22.4211 6.718C23.0451 6.01 23.8851 5.656 24.9411 5.656C26.0091 5.656 26.8371 5.992 27.4251 6.664C28.0251 7.324 28.3251 8.23 28.3251 9.382V9.616H23.3571ZM26.7051 8.644C26.7051 8.152 26.5491 7.72 26.2371 7.348C25.9371 6.976 25.5411 6.79 25.0491 6.79C24.5691 6.79 24.1731 6.988 23.8611 7.384C23.5611 7.768 23.4111 8.188 23.4111 8.644H26.7051ZM35.9989 13H34.2889V12.352C33.7849 12.94 33.0349 13.234 32.0389 13.234C31.0429 13.234 30.2449 12.85 29.6449 12.082C29.0569 11.314 28.7629 10.414 28.7629 9.382C28.7629 8.35 29.0629 7.474 29.6629 6.754C30.2749 6.022 31.0549 5.656 32.0029 5.656C33.0109 5.656 33.7729 5.956 34.2889 6.556V5.89H35.9989V13ZM34.4869 9.436C34.4869 8.776 34.3009 8.236 33.9289 7.816C33.5569 7.384 33.0769 7.168 32.4889 7.168C31.9129 7.168 31.4389 7.378 31.0669 7.798C30.7069 8.206 30.5269 8.752 30.5269 9.436C30.5269 10.12 30.7129 10.672 31.0849 11.092C31.4569 11.512 31.9369 11.722 32.5249 11.722C33.1129 11.722 33.5869 11.518 33.9469 11.11C34.3069 10.702 34.4869 10.144 34.4869 9.436ZM39.2043 6.628C39.6483 5.98 40.3443 5.656 41.2923 5.656C41.5923 5.656 41.8683 5.716 42.1203 5.836L41.9043 7.42C41.6403 7.252 41.3523 7.168 41.0403 7.168C39.8163 7.168 39.2043 8.044 39.2043 9.796V13H37.4583V5.89H39.2043V6.628ZM47.6089 7.744C47.1649 7.3 46.6669 7.078 46.1149 7.078C45.4669 7.078 44.9569 7.312 44.5849 7.78C44.2129 8.248 44.0269 8.824 44.0269 9.508C44.0269 10.18 44.2369 10.732 44.6569 11.164C45.0769 11.596 45.5869 11.812 46.1869 11.812C46.7029 11.812 47.1769 11.584 47.6089 11.128V12.802C47.1049 13.09 46.5229 13.234 45.8629 13.234C44.8309 13.234 43.9729 12.868 43.2889 12.136C42.6049 11.404 42.2629 10.51 42.2629 9.454C42.2629 8.398 42.6109 7.504 43.3069 6.772C44.0149 6.028 44.8969 5.656 45.9529 5.656C46.5769 5.656 47.1289 5.806 47.6089 6.106V7.744ZM50.6125 0.705999V6.484C51.0685 5.932 51.7945 5.656 52.7905 5.656C53.5345 5.656 54.1285 5.944 54.5725 6.52C55.0165 7.096 55.2385 7.81 55.2385 8.662V13H53.5105V9.238C53.5105 7.738 53.0485 6.988 52.1245 6.988C51.1165 6.988 50.6125 7.816 50.6125 9.472V13H48.8665V0.705999H50.6125Z" fill="url(#paint0_linear)" style="mix-blend-mode:multiply"/>
<defs>
<linearGradient id="paint0_linear" x1="68.5" y1="-1.99999" x2="-13" y2="16" gradientUnits="userSpaceOnUse">
<stop stop-color="#0057FF"/>
<stop offset="1" stop-color="#FF00F5"/>
</linearGradient>
</defs>
</svg>
