<svg width="48" height="12" viewBox="0 0 48 12" fill="none" xmlns="http://www.w3.org/2000/svg">
<path d="M8.028 11H5.742L2.646 6.14L2.628 11H0.774V0.073999H3.672C6.108 0.073999 7.326 1.172 7.326 3.368C7.326 4.196 7.11 4.886 6.678 5.438C6.258 5.99 5.682 6.308 4.95 6.392L8.028 11ZM2.628 5.384H3.186C4.71 5.384 5.472 4.73 5.472 3.422C5.472 2.162 4.716 1.532 3.204 1.532H2.628V5.384ZM10.1559 7.616C10.1559 8.3 10.3059 8.864 10.6059 9.308C10.9059 9.752 11.3199 9.974 11.8479 9.974C12.6759 9.974 13.2039 9.566 13.4319 8.75L15.0879 9.02C14.5479 10.496 13.4679 11.234 11.8479 11.234C10.7679 11.234 9.90394 10.892 9.25594 10.208C8.61994 9.512 8.30194 8.612 8.30194 7.508C8.30194 6.344 8.60794 5.414 9.21994 4.718C9.84394 4.01 10.6839 3.656 11.7399 3.656C12.8079 3.656 13.6359 3.992 14.2239 4.664C14.8239 5.324 15.1239 6.23 15.1239 7.382V7.616H10.1559ZM13.5039 6.644C13.5039 6.152 13.3479 5.72 13.0359 5.348C12.7359 4.976 12.3399 4.79 11.8479 4.79C11.3679 4.79 10.9719 4.988 10.6599 5.384C10.3599 5.768 10.2099 6.188 10.2099 6.644H13.5039ZM19.8637 5.366C19.4797 5.006 19.0777 4.826 18.6577 4.826C18.0217 4.826 17.7037 5.114 17.7037 5.69C17.7037 6.014 17.9917 6.278 18.5677 6.482C19.6237 6.866 20.2777 7.22 20.5297 7.544C20.7817 7.856 20.9077 8.246 20.9077 8.714C20.9077 9.482 20.6377 10.094 20.0977 10.55C19.5697 11.006 18.9157 11.234 18.1357 11.234C17.1277 11.234 16.2937 10.838 15.6337 10.046L16.4077 9.056C17.0077 9.656 17.5597 9.956 18.0637 9.956C18.7957 9.956 19.1617 9.602 19.1617 8.894C19.1617 8.534 18.9697 8.27 18.5857 8.102C18.2017 7.922 17.9077 7.79 17.7037 7.706C16.5997 7.226 16.0477 6.644 16.0477 5.96C16.0477 5.276 16.2517 4.724 16.6597 4.304C17.0797 3.872 17.6257 3.656 18.2977 3.656C19.2577 3.656 20.0197 3.902 20.5837 4.394L19.8637 5.366ZM23.7171 3.89V7.742C23.7171 9.122 24.1971 9.812 25.1571 9.812C26.1171 9.812 26.5971 9.122 26.5971 7.742V3.89H28.3431V8.066C28.3431 10.178 27.2811 11.234 25.1571 11.234C23.0331 11.234 21.9711 10.178 21.9711 8.066V3.89H23.7171ZM31.5051 4.52C31.9491 3.944 32.6331 3.656 33.5571 3.656C34.3611 3.656 34.9971 4.028 35.4651 4.772C35.9211 4.028 36.6591 3.656 37.6791 3.656C39.1791 3.656 39.9291 4.628 39.9291 6.572V11H38.2011V7.256C38.2011 5.744 37.7871 4.988 36.9591 4.988C36.1311 4.988 35.7171 5.828 35.7171 7.508V11H33.9711V7.4C33.9711 5.792 33.6051 4.988 32.8731 4.988C31.9611 4.988 31.5051 5.828 31.5051 7.508V11H29.7591V3.89H31.5051V4.52ZM42.7458 7.616C42.7458 8.3 42.8958 8.864 43.1958 9.308C43.4958 9.752 43.9098 9.974 44.4378 9.974C45.2658 9.974 45.7938 9.566 46.0218 8.75L47.6778 9.02C47.1378 10.496 46.0578 11.234 44.4378 11.234C43.3578 11.234 42.4938 10.892 41.8458 10.208C41.2098 9.512 40.8918 8.612 40.8918 7.508C40.8918 6.344 41.1978 5.414 41.8098 4.718C42.4338 4.01 43.2738 3.656 44.3298 3.656C45.3978 3.656 46.2258 3.992 46.8138 4.664C47.4138 5.324 47.7138 6.23 47.7138 7.382V7.616H42.7458ZM46.0938 6.644C46.0938 6.152 45.9378 5.72 45.6258 5.348C45.3258 4.976 44.9298 4.79 44.4378 4.79C43.9578 4.79 43.5618 4.988 43.2498 5.384C42.9498 5.768 42.7998 6.188 42.7998 6.644H46.0938Z" fill="black"/>
</svg>
