<svg width="28" height="9" viewBox="0 0 28 9" fill="none" xmlns="http://www.w3.org/2000/svg">
<path d="M2.736 8H1.62V1.76H0V0.715999H4.356V1.76H2.736V8ZM6.23138 6.368L5.58338 8H4.27537L7.10738 0.524H8.21138L10.9714 8H9.65138L9.03938 6.368H6.23138ZM7.58738 2.312L6.53138 5.396H8.70338L7.58738 2.312ZM12.6504 8H11.4144V0.715999H13.3464C15.0344 0.715999 15.8784 1.468 15.8784 2.972C15.8784 4.508 15.1024 5.276 13.5504 5.276H12.6504V8ZM12.6504 4.292H13.2624C14.1664 4.292 14.6184 3.852 14.6184 2.972C14.6184 2.124 14.1544 1.7 13.2264 1.7H12.6504V4.292ZM18.7321 8H17.6161V1.76H15.9961V0.715999H20.3521V1.76H18.7321V8ZM20.5235 4.376C20.5235 3.312 20.8635 2.404 21.5435 1.652C22.2315 0.9 23.0955 0.524 24.1355 0.524C25.1755 0.524 26.0355 0.9 26.7155 1.652C27.3955 2.404 27.7355 3.308 27.7355 4.364C27.7355 5.42 27.3955 6.324 26.7155 7.076C26.0435 7.82 25.1835 8.192 24.1355 8.192C23.0875 8.192 22.2235 7.82 21.5435 7.076C20.8635 6.332 20.5235 5.432 20.5235 4.376ZM21.8075 4.292C21.8075 5.004 22.0315 5.632 22.4795 6.176C22.9275 6.712 23.4795 6.98 24.1355 6.98C24.8395 6.98 25.4035 6.724 25.8275 6.212C26.2515 5.692 26.4635 5.052 26.4635 4.292C26.4635 3.572 26.2515 2.968 25.8275 2.48C25.4035 1.984 24.8355 1.736 24.1235 1.736C23.4195 1.736 22.8555 1.984 22.4315 2.48C22.0155 2.976 21.8075 3.58 21.8075 4.292Z" fill="black"/>
</svg>
