<svg width="99" height="13" viewBox="0 0 99 13" fill="none" xmlns="http://www.w3.org/2000/svg">
<path d="M5.212 9.156L7.57 0.93H8.542L11.008 9.156L13.42 1.074H15.364L11.656 12.216H10.252L7.93 4.71L5.698 12.216H4.276L0.802 1.074H2.746L5.212 9.156ZM17.7784 2.64V5.484H21.4504V7.05H17.7784V10.434H21.5764V12H15.9244V1.074H21.5764V2.64H17.7784ZM22.9908 1.074H25.6548C27.8388 1.074 28.9308 2.064 28.9308 4.044C28.9308 5.016 28.6128 5.724 27.9768 6.168C28.5528 6.264 29.0028 6.57 29.3268 7.086C29.6628 7.602 29.8308 8.208 29.8308 8.904C29.8308 9.924 29.5068 10.698 28.8588 11.226C28.2228 11.742 27.3828 12 26.3388 12H22.9908V1.074ZM24.8448 10.524H25.8708C27.2868 10.524 27.9948 9.924 27.9948 8.724C27.9948 7.644 27.2508 7.104 25.7628 7.104H24.8448V10.524ZM24.8448 5.772H25.6728C26.7048 5.772 27.2208 5.244 27.2208 4.188C27.2208 3.06 26.7108 2.496 25.6908 2.496H24.8448V5.772ZM38.8721 12H37.0181V1.074H39.9161C42.4481 1.074 43.7141 2.202 43.7141 4.458C43.7141 6.762 42.5501 7.914 40.2221 7.914H38.8721V12ZM38.8721 6.438H39.7901C41.1461 6.438 41.8241 5.778 41.8241 4.458C41.8241 3.186 41.1281 2.55 39.7361 2.55H38.8721V6.438ZM51.9186 12H49.6326L46.5366 7.14L46.5186 12H44.6646V1.074H47.5626C49.9986 1.074 51.2166 2.172 51.2166 4.368C51.2166 5.196 51.0006 5.886 50.5686 6.438C50.1486 6.99 49.5726 7.308 48.8406 7.392L51.9186 12ZM46.5186 6.384H47.0766C48.6006 6.384 49.3626 5.73 49.3626 4.422C49.3626 3.162 48.6066 2.532 47.0946 2.532H46.5186V6.384ZM52.2286 6.564C52.2286 4.968 52.7386 3.606 53.7586 2.478C54.7906 1.35 56.0866 0.786 57.6466 0.786C59.2066 0.786 60.4966 1.35 61.5166 2.478C62.5366 3.606 63.0466 4.962 63.0466 6.546C63.0466 8.13 62.5366 9.486 61.5166 10.614C60.5086 11.73 59.2186 12.288 57.6466 12.288C56.0746 12.288 54.7786 11.73 53.7586 10.614C52.7386 9.498 52.2286 8.148 52.2286 6.564ZM54.1546 6.438C54.1546 7.506 54.4906 8.448 55.1626 9.264C55.8346 10.068 56.6626 10.47 57.6466 10.47C58.7026 10.47 59.5486 10.086 60.1846 9.318C60.8206 8.538 61.1386 7.578 61.1386 6.438C61.1386 5.358 60.8206 4.452 60.1846 3.72C59.5486 2.976 58.6966 2.604 57.6286 2.604C56.5726 2.604 55.7266 2.976 55.0906 3.72C54.4666 4.464 54.1546 5.37 54.1546 6.438ZM68.0845 8.292C68.0845 10.956 67.1005 12.288 65.1325 12.288C64.3645 12.288 63.6505 11.946 62.9905 11.262L64.2325 9.858C64.5325 10.35 64.8565 10.596 65.2045 10.596C65.5525 10.596 65.8105 10.428 65.9785 10.092C66.1585 9.756 66.2485 9.036 66.2485 7.932V1.074H68.0845V8.292ZM71.585 2.64V5.484H75.257V7.05H71.585V10.434H75.383V12H69.731V1.074H75.383V2.64H71.585ZM84.1054 3.684C83.4694 2.916 82.6714 2.532 81.7114 2.532C80.7154 2.532 79.8814 2.946 79.2094 3.774C78.5374 4.59 78.2014 5.526 78.2014 6.582C78.2014 7.602 78.5314 8.52 79.1914 9.336C79.8634 10.14 80.6974 10.542 81.6934 10.542C82.6414 10.542 83.4454 10.158 84.1054 9.39V11.64C83.2174 12.072 82.3954 12.288 81.6394 12.288C80.1274 12.288 78.8554 11.73 77.8234 10.614C76.7914 9.498 76.2754 8.166 76.2754 6.618C76.2754 5.01 76.7914 3.636 77.8234 2.496C78.8554 1.356 80.1394 0.786 81.6754 0.786C82.4794 0.786 83.2894 0.996 84.1054 1.416V3.684ZM88.8462 12H87.1722V2.64H84.7422V1.074H91.2762V2.64H88.8462V12ZM97.3473 3.288C96.8793 2.628 96.2853 2.298 95.5653 2.298C95.1093 2.298 94.7253 2.436 94.4133 2.712C94.1013 2.988 93.9453 3.36 93.9453 3.828C93.9453 4.284 94.5093 4.83 95.6373 5.466C96.7773 6.102 97.3533 6.42 97.3653 6.42C98.1693 7.02 98.5713 7.728 98.5713 8.544C98.5713 9.66 98.2473 10.566 97.5993 11.262C96.9633 11.946 96.0873 12.288 94.9713 12.288C93.5553 12.288 92.4393 11.58 91.6233 10.164L92.7933 9.012C92.9493 9.432 93.2373 9.816 93.6572 10.164C94.0773 10.512 94.5093 10.686 94.9533 10.686C95.4813 10.686 95.8953 10.506 96.1953 10.146C96.5073 9.786 96.6633 9.348 96.6633 8.832C96.6633 8.46 96.5493 8.136 96.3213 7.86C96.0933 7.572 95.3193 7.14 93.9993 6.564C92.6913 5.976 92.0373 5.142 92.0373 4.062C92.0373 3.138 92.3373 2.364 92.9373 1.74C93.5493 1.104 94.3113 0.786 95.2233 0.786C96.4833 0.786 97.4793 1.194 98.2113 2.01L97.3473 3.288Z" fill="black"/>
</svg>
